<svg
  width="256"
  height="75"
  viewBox="0 0 256 75"
  fill="none"
  xmlns="http://www.w3.org/2000/svg"
>
  <g clip-path="url(#clip0)">
    <path
      fill-rule="evenodd"
      clip-rule="evenodd"
      d="M97.5375 17.0515V50.429H109.7V56.186H91.0618V17.0515H97.5375ZM132.56 33.6551V30.1351H138.697V56.186H132.559V52.6631C131.734 53.9679 130.56 54.9933 129.039 55.738C127.52 56.4828 125.99 56.8551 124.451 56.8551C122.461 56.8551 120.64 56.4915 118.989 55.7657C117.382 55.0708 115.935 54.0529 114.737 52.7751C113.554 51.5066 112.618 50.0275 111.98 48.4144C111.316 46.7424 110.981 44.958 110.993 43.1591C110.993 41.3337 111.322 39.5911 111.98 37.9315C112.614 36.3085 113.55 34.8201 114.737 33.5446C115.935 32.2666 117.382 31.2482 118.989 30.5526C120.64 29.8253 122.461 29.4617 124.451 29.4617C125.99 29.4617 127.52 29.8355 129.04 30.5817C130.56 31.3264 131.734 32.3519 132.56 33.6551V33.6551ZM131.996 46.346C132.373 45.3267 132.565 44.2477 132.56 43.1606C132.56 42.0406 132.371 40.9788 131.996 39.9722C131.643 39.0041 131.108 38.1124 130.42 37.3453C129.732 36.591 128.899 35.9826 127.971 35.5562C127.012 35.1097 125.952 34.8857 124.788 34.8857C123.625 34.8857 122.573 35.1097 121.635 35.5562C120.697 36.0042 119.889 36.6006 119.215 37.3453C118.528 38.1086 118.002 39.0019 117.667 39.9722C117.307 40.9959 117.126 42.074 117.132 43.1591C117.132 44.2777 117.309 45.341 117.667 46.3446C118.002 47.3155 118.528 48.2094 119.215 48.973C119.896 49.7228 120.718 50.3308 121.635 50.762C122.573 51.21 123.625 51.4326 124.788 51.4326C125.952 51.4326 127.014 51.21 127.971 50.7635C128.899 50.3375 129.732 49.729 130.42 48.9744C131.109 48.207 131.643 47.3148 131.996 46.346V46.346ZM143.539 56.1846V30.1337H160.207V36.1293H149.676V56.1846H143.539V56.1846ZM182.448 33.6551V30.1351H188.585V56.186H182.447V52.6631C181.62 53.9679 180.448 54.9933 178.927 55.738C177.408 56.4828 175.878 56.8551 174.339 56.8551C172.348 56.8551 170.528 56.4915 168.877 55.7657C167.27 55.0708 165.823 54.0529 164.625 52.7751C163.442 51.5066 162.506 50.0275 161.868 48.4144C161.204 46.7424 160.869 44.958 160.881 43.1591C160.881 41.3337 161.209 39.5911 161.868 37.9315C162.502 36.3085 163.438 34.8201 164.625 33.5446C165.823 32.2666 167.27 31.2482 168.877 30.5526C170.528 29.8253 172.348 29.4617 174.339 29.4617C175.878 29.4617 177.408 29.8355 178.928 30.5817C180.448 31.3264 181.62 32.3519 182.448 33.6551V33.6551ZM181.884 46.346C182.261 45.3266 182.452 44.2476 182.447 43.1606C182.447 42.0406 182.257 40.9788 181.884 39.9722C181.531 39.0039 180.995 38.1122 180.307 37.3453C179.618 36.591 178.785 35.9826 177.857 35.5562C176.9 35.1097 175.84 34.8857 174.676 34.8857C173.513 34.8857 172.461 35.1097 171.523 35.5562C170.585 36.0042 169.777 36.6006 169.103 37.3453C168.416 38.1085 167.889 39.0018 167.553 39.9722C167.193 40.9959 167.012 42.074 167.018 43.1591C167.018 44.2777 167.196 45.341 167.553 46.3446C167.888 47.3157 168.415 48.2095 169.103 48.973C169.784 49.7228 170.606 50.3308 171.523 50.762C172.461 51.21 173.513 51.4326 174.676 51.4326C175.84 51.4326 176.902 51.21 177.857 50.7635C178.786 50.3375 179.619 49.729 180.307 48.9744C180.996 48.2072 181.531 47.3149 181.884 46.346V46.346ZM213.19 30.1337H219.407L209.332 56.1846H201.62L191.546 30.1337H197.763L205.476 50.0828L213.19 30.1337V30.1337ZM232.791 29.4646C241.149 29.4646 246.848 36.8173 245.777 45.4239H225.417C225.417 47.6711 227.702 52.0159 233.129 52.0159C237.798 52.0159 240.925 47.9388 240.928 47.9359L245.073 51.1213C241.367 55.0515 238.332 56.8566 233.578 56.8566C225.084 56.8566 219.328 51.5213 219.328 43.1606C219.328 35.597 225.277 29.4646 232.791 29.4646V29.4646ZM225.433 40.8959H240.141C240.096 40.394 239.299 34.3039 232.743 34.3039C226.188 34.3039 225.481 40.394 225.433 40.8959V40.8959ZM249.775 56.1846V17.0515H255.913V56.1846H249.775V56.1846ZM72.384 16.746C72.4108 16.8447 72.4245 16.9464 72.4247 17.0486V32.938C72.4244 33.1424 72.37 33.343 72.2671 33.5196C72.1641 33.6961 72.0163 33.8422 71.8385 33.9431L58.4073 41.6217V56.8406C58.4067 57.0447 58.3522 57.245 58.2492 57.4213C58.1463 57.5975 57.9986 57.7435 57.8211 57.8442L29.7862 73.8719C29.7222 73.9097 29.6509 73.9315 29.5825 73.9562C29.5549 73.965 29.5302 73.981 29.504 73.9882C29.3076 74.0397 29.1012 74.0397 28.9047 73.9882C28.8727 73.9795 28.8436 73.962 28.8131 73.9504C28.7476 73.9286 28.6822 73.9068 28.6211 73.8719L0.584727 57.8471C0.407068 57.7459 0.259377 57.5995 0.156671 57.4227C0.0539662 57.2459 -8.97276e-05 57.0451 1.118e-07 56.8406V9.17223C0.000231009 9.07003 0.0139246 8.96831 0.0407274 8.86968C0.0494547 8.83477 0.0698183 8.80423 0.0814547 8.77223C0.104727 8.71114 0.125091 8.64859 0.157091 8.59187C0.178909 8.55405 0.210909 8.5235 0.235636 8.49005C0.270546 8.4435 0.299636 8.39405 0.340364 8.35332C0.373818 8.31987 0.417455 8.29514 0.455273 8.26605C0.497455 8.23405 0.535273 8.19623 0.583273 8.16859L0.584727 8.16714L14.6036 0.154048C14.781 0.0533208 14.9815 0.000366211 15.1855 0.000366211C15.3894 0.000366211 15.5899 0.0533208 15.7673 0.154048L29.7862 8.16714H29.7891C29.8356 8.19623 29.8735 8.23405 29.9171 8.26605C29.9549 8.29514 29.9971 8.31987 30.0305 8.35332C30.0713 8.39405 30.1004 8.4435 30.1353 8.48859C30.1615 8.5235 30.1935 8.55405 30.2153 8.59187C30.2473 8.64859 30.2676 8.71114 30.2909 8.77223C30.3025 8.80423 30.3215 8.83477 30.3316 8.86968C30.3579 8.96837 30.3712 9.07009 30.3709 9.17223V38.9453L42.0538 32.2675V17.0486C42.0536 16.9465 42.0668 16.8447 42.0931 16.746C42.1033 16.7111 42.1222 16.682 42.1353 16.6486C42.1571 16.5875 42.1775 16.525 42.2095 16.4682C42.2313 16.4304 42.2633 16.3999 42.2895 16.3664C42.3244 16.3199 42.3535 16.2704 42.3942 16.2311C42.4276 16.1977 42.4698 16.173 42.5076 16.1439C42.5513 16.1104 42.5891 16.0711 42.6371 16.045V16.0435L56.656 8.03041C56.8335 7.92914 57.0342 7.87588 57.2385 7.87588C57.4429 7.87588 57.6436 7.92914 57.8211 8.03041L71.8385 16.0435H71.84C71.8895 16.0726 71.9273 16.1104 71.9709 16.1424C72.0073 16.1715 72.0509 16.1977 72.0844 16.2297C72.1251 16.2704 72.1542 16.3199 72.1876 16.365C72.2138 16.3999 72.2458 16.4304 72.2676 16.4682C72.3011 16.525 72.32 16.5875 72.3433 16.6486C72.3564 16.682 72.3753 16.7111 72.384 16.746V16.746ZM70.0887 32.2675V19.0544L65.1825 21.8588L58.4073 25.7322V38.9453L70.0873 32.2675H70.0887ZM56.0713 56.17V42.9482L49.4036 46.7271L30.3709 57.5126V70.858L56.0713 56.1671V56.17ZM2.336 11.178V56.17L28.0349 70.861V57.517L14.6095 49.9737L14.6065 49.9693L14.6007 49.9679C14.5542 49.9417 14.5178 49.9039 14.4756 49.8719C14.4378 49.8428 14.3971 49.8195 14.3636 49.7875L14.3607 49.7831C14.3229 49.7468 14.2967 49.7017 14.2647 49.661C14.2356 49.6231 14.2007 49.5897 14.1775 49.549L14.176 49.5446C14.1498 49.501 14.1338 49.4486 14.1149 49.3991C14.096 49.357 14.0713 49.3162 14.0596 49.2697V49.2682C14.0436 49.213 14.0422 49.1548 14.0349 49.098C14.0305 49.0544 14.0175 49.0122 14.0175 48.9671V17.8544L7.24364 13.9824L2.336 11.178ZM15.1855 2.49732L3.50982 9.17368L15.1855 15.8471L26.8625 9.17223L15.1855 2.49732V2.49732ZM21.2596 44.1526L28.0349 40.2806V11.178L23.1302 13.9824L16.3535 17.8559V46.957L21.2596 44.1526V44.1526ZM57.2393 10.3751L45.5622 17.0486L57.2393 23.7235L68.9149 17.0486L57.2393 10.3751V10.3751ZM56.0713 25.7322L49.2945 21.8588L44.3898 19.0544V32.2675L51.1651 36.141L56.0713 38.9453V25.7308V25.7322ZM29.2015 55.5068L46.3287 45.7991L54.8902 40.9468L43.2218 34.2762L29.7862 41.9562L17.5418 48.9555L29.2015 55.5068Z"
      fill="#FF2D20"
    />
  </g>
  <defs>
    <clipPath id="clip0">
      <rect width="256" height="74.1818" fill="white" />
    </clipPath>
  </defs>
</svg>
