<svg version="1.0" xmlns="http://www.w3.org/2000/svg" viewBox="0 0 512.000000 512.000000"
  preserveAspectRatio="xMidYMid meet" fill="currentColor">
  <g transform="translate(0.000000,512.000000) scale(0.100000,-0.100000)" stroke="none">
    <path d="M3303 4697 c-237 -236 -263 -266 -263 -295 0 -22 8 -41 25 -57 22
-23 32 -25 120 -25 l95 0 0 -80 0 -80 -1407 -2 -1408 -3 -67 -32 c-93 -44
-151 -100 -196 -191 l-37 -76 -3 -208 -4 -208 81 0 81 0 0 176 c0 110 5 192
12 218 16 55 99 138 154 154 32 9 366 12 1418 12 l1376 0 0 -760 0 -760 80 0
80 0 0 974 c0 931 -1 975 -18 997 -12 14 -34 24 -61 28 l-41 6 140 140 140
140 140 -140 140 -140 -41 -6 c-27 -4 -49 -14 -61 -28 -17 -22 -18 -65 -18
-957 l0 -934 80 0 80 0 0 720 0 720 176 0 c110 0 192 -5 218 -12 55 -16 138
-99 154 -154 9 -31 12 -246 12 -858 l0 -816 80 0 81 0 -3 848 -3 847 -32 67
c-44 93 -100 151 -191 196 l-76 37 -208 3 -208 4 0 79 0 79 95 0 c88 0 98 2
120 25 17 16 25 35 25 57 0 29 -26 59 -263 295 -242 243 -265 263 -297 263
-32 0 -55 -20 -297 -263z" />
    <path d="M4080 4881 l0 -79 48 -7 c59 -8 155 -59 188 -98 38 -45 71 -117 79
-170 l7 -47 79 0 c90 0 87 -4 69 91 -25 131 -124 266 -239 328 -61 32 -156 61
-203 61 l-28 0 0 -79z" />
    <path d="M560 3760 l0 -80 80 0 80 0 0 80 0 80 -80 0 -80 0 0 -80z" />
    <path d="M880 3760 l0 -80 80 0 80 0 0 80 0 80 -80 0 -80 0 0 -80z" />
    <path d="M1200 3760 l0 -80 80 0 80 0 0 80 0 80 -80 0 -80 0 0 -80z" />
    <path d="M2505 3735 l-25 -24 0 -896 0 -895 -80 0 -80 0 0 615 0 616 -25 24
-24 25 -271 0 -271 0 -24 -25 -25 -24 0 -616 0 -615 -80 0 -80 0 0 335 0 336
-25 24 -24 25 -271 0 -271 0 -24 -25 -25 -24 0 -336 0 -335 -160 0 -160 0 0
-80 0 -80 1040 0 1040 0 0 920 0 920 160 0 160 0 0 -640 0 -640 80 0 80 0 0
695 0 696 -25 24 -24 25 -271 0 -271 0 -24 -25z m-345 -1255 l0 -560 -160 0
-160 0 0 560 0 560 160 0 160 0 0 -560z m-800 -280 l0 -280 -160 0 -160 0 0
280 0 280 160 0 160 0 0 -280z" />
    <path d="M162 2273 l3 -1008 32 -67 c44 -93 100 -151 191 -196 l76 -37 714 -3
c669 -2 713 -4 708 -20 -18 -61 -133 -444 -157 -524 l-30 -98 -89 0 -90 0 0
-80 0 -80 880 0 880 0 0 80 0 80 -90 0 -89 0 -30 98 c-16 53 -39 130 -51 170
-12 39 -24 72 -27 72 -27 0 -143 -44 -143 -54 0 -7 18 -73 40 -146 22 -73 40
-135 40 -137 0 -2 -238 -3 -530 -3 -291 0 -530 3 -530 8 0 4 43 146 94 317
l94 310 291 3 291 2 0 80 0 80 -1056 0 c-800 0 -1067 3 -1098 12 -55 16 -138
99 -154 154 -7 23 -12 67 -12 98 l0 56 1120 0 1120 0 0 80 0 80 -1120 0 -1120
0 0 840 0 840 -80 0 -80 0 2 -1007z" />
    <path d="M3545 2393 c-209 -33 -383 -121 -533 -267 -132 -128 -216 -270 -263
-446 -31 -113 -33 -358 -5 -460 54 -194 141 -345 273 -471 296 -282 723 -348
1089 -168 l65 32 217 -215 c228 -225 246 -238 334 -238 124 0 238 115 238 240
0 86 -13 105 -238 332 l-215 217 32 65 c177 361 115 790 -158 1078 -190 202
-397 295 -671 303 -74 2 -148 1 -165 -2z m325 -176 c100 -28 168 -57 243 -107
427 -278 490 -875 131 -1234 -359 -359 -956 -296 -1234 131 -89 136 -125 259
-125 433 0 174 36 297 124 432 119 182 304 308 521 354 80 17 262 12 340 -9z
m930 -1815 c0 -44 -38 -82 -81 -82 -29 0 -55 22 -226 192 l-193 192 57 58 58
59 192 -194 c171 -171 193 -197 193 -225z" />
    <path d="M3540 2065 c-176 -38 -351 -175 -429 -337 -94 -194 -94 -382 0 -576
101 -210 331 -352 569 -352 237 0 461 139 568 350 99 198 94 423 -15 610 -139
238 -421 363 -693 305z m255 -160 c238 -62 393 -291 358 -531 -30 -212 -196
-377 -409 -407 -329 -48 -612 266 -529 586 67 258 329 417 580 352z" />
    <path d="M3604 1751 c-47 -12 -133 -62 -160 -94 -38 -45 -71 -117 -79 -170
l-7 -47 79 0 79 0 12 44 c14 52 66 102 117 112 l35 6 0 79 c0 87 0 88 -76 70z" />
  </g>
</svg>