<svg viewBox="0 0 512 102"
    fill="currentColor"
    xmlns="http://www.w3.org/2000/svg">
    <!-- fill="#506690" -->
    <path d="M191.962 57.3207C191.962 60.3503 191.18 62.9002 189.614 64.9704C188.049 66.9901 185.928 68.5302 183.252 69.5905C180.627 70.6509 177.749 71.1811 174.618 71.1811H148.639V17.4059H177.42C179.945 17.4059 182.116 18.0876 183.934 19.4509C185.752 20.7637 187.166 22.4805 188.175 24.6012C189.185 26.7219 189.69 28.8931 189.69 31.1148C189.69 33.7405 189.034 36.2146 187.721 38.5373C186.408 40.8095 184.489 42.501 181.965 43.6119C185.045 44.5207 187.468 46.1618 189.236 48.5349C191.053 50.9081 191.962 53.8367 191.962 57.3207ZM159.091 26.3432V39.9006H173.027C174.744 39.9006 176.234 39.2947 177.496 38.0829C178.758 36.871 179.39 35.2047 179.39 33.084C179.39 31.0643 178.809 29.4485 177.648 28.2367C176.537 26.9744 175.148 26.3432 173.482 26.3432H159.091ZM181.435 55.3515C181.435 53.3823 180.829 51.6907 179.617 50.2769C178.405 48.8631 176.915 48.1562 175.148 48.1562H159.091V62.3195H174.618C176.537 62.3195 178.152 61.6379 179.465 60.2746C180.778 58.9113 181.435 57.2702 181.435 55.3515ZM196.408 59.4414C196.408 56.8663 197.115 54.6194 198.528 52.7006C199.993 50.7314 202.012 49.2166 204.588 48.1562C207.163 47.0959 210.117 46.5657 213.449 46.5657C215.115 46.5657 216.807 46.7172 218.524 47.0201C220.241 47.2726 221.73 47.6513 222.992 48.1562V46.0355C222.992 43.5109 222.235 41.5669 220.72 40.2036C219.256 38.8403 217.059 38.1586 214.131 38.1586C211.96 38.1586 209.889 38.5373 207.92 39.2947C205.951 40.0521 203.881 41.1629 201.71 42.6272L198.453 35.9621C201.078 34.2454 203.755 32.9578 206.481 32.0994C209.258 31.241 212.162 30.8118 215.191 30.8118C220.846 30.8118 225.239 32.2257 228.37 35.0533C231.551 37.8809 233.141 41.9203 233.141 47.1716V59.8201C233.141 60.931 233.318 61.7136 233.672 62.1681C234.025 62.572 234.656 62.8245 235.565 62.9255V71.1811C234.656 71.3831 233.823 71.5093 233.066 71.5598C232.359 71.6608 231.753 71.7113 231.248 71.7113C229.228 71.7113 227.688 71.2568 226.628 70.3479C225.568 69.4391 224.936 68.3282 224.734 67.0154L224.507 64.9704C222.74 67.2426 220.569 68.9847 217.994 70.1965C215.469 71.3578 212.869 71.9385 210.192 71.9385C207.516 71.9385 205.143 71.4083 203.073 70.3479C201.003 69.2371 199.362 67.7475 198.15 65.8793C196.988 63.9606 196.408 61.8146 196.408 59.4414ZM221.099 61.4864C222.361 60.2746 222.992 59.1132 222.992 58.0024V53.9882C220.367 52.9278 217.716 52.3976 215.04 52.3976C212.364 52.3976 210.192 52.9783 208.526 54.1397C206.86 55.2505 206.027 56.74 206.027 58.6083C206.027 60.1231 206.633 61.4864 207.844 62.6982C209.056 63.9101 210.798 64.516 213.07 64.516C214.585 64.516 216.05 64.2383 217.463 63.6829C218.928 63.1274 220.14 62.3953 221.099 61.4864ZM261.106 71.9385C256.814 71.9385 253.102 70.9791 249.972 69.0604C246.841 67.1417 244.418 64.617 242.701 61.4864C240.984 58.3558 240.126 54.9728 240.126 51.3373C240.126 47.6513 240.959 44.243 242.625 41.1124C244.342 37.9819 246.766 35.4825 249.896 33.6142C253.027 31.746 256.738 30.8118 261.03 30.8118C265.372 30.8118 269.058 31.746 272.088 33.6142C275.168 35.4825 277.465 37.9314 278.98 40.961L269.058 43.9906C267.291 40.961 264.59 39.4462 260.954 39.4462C258.985 39.4462 257.218 39.9511 255.652 40.961C254.087 41.9203 252.85 43.3089 251.941 45.1267C251.032 46.8939 250.578 48.9641 250.578 51.3373C250.578 53.66 251.032 55.7302 251.941 57.5479C252.9 59.3152 254.163 60.729 255.728 61.7894C257.293 62.7992 259.035 63.3042 260.954 63.3042C262.772 63.3042 264.438 62.875 265.953 62.0166C267.518 61.1077 268.604 59.9716 269.21 58.6083L279.132 61.6379C277.768 64.617 275.496 67.0912 272.315 69.0604C269.184 70.9791 265.448 71.9385 261.106 71.9385ZM312.491 71.1811L300.903 54.0639L295.526 59.3657V71.1811H285.377V15.8911H295.526V49.3681L311.507 31.5692H322.262L307.493 48.3834L323.322 71.1811H312.491ZM503.862 71.1811V60.2746H512.194V71.1811H503.862Z" />
    <!-- fill="#7C69EF" -->
    <path d="M351.392 71.9385C348.262 71.9385 345.535 71.2316 343.212 69.8178C340.89 68.404 339.072 66.5357 337.759 64.213V87.3136H327.61V31.4935H336.472V38.3101C337.936 35.9874 339.829 34.1696 342.152 32.8568C344.525 31.4935 347.201 30.8118 350.18 30.8118C353.765 30.8118 356.946 31.746 359.724 33.6142C362.501 35.432 364.697 37.9061 366.313 41.0367C367.929 44.1168 368.737 47.5251 368.737 51.2616C368.737 55.1495 367.979 58.6588 366.464 61.7894C365 64.8695 362.955 67.3436 360.33 69.2118C357.754 71.0296 354.775 71.9385 351.392 71.9385ZM347.984 63.3042C350.054 63.3042 351.847 62.7487 353.361 61.6379C354.927 60.4765 356.139 58.987 356.997 57.1693C357.906 55.301 358.36 53.3318 358.36 51.2616C358.36 49.0399 357.881 47.0454 356.921 45.2781C355.962 43.4604 354.649 42.0466 352.983 41.0367C351.367 39.9763 349.499 39.4462 347.378 39.4462C345.459 39.4462 343.541 40.0773 341.622 41.3397C339.703 42.602 338.415 44.1925 337.759 46.1113V55.4272C338.668 57.6489 340.057 59.5172 341.925 61.032C343.793 62.5468 345.813 63.3042 347.984 63.3042ZM372.886 59.4414C372.886 56.8663 373.593 54.6194 375.007 52.7006C376.471 50.7314 378.491 49.2166 381.066 48.1562C383.641 47.0959 386.595 46.5657 389.928 46.5657C391.594 46.5657 393.285 46.7172 395.002 47.0202C396.719 47.2726 398.208 47.6513 399.471 48.1562V46.0355C399.471 43.5109 398.713 41.5669 397.199 40.2036C395.734 38.8403 393.538 38.1586 390.609 38.1586C388.438 38.1586 386.368 38.5373 384.399 39.2947C382.429 40.0521 380.359 41.1629 378.188 42.6272L374.931 35.9621C377.557 34.2454 380.233 32.9578 382.96 32.0994C385.737 31.241 388.64 30.8118 391.67 30.8118C397.325 30.8118 401.718 32.2257 404.848 35.0533C408.029 37.8809 409.62 41.9203 409.62 47.1716V59.8201C409.62 60.931 409.797 61.7136 410.15 62.1681C410.503 62.572 411.135 62.8245 412.044 62.9255V71.1811C411.135 71.3831 410.302 71.5093 409.544 71.5598C408.837 71.6608 408.231 71.7113 407.726 71.7113C405.707 71.7113 404.167 71.2568 403.106 70.3479C402.046 69.4391 401.415 68.3282 401.213 67.0154L400.986 64.9704C399.218 67.2426 397.047 68.9847 394.472 70.1965C391.947 71.3578 389.347 71.9385 386.671 71.9385C383.995 71.9385 381.621 71.4083 379.551 70.3479C377.481 69.2371 375.84 67.7476 374.628 65.8793C373.467 63.9606 372.886 61.8146 372.886 59.4414ZM397.577 61.4864C398.84 60.2746 399.471 59.1132 399.471 58.0024V53.9882C396.845 52.9278 394.194 52.3976 391.518 52.3976C388.842 52.3976 386.671 52.9783 385.004 54.1397C383.338 55.2505 382.505 56.74 382.505 58.6083C382.505 60.1231 383.111 61.4864 384.323 62.6983C385.535 63.9101 387.277 64.516 389.549 64.516C391.064 64.516 392.528 64.2383 393.942 63.6829C395.406 63.1274 396.618 62.3953 397.577 61.4864ZM437.585 71.9385C433.293 71.9385 429.582 70.9791 426.451 69.0604C423.321 67.1417 420.897 64.617 419.18 61.4864C417.463 58.3558 416.605 54.9728 416.605 51.3373C416.605 47.6513 417.438 44.243 419.104 41.1125C420.821 37.9819 423.245 35.4825 426.376 33.6142C429.506 31.746 433.217 30.8118 437.509 30.8118C441.852 30.8118 445.538 31.746 448.567 33.6142C451.647 35.4825 453.945 37.9314 455.46 40.961L445.538 43.9906C443.77 40.961 441.069 39.4462 437.433 39.4462C435.464 39.4462 433.697 39.9511 432.132 40.961C430.566 41.9203 429.329 43.3089 428.42 45.1267C427.512 46.8939 427.057 48.9641 427.057 51.3373C427.057 53.66 427.512 55.7302 428.42 57.5479C429.38 59.3152 430.642 60.729 432.207 61.7894C433.773 62.7992 435.515 63.3042 437.433 63.3042C439.251 63.3042 440.918 62.875 442.432 62.0166C443.998 61.1077 445.083 59.9716 445.689 58.6083L455.611 61.6379C454.248 64.617 451.975 67.0912 448.794 69.0604C445.664 70.9791 441.927 71.9385 437.585 71.9385ZM488.971 71.1811L477.383 54.0639L472.005 59.3657V71.1811H461.856V15.8911H472.005V49.3681L487.986 31.5692H498.741L483.972 48.3834L499.802 71.1811H488.971Z" />
    <!-- fill="#506690" -->
    <path d="M28.2509 1.38147C17.7252 3.02654 17.0674 3.88192 21.0145 10.5914C23.6459 15.1308 23.8432 15.7882 22.067 14.2098C20.6198 12.8939 17.9884 13.0252 7.1996 15.0651C2.13413 15.9861 1.21314 16.381 0.357885 17.8281C-0.563109 19.4065 -0.234197 20.1306 7.85742 34.6029C12.4624 42.8919 16.7385 50.4577 17.2647 51.4444C18.2515 53.0884 18.1857 53.2864 16.2121 55.5889C15.0279 56.8391 14.107 58.5488 14.107 59.3385C14.107 61.0492 23.7116 79.6004 25.159 80.7849C25.751 81.1788 27.3956 81.5736 28.8429 81.5736C33.1848 81.5736 34.3688 82.2321 36.474 85.5868C38.6449 89.1395 38.8423 89.2051 43.2498 87.8893L46.3417 86.9683L50.4862 94.3363C53.2492 99.0725 55.157 101.704 55.9464 101.835C57.4598 102.033 108.18 86.5078 111.666 84.7971C113.048 84.074 114.101 83.0207 114.101 82.3633C114.101 81.7715 112.522 79.0086 110.614 76.3112C108.706 73.6139 106.93 71.0478 106.667 70.654C106.404 70.1935 107.128 69.4694 108.509 68.812C111.206 67.4961 111.338 66.5095 109.167 63.3517L107.588 60.9169L108.903 58.7467C109.693 57.5621 110.153 56.1806 109.956 55.6545C109.496 54.4699 98.4441 39.0766 97.4574 38.2869C96.9969 37.9587 95.0883 37.169 93.2463 36.5772L89.7603 35.3926L79.4314 20.5911C73.7741 12.4334 68.7087 5.65723 68.2482 5.46031C66.801 4.86853 51.9993 7.30229 50.881 8.28892C49.96 9.07864 49.4995 8.6838 46.6708 4.60497L43.513 0L39.829 0.0656435C37.7897 0.131285 32.5927 0.724052 28.2509 1.38147ZM39.5001 7.03874C41.0132 9.07866 40.5527 9.67042 37.0661 10.1309C35.1583 10.3945 32.8559 10.7894 31.8033 10.9863C30.2902 11.2499 29.8297 10.9863 28.9744 9.34122L27.922 7.3023L30.3559 6.90745C31.7374 6.64489 33.3163 6.38131 33.8426 6.25003C36.5398 5.72389 38.7107 5.98646 39.5001 7.03874ZM74.169 25.9858L84.2343 40.4581L88.1808 41.7083C91.9971 42.8919 92.1284 43.0242 97.1938 50.1285L102.259 57.2996L101.207 59.3385C100.614 60.3908 99.9568 61.0492 99.6933 60.7856C99.3651 60.4564 96.2729 56.115 92.7858 51.1152L86.4055 42.1032H83.6425C82.1287 42.1688 69.761 44.9318 56.2096 48.2866C33.6453 53.8782 31.4744 54.5366 30.6191 56.0493C29.6324 57.76 29.9613 58.4831 40.6185 76.9687L41.9342 79.2711L40.5527 77.8896C39.5659 76.8374 38.0528 76.3768 34.6978 76.0476L30.2243 75.5871L25.8826 67.2326L21.5408 58.8123L23.7116 56.2463C24.9616 54.7991 25.9484 53.1551 25.9484 52.6279C25.9484 52.0361 22.067 44.6682 17.3305 36.248C12.594 27.8277 8.84416 20.788 9.04148 20.6567C9.17307 20.4598 11.0151 20.0649 13.1202 19.7357L16.87 19.144L20.4882 22.1039C22.6591 23.8146 24.5669 24.9325 25.2247 24.7355C25.8168 24.5376 32.4611 23.2228 39.9606 21.7746C55.6175 18.7491 57.8547 17.8281 57.8547 14.4067C57.8547 12.3021 57.986 12.1708 60.4854 11.776C61.9325 11.578 63.314 11.3811 63.5776 11.4468C63.8411 11.5124 68.5774 18.025 74.169 25.9858ZM50.2889 13.0918C50.2889 13.4857 50.0916 13.8806 49.8284 14.0129C48.8417 14.6046 27.1325 18.4855 26.7378 18.1573C26.2115 17.6302 27.5272 17.302 37.1318 15.7225C41.9999 14.9338 46.7365 13.9462 47.6575 13.4201C49.6311 12.3678 50.2889 12.3021 50.2889 13.0918ZM88.3788 57.6278C92.0627 62.8912 95.0226 67.2982 94.8914 67.3638C94.4309 67.7587 52.1967 79.6003 51.4731 79.6003C50.6836 79.6003 39.6975 60.9835 39.237 58.9436C39.1054 58.4175 45.6839 56.5098 59.3018 53.1551C70.4194 50.3921 80.0242 48.1553 80.5503 48.0896C81.1421 48.023 84.3656 51.9705 88.3788 57.6278ZM101.864 76.7061C103.575 79.0742 104.825 81.2454 104.627 81.4423C104.233 81.7716 61.0115 95.3229 60.0905 95.3885C59.8279 95.3885 58.3152 93.0204 56.6701 90.1261C53.7755 85.0607 53.7098 84.8628 55.0913 84.4689C55.8807 84.271 65.5508 81.508 76.6028 78.2845C87.6547 75.1266 97.1282 72.496 97.72 72.4293C98.2461 72.3637 100.154 74.338 101.864 76.7061Z" />
</svg>
