<svg viewBox="0 0 635 216" fill="currentColor"
  xmlns="http://www.w3.org/2000/svg">
  <g clip-path="url(#clip0_1701_81)">
    <path
      d="M111.5 206C173.083 206 223 165.876 223 116.394C223 85.7121 203.889 58.6104 174.509 42.5368C162.554 35.9237 153.161 29.9877 145.343 25.0534C130.621 15.7412 121.536 10 111.5 10C101.306 10 89.8169 17.2624 74.647 26.8435C66.1008 32.3591 57.3744 37.5931 48.4819 42.5368C19.1114 58.6104 0 85.7121 0 116.394C0 165.876 49.9169 206 111.5 206ZM98.4827 40.6262C101.583 33.6033 103.161 26.0089 103.114 18.3383C103.114 17.0026 104.987 16.6131 105.248 18.0786C111.36 43.8168 96.8613 56.5699 86.1362 60.8365C84.9808 61.2817 84.2819 59.7234 85.1765 58.9072C90.872 53.8289 95.4091 47.5954 98.4827 40.6262ZM117.603 39.6801C116.722 32.1381 114.245 24.8676 110.335 18.3475V18.2084C109.702 17.0676 111.137 15.7691 112.059 16.6131C130.285 36.137 124.201 54.2234 117.221 63.3314C116.457 64.2775 115.087 63.3036 115.47 62.1628C117.761 54.9012 118.488 47.2403 117.603 39.6801ZM134.106 34.4954C130.368 27.9284 125.262 22.233 119.132 17.791V17.6612C118.088 16.8728 118.908 15.1198 120.184 15.6392C144.3 25.6934 145.958 45.0503 143.032 56.403C142.973 56.6713 142.813 56.9069 142.585 57.0615C142.364 57.2171 142.089 57.279 141.822 57.2339C141.555 57.1887 141.317 57.04 141.159 56.8204C140.996 56.5985 140.923 56.3237 140.954 56.0505C140.213 48.4673 137.88 41.1236 134.106 34.4954ZM86.8444 39.6801C81.1045 44.7257 74.9266 46.7106 67.6678 48.9273C66.5869 48.9273 65.8601 48.2039 66.2235 47.2578C82.5022 38.8454 88.298 32.0004 94.0845 21.5567C94.0845 21.5567 95.5288 20.4715 95.8363 22.3451C95.8363 25.1554 92.5936 34.6345 86.8444 39.6801ZM132.792 143.607C131.472 149.186 128.424 154.212 124.079 157.974C120.862 161.173 116.652 163.193 112.134 163.706C107.482 163.272 103.125 161.247 99.8058 157.974C95.5028 154.196 92.4954 149.172 91.2053 143.607C91.1633 143.277 91.195 142.943 91.298 142.627C91.4011 142.311 91.5731 142.022 91.8016 141.78C92.0303 141.543 92.3107 141.362 92.621 141.251C92.9313 141.14 93.2631 141.102 93.5907 141.14H130.434C130.76 141.103 131.089 141.143 131.397 141.256C131.704 141.369 131.981 141.551 132.205 141.789C132.433 142.029 132.603 142.317 132.705 142.632C132.807 142.946 132.836 143.279 132.792 143.607ZM82.0735 123.48C78.7088 125.77 74.6376 126.8 70.5827 126.385C66.5278 125.971 62.7516 124.14 59.9245 121.217C57.0459 118.244 55.2641 114.389 54.8698 110.279C54.4755 106.169 55.492 102.047 57.7534 98.5858C59.6822 95.6364 62.4311 93.3454 65.6365 91.9913C68.8367 90.6345 72.3757 90.2787 75.7839 90.971C79.1849 91.6667 82.3158 93.3825 84.7665 95.8868C87.2264 98.3911 88.8944 101.6 89.5653 105.069C90.2425 108.55 89.8929 112.151 88.5589 115.439C87.2382 118.693 84.9822 121.496 82.0735 123.48ZM161.007 123.526C157.637 125.802 153.566 126.815 149.517 126.388C145.467 125.96 141.701 124.118 138.886 121.189C135.607 117.795 133.783 113.265 133.798 108.557C133.798 105.004 134.823 101.526 136.771 98.5766C138.699 95.6271 141.448 93.3269 144.663 91.982C147.868 90.6296 151.41 90.2802 154.82 90.9803C158.23 91.6852 161.361 93.4011 163.812 95.9239C166.262 98.4467 167.912 101.647 168.582 105.134C169.245 108.619 168.879 112.221 167.53 115.504C166.198 118.759 163.928 121.551 161.007 123.526Z"
    />
    <mask id="mask0_1701_81" style="mask-type:luminance" maskUnits="userSpaceOnUse" x="223" y="27"
      width="435" height="162">
      <path d="M223 27H657.523V189H223V27Z" fill="white" />
    </mask>
    <g mask="url(#mask0_1701_81)">
      <path
        d="M325.974 175.286C286.004 175.286 263.98 169.717 262.991 168.481C261.878 134.131 261.878 99.7542 262.991 65.4046C263.98 64.2918 285.883 60.207 325.974 60.207C363.219 60.207 377.45 73.9421 377.45 90.401C377.45 101.042 371.015 110.693 358.146 116.262V118.118C373.615 119.233 381.162 129.378 381.162 140.886C381.162 158.582 363.221 175.286 325.974 175.286ZM300.607 111.189L324.736 111.313C332.656 110.076 337.978 105.744 337.978 99.0627C337.978 90.6478 331.666 86.0694 320.406 86.0694C310.754 86.0694 303.453 87.6773 300.731 89.7818C300.607 96.8356 300.607 104.133 300.607 111.189ZM320.53 146.703C331.79 146.703 338.595 141.629 338.595 132.968C338.595 125.914 333.027 121.706 324.736 121.46L300.607 121.335C300.607 128.512 300.607 135.688 300.731 142.744C303.329 144.969 310.754 146.703 320.53 146.703ZM497.46 81.7378C498.45 111.806 498.45 140.391 497.46 169.842C486.076 171.698 473.95 171.698 462.566 169.842L459.101 148.93H456.873C452.419 167.119 442.767 172.812 427.794 172.812C397.479 172.812 391.91 148.064 391.91 117.623C391.91 109.952 392.157 99.4337 392.157 81.7378C405.53 79.7579 419.123 79.7579 432.496 81.7378V125.79C432.496 138.412 438.931 143.113 446.602 143.113C452.047 143.113 457.74 140.391 460.586 135.813V81.7378C472.797 79.758 485.248 79.758 497.46 81.7378ZM512.765 169.842C511.775 139.773 511.775 111.189 512.765 81.7378C524.149 79.8816 536.275 79.8816 547.66 81.7378L551.124 102.651H553.351C557.806 84.4615 567.457 78.7688 582.431 78.7688C612.748 78.7688 618.315 103.517 618.315 133.956C618.315 141.629 618.068 152.147 618.068 169.842C604.694 171.821 591.102 171.821 577.729 169.842V125.79C577.729 113.169 571.294 108.466 563.622 108.466C558.178 108.466 552.485 111.189 549.639 115.767V169.842C537.427 171.821 524.977 171.821 512.765 169.842Z"
      />
    </g>
  </g>
</svg>