<svg viewBox="0 0 256 47" fill="currentColor" xmlns="http://www.w3.org/2000/svg">
  <g clip-path="url(#clip0_1512_104)">
    <path
      d="M214.992 14.9713H198.44L214.434 30.9655L198.44 46.9597H214.992L230.986 30.9655L214.992 14.9713Z"
    />
    <path
      d="M240.006 14.9713H223.454L239.448 30.9655L223.454 46.9597H240.006L256 30.9655L240.006 14.9713Z"
    />
    <path
      d="M5.57937 14.2274H15.1573L9.57792 46.0298H0L5.57937 14.2274ZM6.1373 5.76535C6.69524 2.69669 9.57791 0 12.7396 0C15.9012 0 18.04 2.6037 17.575 5.76535C17.1101 8.92699 14.1344 11.5307 10.8798 11.5307C7.62514 11.5307 5.67236 8.74101 6.1373 5.76535ZM50.4933 26.502L47.0527 46.0298H37.5677L40.7294 27.8968C41.4733 23.8053 39.2416 22.1315 36.1729 22.1315C33.0113 22.1315 30.1286 23.9913 29.1987 28.2688L26.0371 46.0298H16.5521L22.1315 14.2274H31.7094L31.2445 17.2031C33.3832 14.7853 37.0098 13.2975 40.6364 13.2975C47.0527 13.3905 51.9811 18.04 50.4933 26.502ZM87.875 30.1286C87.7821 30.8725 87.4101 32.6393 86.8522 33.9412H64.0697C64.6277 37.4748 67.6033 38.4046 70.579 38.4046C73.2757 38.4046 75.4145 37.6607 77.2742 35.8939L83.9695 41.3803C80.2499 45.0999 75.8794 46.9597 70.0211 46.9597C59.0483 46.9597 53.283 39.0556 54.8638 29.5707C55.5945 25.0457 57.9159 20.93 61.4104 17.9639C64.9049 14.9979 69.3431 13.3762 73.9266 13.3905C83.0396 13.3905 89.6418 20.4577 87.875 30.1286ZM78.8551 26.688C78.5761 23.1544 76.0654 21.7595 73.0897 21.7595C71.461 21.7303 69.8598 22.1823 68.4869 23.059C67.1139 23.9357 66.0303 25.1981 65.3716 26.688H78.8551ZM115.214 13.5765L113.354 24.3632C109.635 23.8053 103.59 25.1072 102.474 31.6164L102.567 31.2445L99.9637 46.0298H90.4788L96.0581 14.2274H105.636L104.613 19.9927C106.566 15.6222 110.75 13.5765 115.214 13.5765ZM128.139 34.6851C127.675 37.5677 129.999 37.7537 134.277 37.3818L132.789 46.0298C121.351 47.3316 117.074 43.5191 118.655 34.6851L120.607 23.4333H115.493L117.167 14.2274H122.188L123.304 8.18307L133.347 5.3004L131.766 14.2274H138.368L136.695 23.4333H130.185L128.139 34.6851ZM144.413 14.2274H153.991L148.411 46.0298H138.833L144.413 14.2274ZM144.971 5.76535C145.436 2.69669 148.411 0 151.573 0C154.734 0 156.873 2.6037 156.408 5.76535C155.943 8.92699 152.968 11.5307 149.713 11.5307C146.458 11.5307 144.413 8.74101 144.971 5.76535ZM193.511 14.2274L187.932 46.0298H178.354L178.726 43.891C176.005 46.0308 172.605 47.12 169.148 46.9597C158.826 46.9597 154.92 38.0327 156.594 29.3847C158.082 21.2016 164.591 13.3905 174.448 13.3905C178.633 13.3905 181.608 15.0643 183.375 17.668L183.933 14.3204H193.511V14.2274ZM181.236 30.2216C182.073 25.3861 179.47 22.4105 175.099 22.4105C172.937 22.3932 170.844 23.1692 169.216 24.5916C167.588 26.014 166.538 27.984 166.265 30.1286C165.428 34.8711 167.939 37.8467 172.402 37.8467C176.68 37.9397 180.4 34.964 181.236 30.2216Z"
    />
  </g>
</svg>