<svg fill="currentColor"
    viewBox="0 0 512 190"
    xmlns="http://www.w3.org/2000/svg">
    <!-- fill="black" -->
    <path d="M112.27 90.4739H107.129C105.073 111.447 102.194 136.945 66.0048 136.945H49.3494C39.6851 136.945 39.2739 135.505 39.2739 128.72V19.5342C39.2739 12.543 39.2739 9.66428 58.6024 9.66428H65.388V3.49561C57.9855 4.11247 39.4795 4.11247 31.049 4.11247C23.0297 4.11247 6.99117 4.11247 0 3.49561V9.66428H4.72932C20.5622 9.66428 20.9735 11.9261 20.9735 19.3285V127.28C20.9735 134.683 20.5622 136.945 4.72932 136.945H0V143.319H106.718L112.27 90.4739Z" />
    <!-- fill="black" -->
    <path d="M108.774 3.28996C107.952 0.82249 107.541 0 104.867 0C102.194 0 101.578 0.82249 100.755 3.28996L67.6498 87.1839C66.2104 90.6795 63.743 97.0538 50.9944 97.0538V102.194H82.8659V97.0538C76.4916 97.0538 72.5847 94.1751 72.5847 90.0627C72.5847 89.0345 72.7904 88.6233 73.2016 87.1839L80.1928 69.5004H120.906L129.131 90.4739C129.542 91.2964 129.953 92.3245 129.953 92.9414C129.953 97.0538 122.14 97.0538 118.233 97.0538V102.194H158.741V97.0538H155.862C146.198 97.0538 145.169 95.6145 143.73 91.502L108.774 3.28996ZM100.549 17.8892L118.85 64.3598H82.249L100.549 17.8892Z" />
    <!-- fill="black" -->
    <path d="M273.478 4.72931H148.254L144.553 50.7887H149.488C152.366 17.6835 155.451 10.898 186.5 10.898C190.201 10.898 195.547 10.898 197.603 11.3092C201.921 12.1317 201.921 14.3936 201.921 19.1229V127.075C201.921 134.066 201.921 136.945 180.331 136.945H172.106V143.319C180.537 142.702 201.304 142.702 210.763 142.702C220.222 142.702 241.401 142.702 249.831 143.319V136.945H241.606C220.016 136.945 220.016 134.066 220.016 127.075V19.1229C220.016 15.0104 220.016 12.1317 223.717 11.3092C225.979 10.898 231.531 10.898 235.438 10.898C266.281 10.898 269.365 17.6835 272.244 50.7887H277.385L273.478 4.72931Z" />
    <!-- fill="black" -->
    <path d="M383.692 136.739H378.551C373.41 168.199 368.681 183.21 333.52 183.21H306.378C296.713 183.21 296.302 181.77 296.302 174.985V120.289H314.602C334.548 120.289 336.81 126.869 336.81 144.347H341.95V90.0626H336.81C336.81 107.541 334.548 113.915 314.602 113.915H296.302V64.7711C296.302 57.9855 296.713 56.5462 306.378 56.5462H332.697C364.157 56.5462 369.504 67.8554 372.794 96.4369H377.934L372.177 50.3775H257.028V56.5462H261.757C277.59 56.5462 278.002 58.808 278.002 66.2104V173.545C278.002 180.948 277.59 183.21 261.757 183.21H257.028V189.584H375.055L383.692 136.739Z" />
    <!-- fill="black" -->
    <path d="M445.584 64.1542L473.754 23.0297C478.072 16.4498 485.063 9.8699 503.364 9.66428V3.49561H454.426V9.66428C462.651 9.8699 467.174 14.3936 467.174 19.1229C467.174 21.1791 466.763 21.5904 465.324 23.8522L441.883 58.3968L415.563 18.9173C415.152 18.3004 414.124 16.6554 414.124 15.833C414.124 13.3655 418.647 9.8699 427.284 9.66428V3.49561C420.292 4.11247 405.282 4.11247 397.468 4.11247C391.094 4.11247 378.345 3.90685 370.737 3.49561V9.66428H374.644C385.953 9.66428 389.86 11.1036 393.767 16.8611L431.396 73.8185L397.88 123.374C395.001 127.486 388.832 136.945 368.27 136.945V143.319H417.208V136.945C407.749 136.739 404.254 131.187 404.254 127.486C404.254 125.635 404.871 124.813 406.31 122.551L435.303 79.5759L467.791 128.514C468.202 129.337 468.819 130.159 468.819 130.776C468.819 133.243 464.296 136.739 455.454 136.945V143.319C462.651 142.702 477.661 142.702 485.269 142.702C493.905 142.702 503.364 142.908 512 143.319V136.945H508.093C497.401 136.945 493.083 135.916 488.765 129.542L445.584 64.1542Z" />
</svg>
