<svg fill="currentColor"
    viewBox="0 0 512 145"
    xmlns="http://www.w3.org/2000/svg">
    <!-- fill="#5D87A1 -->
    <path d="M266.589 103.832H252.699C252.208 80.4147 250.855 58.3991 248.643 37.7696H248.52L227.372 103.832H216.797L195.775 37.7696H195.654C194.095 57.5761 193.113 79.597 192.705 103.832H180.044C180.86 74.3612 182.911 46.7318 186.188 20.9415H203.403L223.44 81.849H223.563L243.723 20.9415H260.195C263.803 51.1499 265.934 78.782 266.589 103.832V103.832ZM326.827 42.6756C321.172 73.329 313.71 95.602 304.45 109.505C297.236 120.207 289.331 125.564 280.723 125.564C278.428 125.564 275.597 124.872 272.242 123.499V116.108C273.882 116.344 275.806 116.478 278.018 116.478C282.038 116.478 285.27 115.374 287.734 113.159C290.681 110.462 292.155 107.43 292.155 104.076C292.155 101.776 291.006 97.0738 288.714 89.9533L273.471 42.6729H287.117L298.057 78.034C300.516 86.0633 301.541 91.6691 301.13 94.862C307.113 78.9026 311.292 61.5009 313.673 42.6702H326.827V42.6756V42.6756Z" />
    <!-- fill="#F8981D" -->
    <path d="M511.712 103.927H472.261V20.9271H485.532V93.7098H511.712V103.927ZM461.934 105.932L446.679 98.4022C448.032 97.2908 449.326 96.0882 450.49 94.695C456.974 87.0766 460.208 75.8101 460.208 60.8874C460.208 33.4284 449.436 19.6923 427.882 19.6923C417.314 19.6923 409.069 23.1766 403.173 30.1481C396.694 37.7718 393.461 48.9981 393.461 63.8402C393.461 78.4301 396.327 89.1329 402.062 95.9218C407.309 102.072 415.218 105.151 425.794 105.151C429.74 105.151 433.36 104.668 436.658 103.693L456.518 115.258L461.934 105.932ZM412.518 87.3182C409.158 81.9118 407.478 73.2304 407.478 61.2605C407.478 40.3623 413.825 29.9011 426.532 29.9011C433.175 29.9011 438.043 32.403 441.156 37.396C444.511 42.8105 446.199 51.4141 446.199 63.2175C446.199 84.2875 439.847 94.8238 427.147 94.8238C420.502 94.8265 415.634 92.3327 412.518 87.3182V87.3182ZM387.677 80.9212C387.677 87.9598 385.095 93.734 379.937 98.2572C374.774 102.762 367.849 105.019 359.173 105.019C351.057 105.019 343.188 102.426 335.572 97.2666L339.139 90.1395C345.692 93.4226 351.626 95.0547 356.953 95.0547C361.953 95.0547 365.861 93.946 368.695 91.7475C371.526 89.5409 373.214 86.4457 373.214 82.5319C373.214 77.6006 369.776 73.386 363.47 69.856C357.654 66.6616 346.022 59.9827 346.022 59.9827C339.718 55.387 336.562 50.453 336.562 42.3246C336.562 35.5975 338.916 30.1669 343.626 26.0355C348.341 21.8881 354.425 19.8211 361.883 19.8211C369.586 19.8211 376.588 21.8854 382.895 25.9711L379.696 33.1009C374.301 30.8084 368.977 29.6622 363.725 29.6622C359.471 29.6622 356.186 30.685 353.902 32.7385C351.599 34.7841 350.18 37.4014 350.18 40.612C350.18 45.5191 353.69 49.7873 360.169 53.3871C366.062 56.5869 377.983 63.3812 377.983 63.3812C384.448 67.9689 387.677 72.8572 387.677 80.9212" />
    <!-- fill="#5D87A1" -->
    <path d="M135.769 112.078C127.745 111.874 121.532 112.683 116.318 114.892C114.812 115.494 112.419 115.494 112.209 117.399C113.022 118.206 113.116 119.507 113.822 120.619C115.024 122.627 117.12 125.328 119.034 126.736C121.135 128.349 123.244 129.945 125.456 131.351C129.355 133.767 133.775 135.172 137.575 137.581C139.789 138.981 141.99 140.792 144.206 142.3C145.296 143.104 145.994 144.407 147.408 144.91V144.603C146.7 143.7 146.498 142.394 145.803 141.389L142.792 138.481C139.883 134.568 136.268 131.152 132.369 128.346C129.159 126.131 122.139 123.121 120.837 119.418L120.633 119.214C122.839 119.007 125.456 118.206 127.552 117.59C130.963 116.69 134.073 116.894 137.572 115.994C139.183 115.591 140.779 115.085 142.395 114.588V113.682C140.581 111.874 139.287 109.471 137.379 107.762C132.275 103.346 126.65 99.0271 120.837 95.4123C117.724 93.3993 113.72 92.1038 110.406 90.3918C109.212 89.7871 107.199 89.4888 106.496 88.4836C104.698 86.2744 103.686 83.3665 102.382 80.7514C99.4834 75.2338 96.6682 69.1115 94.167 63.2767C92.3583 59.3636 91.258 55.4558 89.052 51.8356C78.7199 34.7694 67.4996 24.433 50.2544 14.2873C46.5483 12.1749 42.1391 11.2745 37.4293 10.1672L29.907 9.76947C28.3022 9.06532 26.6947 7.15444 25.2938 6.25141C19.5723 2.63928 4.84168 -5.18967 0.633714 5.14681C-2.07678 11.6803 4.64308 18.1037 6.95102 21.4175C8.65514 23.7181 10.8638 26.3358 12.0553 28.9481C12.7611 30.6547 12.9597 32.4662 13.6655 34.2695C15.2704 38.6879 16.7705 43.6035 18.8799 47.7263C19.9802 49.828 21.1798 52.0372 22.586 53.94C23.3911 55.0527 24.7919 55.5445 25.0979 57.3586C23.6997 59.3582 23.5897 62.3764 22.7873 64.8866C19.1804 76.2309 20.5893 90.2843 25.7017 98.6212C27.3012 101.131 31.1173 106.657 36.2216 104.539C40.7409 102.733 39.7399 97.0114 41.0388 91.9936C41.3367 90.7815 41.1408 89.986 41.7419 89.1905V89.3867C43.1401 92.1952 44.5517 94.9016 45.8479 97.7182C48.9582 102.634 54.3739 107.756 58.8851 111.162C61.287 112.978 63.1897 116.085 66.198 117.195V116.894H65.9994C65.3903 115.994 64.4993 115.591 63.6996 114.892C61.8908 113.083 59.8888 110.874 58.4852 108.869C54.2826 103.244 50.5631 97.0168 47.2622 90.5907C45.6466 87.4731 44.2538 84.0652 42.9522 80.953C42.3457 79.7517 42.3457 77.9402 41.3394 77.3355C39.8311 79.542 37.6332 81.4529 36.5329 84.1566C34.6249 88.4809 34.4263 93.7997 33.7178 99.3308L33.3233 99.5243C30.1297 98.7207 29.0187 95.4122 27.8057 92.6037C24.8027 85.4708 24.2982 74.0217 26.904 65.7923C27.6017 63.6879 30.6208 57.0603 29.4159 55.0554C28.8121 53.1337 26.8047 52.0399 25.7044 50.5268C24.4109 48.624 22.9939 46.2159 22.0922 44.1034C19.6877 38.4837 18.4773 32.2565 15.8876 26.6395C14.6773 24.0218 12.576 21.3127 10.8745 18.9019C8.96378 16.1928 6.86246 14.2846 5.35156 11.073C4.8524 9.96835 4.15198 8.16228 4.9544 6.96093C5.1503 6.15465 5.5582 5.85364 6.35793 5.65207C7.65682 4.55285 11.3683 5.95039 12.6699 6.5551C16.3868 8.06015 19.4944 9.46576 22.5967 11.5728C24.0003 12.5807 25.5058 14.4889 27.3065 14.9914H29.4159C32.6175 15.6902 36.227 15.185 39.2407 16.0934C44.5517 17.8027 49.3635 20.3102 53.6788 23.0166C66.8099 31.3562 77.6384 43.2058 84.9487 57.3586C86.1483 59.6646 86.6582 61.777 87.7531 64.1824C89.8652 69.1061 92.4763 74.1265 94.5723 78.9454C96.6789 83.6621 98.6863 88.4783 101.695 92.3968C103.195 94.5038 109.222 95.6085 111.925 96.7131C113.924 97.6134 117.037 98.4143 118.841 99.5189C122.251 101.623 125.649 104.039 128.856 106.353C130.453 107.557 135.471 110.068 135.769 112.078V112.078ZM33.5058 24.828C32.1217 24.8136 30.7418 24.9835 29.4025 25.3333V25.5349H29.5957C30.4035 27.1394 31.807 28.252 32.808 29.6523C33.6158 31.2621 34.3162 32.8586 35.1079 34.4657L35.3011 34.2669C36.7154 33.2644 37.4185 31.6572 37.4185 29.2464C36.8094 28.5369 36.7154 27.8435 36.2082 27.1394C35.6178 26.1342 34.3162 25.6343 33.5058 24.828" />
</svg>
