<?xml version="1.0" encoding="utf-8"?>
<!DOCTYPE svg PUBLIC "-//W3C//DTD SVG 1.1//EN" "http://www.w3.org/Graphics/SVG/1.1/DTD/svg11.dtd">
<svg version="1.1" id="Layer_1" xmlns="http://www.w3.org/2000/svg" x="0" y="0" width="165" height="165">
	<path d="M93,88.6c9.9,0,17.4-1.7,22.6-5c5.1-3.3,8.6-7.4,10.3-12.2c1.7-4.8,2.8-12.8,3.3-24c0.5-12.5,3.3-21.7,8.4-27.8
		c5.1-6.1,13.4-9.1,25-9.1v4.2c-4.2,0.3-7,1.9-8.5,4.9s-2.2,9.2-2.2,18.7c0,14-1.5,24.8-4.4,32.4c-2.9,7.6-8.9,13.8-17.8,18.5
		c-8.9,4.7-21.1,7.3-36.6,7.6v34.6c0,8.5,0.5,14,1.5,16.6s3.1,4.5,6.2,6.1c3.2,1.5,8.1,2.3,14.7,2.3v4H49.6v-4
		c6.5-0.1,11.3-0.8,14.5-2.1c3.2-1.3,5.3-3.3,6.3-5.9c1.1-2.6,1.6-8.2,1.6-16.9V96.7c-15.7-0.4-27.8-2.9-36.5-7.5
		C26.8,84.5,21,78.4,17.9,70.9c-3.1-7.5-4.6-18.5-4.6-32.8c0-9.2-0.7-15.3-2.1-18.3c-1.4-3-4.3-4.8-8.6-5.2v-4.2
		c7.4,0.1,13.3,1.3,17.8,3.5s8.1,6,10.9,11.6c2.7,5.5,4.3,12.8,4.6,21.9c0.5,11.1,1.6,19.1,3.2,23.9c1.6,4.8,5.1,8.9,10.3,12.3
		c5.2,3.4,12.8,5.1,22.6,5.1V41c0-8.5-0.5-14-1.5-16.6s-3-4.5-6.2-6c-3.1-1.5-8-2.2-14.7-2.3v-4h65.8v4c-6.7,0.1-11.6,0.8-14.7,2.2
		s-5.2,3.4-6.2,6c-1,2.6-1.5,8.1-1.5,16.6V88.6z"/>
</svg>
