<svg xmlns="http://www.w3.org/2000/svg" width="32" height="32" viewBox="0 0 24 24">
  <path fill="currentColor"
    d="M5 16h2q0-.825-.588-1.413T5 14v2Zm4.275 0q.3 0 .513-.225t.162-.5q-.25-1.65-1.413-2.813T5.726 11.05q-.275-.05-.5.15T5 11.725q0 .275.2.513t.525.287q1.05.2 1.8.95t.95 1.8q.05.325.288.525t.512.2Zm3 0q.3 0 .513-.225t.187-.5q-.275-2.9-2.313-4.938T5.725 8.026Q5.45 8 5.225 8.2T5 8.725q0 .275.213.5t.512.275q2.3.25 3.913 1.863t1.862 3.912q.05.3.263.513t.512.212ZM9 21q-.425 0-.713-.288T8 20v-1H4q-.825 0-1.413-.588T2 17V5q0-.825.588-1.413T4 3h16q.825 0 1.413.588T22 5v12q0 .825-.588 1.413T20 19h-4v1q0 .425-.288.713T15 21H9Zm-5-4h16V5H4v12Zm0 0V5v12Z" />
</svg>