<svg width="256" height="256" viewBox="0 0 256 256" fill="currentColor"
  xmlns="http://www.w3.org/2000/svg">
  <path
    d="M21.8 0.800069C18.95 1.85007 16.7 3.70007 15.15 6.40007L13.75 8.75007L13.6 82.1501C13.55 131.85 13.65 156.2 14 157.55C14.75 160.35 17.4 163.5 20.25 164.95C22.45 166.1 23.4 166.25 29.1 166.4L35.5 166.6V206.1C35.5 234.65 35.65 246.15 36.1 247.55C36.85 250.1 39.55 253.25 42.2 254.65L44.25 255.75L138 255.9C243.3 256.05 234.7 256.35 238.75 252.25C242.8 248.25 242.5 254.35 242.5 172.55C242.45 113.05 242.35 99.4001 241.8 97.8501C240.8 95.1001 238.75 92.7001 236.1 91.1501C233.9 89.8501 233.3 89.7501 227.15 89.6001L220.5 89.4001V49.6001C220.5 10.6001 220.45 9.70007 219.45 7.50007C218.2 4.75007 216.35 2.75007 213.75 1.35007L211.75 0.250069L117.75 0.150069C37.1 0.100069 23.45 0.150069 21.8 0.800069ZM73 21.8501C77.55 29.7001 81.35 36.3501 81.4 36.6001C81.5 36.8001 67.95 37.0001 51.3 37.0001H21V24.1001C21.05 10.4001 21.15 9.50007 23.55 8.20007C24.5 7.70007 29.1 7.55007 44.75 7.55007L64.75 7.50007L73 21.8501ZM210.5 8.25007C211.3 8.65007 212.2 9.45007 212.5 9.95007C212.8 10.5501 213 16.0001 213 23.9501V37.0001H177.45C153.4 37.0001 141.6 37.1501 140.95 37.5501C138.55 38.8001 138.75 42.8001 141.3 43.9501C142.2 44.3501 152.65 44.5001 177.75 44.5001H213V67.0001V89.5001L128.65 89.6001L44.25 89.7501L42.2 90.8501C41.1 91.4501 39.45 92.7501 38.6 93.7501C35.4 97.3501 35.5 96.2001 35.5 129.05V159H30.25C27.3 159 24.5 158.75 23.75 158.4C20.85 157.1 21 159.85 21 99.7501V44.5001H73.5C111.4 44.5001 126.3 44.3501 127.2 43.9501C129.55 42.8501 130 39.0001 127.9 37.6501C127.55 37.4501 118.95 37.1501 108.75 37.0001L90.25 36.7501L83.6 25.2501C79.9 18.9001 76.15 12.3501 75.15 10.6001L73.4 7.50007H141.25C200.75 7.50007 209.25 7.60007 210.5 8.25007ZM94.35 110.5C98.55 117.8 102.35 124.35 102.8 125.1L103.55 126.5H73.25H43V113.35C43 99.2501 43.1 98.5501 45.7 97.5001C46.25 97.2501 55.75 97.1001 66.7 97.1501L86.65 97.2501L94.35 110.5ZM232.45 97.7001C234.85 98.9501 235 100.05 235 113.75V126.5H199.05H163.05L162.05 127.8C160.65 129.55 160.75 131.25 162.25 132.75L163.45 134H199.25H235V189.55V245.1L233.3 246.8L231.6 248.5H139.3C39.65 248.5 44.9 248.65 43.5 246.05C43.15 245.4 43 226.65 43 189.55V134H95.7C148.2 134 148.35 134 149.7 132.95C151.35 131.65 151.45 129.3 149.9 127.65L148.85 126.5H130.5H112.2L103.85 112C99.25 104.05 95.5 97.4001 95.5 97.2501C95.5 97.1001 126 97.0001 163.25 97.0001C220.95 97.0001 231.25 97.1001 232.45 97.7001Z" />
  <path
    d="M150.1 19.65C148.55 21.3 148.65 23.65 150.3 24.95C152.45 26.65 154.6 26.25 155.8 23.95C157.75 20.15 153 16.55 150.1 19.65Z" />
  <path
    d="M169.25 19.75C168.55 20.4 168 21.55 168 22.25C168 22.95 168.55 24.1 169.25 24.75C169.9 25.45 171.05 26 171.75 26C172.45 26 173.6 25.45 174.25 24.75C174.95 24.1 175.5 22.95 175.5 22.25C175.5 21.55 174.95 20.4 174.25 19.75C173.6 19.05 172.45 18.5 171.75 18.5C171.05 18.5 169.9 19.05 169.25 19.75Z" />
  <path
    d="M191.3 19.55C188.65 21.6 190.4 26 193.85 26C195.45 26 197.5 23.9 197.5 22.25C197.5 20.6 195.45 18.5 193.85 18.5C193.2 18.5 192.05 18.95 191.3 19.55Z" />
  <path
    d="M37.85 56.1C36.65 57.05 36.05 59.05 36.6 60.45C37.4 62.7 38.3 62.95 45.4 63C51.8 63 52.1 62.95 53.25 61.75C53.95 61.1 54.5 59.95 54.5 59.25C54.5 58.55 53.95 57.4 53.25 56.75C52.1 55.55 51.8 55.5 45.35 55.5C40.8 55.5 38.45 55.7 37.85 56.1Z" />
  <path
    d="M69.25 56.75C68.55 57.4 68 58.55 68 59.25C68 59.95 68.55 61.1 69.25 61.75L70.45 63H97.15C123.4 63 123.9 63 125.2 61.95C126.9 60.6 127 58.1 125.35 56.6L124.2 55.5H97.3H70.45L69.25 56.75Z" />
  <path
    d="M66.6 73.65C65.05 75.3 65.15 77.65 66.8 78.95C68.15 80 68.4 80 108.85 80H149.55L150.75 78.75C151.45 78.1 152 76.95 152 76.25C152 75.55 151.45 74.4 150.75 73.75L149.55 72.5H108.6H67.65L66.6 73.65Z" />
  <path
    d="M166.15 73.25C165.6 73.65 164.95 74.55 164.8 75.25C164.45 76.7 165.55 79.2 166.75 79.7C167.2 79.85 173.85 80 181.55 80H195.55L196.75 78.75C197.45 78.1 198 76.95 198 76.25C198 75.55 197.45 74.4 196.75 73.75L195.55 72.5H181.4C169.7 72.5 167.05 72.65 166.15 73.25Z" />
  <path
    d="M172.15 108.75C169.35 110.75 170.95 115.5 174.45 115.5C176.2 115.5 178 113.55 178 111.7C178 108.6 174.75 106.95 172.15 108.75Z" />
  <path
    d="M191.1 109.15C189.55 110.8 189.65 113.15 191.3 114.45C193.45 116.15 195.6 115.75 196.8 113.45C198.75 109.65 194 106.05 191.1 109.15Z" />
  <path
    d="M213.35 108.6C211.45 110.1 211.45 113.35 213.4 114.8C215.6 116.5 219 114.6 219 111.7C219 108.7 215.65 106.85 213.35 108.6Z" />
  <path
    d="M145.6 149.9C142.65 150.95 139.95 153.3 138.8 155.75C137 159.5 116.4 220.95 116.15 223.3C115.35 230.45 120.9 236.5 128.25 236.5C132.1 236.5 134.7 235.3 137.3 232.4C139.15 230.25 140 227.95 150.5 196.95C160.1 168.65 161.75 163.35 161.7 161C161.55 152.8 153.35 147.15 145.6 149.9ZM152.85 158.05C153.45 158.65 154.1 159.7 154.25 160.45C154.45 161.4 151.4 171.05 143.5 194.25C131.55 229.45 131.75 229 128.2 229C126.05 229 123.5 226.75 123.5 224.85C123.5 223.9 136.05 186.05 144.6 161.35C146.2 156.7 149.8 155.25 152.85 158.05Z" />
  <path
    d="M91.45 150.7C88.55 151.75 87.5 152.7 71.95 168.35C54.8 185.6 54.75 185.7 54.75 192.75C54.75 200.35 54.95 200.65 72.65 218.3C81.8 227.45 88.55 233.8 89.75 234.4C94.8 236.9 100 236.05 103.95 232.1C106.55 229.5 107.5 227.05 107.5 223.2C107.45 218.7 106.3 217.1 93.75 204.5L82 192.75L93.8 181C101.25 173.55 105.95 168.5 106.55 167.25C107.8 164.6 107.8 159.9 106.55 157.2C104 151.55 97.2 148.65 91.45 150.7ZM98.55 158.95C99.65 160.05 100 160.9 100 162.3C100 164.1 99.4 164.8 86.5 177.75C75.15 189.15 73 191.55 73 192.75C73 193.95 75.15 196.3 86.5 207.75C99.3 220.65 100 221.45 100 223.2C100 224.25 99.75 225.5 99.5 226.05C98.75 227.45 96.15 228.6 94.55 228.25C92.9 227.9 63.3 198.4 62.5 196.35C61.75 194.3 61.9 191.25 62.75 189.1C63.6 187.15 89.9 160.25 92.75 158.45C94.95 157.05 96.8 157.25 98.55 158.95Z" />
  <path
    d="M178.3 150.7C175.5 151.75 172.9 154.05 171.55 156.75C170 159.7 169.85 164.3 171.25 167.25C171.85 168.5 176.6 173.7 183.95 181.15L195.7 193L183.65 205.15C172.1 216.75 171.55 217.35 170.75 220.15C169.4 224.75 170.6 229.05 174.1 232.3C177.55 235.6 181.35 236.55 185.85 235.25C188.65 234.45 189.2 233.95 204.6 218.65C222.9 200.4 223.2 199.95 223.2 192.75C223.25 185.7 222.85 185.15 205.1 167.45C196.65 159 188.95 151.7 188 151.25C185.7 150.05 180.75 149.8 178.3 150.7ZM199.15 172.35C213.95 187.1 215.95 189.5 216 192.5C216 196.5 215.45 197.2 200.35 212.4C192.3 220.45 185.1 227.4 184.35 227.8C180.8 229.7 176.2 225.45 178 221.9C178.35 221.3 184.45 214.85 191.65 207.65C203.1 196.15 204.65 194.4 204.65 193C204.65 191.65 203.1 189.9 191.6 178.35C184.45 171.15 178.3 164.6 178 163.8C176.85 160.7 179.2 157.55 182.75 157.5C184 157.5 186.2 159.5 199.15 172.35Z" />
</svg>