<svg width="256" height="256" viewBox="0 0 256 256" fill="currentColor"
  xmlns="http://www.w3.org/2000/svg">
  <path
    d="M53.45 0.949996C52.3 1.9 52.25 2.2 52.1 10.25C51.95 17.8 51.85 18.55 51.1 18.25C48.25 17.15 38.15 13.9 34.85 13.05C32.2 12.35 30.6 12.2 29.85 12.5C29.25 12.7 25.95 15.7 22.55 19.15L16.4 25.4L13.65 24.15C8.89999 22 4.39999 23.35 1.89999 27.75L0.749993 29.75L0.599993 108.7C0.549993 160.5 0.649993 188.6 0.999993 190.4C1.24999 191.95 1.99999 193.85 2.64999 194.65C3.94999 196.35 100.95 251.2 104.2 252.05C105.3 252.35 106.8 252.45 107.55 252.3C108.55 252.1 109.15 252.35 110.05 253.35C112.35 255.85 113.4 256 128 256C142.55 256 143.65 255.85 145.9 253.35C146.85 252.35 147.4 252.15 148.9 252.35C149.9 252.45 151.55 252.25 152.55 251.9C153.5 251.55 176.35 238.85 203.2 223.75C238.3 204 252.45 195.8 253.3 194.7C253.95 193.85 254.7 191.95 255 190.5C255.65 187.05 255.65 170.8 255 168.45C253.95 164.7 249.05 164.7 248 168.45C247.75 169.45 247.5 174.75 247.5 180.25V190.25L198.8 217.6C172.05 232.7 149.85 245 149.55 245C149.25 245 148.9 244.5 148.75 243.9C148.6 243.25 148.55 207.3 148.6 164L148.75 85.3L197.45 57.85C224.25 42.8 246.45 30.55 246.85 30.7C247.35 30.9 247.5 41.6 247.6 88.75L247.75 146.6L249.15 147.8C250.9 149.3 252.1 149.3 253.85 147.8L255.25 146.6V88.15V29.75L254.1 27.75C251.6 23.35 247.1 22 242.35 24.15L239.6 25.4L233.45 19.15C230.05 15.7 226.75 12.7 226.15 12.5C224.8 11.95 220.6 13 211 16.25C207.3 17.5 204.2 18.5 204.15 18.5C204.05 18.5 204 15.15 204 11.05C204 2.85 203.65 1.3 201.7 0.399996C200.05 -0.350004 197.7 0.399996 188.25 4.95C167.6 14.9 150.7 29.15 139.1 46.5C136 51.2 129.85 62.9 128.95 66C128.25 68.35 127.75 68.55 127.25 66.65C126.7 64.45 122.2 55.2 119.4 50.55C111.1 36.7 97.65 22.95 83.25 13.55C74.8 8.1 58.35 -3.8147e-06 55.6 -3.8147e-06C55.05 -3.8147e-06 54.1 0.449996 53.45 0.949996ZM65.2 11.95C83.95 21.05 99.7 34.45 110.45 50.45C112.05 52.8 113.85 55.75 114.45 56.9C115.55 59 115.4 58.95 111.15 54.85C106.15 49.95 97.75 43.05 95.2 41.7C93.6 40.85 93.35 40.85 92.1 41.5C90.45 42.45 89.45 44.4 89.85 45.9C90 46.55 92.4 48.8 95.45 51.1C104.65 58.2 117.3 71.4 121.2 78L122.1 79.6L116.95 79.4L111.75 79.25L68.25 54.8C44.35 41.35 24.4 30.05 24 29.65C23.4 29.1 23.9 28.4 27.7 24.55L32.15 20.1L35.45 21.05C44.2 23.5 54.15 27.35 64.45 32.3C68.65 34.35 72.6 36 73.15 36C75.9 36 77.6 31.65 75.65 29.7C74.75 28.8 60.9 22 60 22C59.7 22 59.5 19.55 59.5 15.75C59.5 12.3 59.65 9.5 59.8 9.5C60 9.5 62.4 10.6 65.2 11.95ZM196.5 15.6V21.75L190.6 24.4C174.4 31.6 157.35 42.9 145.65 54.2C140.6 59 140.4 59.15 141.5 57C144.5 51.1 150.65 42.85 157 36.3C163.95 29.1 170.5 23.85 179.75 18C183.15 15.85 195.4 9.5 196.15 9.5C196.35 9.5 196.5 12.25 196.5 15.6ZM232 29.65C231.6 30.05 211.7 41.35 187.75 54.8L144.25 79.25L139.05 79.4L133.9 79.6L134.8 78C136.95 74.35 144.25 65.85 149.9 60.4C166.2 44.7 189.1 31.4 214.4 23.05C218.45 21.7 222.2 20.5 222.75 20.4C223.5 20.2 224.95 21.35 228.25 24.55C232.15 28.4 232.65 29.1 232 29.65ZM58.55 57.9L107.25 85.25L107.4 164.85C107.5 236.8 107.45 244.4 106.7 244.7C106.2 244.9 87.85 234.85 57.25 217.6L8.49999 190.25V110.7C8.49999 66.95 8.64999 31 8.84999 30.85C8.99999 30.65 9.34999 30.5 9.54999 30.5C9.74999 30.5 31.8 42.8 58.55 57.9ZM140.9 92.1L141.05 97H128H115V92.35C115 89.75 115.15 87.5 115.35 87.3C115.55 87.15 121.3 87.05 128.2 87.1L140.75 87.25L140.9 92.1ZM141 109V113.5H128H115V109V104.5H128H141V109ZM141 167.75V214.5H128H115V167.75V121H128H141V167.75ZM141 226.5V231H128H115V226.5V222H128H141V226.5ZM140.9 243.35L140.75 248.25H128H115.25L115.1 243.35L114.95 238.5H128H141.05L140.9 243.35Z" />
  <path
    d="M125.55 142.45C125 143 124.45 144.4 124.25 145.6C124.1 146.8 124 157.6 124.1 169.65L124.25 191.6L125.65 192.8C127.4 194.3 128.6 194.3 130.35 192.8L131.75 191.6L131.9 169.65C132 157.6 131.9 146.8 131.75 145.6C131.35 142.95 130 141.5 128 141.5C127.2 141.5 126.05 141.95 125.55 142.45Z" />
  <path
    d="M196.95 85.05C177.6 96.1 161.25 105.65 160.65 106.35C159.5 107.55 159.5 107.75 159.5 120.95C159.5 134.3 159.5 134.35 160.65 135.4C161.3 136 162.4 136.5 163.15 136.5C164.75 136.5 234.15 97.05 235.9 95.2C237 93.95 237 93.75 237 80.7V67.45L235.75 66.25C235.1 65.55 234 65 233.35 65C232.7 65 216.35 74 196.95 85.05ZM229.5 83.1V90.75L198.25 108.6L167 126.45V118.6L167.05 110.75L197.9 93.15C214.85 83.5 228.9 75.55 229.15 75.55C229.35 75.5 229.5 78.95 229.5 83.1Z" />
</svg>