<svg version="1.0" xmlns="http://www.w3.org/2000/svg" viewBox="0 0 512.000000 512.000000"
  preserveAspectRatio="xMidYMid meet" fill="currentColor">
  <g transform="translate(0.000000,512.000000) scale(0.100000,-0.100000)" stroke="none">
    <path d="M1069 5101 c-23 -19 -24 -25 -27 -186 -3 -151 -5 -166 -20 -160 -57
22 -259 87 -325 104 -53 14 -85 17 -100 11 -12 -4 -78 -64 -146 -133 l-123
-125 -55 25 c-95 43 -185 16 -235 -72 l-23 -40 -3 -1579 c-1 -1036 1 -1598 8
-1634 5 -31 20 -69 33 -85 26 -34 1966 -1131 2031 -1148 22 -6 52 -8 67 -5 20
4 32 -1 50 -21 46 -50 67 -53 359 -53 291 0 313 3 358 53 19 20 30 24 60 20
20 -2 53 2 73 9 19 7 476 261 1013 563 702 395 985 559 1002 581 13 17 28 55
34 84 13 69 13 394 0 441 -21 75 -119 75 -140 0 -5 -20 -10 -126 -10 -236 l0
-200 -974 -547 c-535 -302 -979 -548 -985 -548 -6 0 -13 10 -16 22 -3 13 -4
732 -3 1598 l3 1574 974 549 c536 301 980 546 988 543 10 -4 13 -218 15 -1161
l3 -1157 28 -24 c35 -30 59 -30 94 0 l28 24 0 1169 0 1168 -23 40 c-50 88
-140 115 -235 72 l-55 -25 -123 125 c-68 69 -134 129 -146 133 -27 11 -111
-10 -303 -75 -74 -25 -136 -45 -137 -45 -2 0 -3 67 -3 149 0 164 -7 195 -46
213 -33 15 -80 0 -269 -91 -413 -199 -751 -484 -983 -831 -62 -94 -185 -328
-203 -390 -14 -47 -24 -51 -34 -13 -11 44 -101 229 -157 322 -166 277 -435
552 -723 740 -169 109 -498 271 -553 271 -11 0 -30 -9 -43 -19z m235 -220
c375 -182 690 -450 905 -770 32 -47 68 -106 80 -129 22 -42 19 -41 -66 41
-100 98 -268 236 -319 263 -32 17 -37 17 -62 4 -33 -19 -53 -58 -45 -88 3 -13
51 -58 112 -104 184 -142 437 -406 515 -538 l18 -32 -103 4 -104 3 -870 489
c-478 269 -877 495 -885 503 -12 11 -2 25 74 102 l89 89 66 -19 c175 -49 374
-126 580 -225 84 -41 163 -74 174 -74 55 0 89 87 50 126 -18 18 -295 154 -313
154 -6 0 -10 49 -10 125 0 69 3 125 6 125 4 0 52 -22 108 -49z m2626 -73 l0
-123 -118 -53 c-324 -144 -665 -370 -899 -596 -101 -96 -105 -99 -83 -56 60
118 183 283 310 414 139 144 270 249 455 366 68 43 313 170 328 170 4 0 7 -55
7 -122z m710 -281 c-8 -8 -406 -234 -885 -503 l-870 -489 -104 -3 -103 -4 18
32 c43 73 189 243 302 352 326 314 784 580 1290 747 81 27 156 51 167 53 15 4
44 -19 110 -83 78 -77 88 -91 75 -102z m-3469 -565 l974 -547 3 -1592 c2
-1439 1 -1591 -14 -1597 -10 -4 -377 197 -989 542 l-975 547 0 1591 c0 875 3
1594 7 1597 3 4 10 7 14 7 4 0 445 -246 980 -548z m1647 -684 l3 -98 -261 0
-260 0 0 93 c0 52 3 97 7 101 4 3 119 5 257 4 l251 -3 3 -97z m2 -338 l0 -90
-260 0 -260 0 0 90 0 90 260 0 260 0 0 -90z m0 -1175 l0 -935 -260 0 -260 0 0
935 0 935 260 0 260 0 0 -935z m0 -1175 l0 -90 -260 0 -260 0 0 90 0 90 260 0
260 0 0 -90z m-2 -337 l-3 -98 -255 0 -255 0 -3 98 -3 97 261 0 261 0 -3 -97z" />
    <path d="M2511 2271 c-11 -11 -22 -39 -26 -63 -3 -24 -5 -240 -3 -481 l3 -439
28 -24 c35 -30 59 -30 94 0 l28 24 3 439 c2 241 0 457 -3 481 -8 53 -35 82
-75 82 -16 0 -39 -9 -49 -19z" />
    <path d="M3939 3419 c-387 -221 -714 -412 -726 -426 -23 -24 -23 -28 -23 -292
0 -267 0 -268 23 -289 13 -12 35 -22 50 -22 32 0 1420 789 1455 826 22 25 22
29 22 290 l0 265 -25 24 c-13 14 -35 25 -48 25 -13 0 -340 -180 -728 -401z
m651 39 l0 -153 -625 -357 -625 -357 0 157 1 157 617 352 c339 193 620 352
625 352 4 1 7 -68 7 -151z" />
  </g>
</svg>