<svg width="256" height="256" viewBox="0 0 256 256" fill="currentColor"
        xmlns="http://www.w3.org/2000/svg">
        <path
                d="M72 0.449996C67.4 1.9 63.2 5.8 61.8 9.85C58.95 18.2 63.45 26.85 71.9 29.3L74.55 30.1L74.35 62.15C74.15 97.35 74.2 96.55 70.9 105.9C68.45 112.9 65.95 117.15 57.95 127.75C51.25 136.7 50.45 137.9 50.7 139.25C51.3 142.3 54.4 143.4 56.7 141.4C59.4 138.95 71.6 122.1 74 117.4C78.05 109.6 81.5 97.7 81.5 91.7V90H88.45C94.7 90 95.5 89.9 96.7 88.95C98.4 87.6 98.5 85.1 96.85 83.6C95.75 82.6 95.2 82.5 88.6 82.5H81.5V76.25V70H88.45C94.7 70 95.5 69.9 96.7 68.95C98.4 67.6 98.5 65.1 96.85 63.6C95.8 62.65 95.1 62.5 88.75 62.4L81.75 62.25L81.6 59.25C81.5 57.6 81.55 54.85 81.75 53.1L82.1 50H88.7C94.7 50 95.5 49.9 96.7 48.95C98.4 47.6 98.5 45.1 96.85 43.6C95.75 42.6 95.2 42.5 88.85 42.5H82V36.25V30H103.5H125V60.35C125 93.85 125.2 96.4 128.05 105.75C131.15 115.9 133.65 120 149 140.2C156.7 150.35 162.9 158.75 162.8 158.85C162.7 158.95 161.25 158.7 159.55 158.25C146.1 154.8 130.9 157.5 112.65 166.65C108.6 168.7 108.15 168.85 107.25 168.15C105.45 166.8 97.8 163.15 94.5 162.05C88.95 160.25 84.05 159.5 75.75 159.15C64.7 158.75 51.6 160.45 42.8 163.5C41.25 164 40 164.35 40 164.2C40 164.1 41.7 161.75 43.85 159C46.9 155 47.65 153.7 47.6 152.4C47.5 149.45 43.85 147.9 41.6 149.85C40.3 151.05 18 180.15 15.85 183.6C9.7 193.2 6.2 204.45 5.65 216.3C5.2 226.25 6.65 233.75 10.35 240.65C12.4 244.5 18.55 250.4 22.5 252.35C30 255.95 23.95 255.7 101.2 255.85C175.9 256.05 174.9 256.05 181.65 253.5C183.3 252.9 186.05 251.4 187.8 250.2L191.05 247.95L193 249.65C197.4 253.4 204.65 256 210.75 256C223.4 256 235 247 238.2 234.65C238.9 231.95 239 224.05 239 166.05C239 101.15 239 100.5 238 99.5C236.75 98.25 234.45 98.2 232.95 99.45C231.75 100.4 231.75 100.45 231.6 113.4L231.45 126.45L229.6 127.1C228.55 127.45 225.6 127.75 222.75 127.75C217.85 127.75 217.7 127.7 213.5 125.55C208 122.75 206 122.05 201.7 121.5C198.45 121.1 192.95 121.5 190.8 122.3C190.1 122.6 190 121.9 190 115.3V108H196.9C203.5 108 203.9 107.95 204.9 106.85C206.45 105.2 206.35 102.85 204.7 101.55C203.5 100.6 202.7 100.5 196.7 100.5H190V94.25V88H196.9C203.5 88 203.9 87.95 204.9 86.85C206.45 85.2 206.35 82.85 204.7 81.55C203.5 80.6 202.7 80.5 196.7 80.5H190V74.25V68H196.9C203.5 68 203.9 67.95 204.9 66.85C206.45 65.2 206.35 62.85 204.7 61.55C203.5 60.6 202.7 60.5 196.7 60.5H190V54.25V48H210.75H231.5V66.5C231.5 81.8 231.65 85.3 232.25 86.45C233.45 88.8 236.15 89.25 237.9 87.35C239 86.2 239 86 239 67.15V48.05L241.65 46.85C247.2 44.3 250 40.25 250.4 34.2C250.75 29 249.6 26.05 246 22.4C241.45 17.9 242.4 18 210.75 18C179.1 18 180.05 17.9 175.5 22.4C173.45 24.5 172.5 25.95 171.85 27.95C169.4 35.65 172.4 43.15 179.3 46.55L182.5 48.15V109.9C182.5 146.8 182.3 171.5 182.05 171.25C181.8 170.95 172.55 158.8 161.5 144.25C141.1 117.35 139.15 114.45 136.25 106.5C132.85 97.1 132.9 97.45 132.65 62.15L132.4 30.1L135.1 29.3C140.15 27.85 144.25 23.7 145.55 18.75C147.35 12.15 143.9 4.8 137.5 1.45L135.25 0.249996L104.25 0.149996C87.2 0.0999962 72.7 0.249996 72 0.449996ZM134.5 8.45C136.9 9.75 138.1 11.55 138.35 14.35C138.65 17.6 137.35 19.9 134.5 21.35L132.3 22.5H103.25C75.95 22.5 74.15 22.45 72.5 21.55C67.15 18.75 67.15 11.05 72.5 8.4C74.1 7.55 76.65 7.5 103.5 7.5C131.05 7.5 132.85 7.55 134.5 8.45ZM239 26.4C242.8 28.3 244.15 33.1 241.9 37.05C239.9 40.65 240.8 40.55 210.05 40.4L182.6 40.25L181.25 39C179.1 37 178.35 35.15 178.6 32.4C178.9 29.5 180.15 27.6 182.55 26.4C184.1 25.6 186.5 25.5 210.75 25.5C235 25.5 237.4 25.6 239 26.4ZM208.95 131.65C214.85 134.75 218.9 135.7 224.75 135.35C227.25 135.2 229.75 134.9 230.4 134.7L231.5 134.4V182.85C231.5 229.55 231.45 231.45 230.55 234.15C228.2 240.9 222.75 245.95 215.75 247.8C205.3 250.6 193.8 244 190.8 233.5C190.1 231.05 190 225.1 190.1 180.55L190.25 130.35L192 129.7C193.15 129.25 195.6 129.05 199.05 129.15C204.35 129.25 204.45 129.3 208.95 131.65ZM155.5 165.05C159.55 165.8 164.25 167.4 168.8 169.6C172.75 171.5 172.9 171.65 177.65 177.9L182.5 184.3V208.05C182.5 233.35 182.6 234.3 185.1 239.65L186.2 242.05L184.7 243.25C182.4 245.15 178.2 247 174.6 247.8C169.5 248.85 37.35 248.85 32.25 247.75C19.95 245.15 13.05 235.15 13 219.9C13 217.25 13.25 213.35 13.55 211.25C14.2 206.85 13.6 207.2 22 206.75C32.4 206.25 46.3 203.7 57.95 200.15C70.65 196.35 83.1 190.7 109.25 177.05C131.7 165.3 141.95 162.65 155.5 165.05ZM86.6 167.7C90.6 168.6 96.05 170.5 98.7 171.85L100.6 172.85L98.4 174.15C94.45 176.45 77.4 184.85 72.5 186.9C57.35 193.2 43.3 197 28.25 198.75C22.05 199.45 16.5 199.75 16.5 199.3C16.5 198.7 19.75 191.6 21.05 189.4C21.9 187.95 24.3 184.45 26.4 181.65C30.15 176.7 30.35 176.55 34.5 174.6C41.85 171.2 51.05 168.6 60.5 167.2C66.6 166.35 81.85 166.65 86.6 167.7Z" />
        <path
                d="M205.1 153.25C202.5 154.6 200.85 156.35 199.35 159.25C196.5 165 199.15 172.45 205.2 175.65C208.05 177.15 213.45 177.15 216.3 175.65C220.95 173.2 223.95 167.6 223.25 162.75C222.7 159.4 220.2 155.55 217.3 153.75C215.3 152.55 214.2 152.25 211.3 152.1C208.25 151.95 207.4 152.1 205.1 153.25ZM214.15 160.8C215.95 162.6 216.3 164.65 215.15 166.65C213.95 168.7 212.2 169.6 210.05 169.3C203.9 168.4 204.55 159.5 210.8 159.5C212.35 159.5 213.2 159.8 214.15 160.8Z" />
        <path
                d="M202.9 193.2C201.5 194.25 201 196.1 201.75 197.8C203.3 201.5 208.5 200.3 208.5 196.25C208.5 193.25 205.2 191.45 202.9 193.2Z" />
        <path
                d="M210.7 222.15C208.05 224.45 209.4 228.5 212.85 228.5C216.35 228.5 217.9 224.2 215.2 222.05C213.5 220.7 212.35 220.75 210.7 222.15Z" />
        <path
                d="M112.6 191.65C109.8 194.65 112.9 199.15 116.75 197.7C117.95 197.2 119.05 194.7 118.7 193.25C118 190.55 114.5 189.6 112.6 191.65Z" />
        <path
                d="M137.6 197.3C132.1 198.75 127.55 202.65 125.1 207.9C123.95 210.35 123.75 211.4 123.75 215.5C123.75 219.85 123.9 220.55 125.35 223.55C130.45 233.9 143.1 237.55 152.65 231.4C166.7 222.4 162.55 200.55 146.1 197.05C142.7 196.35 140.9 196.4 137.6 197.3ZM145.25 204.55C146.45 204.85 148.35 205.9 149.5 206.85C155.55 212.05 155.05 220.65 148.45 225.05C141.6 229.7 132 225.15 131.15 216.9C130.55 211.2 133.45 206.65 138.9 204.7C141.2 203.9 142.45 203.85 145.25 204.55Z" />
        <path
                d="M82.6 202.85C82.25 203 81.65 203.75 81.2 204.6C79.25 208.35 84.05 211.9 86.9 208.85C89.8 205.8 86.55 201.25 82.6 202.85Z" />
        <path
                d="M53.5 211.45C47.45 213.45 44.05 217.95 44 224.05C43.95 237.6 62.15 242 68.2 229.9C70.45 225.4 69.9 219.9 66.8 215.85C64.15 212.4 57.4 210.15 53.5 211.45ZM60.65 220.5C63.8 224 61.4 229.5 56.65 229.5C53.8 229.5 51.55 227.15 51.5 224.2C51.5 219.1 57.25 216.75 60.65 220.5Z" />
        <path
                d="M98 117.05C88.95 121.1 87.15 133.35 94.6 139.7C98.85 143.35 104.35 144 109.45 141.45C114.7 138.8 117.4 133.95 116.85 128.05C116.45 123.25 113.6 119.2 109.25 117.2C105.95 115.65 101.2 115.6 98 117.05ZM106.9 124.3C108.35 125.3 109.5 127.6 109.5 129.5C109.5 134.15 104.15 137.05 100.3 134.55C98.3 133.25 97.55 131.7 97.5 129.05C97.5 127.25 97.8 126.6 99.2 125.2C100.65 123.75 101.25 123.5 103.35 123.5C104.75 123.5 106.25 123.85 106.9 124.3Z" />
</svg>