<svg
  width="256"
  height="44"
  viewBox="0 0 256 44"
  fill="none"
  xmlns="http://www.w3.org/2000/svg"
>
  <g clip-path="url(#clip0)">
    <path
      d="M101.877 12.9707C102.219 13.3547 102.432 13.824 102.389 14.336V40.448C102.389 41.0027 102.176 41.5574 101.792 41.9414C101.408 42.368 100.853 42.5814 100.299 42.5387C99.9999 42.5387 99.6586 42.496 99.36 42.4107C99.104 42.3254 98.8479 42.1547 98.6346 41.9414L81.7813 19.9254V40.704C81.7813 41.216 81.6106 41.6854 81.2266 42.0694C80.8853 42.4107 80.3733 42.624 79.8613 42.624C79.3493 42.624 78.8799 42.4534 78.5386 42.0694C78.1973 41.6854 78.0266 41.216 78.0266 40.704V14.5067C78.0266 13.952 78.2399 13.3974 78.6239 13.0134C79.0079 12.6294 79.5199 12.416 80.0746 12.416C80.4159 12.416 80.7573 12.4587 81.0559 12.5867C81.3546 12.7147 81.6106 12.8854 81.7813 13.1414L98.6346 35.2427V14.336C98.6346 13.824 98.8053 13.3547 99.1893 12.9707C99.5306 12.6294 100.043 12.416 100.555 12.416C101.024 12.416 101.536 12.6294 101.877 12.9707ZM136.651 12.9707C137.035 13.3974 137.205 13.9094 137.205 14.464V30.976C137.248 33.1094 136.736 35.2427 135.712 37.0774C134.731 38.8267 133.323 40.32 131.573 41.3014C129.739 42.3254 127.691 42.88 125.6 42.8374C123.509 42.88 121.419 42.3254 119.584 41.3014C117.835 40.32 116.384 38.8267 115.403 37.0774C114.379 35.2 113.867 33.1094 113.909 30.976V14.464C113.909 13.9094 114.123 13.3547 114.507 12.9707C114.933 12.5867 115.488 12.3307 116.043 12.3734C116.597 12.3734 117.109 12.5867 117.493 12.9707C117.877 13.3547 118.133 13.8667 118.091 14.4214V30.9334C118.048 32.3414 118.432 33.7494 119.115 34.944C120.437 37.2907 122.912 38.6987 125.557 38.6987C126.88 38.6987 128.203 38.3574 129.397 37.7174C130.592 37.0774 131.573 36.096 132.256 34.944C132.981 33.7067 133.323 32.3414 133.323 30.9334V14.4214C133.323 13.8667 133.493 13.3547 133.835 12.928C134.176 12.544 134.731 12.288 135.243 12.3307C135.755 12.3307 136.309 12.5867 136.651 12.9707ZM169.803 39.4667C170.059 39.808 170.187 40.2347 170.187 40.704C170.229 41.2587 169.973 41.8134 169.589 42.1547C169.205 42.496 168.693 42.7094 168.181 42.7094C167.499 42.752 166.859 42.4107 166.517 41.856L158.155 30.6774L149.963 41.8134C149.579 42.368 148.981 42.7094 148.299 42.7094C147.787 42.7094 147.317 42.5387 146.976 42.1547C146.635 41.856 146.421 41.3867 146.421 40.9174C146.421 40.4054 146.635 39.8934 146.933 39.5094L155.765 27.4774L146.891 15.5307C146.635 15.1894 146.464 14.7627 146.464 14.2934C146.464 13.7387 146.677 13.2267 147.061 12.8427C147.445 12.4587 147.957 12.2454 148.512 12.2454C148.853 12.2454 149.152 12.3307 149.451 12.4587C149.749 12.5867 150.005 12.8427 150.219 13.0987L158.496 24.192L166.688 13.184C167.029 12.6294 167.669 12.288 168.309 12.2454C168.821 12.2454 169.333 12.4587 169.675 12.8427C170.059 13.184 170.272 13.6534 170.272 14.1654C170.272 14.592 170.101 15.0187 169.845 15.4027L160.843 27.3494C160.843 27.4774 169.803 39.4667 169.803 39.4667ZM200.864 12.9707C201.248 13.3547 201.504 13.8667 201.461 14.4214C201.461 14.976 201.248 15.488 200.864 15.8294C200.437 16.1707 199.925 16.384 199.371 16.3414H191.691V40.4907C191.691 41.0454 191.477 41.5574 191.093 41.9414C190.197 42.752 188.832 42.752 187.936 41.9414C187.552 41.5574 187.296 41.0454 187.339 40.4907V16.3414H179.701C179.147 16.3414 178.635 16.1707 178.208 15.8294C177.824 15.4454 177.611 14.9334 177.611 14.3787C177.611 13.8667 177.824 13.3547 178.208 12.9707C178.635 12.6294 179.147 12.416 179.701 12.4587H199.371C199.925 12.416 200.437 12.5867 200.864 12.9707Z"
      fill="#2F495E"
    />
    <path
      d="M210.293 41.8133C208.885 41.0027 207.733 39.8933 206.923 38.4853C206.667 38.144 206.539 37.76 206.539 37.3333C206.539 36.7787 206.795 36.2667 207.179 35.9253C207.52 35.5413 207.989 35.328 208.501 35.328C209.269 35.4133 209.995 35.7973 210.421 36.3947C211.36 37.9733 213.109 38.912 214.944 38.912C216.437 38.9547 217.888 38.3573 218.955 37.3333C220.021 36.3093 220.619 34.9013 220.576 33.408V14.5493C220.576 13.9947 220.789 13.44 221.216 13.0987C221.6 12.7147 222.155 12.5013 222.709 12.5013C223.264 12.4587 223.819 12.672 224.245 13.0987C224.629 13.4827 224.843 14.0373 224.843 14.592V33.4933C224.843 35.2 224.416 36.864 223.563 38.3147C222.709 39.7653 221.472 40.96 220.021 41.8133C218.485 42.6667 216.736 43.136 214.944 43.0933C213.323 43.008 211.744 42.624 210.293 41.8133ZM239.904 42.112C238.197 41.472 236.619 40.4907 235.296 39.2533C234.741 38.8267 234.4 38.1867 234.4 37.504C234.4 36.992 234.613 36.48 234.997 36.096C235.381 35.712 235.893 35.4987 236.405 35.4987C236.875 35.4987 237.301 35.6693 237.643 35.968C238.667 36.9493 239.861 37.76 241.184 38.3147C242.507 38.8267 243.915 39.0827 245.323 39.0827C246.944 39.1253 248.523 38.6987 249.888 37.8453C251.04 37.2053 251.723 36.0107 251.765 34.688C251.808 33.28 251.083 31.9573 249.888 31.232C248.181 30.208 246.261 29.5253 244.299 29.184C241.355 28.5867 239.051 27.6053 237.472 26.1973C235.893 24.832 235.083 22.912 235.083 20.48C235.04 18.8587 235.509 17.3227 236.448 16C237.387 14.6773 238.667 13.6533 240.117 13.056C241.824 12.3307 243.616 11.9893 245.451 12.032C247.157 12.032 248.864 12.3307 250.485 12.8853C251.893 13.3547 253.216 14.1653 254.325 15.1893C254.923 15.616 255.264 16.2987 255.307 17.024C255.307 17.536 255.093 18.048 254.709 18.3893C254.368 18.7733 253.856 19.0293 253.301 18.9867C252.96 18.9867 252.576 18.8587 252.32 18.6453C251.424 17.792 250.357 17.152 249.205 16.768C248.011 16.2987 246.731 16.0427 245.451 16C243.829 15.9147 242.251 16.3413 240.885 17.1947C239.819 17.92 239.179 19.072 239.179 20.352C239.179 21.632 239.819 22.8267 240.885 23.5093C242.464 24.4053 244.171 25.0453 245.963 25.3867C247.84 25.7707 249.717 26.3253 251.467 27.0933C252.789 27.6907 253.941 28.6293 254.752 29.8667C255.563 31.2747 255.989 32.8533 255.904 34.4747C255.947 36.0533 255.435 37.632 254.496 38.912C253.515 40.2347 252.192 41.3013 250.699 41.9413C249.035 42.6667 247.243 43.0507 245.408 43.008C243.573 43.0507 241.696 42.752 239.904 42.112Z"
      fill="#00C58E"
    />
    <path
      d="M17.8666 42.24C17.8239 42.1547 17.7812 42.0693 17.7386 41.984C17.4826 41.4293 17.4399 40.832 17.5252 40.2773H3.65857L24.3092 3.92533L31.0932 15.8293L33.0559 12.3307L27.1679 1.92C26.9972 1.62133 26.0159 0 24.2666 0C23.4986 0 22.3892 0.341333 21.4506 1.92L0.543899 38.6987C0.373232 38.9973 -0.480101 40.704 0.373232 42.1547C0.757232 42.8373 1.61057 43.648 3.44523 43.648H20.9812C19.1039 43.6907 18.2506 42.9227 17.8666 42.24Z"
      fill="#00C58E"
    />
    <path
      d="M58.1439 38.7414L40.9492 8.44808C40.7785 8.14941 39.7972 6.52808 38.0479 6.52808C37.2799 6.52808 36.1705 6.86941 35.2319 8.44808L33.0132 12.3307L34.9759 15.8294L38.0479 10.4107L55.0292 40.2347H48.5439C48.6292 40.7467 48.5865 41.2161 48.4159 41.6854C48.3732 41.7707 48.3305 41.8987 48.2879 41.9841L48.2452 42.1121C47.3919 43.6054 45.5145 43.6907 45.1305 43.6907H55.2425C55.6265 43.6907 57.5039 43.6054 58.3572 42.1121C58.7839 41.4721 59.0825 40.3201 58.1439 38.7414Z"
      fill="#108775"
    />
    <path
      d="M48.288 42.1546L48.3307 42.0266C48.3733 41.9413 48.416 41.8133 48.4587 41.728C48.6293 41.2586 48.672 40.7466 48.5867 40.2773C48.5013 39.7653 48.288 39.2533 48.032 38.784L35.0187 15.8719L33.0133 12.3733L31.0507 15.8719L18.0373 38.784C17.7813 39.2533 17.6107 39.7653 17.5253 40.2773C17.44 40.8746 17.4827 41.472 17.696 41.984C17.7387 42.0693 17.7813 42.1546 17.824 42.24C18.208 42.9226 19.0613 43.7333 20.896 43.7333H45.1307C45.5573 43.6906 47.4347 43.6053 48.288 42.1546ZM33.056 19.328L44.96 40.2773H21.152L33.056 19.328Z"
      fill="#2F495E"
    />
  </g>
  <defs>
    <clipPath id="clip0">
      <rect width="256" height="43.9467" fill="white" />
    </clipPath>
  </defs>
</svg>
