<svg width="256" height="256" viewBox="0 0 256 256" fill="currentColor"
  xmlns="http://www.w3.org/2000/svg">
  <path
    d="M42.25 0.699996C37.55 2.15 34.25 4.9 31.95 9.1L30.25 12.25V81V149.75L31.5 152.25C33.05 155.45 36.55 158.95 39.75 160.5L42.25 161.75L74.4 161.9L106.5 162.05V170.5V179H96.15C84.85 179 81 179.4 77.8 181C75.05 182.3 71.7 185.65 70.05 188.75L68.75 191.25L68.6 216.8C68.45 241.65 68.5 242.45 69.5 245.15C70.9 248.85 74.4 252.55 78.25 254.35L81.25 255.75H128H174.75L177.75 254.35C181.6 252.55 185.1 248.85 186.5 245.15C187.5 242.45 187.55 241.65 187.4 216.8L187.25 191.25L185.9 188.75C183.25 183.65 178.7 180.4 173.05 179.45C171.5 179.2 165.6 179 159.9 179H149.5V170.5V162.05L181.65 161.9L213.75 161.75L216.6 160.35C219.8 158.8 222.85 155.6 224.6 152.1L225.75 149.75V81V12.25L224.05 9.1C222.15 5.6 219.45 3.1 215.7 1.4L213.25 0.249996L128.75 0.149996C61.8 0.0999962 43.85 0.199996 42.25 0.699996ZM212.85 9.55C214.3 10.25 215.45 11.3 216.25 12.7C217.45 14.8 217.5 15.1 217.5 24.4V34H128H38.5V24.4C38.5 15.15 38.55 14.75 39.75 12.75C40.55 11.35 41.7 10.25 43.1 9.55L45.25 8.5H127.95H210.7L212.85 9.55ZM217.5 94.75C217.5 145.85 217.5 147.1 216.5 149C215.95 150.05 214.8 151.45 213.9 152.1L212.25 153.25L180.9 153.4L149.5 153.5V134.25V115H153.2C156.15 115 157.15 114.8 158.55 113.85C162.2 111.45 163.1 106.4 160.55 102.45C157.05 97 133.25 66.15 131.9 65.3C129.85 64 126.15 64 124.1 65.3C122.75 66.15 96.15 100.9 94.55 103.85C93.75 105.45 93.9 109 94.9 111C96.35 113.9 98.55 115 102.8 115H106.5V134.25V153.5L75.1 153.4L43.65 153.25L41.9 151.9C38.25 149.15 38.5 153 38.5 94.8V42.5H128H217.5V94.75ZM140.75 90L153.05 106.25L149.65 106.35C144.7 106.55 143.1 106.9 142 108.1C141 109.15 141 109.9 141 144.1V179H128H115V144.1V109.15L113.7 107.95C112.55 106.9 111.9 106.75 107.75 106.6L103.05 106.4L115.4 89.95C122.2 80.9 127.9 73.55 128.1 73.6C128.3 73.7 134 81.05 140.75 90ZM172.2 188C174.6 188.55 176.4 189.8 177.9 192L179.05 193.7L178.9 217.95L178.75 242.25L177.55 243.95C176.9 244.85 175.45 246.05 174.3 246.55C172.35 247.45 170.1 247.5 128 247.5C85.9 247.5 83.65 247.45 81.7 246.55C80.55 246.05 79.1 244.85 78.45 243.95L77.25 242.25L77.1 217.95L76.95 193.7L78.1 192C79.55 189.85 81.45 188.5 83.55 188C85.95 187.45 169.8 187.4 172.2 188Z" />
  <path
    d="M48.6 18.25C46.55 19.95 46.4 22.45 48.25 24.25C49.3 25.35 49.9 25.5 53.15 25.5C57.85 25.5 59.5 24.45 59.5 21.5C59.5 18.3 58.25 17.3 53.9 17.1C50.45 16.9 50.1 17 48.6 18.25Z" />
  <path
    d="M70.65 17.5C68.15 18.5 67.65 22.75 69.8 24.45C70.9 25.3 71.85 25.5 74.85 25.5C78.1 25.5 78.7 25.35 79.75 24.25C81.5 22.55 81.4 20.35 79.55 18.45C78.2 17.15 77.75 17 74.9 17.05C73.15 17.05 71.25 17.25 70.65 17.5Z" />
  <path
    d="M91.3 18.1C89.3 19.85 89.15 22 90.75 23.9C92.05 25.45 92.2 25.5 96 25.5C99.8 25.5 99.95 25.45 101.25 23.9C102.85 22 102.7 19.85 100.7 18.1C99.65 17.2 98.85 17 96 17C93.15 17 92.35 17.2 91.3 18.1Z" />
  <path
    d="M184.95 18.45C183.1 20.35 183 22.55 184.75 24.25C185.95 25.5 186 25.5 196.25 25.5C206.5 25.5 206.55 25.5 207.75 24.25C209.5 22.55 209.4 20.35 207.55 18.45L206.1 17H196.25H186.4L184.95 18.45Z" />
  <path
    d="M129.85 201.5C128.85 202.3 127.7 205.2 124.05 216.15C121.55 223.6 119.5 230.25 119.5 230.9C119.5 232.65 121.65 234.5 123.65 234.5C126.75 234.5 127.2 233.7 132 219.25C134.5 211.85 136.5 205.25 136.5 204.6C136.5 203.05 133.9 200.5 132.35 200.5C131.7 200.5 130.55 200.95 129.85 201.5Z" />
  <path
    d="M97.8 209.8C86.7 217.2 86.7 217.85 98 225.4C104.7 229.95 105.85 230.55 107.2 230.3C108.05 230.15 109.25 229.45 109.9 228.7C112.15 226.15 111.15 224 105.95 220.5C103.8 219.05 102 217.7 102 217.55C102 217.4 103.85 216.05 106.05 214.6C111.2 211.2 112.2 208.7 109.5 206C107.5 204 105.65 204.6 97.8 209.8Z" />
  <path
    d="M146.5 206C143.8 208.7 144.8 211.2 149.95 214.6C152.15 216.05 154 217.4 154 217.55C154 217.7 152.2 219.05 150.05 220.55C144.85 224.1 143.85 226.15 146.15 228.7C146.75 229.45 147.95 230.15 148.8 230.3C150.15 230.55 151.3 229.95 158 225.4C169.3 217.85 169.3 217.2 158.2 209.8C150.35 204.6 148.5 204 146.5 206Z" />
</svg>