<svg width="256" height="256" viewBox="0 0 256 256" fill="currentColor"
  xmlns="http://www.w3.org/2000/svg">
  <path
    d="M23.4 31.7C19.7 33 17.25 35.45 16.05 38.95C15.65 40.2 15.5 60.4 15.5 113.55V186.5H8.8C-0.600001 186.5 -8.60427e-07 185.4 -8.60427e-07 202.15C-8.60427e-07 210.45 0.199999 215.8 0.549999 217.05C1.35 219.55 3.6 222.3 6.15 223.65L8.25 224.75L95.55 224.9L182.85 225L184.2 223.95C185.85 222.65 186 220 184.5 218.5C183.5 217.5 182.85 217.5 96.75 217.5H9.95L8.75 216.25C7.5 215.05 7.5 215.05 7.5 204.5V194H46.5H85.5V197.35C85.5 199.55 85.85 201.45 86.45 202.8C87.65 205.45 91 208.25 93.75 208.95C96.8 209.7 159.2 209.7 162.25 208.95C165 208.25 168.35 205.45 169.55 202.8C170.15 201.45 170.5 199.55 170.5 197.35V194H209.5H248.5V204.5C248.5 215.05 248.5 215.05 247.25 216.25L246.05 217.5H221.5H196.95L195.75 218.75C194.15 220.3 194.15 222.2 195.75 223.8L197 225.05L222.35 224.9C247.5 224.75 247.75 224.75 249.85 223.65C252.4 222.3 254.65 219.55 255.45 217.05C255.8 215.8 256 210.45 256 202.15C256 185.4 256.6 186.5 247.2 186.5H240.5V113.7C240.5 60.55 240.35 40.35 239.95 38.95C239.15 36.45 236.9 33.7 234.35 32.35L232.25 31.25L188 31.1C156.5 31 143.35 31.15 142.4 31.55C139.8 32.6 139.5 36.65 141.95 37.95C142.6 38.3 149.15 38.5 160.7 38.5H178.5V65.75V93H128H77.5V65.75V38.5H103.05C120.05 38.5 128.9 38.3 129.55 37.95C131.95 36.7 131.75 32.7 129.2 31.55C127.25 30.65 25.9 30.8 23.4 31.7ZM70 42.5V46.45L51.45 46.6L32.9 46.75L31.95 47.95C31.05 49.1 31 50.85 31 112.05C31 157.1 31.15 175.3 31.55 176.15C31.85 176.85 32.65 177.65 33.35 177.95C35.05 178.75 220.95 178.75 222.65 177.95C223.35 177.65 224.15 176.85 224.45 176.15C225.25 174.45 225.2 128.55 224.45 126.8C223.3 124.25 219.3 124.05 218.05 126.45C217.7 127.1 217.5 134.8 217.5 149.2V171H128H38.5V112.5V54H54.25H70V76.25C70 97.85 70.05 98.55 71 99.5C71.95 100.45 72.65 100.5 82.5 100.5H93V112.5V124.55L89.15 124.4L85.25 124.25L85.1 121.5C85 119.55 84.65 118.45 83.9 117.6C82.85 116.5 82.8 116.5 65.9 116.5H48.95L47.75 117.75C46.5 118.95 46.5 119.05 46.5 128C46.5 136.95 46.5 137.05 47.75 138.25L48.95 139.5H65.8C82.45 139.5 82.7 139.5 83.85 138.4C84.75 137.55 85 136.8 85 134.7V132.1L91.75 131.9C97.4 131.8 98.6 131.6 99.35 130.85C100.15 130.05 100.25 128.5 100.5 115.35L100.75 100.75L112.4 100.6L124 100.5V120.25V140H117.35C108.25 140 108.75 139.35 108.75 151.3C108.75 160.2 108.8 160.5 109.9 161.6L111.05 162.75H128H144.95L146.1 161.6C147.2 160.5 147.25 160.2 147.25 151.3C147.25 139.35 147.75 140 138.65 140H132V120.25V100.5L143.65 100.6L155.25 100.75L155.5 115.35C155.75 128.5 155.85 130.05 156.65 130.85C157.4 131.6 158.6 131.8 164.25 131.9L171 132.1V134.65C171 136.55 171.25 137.45 172.1 138.35L173.15 139.5H190.1H207.05L208.25 138.25C209.5 137.05 209.5 136.95 209.5 128C209.5 119.05 209.5 118.95 208.25 117.75L207.05 116.5H190.1C173.2 116.5 173.15 116.5 172.1 117.6C171.35 118.45 171 119.55 170.9 121.5L170.75 124.25L166.9 124.4L163 124.55V112.5V100.5H173.5C183.35 100.5 184.05 100.45 185 99.5C185.95 98.55 186 97.85 186 76.25V54H201.75H217.5V83.55C217.5 103.4 217.65 113.4 218.05 114.05C219.3 116.45 223.3 116.25 224.45 113.7C224.85 112.8 225 103.25 225 80.8C225 50.35 224.95 49.05 224.05 47.95L223.1 46.75L204.55 46.6L186 46.45V42.5V38.5H208.25H230.55L231.75 39.75L233 40.95V113.75V186.5H128H23V113.75V40.95L24.25 39.75L25.45 38.5H47.75H70V42.5ZM77.5 128V132H65.75H54V128V124H65.75H77.5V128ZM202 128V132H190.25H178.5V128V124H190.25H202V128ZM139.9 151.35L139.75 155.25H128H116.25L116.1 151.35L115.95 147.5H128H140.05L139.9 151.35ZM163 196.75C163 199.05 162.8 199.75 161.75 200.75L160.55 202H128H95.45L94.25 200.75C93.2 199.75 93 199.05 93 196.75V194H128H163V196.75Z" />
  <path
    d="M132.1 46.3501C130.8 47.5001 117.5 80.6501 117.5 82.8001C117.5 83.6501 117.9 84.7001 118.4 85.1501C119.6 86.2501 122.1 86.2501 123.4 85.1001C124.55 84.1501 138 50.9501 138 49.0501C138 47.6001 135.85 45.5001 134.35 45.5001C133.65 45.5001 132.65 45.9001 132.1 46.3501Z" />
  <path
    d="M104.2 47.55C102.75 48.25 93.35 63.9 93.35 65.55C93.35 67.25 102.35 82.85 104.1 84.15C105.3 85.05 105.6 85.05 107 84.5C108.7 83.8 109.5 82.65 109.5 80.95C109.5 80.35 107.7 76.75 105.5 72.95C103.3 69.15 101.5 65.9 101.5 65.75C101.5 65.55 103.3 62.4 105.5 58.75C107.7 55.1 109.5 51.55 109.5 50.85C109.5 48.3 106.5 46.45 104.2 47.55Z" />
  <path
    d="M148.65 47.5C147.4 48 146.5 49.45 146.5 51C146.5 51.6 148.3 55.1 150.5 58.75C152.7 62.4 154.5 65.55 154.5 65.75C154.5 65.9 152.7 69.15 150.5 72.95C148.2 76.9 146.5 80.4 146.5 81.15C146.5 83.9 149.9 85.45 152.3 83.8C153.8 82.75 162.65 67.1 162.65 65.55C162.65 63.7 153.2 48.25 151.65 47.55C150.25 46.9 150.1 46.9 148.65 47.5Z" />
</svg>