<svg width="256" height="256" viewBox="0 0 256 256" fill="currentColor"
  xmlns="http://www.w3.org/2000/svg">
  <path
    d="M67.85 0.999996L66.5 2.05V11.3C66.5 16.35 66.3 20.5 66.1 20.5C65.9 20.5 63.15 19.65 60 18.55C56.85 17.5 52.05 16.1 49.4 15.45L44.5 14.3L43.15 15.35L41.75 16.35L41.6 43.05L41.5 69.8L35.05 71.6C31.5 72.6 26.25 74.35 23.3 75.5C18.1 77.55 16.5 78.75 16.5 80.6C16.5 81.4 16 81.5 12.65 81.5C6 81.5 2.65 83 0.95 86.7C0.05 88.65 0 91.3 0 147.55C0 202.85 0.05 206.45 0.9 207.4C2.25 209 4.95 209.05 6.5 207.5C7.5 206.5 7.5 205.85 7.5 148.3C7.5 98.9 7.6 90.05 8.2 89.55C8.65 89.2 10.3 89 12.6 89.1L16.25 89.25L16.4 163.85L16.5 238.45L17.8 239.45L19.15 240.5H128H236.85L238.2 239.45L239.5 238.45L239.6 163.85L239.75 89.25L243.55 89.1C246.35 89 247.5 89.15 247.9 89.65C248.35 90.2 248.45 110.05 248.4 169.3L248.25 248.25L193.8 248.4C140.75 248.5 139.3 248.5 138.3 247.55C135.9 245.35 132.85 244.25 128.65 244.1C125.05 243.9 124.2 244.05 121.65 245.25C120.05 245.95 118.3 247 117.7 247.55C116.7 248.5 115.6 248.5 62.2 248.4L7.75 248.25L7.5 237.1C7.25 226.75 7.2 225.85 6.3 225.2C4.85 224.15 2.2 224.3 1 225.5C0.05 226.45 0 227.15 0 237.75C0 247.85 0.1 249.25 0.95 250.9C2.1 253.2 3.25 254.25 5.65 255.25C7.25 255.9 14.2 256 63.45 256H119.45L121.1 254.6C124.25 251.9 125.15 251.5 128 251.5C130.85 251.5 131.75 251.9 134.9 254.6L136.55 256H192.55C241.8 256 248.75 255.9 250.35 255.25C252.75 254.25 253.9 253.2 255.05 250.9C255.95 249.1 256 246.55 256 168.9C256 91.8 255.95 88.65 255.05 86.7C253.4 83 250 81.5 243.45 81.5H239.65L239.35 80C238.95 78.1 237.55 77.2 230.55 74.7L224.75 72.6L224.6 59.55L224.5 46.55L223.15 45.55C222.15 44.7 221.15 44.5 218.55 44.5C214.2 44.5 204.5 45.35 198.35 46.25C176 49.55 152.3 59.25 135.4 72.05C131.1 75.3 131.3 75.4 130.75 70.25C130.3 65.85 128.2 56.75 126.4 51.4C118.2 26.55 102.4 10.05 79.55 2.5C71.65 -0.100004 69.6 -0.400004 67.85 0.999996ZM83.5 11.95C91.5 15.4 99.7 21.45 105.2 28C114.65 39.2 120.2 52.3 123.3 70.75C124.1 75.2 124.2 82.2 124.35 136.25C124.45 169.5 124.45 196.6 124.3 196.45C124.15 196.35 122.75 193.6 121.1 190.45C117.15 182.65 113.25 177.2 107.25 171.2C99.45 163.3 89.9 157.55 78.8 153.95L74 152.4V80.45V8.55L76.6 9.35C78.05 9.75 81.15 10.95 83.5 11.95ZM56.1 25.2C59.75 26.4 63.6 27.75 64.65 28.2L66.5 29V92.9C66.5 149.05 66.6 156.9 67.25 157.85C67.75 158.55 68.95 159.15 70.8 159.5C72.3 159.8 75.5 160.75 77.9 161.55C97.35 168.1 111.25 182.5 118.75 204C120.55 209.2 122.75 217.45 122.4 217.8C122.3 217.9 120.75 216 118.9 213.6C102.6 191.95 79.8 175.95 55 168.75L49.25 167.1L49.1 95.05C49.05 55.4 49.1 23 49.25 23C49.4 23 52.5 24 56.1 25.2ZM217.1 71.95C217.25 90.75 217.3 91.95 218.2 92.95C219.45 94.3 222.15 94.35 223.5 93C224.4 92.1 224.5 91.35 224.5 86.2C224.5 80.85 224.55 80.4 225.4 80.75C225.85 80.95 227.55 81.55 229.15 82.1L232 83.1V151.35V219.6L230.9 219.35C230.25 219.25 227.6 218.55 225 217.8C218.35 215.95 208.4 214.15 200.8 213.45C193 212.75 177.7 213.1 171.25 214.2C168.8 214.6 166.7 214.9 166.6 214.8C166.3 214.5 173.9 211.7 180.05 209.8C191.45 206.35 201.95 204.6 214.6 204.05C221.25 203.8 222.55 203.6 223.45 202.8C224.5 201.85 224.5 201.8 224.5 157C224.5 114.9 224.45 112.05 223.6 111.05C222.4 109.55 219.8 109.5 218.35 110.95L217.25 112.05L217.1 154.2L217 196.35L211.25 196.7C184.35 198.2 156.95 207.9 136.5 223C134.3 224.65 132.4 226 132.25 226C132.1 226 132 194.2 132 155.3V84.6L134.65 82.25C140.85 76.8 151.25 70.1 160.75 65.5C176.75 57.75 197.1 52.75 215.1 52.05L216.95 52L217.1 71.95ZM41.5 124.9C41.5 169 41.55 171.9 42.4 172.65C42.85 173.05 45.5 174 48.3 174.7C68.6 179.85 86.55 190.15 101.9 205.5C106.45 210.05 113.85 218.85 116.1 222.4L117.05 223.9L111.75 221.7C102.65 217.95 95.5 215.95 84.75 214.15C80.4 213.45 76.6 213.25 66.75 213.3C52.5 213.3 45.55 214.15 33.25 217.3C29.4 218.25 25.75 219.2 25.15 219.35L24 219.6V151.35V83.1L27.4 81.95C33.95 79.7 39.25 78.1 40.4 78.05L41.5 78V124.9ZM78.55 221C90.45 222.2 102.9 225.65 112.4 230.3L117.75 232.9L70.9 232.95L24 233V230.3V227.65L29.4 226.05C38.05 223.55 45.45 222.1 56.75 220.8C60.3 220.4 73.8 220.55 78.55 221ZM207.2 221.75C214.05 222.85 220.3 224.2 226.65 226.05L232 227.65V230.3V233L185.15 232.95L138.25 232.9L143.6 230.3C152.7 225.85 165.25 222.3 176.5 221.05C182.6 220.35 201.25 220.8 207.2 221.75Z" />
</svg>