<svg width="256" height="256" viewBox="0 0 256 256" fill="currentColor"
  xmlns="http://www.w3.org/2000/svg">
  <path
    d="M165.15 21.15C153.3 32.95 152 34.45 152 35.9C152 37 152.4 37.95 153.25 38.75C154.35 39.9 154.85 40 159.25 40H164V44V48L93.65 48.1L23.25 48.25L19.9 49.85C15.25 52.05 12.35 54.85 10.1 59.4L8.24999 63.2L8.09999 73.6L7.89999 84H11.95H16V75.2C16 69.7 16.25 65.6 16.6 64.3C17.4 61.55 21.55 57.4 24.3 56.6C25.9 56.15 42.6 56 95.2 56H164V94V132H168H172V83.3C172 36.75 171.95 34.55 171.1 33.45C170.5 32.75 169.4 32.25 168.05 32.05L166 31.75L173 24.75L180 17.75L187 24.75L194 31.75L191.95 32.05C190.6 32.25 189.5 32.75 188.9 33.45C188.05 34.55 188 36.7 188 81.3V128H192H196V92V56H204.8C210.3 56 214.4 56.25 215.7 56.6C218.45 57.4 222.6 61.55 223.4 64.3C223.85 65.85 224 76.6 224 107.2V148H228H232.05L231.9 105.6L231.75 63.25L230.15 59.9C227.95 55.25 225.15 52.35 220.6 50.1L216.8 48.25L206.4 48.1L196 47.9V43.95V40H200.75C205.15 40 205.65 39.9 206.75 38.75C207.6 37.95 208 37 208 35.9C208 34.45 206.7 32.95 194.85 21.15C182.75 9 181.6 8 180 8C178.4 8 177.25 9 165.15 21.15Z" />
  <path
    d="M204 11.95V15.9L206.4 16.25C209.35 16.65 214.15 19.2 215.8 21.15C217.7 23.4 219.35 27 219.75 29.65L220.1 32H224.05C228.55 32 228.4 32.2 227.5 27.45C226.25 20.9 221.3 14.15 215.55 11.05C212.5 9.45001 207.75 8.00001 205.4 8.00001H204V11.95Z" />
  <path d="M28 68V72H32H36V68V64H32H28V68Z" />
  <path d="M44 68V72H48H52V68V64H48H44V68Z" />
  <path d="M60 68V72H64H68V68V64H64H60V68Z" />
  <path
    d="M125.25 69.25L124 70.45V115.25V160H120H116V129.25V98.45L114.75 97.25L113.55 96H100H86.45L85.25 97.25L84 98.45V129.25V160H80H76V143.25V126.45L74.75 125.25L73.55 124H60H46.45L45.25 125.25L44 126.45V143.25V160H36H28V164V168H80H132V122V76H140H148V108V140H152H156V105.25V70.45L154.75 69.25L153.55 68H140H126.45L125.25 69.25ZM108 132V160H100H92V132V104H100H108V132ZM68 146V160H60H52V146V132H60H68V146Z" />
  <path
    d="M8.1 142.35L8.25 192.75L9.85 196.1C12.05 200.75 14.85 203.65 19.4 205.9L23.2 207.75L58.9 207.9C92.35 208 94.55 208.1 94.3 208.9C93.4 211.95 87.65 231.1 86.45 235.1L84.95 240H80.5H76V244V248H120H164V244V240H159.5H155.05L153.55 235.1C152.75 232.45 151.6 228.6 151 226.6C150.4 224.65 149.8 223 149.65 223C148.3 223 142.5 225.2 142.5 225.7C142.5 226.05 143.4 229.35 144.5 233C145.6 236.65 146.5 239.75 146.5 239.85C146.5 239.95 134.6 240 120 240C105.45 240 93.5 239.85 93.5 239.6C93.5 239.4 95.65 232.3 98.2 223.75L102.9 208.25L117.45 208.1L132 208V204V200H79.2C39.2 200 25.85 199.85 24.3 199.4C21.55 198.6 17.4 194.45 16.6 191.7C16.25 190.55 16 188.35 16 186.8V184H72H128V180V176H72H16V134V92H12H8L8.1 142.35Z" />
  <path
    d="M177.25 136.35C166.8 138 158.1 142.4 150.6 149.7C144 156.1 139.8 163.2 137.45 172C135.9 177.65 135.8 189.9 137.2 195C139.9 204.7 144.25 212.25 150.85 218.55C165.65 232.65 187 235.95 205.3 226.95L208.55 225.35L219.4 236.1C230.8 247.35 231.7 248 236.1 248C242.3 248 248 242.25 248 236C248 231.7 247.35 230.75 236.1 219.4L225.35 208.55L226.95 205.3C235.8 187.25 232.7 165.8 219.05 151.4C209.55 141.3 199.2 136.65 185.5 136.25C181.8 136.15 178.1 136.2 177.25 136.35ZM193.5 145.15C198.5 146.55 201.9 148 205.65 150.5C227 164.4 230.15 194.25 212.2 212.2C194.25 230.15 164.4 227 150.5 205.65C146.05 198.85 144.25 192.7 144.25 184C144.25 175.3 146.05 169.15 150.45 162.4C156.4 153.3 165.65 147 176.5 144.7C180.5 143.85 189.6 144.1 193.5 145.15ZM240 235.9C240 238.1 238.1 240 235.95 240C234.5 240 233.2 238.9 224.65 230.4L215 220.8L217.85 217.9L220.75 214.95L230.35 224.65C238.9 233.2 240 234.5 240 235.9Z" />
  <path
    d="M177 152.75C168.2 154.65 159.45 161.5 155.55 169.6C150.85 179.3 150.85 188.7 155.55 198.4C160.6 208.9 172.1 216 184 216C195.85 216 207.05 209.05 212.4 198.5C217.35 188.6 217.1 177.35 211.65 168C204.7 156.1 190.6 149.85 177 152.75ZM189.75 160.75C201.65 163.85 209.4 175.3 207.65 187.3C206.15 197.9 197.85 206.15 187.2 207.65C170.75 210.05 156.6 194.35 160.75 178.35C164.1 165.45 177.2 157.5 189.75 160.75Z" />
  <path
    d="M180.2 168.45C177.85 169.05 173.55 171.55 172.2 173.15C170.3 175.4 168.65 179 168.25 181.65L167.9 184H171.85H175.8L176.4 181.8C177.1 179.2 179.7 176.7 182.25 176.2L184 175.9V171.95C184 167.6 184 167.55 180.2 168.45Z" />
</svg>