<svg width="256" height="256" viewBox="0 0 256 256" fill="currentColor"
  xmlns="http://www.w3.org/2000/svg">
  <path
    d="M32.45 0.950094C25.25 3.25009 20.5 9.00009 19.5 16.6501C18.9 21.2001 18.9 45.6001 19.45 50.2001C20 54.3001 22.2 59.0501 24.7 61.4501L26.45 63.1501L24.45 65.3501C21.8 68.2501 20 72.2501 19.45 76.4001C18.9 80.8001 18.9 105.3 19.45 109.7C20 113.8 22.2 118.55 24.7 120.95L26.45 122.65L24.45 124.85C21.8 127.75 20 131.75 19.45 135.9C18.9 140.4 18.9 164.85 19.5 169.35C20.25 175.25 23.15 179.9 27.9 182.9C32.85 186.05 31.75 186 74.85 186H114V198.75V211.45L112.55 212.2C110.6 213.25 106.85 216.95 105.3 219.45L104 221.5H64.85C20.95 221.5 24 221.25 20.75 225.2C19.3 227.05 19.25 227.2 19.25 232.75C19.25 238.3 19.3 238.45 20.75 240.3C24 244.25 20.9 244 65.35 244C104.35 244 104.95 244 105.25 245C105.85 246.85 111.3 251.75 114.55 253.35C121.75 256.85 128.75 256.85 135.95 253.35C139.2 251.75 144.65 246.85 145.25 245C145.55 244 146.15 244 187.9 244C235.45 244 232 244.25 235.25 240.3C236.7 238.45 236.75 238.3 236.75 232.75C236.75 227.2 236.7 227.05 235.25 225.2C232.3 221.6 231.85 221.5 217.35 221.5H204.45L203.25 222.75C201.75 224.2 201.65 225.95 202.95 227.55C203.9 228.75 204 228.75 216.6 229L229.25 229.25V232.75V236.25L188.8 236.4C152.05 236.5 148.4 236.45 148.7 235.7C148.85 235.3 149 233.6 149 231.95V229H169.25H189.55L190.75 227.75C192.35 226.2 192.35 224.3 190.75 222.75L189.55 221.5H168.05H146.5L145.2 219.45C143.65 216.95 139.9 213.25 137.95 212.2L136.5 211.45V198.75V186L179.4 185.9L222.25 185.75L225 184.65C231.55 182 235.7 176.15 236.6 168.25C237.45 161.05 236.25 157.5 233 157.5C232 157.5 229.75 158.85 229.45 159.65C229.45 159.7 229.25 162.4 229.05 165.6C228.75 171 228.6 171.65 227.2 173.6C226.3 174.9 224.7 176.25 223.05 177.1L220.4 178.5H128H35.6L32.95 177.1C31.25 176.25 29.7 174.9 28.75 173.55L27.25 171.4V152.5V133.6L28.75 131.45C29.7 130.1 31.25 128.75 32.95 127.9L35.6 126.5H79.1H122.55L123.75 125.25C125.35 123.7 125.35 121.8 123.75 120.25L122.55 119H79.1H35.6L32.95 117.6C31.25 116.75 29.7 115.4 28.75 114.05L27.25 111.9V93.0001V74.1001L28.75 71.9501C29.7 70.6001 31.25 69.2501 32.95 68.4001L35.6 67.0001H128H220.4L223.05 68.4001C224.75 69.2501 226.3 70.6001 227.25 71.9501L228.75 74.1001V93.0001V111.9L227.25 114.05C226.3 115.4 224.75 116.75 223.05 117.6L220.4 119H178.9H137.45L136.25 120.25C134.65 121.8 134.65 123.7 136.25 125.25L137.45 126.5H178.9H220.4L223.05 127.9C224.7 128.75 226.3 130.1 227.2 131.4C228.6 133.35 228.75 134 229.05 139.4C229.25 142.6 229.45 145.3 229.45 145.35C229.75 146.15 232 147.5 233 147.5C236.25 147.5 237.45 143.95 236.6 136.75C236.05 131.75 234.05 127.2 231.3 124.55L229.55 122.85L231.55 120.65C234.2 117.75 236 113.75 236.55 109.6C236.75 107.75 236.95 100.3 236.95 93.0001C236.95 85.7001 236.75 78.2501 236.55 76.4001C236 72.2501 234.2 68.2501 231.55 65.3501L229.55 63.1501L231.3 61.4501C233.95 58.9001 236 54.3001 236.6 49.7001C236.85 47.5001 237 39.0501 236.9 30.5001C236.7 16.3501 236.6 15.0501 235.6 12.5501C233.25 6.60009 229.25 2.75009 223.65 1.00009C220.45 9.38419e-05 219.25 9.38419e-05 146.4 9.38419e-05H72.45L71.25 1.25009C70.55 1.90009 70 3.05009 70 3.75009C70 4.45009 70.55 5.60009 71.25 6.25009L72.45 7.50009H146.4H220.4L223.05 8.90009C224.75 9.75009 226.3 11.1001 227.25 12.4501L228.75 14.6001V33.5001V52.4001L227.25 54.5501C226.3 55.9001 224.75 57.2501 223.05 58.1001L220.4 59.5001H128H35.6L32.95 58.1001C31.25 57.2501 29.7 55.9001 28.75 54.5501L27.25 52.4001V33.5001V14.6001L28.75 12.4501C29.7 11.1001 31.25 9.75009 32.95 8.90009L35.6 7.50009H46.35C57.05 7.50009 57.05 7.50009 58.25 6.25009C58.95 5.60009 59.5 4.45009 59.5 3.75009C59.5 3.05009 58.95 1.90009 58.25 1.25009L57.05 9.38419e-05L46.15 0.0500938C37.1 0.0500938 34.75 0.200094 32.45 0.950094ZM129 197.35V208.75H125.25H121.5V197.35V186H125.25H129V197.35ZM131.85 217.5C135.15 218.9 139 222.9 140.3 226.25C141.55 229.6 141.55 234.9 140.3 238.25C139 241.55 135.15 245.6 131.85 247.05C128.2 248.7 122.3 248.7 118.65 247.05C115.35 245.6 111.5 241.55 110.2 238.25C108.95 234.9 108.95 229.6 110.2 226.25C111.25 223.55 114.85 219.35 117.25 218.1C121.8 215.75 127.25 215.5 131.85 217.5ZM101.5 231.95C101.5 233.6 101.65 235.3 101.8 235.7C102.1 236.45 98.7 236.5 64.45 236.4L26.75 236.25L26.6 233.3C26.5 231.7 26.55 230.05 26.7 229.7C26.9 229.1 33.25 229 64.25 229H101.5V231.95Z" />
  <path
    d="M155.9 17.9002C150.8 19.7502 146.7 24.0002 145.45 28.7502C145.15 29.8502 145 32.4502 145.1 34.5002C145.45 40.6502 148.6 45.2502 154.45 48.0502C157.6 49.6002 164.2 49.6502 167.5 48.1502C170.7 46.6502 173.55 44.0502 175.25 40.9502C176.65 38.4502 176.75 37.8502 176.75 33.2502C176.75 28.6002 176.65 28.0502 175.2 25.5002C171.3 18.6002 162.95 15.3502 155.9 17.9002ZM165.9 26.1502C168.55 27.9002 169.65 30.3502 169.4 33.9502C169.15 37.5002 167.8 39.5002 164.7 41.0002C160.55 43.0502 155.2 41.2502 153.25 37.2502C152.1 34.7002 152.4 30.2502 153.9 28.1502C156.5 24.4502 162 23.5502 165.9 26.1502Z" />
  <path
    d="M198.4 17.9002C193.3 19.7502 189.2 24.0002 187.95 28.7502C187.65 29.8502 187.5 32.4502 187.6 34.5002C187.95 40.6502 191.1 45.2502 196.95 48.0502C200.1 49.6002 206.7 49.6502 210 48.1502C213.2 46.6502 216.05 44.0502 217.75 40.9502C219.15 38.4502 219.25 37.8502 219.25 33.2502C219.25 28.6002 219.15 28.0502 217.7 25.5002C213.8 18.6002 205.45 15.3502 198.4 17.9002ZM208.4 26.1502C211.05 27.9002 212.15 30.3502 211.9 33.9502C211.65 37.5002 210.3 39.5002 207.2 41.0002C203.05 43.0502 197.7 41.2502 195.75 37.2502C194.6 34.7002 194.9 30.2502 196.4 28.1502C199 24.4502 204.5 23.5502 208.4 26.1502Z" />
  <path
    d="M38.1 22C37.4 22.7 37 23.65 37 24.75C37 25.85 37.4 26.8 38.1 27.5C39.15 28.45 39.8 28.5 51 28.5C62.2 28.5 62.85 28.45 63.9 27.5C65.4 26.1 65.4 23.4 63.9 22C62.85 21.05 62.2 21 51 21C39.8 21 39.15 21.05 38.1 22Z" />
  <path
    d="M76.6 22C75.9 22.7 75.5 23.65 75.5 24.75C75.5 25.85 75.9 26.8 76.6 27.5C77.65 28.45 78.3 28.5 90 28.5C101.7 28.5 102.35 28.45 103.4 27.5C104.1 26.8 104.5 25.85 104.5 24.75C104.5 23.65 104.1 22.7 103.4 22C102.35 21.05 101.7 21 90 21C78.3 21 77.65 21.05 76.6 22Z" />
  <path
    d="M38.1 39.5C37.4 40.2 37 41.15 37 42.25C37 43.35 37.4 44.3 38.1 45C39.15 45.95 39.8 46 51 46C62.2 46 62.85 45.95 63.9 45C65.4 43.6 65.4 40.9 63.9 39.5C62.85 38.55 62.2 38.5 51 38.5C39.8 38.5 39.15 38.55 38.1 39.5Z" />
  <path
    d="M76.6 39.5C75.9 40.2 75.5 41.15 75.5 42.25C75.5 43.35 75.9 44.3 76.6 45C77.65 45.95 78.3 46 90 46C101.7 46 102.35 45.95 103.4 45C104.1 44.3 104.5 43.35 104.5 42.25C104.5 41.15 104.1 40.2 103.4 39.5C102.35 38.55 101.7 38.5 90 38.5C78.3 38.5 77.65 38.55 76.6 39.5Z" />
  <path
    d="M155.9 77.4002C150.8 79.2502 146.7 83.5002 145.45 88.2502C145.15 89.3502 145 91.9502 145.1 94.0002C145.45 100.15 148.6 104.75 154.45 107.55C157.6 109.1 164.2 109.15 167.5 107.65C170.7 106.15 173.55 103.55 175.25 100.45C176.65 97.9502 176.75 97.3502 176.75 92.7502C176.75 88.1002 176.65 87.5502 175.2 85.0002C171.3 78.1002 162.95 74.8502 155.9 77.4002ZM165.9 85.6502C168.55 87.4002 169.65 89.8502 169.4 93.4502C169.15 97.0002 167.8 99.0002 164.7 100.5C160.55 102.55 155.2 100.75 153.25 96.7502C152.1 94.2002 152.4 89.7502 153.9 87.6502C156.5 83.9502 162 83.0502 165.9 85.6502Z" />
  <path
    d="M198.4 77.4002C193.3 79.2502 189.2 83.5002 187.95 88.2502C187.65 89.3502 187.5 91.9502 187.6 94.0002C187.95 100.15 191.1 104.75 196.95 107.55C200.1 109.1 206.7 109.15 210 107.65C213.2 106.15 216.05 103.55 217.75 100.45C219.15 97.9502 219.25 97.3502 219.25 92.7502C219.25 88.1002 219.15 87.5502 217.7 85.0002C213.8 78.1002 205.45 74.8502 198.4 77.4002ZM208.4 85.6502C211.05 87.4002 212.15 89.8502 211.9 93.4502C211.65 97.0002 210.3 99.0002 207.2 100.5C203.05 102.55 197.7 100.75 195.75 96.7502C194.6 94.2002 194.9 89.7502 196.4 87.6502C199 83.9502 204.5 83.0502 208.4 85.6502Z" />
  <path
    d="M38.1 81.5C37.4 82.2 37 83.15 37 84.25C37 85.35 37.4 86.3 38.1 87C39.15 87.95 39.8 88 51 88C62.2 88 62.85 87.95 63.9 87C65.4 85.6 65.4 82.9 63.9 81.5C62.85 80.55 62.2 80.5 51 80.5C39.8 80.5 39.15 80.55 38.1 81.5Z" />
  <path
    d="M76.6 81.5C75.9 82.2 75.5 83.15 75.5 84.25C75.5 85.35 75.9 86.3 76.6 87C77.65 87.95 78.3 88 90 88C101.7 88 102.35 87.95 103.4 87C104.1 86.3 104.5 85.35 104.5 84.25C104.5 83.15 104.1 82.2 103.4 81.5C102.35 80.55 101.7 80.5 90 80.5C78.3 80.5 77.65 80.55 76.6 81.5Z" />
  <path
    d="M38.1 99C37.4 99.7 37 100.65 37 101.75C37 102.85 37.4 103.8 38.1 104.5C39.15 105.45 39.8 105.5 51 105.5C62.2 105.5 62.85 105.45 63.9 104.5C65.4 103.1 65.4 100.4 63.9 99C62.85 98.05 62.2 98 51 98C39.8 98 39.15 98.05 38.1 99Z" />
  <path
    d="M76.6 99C75.9 99.7 75.5 100.65 75.5 101.75C75.5 102.85 75.9 103.8 76.6 104.5C77.65 105.45 78.3 105.5 90 105.5C101.7 105.5 102.35 105.45 103.4 104.5C104.1 103.8 104.5 102.85 104.5 101.75C104.5 100.65 104.1 99.7 103.4 99C102.35 98.05 101.7 98 90 98C78.3 98 77.65 98.05 76.6 99Z" />
  <path
    d="M155.9 136.9C150.8 138.75 146.7 143 145.45 147.75C145.15 148.85 145 151.45 145.1 153.5C145.45 159.65 148.6 164.25 154.45 167.05C157.6 168.6 164.2 168.65 167.5 167.15C170.7 165.65 173.55 163.05 175.25 159.95C176.65 157.45 176.75 156.85 176.75 152.25C176.75 147.6 176.65 147.05 175.2 144.5C171.3 137.6 162.95 134.35 155.9 136.9ZM165.9 145.15C168.55 146.9 169.65 149.35 169.4 152.95C169.15 156.5 167.8 158.5 164.7 160C160.55 162.05 155.2 160.25 153.25 156.25C152.1 153.7 152.4 149.25 153.9 147.15C156.5 143.45 162 142.55 165.9 145.15Z" />
  <path
    d="M198.4 136.9C193.3 138.75 189.2 143 187.95 147.75C187.65 148.85 187.5 151.45 187.6 153.5C187.95 159.65 191.1 164.25 196.95 167.05C200.1 168.6 206.7 168.65 210 167.15C213.2 165.65 216.05 163.05 217.75 159.95C219.15 157.45 219.25 156.85 219.25 152.25C219.25 147.6 219.15 147.05 217.7 144.5C213.8 137.6 205.45 134.35 198.4 136.9ZM208.4 145.15C211.05 146.9 212.15 149.35 211.9 152.95C211.65 156.5 210.3 158.5 207.2 160C203.05 162.05 197.7 160.25 195.75 156.25C194.6 153.7 194.9 149.25 196.4 147.15C199 143.45 204.5 142.55 208.4 145.15Z" />
  <path
    d="M38.1 141C37.4 141.7 37 142.65 37 143.75C37 144.85 37.4 145.8 38.1 146.5C39.15 147.45 39.8 147.5 51 147.5C62.2 147.5 62.85 147.45 63.9 146.5C65.4 145.1 65.4 142.4 63.9 141C62.85 140.05 62.2 140 51 140C39.8 140 39.15 140.05 38.1 141Z" />
  <path
    d="M76.6 141C75.9 141.7 75.5 142.65 75.5 143.75C75.5 144.85 75.9 145.8 76.6 146.5C77.65 147.45 78.3 147.5 90 147.5C101.7 147.5 102.35 147.45 103.4 146.5C104.1 145.8 104.5 144.85 104.5 143.75C104.5 142.65 104.1 141.7 103.4 141C102.35 140.05 101.7 140 90 140C78.3 140 77.65 140.05 76.6 141Z" />
  <path
    d="M38.1 158.5C37.4 159.2 37 160.15 37 161.25C37 162.35 37.4 163.3 38.1 164C39.15 164.95 39.8 165 51 165C62.2 165 62.85 164.95 63.9 164C65.4 162.6 65.4 159.9 63.9 158.5C62.85 157.55 62.2 157.5 51 157.5C39.8 157.5 39.15 157.55 38.1 158.5Z" />
  <path
    d="M76.6 158.5C75.9 159.2 75.5 160.15 75.5 161.25C75.5 162.35 75.9 163.3 76.6 164C77.65 164.95 78.3 165 90 165C101.7 165 102.35 164.95 103.4 164C104.1 163.3 104.5 162.35 104.5 161.25C104.5 160.15 104.1 159.2 103.4 158.5C102.35 157.55 101.7 157.5 90 157.5C78.3 157.5 77.65 157.55 76.6 158.5Z" />
</svg>