<svg width="256" height="256" viewBox="0 0 256 256" fill="currentColor"
  xmlns="http://www.w3.org/2000/svg">
  <path
    d="M158.55 0.899996C155.9 2.2 155 4.45 155 9.6V13.9L153.15 14.5C152.1 14.85 149.75 15.8 147.85 16.65L144.5 18.15L141.1 14.9C135.3 9.3 133.6 9.6 125.6 17.7L120 23.35V25.95C120 28.55 120.1 28.7 123.3 32.05L126.65 35.45L69.95 35.6L13.25 35.75L10.6 36.85C6.55 38.5 3.8 41.05 1.9 44.9L0.25 48.25V126.5V204.75L1.35 207.1C2.85 210.4 6.15 213.75 9.45 215.35L12.25 216.75L32.4 216.9L52.5 217.05L53.75 215.8C55.35 214.2 55.35 212.3 53.75 210.75L52.55 209.5H33.75C18 209.5 14.65 209.4 13.15 208.75C8.3 206.7 7.55 204.65 7.5 193.6V185H128H248.5V193.5C248.5 204.4 247.75 206.5 243.25 208.55C241.35 209.45 237.6 209.5 154.7 209.5H68.15L66.8 210.55C65.1 211.9 65 214.4 66.65 215.9C67.8 217 68.05 217 83.95 217H100.05L99.8 220.9C98.7 235.85 98.35 239.65 97.7 243.45C97.35 245.8 97 247.9 97 248.1C97 248.35 93.75 248.5 89.75 248.5C82.6 248.5 82.45 248.5 81.15 249.8C80.15 250.8 79.95 251.35 80.2 252.65C80.35 253.55 81 254.65 81.55 255.1C82.55 255.95 85.5 256 128 256C170.5 256 173.45 255.95 174.45 255.15C175 254.65 175.65 253.55 175.8 252.65C176.05 251.35 175.85 250.8 174.85 249.8C173.55 248.5 173.4 248.5 166.3 248.5H159.1L158.55 245.35C157.6 239.65 156 222.3 156 217.4C156 217.2 175.75 216.95 199.9 216.9L243.75 216.75L246.55 215.35C249.85 213.75 253.15 210.4 254.65 207.1L255.75 204.75V126.5V48.25L254.1 44.9C252.2 41.05 249.45 38.5 245.4 36.85C242.9 35.85 241.75 35.75 225.6 35.6L208.4 35.4L211.7 32C214.9 28.7 215 28.55 215 25.95V23.35L209.4 17.7C201.4 9.6 199.7 9.3 193.9 14.9L190.5 18.15L187.15 16.65C185.25 15.8 182.9 14.85 181.9 14.5L180 13.9V9.6C180 4.45 179.1 2.2 176.45 0.899996C175.05 0.149996 173.4 -3.8147e-06 167.5 -3.8147e-06C161.6 -3.8147e-06 159.95 0.149996 158.55 0.899996ZM172.5 12.15C172.5 18.4 173.4 19.8 178.5 21.3C180 21.75 183.05 23 185.25 24.1C188.6 25.8 189.6 26.05 191.4 25.85C193.3 25.65 194.05 25.15 196.95 22.3L200.3 19L203.75 22.5L207.2 25.95L203.85 29.45C199.6 33.85 199.4 35.3 202.2 40.95C203.1 42.75 204.35 45.75 204.95 47.55C205.6 49.6 206.6 51.4 207.55 52.3C209 53.65 209.35 53.75 214.05 53.9L219 54.1V58.8V63.5H215.35C208.65 63.5 206.65 64.7 204.95 69.95C204.35 71.75 203.1 74.75 202.2 76.55C199.4 82.2 199.6 83.65 203.85 88.05L207.2 91.55L203.75 95L200.3 98.5L197.25 95.55C192.4 90.8 191.3 90.6 186.05 93.2C184.2 94.15 181.1 95.45 179.2 96.05C176.95 96.75 175.15 97.75 174.15 98.8C172.5 100.4 172.5 100.45 172.5 105.2V110H167.5H162.5V105.2C162.5 100.45 162.5 100.4 160.9 98.8C159.85 97.75 158.05 96.75 155.8 96.05C153.9 95.45 150.8 94.15 148.95 93.2C143.7 90.6 142.6 90.8 137.75 95.55L134.7 98.5L131.25 95L127.8 91.55L131.15 88.05C135.4 83.65 135.6 82.2 132.75 76.5C131.85 74.7 130.65 71.75 130.05 69.95C128.35 64.7 126.35 63.5 119.65 63.5H116V58.8V54.1L120.95 53.9C125.65 53.75 126 53.65 127.45 52.3C128.4 51.4 129.4 49.6 130.05 47.55C130.65 45.75 131.85 42.8 132.75 41C135.6 35.3 135.4 33.85 131.15 29.45L127.8 25.95L131.25 22.5L134.7 19L138.05 22.3C142.5 26.75 144.05 26.95 149.75 24.1C151.95 23 155 21.75 156.55 21.3C158.6 20.75 159.85 20 160.95 18.75C162.45 17 162.5 16.8 162.5 12.25V7.5H167.5H172.5V12.15ZM123.2 44.35C122.7 46.5 122.7 46.5 117.95 46.5C111.95 46.5 109.45 47.9 108.9 51.55L108.75 52.75L65.25 53C32.5 53.2 21.5 53.4 20.7 53.85C18.9 54.9 16.6 57.9 16.05 59.85C15.7 61.15 15.5 80.8 15.5 119.6V177.5H11.5H7.5L7.6 113.35L7.75 49.2L9 47.4C10.35 45.4 12.35 44.05 14.7 43.45C15.55 43.25 40.4 43.1 69.9 43.05L123.5 43L123.2 44.35ZM243.75 44.4C244.85 45.05 246.35 46.35 247 47.35L248.25 49.2L248.4 113.35L248.5 177.5H244.5H240.5V119.6C240.5 80.8 240.3 61.15 239.95 59.85C239.3 57.5 236.8 54.55 234.65 53.7C233.75 53.3 231.55 53 229.75 53C227.05 53 226.4 52.85 226.2 52.1C224.6 47.25 223.45 46.5 217.1 46.5C212.6 46.5 212.45 46.45 212 45.2C211.7 44.5 211.5 43.7 211.5 43.45C211.5 43.1 216.75 43 226.65 43.1C241.35 43.25 241.8 43.3 243.75 44.4ZM108.65 63.75C109.2 69.7 110.85 71 117.8 71H122.35L123.5 74.1C124.1 75.85 125.15 78.3 125.8 79.55L126.95 81.85L124.2 84.55C120.85 87.85 120 89.3 120 92.05C120 94.05 120.25 94.4 125.4 99.6C133.85 108.25 135.1 108.45 141.3 102.4L144.4 99.4L147.6 100.9C149.35 101.7 151.75 102.7 152.9 103.05L155 103.65V107.85C155 112.85 155.8 115.1 158.1 116.5C159.55 117.4 160.6 117.5 167.5 117.5C174.4 117.5 175.45 117.4 176.9 116.5C179.2 115.1 180 112.85 180 107.85V103.65L182.15 103.05C183.3 102.7 185.65 101.75 187.4 100.9L190.6 99.4L193.95 102.7C199.85 108.35 201.25 108.1 209.15 100.05C214.75 94.4 215 94.05 215 92.05C215 89.3 214.2 87.85 210.8 84.55L208.05 81.85L209.2 79.55C209.85 78.3 210.9 75.85 211.5 74.1L212.65 71H217.2C224.15 71 225.8 69.7 226.35 63.75L226.65 60.5H229.3C231.45 60.5 232.05 60.7 232.5 61.45C232.85 62.15 232.95 80.85 232.9 119.85L232.75 177.25H128H23.25L23.1 119.85C23.05 80.85 23.15 62.15 23.5 61.45C24 60.5 24.95 60.5 66.2 60.5H108.35L108.65 63.75ZM148.7 221.85C149.6 235.15 150.6 245.1 151.3 247.6C151.55 248.45 150.2 248.5 128 248.5H104.4L104.7 247.4C105.5 244.5 107.45 223.3 107.5 217.35C107.5 217.15 116.7 217 127.95 217H148.4L148.7 221.85Z" />
  <path
    d="M165 29.7999C161.9 30.1499 158.75 31.0499 157.9 31.8499C156.7 32.9499 156.75 35.7499 158 36.9999C159.05 38.0499 160.15 38.1499 164.5 37.5499C179.95 35.2999 192.65 50.1499 188 65.0999C184.1 77.7499 170 83.8999 158.15 78.1999C148.65 73.6499 143.85 62.4999 147 52.4499C147.55 50.6999 148.45 48.5499 149 47.7499C151.05 44.6999 149.7 40.9999 146.55 40.9999C144.6 40.9999 143.35 42.1999 141.55 45.7999C137.4 54.0999 137.6 65.0499 142.1 72.9499C144.55 77.2999 150.05 82.4999 154.5 84.6999C160.9 87.7999 166.75 88.5999 173.25 87.2499C184.25 84.8999 193.2 76.2499 195.75 65.4499C199.85 48.0499 187.45 31.3499 169.25 29.8499C167.9 29.7499 165.95 29.6999 165 29.7999Z" />
  <path
    d="M164.2 44.05C163.1 44.3 160.95 45.25 159.5 46.15C151.55 50.95 150.15 61.9 156.55 69.2C160.55 73.75 168.35 75.15 174.1 72.35C183.15 67.9 185.35 55.65 178.45 48.5C174.85 44.8 168.9 42.95 164.2 44.05ZM171.5 52.45C176.35 55.9 176.1 62.65 171 65.35C169.8 66 168.25 66.5 167.5 66.5C165.35 66.5 161.95 64.4 160.95 62.5C157.3 55.7 165.35 48.05 171.5 52.45Z" />
  <path
    d="M69.15 77.5001C66.95 78.8001 66.5 79.9001 66.5 83.7501V87.0501L62.9 88.7001L59.25 90.3501L56.7 87.9501C52.1 83.7001 50.45 83.9501 44.4 89.9001C38.25 95.9501 37.9 98.0501 42.25 102.9C43.45 104.25 44.35 105.5 44.2 105.65C44.05 105.8 43.4 107.2 42.75 108.85L41.55 111.75L38 112.05C31.7 112.55 30.3 114.75 30.6 123.6C30.85 129.6 31.5 131.15 34.25 132.3C35.2 132.7 37.2 133 38.75 133C40.95 133 41.6 133.2 41.85 133.85C42 134.35 42.65 135.9 43.25 137.25L44.35 139.8L41.95 142.4C37.9 146.8 38.3 149.05 44.1 154.85C46.45 157.2 48.95 159.25 49.85 159.55C52.2 160.3 54.35 159.45 57 156.75L59.15 154.55L60.95 155.45C61.95 155.95 63.6 156.65 64.65 156.95L66.5 157.6V161.2C66.5 167.45 68.45 168.7 77.9 168.4C83.45 168.25 83.5 168.25 85.1 166.65C86.6 165.15 86.75 164.7 86.9 161.3L87.1 157.6L90.55 156.25L94 154.9L96.35 157C101.3 161.4 102.75 161.1 109.25 154.5L114.15 149.5L113.85 147.2C113.65 145.3 113.2 144.5 111.25 142.5L108.9 140.1L110.25 136.6L111.65 133.1L115.35 132.9C118.7 132.65 119.25 132.5 120.65 131.05L122.25 129.5L122.4 123.1C122.55 117.85 122.45 116.5 121.75 115.15C120.6 113.05 118.25 112 114.65 112H111.75L110.3 108.45L108.9 104.9L110.9 102.85C115.65 97.8501 115.15 95.4501 107.85 88.6501C102.95 84.1001 100.7 83.9501 96.3 88.0001L94.05 90.0501L90.55 88.7001L87 87.3001V84.3501C87 78.0001 85 76.5001 76.4 76.5001C71.7 76.5001 70.5 76.6501 69.15 77.5001ZM79.5 87.0001C79.5 88.7501 79.85 90.7001 80.25 91.5001C81 92.9501 83.25 94.5001 84.6 94.5001C85 94.5001 86.9 95.3001 88.9 96.2501C94.45 98.9001 96 98.8001 99.35 95.7501L101.85 93.5501L103.75 95.5001L105.65 97.4501L103.35 99.9501C101.35 102.1 101 102.75 101 104.5C101 105.75 101.55 107.65 102.45 109.4C103.2 110.95 104.25 113.45 104.75 114.9C105.9 118.4 107.55 119.5 111.9 119.5H115V122.5V125.5H111.7C107.45 125.5 105.9 126.5 104.7 130.15C104.25 131.55 103.2 134.05 102.45 135.6C101.55 137.35 101 139.25 101 140.5C101 142.25 101.35 142.9 103.35 145.05L105.65 147.55L103.75 149.5L101.85 151.45L99.4 149.25C96 146.2 94.85 146.05 90.15 148.15C88 149.1 85.15 150.25 83.85 150.75C80.6 151.9 79.5 153.7 79.5 157.85V161H76.75H74V158.85C74 154.15 72.25 151.4 68.8 150.45C67.65 150.15 65.1 149.1 63.1 148.15C58.65 146 57.3 146.2 53.9 149.4L51.45 151.65L49.5 149.75L47.55 147.85L49.75 145.4C52.85 141.95 53 140.5 50.85 135.65C49.9 133.5 48.85 130.95 48.55 129.95C47.55 126.85 45.95 125.8 41.85 125.5L38.25 125.25V122.5V119.75L41.85 119.5C46.1 119.2 47.65 118.1 48.7 114.55C49.1 113.3 50.1 110.75 51 108.85C53.05 104.55 52.8 102.85 49.75 99.5501L47.55 97.2001L49.5 95.2501L51.5 93.3001L53.65 95.4001C57.05 98.7001 58.2 98.9001 62.85 96.8501C65 95.9001 67.65 94.8501 68.75 94.5001C72.45 93.3501 74 90.9001 74 86.1001V84.0001H76.75H79.5V87.0001Z" />
  <path
    d="M71.85 103.3C66.25 104.65 61.15 108.85 58.65 114.25C57.4 116.95 57.25 117.8 57.25 122.5C57.25 127.15 57.4 128.1 58.6 130.6C61.35 136.5 67.1 140.9 73.55 142C82.15 143.5 90.75 138.85 94.65 130.6C96.1 127.55 96.25 126.8 96.25 122.5C96.25 118.2 96.1 117.45 94.7 114.5C91.75 108.4 86.8 104.35 80.6 103.05C77.25 102.35 75.5 102.4 71.85 103.3ZM81.85 111.35C87.25 113.9 90.25 120.65 88.4 126.05C86.65 131.3 82 134.7 76.75 134.65C69.6 134.65 64.5 129.6 64.5 122.6C64.5 118.95 65.25 116.9 67.5 114.3C71.1 110.2 76.95 109 81.85 111.35Z" />
  <path
    d="M116.95 194.4C115.3 195.75 115.45 198.3 117.2 199.85C118.5 200.95 118.8 201 128 201C137.2 201 137.5 200.95 138.8 199.85C140.55 198.3 140.7 195.75 139.05 194.4C138 193.6 136.85 193.5 128 193.5C119.15 193.5 118 193.6 116.95 194.4Z" />
</svg>