<svg width="256" height="256" viewBox="0 0 256 256" fill="currentColor"
  xmlns="http://www.w3.org/2000/svg">
  <path
    d="M22.5 15.7999C11.7 18.0999 2.45 27.5499 0.55 38.1999C0.15 40.2499 0 68.5999 0 128.2C0 200.95 0.15 215.8 0.7 218.55C2.5 226.85 8.45 234.4 16.1 237.95C18.4 239.05 21.6 240.15 23.2 240.45C27.4 241.2 228.6 241.2 232.8 240.45C243.6 238.5 253 229.35 255.3 218.55C255.85 215.8 256 200.95 256 128.2C256 68.5999 255.85 40.2499 255.45 38.1999C254 30.1999 247.8 21.8999 240.45 18.2999C233.3 14.7999 240.75 14.9999 127.75 15.0499C42.25 15.0499 25.2 15.1999 22.5 15.7999ZM231 23.9999C237.5 25.2499 242.8 29.3499 245.65 35.3999L247.25 38.7499L247.4 56.5999L247.55 74.4999H128H8.45L8.6 56.5999L8.75 38.7499L10.35 35.3999C13.1 29.5499 18.5 25.2499 24.6 24.0499C27.75 23.3999 227.75 23.3999 231 23.9999ZM247.5 148.9C247.5 221.65 247.65 217.95 244.35 223.15C242.15 226.55 239.55 228.8 235.5 230.7L232.25 232.25H128H23.75L20.5 230.7C16.45 228.8 13.85 226.55 11.65 223.15C8.35 217.95 8.5 221.65 8.5 148.9V82.9999H128H247.5V148.9Z" />
  <path
    d="M28.55 36.05C20.15 37.65 15.5 46.95 19.2 54.75C23.15 63.1 34.2 64.9 40.65 58.25C42.75 56.1 44.5 51.85 44.5 49C44.5 45.75 42.75 41.85 40.2 39.5C36.75 36.3 33 35.2 28.55 36.05ZM34.65 46.05C36.1 47.6 36.35 49.2 35.45 51.2C34.7 52.85 31.9 54.15 30.05 53.75C25.8 52.8 25.05 46.85 28.95 44.9C31.15 43.8 32.85 44.15 34.65 46.05Z" />
  <path
    d="M67 37.05C62.05 39.25 59 43.95 59 49.25C59.05 61.05 73.2 66.85 81.55 58.5C89.9 50.15 84.05 36 72.25 36C70.3 36 68.45 36.4 67 37.05ZM75.7 46.05C77.5 48.2 77.45 50.6 75.55 52.55C74.45 53.6 73.6 54 72.25 54C68.1 54 65.9 48.75 68.8 45.8C70.8 43.85 73.95 43.95 75.7 46.05Z" />
  <path
    d="M108.55 36.85C107.25 37.3 105.3 38.65 104 39.95C95.65 48.3 101.45 62.45 113.25 62.5C120.65 62.5 126.5 56.65 126.5 49.25C126.5 40 117.35 33.75 108.55 36.85ZM116.55 45.95C118.5 47.95 118.6 50.8 116.7 52.7C113.75 55.6 108.5 53.4 108.5 49.25C108.5 46.7 110.7 44.5 113.25 44.5C114.6 44.5 115.45 44.9 116.55 45.95Z" />
  <path
    d="M132.75 108.6C131.55 109.7 130.9 112.4 122.7 151.35C114.75 189.1 114 193.1 114.6 194.35C116 197.25 119.7 197.6 121.55 194.95C122.15 194.2 125.4 179.55 130.95 153.2C135.65 130.9 139.5 112.3 139.5 111.85C139.5 110.4 138.4 108.6 137.15 108.05C135.35 107.25 134.2 107.4 132.75 108.6Z" />
  <path
    d="M98.5 125.35C95.75 127.3 70.45 149.15 70 150C69.05 151.75 69.45 153.4 71.15 155.1C73.85 157.8 98 178.2 99.35 178.9C100.85 179.7 103.75 178.9 104.5 177.5C105.4 175.8 105.05 173.6 103.65 172.05C102.85 171.25 97.4 166.5 91.5 161.5C85.6 156.45 80.7 152.2 80.6 152C80.55 151.8 85.55 147.3 91.75 142.05C97.95 136.75 103.5 131.95 104 131.35C105.4 129.85 105.3 127.25 103.75 125.75C102.3 124.3 100.25 124.15 98.5 125.35Z" />
  <path
    d="M152.25 125.75C150.7 127.25 150.6 129.85 152 131.35C152.5 131.95 158.05 136.75 164.25 142.05C170.45 147.3 175.45 151.8 175.4 152C175.3 152.2 170.4 156.45 164.5 161.5C158.6 166.5 153.15 171.25 152.4 172.05C150.95 173.6 150.6 175.8 151.5 177.5C152.25 178.9 155.15 179.7 156.65 178.9C158 178.2 182.15 157.8 184.85 155.1C186.55 153.4 186.95 151.75 186 150C185.55 149.15 160.25 127.3 157.5 125.35C155.75 124.15 153.7 124.3 152.25 125.75Z" />
</svg>