<svg width="256" height="256" viewBox="0 0 256 256" fill="currentColor"
  xmlns="http://www.w3.org/2000/svg">
  <path
    d="M45.45 5.80005C42.45 6.70005 38.5 10.25 36.95 13.35L35.75 15.75L35.6 48.85L35.45 81.95L20.6 82.1C6.8 82.25 5.65 82.3 4.05 83.25C3.1 83.8 1.9 84.9 1.3 85.65L0.25 87.05V157.25C0.25 227.35 0.25 227.45 1.3 228.8C1.85 229.55 2.95 230.65 3.7 231.2C5.05 232.25 5.55 232.25 45.55 232.4L86 232.5V236.85C86 239.2 86.3 242.05 86.6 243.2C87.4 245.9 91.1 249.6 93.8 250.4C96.5 251.2 138.8 251.25 141.65 250.45C144.1 249.8 147.4 246.8 148.55 244.25C149.4 242.4 149.5 240.2 149.5 212.9V183.55L172.2 183.4C193.7 183.25 194.95 183.2 195.95 182.3C197.3 181.05 197.4 178 196.1 176.85C195.3 176.15 193.9 176 186.85 176C182.3 176 178.45 175.8 178.3 175.55C178.15 175.3 177 170.65 175.75 165.2C174.5 159.7 173.35 154.85 173.2 154.4C172.95 153.6 175.25 153.55 208.85 153.4C244.15 153.25 244.8 153.25 247.05 152.2C250.2 150.7 252.85 148.25 254.4 145.3L255.75 142.75L255.9 79.9C256 17.3 256 17.05 254.95 14.3C253.6 10.65 250.35 7.40005 246.75 6.05005C244.3 5.10005 242.85 5.00005 234.55 5.00005C225.4 5.00005 225.15 5.05005 224.1 6.15005C222.7 7.65005 222.65 10.15 224 11.5C224.95 12.45 225.65 12.5 234.15 12.5C244.3 12.5 245.5 12.8 247.5 16.1C248.5 17.7 248.5 18.75 248.5 65.6V113.5H184H119.5V100.55C119.5 88 119.45 87.6 118.4 86C117.75 85.1 116.6 83.85 115.85 83.3C114.45 82.25 114.05 82.25 78.7 82.1L43 81.95V50.1C43 14.6 42.85 16.05 46.45 13.65L48.15 12.5H127.25H206.35L207.4 11.35C208.8 9.85005 208.85 7.35005 207.5 6.00005C206.5 5.00005 205.85 5.00005 127.15 5.05005C59.8 5.05005 47.4 5.20005 45.45 5.80005ZM112 112.25V135H109H106V116.75V98.45L104.75 97.25L103.55 96H59.75C16.65 96 16 96 15 97C14 98 14 98.65 14 130.7V163.45L15.1 164.2C16.6 165.25 18.65 165.2 20.05 164.05L21.25 163.1L21.4 133.3L21.55 103.5H60H98.5V119.2V134.9L96.4 135.25C91.7 136 87.7 139.4 86.5 143.55C86.2 144.55 86 156.45 86 173.1V201H53.75H21.5V191.8C21.5 186.6 21.25 182 20.95 181.1C20.35 179.4 18.15 178.2 16.55 178.75C14.05 179.55 14 179.7 14 193.5V206.45L15.3 207.45C16.6 208.5 17 208.5 51.3 208.5H86V216.75V225H46.75H7.5V157.6C7.5 120.5 7.65 90 7.85 89.85C8 89.65 31.55 89.5 60.1 89.5H112V112.25ZM248.5 130.6C248.5 141.5 248.15 142.9 245 144.75C243.25 145.75 242.6 145.75 196.55 145.75H149.85L149.2 143.5C148.35 140.65 146 137.8 143.35 136.35C141.4 135.35 140.45 135.25 130.4 135.1L119.5 134.9V127.95V121H184H248.5V130.6ZM141.05 143.95C141.95 145.05 142 146.5 142 186.3V227.5H117.75H93.5V186.75C93.5 157.9 93.65 145.7 94.05 144.8C94.35 144.15 95.1 143.35 95.7 143.1C96.4 142.75 104.1 142.6 118.4 142.65L140.1 142.75L141.05 143.95ZM165.5 153.8C165.5 154.1 169.95 173.9 170.3 175.15C170.55 175.95 169.9 176 160.15 175.9L149.75 175.75L149.6 164.6L149.5 153.5H157.5C161.9 153.5 165.5 153.65 165.5 153.8ZM142 238.2C142 241.1 141.85 241.55 140.7 242.45C139.4 243.5 138.85 243.5 117.65 243.5H95.95L94.75 242.25C93.7 241.25 93.5 240.55 93.5 238V235H117.75H142V238.2Z" />
  <path
    d="M53.85 213.55C51.5 214.9 51.9 218.95 54.5 220C55.4 220.35 57.75 220.55 60.75 220.4C65.1 220.25 65.7 220.15 66.55 219.05C67.8 217.55 67.75 215.95 66.45 214.3C65.45 213.05 65.25 213 60.1 213C57.15 213 54.35 213.25 53.85 213.55Z" />
  <path
    d="M112.1 147.5C111 148.55 110.6 151.15 111.4 152.3C112.2 153.5 114.15 154 118.15 154C123.35 154 124.7 153.2 124.7 150.25C124.7 147.25 123.35 146.5 117.8 146.5C113.85 146.5 113.05 146.65 112.1 147.5Z" />
</svg>