<svg viewBox="0 0 256 49" fill="currentColor" xmlns="http://www.w3.org/2000/svg">
  <path
    d="M86.1155 36.8319L87.5797 32.0985H96.8661L98.3302 36.8319H105.089L96.5251 9.91545H88.3619L79.2961 36.8319H86.1155ZM95.4019 27.345H89.2043L92.3532 17.497L95.4019 27.345ZM115.619 36.8319V9.15329H109.201V36.8319H115.619ZM128.857 46.4192L128.857 36.0001L128.877 36.0184C129.078 36.2045 129.294 36.3714 129.523 36.519L129.639 36.5912C130.615 37.1796 131.832 37.4737 133.29 37.4737C134.961 37.4737 136.529 37.0592 137.993 36.2302C139.457 35.4012 140.64 34.2045 141.543 32.64C142.446 31.0756 142.897 29.1835 142.897 26.9639C142.897 24.7309 142.452 22.8321 141.563 21.2677C140.674 19.7033 139.521 18.5065 138.103 17.6775C136.686 16.8485 135.188 16.434 133.61 16.434C132.42 16.434 131.297 16.7382 130.241 17.3466C129.48 17.7846 128.825 18.415 128.276 19.2378L128.197 19.359L127.674 17.0758H122.439V46.4192H128.857ZM132.267 31.6171C131.652 31.6171 131.083 31.5034 130.562 31.2761C130.04 31.0488 129.626 30.7346 129.318 30.3335C129.011 29.9323 128.857 29.4643 128.857 28.9295H128.857V25.6802L128.859 25.5424C128.876 24.9502 129.007 24.4258 129.25 23.9692L129.308 23.8651C129.609 23.3503 130.027 22.9525 130.562 22.6717C131.097 22.3909 131.705 22.2505 132.387 22.2505C133.229 22.2505 133.955 22.4444 134.563 22.8321C135.172 23.2199 135.643 23.7681 135.977 24.4768C136.311 25.1855 136.479 26.0145 136.479 26.9639C136.479 28.0871 136.255 28.9896 135.807 29.6716C135.359 30.3535 134.811 30.8483 134.162 31.1558C133.513 31.4633 132.882 31.6171 132.267 31.6171ZM151.822 14.5286C152.999 14.5286 153.928 14.2177 154.61 13.5959C155.292 12.9741 155.633 12.095 155.633 10.9584C155.633 9.84859 155.292 8.96275 154.61 8.30086C153.928 7.63898 152.999 7.30804 151.822 7.30804C150.605 7.30804 149.666 7.63898 149.004 8.30086C148.342 8.96275 148.011 9.84859 148.011 10.9584C148.011 12.095 148.342 12.9741 149.004 13.5959C149.666 14.2177 150.605 14.5286 151.822 14.5286ZM155.031 36.8319V16.9555H148.613V36.8319H155.031ZM168.83 36.8319V28.5083L168.832 28.3041C168.847 26.9551 169.014 25.8519 169.333 24.9947L169.382 24.8679C169.75 23.952 170.241 23.2868 170.856 22.8723C171.471 22.4578 172.147 22.2505 172.882 22.2505C173.604 22.2505 174.219 22.5012 174.727 23.0026C175.235 23.5041 175.489 24.2762 175.489 25.3192V36.8319H181.948V25.3192C181.948 23.5943 181.694 22.0633 181.186 20.7262C180.677 19.389 179.885 18.3394 178.809 17.5772C177.732 16.8151 176.345 16.434 174.647 16.434C173.163 16.434 171.836 16.8485 170.666 17.6775C169.94 18.1921 169.309 18.8895 168.773 19.7698L168.718 19.8623L168.068 17.0758H162.412V36.8319H168.83ZM196.128 37.4737C197.759 37.4737 199.2 37.1796 200.45 36.5912C201.701 36.0029 202.717 35.2073 203.499 34.2045C204.281 33.2016 204.773 32.0851 204.973 30.8549H198.595C198.421 31.3764 198.114 31.7575 197.672 31.9982C197.231 32.2389 196.716 32.3592 196.128 32.3592C195.406 32.3592 194.808 32.1887 194.333 31.8478C193.858 31.5068 193.501 31.0288 193.26 30.4137C193.019 29.7986 192.899 29.0699 192.899 28.2275L192.899 28.2676H204.773C205.089 26.8488 205.151 25.4691 204.958 24.1283L204.923 23.9052C204.689 22.4945 204.194 21.2276 203.439 20.1044C202.683 18.9812 201.691 18.0887 200.46 17.4268C199.23 16.7649 197.786 16.434 196.128 16.434C194.457 16.434 192.892 16.8485 191.435 17.6775C189.977 18.5065 188.801 19.6999 187.905 21.2577C187.009 22.8154 186.561 24.6841 186.561 26.8636C186.561 29.0431 187.012 30.9285 187.915 32.5197C188.817 34.1109 189.997 35.3343 191.455 36.1901C192.912 37.0459 194.47 37.4737 196.128 37.4737ZM199.176 25.0184H192.928L192.928 25.0128C192.977 24.4643 193.086 23.9767 193.257 23.55L193.31 23.4238C193.584 22.8021 193.972 22.3274 194.473 21.9998C194.975 21.6722 195.566 21.5084 196.248 21.5084C196.863 21.5084 197.368 21.6321 197.763 21.8794C198.157 22.1268 198.461 22.4544 198.675 22.8622C198.889 23.2701 199.033 23.7147 199.107 24.196C199.143 24.4367 199.166 24.6757 199.174 24.9131L199.176 25.0184ZM211.793 37.1929C213.063 37.1929 214.112 36.8085 214.941 36.0397C215.771 35.2708 216.185 34.2914 216.185 33.1013C216.185 31.9113 215.771 30.9218 214.941 30.1329C214.112 29.344 213.063 28.9495 211.793 28.9495C210.522 28.9495 209.489 29.344 208.694 30.1329C207.898 30.9218 207.5 31.9113 207.5 33.1013C207.5 34.278 207.898 35.2541 208.694 36.0296C209.489 36.8052 210.522 37.1929 211.793 37.1929ZM224.047 14.5286C225.224 14.5286 226.153 14.2177 226.835 13.5959C227.517 12.9741 227.858 12.095 227.858 10.9584C227.858 9.84859 227.517 8.96275 226.835 8.30086C226.153 7.63898 225.224 7.30804 224.047 7.30804C222.871 7.30804 221.935 7.63898 221.239 8.30086C220.544 8.96275 220.196 9.84859 220.196 10.9584C220.196 12.095 220.544 12.9741 221.239 13.5959C221.935 14.2177 222.871 14.5286 224.047 14.5286ZM220.216 47.1211C222.556 47.1211 224.328 46.4827 225.532 45.2057C226.735 43.9287 227.337 41.7726 227.337 38.7373V16.9956H220.878V38.617C220.878 39.7669 220.674 40.5358 220.267 40.9235C219.859 41.3113 219.24 41.5052 218.411 41.5052C217.77 41.5052 217.074 41.4116 216.325 41.2244C215.577 41.0372 214.915 40.8299 214.34 40.6026V46.1183C215.262 46.3724 216.178 46.603 217.088 46.8103C217.997 47.0175 219.04 47.1211 220.216 47.1211ZM242.339 37.4737C243.997 37.4737 245.482 37.1662 246.792 36.5511C248.102 35.936 249.135 35.1371 249.891 34.1543C250.646 33.1715 251.024 32.1319 251.024 31.0355C251.024 29.832 250.636 28.8292 249.861 28.0269C249.085 27.2246 248.022 26.5561 246.672 26.0212L241.216 23.835C240.374 23.5408 239.953 23.1397 239.953 22.6316C239.953 22.2572 240.153 21.9563 240.554 21.729C240.955 21.5017 241.504 21.388 242.199 21.388C243.041 21.388 243.643 21.5452 244.004 21.8594C244.365 22.1736 244.546 22.5447 244.546 22.9725H250.422C250.409 21.0738 249.694 19.5094 248.276 18.2792C246.859 17.0491 244.833 16.434 242.199 16.434C239.391 16.434 237.178 16.9755 235.56 18.0586C233.942 19.1417 233.133 20.559 233.133 22.3107C233.133 23.5542 233.518 24.6272 234.286 25.5298C235.055 26.4324 236.148 27.1778 237.566 27.7662L242.359 29.6315C242.867 29.832 243.242 30.0326 243.483 30.2332C243.723 30.4337 243.844 30.7012 243.844 31.0355C243.844 31.2895 243.757 31.5268 243.583 31.7475C243.409 31.9681 243.148 32.1453 242.801 32.279C242.453 32.4127 242.012 32.4796 241.477 32.4796C240.594 32.4796 239.896 32.3458 239.381 32.0784C238.866 31.811 238.595 31.3296 238.569 30.6343H232.772C232.759 32.172 233.157 33.4456 233.966 34.4552C234.775 35.4647 235.901 36.2202 237.345 36.7216C238.789 37.223 240.454 37.4737 242.339 37.4737Z"
  />
  <path fill-rule="evenodd" clip-rule="evenodd"
    d="M54.5258 8.13321L69.0661 22.6097L54.5258 37.0862L39.9856 22.6097L54.5258 8.13321Z"
    fill-opacity="0.6" />
  <path fill-rule="evenodd" clip-rule="evenodd"
    d="M18.1753 8.13321L48.319 38.1448H19.2385L3.63501 22.6097L18.1753 8.13321Z" />
</svg>