<svg viewBox="0 0 512 127"
    fill="currentColor"
    xmlns="http://www.w3.org/2000/svg">
    <!-- fill="#563D7C" -->
    <path d="M18.7733 0.0853255C16.0427 0.426659 13.9093 1.10933 11.4347 2.304C7.424 4.352 4.352 7.42401 2.304 11.4347C1.28 13.4827 0.768 14.7627 0.341333 16.896C-3.30607e-07 18.3467 0 20.5653 0 62.976C0 105.387 -3.30607e-07 107.605 0.341333 109.056C0.768 111.189 1.28 112.469 2.304 114.517C4.352 118.528 7.424 121.6 11.4347 123.648C13.4827 124.672 14.7627 125.184 16.896 125.611C18.3467 125.952 20.5653 125.952 62.976 125.952C105.387 125.952 107.605 125.952 109.056 125.611C111.189 125.184 112.469 124.672 114.517 123.648C118.528 121.6 121.6 118.528 123.648 114.517C124.672 112.469 125.184 111.189 125.611 109.056C125.952 107.605 125.952 105.387 125.952 62.976C125.952 20.5653 125.952 18.3467 125.611 16.896C125.184 14.7627 124.672 13.4827 123.648 11.4347C120.747 5.80267 115.712 1.96266 109.312 0.341328C108.032 -5.21342e-06 105.728 0 63.6587 0C39.2533 0 19.1147 0.0853255 18.7733 0.0853255ZM75.52 27.7333C84.0533 29.3547 89.088 33.1947 90.9653 39.5947C91.904 42.8373 91.9893 47.36 91.136 50.432C90.7947 51.7973 89.6853 54.1013 88.9173 55.2107C87.4667 57.2587 84.992 59.3067 82.432 60.5867C81.8347 60.928 81.3227 61.184 81.3227 61.2693C81.3227 61.3547 81.7493 61.5253 82.2613 61.6107C82.7733 61.696 83.7973 62.0373 84.5653 62.3787C91.2213 65.024 95.0613 71.424 95.0613 80.2133C95.0613 85.3333 93.44 89.9413 90.4533 93.0987C87.04 96.768 82.3467 98.9867 75.4347 100.267C73.8987 100.523 71.68 100.608 54.016 100.608L34.2187 100.693V27.2213L54.1867 27.3067C71.3387 27.4773 74.24 27.4773 75.52 27.7333ZM47.104 47.9573V58.112L58.88 58.0267C69.2053 57.9413 70.7413 57.9413 71.5947 57.6853C74.4107 56.832 76.8 55.04 77.824 52.8213C78.592 51.2 78.848 50.0907 78.848 47.7013C78.848 43.1787 77.4827 40.5333 74.496 39.0827C71.936 37.888 71.936 37.888 58.9653 37.8027L47.104 37.7173V47.9573ZM47.104 78.848V90.368L59.904 90.2827C72.448 90.1973 72.7893 90.1973 74.1547 89.856C76.2027 89.2587 77.6533 88.4907 79.0187 87.04C81.2373 84.9067 82.0053 82.5173 82.0053 78.7627C82.0053 75.008 81.0667 72.6187 78.9333 70.4853C77.4827 69.12 76.1173 68.4373 73.8987 67.84C72.448 67.4987 72.0213 67.4133 59.7333 67.4133L47.104 67.328V78.848Z" />
    <!-- fill="#563D7C" -->
    <path d="M168.363 27.5625C168.619 27.4772 168.875 27.3918 169.131 27.3918C178.688 27.3918 188.16 27.3919 197.717 27.5625C200.96 27.6479 203.947 28.7572 206.592 30.7198C212.651 35.1572 213.248 47.7012 204.885 52.2238C204.459 52.4798 204.032 52.6505 203.435 52.9918C205.056 53.7598 206.592 54.2718 207.872 55.1252C212.907 58.5385 214.955 66.1332 212.651 72.7892C210.688 78.5919 205.995 81.0665 200.619 82.3465C198.827 82.7732 196.949 82.9439 195.157 83.0292C186.283 83.1145 177.323 83.0292 168.363 83.0292C168.363 64.5972 168.363 46.0799 168.363 27.5625ZM177.835 74.9225C184.491 74.9225 190.891 75.0932 197.291 74.8372C201.301 74.6665 204.203 70.3145 204.032 66.0479C203.776 61.7812 201.216 58.1972 197.291 58.0265C190.891 57.6852 184.576 57.7705 178.176 57.7705C178.091 57.7705 178.005 57.9412 177.835 58.0265V74.9225ZM177.92 50.5172C183.808 50.5172 189.525 50.7732 195.243 50.4318C199.424 50.1758 201.813 46.8479 201.643 42.1545C201.472 38.0585 199.083 35.5838 194.816 35.4132C189.44 35.2425 184.064 35.3279 178.603 35.3279C178.347 35.3279 178.176 35.4132 177.92 35.4985V50.5172ZM472.832 42.9225H480.768V47.2745C481.621 46.5919 482.731 45.8239 483.755 44.9705C489.813 39.6799 504.235 40.2772 509.184 51.0292C513.451 60.2452 513.28 69.5465 507.477 78.0798C504.32 82.8585 499.371 84.5652 493.824 84.2238C488.96 83.9678 484.693 82.4318 481.365 77.8238V98.0479H472.832C472.832 79.6159 472.832 61.2692 472.832 42.9225ZM480.853 63.2318C481.195 65.2798 481.365 67.3278 481.963 69.2905C483.157 73.6425 486.912 76.8852 490.837 77.2265C496.043 77.5678 499.797 75.6052 501.675 70.9118C504.064 64.9385 503.979 58.8798 500.48 53.3332C496.384 46.7625 486.485 47.2745 482.987 54.1865C481.536 57.0025 480.853 59.9892 480.853 63.2318ZM467.2 77.3118C467.2 78.9332 467.285 80.6398 467.2 82.3465C467.2 82.7732 466.688 83.4559 466.347 83.4559C463.872 83.6265 461.397 84.0532 458.923 83.7972C456.789 83.5412 455.595 81.6638 454.912 79.5305C449.792 83.7972 443.904 84.6505 437.675 83.8825C432.469 83.1999 428.117 78.8478 427.776 73.9838C427.264 67.3278 429.739 62.9759 435.627 61.3545C439.723 60.2452 444.075 59.8185 448.256 59.0505C449.28 58.8798 450.304 58.7092 451.328 58.4532C453.291 57.9412 454.656 56.8318 454.741 54.6132C454.912 52.3092 453.973 50.5172 451.925 49.6638C448.341 48.2132 444.587 48.2132 441.003 49.9198C439.381 50.6878 438.443 52.2239 437.589 54.9545H429.227C429.227 51.7119 430.336 48.9812 432.469 46.6772C435.285 43.6052 438.955 42.4105 442.88 42.0692C446.976 41.6425 451.072 41.6425 455.083 43.0079C460.459 44.8852 463.019 48.4692 463.019 54.2718C463.019 60.4158 463.019 66.5598 463.019 72.7038C462.933 76.9705 462.933 76.9705 467.2 77.3118ZM454.229 63.4879C451.584 63.9145 449.195 64.3412 446.805 64.8532C444.331 65.3652 441.771 65.8772 439.381 66.7305C437.077 67.5838 436.224 69.8025 436.309 72.1918C436.395 74.4958 437.931 75.7758 439.893 76.4585C443.307 77.6532 446.72 77.4825 449.877 75.9465C452.181 74.8372 453.973 73.0452 454.144 70.3145C454.4 68.0105 454.229 65.7065 454.229 63.4879ZM239.104 41.7279C252.245 41.5572 259.925 51.3705 259.072 64.6825C258.816 69.2905 257.536 73.6425 254.549 77.3118C251.307 81.2372 247.211 83.3705 242.176 83.8825C237.995 84.3945 233.984 84.0532 230.144 82.2612C224.427 79.6159 221.099 75.0078 219.733 68.7785C218.795 64.5118 218.795 60.3305 219.904 56.1492C222.293 47.0185 229.291 41.8132 239.104 41.7279ZM227.669 63.0612C228.011 65.0239 228.181 66.9865 228.693 68.9492C230.059 73.8132 233.813 76.9705 238.08 77.2265C243.371 77.4825 247.04 75.1785 249.088 70.2292C251.051 65.2799 251.051 60.3305 248.917 55.4665C245.76 48.2985 237.312 46.4212 231.851 51.7972C228.693 54.6985 227.925 58.7092 227.669 63.0612ZM284.587 41.7279C296.448 41.7279 304.469 49.8345 304.64 61.9518C304.725 67.0718 303.872 71.9359 300.971 76.2025C296.789 82.3465 290.731 84.4798 283.733 84.1385C281.173 84.0532 278.443 83.4558 276.053 82.4318C270.421 80.2132 267.008 75.6905 265.557 69.8025C264.277 64.5972 264.363 59.3918 266.069 54.2718C268.544 46.4212 275.627 41.7279 284.587 41.7279ZM295.936 61.9518C295.765 60.8425 295.595 58.7945 294.997 56.8318C293.547 51.8825 289.707 48.8105 284.928 48.6398C280.405 48.4692 276.309 51.1145 274.603 55.8932C272.555 61.5252 272.725 67.0718 275.797 72.2772C279.04 77.7385 286.379 78.9332 291.243 74.8372C294.912 71.7652 295.765 67.4985 295.936 61.9518ZM369.067 54.1012C366.336 54.1012 363.776 54.1012 361.131 54.1012C360.789 54.1012 360.277 53.7598 360.192 53.5038C358.741 49.3225 355.243 48.8105 351.659 48.8105C350.208 48.8105 348.587 49.1519 347.221 49.7492C344.235 51.0292 343.979 54.4425 346.709 56.0638C348.587 57.1732 350.891 57.7705 353.024 58.4532C356.096 59.3065 359.253 59.9038 362.325 60.7572C370.091 63.1465 373.163 71.0825 368.811 77.6532C366.763 80.8105 363.605 82.5172 360.021 83.3705C354.731 84.6505 349.44 84.7358 344.32 82.8585C338.773 80.8105 335.872 76.7145 335.445 70.5705H343.893C346.283 76.9705 353.109 79.4452 359.424 76.2025C360.875 75.4345 361.899 74.4105 361.984 72.6185C362.069 70.7412 361.387 69.1198 359.68 68.4372C356.693 67.3278 353.621 66.5599 350.549 65.6212C347.989 64.8532 345.429 64.3412 343.04 63.3172C338.347 61.4398 336.299 58.1972 336.299 53.1625C336.299 48.8105 338.773 45.1412 343.211 43.5198C349.269 41.3012 355.499 40.9599 361.557 43.4345C365.653 45.0559 368.128 48.2985 369.152 52.6505C369.152 52.9918 369.067 53.4185 369.067 54.1012ZM323.243 42.7518H331.093V49.2372H323.413C323.328 50.0052 323.328 50.6025 323.328 51.1145C323.328 57.6852 323.328 64.2558 323.328 70.8265C323.328 71.6798 323.413 72.6185 323.499 73.4718C323.669 75.1785 324.608 76.2025 326.315 76.3732C327.851 76.4585 329.472 76.3732 331.179 76.3732V82.8585C327.595 83.7972 324.011 83.7118 320.512 82.9438C316.416 82.0052 314.795 79.1039 314.709 73.7279C314.624 66.3039 314.709 58.9652 314.709 51.5412V49.4079H308.224V42.8372H314.624V30.8052H323.413C323.243 34.7305 323.243 38.6558 323.243 42.7518ZM396.288 83.1998C392.96 83.1998 389.717 83.2852 386.56 83.1998C383.488 83.0292 381.099 80.9812 380.416 77.9092C380.075 76.1172 379.819 74.3252 379.819 72.5332C379.733 65.6212 379.819 58.6238 379.819 51.7118V49.4932H373.333V43.0079H379.733V30.8905H388.523V42.8372H396.288V49.4079H388.864C388.779 50.0052 388.693 50.4318 388.693 50.7732C388.693 57.8558 388.693 64.9385 388.693 72.0212C388.693 75.7759 389.717 76.6292 393.301 76.6292C394.24 76.6292 395.264 76.6292 396.373 76.6292L396.288 83.1998ZM410.88 42.9225V49.7492C414.208 43.9465 418.901 40.8745 425.813 41.8985V50.3465C422.571 49.8345 419.413 49.7492 416.597 51.7972C412.928 54.4425 411.648 58.4532 411.563 62.7198C411.392 69.3758 411.563 76.1172 411.563 82.9438H402.944V42.8372C405.504 42.9225 408.064 42.9225 410.88 42.9225Z" />
</svg>
