<svg viewBox="0 0 256 60" fill="currentColor" xmlns="http://www.w3.org/2000/svg">
  <path
    d="M74.3066 46.9407C73.3789 46.9407 72.6144 46.6771 72.0131 46.1498C71.4117 45.6226 71.1111 44.8657 71.1111 43.8792V13.4178C71.1111 12.4314 71.4117 11.683 72.0131 11.1728C72.6144 10.6625 73.3789 10.4074 74.3066 10.4074C75.2344 10.4074 76.0075 10.6625 76.626 11.1728C77.2445 11.683 77.5537 12.4314 77.5537 13.4178V43.8792C77.5537 44.8657 77.2445 45.6226 76.626 46.1498C76.0075 46.6771 75.2344 46.9407 74.3066 46.9407ZM87.563 46.9407C86.6353 46.9407 85.8708 46.6771 85.2694 46.1498C84.6681 45.6226 84.3675 44.8657 84.3675 43.8792V24.1839C84.3675 23.1975 84.6681 22.4491 85.2694 21.9389C85.8708 21.4286 86.6353 21.1735 87.563 21.1735C88.4908 21.1735 89.2639 21.4286 89.8824 21.9389C90.5009 22.4491 90.8101 23.1975 90.8101 24.1839V43.8792C90.8101 44.8657 90.5009 45.6226 89.8824 46.1498C89.2639 46.6771 88.4908 46.9407 87.563 46.9407ZM87.563 16.6324C86.3948 16.6324 85.467 16.3177 84.7798 15.6884C84.0926 15.0591 83.749 14.2342 83.749 13.2138C83.749 12.1933 84.0926 11.3769 84.7798 10.7646C85.467 10.1523 86.3948 9.84616 87.563 9.84616C88.6969 9.84616 89.6161 10.1523 90.3205 10.7646C91.0249 11.3769 91.3771 12.1933 91.3771 13.2138C91.3771 14.2342 91.0335 15.0591 90.3462 15.6884C89.659 16.3177 88.7313 16.6324 87.563 16.6324ZM115.199 23.0104C115.474 22.3981 115.844 21.9389 116.308 21.6327C116.771 21.3266 117.278 21.1735 117.828 21.1735C118.618 21.1735 119.331 21.4371 119.967 21.9644C120.603 22.4916 120.92 23.1464 120.92 23.9288C120.92 24.337 120.817 24.7452 120.611 25.1534L111.076 44.8997C110.767 45.546 110.329 46.0393 109.762 46.3794C109.195 46.7196 108.568 46.8897 107.881 46.8897C107.228 46.8897 106.601 46.7196 105.999 46.3794C105.398 46.0393 104.943 45.546 104.633 44.8997L95.0468 25.1534C94.875 24.8132 94.7891 24.4221 94.7891 23.9798C94.7891 23.1975 95.1241 22.5342 95.7941 21.9899C96.4642 21.4456 97.2287 21.1735 98.0877 21.1735C99.3247 21.1735 100.235 21.7688 100.819 22.9594L108.035 38.7258L115.199 23.0104ZM144.434 39.7973C145.018 39.7973 145.49 40.0184 145.851 40.4606C146.212 40.9028 146.392 41.4981 146.392 42.2465C146.392 43.301 145.756 44.1854 144.485 44.8997C143.317 45.546 141.994 46.0648 140.516 46.456C139.039 46.8472 137.63 47.0427 136.29 47.0427C132.235 47.0427 129.023 45.8862 126.652 43.5731C124.281 41.26 123.095 38.0965 123.095 34.0826C123.095 31.5314 123.611 29.2694 124.642 27.2964C125.673 25.3235 127.124 23.7928 128.997 22.7042C130.87 21.6157 132.991 21.0715 135.362 21.0715C137.63 21.0715 139.606 21.5647 141.29 22.5512C142.973 23.5376 144.279 24.9323 145.207 26.7351C146.134 28.538 146.598 30.664 146.598 33.1132C146.598 34.5759 145.945 35.3072 144.64 35.3072H129.435C129.641 37.6543 130.311 39.3806 131.445 40.4861C132.579 41.5917 134.228 42.1444 136.393 42.1444C137.493 42.1444 138.463 42.0084 139.305 41.7362C140.147 41.4641 141.101 41.0899 142.166 40.6137C143.197 40.0694 143.952 39.7973 144.434 39.7973ZM135.517 25.5616C133.765 25.5616 132.364 26.1058 131.316 27.1944C130.268 28.2829 129.641 29.8476 129.435 31.8886H141.083C141.015 29.8136 140.499 28.2404 139.537 27.1689C138.575 26.0973 137.235 25.5616 135.517 25.5616Z"
  />
  <path
    d="M185.656 22.3414C185.897 21.7107 186.25 21.2377 186.715 20.9224C187.179 20.6071 187.687 20.4494 188.238 20.4494C189.029 20.4494 189.743 20.7209 190.38 21.264C191.017 21.8071 191.335 22.4816 191.335 23.2874C191.335 23.7429 191.249 24.1458 191.077 24.4962L182.559 44.8354C182.283 45.5011 181.862 46.0091 181.294 46.3595C180.726 46.7099 180.098 46.8851 179.41 46.8851C178.756 46.8851 178.145 46.7099 177.577 46.3595C177.009 46.0091 176.587 45.5011 176.312 44.8354L170.168 29.8044L164.231 44.8354C163.956 45.5011 163.534 46.0091 162.967 46.3595C162.399 46.7099 161.771 46.8851 161.082 46.8851C160.428 46.8851 159.809 46.7099 159.224 46.3595C158.639 46.0091 158.208 45.5011 157.933 44.8354L149.466 24.4962C149.294 24.0407 149.208 23.6553 149.208 23.34C149.208 22.5341 149.552 21.8421 150.241 21.264C150.929 20.6859 151.686 20.3968 152.512 20.3968C153.097 20.3968 153.631 20.5545 154.113 20.8698C154.594 21.1852 154.956 21.6582 155.197 22.2889L161.289 38.3184L167.535 22.4465C167.811 21.7808 168.207 21.2815 168.723 20.9487C169.239 20.6158 169.807 20.4494 170.427 20.4494C171.046 20.4494 171.614 20.6158 172.13 20.9487C172.646 21.2815 173.042 21.7808 173.318 22.4465L179.616 38.371L185.656 22.3414ZM199.089 46.9376C198.16 46.9376 197.394 46.6661 196.792 46.123C196.19 45.5799 195.889 44.8004 195.889 43.7843V23.4976C195.889 22.4816 196.19 21.7107 196.792 21.1852C197.394 20.6596 198.16 20.3968 199.089 20.3968C200.019 20.3968 200.793 20.6596 201.413 21.1852C202.032 21.7107 202.342 22.4816 202.342 23.4976V43.7843C202.342 44.8004 202.032 45.5799 201.413 46.123C200.793 46.6661 200.019 46.9376 199.089 46.9376ZM199.089 15.7194C197.919 15.7194 196.99 15.3953 196.302 14.7471C195.613 14.0989 195.269 13.2492 195.269 12.1981C195.269 11.147 195.613 10.3061 196.302 9.67541C196.99 9.04473 197.919 8.7294 199.089 8.7294C200.225 8.7294 201.146 9.04473 201.851 9.67541C202.557 10.3061 202.91 11.147 202.91 12.1981C202.91 13.2492 202.566 14.0989 201.877 14.7471C201.189 15.3953 200.26 15.7194 199.089 15.7194ZM223.261 20.3968C224.156 20.3268 224.861 20.5195 225.378 20.975C225.894 21.4304 226.152 22.1137 226.152 23.0246C226.152 23.9707 225.928 24.6714 225.481 25.1269C225.033 25.5824 224.225 25.8802 223.054 26.0203L221.506 26.178C219.475 26.3882 217.986 27.089 217.04 28.2802C216.093 29.4715 215.62 30.9606 215.62 32.7475V43.7843C215.62 44.8004 215.31 45.5799 214.691 46.123C214.071 46.6661 213.297 46.9376 212.368 46.9376C211.438 46.9376 210.673 46.6661 210.07 46.123C209.468 45.5799 209.167 44.8004 209.167 43.7843V23.4451C209.167 22.464 209.468 21.7107 210.07 21.1852C210.673 20.6596 211.421 20.3968 212.316 20.3968C213.211 20.3968 213.934 20.6509 214.484 21.1589C215.035 21.6669 215.31 22.394 215.31 23.34V25.4422C215.964 23.9006 216.937 22.7093 218.227 21.8684C219.518 21.0275 220.955 20.5545 222.538 20.4494L223.261 20.3968ZM248.568 39.5798C249.153 39.5798 249.626 39.8075 249.988 40.263C250.349 40.7185 250.53 41.3317 250.53 42.1025C250.53 43.1886 249.893 44.0996 248.62 44.8354C247.45 45.5011 246.124 46.0354 244.644 46.4384C243.165 46.8413 241.753 47.0427 240.411 47.0427C236.35 47.0427 233.132 45.8515 230.757 43.4689C228.382 41.0864 227.195 37.8279 227.195 33.6935C227.195 31.0657 227.711 28.7357 228.744 26.7036C229.776 24.6714 231.23 23.0947 233.106 21.9735C234.982 20.8523 237.107 20.2917 239.482 20.2917C241.753 20.2917 243.732 20.7998 245.419 21.8159C247.105 22.8319 248.413 24.2685 249.342 26.1254C250.272 27.9824 250.736 30.1722 250.736 32.695C250.736 34.2016 250.082 34.9549 248.775 34.9549H233.545C233.751 37.3724 234.422 39.1506 235.558 40.2893C236.694 41.428 238.346 41.9974 240.514 41.9974C241.616 41.9974 242.588 41.8572 243.431 41.5769C244.275 41.2966 245.23 40.9112 246.297 40.4207C247.329 39.8601 248.086 39.5798 248.568 39.5798ZM239.637 24.9167C237.881 24.9167 236.479 25.4772 235.429 26.5985C234.379 27.7197 233.751 29.3314 233.545 31.4336H245.212C245.144 29.2963 244.627 27.6759 243.664 26.5722C242.7 25.4685 241.358 24.9167 239.637 24.9167Z"
    stroke="black" />
  <path
    d="M18.8327 36.0672V46.5288C18.8327 48.4062 17.3108 49.9281 15.4334 49.9281C13.5561 49.9281 12.0342 48.4062 12.0342 46.5288V33.8994C12.6686 32.7348 13.3934 31.7265 14.7001 31.7265C16.8271 31.7265 17.5703 34.3986 18.8327 36.0672ZM31.6744 36.6122V53.1557C31.6744 55.2416 29.9834 56.9326 27.8974 56.9326C25.8115 56.9326 24.1205 55.2416 24.1205 53.1557L24.4996 35.4614C25.2108 34.09 26.3946 34.4317 27.8974 34.4317C30.2767 34.4317 30.0947 35.0697 31.6744 36.6122ZM43.7607 36.3086V48.3188C43.7607 50.1961 42.2388 51.7181 40.3614 51.7181C38.484 51.7181 36.9621 50.1961 36.9621 48.3188V33.5569C37.554 32.544 38.2588 31.7265 39.4353 31.7265C41.6683 31.7265 42.3762 34.6714 43.7607 36.3086Z"
  />
  <path
    d="M18.8327 39.2735C18.2297 38.5351 17.516 37.9872 16.4836 37.9872C14.0324 37.9872 13.5824 41.0765 12.0342 42.4693V29.1439C12.0342 27.2665 13.0666 30.2554 14.5 28C16.3774 28 15.4334 27.2665 15.4334 29.1439L18.8327 39.2735ZM31.6744 39.5118C31.0313 38.6562 30.2795 37.9872 29.1389 37.9872C26.4117 37.9872 26.1617 41.8111 24.1205 42.8683V36.9751C24.1205 34.8892 25.8115 33.8994 27.8974 33.8994C29.9834 33.8994 31.6744 34.8892 31.6744 36.9751V39.5118ZM43.7607 38.8505C43.2374 38.3353 42.6169 37.9872 41.7941 37.9872C39.1522 37.9872 38.835 41.5756 36.9621 42.7612V30.8002C36.9621 28.9228 38.484 27.4009 40.3614 27.4009C42.2388 27.4009 43.7607 28.9228 43.7607 30.8002V38.8505Z"
    fill-opacity="0.298514" />
  <path fill-rule="evenodd" clip-rule="evenodd"
    d="M49.6491 39.2186C49.7852 38.9967 49.9214 38.7748 50.063 38.5607C51.6319 35.2067 52.5129 31.4341 52.5129 27.4456C52.5129 13.4962 41.7371 2.18805 28.4445 2.18805C15.1519 2.18805 4.3761 13.4962 4.3761 27.4456C4.3761 32.2102 5.63328 36.6667 7.81853 40.4697C8.38705 41.1075 9.0615 41.5727 10.0213 41.5727C11.548 41.5727 12.2702 40.3957 12.9925 39.2186C13.715 38.0412 14.4376 36.8636 15.9656 36.8636C17.4935 36.8636 18.2987 38.0412 19.1038 39.2186C19.9086 40.3957 20.7134 41.5727 22.2401 41.5727C23.7669 41.5727 24.4891 40.3957 25.2114 39.2186C25.9339 38.0412 26.6565 36.8636 28.1844 36.8636C29.7124 36.8636 30.5176 38.0412 31.3226 39.2186C32.1275 40.3957 32.9322 41.5727 34.459 41.5727C35.9857 41.5727 36.7079 40.3957 37.4302 39.2186C38.1527 38.0412 38.8753 36.8636 40.4033 36.8636C41.9312 36.8636 42.7364 38.0412 43.5415 39.2186C44.3463 40.3957 45.1511 41.5727 46.6778 41.5727C48.2046 41.5727 48.9268 40.3957 49.6491 39.2186ZM39.048 21.9951C39.048 28.8907 35.5239 33.7462 27.1541 33.7462C18.7843 33.7462 15.2601 28.8907 15.2601 21.9951C15.2601 15.0995 20.5852 8.75217 27.1541 8.75217C33.7229 8.75217 39.048 15.0995 39.048 21.9951Z"
  />
  <path fill-rule="evenodd" clip-rule="evenodd"
    d="M28.4164 17.4622C28.4164 20.1812 26.4195 22.3853 23.9562 22.3853C21.4929 22.3853 19.496 20.1812 19.496 17.4622C19.496 14.7433 21.4929 12.5392 23.9562 12.5392C26.4195 12.5392 28.4164 14.7433 28.4164 17.4622ZM25.4429 16.3261C25.4429 17.581 24.4444 18.5983 23.2128 18.5983C21.9811 18.5983 20.9827 17.581 20.9827 16.3261C20.9827 15.0712 21.9811 14.054 23.2128 14.054C24.4444 14.054 25.4429 15.0712 25.4429 16.3261Z"
  />
  <path fill-rule="evenodd" clip-rule="evenodd"
    d="M44.8547 41.0695C51.162 31.6866 51.325 21.2788 45.3437 9.84616C49.7772 14.3882 52.5129 20.6212 52.5129 27.4988C52.5129 31.4723 51.5997 35.2306 49.9736 38.5721C49.0485 39.9164 48.3456 41.5727 46.4648 41.5727C45.8211 41.5727 45.3012 41.3786 44.8547 41.0695Z"
  />
</svg>