<svg viewBox="0 0 512 117" fill="currentColor" xmlns="http://www.w3.org/2000/svg">
  <path
    d="M129.308 32.9387C132.494 14.7911 120.377 0 102.286 0H20.3662L14.5636 32.9387H96.4836L94.5493 43.9182H12.6293L0 116.053H32.768L39.6516 76.8H88.8036C106.894 76.8 124.188 62.0089 127.374 43.8613L129.308 32.9387ZM225.621 44.2596H138.524L133.404 71.7938H220.444L225.621 44.2596ZM260.665 0H145.977L140.174 32.9956H254.919L260.665 0ZM125.611 116.053H240.356L246.101 83.0578H131.413L125.611 116.053ZM304.356 0C286.492 0 269.255 15.0756 265.785 32.9956L264.818 38.5138H264.875C262.656 56.0356 274.375 70.9404 291.954 70.9404H341.106L338.944 83.0578H257.024L251.221 116.053H333.141C351.232 116.053 368.526 101.262 371.712 83.0578L373.817 70.9404C377.003 52.736 364.885 37.9449 346.795 37.9449H297.643L298.496 32.9956H407.78L393.216 116.053H426.098L440.661 32.9956H473.429C491.52 32.9956 508.814 18.2044 512 0H304.356Z"
  />
</svg>