<svg width="630" height="196" viewBox="0 0 630 196" fill="currentColor"
  xmlns="http://www.w3.org/2000/svg">
  <g clip-path="url(#clip0_1701_42)">
    <path
      d="M266.922 144.734L300.438 48.25H316.766L274.656 162H263.016L266.922 144.734ZM235.594 48.25L268.797 144.734L272.938 162H261.297L219.266 48.25H235.594ZM345.594 77.4688V162H331.062V77.4688H345.594ZM329.969 55.0469C329.969 52.7031 330.672 50.724 332.078 49.1094C333.536 47.4948 335.672 46.6875 338.484 46.6875C341.245 46.6875 343.354 47.4948 344.812 49.1094C346.323 50.724 347.078 52.7031 347.078 55.0469C347.078 57.2865 346.323 59.2135 344.812 60.8281C343.354 62.3906 341.245 63.1719 338.484 63.1719C335.672 63.1719 333.536 62.3906 332.078 60.8281C330.672 59.2135 329.969 57.2865 329.969 55.0469ZM404.188 77.4688V88.5625H358.484V77.4688H404.188ZM373.953 56.9219H388.406V141.062C388.406 143.927 388.849 146.089 389.734 147.547C390.62 149.005 391.766 149.969 393.172 150.438C394.578 150.906 396.089 151.141 397.703 151.141C398.901 151.141 400.151 151.036 401.453 150.828C402.807 150.568 403.823 150.359 404.5 150.203L404.578 162C403.432 162.365 401.922 162.703 400.047 163.016C398.224 163.38 396.01 163.562 393.406 163.562C389.865 163.562 386.609 162.859 383.641 161.453C380.672 160.047 378.302 157.703 376.531 154.422C374.812 151.089 373.953 146.609 373.953 140.984V56.9219ZM456.219 163.562C450.333 163.562 444.995 162.573 440.203 160.594C435.464 158.562 431.375 155.724 427.938 152.078C424.552 148.432 421.948 144.109 420.125 139.109C418.302 134.109 417.391 128.641 417.391 122.703V119.422C417.391 112.547 418.406 106.427 420.438 101.062C422.469 95.6458 425.229 91.0625 428.719 87.3125C432.208 83.5625 436.167 80.724 440.594 78.7969C445.021 76.8698 449.604 75.9062 454.344 75.9062C460.385 75.9062 465.594 76.9479 469.969 79.0312C474.396 81.1146 478.016 84.0312 480.828 87.7812C483.641 91.4792 485.724 95.8542 487.078 100.906C488.432 105.906 489.109 111.375 489.109 117.312V123.797H425.984V112H474.656V110.906C474.448 107.156 473.667 103.51 472.312 99.9688C471.01 96.4271 468.927 93.5104 466.062 91.2188C463.198 88.9271 459.292 87.7812 454.344 87.7812C451.062 87.7812 448.042 88.4844 445.281 89.8906C442.521 91.2448 440.151 93.276 438.172 95.9844C436.193 98.6927 434.656 102 433.562 105.906C432.469 109.812 431.922 114.318 431.922 119.422V122.703C431.922 126.714 432.469 130.49 433.562 134.031C434.708 137.521 436.349 140.594 438.484 143.25C440.672 145.906 443.302 147.99 446.375 149.5C449.5 151.01 453.042 151.766 457 151.766C462.104 151.766 466.427 150.724 469.969 148.641C473.51 146.557 476.609 143.771 479.266 140.281L488.016 147.234C486.193 149.995 483.875 152.625 481.062 155.125C478.25 157.625 474.786 159.656 470.672 161.219C466.609 162.781 461.792 163.562 456.219 163.562ZM555.203 139.578C555.203 137.495 554.734 135.568 553.797 133.797C552.911 131.974 551.062 130.333 548.25 128.875C545.49 127.365 541.323 126.062 535.75 124.969C531.062 123.979 526.818 122.807 523.016 121.453C519.266 120.099 516.062 118.458 513.406 116.531C510.802 114.604 508.797 112.339 507.391 109.734C505.984 107.13 505.281 104.083 505.281 100.594C505.281 97.2604 506.01 94.1094 507.469 91.1406C508.979 88.1719 511.089 85.5417 513.797 83.25C516.557 80.9583 519.865 79.1615 523.719 77.8594C527.573 76.5573 531.87 75.9062 536.609 75.9062C543.38 75.9062 549.161 77.1042 553.953 79.5C558.745 81.8958 562.417 85.099 564.969 89.1094C567.521 93.0677 568.797 97.4688 568.797 102.312H554.344C554.344 99.9688 553.641 97.7031 552.234 95.5156C550.88 93.276 548.875 91.4271 546.219 89.9688C543.615 88.5104 540.411 87.7812 536.609 87.7812C532.599 87.7812 529.344 88.4062 526.844 89.6562C524.396 90.8542 522.599 92.3906 521.453 94.2656C520.359 96.1406 519.812 98.1198 519.812 100.203C519.812 101.766 520.073 103.172 520.594 104.422C521.167 105.62 522.156 106.74 523.562 107.781C524.969 108.771 526.948 109.708 529.5 110.594C532.052 111.479 535.307 112.365 539.266 113.25C546.193 114.812 551.896 116.688 556.375 118.875C560.854 121.062 564.188 123.745 566.375 126.922C568.562 130.099 569.656 133.953 569.656 138.484C569.656 142.182 568.875 145.568 567.312 148.641C565.802 151.714 563.589 154.37 560.672 156.609C557.807 158.797 554.37 160.516 550.359 161.766C546.401 162.964 541.948 163.562 537 163.562C529.552 163.562 523.25 162.234 518.094 159.578C512.938 156.922 509.031 153.484 506.375 149.266C503.719 145.047 502.391 140.594 502.391 135.906H516.922C517.13 139.865 518.276 143.016 520.359 145.359C522.443 147.651 524.995 149.292 528.016 150.281C531.036 151.219 534.031 151.688 537 151.688C540.958 151.688 544.266 151.167 546.922 150.125C549.63 149.083 551.688 147.651 553.094 145.828C554.5 144.005 555.203 141.922 555.203 139.578ZM624.031 77.4688V88.5625H578.328V77.4688H624.031ZM593.797 56.9219H608.25V141.062C608.25 143.927 608.693 146.089 609.578 147.547C610.464 149.005 611.609 149.969 613.016 150.438C614.422 150.906 615.932 151.141 617.547 151.141C618.745 151.141 619.995 151.036 621.297 150.828C622.651 150.568 623.667 150.359 624.344 150.203L624.422 162C623.276 162.365 621.766 162.703 619.891 163.016C618.068 163.38 615.854 163.562 613.25 163.562C609.708 163.562 606.453 162.859 603.484 161.453C600.516 160.047 598.146 157.703 596.375 154.422C594.656 151.089 593.797 146.609 593.797 140.984V56.9219Z"
    />
    <g filter="url(#filter0_d_1701_42)">
      <path
        d="M150.541 62.4855L102.584 131.825C102.076 132.56 101.341 133.111 100.49 133.393C99.6394 133.676 98.7199 133.673 97.871 133.389C97.022 133.104 96.2902 132.551 95.7862 131.814C95.2823 131.076 95.0337 130.195 95.0786 129.305L96.9979 91.0223L66.0126 84.451C65.3504 84.3107 64.7335 84.0099 64.2163 83.5753C63.6992 83.1408 63.2977 82.5858 63.0477 81.9596C62.7977 81.3333 62.7068 80.6552 62.783 79.9852C62.8591 79.3153 63.1 78.6741 63.4843 78.1184L111.442 8.77905C111.95 8.04347 112.686 7.49287 113.536 7.21061C114.387 6.92835 115.307 6.9298 116.156 7.21499C117.004 7.50004 117.736 8.05315 118.24 8.79046C118.744 9.52764 118.993 10.4087 118.948 11.2999L117.028 49.5828L148.013 56.1534C148.675 56.2938 149.293 56.5946 149.81 57.0291C150.328 57.4637 150.728 58.0187 150.978 58.6449C151.229 59.2712 151.319 59.9493 151.243 60.6192C151.168 61.2892 150.926 61.9299 150.541 62.4855Z"
      />
      <path
        d="M100.32 190C99.0444 190.001 97.7811 189.752 96.6027 189.263C95.4243 188.775 94.3539 188.059 93.4532 187.156L48.1393 141.845C46.3265 140.023 45.3104 137.556 45.3137 134.986C45.3172 132.415 46.3398 129.95 48.1576 128.133C49.9753 126.315 52.4397 125.292 55.0103 125.288C57.5811 125.285 60.0484 126.3 61.8711 128.113L100.32 166.558L184.081 82.8004C185.907 81.0039 188.369 80.0017 190.93 80.0122C193.493 80.0225 195.946 81.0447 197.756 82.856C199.568 84.6674 200.591 87.121 200.602 89.6826C200.611 92.2442 199.609 94.7062 197.812 96.5321L107.185 187.156C106.284 188.06 105.214 188.775 104.036 189.263C102.858 189.752 101.595 190.001 100.32 190Z"
      />
      <path
        d="M100.281 190C101.557 190.001 102.82 189.752 103.998 189.263C105.177 188.775 106.247 188.059 107.148 187.156L152.462 141.845C154.275 140.023 155.291 137.556 155.287 134.986C155.284 132.415 154.261 129.95 152.443 128.133C150.625 126.315 148.161 125.292 145.59 125.288C143.02 125.285 140.553 126.3 138.729 128.113L100.281 166.558L16.5201 82.8004C14.694 81.0039 12.2321 80.0017 9.67062 80.0122C7.10902 80.0225 4.6553 81.0447 2.84403 82.856C1.03271 84.6674 0.0105112 87.121 8.06112e-05 89.6826C-0.01035 92.2442 0.991838 94.7062 2.78834 96.5321L93.4161 187.156C94.3167 188.06 95.3869 188.775 96.5649 189.263C97.743 189.752 99.006 190.001 100.281 190Z"
        fill-opacity="0.5" />
    </g>
  </g>
  <defs>
    <filter id="filter0_d_1701_42" x="-10.5455" y="-1.78788" width="228.723" height="211.121"
      filterUnits="userSpaceOnUse" color-interpolation-filters="sRGB">
      <feFlood flood-opacity="0" result="BackgroundImageFix" />
      <feColorMatrix in="SourceAlpha" type="matrix"
        values="0 0 0 0 0 0 0 0 0 0 0 0 0 0 0 0 0 0 127 0" result="hardAlpha" />
      <feOffset dx="3.51515" dy="5.27273" />
      <feGaussianBlur stdDeviation="7.0303" />
      <feComposite in2="hardAlpha" operator="out" />
      <feColorMatrix type="matrix"
        values="0 0 0 0 0.108333 0 0 0 0 0.108333 0 0 0 0 0.108333 0 0 0 0.2 0" />
      <feBlend mode="normal" in2="BackgroundImageFix" result="effect1_dropShadow_1701_42" />
      <feBlend mode="normal" in="SourceGraphic" in2="effect1_dropShadow_1701_42" result="shape" />
    </filter>
    <clipPath id="clip0_1701_42">
      <rect width="630" height="196" fill="white" />
    </clipPath>
  </defs>
</svg>