<svg viewBox="0 0 128 128" fill="currentColor" xmlns="http://www.w3.org/2000/svg">
  <g clip-path="url(#clip0_1512_132)">
    <g filter="url(#filter0_d_1512_132)">
      <path
        d="M93.7356 44.4155L65.7013 84.9493C65.4041 85.3791 64.9743 85.701 64.477 85.8663C63.9797 86.0315 63.4422 86.03 62.946 85.864C62.4497 85.6972 62.0219 85.3737 61.7272 84.9431C61.4327 84.5118 61.2874 83.9967 61.3136 83.4762L62.4356 61.0973L44.3224 57.2559C43.9353 57.1739 43.5747 56.998 43.2724 56.744C42.9701 56.49 42.7354 56.1655 42.5892 55.7995C42.4431 55.4334 42.3899 55.037 42.4345 54.6453C42.479 54.2537 42.6198 53.8788 42.8445 53.554L70.8791 13.0201C71.1764 12.5901 71.6062 12.2682 72.1035 12.1032C72.6008 11.9382 73.1383 11.9391 73.6347 12.1058C74.1309 12.2724 74.5588 12.5957 74.8534 13.0268C75.1479 13.4577 75.2932 13.9727 75.2669 14.4937L74.1449 36.8728L92.2578 40.7139C92.6449 40.7959 93.0056 40.9718 93.3082 41.2258C93.6107 41.4798 93.845 41.8043 93.9909 42.1703C94.1375 42.5364 94.1902 42.9328 94.146 43.3244C94.1018 43.7161 93.9606 44.0906 93.7356 44.4155Z"
      />
      <path
        d="M64.3776 118.957C63.6319 118.958 62.8935 118.812 62.2046 118.526C61.5157 118.241 60.89 117.822 60.3635 117.295L33.8742 90.8071C32.8145 89.742 32.2205 88.2998 32.2224 86.7972C32.2244 85.2946 32.8222 83.8532 33.8849 82.7912C34.9474 81.7284 36.3881 81.1303 37.8908 81.128C39.3936 81.1264 40.8359 81.7199 41.9014 82.7796L64.3776 105.253L113.342 56.291C114.41 55.2408 115.849 54.6549 117.346 54.6611C118.844 54.6671 120.278 55.2647 121.336 56.3235C122.395 57.3824 122.993 58.8167 123 60.3142C123.005 61.8116 122.419 63.2508 121.369 64.3182L68.3906 117.295C67.8642 117.823 67.2386 118.241 66.5499 118.526C65.8613 118.812 65.123 118.958 64.3776 118.957Z"
      />
      <path
        d="M64.3547 118.957C65.1004 118.958 65.8388 118.812 66.5277 118.526C67.2166 118.241 67.8422 117.822 68.3688 117.295L94.8581 90.8071C95.9178 89.742 96.512 88.2998 96.5097 86.7972C96.5082 85.2946 95.91 83.8532 94.8473 82.7912C93.7845 81.7284 92.3439 81.1303 90.8412 81.128C89.3386 81.1264 87.8965 81.7199 86.8306 82.7796L64.3547 105.253L15.3902 56.291C14.3228 55.2408 12.8836 54.6549 11.3862 54.6611C9.88877 54.6671 8.4544 55.2647 7.39557 56.3235C6.33673 57.3824 5.73918 58.8167 5.73308 60.3142C5.72698 61.8116 6.31283 63.2508 7.36302 64.3182L60.3416 117.295C60.8681 117.823 61.4936 118.241 62.1823 118.526C62.871 118.812 63.6093 118.958 64.3547 118.957Z"
        fill-opacity="0.5" />
    </g>
  </g>
  <defs>
    <filter id="filter0_d_1512_132" x="-4.81242" y="3.19222" width="145.388" height="135.098"
      filterUnits="userSpaceOnUse" color-interpolation-filters="sRGB">
      <feFlood flood-opacity="0" result="BackgroundImageFix" />
      <feColorMatrix in="SourceAlpha" type="matrix"
        values="0 0 0 0 0 0 0 0 0 0 0 0 0 0 0 0 0 0 127 0" result="hardAlpha" />
      <feOffset dx="3.51515" dy="5.27273" />
      <feGaussianBlur stdDeviation="7.0303" />
      <feComposite in2="hardAlpha" operator="out" />
      <feColorMatrix type="matrix"
        values="0 0 0 0 0.108333 0 0 0 0 0.108333 0 0 0 0 0.108333 0 0 0 0.2 0" />
      <feBlend mode="normal" in2="BackgroundImageFix" result="effect1_dropShadow_1512_132" />
      <feBlend mode="normal" in="SourceGraphic" in2="effect1_dropShadow_1512_132" result="shape" />
    </filter>
    <clipPath id="clip0_1512_132">
      <rect width="128" height="128" />
    </clipPath>
  </defs>
</svg>