<?xml version="1.0" encoding="UTF-8" standalone="no"?>
<svg
  xmlns:dc="http://purl.org/dc/elements/1.1/"
  xmlns:cc="http://creativecommons.org/ns#"
  xmlns:rdf="http://www.w3.org/1999/02/22-rdf-syntax-ns#"
  xmlns:svg="http://www.w3.org/2000/svg"
  xmlns="http://www.w3.org/2000/svg"
  viewBox="0 0 800 800"
  height="800"
  width="800"
  xml:space="preserve"
  id="svg2"
  version="1.1"
>
  <metadata id="metadata8">
    <rdf:RDF
      ><cc:Work rdf:about=""
        ><dc:format>image/svg+xml</dc:format
        ><dc:type
          rdf:resource="http://purl.org/dc/dcmitype/StillImage" /></cc:Work
    ></rdf:RDF>
  </metadata>
  <defs id="defs6">
    <clipPath id="clipPath22" clipPathUnits="userSpaceOnUse">
      <path
        id="path20"
        d="m 1246.86,1199.44 c 41.4,-70.34 85.96,-160.83 166.9,-171.33 31.46,-4.09 150.13,-0.9 215.31,32.27 120.11,-190.181 195.4,-303.36 399.23,-398.482 99.1,-46.25 209.22,-64.238 309.82,-107.148 191.79,-81.828 335.52,-247.75 519.5,-345.879 80.85,-43.133 178.66,-72.531 263.11,-37 57.81,24.309 99.57,74.988 138.93,123.801 117.98,146.316 235.96,292.629 353.92,438.949 153.29,-65.332 318.43,-102.73 484.91,-109.801 60.96,159.961 128.33,328.629 265.4,431.16 47.78,35.73 102.31,61.87 148.92,99.11 114.51,91.45 252.75,217.71 301,356.09 31.34,89.88 23.21,206.41 23.21,297.39 0,0 -214.63,121.32 -299.17,150.32 -561.34,192.48 -1175.8,128.27 -1761.02,29.99 -426.94,-71.7 -853.44,-160.63 -1287.24,-177.47 -121.56,-4.72 -500.785,29.49 -500.785,29.49 -16.809,-161.59 180.445,-509.58 258.055,-641.46 z"
      />
    </clipPath>
    <linearGradient
      id="linearGradient30"
      spreadMethod="pad"
      gradientTransform="matrix(27.9495,-1024.83,-1024.83,-27.9495,2928.01,1240.53)"
      gradientUnits="userSpaceOnUse"
      y2="0"
      x2="1"
      y1="0"
      x1="0"
    >
      <stop
        id="stop24"
        offset="0"
        style="stop-opacity: 1; stop-color: #9bc6d2"
      />
      <stop
        id="stop26"
        offset="0.018018"
        style="stop-opacity: 1; stop-color: #9bc6d2"
      />
      <stop
        id="stop28"
        offset="1"
        style="stop-opacity: 1; stop-color: #c3ebf4"
      />
    </linearGradient>
    <clipPath id="clipPath54" clipPathUnits="userSpaceOnUse">
      <path
        id="path52"
        d="m 2792.92,3756.52 c -7.51,3.33 73.37,247.44 208.36,191.49 108.9,-45.14 571.42,-510.54 625.72,-760.35 13.61,-62.55 5.17,-158.21 -164.34,-146.99 -91.87,6.09 -359.5,-182.77 -377.92,-153.47 -18.44,29.28 35.43,285.97 210.03,349.58 26.95,9.82 -17.96,15.26 26.95,9.82 21.5,-2.6 -430.77,466.36 -528.8,509.92 z"
      />
    </clipPath>
    <linearGradient
      id="linearGradient64"
      spreadMethod="pad"
      gradientTransform="matrix(-197.69,-668.915,618.699,-232.394,3299.07,3741.06)"
      gradientUnits="userSpaceOnUse"
      y2="0"
      x2="1"
      y1="0"
      x1="0"
    >
      <stop
        id="stop56"
        offset="0"
        style="stop-opacity: 1; stop-color: #181c27"
      />
      <stop
        id="stop58"
        offset="0.0045045"
        style="stop-opacity: 1; stop-color: #181c27"
      />
      <stop
        id="stop60"
        offset="0.75582753"
        style="stop-opacity: 1; stop-color: #1c2a48"
      />
      <stop
        id="stop62"
        offset="1"
        style="stop-opacity: 1; stop-color: #1c2a48"
      />
    </linearGradient>
    <clipPath id="clipPath76" clipPathUnits="userSpaceOnUse">
      <path
        id="path74"
        d="m 3013.48,4095.25 c -45.08,76.71 -104.48,97.79 -184.38,136.9 -117.73,57.61 -504.9,310.69 -526.43,181.4 -36.25,-217.69 -167.89,-435.25 -168.65,-436.64 -170.16,-240.33 -271.25,-529.25 -318.51,-821.51 -58.47,-361.53 -39.99,-730.91 -8.64,-1095.8 -69.11,-3.76 -138.21,-7.52 -207.3,-11.29 48.91,-40.71 106.91,-70.46 168.52,-86.42 -91.85,-49.3 -181.96,-101.84 -270.12,-157.48 86.59,-19.26 174.81,-31.22 263.4,-35.7 -28.06,-5.37 -54.78,-17.66 -77.11,-35.49 121.71,-46.87 252.93,-68.89 383.28,-64.33 28.58,0.99 57.67,3.21 85.42,-3.69 25.73,-6.41 48.84,-20.3 72.18,-32.9 185.87,-100.25 411.52,-124.08 614.23,-64.87 12.28,3.59 24.8,7.65 34.64,15.82 21.87,18.19 24.14,51.51 16.66,78.95 -20.48,75.13 -21.03,130 -83.45,176.55 -138.44,103.23 -356.56,400.16 -391.75,518.02 -35.2,117.87 -75.77,226.5 -86.63,419.72 -12.44,221.45 -12.89,450.73 32,667.94 16.79,81.21 38.74,161.43 67.7,239.13 33.29,89.32 49.6,158.66 131.43,207.55 81.83,48.89 242.1,-3.81 287.37,-87.7 15.65,59.51 125.29,128.59 150.8,59.8 0.82,-2.24 5.22,7.47 6.67,5.34 -45.57,135.77 15.17,215.63 8.67,226.7 z"
      />
    </clipPath>
    <linearGradient
      id="linearGradient86"
      spreadMethod="pad"
      gradientTransform="matrix(742.594,119.182,119.182,-742.594,2366.3,2969.19)"
      gradientUnits="userSpaceOnUse"
      y2="0"
      x2="1"
      y1="0"
      x1="0"
    >
      <stop
        id="stop78"
        offset="0"
        style="stop-opacity: 1; stop-color: #181c27"
      />
      <stop
        id="stop80"
        offset="0.0045045"
        style="stop-opacity: 1; stop-color: #181c27"
      />
      <stop
        id="stop82"
        offset="0.21935392"
        style="stop-opacity: 1; stop-color: #181c27"
      />
      <stop
        id="stop84"
        offset="1"
        style="stop-opacity: 1; stop-color: #1c2a48"
      />
    </linearGradient>
    <clipPath id="clipPath100" clipPathUnits="userSpaceOnUse">
      <path
        id="path98"
        d="m 2111.42,2676.05 c -34.63,-32.14 -73.57,-67.83 -74.9,-115.06 -1.1,-39.53 18.2,-80.18 48.86,-105.17 120.99,-98.63 286.28,-173.72 432.01,-231.04 127.91,-50.32 124.75,-42.09 260.54,-63.39 113.66,-17.83 165.24,49.1 306.81,106.88 160.85,65.67 415.27,59.17 692.52,30.8 237.82,-24.33 271.11,-4.25 286.36,57.09 0.5,185.2 -138.57,311.86 -230.96,352.02 -68.15,29.62 -976.56,206.68 -1432.37,114.09 -47.06,-9.56 -162.03,-28.46 -288.87,-146.22 z"
      />
    </clipPath>
    <linearGradient
      id="linearGradient108"
      spreadMethod="pad"
      gradientTransform="matrix(125.336,715.46,715.46,-125.336,2993.58,2138.77)"
      gradientUnits="userSpaceOnUse"
      y2="0"
      x2="1"
      y1="0"
      x1="0"
    >
      <stop
        id="stop102"
        offset="0"
        style="stop-opacity: 1; stop-color: #263c70"
      />
      <stop
        id="stop104"
        offset="0.20184533"
        style="stop-opacity: 1; stop-color: #263c70"
      />
      <stop
        id="stop106"
        offset="1"
        style="stop-opacity: 1; stop-color: #1c2a48"
      />
    </linearGradient>
    <clipPath id="clipPath124" clipPathUnits="userSpaceOnUse">
      <path
        id="path122"
        d="m 2619.72,1773.69 c 63.26,-144.82 212.69,-280.31 271.64,-298 58.95,-17.68 117.96,-21.49 152.18,15.87 11.28,12.32 26.13,35.88 28.33,55.07 5.89,51.23 -17.73,89.29 -39.66,136.86 -92.62,200.78 -62.4,443.3 24.34,646.7 8.03,18.81 14.87,44.95 -2.24,56.17 -14.69,9.65 -33.53,-1.19 -49.38,-8.78 -37.81,-18.08 -83.45,-16.6 -121.92,-0.02 -38.48,16.58 -69.95,47.26 -91.51,83.19 -7.14,11.91 -13.44,24.62 -23.38,34.32 -9.95,9.69 -24.79,15.9 -37.89,11.29 -13.76,-4.85 -21.14,-19.43 -26.98,-32.8 -14.84,-33.91 -28.81,-68.77 -51.36,-98.14 -22.55,-29.37 -67.51,-48.49 -104.49,-50.54 -27.21,-1.51 -80.24,65.33 -96.7,27.62 -6.12,-13.98 -3.35,-57.61 -0.29,-71.06 5.8,-25.58 11.97,-51.07 18.52,-76.46 27.21,-105.55 88.6,-288.94 150.79,-431.29 z"
      />
    </clipPath>
    <linearGradient
      id="linearGradient134"
      spreadMethod="pad"
      gradientTransform="matrix(436.416,755.895,755.895,-436.416,2589.69,1646.79)"
      gradientUnits="userSpaceOnUse"
      y2="0"
      x2="1"
      y1="0"
      x1="0"
    >
      <stop
        id="stop126"
        offset="0"
        style="stop-opacity: 1; stop-color: #ca3422"
      />
      <stop
        id="stop128"
        offset="0.00900901"
        style="stop-opacity: 1; stop-color: #ca3422"
      />
      <stop
        id="stop130"
        offset="0.62134796"
        style="stop-opacity: 1; stop-color: #ec4321"
      />
      <stop
        id="stop132"
        offset="1"
        style="stop-opacity: 1; stop-color: #ec4321"
      />
    </linearGradient>
    <clipPath id="clipPath144" clipPathUnits="userSpaceOnUse">
      <path
        id="path142"
        d="m 3905.16,1973.35 c -21.63,-41.55 -32.1,-132.43 -16.01,-191.85 5.26,-19.43 8.41,-28.05 26.33,-37.23 30.27,-15.51 65.57,-25.79 97.94,-29.27 71.23,-7.64 128.42,-72.89 200.06,-73.01 15.05,-0.02 30.84,3.32 42.1,13.31 19.12,16.98 19.14,46.19 19.08,71.77 -0.47,180.85 67.97,354.77 149.23,516.33 17.19,34.2 35.17,68.33 59.16,98.15 23.21,28.88 51.86,53.5 71.51,84.92 5.95,9.52 10.21,20.23 10.26,31.46 0.1,21.12 -36.64,14.37 -44.22,10.27 -24.18,-13.07 -55.79,3.94 -68.27,28.44 -12.47,24.49 -11.09,53.45 -9.42,80.89 2.14,35 10.17,78.83 2.07,97.86 -8.09,19.03 -91.53,-36.61 -139.47,-58.48 -32.71,-14.93 -67.19,-30.18 -103.04,-27.51 -8.93,0.67 -18.04,2.55 -25.53,7.49 -26.75,17.6 -23.96,66.14 -54.47,75.9 -24.26,7.76 -46.08,-16.83 -58.11,-39.28 -50.85,-94.96 -65.52,-205.02 -69.56,-312.65 -4.03,-107.64 32.1,-232.42 35.26,-338.84 -36.89,-0.86 -112.3,15.54 -124.9,-8.67 z"
      />
    </clipPath>
    <linearGradient
      id="linearGradient154"
      spreadMethod="pad"
      gradientTransform="matrix(0,1037.3,1037.3,0,4223.08,1642)"
      gradientUnits="userSpaceOnUse"
      y2="0"
      x2="1"
      y1="0"
      x1="0"
    >
      <stop
        id="stop146"
        offset="0"
        style="stop-opacity: 1; stop-color: #ca3422"
      />
      <stop
        id="stop148"
        offset="0.00900901"
        style="stop-opacity: 1; stop-color: #ca3422"
      />
      <stop
        id="stop150"
        offset="0.62134796"
        style="stop-opacity: 1; stop-color: #ec4321"
      />
      <stop
        id="stop152"
        offset="1"
        style="stop-opacity: 1; stop-color: #ec4321"
      />
    </linearGradient>
    <clipPath id="clipPath200" clipPathUnits="userSpaceOnUse">
      <path
        id="path198"
        d="m 2318.79,3780.77 c 8.54,2.06 -19.76,348.3 -141.76,259.18 -350.2,-255.84 -724.53,-822.46 -735.86,-1079.36 -2.84,-64.21 403.48,-164.32 995.17,8.97 94.18,27.58 450.83,-130.15 474,-103.68 23.17,26.46 -110,264.61 -407.42,327.19 -124.47,26.19 -559.5,-13 -572.31,4.78 -12.82,17.77 285.77,558.17 388.18,582.92 z"
      />
    </clipPath>
    <linearGradient
      id="linearGradient210"
      spreadMethod="pad"
      gradientTransform="matrix(186.39,-922.394,-922.394,-186.39,1985.22,3867.86)"
      gradientUnits="userSpaceOnUse"
      y2="0"
      x2="1"
      y1="0"
      x1="0"
    >
      <stop
        id="stop202"
        offset="0"
        style="stop-opacity: 1; stop-color: #181c27"
      />
      <stop
        id="stop204"
        offset="0.0045045"
        style="stop-opacity: 1; stop-color: #181c27"
      />
      <stop
        id="stop206"
        offset="0.87159288"
        style="stop-opacity: 1; stop-color: #1c2a48"
      />
      <stop
        id="stop208"
        offset="1"
        style="stop-opacity: 1; stop-color: #1c2a48"
      />
    </linearGradient>
    <clipPath id="clipPath234" clipPathUnits="userSpaceOnUse">
      <path
        id="path232"
        d="m 3378.27,4732.61 c -8.21,92.12 -21.05,225.56 -67.63,336.62 -72.12,172 -157.83,253.43 -265.24,291.55 -191.27,67.9 -398.63,49.6 -572.4,-55.29 -15.63,-9.43 -31,-19.4 -45.71,-30.21 -8.03,55.95 -16.19,111.88 -24.26,167.83 -1.07,7.42 -3.83,16.6 -11.26,17.54 -4.86,0.61 -9.2,-2.86 -12.71,-6.26 -31.96,-30.97 -49.92,-74.45 -55.65,-118.59 -5.73,-44.12 0.01,-89.05 10.14,-132.38 -28.92,38.92 -55.31,79.72 -78.94,122.05 -7.26,13 -13.43,-65.31 -13.14,-68.1 3.06,-29.72 7.21,-63.41 20.06,-90.78 10.57,-22.51 15.67,-33.05 36.06,-41.58 -6.14,-14.42 -34.03,-69.24 -39.3,-83.92 -49.51,-137.86 -78.15,-258.03 -58.53,-403.19 19.62,-145.17 83.95,-286.17 190.72,-386.45 89.25,-83.83 191,-125.6 309.86,-155 48.79,-12.08 151.54,-26.11 201.77,-24.6 48.83,1.45 234.07,-4.36 328.02,63.58 157.72,114.07 223.15,306.69 217.48,361.78 -14.37,139.31 -62.6,159.83 -69.34,235.4 z"
      />
    </clipPath>
    <linearGradient
      id="linearGradient244"
      spreadMethod="pad"
      gradientTransform="matrix(1066.24,-368.963,-368.963,-1066.24,2212.2,4954.77)"
      gradientUnits="userSpaceOnUse"
      y2="0"
      x2="1"
      y1="0"
      x1="0"
    >
      <stop
        id="stop236"
        offset="0"
        style="stop-opacity: 1; stop-color: #181c27"
      />
      <stop
        id="stop238"
        offset="0.0045045"
        style="stop-opacity: 1; stop-color: #181c27"
      />
      <stop
        id="stop240"
        offset="0.14530668"
        style="stop-opacity: 1; stop-color: #181c27"
      />
      <stop
        id="stop242"
        offset="1"
        style="stop-opacity: 1; stop-color: #1c2a48"
      />
    </linearGradient>
    <clipPath id="clipPath286" clipPathUnits="userSpaceOnUse">
      <path
        id="path284"
        d="m 2767.73,4332.78 c 59.56,-70.21 166.18,-145.46 294.29,-216.28 75.19,-41.57 118.99,-52.83 141.71,-52.46 22.73,0.38 31.9,32.23 19.43,59.46 -118.91,259.8 -19.14,332.27 -44.18,342.49 -10.78,4.4 -424.22,-52.35 -444.07,-48.16 -47.14,9.98 -32.95,-7.51 32.82,-85.05 z"
      />
    </clipPath>
    <linearGradient
      id="linearGradient296"
      spreadMethod="pad"
      gradientTransform="matrix(109.736,-450.776,-450.776,-109.736,2951.01,4413.16)"
      gradientUnits="userSpaceOnUse"
      y2="0"
      x2="1"
      y1="0"
      x1="0"
    >
      <stop
        id="stop288"
        offset="0"
        style="stop-opacity: 1; stop-color: #91201e"
      />
      <stop
        id="stop290"
        offset="0.0135135"
        style="stop-opacity: 1; stop-color: #91201e"
      />
      <stop
        id="stop292"
        offset="0.90599493"
        style="stop-opacity: 1; stop-color: #ec4321"
      />
      <stop
        id="stop294"
        offset="1"
        style="stop-opacity: 1; stop-color: #ec4321"
      />
    </linearGradient>
    <clipPath id="clipPath310" clipPathUnits="userSpaceOnUse">
      <path
        id="path308"
        d="m 3288.46,4489.04 c -67.97,24.91 -127.61,100.42 -163.4,112.2 -35.79,11.78 -71.8,13.89 -102.64,-7.75 -17.81,-12.5 -36.51,-34.27 -50.68,-50.77 -55.98,-65.18 -120.27,-114.31 -206.03,-119.57 -27.74,-1.7 -57.32,16.61 -70.37,2.71 -12.39,-13.21 30.36,-30.01 57.65,-37.11 91.3,-23.8 261.37,-64.09 381.89,-75.41 138.53,-13.02 207.16,-5.42 306.98,-1.09 37.55,1.63 76.55,-10.15 82.17,3.57 23.37,56.96 -85.1,118.1 -235.57,173.22 z"
      />
    </clipPath>
    <linearGradient
      id="linearGradient322"
      spreadMethod="pad"
      gradientTransform="matrix(405.574,576.152,576.152,-405.574,2924.44,4107.59)"
      gradientUnits="userSpaceOnUse"
      y2="0"
      x2="1"
      y1="0"
      x1="0"
    >
      <stop
        id="stop312"
        offset="0"
        style="stop-opacity: 1; stop-color: #ca3422"
      />
      <stop
        id="stop314"
        offset="0.41852501"
        style="stop-opacity: 1; stop-color: #ca3422"
      />
      <stop
        id="stop316"
        offset="0.713837"
        style="stop-opacity: 1; stop-color: #ec4321"
      />
      <stop
        id="stop318"
        offset="0.99415811"
        style="stop-opacity: 1; stop-color: #ca3422"
      />
      <stop
        id="stop320"
        offset="1"
        style="stop-opacity: 1; stop-color: #ca3422"
      />
    </linearGradient>
    <clipPath id="clipPath340" clipPathUnits="userSpaceOnUse">
      <path
        id="path338"
        d="m 3641.14,4134.46 c 0.28,0.4 0.55,0.79 0.81,1.2 1.99,3.02 2.8,4.82 2.8,4.82 v 0 c 6.5,12.55 9.77,28.69 8.4,46.38 -3.17,41 -29.93,74.33 -59.56,73.79 -81.72,-3.22 -160.68,-70.68 -160.68,-70.68 l 32.07,-121.68 c 112.25,2.77 157.32,42.25 172.83,61.69 0.48,0.58 0.94,1.18 1.4,1.79 0.73,0.97 1.36,1.86 1.93,2.69 z"
      />
    </clipPath>
    <linearGradient
      id="linearGradient350"
      spreadMethod="pad"
      gradientTransform="matrix(220.554,0,0,-220.554,3432.91,4164.47)"
      gradientUnits="userSpaceOnUse"
      y2="0"
      x2="1"
      y1="0"
      x1="0"
    >
      <stop
        id="stop342"
        offset="0"
        style="stop-opacity: 1; stop-color: #181c27"
      />
      <stop
        id="stop344"
        offset="0.0045045"
        style="stop-opacity: 1; stop-color: #181c27"
      />
      <stop
        id="stop346"
        offset="0.47900188"
        style="stop-opacity: 1; stop-color: #1c2a48"
      />
      <stop
        id="stop348"
        offset="1"
        style="stop-opacity: 1; stop-color: #1c2a48"
      />
    </linearGradient>
  </defs>
  <g transform="matrix(1.3333333,0,0,-1.3333333,0,800)" id="g10">
    <g transform="scale(0.1)" id="g12">
      <g id="g16">
        <g clip-path="url(#clipPath22)" id="g18">
          <path
            id="path32"
            style="
              fill: url(#linearGradient30);
              fill-opacity: 1;
              fill-rule: nonzero;
              stroke: none;
            "
            d="m 1246.86,1199.44 c 41.4,-70.34 85.96,-160.83 166.9,-171.33 31.46,-4.09 150.13,-0.9 215.31,32.27 120.11,-190.181 195.4,-303.36 399.23,-398.482 99.1,-46.25 209.22,-64.238 309.82,-107.148 191.79,-81.828 335.52,-247.75 519.5,-345.879 80.85,-43.133 178.66,-72.531 263.11,-37 57.81,24.309 99.57,74.988 138.93,123.801 117.98,146.316 235.96,292.629 353.92,438.949 153.29,-65.332 318.43,-102.73 484.91,-109.801 60.96,159.961 128.33,328.629 265.4,431.16 47.78,35.73 102.31,61.87 148.92,99.11 114.51,91.45 252.75,217.71 301,356.09 31.34,89.88 23.21,206.41 23.21,297.39 0,0 -214.63,121.32 -299.17,150.32 -561.34,192.48 -1175.8,128.27 -1761.02,29.99 -426.94,-71.7 -853.44,-160.63 -1287.24,-177.47 -121.56,-4.72 -500.785,29.49 -500.785,29.49 -16.809,-161.59 180.445,-509.58 258.055,-641.46"
          />
        </g>
      </g>
      <path
        id="path34"
        style="fill: #c3ebf4; fill-opacity: 1; fill-rule: nonzero; stroke: none"
        d="m 988.805,1840.9 c 19.735,-169.41 203.055,-261.55 361.905,-323.62 102.37,-40 204.73,-80 307.1,-120 118.74,-46.41 238.02,-92.97 362.36,-121.15 181.27,-41.07 368.9,-42.13 554.77,-42.98 357.66,-1.65 721.13,-2.51 1064.68,97.03 106.28,30.79 210.57,71.17 320.23,85.93 109.66,14.76 228.9,0.65 315.93,-67.69 141.83,134.66 561.24,383.23 561.24,460.15 -264.15,295.76 -525.37,393.88 -915.98,461.73 -219.9,38.19 -443.28,-20.56 -662.82,-60.69 -408.69,-74.69 -828.87,-84.8 -1240.76,-30.72 -213.01,27.96 -305.73,32.92 -508.84,-54.83 -181.37,-78.36 -355.64,-173.23 -519.815,-283.16"
      />
      <path
        id="path36"
        style="fill: #c3ebf4; fill-opacity: 1; fill-rule: nonzero; stroke: none"
        d="m 4103.73,871.199 c 14.9,79.813 36.31,348.801 101.41,398.241 -208.28,-158.21 -396.28,-343.049 -558.18,-548.479 135.79,-53.719 280.1,-85.832 425.85,-94.75 -0.97,8.699 -1.52,18.859 -1.46,31.5 0.34,69.687 19.62,145.187 32.38,213.488"
      />
      <path
        id="path38"
        style="fill: #c3ebf4; fill-opacity: 1; fill-rule: nonzero; stroke: none"
        d="m 3081.61,455.23 c 4.02,192.801 9.01,385.571 13.51,578.34 0.59,25.76 0.11,54.47 -17.7,73.08 -21.03,21.96 -58.18,19.53 -84.43,4.17 -26.25,-15.36 -480.96,-228.039 -635.65,-84.14 32.51,-112.188 65.03,-224.379 97.55,-336.559 13.11,-45.262 26.25,-90.57 43.2,-134.539 19.67,-51.07 44.75,-99.953 74.33,-145.922 92.76,-70.469 182.74,-146.129 285.2,-200.789 80.85,-43.133 178.66,-72.531 263.11,-37 1.96,0.82 3.83,1.738 5.74,2.609 -7.25,22.211 -15.91,43.2 -19.81,57.692 -20.82,77.48 -26.73,142.547 -25.05,223.058"
      />
      <path
        id="path40"
        style="fill: #c3ebf4; fill-opacity: 1; fill-rule: nonzero; stroke: none"
        d="m 1076.32,1581.36 c -10.65,4.08 -20.28,7.01 -29.16,9.1 60.63,-149.86 152.38,-310.61 199.7,-391.02 37.89,-64.37 78.52,-145.44 147.16,-166.8 -17.3,84.71 -45.8,167.16 -84.11,244.66 -43.68,88.36 -135.26,266.37 -233.59,304.06"
      />
      <path
        id="path42"
        style="fill: #c3ebf4; fill-opacity: 1; fill-rule: nonzero; stroke: none"
        d="m 1601.77,1049.1 c 9.77,3.31 18.98,7.04 27.3,11.28 120.11,-190.181 195.4,-303.36 399.23,-398.482 42.69,-19.929 87.43,-34.597 132.57,-48.289 -161.76,220.321 -330.23,435.701 -505.41,645.491 -92.88,111.23 -70.07,-96.73 -53.69,-210"
      />
      <path
        id="path44"
        style="fill: #9ccdda; fill-opacity: 1; fill-rule: nonzero; stroke: none"
        d="m 1510.03,1923.33 c 9.5,-4.73 71.53,-34.18 81.03,-38.92 -71.38,-7.66 -186.48,-21.79 -256.2,-38.9 392.3,-134.42 374.58,-205.68 993.52,-221.54 0,0 121.3,-138.86 609.83,-161.24 179.39,-8.21 40.31,162.71 108.29,170.82 441.2,52.69 770.02,35.89 1164.3,9.07 21.04,-1.43 6.49,67.72 -16.25,89.22 -45.67,43.15 -105.18,68.19 -164.08,90.08 -410.21,152.48 -852.54,194.36 -1289.66,215.53 -173.31,8.39 -348.7,12.75 -520.54,-15.58 -83.95,-13.84 -167.74,-35.32 -245.94,-69.28 -61.09,-26.53 -17.79,72.03 -82.82,52.75 -102.5,-30.38 -277.3,-58.03 -381.48,-82.01"
      />
      <path
        id="path46"
        style="fill: #e2f6fb; fill-opacity: 1; fill-rule: nonzero; stroke: none"
        d="m 1350.71,1517.28 c 102.37,-40 204.73,-80 307.1,-120 118.74,-46.41 238.02,-92.97 362.36,-121.15 181.27,-41.07 368.9,-42.13 554.77,-42.98 357.66,-1.65 721.13,-2.51 1064.68,97.03 106.28,30.79 210.57,71.17 320.23,85.93 109.66,14.76 228.9,0.65 315.93,-67.69 141.83,134.66 561.24,383.23 561.24,460.15 -15.78,17.67 -31.55,34.59 -47.33,50.88 6.65,-50.88 -388.45,-298.29 -663.5,-314.65 -74.36,-4.42 -147.93,10.55 -221.66,-0.05 -233.9,-33.64 -467.81,-67.27 -701.72,-100.9 8.39,-50.31 -682.6,-165.39 -884.62,-161.79 0,0 -15.37,143.63 -157.32,167.87 -143.01,24.43 -563.44,40.25 -688.13,114.42 -124.69,74.17 -425.58,52.78 -474.756,282.54 -3.043,-2.02 -6.144,-3.96 -9.179,-5.99 19.735,-169.41 203.055,-261.55 361.905,-323.62"
      />
      <g id="g48">
        <g clip-path="url(#clipPath54)" id="g50">
          <path
            id="path66"
            style="
              fill: url(#linearGradient64);
              fill-opacity: 1;
              fill-rule: nonzero;
              stroke: none;
            "
            d="m 2792.92,3756.52 c -7.51,3.33 73.37,247.44 208.36,191.49 108.9,-45.14 571.42,-510.54 625.72,-760.35 13.61,-62.55 5.17,-158.21 -164.34,-146.99 -91.87,6.09 -359.5,-182.77 -377.92,-153.47 -18.44,29.28 35.43,285.97 210.03,349.58 26.95,9.82 -17.96,15.26 26.95,9.82 21.5,-2.6 -430.77,466.36 -528.8,509.92"
          />
        </g>
      </g>
      <path
        id="path68"
        style="fill: #e2f6fb; fill-opacity: 1; fill-rule: nonzero; stroke: none"
        d="m 3926.02,1958.9 c -10.19,173.12 -70.99,339.76 -148.22,467.41 -84.68,140.01 -163.25,183.97 -303.48,246.99 -34.88,15.67 -119.69,92.63 -147.08,155.24 -98.44,225 -125.69,460.38 -203.92,693.18 -37.98,112.99 -120.02,320.79 -137.83,395.72 -10.16,42.74 -143.41,243.84 -243.81,289.8 -81.75,37.43 -172.05,64.05 -261.04,51.16 -88.98,-12.9 -116.1,6.35 -138.09,-80.84 -177.03,-324.09 -363.9,-563.84 -444.92,-1020.19 -48.34,-272.29 -60.14,-550.17 -35.99,-825.67 6.03,-68.81 13.76,-138.18 36.37,-203.45 38.17,-110.13 116.6,-249.73 192.67,-338.06 48.58,-56.41 97.69,-65.44 161.86,-103.18 75.49,-44.39 164.7,-57.96 251.67,-68.11 153.51,-17.93 283.57,-79.77 422.85,-12.78 116.37,55.98 236,137.19 363.98,154.3 100.78,13.48 239.34,30.05 337.88,4.99 98.52,-25.06 297.73,-60.18 308.43,2.34 5.87,34.28 -9.29,156.44 -11.33,191.15"
      />
      <g id="g70">
        <g clip-path="url(#clipPath76)" id="g72">
          <path
            id="path88"
            style="
              fill: url(#linearGradient86);
              fill-opacity: 1;
              fill-rule: nonzero;
              stroke: none;
            "
            d="m 3013.48,4095.25 c -45.08,76.71 -104.48,97.79 -184.38,136.9 -117.73,57.61 -504.9,310.69 -526.43,181.4 -36.25,-217.69 -167.89,-435.25 -168.65,-436.64 -170.16,-240.33 -271.25,-529.25 -318.51,-821.51 -58.47,-361.53 -39.99,-730.91 -8.64,-1095.8 -69.11,-3.76 -138.21,-7.52 -207.3,-11.29 48.91,-40.71 106.91,-70.46 168.52,-86.42 -91.85,-49.3 -181.96,-101.84 -270.12,-157.48 86.59,-19.26 174.81,-31.22 263.4,-35.7 -28.06,-5.37 -54.78,-17.66 -77.11,-35.49 121.71,-46.87 252.93,-68.89 383.28,-64.33 28.58,0.99 57.67,3.21 85.42,-3.69 25.73,-6.41 48.84,-20.3 72.18,-32.9 185.87,-100.25 411.52,-124.08 614.23,-64.87 12.28,3.59 24.8,7.65 34.64,15.82 21.87,18.19 24.14,51.51 16.66,78.95 -20.48,75.13 -21.03,130 -83.45,176.55 -138.44,103.23 -356.56,400.16 -391.75,518.02 -35.2,117.87 -75.77,226.5 -86.63,419.72 -12.44,221.45 -12.89,450.73 32,667.94 16.79,81.21 38.74,161.43 67.7,239.13 33.29,89.32 49.6,158.66 131.43,207.55 81.83,48.89 242.1,-3.81 287.37,-87.7 15.65,59.51 125.29,128.59 150.8,59.8 0.82,-2.24 5.22,7.47 6.67,5.34 -45.57,135.77 15.17,215.63 8.67,226.7"
          />
        </g>
      </g>
      <path
        id="path90"
        style="fill: #9ccdda; fill-opacity: 1; fill-rule: nonzero; stroke: none"
        d="m 3967.15,1760.63 c -10.26,-0.8 -56.23,-27.68 -138.3,-23.85 -77.3,3.59 -152.1,31.01 -229.03,40.38 -118.52,14.43 -246.21,13.86 -363.81,-16.2 127.7,99.86 219.77,249.27 260.04,391.1 3.38,11.9 -3.4,12.25 -8.41,2 -50.56,-103.34 -102.75,-200.5 -181.85,-285.38 -78.84,-84.62 -159.34,-147.97 -276.86,-199 -7.19,-3.12 5.5,-17.19 12.36,-15.01 49.61,15.73 98.53,40.06 145.17,70.69 169.03,32.56 350.51,55.26 523.42,15.97 123.32,-28.02 152.85,-24.72 310.48,10.87 15.29,3.45 -40.99,9.36 -53.21,8.43"
      />
      <path
        id="path92"
        style="fill: #9ccdda; fill-opacity: 1; fill-rule: nonzero; stroke: none"
        d="m 3977.89,1851.29 c -42.07,68.91 -46.39,129.58 -61.49,208.08 0,0 -30.22,173.38 -64.95,250.51 -89.17,198.03 -413.26,377.39 -356.16,333.33 113.32,-87.42 239.71,-169.52 314.17,-294.08 49.28,-82.43 70.95,-185.69 88.87,-279.09 14.99,-78.07 14.2,-158.99 58.16,-226.85 6.24,-9.64 27.58,-2.02 21.4,8.1"
      />
      <g id="g94">
        <g clip-path="url(#clipPath100)" id="g96">
          <path
            id="path110"
            style="
              fill: url(#linearGradient108);
              fill-opacity: 1;
              fill-rule: nonzero;
              stroke: none;
            "
            d="m 2111.42,2676.05 c -34.63,-32.14 -73.57,-67.83 -74.9,-115.06 -1.1,-39.53 18.2,-80.18 48.86,-105.17 120.99,-98.63 286.28,-173.72 432.01,-231.04 127.91,-50.32 124.75,-42.09 260.54,-63.39 113.66,-17.83 165.24,49.1 306.81,106.88 160.85,65.67 415.27,59.17 692.52,30.8 237.82,-24.33 271.11,-4.25 286.36,57.09 0.5,185.2 -138.57,311.86 -230.96,352.02 -68.15,29.62 -976.56,206.68 -1432.37,114.09 -47.06,-9.56 -162.03,-28.46 -288.87,-146.22"
          />
        </g>
      </g>
      <path
        id="path112"
        style="fill: #181c27; fill-opacity: 1; fill-rule: nonzero; stroke: none"
        d="m 2189.5,2624.82 c -20.11,-10.33 -37.12,-26.28 -51.73,-44.09 0.28,15.59 2.74,31.16 7.01,46.56 2.03,7.35 -7.26,8.63 -10.35,2.79 -13.01,-24.57 -19.18,-51.39 -18,-78.76 -0.42,-0.66 -0.88,-1.31 -1.3,-1.96 -14.36,-22.29 -35.12,-54.18 -12.4,-77.58 4.14,-4.26 12.43,2.55 11.04,7.55 -3.91,14.07 -0.17,32.94 6.95,47.33 8.03,-24.15 20.38,-55.52 49.44,-78.76 5.95,-4.76 9.24,1.81 6.87,8.8 -9.13,27.01 -25.73,50.93 -33.69,79.46 -1.49,5.35 -2.57,10.73 -3.46,16.11 19.11,24.1 43.2,46.57 55.69,64.33 3.02,4.3 -0.62,11.02 -6.07,8.22"
      />
      <path
        id="path114"
        style="fill: #181c27; fill-opacity: 1; fill-rule: nonzero; stroke: none"
        d="m 2372.42,2540.48 c 1.28,1.42 1.58,4.4 -0.81,4.93 -26.08,5.79 -55.54,-18.99 -73.4,-39.83 -2.13,19.34 -1.66,38.31 3.43,59.02 0.89,3.67 -3.01,5.81 -6.09,4.05 -26.66,-15.24 -24.09,-46.9 -20.97,-74.21 0.72,-6.31 1.43,-13.33 2.3,-20.7 -12,-23.76 -17.72,-50.89 -11.13,-76.75 1.79,-6.99 12.39,-1.73 13.4,3.17 1.9,9.39 3.95,18.58 6.33,27.59 4.98,-16.74 12.51,-31.77 24.59,-41.04 3.14,-2.41 10.27,1.11 9.53,4.63 -6.79,32.15 -8.72,50.21 -14.52,75.68 -0.52,2.26 -0.96,4.45 -1.44,6.66 2.78,4.81 5.76,9.56 9.24,14.17 16.77,22.21 41.63,32.79 59.54,52.63"
      />
      <path
        id="path116"
        style="fill: #181c27; fill-opacity: 1; fill-rule: nonzero; stroke: none"
        d="m 2570.99,2442.72 c 2.75,3.01 4.15,10.21 -1.75,10.7 -25.94,2.14 -57.06,-19.35 -81.76,-37.87 -3.4,21.49 -4.75,43.1 -2.68,65.15 0.48,5.08 -5.98,4.16 -7.83,0.92 -14.28,-25.02 -15.22,-54.67 -12.13,-83.03 -23.34,-17.24 -46.85,-38.52 -45.99,-69.58 0.17,-6.21 8.18,-1.3 9.48,1.45 9.48,20.11 23.5,33.8 39.62,45.71 4.7,-29.23 13.29,-68.37 39,-82.44 3.3,-1.81 7.54,2.26 7.8,5.38 2.39,28.66 -14.03,56.45 -20.73,84 -0.74,3.07 -1.43,6.14 -2.11,9.2 3.05,1.95 6.1,3.88 9.19,5.86 22.62,14.48 51.8,24.75 69.89,44.55"
      />
      <g id="g118">
        <g clip-path="url(#clipPath124)" id="g120">
          <path
            id="path136"
            style="
              fill: url(#linearGradient134);
              fill-opacity: 1;
              fill-rule: nonzero;
              stroke: none;
            "
            d="m 2619.72,1773.69 c 63.26,-144.82 212.69,-280.31 271.64,-298 58.95,-17.68 117.96,-21.49 152.18,15.87 11.28,12.32 26.13,35.88 28.33,55.07 5.89,51.23 -17.73,89.29 -39.66,136.86 -92.62,200.78 -62.4,443.3 24.34,646.7 8.03,18.81 14.87,44.95 -2.24,56.17 -14.69,9.65 -33.53,-1.19 -49.38,-8.78 -37.81,-18.08 -83.45,-16.6 -121.92,-0.02 -38.48,16.58 -69.95,47.26 -91.51,83.19 -7.14,11.91 -13.44,24.62 -23.38,34.32 -9.95,9.69 -24.79,15.9 -37.89,11.29 -13.76,-4.85 -21.14,-19.43 -26.98,-32.8 -14.84,-33.91 -28.81,-68.77 -51.36,-98.14 -22.55,-29.37 -67.51,-48.49 -104.49,-50.54 -27.21,-1.51 -80.24,65.33 -96.7,27.62 -6.12,-13.98 -3.35,-57.61 -0.29,-71.06 5.8,-25.58 11.97,-51.07 18.52,-76.46 27.21,-105.55 88.6,-288.94 150.79,-431.29"
          />
        </g>
      </g>
      <g id="g138">
        <g clip-path="url(#clipPath144)" id="g140">
          <path
            id="path156"
            style="
              fill: url(#linearGradient154);
              fill-opacity: 1;
              fill-rule: nonzero;
              stroke: none;
            "
            d="m 3905.16,1973.35 c -21.63,-41.55 -32.1,-132.43 -16.01,-191.85 5.26,-19.43 8.41,-28.05 26.33,-37.23 30.27,-15.51 65.57,-25.79 97.94,-29.27 71.23,-7.64 128.42,-72.89 200.06,-73.01 15.05,-0.02 30.84,3.32 42.1,13.31 19.12,16.98 19.14,46.19 19.08,71.77 -0.47,180.85 67.97,354.77 149.23,516.33 17.19,34.2 35.17,68.33 59.16,98.15 23.21,28.88 51.86,53.5 71.51,84.92 5.95,9.52 10.21,20.23 10.26,31.46 0.1,21.12 -36.64,14.37 -44.22,10.27 -24.18,-13.07 -55.79,3.94 -68.27,28.44 -12.47,24.49 -11.09,53.45 -9.42,80.89 2.14,35 10.17,78.83 2.07,97.86 -8.09,19.03 -91.53,-36.61 -139.47,-58.48 -32.71,-14.93 -67.19,-30.18 -103.04,-27.51 -8.93,0.67 -18.04,2.55 -25.53,7.49 -26.75,17.6 -23.96,66.14 -54.47,75.9 -24.26,7.76 -46.08,-16.83 -58.11,-39.28 -50.85,-94.96 -65.52,-205.02 -69.56,-312.65 -4.03,-107.64 32.1,-232.42 35.26,-338.84 -36.89,-0.86 -112.3,15.54 -124.9,-8.67"
          />
        </g>
      </g>
      <path
        id="path158"
        style="fill: #ca3422; fill-opacity: 1; fill-rule: nonzero; stroke: none"
        d="m 2725.17,2277.35 c 9.59,-47.77 21.61,-94.29 39.58,-138.39 -5.87,40.96 -5.98,83.27 -4.88,122.46 2.08,73.82 9.92,147.79 18.06,221.57 -2.94,4.29 -6.08,8.44 -9.81,12.08 -9.95,9.69 -24.79,15.9 -37.89,11.29 -12.78,-4.49 -20.03,-17.4 -25.69,-29.92 6.57,-66.43 7.45,-133.4 20.63,-199.09"
      />
      <path
        id="path160"
        style="fill: #ca3422; fill-opacity: 1; fill-rule: nonzero; stroke: none"
        d="m 2665.39,2040.58 c -33.99,115.99 -94.33,226.48 -175.01,314.52 -16.91,9.99 -32.14,14.69 -39.68,-2.59 -4.44,-10.16 -4.19,-35.89 -2.56,-54.4 11,-4.15 162.57,-176.22 217.25,-257.53"
      />
      <path
        id="path162"
        style="fill: #ca3422; fill-opacity: 1; fill-rule: nonzero; stroke: none"
        d="m 2993.61,2258.37 c 22.29,35.65 46.34,70.13 71.21,104.01 0.3,9.78 -2.32,18.61 -10.51,23.98 -9.12,5.98 -19.85,4.07 -30.46,-0.06 -52.94,-88.58 -96.81,-179.22 -108.9,-281.97 26.57,51 48.06,105.08 78.66,154.04"
      />
      <path
        id="path164"
        style="fill: #ec4321; fill-opacity: 1; fill-rule: nonzero; stroke: none"
        d="m 2992.21,1802.45 c -26.16,37.79 -56.05,74.19 -91,102.82 -22.23,18.22 -47.6,29.73 -72.49,42.2 -7.91,-3.31 -11.83,-8.82 -12.56,-15.84 2.09,-1.95 4.15,-4.07 6.13,-6.48 48.38,-58.75 104.98,-110.31 152.86,-169.71 19.94,-24.75 43.91,-54.04 63.56,-85.76 -2.17,4.53 -4.34,9.11 -6.5,13.81 -17.68,38.32 -30.83,78.16 -40,118.96"
      />
      <path
        id="path166"
        style="fill: #ec4321; fill-opacity: 1; fill-rule: nonzero; stroke: none"
        d="m 4220.74,2036.83 c -13.58,22.4 -28.79,43.88 -48.06,61.8 -7.69,7.14 -16.5,11.59 -25.21,15.92 4.19,-14.94 8.4,-29.87 12.61,-44.8 29.3,-61.75 60.71,-122.7 85.52,-187.03 13.61,-35.32 25.18,-77.44 29.88,-120.04 1.99,42.86 7.71,85.3 16.35,127.26 -19.35,52.68 -44.76,103.43 -71.09,146.89"
      />
      <path
        id="path168"
        style="fill: #ca3422; fill-opacity: 1; fill-rule: nonzero; stroke: none"
        d="m 4089.04,2654.19 c 0.61,-5.4 0.63,-11.06 -0.2,-17.02 -0.34,-2.39 -0.55,-4.79 -0.85,-7.17 -1.46,-32.29 -2.95,-64.36 -3.84,-96.32 2.32,-59.46 12.5,-118.79 26.37,-176.91 0.93,24.56 3.51,49.64 8.44,76.02 11.84,63.49 33.74,128.98 36.55,194.44 -8.15,19.05 -14.35,39.59 -33.04,45.56 -11.91,3.81 -23.24,-0.21 -33.11,-7.93 0,-0.92 0.06,-1.82 0.02,-2.78 -0.1,-2.64 -0.22,-5.26 -0.34,-7.89"
      />
      <path
        id="path170"
        style="fill: #ca3422; fill-opacity: 1; fill-rule: nonzero; stroke: none"
        d="m 4443.5,2320.71 c 29.04,30.14 60.87,59.7 95.72,84.41 5.48,6.83 10.67,13.88 15.34,21.35 5.95,9.52 10.21,20.23 10.26,31.46 0.1,21.12 -36.64,14.37 -44.22,10.27 -7.47,-4.03 -15.63,-5.18 -23.72,-4.16 -29.88,-43.83 -56.09,-90.53 -82.09,-135.26 -16.62,-28.6 -29.71,-59.14 -43.53,-89.03 23.27,27.67 47.16,54.95 72.24,80.96"
      />
      <path
        id="path172"
        style="fill: #ca3422; fill-opacity: 1; fill-rule: nonzero; stroke: none"
        d="m 4259.67,2338.91 c 23.68,37.18 46.73,74.64 72.24,110.64 35.18,49.61 72.93,97.19 112.23,143.47 2.5,27.42 6.47,57 2.92,75 -2.42,-1.47 -4.97,-2.87 -7.8,-4.13 -56.08,-24.85 -99.03,-99.22 -128.59,-150.64 -32.38,-56.34 -48.29,-120.14 -57.36,-184.32 2.13,3.33 4.24,6.67 6.36,9.98"
      />
      <path
        id="path174"
        style="fill: #9ccdda; fill-opacity: 1; fill-rule: nonzero; stroke: none"
        d="m 3981.59,2702.72 v 0 l -2.24,41.32 -118.04,-7.09 -539.9,145.32 c -13.35,3.59 -39.29,5.68 -57.93,4.66 l -871.13,-47.43 -133.61,30.83 2.26,-41.53 h 0.07 c 0.33,-1.21 2.8,-2.54 7.68,-3.85 l 652.44,-175.6 c 13.35,-3.6 39.28,-5.69 57.92,-4.67 l 985.16,53.64 c 11.34,0.62 17.27,2.25 17.25,4.23 l 0.08,-0.02 -0.01,0.19"
      />
      <path
        id="path176"
        style="fill: #74aec2; fill-opacity: 1; fill-rule: nonzero; stroke: none"
        d="m 3962.02,2739.69 -985.16,-53.65 c -18.64,-1.02 -44.57,1.07 -57.92,4.67 l -652.44,175.6 c -13.36,3.59 -9.07,7.33 9.57,8.35 l 985.16,53.64 c 18.63,1.02 44.57,-1.07 57.92,-4.67 l 652.44,-175.6 c 13.35,-3.6 9.06,-7.34 -9.57,-8.34"
      />
      <path
        id="path178"
        style="fill: #c3ebf4; fill-opacity: 1; fill-rule: nonzero; stroke: none"
        d="m 3501.42,2744.42 -531.16,-28.92 c -10.05,-0.55 -24.03,0.57 -31.24,2.52 l -351.76,94.68 c -7.2,1.93 -4.89,3.95 5.16,4.5 l 531.15,28.91 c 10.05,0.55 24.04,-0.57 31.23,-2.52 l 351.77,-94.67 c 7.2,-1.94 4.89,-3.95 -5.15,-4.5"
      />
      <path
        id="path180"
        style="fill: #c3ebf4; fill-opacity: 1; fill-rule: nonzero; stroke: none"
        d="m 3081.07,2855.49 -207.77,-11.31 c -3.93,-0.21 -9.41,0.22 -12.22,0.99 l -137.61,37.03 c -2.82,0.76 -1.91,1.55 2.02,1.77 l 207.78,11.3 c 3.93,0.22 9.4,-0.22 12.22,-0.98 l 137.61,-37.03 c 2.81,-0.77 1.91,-1.56 -2.03,-1.77"
      />
      <path
        id="path182"
        style="fill: #9ccdda; fill-opacity: 1; fill-rule: nonzero; stroke: none"
        d="m 3943.02,2761.88 -985.16,-53.65 c -18.64,-1.01 -29.01,15.05 -23.16,35.88 l 285.77,1017.73 c 5.85,20.83 25.69,38.54 44.33,39.55 l 985.16,53.64 c 18.64,1.02 29,-15.04 23.16,-35.87 L 3987.35,2801.43 c -5.85,-20.83 -25.69,-38.54 -44.33,-39.55"
      />
      <path
        id="path184"
        style="fill: #9ccdda; fill-opacity: 1; fill-rule: nonzero; stroke: none"
        d="m 4266.58,3849.96 23.64,-28.15 -44.85,-2.44 -1.6,29.35 22.81,1.24"
      />
      <path
        id="path186"
        style="fill: #9ccdda; fill-opacity: 1; fill-rule: nonzero; stroke: none"
        d="m 2963.14,2686.67 -24.93,29.74 47.82,0.56 -3.11,-29.23 -19.78,-1.07"
      />
      <path
        id="path188"
        style="fill: #74aec2; fill-opacity: 1; fill-rule: nonzero; stroke: none"
        d="m 3966.11,2734.17 -985.15,-53.65 c -18.64,-1.01 -29.01,15.05 -23.16,35.89 l 285.76,1017.72 c 5.85,20.83 25.7,38.54 44.34,39.56 l 985.16,53.64 c 18.64,1.01 29,-15.05 23.15,-35.88 L 4010.45,2773.72 c -5.85,-20.83 -25.69,-38.53 -44.34,-39.55"
      />
      <path
        id="path190"
        style="fill: #e2f6fb; fill-opacity: 1; fill-rule: nonzero; stroke: none"
        d="m 3600.27,3245.67 c 24.98,-72.61 143.69,-45.12 143.69,-45.12 -36.89,-57.1 -97.48,-99.05 -155.24,-102.2 -77.02,-4.19 -119.87,62.19 -95.7,148.28 24.18,86.09 106.21,159.27 183.23,163.47 55.57,3.02 93.35,-30.69 101.01,-82.02 0,0 -29.98,-51.28 -176.99,-82.41"
      />
      <path
        id="path192"
        style="fill: #74aec2; fill-opacity: 1; fill-rule: nonzero; stroke: none"
        d="m 3631.95,3300.05 c -1.92,-16.6 -12.31,1.52 -28.18,-2.41 -15.86,-3.93 -31.18,-28.42 -29.27,-11.81 1.93,16.6 16.34,33.24 32.2,37.17 15.87,3.92 27.17,-6.35 25.25,-22.95"
      />
      <g id="g194">
        <g clip-path="url(#clipPath200)" id="g196">
          <path
            id="path212"
            style="
              fill: url(#linearGradient210);
              fill-opacity: 1;
              fill-rule: nonzero;
              stroke: none;
            "
            d="m 2318.79,3780.77 c 8.54,2.06 -19.76,348.3 -141.76,259.18 -350.2,-255.84 -724.53,-822.46 -735.86,-1079.36 -2.84,-64.21 403.48,-164.32 995.17,8.97 94.18,27.58 450.83,-130.15 474,-103.68 23.17,26.46 -110,264.61 -407.42,327.19 -124.47,26.19 -559.5,-13 -572.31,4.78 -12.82,17.77 285.77,558.17 388.18,582.92"
          />
        </g>
      </g>
      <path
        id="path214"
        style="fill: #74aec2; fill-opacity: 1; fill-rule: nonzero; stroke: none"
        d="m 3717.23,4285.69 c 5.92,-53.04 -110.16,-103.36 -110.16,-103.36 l 9.76,-30.45 c 0,0 58.33,28.73 83.52,61.68 21.17,27.68 16.88,72.13 16.88,72.13"
      />
      <path
        id="path216"
        style="fill: #74aec2; fill-opacity: 1; fill-rule: nonzero; stroke: none"
        d="m 3471.05,4493.87 c 0,0 183.35,-158.92 191.2,-235.85 5.57,-54.6 -4.61,-13.62 19.84,19.89 29.51,40.43 -206.17,265.61 -206.17,265.61 l -4.87,-49.65"
      />
      <path
        id="path218"
        style="fill: #9ccdda; fill-opacity: 1; fill-rule: nonzero; stroke: none"
        d="m 3484.5,4574.79 c 0,0 224.88,-212.17 232.73,-289.1 5.56,-54.6 -110.16,-103.36 -110.16,-103.36 l -12.05,38.3 c 0,0 62.62,23.77 87.07,57.28 29.51,40.43 -206.17,265.61 -206.17,265.61 l 8.58,31.27"
      />
      <path
        id="path220"
        style="fill: #74aec2; fill-opacity: 1; fill-rule: nonzero; stroke: none"
        d="m 2194.69,4950.9 c 0,0 -135.8,294.09 -112.43,349.96 23.37,55.87 413.59,222.25 819.29,109.62 130.13,-36.12 184.39,-158.42 58.8,-92.88 -125.59,65.53 -712.05,73.36 -955.41,-171.91 l 134.23,-202.66 55.52,7.87"
      />
      <path
        id="path222"
        style="fill: #9ccdda; fill-opacity: 1; fill-rule: nonzero; stroke: none"
        d="m 2194.69,4950.9 c 0,0 -135.8,294.09 -112.43,349.96 23.37,55.87 413.59,222.25 819.29,109.62 130.13,-36.12 332.16,-471.27 332.16,-471.27 l 68.07,10.23 c 0,0 -202.59,408.44 -328.18,473.98 -125.59,65.54 -687.77,123.11 -952.01,-97.37 -64.93,-54.18 117.58,-383.02 117.58,-383.02 l 55.52,7.87"
      />
      <path
        id="path224"
        style="fill: #9ccdda; fill-opacity: 1; fill-rule: nonzero; stroke: none"
        d="m 3501.46,4718.4 c -15.41,185.35 -117.3,326.37 -227.57,314.98 -1.06,-0.1 -2.08,-0.32 -3.12,-0.45 l -0.05,0.08 -88.71,-13.31 c 0,0 5.02,-8.83 13.29,-23.53 -65.57,-59.43 -104.58,-182.13 -93.2,-319.01 12.03,-144.74 76.8,-262.45 157.12,-301.66 -6.18,-15.75 -10,-25.37 -10,-25.37 l 90.09,13.43 0.01,0.03 c 105.07,19.41 177.09,174.92 162.14,354.81"
      />
      <path
        id="path226"
        style="fill: #74aec2; fill-opacity: 1; fill-rule: nonzero; stroke: none"
        d="m 3419.93,4706.24 c 15.4,-185.35 -61.5,-344.84 -171.79,-356.23 -110.28,-11.38 -212.16,129.64 -227.56,314.99 -15.41,185.35 61.5,344.84 171.78,356.22 110.28,11.39 212.17,-129.64 227.57,-314.98"
      />
      <g id="g228">
        <g clip-path="url(#clipPath234)" id="g230">
          <path
            id="path246"
            style="
              fill: url(#linearGradient244);
              fill-opacity: 1;
              fill-rule: nonzero;
              stroke: none;
            "
            d="m 3378.27,4732.61 c -8.21,92.12 -21.05,225.56 -67.63,336.62 -72.12,172 -157.83,253.43 -265.24,291.55 -191.27,67.9 -398.63,49.6 -572.4,-55.29 -15.63,-9.43 -31,-19.4 -45.71,-30.21 -8.03,55.95 -16.19,111.88 -24.26,167.83 -1.07,7.42 -3.83,16.6 -11.26,17.54 -4.86,0.61 -9.2,-2.86 -12.71,-6.26 -31.96,-30.97 -49.92,-74.45 -55.65,-118.59 -5.73,-44.12 0.01,-89.05 10.14,-132.38 -28.92,38.92 -55.31,79.72 -78.94,122.05 -7.26,13 -13.43,-65.31 -13.14,-68.1 3.06,-29.72 7.21,-63.41 20.06,-90.78 10.57,-22.51 15.67,-33.05 36.06,-41.58 -6.14,-14.42 -34.03,-69.24 -39.3,-83.92 -49.51,-137.86 -78.15,-258.03 -58.53,-403.19 19.62,-145.17 83.95,-286.17 190.72,-386.45 89.25,-83.83 191,-125.6 309.86,-155 48.79,-12.08 151.54,-26.11 201.77,-24.6 48.83,1.45 234.07,-4.36 328.02,63.58 157.72,114.07 223.15,306.69 217.48,361.78 -14.37,139.31 -62.6,159.83 -69.34,235.4"
          />
        </g>
      </g>
      <path
        id="path248"
        style="fill: #e2f6fb; fill-opacity: 1; fill-rule: nonzero; stroke: none"
        d="m 3378.27,4732.61 c -3.81,42.63 -8.69,94.17 -17.36,148.19 -3.12,4.35 -22.54,41.43 -107.25,47.29 -86.01,5.95 -174.37,-79.1 -216.65,-161.86 -196.78,157.23 -441.03,155.09 -519.83,58.49 -67.04,-82.18 -24,-227.98 -30.54,-288.12 -8.14,-74.76 -23.26,-75.09 -23.26,-149.14 0,-270.81 420.02,-317.75 544.06,-312.44 73.66,4.91 165.23,18.86 222.69,60.41 157.72,114.07 223.15,306.69 217.48,361.78 -14.37,139.31 -62.6,159.83 -69.34,235.4"
      />
      <path
        id="path250"
        style="fill: #263c70; fill-opacity: 1; fill-rule: nonzero; stroke: none"
        d="m 3146.18,5118.11 c 10.11,-6.15 19.18,-13.52 26.92,-21.85 -1.49,13.27 14.99,25.3 30.23,26.12 15.28,0.82 28.69,-6.17 40.89,-13.18 27.23,-15.68 53.43,-32.84 72.12,-55.32 18.39,-22.12 28.83,-49.83 22.96,-77.64 -0.87,-4.12 -2.35,-8.55 -6.31,-11.4 -5.91,-4.22 -14.21,-2.98 -21.01,-1.45 -40.63,9.16 -81.09,19.66 -122.36,27.51 -15.04,2.86 -20.51,5.17 -27.5,17.55 -8.43,14.93 -14.16,31.4 -17.12,48.58 -1.73,10.08 -2.5,20.44 -2.26,30.94 0.08,3.26 4.77,29.33 3.44,30.14"
      />
      <path
        id="path252"
        style="fill: #263c70; fill-opacity: 1; fill-rule: nonzero; stroke: none"
        d="m 2843.18,5062.92 c -0.84,26.65 -8.93,54.33 -27.63,76.12 -3.83,-6.29 -5.56,-13.83 -4.91,-21.33 -2.21,5.09 -4.55,10.36 -8.74,14.38 -4.22,4.05 -10.9,6.54 -16.24,4.45 -5.37,-2.1 -7.19,-9.91 -2.3,-13.43 -30.28,14.03 -67.47,5.72 -100.5,-6.47 -41.2,-15.22 -82.58,-36.21 -117.31,-65.63 -36.44,-30.87 -64.31,-70.66 -71.91,-113.37 -1.62,-9.15 -1.81,-19.39 6.47,-25.43 12.46,-9.08 34.39,-2.9 50.85,3.52 47.62,18.58 92.01,36.77 135.37,49.56 40.71,12 80.78,19.19 117.69,16.75 6.86,-0.46 20.52,-3.59 26.27,1.32 4.57,3.91 5.12,16.62 6.26,21.73 4.27,19.09 7.23,38.43 6.63,57.83"
      />
      <path
        id="path254"
        style="fill: #263c70; fill-opacity: 1; fill-rule: nonzero; stroke: none"
        d="m 2725.22,4790.87 c -57.72,8.06 -98.66,-13.46 -128.62,-41.5 -38.82,-36.35 -45.18,-69.9 -43.9,-77.18 11.46,-65.4 50.55,-106.95 99.34,-127.63 73.93,-31.35 170.06,-14.64 226.38,40 4.5,4.36 8.83,8.88 12.79,13.72 6.09,7.46 -3.5,47.91 -6.45,55.58 -20.01,52.17 -61.31,123.3 -159.54,137.01"
      />
      <path
        id="path256"
        style="fill: #263c70; fill-opacity: 1; fill-rule: nonzero; stroke: none"
        d="m 3345.3,4787.52 c -35.76,67.69 -87.14,53.97 -130.09,22.86 -25.85,-18.73 -42.73,-42.65 -54.1,-67.86 -11.31,-25.08 -17.12,-51.4 -20.65,-75.25 -0.67,-4.54 -1.29,-9.02 -1.82,-13.34 -0.78,-6.37 0.26,-20.56 5.25,-26.77 4.8,-5.96 11.62,-11.37 19.74,-16.14 33.85,-19.84 90.98,-28.12 125.32,-15.2 43.54,16.4 59.94,54.45 65.43,95.89 1.49,11.22 2.22,22.68 2.43,34.05 0.38,21.86 -9.59,58.13 -11.51,61.76"
      />
      <path
        id="path258"
        style="fill: #e2f6fb; fill-opacity: 1; fill-rule: nonzero; stroke: none"
        d="m 2728.21,4775.34 c -51.07,7.13 -87.28,-11.9 -113.79,-36.72 -34.35,-32.15 -39.98,-61.84 -38.85,-68.28 10.14,-57.86 44.73,-94.62 87.89,-112.92 -15.27,19.61 -24.4,44.23 -24.29,71.01 0.24,63.54 51.95,114.85 115.5,114.6 63.54,-0.25 114.85,-51.96 114.6,-115.5 -0.05,-12.11 -1.99,-23.77 -5.51,-34.72 3.98,3.86 7.81,7.85 11.31,12.14 5.4,6.6 -3.1,42.39 -5.7,49.18 -17.7,46.15 -54.24,109.08 -141.16,121.21"
      />
      <path
        id="path260"
        style="fill: #e2f6fb; fill-opacity: 1; fill-rule: nonzero; stroke: none"
        d="m 3244.02,4774.75 c 48.22,-0.19 87.79,-36.41 93.52,-83.05 1.31,9.87 1.95,19.94 2.14,29.93 0.34,19.22 -8.43,51.11 -10.12,54.3 -31.43,59.5 -76.59,47.44 -114.35,20.1 -22.74,-16.47 -37.57,-37.5 -47.56,-59.66 17.33,23.35 45.06,38.5 76.37,38.38"
      />
      <path
        id="path262"
        style="fill: #e2f6fb; fill-opacity: 1; fill-rule: nonzero; stroke: none"
        d="m 3147.89,4658.49 c -0.69,-5.6 0.22,-18.07 4.61,-23.53 4.22,-5.24 10.21,-10 17.36,-14.19 -11.13,13.83 -18.44,30.84 -20.37,49.44 -0.59,-3.98 -1.14,-7.92 -1.6,-11.72"
      />
      <path
        id="path264"
        style="fill: #181c27; fill-opacity: 1; fill-rule: nonzero; stroke: none"
        d="m 2754.67,4743.03 c -63.55,0.25 -115.26,-51.06 -115.5,-114.6 -0.11,-26.78 9.02,-51.4 24.29,-71.01 65.42,-27.74 150.48,-12.96 200.3,35.39 3.52,10.95 5.46,22.61 5.51,34.72 0.25,63.54 -51.06,115.25 -114.6,115.5"
      />
      <path
        id="path266"
        style="fill: #181c27; fill-opacity: 1; fill-rule: nonzero; stroke: none"
        d="m 3280.02,4607.41 c 38.28,14.41 52.69,47.87 57.52,84.29 -5.73,46.64 -45.3,82.86 -93.52,83.05 -31.31,0.12 -59.04,-15.03 -76.37,-38.38 -9.94,-22.05 -15.06,-45.19 -18.16,-66.16 1.93,-18.6 9.24,-35.61 20.37,-49.44 29.75,-17.44 79.98,-24.72 110.16,-13.36"
      />
      <path
        id="path268"
        style="fill: #192337; fill-opacity: 1; fill-rule: nonzero; stroke: none"
        d="m 3288.42,4670.21 c 0,-25.73 -20.87,-46.59 -46.6,-46.59 -25.75,0 -46.61,20.86 -46.61,46.59 0,25.74 20.86,46.61 46.61,46.61 25.73,0 46.6,-20.87 46.6,-46.61"
      />
      <path
        id="path270"
        style="fill: #e2f6fb; fill-opacity: 1; fill-rule: nonzero; stroke: none"
        d="m 3227.69,4709.13 c -0.07,-17.7 -14.48,-32 -32.18,-31.93 -17.7,0.07 -31.99,14.47 -31.93,32.18 0.07,17.7 14.48,31.99 32.18,31.92 17.71,-0.07 31.99,-14.47 31.93,-32.17"
      />
      <path
        id="path272"
        style="fill: #192337; fill-opacity: 1; fill-rule: nonzero; stroke: none"
        d="m 2819.09,4620.77 c 0,-28.65 -23.23,-51.87 -51.87,-51.87 -28.65,0 -51.87,23.22 -51.87,51.87 0,28.65 23.22,51.87 51.87,51.87 28.64,0 51.87,-23.22 51.87,-51.87"
      />
      <path
        id="path274"
        style="fill: #e2f6fb; fill-opacity: 1; fill-rule: nonzero; stroke: none"
        d="m 3295.56,4662.58 c -0.03,-9.54 -7.8,-17.24 -17.34,-17.2 -9.54,0.04 -17.24,7.8 -17.2,17.34 0.03,9.54 7.8,17.24 17.34,17.2 9.53,-0.04 17.24,-7.8 17.2,-17.34"
      />
      <path
        id="path276"
        style="fill: #e2f6fb; fill-opacity: 1; fill-rule: nonzero; stroke: none"
        d="m 2756.13,4666.36 c -0.09,-22.52 -18.42,-40.71 -40.94,-40.62 -22.53,0.09 -40.72,18.42 -40.63,40.94 0.09,22.52 18.42,40.71 40.95,40.62 22.52,-0.08 40.71,-18.42 40.62,-40.94"
      />
      <path
        id="path278"
        style="fill: #e2f6fb; fill-opacity: 1; fill-rule: nonzero; stroke: none"
        d="m 2840.23,4609.9 c -0.05,-12.67 -10.36,-22.91 -23.04,-22.85 -12.67,0.04 -22.9,10.36 -22.85,23.03 0.05,12.67 10.36,22.9 23.03,22.85 12.67,-0.05 22.91,-10.36 22.86,-23.03"
      />
      <g id="g280">
        <g clip-path="url(#clipPath286)" id="g282">
          <path
            id="path298"
            style="
              fill: url(#linearGradient296);
              fill-opacity: 1;
              fill-rule: nonzero;
              stroke: none;
            "
            d="m 2767.73,4332.78 c 59.56,-70.21 166.18,-145.46 294.29,-216.28 75.19,-41.57 118.99,-52.83 141.71,-52.46 22.73,0.38 31.9,32.23 19.43,59.46 -118.91,259.8 -19.14,332.27 -44.18,342.49 -10.78,4.4 -424.22,-52.35 -444.07,-48.16 -47.14,9.98 -32.95,-7.51 32.82,-85.05"
          />
        </g>
      </g>
      <path
        id="path300"
        style="fill: #82171b; fill-opacity: 1; fill-rule: nonzero; stroke: none"
        d="m 3134.21,4152.16 c 16.84,4.53 27.63,12.22 22.01,46.39 -2.85,17.38 -24.17,138.35 -79.12,183.49 -43.35,35.6 -198.13,45.26 -253.63,31.38 -46.41,-11.61 13.68,-102.76 90.56,-160.24 97.69,-73.04 206.66,-104.65 220.18,-101.02"
      />
      <path
        id="path302"
        style="fill: #9e1b20; fill-opacity: 1; fill-rule: nonzero; stroke: none"
        d="m 3096.84,4222.88 c 7.79,9.29 -7.11,60.73 -19.61,83.82 -44.09,81.47 -96.64,100.4 -120.23,104.55 -16.33,2.87 -33.68,3.86 -49.2,-1.82 -11.63,-4.25 -117.26,12.39 -18.95,-73.66 33.82,-29.6 92.75,-66.75 132.95,-88.21 22.67,-12.11 67.25,-33.99 75.04,-24.68"
      />
      <g id="g304">
        <g clip-path="url(#clipPath310)" id="g306">
          <path
            id="path324"
            style="
              fill: url(#linearGradient322);
              fill-opacity: 1;
              fill-rule: nonzero;
              stroke: none;
            "
            d="m 3288.46,4489.04 c -67.97,24.91 -127.61,100.42 -163.4,112.2 -35.79,11.78 -71.8,13.89 -102.64,-7.75 -17.81,-12.5 -36.51,-34.27 -50.68,-50.77 -55.98,-65.18 -120.27,-114.31 -206.03,-119.57 -27.74,-1.7 -57.32,16.61 -70.37,2.71 -12.39,-13.21 30.36,-30.01 57.65,-37.11 91.3,-23.8 261.37,-64.09 381.89,-75.41 138.53,-13.02 207.16,-5.42 306.98,-1.09 37.55,1.63 76.55,-10.15 82.17,3.57 23.37,56.96 -85.1,118.1 -235.57,173.22"
          />
        </g>
      </g>
      <path
        id="path326"
        style="fill: #74aec2; fill-opacity: 1; fill-rule: nonzero; stroke: none"
        d="m 2036.62,4872.07 c 0,0 -131.67,269.89 -108.3,325.76 7.81,18.67 34.51,85.47 93.27,128.22 v 0 c -64.93,-54.18 117.58,-383.02 117.58,-383.02 l -102.55,-70.96"
      />
      <path
        id="path328"
        style="fill: #74aec2; fill-opacity: 1; fill-rule: nonzero; stroke: none"
        d="m 2437.94,4653.55 c -15.41,185.35 -117.29,326.37 -227.57,314.99 -1.05,-0.11 -2.07,-0.33 -3.11,-0.46 l -0.05,0.08 -88.71,-13.31 c 0,0 5.01,-8.83 13.29,-23.52 -65.58,-59.44 -104.58,-182.14 -93.21,-319.02 12.03,-144.74 76.81,-262.45 157.13,-301.66 -6.19,-15.75 -10,-25.37 -10,-25.37 l 90.08,13.44 0.01,0.02 c 105.08,19.41 177.09,174.92 162.14,354.81"
      />
      <path
        id="path330"
        style="fill: #9ccdda; fill-opacity: 1; fill-rule: nonzero; stroke: none"
        d="m 2356.42,4641.39 c 15.4,-185.35 -61.51,-344.84 -171.79,-356.22 -110.28,-11.39 -212.17,129.63 -227.57,314.98 -15.4,185.35 61.5,344.84 171.78,356.22 110.29,11.39 212.17,-129.64 227.58,-314.98"
      />
      <path
        id="path332"
        style="fill: #74aec2; fill-opacity: 1; fill-rule: nonzero; stroke: none"
        d="m 2255.03,4636.18 c 11.51,-138.52 -45.97,-257.72 -128.39,-266.23 -82.42,-8.51 -158.56,96.89 -170.08,235.41 -11.51,138.53 45.97,257.72 128.39,266.23 82.42,8.51 158.57,-96.89 170.08,-235.41"
      />
      <g id="g334">
        <g clip-path="url(#clipPath340)" id="g336">
          <path
            id="path352"
            style="
              fill: url(#linearGradient350);
              fill-opacity: 1;
              fill-rule: nonzero;
              stroke: none;
            "
            d="m 3641.14,4134.46 c 0.28,0.4 0.55,0.79 0.81,1.2 1.99,3.02 2.8,4.82 2.8,4.82 v 0 c 6.5,12.55 9.77,28.69 8.4,46.38 -3.17,41 -29.93,74.33 -59.56,73.79 -81.72,-3.22 -160.68,-70.68 -160.68,-70.68 l 32.07,-121.68 c 112.25,2.77 157.32,42.25 172.83,61.69 0.48,0.58 0.94,1.18 1.4,1.79 0.73,0.97 1.36,1.86 1.93,2.69"
          />
        </g>
      </g>
      <path
        id="path354"
        style="fill: #181c27; fill-opacity: 1; fill-rule: nonzero; stroke: none"
        d="m 3500.88,4131.46 c 3.89,-35.1 -12.26,-63.17 -35.9,-63.17 -23.54,0 -46.15,27.84 -50.65,62.65 -4.57,35.34 11.17,64.62 35.33,64.91 24.27,0.3 47.26,-28.75 51.22,-64.39"
      />
      <path
        id="path356"
        style="fill: #9ccdda; fill-opacity: 1; fill-rule: nonzero; stroke: none"
        d="m 2215.54,4632.1 c 8.47,-101.87 -33.8,-189.52 -94.41,-195.78 -60.61,-6.26 -116.61,71.25 -125.08,173.12 -8.46,101.87 33.81,189.52 94.42,195.78 60.61,6.26 116.61,-71.25 125.07,-173.12"
      />
      <path
        id="path358"
        style="fill: #74aec2; fill-opacity: 1; fill-rule: nonzero; stroke: none"
        d="m 2182.61,4628.7 c 5.93,-71.3 -23.66,-132.65 -66.08,-137.03 -42.43,-4.38 -81.62,49.87 -87.55,121.17 -5.92,71.3 23.66,132.65 66.09,137.03 42.42,4.38 81.61,-49.87 87.54,-121.17"
      />
    </g>
  </g>
</svg>
