<svg width="747" height="881" viewBox="0 0 747 881" fill="none" xmlns="http://www.w3.org/2000/svg">
<g clip-path="url(#clip0_9_2)">
<g clip-path="url(#clip1_9_2)">
<path opacity="0.4" d="M545.961 723.905H512.755V746.309H545.961V723.905Z" fill="black"/>
<path opacity="0.4" d="M635.604 723.905H602.399V746.309H635.604V723.905Z" fill="black"/>
<path opacity="0.4" d="M387.434 576.966H221.429V596.991H387.434V576.966Z" fill="black"/>
<path opacity="0.4" d="M387.434 640.858H221.429V660.883H387.434V640.858Z" fill="black"/>
<path d="M577.123 689.242C577.123 689.242 537.288 698.877 521.521 716.905C516.238 722.93 508.402 727.271 500.309 730.371V703.172C509.423 687.873 518.607 670.855 518.607 670.855C519.025 670.019 522.346 658.283 522.346 658.283C529.823 652.409 521.928 631.886 521.928 631.886C521.928 631.886 526.502 618.896 524.006 616.377C521.51 613.858 523.588 607.16 525.666 604.223C527.744 601.286 527.326 597.513 527.326 595.006C527.326 592.498 524.006 588.714 518.607 586.625C513.208 584.535 519.025 581.18 522.346 580.333C525.666 579.485 526.502 571.534 522.763 567.343C519.025 563.152 523.181 560.645 525.248 556.037C527.315 551.428 518.572 552.264 518.572 552.264V509.893C518.572 509.893 516.076 496.068 513.591 471.76C511.107 447.452 501.551 444.945 501.551 444.945C496.433 443.355 491.439 441.392 486.609 439.071C481.523 436.687 476.25 434.727 470.842 433.209C470.842 433.209 459.638 433.209 450.501 430.399C441.364 427.59 436.627 427.393 436.627 427.393L435.129 426.65C423.893 420.938 414.991 411.5 409.946 399.951C409.691 399.37 409.458 398.79 409.226 398.233C411.707 395.514 413.927 392.568 415.856 389.433V389.364C415.856 389.793 415.856 390.223 415.856 390.652C415.856 390.826 415.856 391.012 415.856 391.186C415.856 392.219 415.856 393.253 415.856 394.286V394.39C422.474 382.701 441.677 380.031 443.5 366.681C443.583 366.073 443.625 365.46 443.628 364.847V364.766C443.628 364.325 443.628 363.872 443.628 363.419C443.384 359.693 442.107 355.978 441.863 352.217C441.781 351.139 441.781 350.056 441.863 348.978V349.048C442.722 338.682 450.536 329.662 454.112 319.598C455.074 316.89 455.701 314.076 455.981 311.216V311.135C456.074 310.276 456.132 309.405 456.155 308.535C456.155 308.326 456.155 308.105 456.155 307.896C456.155 307.293 456.155 306.736 456.155 306.085C456.046 300.731 454.842 295.455 452.615 290.583C450.389 285.712 447.188 281.348 443.21 277.761C436.592 272.015 427.849 268.405 423.263 260.894C421.127 257.412 420.082 253.279 417.748 249.913C413.359 243.551 405.302 240.963 397.674 240.046C390.046 239.128 382.209 239.43 374.918 237.039C369.74 235.344 365.049 232.338 359.824 230.829C354.132 229.305 348.11 229.56 342.566 231.558C337.023 233.557 332.224 237.203 328.813 242.007C326.061 246.024 324.262 250.83 320.547 253.964C312.942 260.395 300.043 257.609 293.378 265.015C289.721 269.09 289.303 274.638 289.744 280.303C289.744 280.373 289.744 280.443 289.744 280.512C289.744 280.942 289.826 281.383 289.872 281.824C289.872 282.033 289.872 282.242 289.872 282.439C289.872 282.637 289.872 282.88 289.953 283.101C290.186 285.132 290.476 287.152 290.731 289.102C290.731 289.404 290.801 289.694 290.836 289.996L291.045 291.819C291.045 292.26 291.114 292.701 291.161 293.142C291.207 293.583 291.242 294.303 291.277 294.791C291.312 295.278 291.277 295.65 291.358 296.091C292.103 311.56 288.822 326.959 281.838 340.783C275.557 353.099 266.222 364.452 264.596 378.208C264.344 380.463 264.281 382.734 264.411 384.999C264.411 385.266 264.411 385.533 264.411 385.8C264.411 386.067 264.48 386.613 264.515 387.019C264.55 387.425 264.608 387.959 264.666 388.424C264.666 388.69 264.736 388.957 264.771 389.224C264.852 389.84 264.945 390.455 265.049 391.082L265.119 391.477C266.768 400.856 270.506 410.05 272.491 419.522C273.236 423.016 273.732 426.557 273.978 430.121C273.972 430.144 273.972 430.167 273.978 430.19C274.047 431.351 274.105 432.454 274.14 433.592C274.14 435.124 274.14 436.668 274.14 438.235C270.988 439.446 267.757 440.439 264.469 441.207C258.664 442.042 241.631 457.133 242.874 460.941C244.116 464.748 235.257 491.123 235.013 491.924L221.081 588.273C221.081 588.273 213.685 595.4 215.996 600.009C218.306 604.617 215.543 612.581 215.543 612.581C215.543 612.581 203.05 618.025 205.825 621.38C208.6 624.735 207.334 631.015 205.43 635.206C203.526 639.396 200.403 646.942 205.43 648.195C210.457 649.449 206.289 665.805 206.289 665.805C206.289 665.805 223.809 663.785 222.544 674.186C222.126 677.495 234.793 686.596 240.075 690.241V740.319C232.982 738.334 224.645 735.757 219.328 733.273C208.542 728.246 147.947 718.612 134.665 747.528C121.383 776.444 152.928 814.996 160.812 819.186C160.812 819.186 168.289 825.049 169.949 827.985C171.609 830.922 181.153 831.758 181.153 831.758C181.153 831.758 191.115 836.401 193.599 838.874C195.434 840.731 210.608 845.549 228.593 849.322C228.593 849.322 214.068 882.754 237.765 880.003C261.462 877.251 273.002 865.585 289.71 865.585C296.385 865.585 308.785 864.645 321.266 863.53C324.402 864.085 327.503 864.817 330.555 865.724C337.586 867.935 344.808 869.489 352.127 870.368C352.127 870.368 370.808 880.42 380.769 877.901C381.591 877.67 382.357 877.275 383.022 876.741H383.254C385.065 876.288 387.12 874.419 389.256 871.598C401.714 872.875 415.96 874.686 421.254 876.752C431.576 880.734 505.406 875.22 505.406 875.22C505.406 875.22 553.101 876.16 566.767 880.293C580.432 884.425 575.579 838.096 550.361 832.884C543.63 831.534 536.781 830.858 529.915 830.864C531.662 829.063 533.258 827.122 534.687 825.06C543.767 824.236 549.781 823.725 549.781 823.725C549.781 823.725 573.849 811.989 587.549 804.862C596.296 800.104 604.153 793.867 610.77 786.427C610.77 786.427 622.798 778.882 627.779 775.98C632.76 773.078 635.244 763.408 635.244 763.408C672.989 677.913 577.123 689.242 577.123 689.242ZM469.054 582.004C469.054 580.6 469.054 579.184 469.054 577.779C470.401 578.731 470.204 580.228 469.054 581.993V582.004ZM469.449 611.641C470.459 612.964 471.434 614.171 472.131 615.123C474.813 618.606 469.96 620.231 470.308 626C470.389 627.289 470.505 629.088 470.622 631.085C470.111 622.761 469.693 615.912 469.449 611.629V611.641Z" fill="url(#paint0_linear_9_2)"/>
<path d="M253.427 743.883C253.427 743.883 230.207 738.485 219.397 733.505C208.588 728.525 148.017 718.983 134.735 747.621C121.453 776.259 152.998 814.416 160.881 818.571C168.765 822.727 245.544 765.858 245.544 765.858L306.103 791.396L317.714 751.765L253.427 743.883Z" fill="#65617D"/>
<path d="M499.926 751.765H321.812C298.196 751.765 279.051 770.907 279.051 794.519V800.706C279.051 824.318 298.196 843.459 321.812 843.459H499.926C523.542 843.459 542.687 824.318 542.687 800.706V794.519C542.687 770.907 523.542 751.765 499.926 751.765Z" fill="#65617D"/>
<path opacity="0.1" d="M542.687 797.606C542.695 806.625 540.038 815.446 535.047 822.959C533.35 825.505 531.406 827.876 529.242 830.04C524.989 834.304 519.934 837.686 514.369 839.991C508.804 842.296 502.838 843.479 496.814 843.471H324.912C312.749 843.471 301.084 838.64 292.484 830.041C283.883 821.442 279.051 809.779 279.051 797.618C279.051 785.457 283.883 773.794 292.484 765.195C301.084 756.596 312.749 751.765 324.912 751.765H496.826C508.987 751.765 520.65 756.594 529.25 765.191C537.851 773.787 542.684 785.447 542.687 797.606Z" fill="black"/>
<path d="M399.148 800.288C399.148 800.288 372.712 807.079 351.14 806.777C329.568 806.475 228.663 848.393 228.663 848.393C228.663 848.393 214.138 881.5 237.835 878.761C261.531 876.021 273.072 864.529 289.779 864.529C306.487 864.529 359.046 858.725 359.046 858.725L409.621 821.369L399.148 800.288Z" fill="#FBBEBE"/>
<path d="M415.693 487.872L368.277 497.217L365.2 497.832C365.2 497.832 327.71 487.872 326.468 487.036C325.226 486.2 291.196 440.359 291.196 440.359C291.196 440.359 308.402 440.545 321.917 432.756C322.404 432.477 322.88 432.175 323.356 431.885C329.299 428.302 333.813 422.767 336.128 416.225C336.371 415.54 336.58 414.832 336.778 414.089C338.217 408.541 338.31 401.819 336.383 393.682C331.739 374.331 342.42 369.003 356.573 369.467C377.019 370.14 404.849 382.898 404.849 382.898C405.209 389.41 406.69 395.811 409.226 401.819C409.447 402.377 409.691 402.98 409.946 403.514C415.023 414.971 423.925 424.307 435.129 429.923L436.627 430.666C438.136 431.386 439.727 432.071 441.375 432.686C477.53 446.384 415.693 487.872 415.693 487.872Z" fill="#FBBEBE"/>
<path opacity="0.1" d="M409.992 403.514C400.975 413.721 388.743 420.544 375.32 422.856C361.897 425.167 348.087 422.828 336.174 416.225C338.217 410.282 338.601 402.887 336.429 393.682C325.225 346.378 404.93 382.898 404.93 382.898C405.323 390.024 407.04 397.016 409.992 403.514Z" fill="black"/>
<path d="M424.958 361.492C424.978 372.671 421.838 383.628 415.902 393.102C413.97 396.208 411.75 399.127 409.273 401.819C398.815 413.28 384.289 420.196 368.799 421.089C367.638 421.171 366.396 421.205 365.188 421.205C353.369 421.205 341.815 417.701 331.988 411.136C322.161 404.571 314.502 395.239 309.979 384.322C305.456 373.404 304.272 361.391 306.578 349.801C308.884 338.211 314.575 327.565 322.933 319.209C331.29 310.853 341.938 305.162 353.53 302.857C365.122 300.552 377.137 301.735 388.057 306.257C398.976 310.779 408.309 318.437 414.875 328.263C421.442 338.088 424.946 349.64 424.946 361.457L424.958 361.492Z" fill="#FBBEBE"/>
<path opacity="0.1" d="M415.693 487.872L368.277 497.217L365.2 497.832C365.2 497.832 327.71 487.872 326.468 487.036C325.226 486.201 291.196 440.359 291.196 440.359C291.196 440.359 308.402 440.545 321.917 432.756C322.404 432.477 322.88 432.175 323.356 431.885C327.652 436.528 341.712 449.658 363.807 449.565C366.643 449.566 369.476 449.36 372.282 448.949C378.947 447.928 385.669 447.266 392.38 446.628C405.232 445.281 424.889 441.381 435.21 430.028L436.708 430.771C438.217 431.49 439.808 432.175 441.456 432.791C477.53 446.384 415.693 487.872 415.693 487.872Z" fill="black"/>
<path d="M469.228 609.029C469.635 618.164 476.287 721.061 476.287 721.061H269.194L270.599 656.274L271.76 604.455L272.132 587.449L273.792 528.536L267.789 523.243L235.164 494.5C235.408 493.734 244.255 467.511 243.025 463.82C241.794 460.128 258.803 445.153 264.62 444.318C267.926 443.55 271.176 442.561 274.349 441.357C284.137 437.875 297.198 432.86 298.638 433.649C300.67 434.741 321.034 432.848 321.859 432.767C321.859 432.767 336.882 452.188 363.725 452.072C366.552 452.057 369.373 451.832 372.166 451.399C378.83 450.377 385.553 449.715 392.264 449.019C405.766 447.614 426.758 443.377 436.592 430.678C436.592 430.678 441.34 430.875 450.466 433.649C459.592 436.424 470.807 436.435 470.807 436.435C476.212 437.939 481.485 439.88 486.574 442.24C491.408 444.534 496.402 446.474 501.517 448.044C501.517 448.044 511.06 450.528 513.557 474.592C516.053 498.656 518.572 512.354 518.572 512.354L469.228 555.084C469.228 555.084 468.822 599.858 469.228 609.029Z" fill="#6C63FF"/>
<path d="M235.176 680.815L242.432 692.435L269.612 702.012L288.293 667.953L271.075 656.333L243.477 645.549L227.71 654.673L235.176 680.815Z" fill="#FBBEBE"/>
<path d="M467.15 738.067C467.15 738.067 505.743 735.165 521.521 717.323C537.3 699.481 577.123 689.939 577.123 689.939C577.123 689.939 672.989 678.737 635.175 763.385C635.175 763.385 632.69 772.927 627.709 775.829C622.728 778.731 610.7 786.207 610.7 786.207L463.446 773.345L467.15 738.067Z" fill="#65617D"/>
<path opacity="0.1" d="M542.687 797.606C542.696 806.625 540.038 815.446 535.047 822.959C510.271 825.153 455.4 830.307 443.918 833.511C429.811 837.423 401.262 830.609 398.138 829.843L397.848 829.773C397.848 829.773 392.345 813.08 389.721 802.401C388.56 797.548 387.944 793.938 388.711 793.671C391.207 792.847 414.033 786.613 413.615 790.189C413.197 793.764 482.116 763.42 482.116 763.42L484.229 789.98C491.23 797.99 542.687 786.079 542.687 797.606Z" fill="black"/>
<path d="M613.649 775.411L610.746 786.207C604.116 793.582 596.26 799.756 587.526 804.455C573.826 811.513 549.757 823.133 549.757 823.133C549.757 823.133 461.368 830.597 446.426 834.741C431.483 838.885 400.356 831.003 400.356 831.003C400.356 831.003 388.746 795.737 391.23 794.901C393.715 794.066 416.541 787.855 416.134 791.419C415.728 794.983 484.635 764.65 484.635 764.65L613.649 775.411Z" fill="#65617D"/>
<path d="M367.545 868.44C367.545 868.44 410.991 871.47 421.324 875.405C431.657 879.341 505.476 873.896 505.476 873.896C505.476 873.896 553.171 874.825 566.836 878.911C580.502 882.997 575.649 837.121 550.431 831.979C525.213 826.836 489.674 834.405 489.674 834.405C489.674 834.405 449.572 829.239 444.707 828.601C439.843 827.962 407.81 828.891 407.81 828.891L367.545 868.44Z" fill="#FBBEBE"/>
<path opacity="0.1" d="M196.815 753.924C196.815 753.924 254.24 759.09 270.03 768.504L196.815 753.924Z" fill="black"/>
<path opacity="0.1" d="M554.994 716.267C554.994 716.267 510.027 727.202 492.403 743.291L554.994 716.267Z" fill="black"/>
<path opacity="0.1" d="M200.159 740.864C201.076 741.166 226.596 744.509 225.98 746.936C225.365 749.362 200.159 740.864 200.159 740.864Z" fill="black"/>
<path opacity="0.1" d="M160.057 804.873L163.378 817.329C163.378 817.329 170.843 823.133 172.503 826.035C174.164 828.937 183.707 829.773 183.707 829.773C183.707 829.773 193.669 834.335 196.165 836.819C198.661 839.303 225.62 847.197 250.943 850.517C276.265 853.837 323.147 860.059 333.109 863.379C340.147 865.562 347.373 867.089 354.692 867.941C354.692 867.941 373.362 877.901 383.324 875.417C393.285 872.933 410.294 827.695 410.294 827.695C410.294 827.695 344.731 812.349 342.653 807.369C340.574 802.389 277.495 779.161 277.495 779.161L240.145 780.043L160.057 804.873Z" fill="black"/>
<path d="M157.561 806.115L160.881 818.571C160.881 818.571 168.358 824.375 170.019 827.277C171.679 830.179 181.223 831.015 181.223 831.015C181.223 831.015 191.184 835.577 193.669 838.073C196.154 840.569 223.136 848.439 248.446 851.759C273.757 855.079 320.663 861.301 330.624 864.621C337.66 866.797 344.881 868.32 352.196 869.172C352.196 869.172 370.877 879.12 380.839 876.636C390.801 874.152 407.81 828.914 407.81 828.914C407.81 828.914 342.235 813.568 340.168 808.588C338.101 803.608 245.544 765.857 245.544 765.857L216.518 759.217L157.561 806.115Z" fill="#65617D"/>
<path d="M242.421 490.356L235.164 494.512L221.232 589.945C221.232 589.945 213.836 597.002 216.147 601.553C218.457 606.103 215.694 613.997 215.694 613.997C215.694 613.997 203.201 619.395 205.976 622.715C208.751 626.035 207.485 632.257 205.581 636.401C203.677 640.545 200.554 648.01 205.581 649.263C210.608 650.517 206.44 666.676 206.44 666.676C206.44 666.676 223.96 664.679 222.695 674.964C222.172 679.12 242.502 692.377 242.502 692.377C242.502 692.377 219.397 650.47 271.156 656.275L275.603 632.652C275.603 632.652 280.05 619.348 275.603 615.239C271.156 611.13 276.602 591.384 276.602 591.384L277.577 505.703L242.421 490.356Z" fill="#6C63FF"/>
<path opacity="0.1" d="M231.147 613.603C232.064 615.123 260.01 618.246 261.833 623.203C263.656 628.159 231.147 613.603 231.147 613.603Z" fill="black"/>
<path opacity="0.1" d="M222.335 637.295C222.335 637.295 226.131 625.443 235.106 627.567C244.081 629.691 222.335 637.295 222.335 637.295Z" fill="black"/>
<path opacity="0.1" d="M217.482 654.603C217.482 654.603 224.158 638.804 233.272 640.023C242.386 641.242 217.482 654.603 217.482 654.603Z" fill="black"/>
<path d="M521.521 654.255L518.607 671.667C518.607 671.667 488.734 726.447 483.335 727.271C477.936 728.096 448.504 690.763 448.504 690.763L440.62 654.243L471.655 648.358L485.436 634.741C485.436 634.741 520.267 638.073 521.521 654.255Z" fill="#FBBEBE"/>
<path d="M507.403 504.472L518.607 512.354V554.261C518.607 554.261 527.326 553.425 525.248 557.998C523.17 562.572 519.025 565.045 522.763 569.201C526.502 573.356 525.666 581.227 522.345 582.063C519.025 582.898 513.22 586.207 518.607 588.285C523.994 590.363 527.326 594.089 527.326 596.585C527.326 599.08 527.744 602.807 525.666 605.709C523.588 608.611 521.521 615.251 524.006 617.747C526.49 620.242 521.928 633.093 521.928 633.093C521.928 633.093 529.823 653.431 522.345 659.235C522.345 659.235 519.025 670.843 518.607 671.679C518.607 671.679 523.843 631.294 471.632 648.37C471.632 648.37 470.668 632.977 470.308 627.277C469.948 621.577 474.813 619.906 472.131 616.505C469.449 613.103 462.738 605.291 465.908 603.225C469.077 601.158 467.986 597.42 466.732 594.507C465.478 591.593 461.101 591.605 465.072 588.076C469.043 584.547 471.399 581.238 469.066 579.578C466.732 577.918 462.68 572.509 465.908 570.025C469.135 567.541 469.228 531.439 469.228 531.439C469.228 531.439 482.511 478.33 507.403 504.472Z" fill="#6C63FF"/>
<path opacity="0.1" d="M502.132 575.864C502.132 575.864 518.085 571.534 518.607 575.864C519.13 580.194 502.132 575.864 502.132 575.864Z" fill="black"/>
<path opacity="0.1" d="M484.206 587.785C484.206 587.785 506.08 582.318 508.808 586.567C511.536 590.815 484.206 587.785 484.206 587.785Z" fill="black"/>
<path opacity="0.1" d="M479.341 599.324C479.341 599.324 512.152 594.762 514.276 601.448C516.401 608.135 479.341 599.324 479.341 599.324Z" fill="black"/>
<path opacity="0.1" d="M484.206 613.603C485.425 613.904 515.797 616.029 516.401 621.798C517.005 627.567 484.206 613.603 484.206 613.603Z" fill="black"/>
<path d="M488.165 632.303H252.313C245.599 632.303 240.157 637.745 240.157 644.457V767.889C240.157 774.601 245.599 780.043 252.313 780.043H488.165C494.878 780.043 500.321 774.601 500.321 767.889V644.457C500.321 637.745 494.878 632.303 488.165 632.303Z" fill="#3F3D56"/>
<path opacity="0.1" d="M283.719 541.747C283.719 541.747 308.658 560.807 327.942 546.285C327.942 546.285 295.34 549.246 283.719 541.747Z" fill="black"/>
<path opacity="0.1" d="M409.992 546.877C409.992 546.877 434.92 565.927 454.205 551.405C454.205 551.405 421.614 554.376 409.992 546.877Z" fill="black"/>
<path opacity="0.1" d="M424.958 361.492C424.978 372.671 421.838 383.628 415.902 393.101C415.403 376.467 411.49 359.82 402.434 345.925C394.144 333.156 368.938 310.879 351.616 317.09C349.804 317.754 348.174 318.836 346.859 320.248C345.543 321.659 344.58 323.362 344.046 325.216C342.327 331.74 347.355 334.502 350.582 339.645C356.055 348.556 358.194 359.117 356.62 369.455C356.4 370.847 356.109 372.226 355.749 373.588C353.021 383.826 346.774 395.539 353.218 403.932C357.711 409.736 367.371 411.802 368.683 419.023C368.803 419.705 368.842 420.398 368.799 421.089C368.497 425.976 364.329 430.283 362.506 435.077C360.37 440.73 361.577 446.349 363.795 452.025C366.674 459.432 371.272 466.919 372.387 474.743C373.501 482.567 371.098 489.834 368.265 497.182C365.583 504.147 362.46 511.054 361.415 518.309C359.406 532.1 364.468 548.05 355.784 558.938C354.901 560.256 353.539 561.176 351.987 561.504C346.426 562.084 347.343 552.089 342.896 548.735C343.372 554.539 343.825 560.598 341.735 566.031C339.646 571.464 334.142 576.084 328.384 575.167L326.398 562.131C322.48 565.988 317.764 568.939 312.582 570.779C314.622 556.916 319.533 543.631 327.002 531.775C312.384 538.81 303.863 554.04 296.258 568.364C291.521 577.314 286.61 587.089 288.27 597.083C288.943 601.158 290.696 605.035 291.08 609.133C291.463 613.231 289.977 618.025 286.157 619.58C282.825 620.939 278.935 619.313 276.532 616.597L276.114 616.098C275.882 615.796 275.661 615.483 275.452 615.169C275.037 614.539 274.668 613.879 274.349 613.196C273.311 610.742 272.533 608.185 272.027 605.569L271.772 604.408C267.905 587.448 264.422 569.955 267.255 552.798C268.3 546.483 270.204 540.214 269.972 533.806C269.798 530.193 269.061 526.629 267.789 523.243C264.399 513.747 257.874 505.029 254.159 495.464C254.118 495.399 254.087 495.329 254.066 495.255C252.115 490.194 251.152 483.867 254.762 479.804C256.62 477.703 259.407 476.647 261.729 475.161C268.95 470.459 272.178 461.533 273.513 453.012C274.114 449.172 274.417 445.291 274.419 441.404C284.206 437.921 297.268 432.906 298.708 433.696C300.739 434.787 321.104 432.895 321.928 432.814C328.128 429.238 333.538 423.98 336.186 416.283C336.429 415.598 336.638 414.89 336.836 414.147C327.54 409.133 319.74 401.745 314.23 392.735C308.72 383.726 305.696 373.417 305.467 362.86C305.238 352.302 307.812 341.872 312.927 332.632C318.041 323.392 325.514 315.673 334.583 310.261C343.653 304.848 353.995 301.936 364.556 301.82C375.118 301.704 385.522 304.389 394.707 309.602C403.893 314.814 411.533 322.368 416.849 331.493C422.165 340.619 424.967 350.99 424.97 361.55L424.958 361.492Z" fill="black"/>
<path d="M355.749 371.104C353.009 381.342 346.774 393.055 353.23 401.459C357.723 407.264 367.383 409.318 368.671 416.55C369.705 422.355 364.585 427.137 362.518 432.593C357.595 445.629 370.436 458.445 372.387 472.247C374.511 487.222 363.598 500.862 361.427 515.825C359.418 529.616 364.48 545.554 355.796 556.454C354.918 557.777 353.554 558.699 351.999 559.02C346.438 559.612 347.355 549.617 342.908 546.25C343.384 552.055 343.837 558.114 341.747 563.547C339.657 568.98 334.154 573.588 328.395 572.683L326.41 559.635C322.492 563.493 317.776 566.445 312.594 568.283C314.634 554.426 319.541 541.146 327.002 529.291C312.385 536.325 303.874 551.555 296.269 565.869C291.521 574.819 286.621 584.604 288.27 594.599C288.943 598.674 290.696 602.539 291.08 606.649C291.463 610.758 289.977 615.529 286.157 617.096C282.674 618.547 278.459 616.62 276.114 613.614C273.769 610.607 272.863 606.776 272.015 603.073C268.045 585.754 264.341 567.877 267.232 550.348C268.277 544.022 270.181 537.753 269.949 531.357C269.45 517.346 259.105 505.819 254.066 492.782C252.104 487.71 251.152 481.395 254.763 477.332C256.62 475.231 259.407 474.174 261.729 472.688C268.939 467.975 272.178 459.06 273.502 450.54C274.928 441.329 274.664 431.935 272.724 422.819C269.809 409.179 263.122 395.853 264.782 382.004C266.408 368.376 275.742 357.139 282.024 344.938C290.104 329.147 293.205 311.277 290.917 293.688C289.837 285.504 287.945 276.031 293.495 269.914C300.159 262.577 313.058 265.34 320.663 258.979C324.378 255.879 326.178 251.108 328.929 247.138C332.368 242.369 337.174 238.756 342.712 236.778C348.25 234.801 354.258 234.552 359.94 236.064C365.165 237.561 369.856 240.533 375.034 242.216C382.325 244.538 390.127 244.282 397.79 245.199C405.453 246.116 413.476 248.682 417.864 254.962C420.186 258.305 421.243 262.38 423.379 265.839C427.965 273.268 436.708 276.844 443.326 282.544C449.001 287.603 453.06 294.221 454.997 301.572C456.934 308.924 456.662 316.683 454.216 323.881C450.269 334.874 441.131 344.602 441.909 356.257C442.223 361.051 444.231 365.752 443.604 370.5C441.77 383.722 422.578 386.357 415.949 397.942C416.483 378.951 412.837 359.391 402.469 343.476C394.179 330.707 368.973 308.419 351.651 314.629C349.841 315.296 348.213 316.379 346.898 317.791C345.583 319.202 344.618 320.902 344.081 322.755C342.362 329.267 347.39 332.042 350.617 337.184C353.707 342.203 355.754 347.794 356.636 353.622C357.518 359.449 357.216 365.395 355.749 371.104Z" fill="#553538"/>
<path d="M369.078 695.05C367.44 695.235 365.782 695.755 364.425 696.514C363.862 696.83 362.856 697.508 362.428 697.871C361.977 698.248 361.183 699.057 360.836 699.497C359.24 701.493 358.234 704.024 358.029 706.529C357.972 707.238 358.002 708.722 358.091 709.515C358.303 711.415 358.866 713.276 359.737 714.948C360.057 715.565 360.292 715.931 360.863 716.682C363.068 719.607 365.62 721.21 368.982 721.784C369.514 721.873 370.597 722 370.825 722C370.886 722 370.666 721.892 370.273 721.734C368.076 720.852 366.638 720 365.204 718.74C363.766 717.476 362.07 715.334 361.353 713.87C360.439 712.012 360.019 710.305 359.938 708.128C359.838 705.392 360.682 702.799 362.347 700.741C363.6 699.188 365.551 697.89 367.451 697.343C367.918 697.208 368.627 697.058 369.136 696.984C369.707 696.907 371.387 696.919 371.97 697.008C373.404 697.223 374.66 697.74 375.763 698.564C376.411 699.046 377.286 699.99 377.76 700.718C378.246 701.462 378.704 702.606 378.909 703.589C379.032 704.179 379.078 705.2 379.009 705.816C378.889 706.857 378.531 707.962 378.057 708.756C376.796 710.856 374.306 712.055 371.865 711.731C370.709 711.577 369.834 711.161 369.028 710.375C367.49 708.868 367.05 706.641 367.96 704.976C368.365 704.24 369.082 703.554 369.734 703.273C370.038 703.142 370.728 702.965 371.087 702.922C371.704 702.853 372.386 702.999 372.933 703.319C373.307 703.539 373.847 704.09 374.067 704.479C374.899 705.959 374.549 707.608 373.23 708.379C372.933 708.556 372.37 708.76 372.058 708.806C371.773 708.849 371.769 708.887 372.047 708.937C372.463 709.014 373.057 708.972 373.461 708.833C374.714 708.402 375.667 707.188 375.805 705.855C375.84 705.504 375.782 704.741 375.694 704.352C375.428 703.2 374.529 702.132 373.307 701.524C371.337 700.537 368.801 701.08 367.124 702.841C366.549 703.446 366.16 704.094 365.898 704.888C365.489 706.113 365.458 707.207 365.786 708.529C366.341 710.745 368.064 712.617 370.212 713.33C372.151 713.977 374.34 713.812 376.287 712.872C377.228 712.417 377.818 712.008 378.485 711.338C379.926 709.901 380.794 707.901 380.971 705.6C381.064 704.464 380.937 703.473 380.543 702.183C379.792 699.724 378.037 697.551 375.79 696.291C374.695 695.674 373.616 695.308 372.297 695.1C371.603 694.992 369.83 694.965 369.078 695.05Z" fill="white"/>
</g>
<path d="M403.706 20.3206L396.746 44.771L379.051 26.5189L338 36.8394L414.622 115.874L444.756 10.0002L403.706 20.3206Z" fill="#41B883"/>
<path d="M403.706 20.3208L396.746 44.7713L379.051 26.5191L359.351 31.4717L405.324 78.8917L423.405 15.3682L403.706 20.3208Z" fill="#34495E"/>
<rect x="515.805" y="4.89258" width="67.0744" height="67.0744" transform="rotate(25.9042 515.805 4.89258)" fill="black"/>
<path fill-rule="evenodd" clip-rule="evenodd" d="M513.765 -1L581.23 31.7651L548.464 99.2295L481 66.4644L513.765 -1ZM537.87 80.6038C534.743 79.0851 533.768 76.5955 533.486 73.7168L526.881 74.2077C526.956 78.7891 529.397 83.4421 535.284 86.3015C541.306 89.2259 547.308 88.2766 550.08 82.5686C552.651 77.2742 550.754 73.4424 546.489 68.5166L545.234 67.068C543.086 64.569 542.282 63.227 543.206 61.3251C543.953 59.7863 545.702 59.1799 547.559 60.0817C549.38 60.9659 550.179 62.3032 550.32 64.7801L556.796 64.0079C556.492 59.3207 554.275 56.5104 550.244 54.5529C544.583 51.8032 539.202 53.6633 536.893 58.418C534.386 63.5795 536.24 67.4971 539.868 71.6678L541.122 73.1175C543.4 75.7864 544.75 77.3937 543.694 79.5676C542.813 81.3816 540.497 81.8796 537.87 80.6038ZM513.321 68.632C511.143 67.5741 510.962 65.6403 510.824 63.3896L504.147 64.0076C504.105 67.8977 505.769 71.9521 510.845 74.4173C516.462 77.1456 521.762 76.0267 524.95 69.4625L535.461 47.8204L529.122 44.7415L518.652 66.298C517.113 69.4667 515.404 69.6435 513.321 68.632Z" fill="#F7DF1E"/>
<g clip-path="url(#clip2_9_2)">
<rect x="24.546" y="594.54" width="102.333" height="101.333" transform="rotate(-5.80435 24.546 594.54)" fill="white"/>
<path d="M70.5485 559.273C70.2934 559.4 66.4801 562.099 62.1105 565.257C57.7408 568.416 48.753 574.925 42.1338 579.685C24.6848 592.281 19.3776 596.104 11.6387 601.715C5.89419 605.851 4.62892 606.918 4.28882 607.857C3.92231 608.866 4.3611 613.512 8.05806 649.221C11.9028 686.054 12.2899 689.533 12.8981 690.242C13.2836 690.739 19.7996 693.862 30.5041 698.638C39.8079 702.818 51.9563 708.284 57.4662 710.74C62.9761 713.195 71.8949 717.214 77.2986 719.613C85.5834 723.327 87.3291 724.021 88.4567 723.906C89.5808 723.759 94.2456 720.537 122.09 700.451C139.851 687.623 154.725 676.729 155.142 676.218L155.891 675.338L151.85 634.604C147.952 595.598 147.744 593.877 147.082 592.973C146.424 592.102 128.962 584.127 78.6985 561.661C72.7671 559.014 71.6952 558.688 70.5485 559.273ZM48.4084 603.506C51.4008 603.939 53.535 604.828 55.7467 606.479C56.5436 607.068 67.6559 617.833 80.4527 630.336L103.708 653.101L101.392 628.677L99.0736 604.219L99.9162 602.291C101.767 598.082 106.834 595.858 111.467 597.263C113.196 597.791 115.571 599.728 116.582 601.434L117.546 603.011L121.022 637.202L124.494 671.359L123.807 673.171C121.697 678.78 113.76 681.128 106.409 678.357C104.909 677.773 103.368 676.79 101.681 675.353C100.322 674.185 89.25 663.483 77.0844 651.586L54.9824 629.943L57.3033 653.764L59.6243 677.585L58.8879 679.569C56.9923 684.654 51.5536 687.184 46.5985 685.241C44.1226 684.287 41.9896 682.091 41.2528 679.787C40.8729 678.687 39.7009 667.816 37.4479 644.994L34.1763 611.821L34.9127 609.837C36.7256 604.928 41.876 602.528 48.4084 603.506Z" fill="#009900"/>
</g>
<path d="M155.586 251.158L122.838 218.414C120.954 216.529 117.895 216.529 116.009 218.414L109.209 225.215L117.834 233.84C119.84 233.163 122.138 233.617 123.736 235.215C125.341 236.823 125.792 239.141 125.098 241.152L133.411 249.466C135.423 248.773 137.743 249.22 139.349 250.829C141.594 253.074 141.594 256.711 139.349 258.956C137.103 261.202 133.466 261.202 131.22 258.956C129.531 257.266 129.113 254.786 129.969 252.706L122.216 244.953L122.215 265.354C122.763 265.625 123.279 265.987 123.735 266.442C125.98 268.686 125.98 272.322 123.735 274.57C121.49 276.814 117.851 276.814 115.608 274.57C113.363 272.322 113.363 268.686 115.608 266.442C116.163 265.888 116.805 265.469 117.49 265.187V244.596C116.805 244.316 116.164 243.9 115.608 243.342C113.907 241.643 113.498 239.147 114.37 237.059L105.867 228.555L83.4149 251.007C81.5284 252.894 81.5284 255.953 83.4149 257.839L116.161 290.583C118.046 292.469 121.103 292.469 122.991 290.583L155.585 257.994C157.471 256.107 157.471 253.047 155.585 251.161" fill="#F05133"/>
<path d="M320.678 158.64C320.676 158.639 320.676 158.636 320.676 158.634C319.868 157.25 319.81 154.973 319.742 152.546C319.675 150.121 319.581 147.501 317.998 145.498C317.995 145.493 317.99 145.49 317.988 145.484C317.676 145.08 317.343 144.724 316.999 144.414C316.653 144.103 316.295 143.835 315.928 143.605C320.159 136.295 320.691 128.274 319.431 120.678C317.888 111.352 313.669 102.649 310.325 96.6045C306.66 89.4474 303.041 82.6262 304.876 73.9944C307.678 60.8225 313.913 36.6041 290.616 31.8828C289.67 31.6912 288.673 31.5312 287.626 31.4066C261.164 28.2558 262.554 57.0747 260.319 66.18C258.49 72.8014 256.06 77.82 250.105 83.4529C243.364 88.8102 233.596 97.7129 227.779 107.857C225.034 112.643 223.166 117.71 222.922 122.812C222.644 122.975 222.376 123.152 222.115 123.334C220.175 124.715 218.579 126.538 216.985 127.66C215.509 128.637 213.665 128.749 211.601 129.049C209.537 129.35 207.219 129.94 205.442 132.137C205.442 132.137 205.442 132.139 205.44 132.138C205.437 132.141 205.435 132.146 205.431 132.148C204.601 133.15 204.161 134.323 203.914 135.552C203.685 136.689 203.621 137.874 203.569 139.018C203.459 141.396 203.379 143.651 202.605 145.033C200.247 148.881 199.472 151.712 200.126 154.012C200.782 156.318 202.807 157.683 205.2 158.707C209.988 160.75 216.808 161.855 221.572 165.747L222.205 164.976L221.577 165.748C226.688 169.874 232.263 172.095 237.091 171.972C240.594 171.885 243.712 170.444 245.723 167.666C249.338 168.375 253.608 167.647 260.027 168.576C264.404 169.097 269.408 172.052 275.666 172.953C275.693 173.655 275.798 174.346 275.995 175.023C275.997 175.029 275.999 175.036 276.001 175.042C277.438 180.307 281.454 183.392 286.282 183.974C291.113 184.557 296.732 182.779 301.798 178.753L301.174 177.974L301.804 178.746C306.649 174.819 313.509 174.168 318.319 172.453C320.722 171.595 322.785 170.331 323.393 168.013C323.997 165.696 323.146 162.792 320.678 158.64Z" fill="#202020"/>
<path d="M321.458 167.507C321.084 168.937 319.817 169.801 317.641 170.576C313.293 172.128 306.008 172.775 300.551 177.193C295.826 180.95 290.677 182.499 286.517 181.997C282.359 181.495 279.167 179.091 277.921 174.505L277.92 174.495L277.918 174.483C277.117 171.772 278.433 168.014 280.342 164.154C282.252 160.294 284.659 156.419 285.554 153.058L285.555 153.049C286.653 148.732 287.666 144.972 288.991 142.18C290.319 139.387 291.876 137.632 294.152 136.926C294.257 136.894 294.363 136.862 294.467 136.835C293.938 140.658 295.04 144.89 298.187 146.389C301.624 148.072 307.477 146.022 310.195 143.935C310.64 144.006 311.074 144.07 311.494 144.144C313.442 144.487 315.042 144.926 316.413 146.707L316.417 146.712L316.422 146.718C317.481 148.052 317.678 150.211 317.745 152.597C317.812 154.985 317.731 157.553 318.955 159.642L318.955 159.643L318.956 159.648C321.315 163.613 321.834 166.076 321.458 167.507Z" fill="#FFCD00"/>
<path d="M245.579 163.367L245.576 163.376L245.573 163.389C244.3 167.902 241.205 169.876 237.04 169.982C232.878 170.088 227.662 168.098 222.838 164.205C222.836 164.205 222.835 164.202 222.833 164.202C217.503 159.853 210.347 158.74 205.986 156.876C203.806 155.944 202.463 154.933 202.049 153.473C201.635 152.011 202.084 149.698 204.324 146.052L204.334 146.036L204.343 146.02C205.503 143.961 205.458 141.443 205.565 139.111C205.673 136.78 205.917 134.687 206.98 133.41L206.99 133.397C208.365 131.691 209.958 131.301 211.892 131.02C213.83 130.737 216.073 130.661 218.103 129.31L218.116 129.303L218.126 129.297C220.02 127.967 221.609 126.142 223.277 124.956C224.685 123.954 226.01 123.37 227.762 123.71C227.782 123.716 227.8 123.72 227.821 123.722C228.127 123.785 228.447 123.877 228.78 124C231.032 124.817 232.73 126.841 234.15 129.87L237.722 141.232L237.723 141.238L237.725 141.242C238.595 144.662 241.069 148.728 243.045 152.767C245.023 156.804 246.39 160.733 245.579 163.367Z" fill="#FFCD00"/>
<path d="M292.843 73.6571C292.568 72.6829 291.813 71.6574 290.372 70.6982L290.369 70.6965L290.364 70.6932C287.376 68.6397 285.977 68.2554 284.391 66.7055C281.804 64.2047 279.484 63.044 277.443 62.6424C276.374 62.4308 275.382 62.4277 274.468 62.5502C271.812 62.9031 269.805 64.3483 268.576 65.1159L268.573 65.1176C268.573 65.1187 268.572 65.1185 268.571 65.1207C268.329 65.2719 268.032 65.3942 267.306 65.7296C266.575 66.0652 265.478 66.5722 263.896 67.3242C262.489 67.9918 261.852 69.1023 261.996 70.5812C262.136 72.0595 263.161 73.9386 265.347 75.8251L265.35 75.829L265.355 75.8323C266.704 77.0362 267.507 78.4557 268.513 79.6584C269.017 80.2593 269.562 80.8153 270.257 81.2921C270.952 81.7686 271.795 82.1666 272.893 82.4553C275.469 83.1306 277.545 82.737 279.433 82.1109C281.325 81.4868 283 80.5952 284.757 80.3938L284.761 80.3923L284.764 80.3918C288.357 80.0195 291.195 78.3843 292.354 76.5211C292.935 75.589 293.116 74.6309 292.843 73.6571Z" fill="#FFCD00"/>
<path d="M283.265 76.9064C280.294 77.7634 276.811 78.8257 273.469 78.1533C270.127 77.4809 267.798 75.4107 266.202 73.5287C265.402 72.588 264.782 71.6878 264.31 71.029C263.462 70.0332 263.806 68.9439 264.213 69.0598C264.891 69.2866 264.812 70.2189 265.167 70.7142C265.648 71.3851 266.246 72.2491 267 73.14C268.51 74.9188 270.626 76.78 273.624 77.3831C276.616 77.9851 280.461 76.9367 282.833 76.1742C284.176 75.7414 285.957 74.8396 287.396 74.174C288.497 73.6654 288.632 72.8122 289.406 73.064C290.179 73.3156 289.423 74.0417 288.12 74.7842C286.815 75.5254 284.822 76.4569 283.265 76.9064Z" fill="#202020"/>
<path d="M312.937 142.409C312.566 142.32 312.198 142.248 311.838 142.185C311.806 142.179 311.774 142.172 311.739 142.165C313.248 139.445 311.636 136.889 306.686 133.338C301.538 129.728 296.99 129.067 295.22 133.937C295.119 134.19 295.026 134.45 294.941 134.716C294.489 134.779 294.028 134.878 293.556 135.024C290.615 135.937 288.639 138.269 287.186 141.327C285.736 144.38 284.721 148.22 283.622 152.546L283.622 152.55C283.044 154.718 281.538 157.508 279.987 160.472C269.415 165.188 256.007 165.455 246.6 155.846C246.097 154.533 245.481 153.209 244.838 151.895C244.428 151.056 244 150.22 243.577 149.392C244.693 149.619 245.681 149.627 246.52 149.435C247.563 149.194 248.373 148.636 248.885 147.812C249.908 146.164 249.746 143.517 248.197 140.218C246.648 136.92 243.697 132.957 239.055 128.655L239.055 128.653C235.65 125.459 234.073 122.065 233.699 118.652C233.327 115.236 234.167 111.793 235.643 108.525C238.472 102.249 243.629 96.6297 246.906 93.112C247.667 92.7588 246.961 94.0658 243.203 98.582C239.819 102.721 233.083 112.487 237.682 122.097C239.044 116.192 241.686 110.422 245.214 105.237C250.274 98.0765 260.293 85.9071 263.057 75.1575C263.313 75.434 264.198 76.3285 264.601 76.6798C264.602 76.6811 264.602 76.6811 264.604 76.6816C265.781 77.7333 266.553 79.081 267.641 80.3827C268.734 81.6864 270.177 82.9137 272.605 83.5502C272.837 83.6106 273.067 83.6647 273.291 83.7099C275.824 84.2194 277.962 83.793 279.795 83.1864C281.787 82.527 283.441 81.6867 284.883 81.5202C284.884 81.5181 284.887 81.5187 284.888 81.5188C287.927 81.2035 290.516 80.0834 292.179 78.5055C292.644 87.6817 295.273 101.33 297.356 108.151C298.465 111.769 300.581 119.412 300.416 128.074C301.383 128.239 302.415 128.591 303.489 129.109C309.519 119.654 304.41 107.137 301.676 103.387C300.586 101.805 300.639 101.205 301.306 101.367C304.295 105.306 307.774 112.714 308.047 120.343C308.17 123.822 307.637 127.346 306.095 130.62C306.474 130.873 306.86 131.146 307.248 131.435C312.994 135.806 314.806 138.968 312.937 142.409Z" fill="white"/>
<path d="M295.166 63.6611C294.832 65.3934 294.235 66.8059 293.275 68.177C292.728 68.9585 292.151 69.5919 291.508 70.1111C291.349 69.9922 291.183 69.8752 291.01 69.7601C290.41 69.3489 289.878 69.0022 289.398 68.7022C288.917 68.4021 288.538 68.188 288.15 67.9596C288.526 67.6555 289.209 67.3453 289.54 66.8501C290.041 66.1033 290.365 65.3411 290.588 64.3993C290.595 64.3613 290.614 64.331 290.622 64.2865C290.825 63.3823 290.86 62.5813 290.754 61.7327C290.643 60.8412 290.41 60.1704 289.997 59.5674C289.584 58.9655 289.117 58.6364 288.505 58.4919C288.476 58.4838 288.449 58.4783 288.42 58.4724C287.842 58.3584 287.299 58.4561 286.694 58.7841C286.057 59.1283 285.535 59.6281 285.036 60.3696C284.537 61.1114 284.212 61.8799 283.987 62.8271C283.974 62.8629 283.968 62.8955 283.96 62.9335C283.842 63.4558 283.781 63.9429 283.768 64.4251C282.702 63.5994 281.275 62.8658 280.279 62.4066C280.31 61.9437 280.37 61.4731 280.457 60.9832L280.483 60.8518C280.812 59.123 281.393 57.7006 282.361 56.3334C283.329 54.9639 284.369 54.0486 285.705 53.4031C287.042 52.7589 288.264 52.5854 289.617 52.843L289.68 52.8557C291.001 53.1214 292.052 53.7365 293.044 54.8085C294.05 55.8993 294.686 57.1359 295.07 58.7651C295.448 60.3545 295.485 61.8403 295.179 63.5316C295.17 63.5762 295.162 63.6142 295.166 63.6611Z" fill="white"/>
<path d="M274.858 61.3681C274.674 61.3832 274.495 61.4014 274.317 61.4254C273.305 61.561 272.483 61.7684 271.66 62.1015C271.832 61.6149 271.944 61.1096 272.003 60.5303C272.004 60.499 272.01 60.473 272.016 60.4426C272.091 59.6745 272.058 59.0111 271.92 58.32C271.769 57.6002 271.545 57.068 271.2 56.6234C270.888 56.2214 270.56 55.9983 270.164 55.9233C270.124 55.9151 270.083 55.9079 270.042 55.9031C269.59 55.8518 269.179 55.9939 268.744 56.3472C268.311 56.6987 267.978 57.1775 267.672 57.8405C267.368 58.5015 267.187 59.1749 267.098 59.9719C267.092 60.0034 267.095 60.0299 267.088 60.0615C267.011 60.8359 267.037 61.4979 267.18 62.1901C267.326 62.9021 267.556 63.4354 267.902 63.8791C267.96 63.9542 268.018 64.0223 268.076 64.0837C267.576 64.3312 267.237 64.5095 266.827 64.6981C266.564 64.8182 266.253 64.9624 265.89 65.1324C265.33 64.3484 264.954 63.4319 264.699 62.2684C264.395 60.895 264.351 59.5718 264.562 58.0624L264.564 58.0505C264.782 56.5424 265.187 55.2891 265.865 54.0454C266.544 52.8009 267.287 51.9525 268.245 51.3248C269.203 50.6946 270.087 50.4589 271.068 50.6043C271.144 50.6161 271.218 50.6289 271.293 50.6438C272.17 50.8227 272.896 51.2716 273.578 52.0812C274.316 52.9599 274.801 53.99 275.105 55.3655C275.41 56.7413 275.452 58.0643 275.235 59.5724L275.233 59.5843C275.147 60.2181 275.023 60.8068 274.858 61.3681Z" fill="white"/>
<path d="M278.552 65.8232C278.592 66.2018 279.179 66.2579 279.477 66.4964C279.739 66.705 279.907 67.0802 280.233 67.1549C280.544 67.2275 281.056 67.2085 281.158 66.907C281.295 66.5084 280.748 66.1282 280.393 65.9007C279.936 65.6087 279.319 65.3829 278.802 65.5468C278.683 65.585 278.539 65.6995 278.552 65.8232Z" fill="#202020"/>
<path d="M275.154 65.1391C274.971 65.473 274.407 65.2975 274.04 65.4021C273.718 65.4934 273.418 65.7743 273.087 65.7169C272.773 65.6637 272.309 65.4484 272.331 65.1307C272.359 64.7102 273.011 64.5711 273.426 64.4988C273.961 64.4063 274.616 64.4364 275.03 64.7877C275.124 64.8687 275.213 65.0301 275.154 65.1391Z" fill="#202020"/>
<path fill-rule="evenodd" clip-rule="evenodd" d="M687.878 349.692C687.933 349.896 687.961 350.107 687.962 350.319V383.235C687.962 383.657 687.85 384.072 687.639 384.438C687.427 384.803 687.122 385.106 686.756 385.317L659.129 401.223V432.75C659.129 433.608 658.673 434.4 657.929 434.832L600.26 468.03C600.128 468.105 599.984 468.153 599.84 468.204C599.786 468.222 599.735 468.255 599.678 468.27C599.275 468.376 598.851 468.376 598.448 468.27C598.382 468.252 598.322 468.216 598.259 468.192C598.127 468.144 597.989 468.102 597.863 468.03L540.206 434.832C539.84 434.621 539.535 434.318 539.324 433.952C539.112 433.587 539 433.172 539 432.75V334.002C539 333.786 539.03 333.576 539.084 333.372C539.102 333.303 539.144 333.24 539.168 333.171C539.213 333.045 539.255 332.916 539.321 332.799C539.366 332.721 539.432 332.658 539.486 332.586C539.555 332.49 539.618 332.391 539.699 332.307C539.768 332.238 539.858 332.187 539.936 332.127C540.023 332.055 540.101 331.977 540.2 331.92H540.203L569.033 315.321C569.398 315.111 569.812 315 570.233 315C570.654 315 571.068 315.111 571.433 315.321L600.263 331.92H600.269C600.365 331.98 600.446 332.055 600.533 332.124C600.611 332.184 600.698 332.238 600.767 332.304C600.851 332.391 600.911 332.49 600.983 332.586C601.034 332.658 601.103 332.721 601.145 332.799C601.214 332.919 601.253 333.045 601.301 333.171C601.325 333.24 601.367 333.303 601.385 333.375C601.44 333.579 601.468 333.79 601.469 334.002V395.679L625.493 381.846V350.316C625.493 350.106 625.523 349.893 625.577 349.692C625.598 349.62 625.637 349.557 625.661 349.488C625.709 349.362 625.751 349.233 625.817 349.116C625.862 349.038 625.928 348.975 625.979 348.903C626.051 348.807 626.111 348.708 626.195 348.624C626.264 348.555 626.351 348.504 626.429 348.444C626.519 348.372 626.597 348.294 626.693 348.237H626.696L655.529 331.638C655.894 331.427 656.308 331.317 656.729 331.317C657.15 331.317 657.564 331.427 657.929 331.638L686.759 348.237C686.861 348.297 686.939 348.372 687.029 348.441C687.104 348.501 687.191 348.555 687.26 348.621C687.344 348.708 687.404 348.807 687.476 348.903C687.53 348.975 687.596 349.038 687.638 349.116C687.707 349.233 687.746 349.362 687.794 349.488C687.821 349.557 687.86 349.62 687.878 349.692ZM683.156 381.846V354.474L673.067 360.282L659.129 368.307V395.679L683.159 381.846H683.156ZM654.326 431.361V403.971L640.616 411.801L601.466 434.145V461.793L654.326 431.361ZM543.806 338.157V431.361L596.66 461.79V434.148L569.048 418.521L569.039 418.515L569.027 418.509C568.934 418.455 568.856 418.377 568.769 418.311C568.694 418.251 568.607 418.203 568.541 418.137L568.535 418.128C568.457 418.053 568.403 417.96 568.337 417.876C568.277 417.795 568.205 417.726 568.157 417.642L568.154 417.633C568.1 417.543 568.067 417.435 568.028 417.333C567.989 417.243 567.938 417.159 567.914 417.063V417.06C567.884 416.946 567.878 416.826 567.866 416.709C567.854 416.619 567.83 416.529 567.83 416.439V416.433V351.99L553.895 343.962L543.806 338.16V338.157ZM570.236 320.175L546.215 334.002L570.23 347.829L594.248 333.999L570.23 320.175H570.236ZM582.728 406.467L596.663 398.445V338.157L586.574 343.965L572.636 351.99V412.278L582.728 406.467ZM656.729 336.492L632.711 350.319L656.729 364.146L680.744 350.316L656.729 336.492ZM654.326 368.307L640.388 360.282L630.299 354.474V381.846L644.234 389.868L654.326 395.679V368.307ZM599.06 429.99L634.289 409.878L651.899 399.828L627.899 386.01L600.266 401.919L575.081 416.418L599.06 429.99Z" fill="#FF2D20"/>
<path d="M542.327 135.848L455.953 197.062C454.169 198.326 451.69 197.158 451.528 194.978L443.673 88.8881C443.498 86.513 446.172 85.011 448.109 86.3971L490.839 116.982C491.111 117.177 491.416 117.321 491.74 117.409L541.436 130.846C543.729 131.466 544.265 134.475 542.327 135.848Z" fill="url(#paint1_linear_9_2)"/>
<path d="M522.274 108.276L484.528 98.6029C483.907 98.4439 483.258 98.7248 482.949 99.2856L463.747 134.144C463.295 134.965 463.759 135.99 464.674 136.193L475.343 138.551C476.341 138.772 476.776 139.951 476.161 140.767L466.647 153.392C466.007 154.242 466.507 155.467 467.559 155.626L474.355 156.648C475.409 156.807 475.909 158.035 475.266 158.885L460.269 178.691C459.33 179.929 460.801 181.549 462.124 180.734L463.008 180.189L517.873 137.439C518.792 136.723 518.49 135.264 517.362 134.972L506.559 132.171C505.543 131.907 505.165 130.665 505.86 129.88L522.977 110.567C523.673 109.781 523.292 108.537 522.274 108.276Z" fill="url(#paint2_linear_9_2)"/>
<path d="M122 420C102 420 89.5 429.906 84.5 449.717C92 439.811 100.75 436.097 110.75 438.573C116.456 439.987 120.533 444.087 125.047 448.625C132.4 456.018 140.911 464.575 159.5 464.575C179.5 464.575 192 454.67 197 434.858C189.5 444.764 180.75 448.479 170.75 446.002C165.044 444.588 160.967 440.488 156.453 435.951C149.1 428.557 140.589 420 122 420ZM84.5 464.575C64.5 464.575 52 474.481 47 494.292C54.5 484.387 63.25 480.672 73.25 483.149C78.9555 484.563 83.0334 488.663 87.5473 493.2C94.9 500.594 103.411 509.151 122 509.151C142 509.151 154.5 499.245 159.5 479.434C152 489.34 143.25 493.054 133.25 490.578C127.544 489.164 123.467 485.064 118.953 480.526C111.6 473.133 103.089 464.575 84.5 464.575Z" fill="#14B4C6"/>
<path fill-rule="evenodd" clip-rule="evenodd" d="M673.812 663L633.264 622.614L655.674 599.754L718.89 663H673.812Z" fill="#02539A"/>
<path fill-rule="evenodd" clip-rule="evenodd" d="M632.706 622.698L673.016 582.403H718.332L655.622 645.089L632.706 622.698Z" fill="#45D1FD" fill-opacity="0.85"/>
<path fill-rule="evenodd" clip-rule="evenodd" d="M598 587.575L620.854 610.388L718.332 513H672.851L598 587.575Z" fill="#45D1FD"/>
<g clip-path="url(#clip3_9_2)">
<path fill-rule="evenodd" clip-rule="evenodd" d="M591.236 54.5408L650.861 46.9586C654.858 46.4504 658.509 49.2781 659.017 53.2745L666.599 112.9C667.108 116.896 664.28 120.547 660.284 121.056L600.659 128.638C596.662 129.146 593.011 126.319 592.502 122.322L584.92 62.697C584.412 58.7006 587.24 55.049 591.236 54.5408ZM638.287 115.836L637.366 108.591C638.819 109.526 640.352 110.171 641.962 110.526C643.572 110.881 645.162 110.959 646.732 110.759C647.654 110.642 648.447 110.457 649.113 110.203C649.779 109.95 650.324 109.647 650.747 109.294C651.17 108.941 651.469 108.55 651.645 108.121C651.82 107.693 651.879 107.244 651.819 106.776C651.739 106.142 651.485 105.599 651.06 105.147C650.634 104.695 650.081 104.298 649.4 103.955C648.72 103.612 647.925 103.299 647.014 103.016C646.103 102.733 645.124 102.451 644.075 102.17C641.404 101.437 639.349 100.386 637.909 99.0204C636.47 97.6543 635.613 95.8921 635.338 93.7338C635.123 92.0432 635.278 90.5473 635.803 89.246C636.328 87.9445 637.126 86.8271 638.196 85.8932C639.267 84.9596 640.548 84.21 642.042 83.6444C643.535 83.0787 645.142 82.6865 646.864 82.4675C648.555 82.2525 650.066 82.1638 651.398 82.2014C652.73 82.2392 653.975 82.3992 655.13 82.6816L655.991 89.4511C655.399 89.1428 654.765 88.8862 654.087 88.6809C653.408 88.4758 652.718 88.322 652.014 88.2197C651.311 88.1176 650.617 88.0638 649.933 88.0587C649.25 88.0537 648.606 88.0895 648.002 88.1663C647.172 88.2719 646.427 88.4471 645.768 88.692C645.108 88.9368 644.563 89.2326 644.131 89.5788C643.7 89.9251 643.381 90.3145 643.175 90.7472C642.969 91.1798 642.898 91.6452 642.962 92.1431C643.031 92.6866 643.236 93.155 643.578 93.5488C643.919 93.9425 644.379 94.2981 644.956 94.6159C645.533 94.9335 646.223 95.2292 647.025 95.5031C647.827 95.7768 648.729 96.0494 649.73 96.3209C651.098 96.6991 652.337 97.1281 653.45 97.6078C654.562 98.0876 655.537 98.6654 656.374 99.341C657.212 100.017 657.89 100.824 658.408 101.763C658.927 102.701 659.269 103.827 659.436 105.141C659.667 106.952 659.516 108.516 658.986 109.833C658.455 111.151 657.649 112.266 656.569 113.178C655.488 114.09 654.187 114.811 652.666 115.342C651.146 115.873 649.517 116.248 647.781 116.469C645.999 116.696 644.285 116.76 642.639 116.663C640.992 116.565 639.542 116.29 638.287 115.836ZM632.21 91.1078L622.916 92.2897L626.283 118.762L618.92 119.698L615.554 93.2259L606.305 94.402L605.549 88.4565L631.454 85.1623L632.21 91.1078Z" fill="#3178C6"/>
</g>
<g clip-path="url(#clip4_9_2)">
<path d="M165.168 54.151L68.3621 33.9473L58.2321 82.4852L105.865 92.4264C107.562 92.7806 108.652 94.4446 108.298 96.1416L98.4936 143.117L147.667 153.38L167.599 57.8718C167.771 57.056 167.611 56.2052 167.155 55.5073C166.7 54.8094 165.984 54.3214 165.168 54.151Z" fill="#8E75FF"/>
<path opacity="0.405" d="M68.3565 33.9457L58.2264 82.4837L12.8127 73.0057C12.1889 72.8744 11.706 72.3795 11.5901 71.7526C11.4742 71.1257 11.7482 70.4909 12.2838 70.1452L68.3565 33.9457ZM91.5213 189.617C90.9885 189.959 90.303 189.948 89.781 189.589C89.2591 189.231 89.0034 188.595 89.1316 187.975L98.4936 143.117L147.666 153.379L91.5225 189.611L91.5213 189.617Z" fill="#8E75FF"/>
<path opacity="0.405" d="M58.2264 82.4839L107.405 92.7476C108.248 92.9235 108.796 93.7533 108.619 94.6018L98.4936 143.117L50.8602 133.176C49.1627 132.822 48.0738 131.158 48.4281 129.461L58.2321 82.4851L58.2264 82.4839Z" fill="#8E75FF"/>
</g>
<g clip-path="url(#clip5_9_2)">
<path d="M147.059 303.115C145.576 303.461 144.094 304.713 143.389 306.238L143 307.059V326.056V345.054L143.389 345.874C143.921 347.026 144.929 348.062 146.08 348.623L147.03 349.084H180.42H213.809L214.745 348.623C215.968 348.019 216.846 347.141 217.393 345.989L217.839 345.054V326.056V307.059L217.436 306.181C216.918 305.072 215.81 303.964 214.673 303.432L213.809 303.029L180.707 303C161.782 303 147.375 303.043 147.059 303.115ZM213.234 306.756C213.507 306.871 213.867 307.188 214.025 307.447C214.313 307.922 214.313 308.124 214.313 326.027C214.313 346.018 214.371 344.68 213.406 345.27C212.96 345.558 212.428 345.558 180.448 345.558C144.54 345.558 147.404 345.63 146.814 344.651C146.54 344.205 146.526 343.787 146.526 326.085C146.526 306.094 146.469 307.433 147.433 306.843C147.879 306.555 148.411 306.555 180.319 306.555C208.211 306.555 212.802 306.584 213.234 306.756Z" fill="black"/>
<path d="M153.722 326.056V338.362H157.32H160.918V331.381C160.918 327.539 160.961 324.401 161.033 324.416C161.091 324.416 162.689 326.387 164.588 328.791C166.488 331.194 168.086 333.166 168.143 333.166C168.186 333.18 169.798 331.223 171.712 328.82C173.627 326.43 175.238 324.459 175.282 324.43C175.339 324.416 175.382 327.524 175.382 331.338V338.29H178.98H182.578V326.056V313.823L178.98 313.794L175.382 313.751L171.813 318.227C169.841 320.688 168.186 322.674 168.114 322.645C168.042 322.617 166.402 320.616 164.459 318.169L160.918 313.751H157.32H153.722V326.056Z" fill="black"/>
<path d="M194.855 319.882L194.812 326.013L191.329 326.042C189.084 326.042 187.846 326.114 187.846 326.2C187.875 326.315 197.316 337.455 198.208 338.419C198.453 338.693 198.467 338.678 198.87 338.218C199.086 337.944 201.49 335.138 204.21 331.971C206.916 328.805 209.132 326.171 209.132 326.128C209.132 326.085 207.549 326.071 205.606 326.099L202.08 326.157V319.954V313.751H198.482H194.884L194.855 319.882Z" fill="black"/>
</g>
<g clip-path="url(#clip6_9_2)">
<path fill-rule="evenodd" clip-rule="evenodd" d="M601.441 173.989C600.277 166.018 590.979 162.368 584.704 167.419L516.317 222.472C510.043 227.523 511.497 237.487 518.936 240.407L550.579 252.827C548.51 248.751 549.253 243.396 553.307 240.142L605.035 198.612L601.441 173.989Z" fill="#80EEC0"/>
<path d="M621.015 199.635C626.184 195.516 633.879 198.536 634.866 205.072L645.623 276.298C646.61 282.834 640.148 287.983 633.993 285.566L566.902 259.233C560.746 256.817 559.512 248.648 564.681 244.528L621.015 199.635Z" fill="#00DC82"/>
</g>
<g clip-path="url(#clip7_9_2)">
<path d="M2.41466 407.378L15 347.258C16.7736 338.786 23.5681 332.262 32.1179 330.822L45.4333 328.579L32.848 388.699C31.0744 397.171 24.2799 403.695 15.7301 405.135L2.41466 407.378Z" fill="url(#paint3_linear_9_2)"/>
<path d="M34.8161 401.92L47.4014 341.801C49.1748 333.328 55.9693 326.804 64.5191 325.364L77.8347 323.121L65.2492 383.241C63.4758 391.713 56.6813 398.237 48.1315 399.677L34.8161 401.92Z" fill="url(#paint4_linear_9_2)"/>
<path d="M67.2194 396.462L79.8047 336.342C81.5781 327.87 88.3726 321.346 96.9224 319.906L110.238 317.663L97.6525 377.782C95.8791 386.255 89.0846 392.779 80.5348 394.219L67.2194 396.462Z" fill="url(#paint5_linear_9_2)"/>
</g>
</g>
<defs>
<linearGradient id="paint0_linear_9_2" x1="387.782" y1="880.351" x2="387.782" y2="229.784" gradientUnits="userSpaceOnUse">
<stop stop-color="#808080" stop-opacity="0.25"/>
<stop offset="0.54" stop-color="#808080" stop-opacity="0.12"/>
<stop offset="1" stop-color="#808080" stop-opacity="0.1"/>
</linearGradient>
<linearGradient id="paint1_linear_9_2" x1="445.718" y1="81.6013" x2="466.238" y2="188.104" gradientUnits="userSpaceOnUse">
<stop stop-color="#41D1FF"/>
<stop offset="1" stop-color="#BD34FE"/>
</linearGradient>
<linearGradient id="paint2_linear_9_2" x1="496.471" y1="98.2438" x2="472.669" y2="175.299" gradientUnits="userSpaceOnUse">
<stop stop-color="#FFEA83"/>
<stop offset="0.0833333" stop-color="#FFDD35"/>
<stop offset="1" stop-color="#FFA800"/>
</linearGradient>
<linearGradient id="paint3_linear_9_2" x1="250.868" y1="288.507" x2="143.009" y2="479.853" gradientUnits="userSpaceOnUse">
<stop stop-color="#FF5CAA"/>
<stop offset="1" stop-color="#FF4E62"/>
</linearGradient>
<linearGradient id="paint4_linear_9_2" x1="180.107" y1="300.427" x2="72.2482" y2="491.773" gradientUnits="userSpaceOnUse">
<stop stop-color="#FF5CAA"/>
<stop offset="1" stop-color="#FF4E62"/>
</linearGradient>
<linearGradient id="paint5_linear_9_2" x1="109.343" y1="312.348" x2="1.29913" y2="400.07" gradientUnits="userSpaceOnUse">
<stop stop-color="#FF5CAA"/>
<stop offset="1" stop-color="#FF4E62"/>
</linearGradient>
<clipPath id="clip0_9_2">
<rect width="747" height="881" fill="white"/>
</clipPath>
<clipPath id="clip1_9_2">
<rect width="512" height="646" fill="white" transform="translate(132 235)"/>
</clipPath>
<clipPath id="clip2_9_2">
<rect width="150" height="170.667" fill="white" transform="translate(-3 564.17) rotate(-5.80435)"/>
</clipPath>
<clipPath id="clip3_9_2">
<rect width="75" height="75" fill="white" transform="translate(584 55.4609) rotate(-7.24708)"/>
</clipPath>
<clipPath id="clip4_9_2">
<rect width="150" height="150" fill="white" transform="translate(21.6452 23) rotate(11.7886)"/>
</clipPath>
<clipPath id="clip5_9_2">
<rect width="75" height="46.1538" fill="white" transform="translate(143 303)"/>
</clipPath>
<clipPath id="clip6_9_2">
<rect width="143.08" height="97.7888" fill="white" transform="translate(544.729 146) rotate(21.4301)"/>
</clipPath>
<clipPath id="clip7_9_2">
<rect width="121.228" height="121.228" fill="white" transform="translate(-13.5541 312.584) rotate(-9.56207)"/>
</clipPath>
</defs>
</svg>
