<svg width="747" height="881" viewBox="0 0 747 881" fill="none" xmlns="http://www.w3.org/2000/svg">
<g clip-path="url(#clip0_801_2)">
<path opacity="0.4" d="M589.55 666.757H544.265V697.311H589.55V666.757Z" fill="black"/>
<path opacity="0.4" d="M711.804 666.757H666.519V697.311H711.804V666.757Z" fill="black"/>
<path opacity="0.4" d="M373.354 466.366H146.961V493.675H373.354V466.366Z" fill="black"/>
<path opacity="0.4" d="M373.354 553.5H146.961V580.809H373.354V553.5Z" fill="black"/>
<path d="M632.049 619.485C632.049 619.485 577.722 632.625 556.22 657.211C549.016 665.428 538.328 671.348 527.292 675.575V638.483C539.721 617.617 552.246 594.409 552.246 594.409C552.816 593.269 557.344 577.264 557.344 577.264C567.541 569.253 556.774 541.263 556.774 541.263C556.774 541.263 563.013 523.548 559.609 520.113C556.204 516.677 559.038 507.543 561.873 503.538C564.707 499.532 564.137 494.387 564.137 490.968C564.137 487.548 559.609 482.387 552.246 479.537C544.883 476.688 552.816 472.113 557.344 470.957C561.873 469.801 563.013 458.957 557.914 453.242C552.816 447.527 558.484 444.107 561.303 437.822C564.121 431.537 552.198 432.677 552.198 432.677V374.893C552.198 374.893 548.794 356.038 545.406 322.888C542.017 289.737 528.986 286.318 528.986 286.318C522.006 284.15 515.195 281.473 508.608 278.307C501.672 275.057 494.48 272.383 487.105 270.312C487.105 270.312 471.825 270.312 459.364 266.481C446.903 262.65 440.443 262.381 440.443 262.381L438.4 261.368C423.077 253.578 410.937 240.706 404.056 224.956C403.708 224.164 403.391 223.373 403.075 222.613C406.459 218.906 409.486 214.888 412.116 210.613V210.518C412.116 211.104 412.116 211.689 412.116 212.275C412.116 212.513 412.116 212.766 412.116 213.003C412.116 214.412 412.116 215.821 412.116 217.23V217.373C421.141 201.431 447.33 197.79 449.816 179.584C449.929 178.755 449.988 177.919 449.991 177.082V176.971C449.991 176.37 449.991 175.752 449.991 175.135C449.658 170.053 447.916 164.987 447.584 159.858C447.473 158.388 447.473 156.911 447.584 155.441V155.536C448.755 141.399 459.412 129.098 464.288 115.372C465.6 111.68 466.456 107.842 466.838 103.942V103.831C466.964 102.66 467.044 101.472 467.075 100.285C467.075 100 467.075 99.6993 467.075 99.4144C467.075 98.5911 467.075 97.8312 467.075 96.9447C466.927 89.6418 465.284 82.4468 462.248 75.8032C459.211 69.1596 454.846 63.2084 449.421 58.3166C440.395 50.4801 428.472 45.5566 422.218 35.3138C419.304 30.5645 417.879 24.9285 414.697 20.3375C408.712 11.662 397.723 8.13162 387.32 6.88096C376.917 5.63029 366.229 6.04191 356.286 2.78068C349.224 0.469323 342.827 -3.63095 335.702 -5.689C327.938 -7.76612 319.725 -7.41878 312.166 -4.69358C304.606 -1.96839 298.061 3.00416 293.409 9.55643C289.657 15.034 287.202 21.5882 282.135 25.8626C271.764 34.6331 254.173 30.8336 245.084 40.9339C240.096 46.4907 239.526 54.058 240.128 61.7836C240.128 61.8786 240.128 61.9736 240.128 62.0685C240.128 62.6543 240.239 63.2559 240.302 63.8575C240.302 64.1424 240.302 64.4274 240.302 64.6965C240.302 64.9657 240.302 65.2981 240.413 65.5989C240.73 68.3694 241.126 71.124 241.474 73.7836C241.474 74.1952 241.569 74.5911 241.616 75.0027L241.902 77.4882C241.902 78.0898 241.997 78.6913 242.06 79.2929C242.123 79.8945 242.171 80.876 242.218 81.541C242.266 82.2059 242.218 82.7125 242.329 83.314C243.344 104.411 238.871 125.411 229.345 144.264C220.779 161.061 208.049 176.544 205.832 195.304C205.487 198.378 205.402 201.477 205.579 204.565C205.579 204.929 205.579 205.293 205.579 205.658C205.579 206.022 205.674 206.766 205.721 207.32C205.769 207.874 205.848 208.602 205.927 209.235C205.927 209.6 206.022 209.964 206.069 210.328C206.18 211.167 206.307 212.006 206.449 212.861L206.544 213.399C208.793 226.191 213.891 238.729 216.599 251.647C217.614 256.411 218.291 261.241 218.626 266.101C218.618 266.132 218.618 266.165 218.626 266.196C218.721 267.779 218.8 269.283 218.847 270.835C218.847 272.924 218.847 275.03 218.847 277.167C214.549 278.819 210.142 280.173 205.658 281.22C197.741 282.36 174.513 302.94 176.207 308.133C177.901 313.326 165.82 349.294 165.487 350.386L146.486 481.786C146.486 481.786 136.4 491.506 139.551 497.791C142.702 504.076 138.934 514.936 138.934 514.936C138.934 514.936 121.896 522.361 125.681 526.936C129.465 531.511 127.739 540.076 125.142 545.791C122.546 551.506 118.286 561.796 125.142 563.506C131.999 565.216 126.314 587.522 126.314 587.522C126.314 587.522 150.207 584.768 148.482 598.952C147.912 603.464 165.186 615.876 172.391 620.847V689.143C162.716 686.436 151.348 682.921 144.096 679.533C129.386 672.678 46.7488 659.538 28.6349 698.974C10.5209 738.409 53.5416 790.985 64.2928 796.7C64.2928 796.7 74.4898 804.695 76.7541 808.7C79.0183 812.705 92.0338 813.845 92.0338 813.845C92.0338 813.845 105.619 820.178 109.008 823.55C111.509 826.083 132.204 832.653 156.731 837.798C156.731 837.798 136.923 883.392 169.24 879.64C201.557 875.888 217.296 859.977 240.081 859.977C249.185 859.977 266.096 858.695 283.117 857.175C287.393 857.931 291.622 858.93 295.784 860.167C305.374 863.182 315.223 865.302 325.204 866.5C325.204 866.5 350.68 880.21 364.266 876.774C365.386 876.459 366.431 875.92 367.338 875.191H367.654C370.124 874.574 372.927 872.025 375.84 868.178C392.83 869.919 412.258 872.389 419.479 875.207C433.555 880.637 534.243 873.117 534.243 873.117C534.243 873.117 599.288 874.399 617.925 880.035C636.561 885.671 629.943 822.489 595.551 815.381C586.371 813.54 577.031 812.617 567.668 812.626C570.05 810.17 572.227 807.523 574.176 804.71C586.558 803.586 594.76 802.89 594.76 802.89C594.76 802.89 627.583 786.884 646.267 777.164C658.197 770.676 668.911 762.171 677.935 752.024C677.935 752.024 694.339 741.734 701.132 737.776C707.925 733.818 711.313 720.631 711.313 720.631C762.789 604.034 632.049 619.485 632.049 619.485ZM484.667 473.237C484.667 471.321 484.667 469.39 484.667 467.474C486.503 468.772 486.234 470.814 484.667 473.221V473.237ZM485.205 513.654C486.583 515.459 487.913 517.105 488.863 518.403C492.52 523.152 485.902 525.369 486.377 533.237C486.488 534.994 486.646 537.448 486.804 540.171C486.108 528.82 485.538 519.48 485.205 513.638V513.654Z" fill="url(#paint0_linear_801_2)"/>
<path d="M190.6 694.004C190.6 694.004 158.932 686.642 144.191 679.851C129.449 673.059 46.8439 660.046 28.7299 699.101C10.6159 738.157 53.6367 790.194 64.3879 795.862C75.1391 801.529 179.849 723.972 179.849 723.972L262.438 758.801L278.272 704.753L190.6 694.004Z" fill="#65617D"/>
<path d="M526.769 704.752H283.861C251.654 704.752 225.545 730.857 225.545 763.059V771.497C225.545 803.698 251.654 829.803 283.861 829.803H526.769C558.976 829.803 585.085 803.698 585.085 771.497V763.059C585.085 730.857 558.976 704.752 526.769 704.752Z" fill="#65617D"/>
<path opacity="0.1" d="M585.085 767.269C585.097 779.569 581.472 791.599 574.667 801.845C572.352 805.317 569.7 808.551 566.75 811.502C560.949 817.318 554.056 821.93 546.466 825.074C538.877 828.217 530.741 829.83 522.526 829.819H288.089C271.501 829.819 255.593 823.23 243.864 811.503C232.135 799.776 225.545 783.87 225.545 767.285C225.545 750.7 232.135 734.795 243.864 723.068C255.593 711.34 271.501 704.752 288.089 704.752H522.541C539.126 704.752 555.032 711.338 566.761 723.062C578.49 734.786 585.081 750.687 585.085 767.269V767.269Z" fill="black"/>
<path d="M389.331 770.927C389.331 770.927 353.277 780.188 323.858 779.776C294.438 779.365 156.826 836.531 156.826 836.531C156.826 836.531 137.018 881.682 169.335 877.946C201.652 874.21 217.391 858.537 240.176 858.537C262.961 858.537 334.641 850.621 334.641 850.621L403.613 799.676L389.331 770.927Z" fill="#FBBEBE"/>
<path d="M411.894 344.861L347.229 357.605L343.033 358.444C343.033 358.444 291.905 344.861 290.211 343.721C288.517 342.581 242.107 280.064 242.107 280.064C242.107 280.064 265.573 280.317 284.004 269.694C284.669 269.314 285.318 268.903 285.967 268.507C294.072 263.62 300.228 256.072 303.385 247.151C303.717 246.217 304.002 245.251 304.271 244.238C306.235 236.67 306.361 227.504 303.733 216.407C297.399 190.016 311.967 182.749 331.268 183.383C359.152 184.301 397.105 201.699 397.105 201.699C397.597 210.58 399.616 219.31 403.075 227.504C403.376 228.264 403.708 229.087 404.056 229.816C410.98 245.44 423.121 258.172 438.4 265.832L440.443 266.845C442.501 267.826 444.67 268.76 446.919 269.599C496.226 288.28 411.894 344.861 411.894 344.861Z" fill="#FBBEBE"/>
<path opacity="0.1" d="M404.12 229.816C391.822 243.736 375.141 253.041 356.834 256.194C338.528 259.346 319.694 256.156 303.448 247.151C306.235 239.045 306.757 228.961 303.796 216.407C288.516 151.895 397.216 201.7 397.216 201.7C397.752 211.419 400.093 220.953 404.12 229.816V229.816Z" fill="black"/>
<path d="M424.53 172.507C424.556 187.753 420.275 202.696 412.179 215.615C409.544 219.852 406.517 223.833 403.138 227.504C388.876 243.134 369.066 252.565 347.941 253.784C346.358 253.895 344.663 253.943 343.017 253.943C326.898 253.943 311.142 249.164 297.739 240.21C284.337 231.257 273.892 218.531 267.723 203.642C261.555 188.753 259.941 172.369 263.086 156.563C266.23 140.757 273.992 126.238 285.39 114.842C296.787 103.446 311.309 95.6858 327.117 92.5418C342.926 89.3977 359.313 91.0114 374.204 97.1786C389.096 103.346 401.824 113.79 410.779 127.19C419.734 140.59 424.514 156.343 424.514 172.459L424.53 172.507Z" fill="#FBBEBE"/>
<path opacity="0.1" d="M411.894 344.861L347.229 357.606L343.033 358.445C343.033 358.445 291.905 344.861 290.211 343.722C288.517 342.582 242.107 280.064 242.107 280.064C242.107 280.064 265.573 280.318 284.004 269.695C284.669 269.315 285.318 268.903 285.967 268.508C291.826 274.84 311.001 292.745 341.133 292.618C345.001 292.62 348.864 292.339 352.691 291.779C361.78 290.386 370.948 289.484 380.1 288.613C397.628 286.777 424.435 281.458 438.511 265.975L440.554 266.988C442.612 267.969 444.781 268.903 447.03 269.742C496.226 288.281 411.894 344.861 411.894 344.861Z" fill="black"/>
<path d="M484.904 510.092C485.458 522.551 494.531 662.879 494.531 662.879H212.102L214.018 574.525L215.602 503.854L216.108 480.661L218.372 400.318L210.186 393.099L165.693 353.901C166.026 352.856 178.091 317.093 176.413 312.059C174.734 307.025 197.931 286.602 205.864 285.463C210.372 284.416 214.805 283.067 219.132 281.426C232.48 276.676 250.294 269.837 252.257 270.914C255.028 272.402 282.801 269.821 283.925 269.71C283.925 269.71 304.414 296.196 341.022 296.038C344.876 296.018 348.724 295.711 352.533 295.12C361.622 293.726 370.79 292.824 379.941 291.874C398.356 289.959 426.984 284.18 440.395 266.861C440.395 266.861 446.871 267.13 459.317 270.914C471.762 274.697 487.058 274.713 487.058 274.713C494.428 276.763 501.62 279.41 508.56 282.629C515.152 285.758 521.963 288.403 528.938 290.544C528.938 290.544 541.954 293.932 545.358 326.75C548.762 359.568 552.198 378.249 552.198 378.249L484.904 436.524C484.904 436.524 484.35 497.585 484.904 510.092Z" fill="#6C63FF"/>
<path d="M165.709 607.992L175.605 623.839L212.672 636.9L238.149 590.451L214.667 574.604L177.03 559.897L155.528 572.34L165.709 607.992Z" fill="#FBBEBE"/>
<path d="M482.07 686.071C482.07 686.071 534.702 682.114 556.22 657.781C577.738 633.449 632.049 620.435 632.049 620.435C632.049 620.435 762.789 605.158 711.218 720.599C711.218 720.599 707.829 733.613 701.037 737.57C694.244 741.528 677.84 751.723 677.84 751.723L477.019 734.182L482.07 686.071Z" fill="#65617D"/>
<path opacity="0.1" d="M585.085 767.27C585.097 779.57 581.472 791.599 574.667 801.845C540.877 804.837 466.046 811.866 450.386 816.236C431.148 821.571 392.213 812.278 387.953 811.233L387.557 811.138C387.557 811.138 380.052 788.373 376.474 773.808C374.89 767.191 374.051 762.267 375.096 761.903C378.501 760.779 409.63 752.278 409.06 757.154C408.49 762.03 502.48 720.647 502.48 720.647L505.362 756.869C514.909 767.792 585.085 751.549 585.085 767.27Z" fill="black"/>
<path d="M681.862 737L677.903 751.723C668.861 761.782 658.148 770.201 646.236 776.609C627.552 786.235 594.728 802.082 594.728 802.082C594.728 802.082 474.185 812.261 453.806 817.913C433.428 823.565 390.978 812.816 390.978 812.816C390.978 812.816 375.144 764.72 378.532 763.58C381.921 762.441 413.05 753.971 412.496 758.831C411.942 763.691 505.916 722.324 505.916 722.324L681.862 737Z" fill="#65617D"/>
<path d="M346.231 863.872C346.231 863.872 405.481 868.004 419.574 873.37C433.666 878.737 534.338 871.312 534.338 871.312C534.338 871.312 599.383 872.579 618.02 878.151C636.656 883.724 630.038 821.159 595.646 814.146C561.255 807.133 512.788 817.455 512.788 817.455C512.788 817.455 458.098 810.41 451.463 809.539C444.829 808.668 401.143 809.935 401.143 809.935L346.231 863.872Z" fill="#FBBEBE"/>
<path opacity="0.1" d="M113.394 707.696C113.394 707.696 191.708 714.741 213.242 727.58L113.394 707.696Z" fill="black"/>
<path opacity="0.1" d="M601.869 656.34C601.869 656.34 540.545 671.253 516.509 693.195L601.869 656.34Z" fill="black"/>
<path opacity="0.1" d="M117.954 689.886C119.205 690.298 154.008 694.857 153.168 698.166C152.329 701.475 117.954 689.886 117.954 689.886Z" fill="black"/>
<path opacity="0.1" d="M63.2635 777.18L67.792 794.167C67.792 794.167 77.9732 802.082 80.2374 806.04C82.5017 809.998 95.5171 811.138 95.5171 811.138C95.5171 811.138 109.103 817.359 112.507 820.747C115.911 824.135 152.677 834.9 187.211 839.428C221.745 843.956 285.682 852.441 299.268 856.969C308.867 859.945 318.72 862.028 328.703 863.191C328.703 863.191 354.164 876.774 367.749 873.386C381.335 869.998 404.531 808.304 404.531 808.304C404.531 808.304 315.117 787.375 312.283 780.584C309.449 773.792 223.423 742.114 223.423 742.114L172.486 743.317L63.2635 777.18Z" fill="black"/>
<path d="M59.8593 778.874L64.3878 795.86C64.3878 795.86 74.5848 803.776 76.8491 807.734C79.1133 811.692 92.1288 812.832 92.1288 812.832C92.1288 812.832 105.714 819.053 109.103 822.457C112.491 825.861 149.289 836.594 183.807 841.122C218.325 845.65 282.294 854.135 295.879 858.663C305.474 861.63 315.322 863.707 325.299 864.869C325.299 864.869 350.775 878.436 364.361 875.048C377.946 871.66 401.143 809.966 401.143 809.966C401.143 809.966 311.713 789.037 308.895 782.246C306.076 775.454 179.849 723.971 179.849 723.971L140.264 714.916L59.8593 778.874Z" fill="#65617D"/>
<path d="M175.589 348.249L165.693 353.917L146.692 484.065C146.692 484.065 136.606 493.69 139.757 499.896C142.908 506.102 139.14 516.867 139.14 516.867C139.14 516.867 122.102 524.229 125.887 528.756C129.671 533.284 127.945 541.77 125.348 547.421C122.752 553.073 118.492 563.253 125.348 564.962C132.204 566.672 126.52 588.709 126.52 588.709C126.52 588.709 150.413 585.986 148.687 600.013C147.975 605.68 175.7 623.76 175.7 623.76C175.7 623.76 144.191 566.609 214.778 574.524L220.843 542.308C220.843 542.308 226.907 524.165 220.843 518.561C214.778 512.957 222.204 486.028 222.204 486.028L223.534 369.178L175.589 348.249Z" fill="#6C63FF"/>
<path opacity="0.1" d="M160.215 516.33C161.465 518.403 199.578 522.662 202.064 529.422C204.549 536.182 160.215 516.33 160.215 516.33Z" fill="black"/>
<path opacity="0.1" d="M148.197 548.641C148.197 548.641 153.374 532.477 165.614 535.374C177.853 538.271 148.197 548.641 148.197 548.641Z" fill="black"/>
<path opacity="0.1" d="M141.578 572.246C141.578 572.246 150.683 550.699 163.112 552.361C175.542 554.024 141.578 572.246 141.578 572.246Z" fill="black"/>
<path d="M556.22 571.77L552.246 595.517C552.246 595.517 511.505 670.224 504.142 671.348C496.78 672.472 456.641 621.559 456.641 621.559L445.89 571.754L488.214 563.728L507.008 545.158C507.008 545.158 554.51 549.701 556.22 571.77Z" fill="#FBBEBE"/>
<path d="M536.966 367.5L552.246 378.25V435.4C552.246 435.4 564.137 434.261 561.303 440.498C558.468 446.736 552.816 450.108 557.914 455.775C563.013 461.443 561.873 472.176 557.344 473.316C552.816 474.456 544.899 478.968 552.246 481.802C559.593 484.635 564.137 489.717 564.137 493.121C564.137 496.525 564.707 501.606 561.873 505.564C559.038 509.522 556.22 518.578 559.608 521.981C562.997 525.385 556.774 542.91 556.774 542.91C556.774 542.91 567.541 570.646 557.344 578.562C557.344 578.562 552.816 594.393 552.246 595.533C552.246 595.533 559.387 540.456 488.182 563.744C488.182 563.744 486.868 542.752 486.377 534.979C485.886 527.206 492.52 524.926 488.863 520.287C485.205 515.649 476.053 504.994 480.376 502.176C484.698 499.358 483.21 494.261 481.5 490.287C479.79 486.314 473.821 486.329 479.236 481.517C484.651 476.704 487.865 472.192 484.683 469.928C481.5 467.664 475.974 460.287 480.376 456.899C484.778 453.511 484.904 404.276 484.904 404.276C484.904 404.276 503.018 331.848 536.966 367.5Z" fill="#6C63FF"/>
<path opacity="0.1" d="M529.777 464.862C529.777 464.862 551.533 458.957 552.246 464.862C552.958 470.767 529.777 464.862 529.777 464.862Z" fill="black"/>
<path opacity="0.1" d="M505.33 481.121C505.33 481.121 535.161 473.664 538.882 479.459C542.603 485.253 505.33 481.121 505.33 481.121Z" fill="black"/>
<path opacity="0.1" d="M498.696 496.857C498.696 496.857 543.442 490.635 546.34 499.754C549.237 508.873 498.696 496.857 498.696 496.857Z" fill="black"/>
<path opacity="0.1" d="M505.33 516.33C506.993 516.741 548.414 519.638 549.237 527.506C550.061 535.375 505.33 516.33 505.33 516.33Z" fill="black"/>
<path d="M510.729 541.833H189.08C179.924 541.833 172.502 549.254 172.502 558.408V726.742C172.502 735.896 179.924 743.317 189.08 743.317H510.729C519.885 743.317 527.307 735.896 527.307 726.742V558.408C527.307 549.254 519.885 541.833 510.729 541.833Z" fill="#3F3D56"/>
<path opacity="0.1" d="M231.91 418.334C231.91 418.334 265.921 444.329 292.222 424.524C292.222 424.524 247.76 428.561 231.91 418.334Z" fill="black"/>
<path opacity="0.1" d="M404.12 425.332C404.12 425.332 438.115 451.311 464.415 431.506C464.415 431.506 419.969 435.559 404.12 425.332Z" fill="black"/>
<path opacity="0.1" d="M424.53 172.507C424.556 187.752 420.275 202.695 412.179 215.615C411.498 192.929 406.162 170.227 393.812 151.277C382.506 133.863 348.131 103.483 324.507 111.952C322.036 112.858 319.813 114.333 318.019 116.259C316.226 118.184 314.911 120.505 314.183 123.034C311.84 131.931 318.696 135.699 323.098 142.712C330.562 154.865 333.479 169.268 331.331 183.367C331.032 185.264 330.635 187.145 330.144 189.003C326.423 202.966 317.904 218.94 326.692 230.385C332.82 238.301 345.994 241.119 347.783 250.966C347.946 251.896 347.999 252.842 347.941 253.784C347.529 260.449 341.845 266.322 339.359 272.861C336.446 280.57 338.092 288.233 341.117 295.974C345.044 306.074 351.314 316.286 352.834 326.956C354.354 337.626 351.076 347.536 347.213 357.558C343.555 367.056 339.296 376.476 337.871 386.37C335.132 405.178 342.035 426.93 330.191 441.78C328.987 443.576 327.13 444.831 325.014 445.278C317.429 446.07 318.68 432.439 312.616 427.864C313.265 435.78 313.882 444.043 311.032 451.452C308.182 458.861 300.677 465.162 292.823 463.912L290.116 446.133C284.772 451.393 278.34 455.419 271.273 457.928C274.055 439.022 280.753 420.904 290.939 404.735C271.004 414.328 259.382 435.099 249.011 454.635C242.551 466.84 235.853 480.17 238.117 493.801C239.036 499.358 241.427 504.645 241.949 510.234C242.472 515.822 240.445 522.36 235.235 524.482C230.691 526.334 225.387 524.118 222.109 520.413L221.539 519.732C221.223 519.321 220.922 518.893 220.637 518.466C220.071 517.606 219.568 516.707 219.132 515.775C217.717 512.428 216.655 508.942 215.966 505.374L215.617 503.79C210.345 480.661 205.594 456.803 209.458 433.405C210.883 424.793 213.48 416.244 213.163 407.505C212.925 402.578 211.921 397.717 210.186 393.099C205.563 380.149 196.664 368.26 191.597 355.215C191.542 355.126 191.499 355.03 191.471 354.93C188.811 348.027 187.496 339.399 192.421 333.858C194.954 330.993 198.754 329.552 201.921 327.526C211.77 321.114 216.171 308.94 217.992 297.32C218.812 292.083 219.225 286.79 219.227 281.489C232.575 276.739 250.389 269.9 252.352 270.977C255.123 272.465 282.895 269.884 284.02 269.774C292.475 264.898 299.854 257.726 303.464 247.23C303.796 246.296 304.081 245.33 304.35 244.317C291.673 237.478 281.036 227.403 273.521 215.116C266.006 202.829 261.883 188.77 261.571 174.372C261.258 159.973 264.769 145.749 271.744 133.148C278.719 120.547 288.91 110.02 301.279 102.639C313.647 95.2572 327.752 91.2853 342.155 91.1275C356.559 90.9696 370.747 94.6315 383.274 101.74C395.802 108.849 406.221 119.15 413.471 131.595C420.721 144.04 424.542 158.184 424.545 172.586L424.53 172.507Z" fill="black"/>
<path d="M330.144 185.615C326.407 199.578 317.904 215.552 326.708 227.014C332.836 234.929 346.009 237.731 347.767 247.594C349.176 255.51 342.194 262.032 339.375 269.473C332.662 287.251 350.174 304.729 352.834 323.552C355.731 343.974 340.848 362.576 337.887 382.983C335.147 401.79 342.051 423.526 330.207 438.392C329.011 440.195 327.15 441.453 325.03 441.89C317.445 442.698 318.696 429.067 312.632 424.476C313.281 432.392 313.898 440.656 311.048 448.065C308.198 455.474 300.693 461.759 292.839 460.524L290.132 442.73C284.789 447.991 278.357 452.017 271.289 454.524C274.071 435.625 280.764 417.514 290.939 401.347C271.004 410.94 259.398 431.711 249.027 451.231C242.551 463.437 235.869 476.782 238.117 490.413C239.036 495.97 241.427 501.242 241.949 506.846C242.472 512.45 240.445 518.957 235.236 521.094C230.485 523.073 224.738 520.445 221.539 516.345C218.341 512.244 217.106 507.02 215.95 501.97C210.535 478.35 205.484 453.97 209.426 430.065C210.851 421.437 213.448 412.888 213.131 404.165C212.451 385.056 198.343 369.336 191.471 351.558C188.795 344.639 187.496 336.027 192.421 330.486C194.954 327.621 198.754 326.18 201.921 324.154C211.754 317.726 216.172 305.568 217.977 293.948C219.922 281.386 219.562 268.576 216.916 256.143C212.941 237.541 203.821 219.367 206.085 200.48C208.302 181.895 221.033 166.57 229.599 149.931C240.619 128.396 244.848 104.025 241.727 80.0366C240.255 68.8757 237.674 55.9574 245.243 47.6143C254.331 37.609 271.923 41.3769 282.294 32.7014C287.361 28.4744 289.815 21.9678 293.568 16.5535C298.257 10.0491 304.812 5.12219 312.364 2.4252C319.917 -0.2718 328.11 -0.611679 335.86 1.45055C342.985 3.49278 349.382 7.54557 356.444 9.8411C366.388 13.0073 377.028 12.659 387.478 13.9097C397.929 15.1604 408.87 18.6591 414.855 27.2238C418.022 31.7831 419.463 37.3399 422.376 42.0576C428.631 52.1896 440.554 57.0656 449.579 64.8387C457.319 71.7384 462.855 80.7643 465.496 90.79C468.137 100.816 467.767 111.397 464.431 121.214C459.048 136.206 446.586 149.472 447.647 165.367C448.075 171.905 450.814 178.317 449.959 184.792C447.457 202.823 421.284 206.417 412.243 222.217C412.971 196.317 407.999 169.641 393.859 147.937C382.554 130.522 348.179 100.126 324.554 108.596C322.086 109.506 319.866 110.983 318.073 112.908C316.28 114.833 314.964 117.152 314.231 119.678C311.887 128.559 318.744 132.343 323.145 139.356C327.359 146.202 330.151 153.826 331.353 161.773C332.556 169.721 332.144 177.83 330.144 185.615Z" fill="#553538"/>
<path d="M348.322 627.405C346.087 627.658 343.827 628.367 341.976 629.402C341.208 629.833 339.836 630.758 339.253 631.252C338.637 631.767 337.554 632.871 337.081 633.47C334.905 636.192 333.532 639.644 333.254 643.06C333.175 644.027 333.217 646.05 333.338 647.133C333.627 649.724 334.395 652.262 335.583 654.542C336.019 655.383 336.34 655.883 337.118 656.907C340.125 660.896 343.606 663.082 348.19 663.865C348.916 663.986 350.393 664.159 350.703 664.159C350.788 664.159 350.488 664.012 349.952 663.797C346.955 662.593 344.994 661.432 343.038 659.713C341.077 657.99 338.764 655.068 337.786 653.071C336.54 650.538 335.967 648.21 335.856 645.241C335.72 641.51 336.871 637.973 339.142 635.167C340.851 633.049 343.511 631.278 346.103 630.532C346.739 630.348 347.707 630.143 348.401 630.044C349.179 629.938 351.471 629.954 352.265 630.075C354.221 630.369 355.935 631.073 357.438 632.198C358.322 632.855 359.515 634.142 360.162 635.136C360.824 636.15 361.45 637.711 361.728 639.051C361.897 639.855 361.96 641.247 361.865 642.088C361.702 643.507 361.213 645.015 360.567 646.098C358.847 648.962 355.451 650.596 352.123 650.155C350.546 649.944 349.352 649.377 348.253 648.305C346.156 646.25 345.556 643.213 346.797 640.942C347.349 639.939 348.327 639.003 349.216 638.62C349.631 638.441 350.572 638.199 351.061 638.142C351.902 638.047 352.833 638.247 353.579 638.683C354.089 638.982 354.825 639.734 355.125 640.265C356.261 642.282 355.782 644.532 353.984 645.583C353.579 645.824 352.812 646.103 352.386 646.166C351.997 646.224 351.992 646.276 352.37 646.345C352.938 646.45 353.748 646.392 354.3 646.203C356.008 645.614 357.307 643.959 357.496 642.141C357.543 641.662 357.465 640.622 357.344 640.091C356.981 638.52 355.756 637.064 354.089 636.234C351.403 634.889 347.943 635.63 345.656 638.031C344.873 638.856 344.342 639.739 343.984 640.822C343.427 642.493 343.385 643.985 343.832 645.788C344.589 648.809 346.939 651.363 349.868 652.335C352.512 653.218 355.498 652.992 358.153 651.71C359.436 651.09 360.241 650.533 361.15 649.619C363.116 647.658 364.299 644.931 364.541 641.794C364.667 640.244 364.494 638.893 363.958 637.133C362.932 633.78 360.54 630.816 357.475 629.098C355.982 628.257 354.51 627.758 352.712 627.474C351.765 627.327 349.347 627.29 348.322 627.405Z" fill="white"/>
</g>
<defs>
<linearGradient id="paint0_linear_801_2" x1="373.829" y1="880.115" x2="373.829" y2="-7.11381" gradientUnits="userSpaceOnUse">
<stop stop-color="#808080" stop-opacity="0.25"/>
<stop offset="0.54" stop-color="#808080" stop-opacity="0.12"/>
<stop offset="1" stop-color="#808080" stop-opacity="0.1"/>
</linearGradient>
<clipPath id="clip0_801_2">
<rect width="698.254" height="881" fill="white" transform="translate(25)"/>
</clipPath>
</defs>
</svg>
