<svg
  viewBox="0 0 128 128"
  xmlns="http://www.w3.org/2000/svg"
  fill="currentColor"
>
  <path
    d="M17.3611 25.726V44.0152C17.3611 46.916 18.0621 49.1956 19.4643 50.8541C20.8664 52.5126 22.9347 53.3415 25.6691 53.3407C28.4037 53.3407 30.4633 52.5118 31.8477 50.8541C33.2322 49.1964 33.9247 46.9168 33.9252 44.0152V25.726H42.2859V44.4806C42.2859 49.5242 40.8311 53.5653 37.9215 56.604C34.9769 59.6438 30.8928 61.1637 25.6695 61.1637C20.4461 61.1637 16.362 59.6438 13.417 56.604C10.4723 53.5659 9 49.5247 9 44.4806V25.726H17.3611Z"
  />
  <path
    d="M50.4216 27.9024C52.7354 25.9679 55.8028 25.0007 59.6237 25.0007C63.5452 24.9739 67.4358 25.6948 71.0874 27.1248V34.4299C67.1606 32.8421 63.4796 32.0478 60.0444 32.047C56.7135 32.047 55.0482 33.0142 55.0488 34.9486C55.0302 35.3715 55.1253 35.7915 55.3241 36.1651C55.523 36.5387 55.8184 36.8521 56.1795 37.0728C57.3791 37.7384 58.661 38.2434 59.9922 38.5748L62.9369 39.4038C69.6679 41.2692 73.0333 44.7231 73.0331 49.7656C73.0331 53.3243 71.7622 56.1135 69.2204 58.1331C66.6787 60.1528 63.2169 61.1629 58.8353 61.1634C54.9839 61.1771 51.1652 60.4562 47.5838 59.0393V51.6306C51.5084 53.2192 55.2414 54.0135 58.7827 54.0135C60.7455 54.0135 62.2441 53.7029 63.2784 53.0816C63.7558 52.8272 64.1533 52.4456 64.4271 51.9792C64.7009 51.5127 64.8402 50.9795 64.8295 50.4387C64.8573 50.0196 64.7747 49.6006 64.5902 49.2234C64.4056 48.8461 64.1254 48.5238 63.7775 48.2885C63.0762 47.8221 61.7966 47.3298 59.9387 46.8117L56.7839 45.9827C50.1938 44.1528 46.8987 40.7162 46.8987 35.6732C46.8987 32.4266 48.0731 29.836 50.422 27.9016"
  />
  <path
    d="M47.3606 102.308H72.6113V95.0042H47.3606V102.308ZM47.3606 73.9925H72.6113V66.8474H47.3606V73.9925ZM71.8728 80.3966H47.3606V87.7004H71.8728V80.3966Z"
  />
  <path
    d="M77.8523 66.8474H87.8247C91.7694 66.8474 94.8734 67.7031 97.1365 69.4144C98.2273 70.2093 99.1068 71.2591 99.6984 72.4723C100.29 73.6854 100.575 75.0249 100.53 76.3738C100.565 77.7112 100.266 79.0362 99.6591 80.2286C99.0523 81.4209 98.1573 82.4428 97.0554 83.2014C100.82 85.0724 102.702 87.9656 102.702 91.8812C102.743 93.3062 102.461 94.722 101.878 96.023C101.295 97.3241 100.426 98.4768 99.3358 99.3955C97.0914 101.336 94.0145 102.306 90.1052 102.306H77.8523V66.8474ZM86.1599 74.0455V80.9258H87.4992C88.9828 80.9258 90.114 80.6178 90.8928 80.0016C91.2727 79.7052 91.5767 79.3227 91.7797 78.8857C91.9827 78.4487 92.0788 77.9696 92.0601 77.4881C92.0797 77.009 91.9869 76.532 91.7889 76.0953C91.5909 75.6586 91.2934 75.2744 90.9201 74.9734C90.1595 74.3572 89.0193 74.0492 87.4992 74.0492L86.1599 74.0455ZM86.1599 87.8596V95.0577H89.7797C91.1548 95.0577 92.2316 94.7313 93.01 94.0784C93.3773 93.7507 93.6712 93.3491 93.8724 92.8998C94.0737 92.4506 94.1777 91.9639 94.1777 91.4717C94.1777 90.9795 94.0737 90.4928 93.8724 90.0435C93.6712 89.5943 93.3773 89.1927 93.01 88.865C92.2316 88.1952 91.1548 87.8604 89.7797 87.8604L86.1599 87.8596Z"
  />
  <path
    d="M118.574 95.0106C118.574 96.0506 118.265 97.0672 117.688 97.9318C117.11 98.7964 116.288 99.4702 115.327 99.868C114.366 100.266 113.309 100.37 112.289 100.167C111.269 99.9637 110.332 99.4628 109.597 98.7273C108.862 97.9919 108.361 97.0549 108.158 96.0349C107.956 95.0149 108.06 93.9576 108.458 92.9968C108.856 92.036 109.53 91.2149 110.395 90.6371C111.259 90.0594 112.276 89.751 113.316 89.751C114.006 89.751 114.69 89.887 115.328 90.1513C115.966 90.4155 116.546 90.8029 117.034 91.2911C117.522 91.7794 117.91 92.3591 118.174 92.9971C118.438 93.6351 118.574 94.3189 118.574 95.0094"
  />
  <path
    d="M85.2627 32.6425V39.0844H102.012V46.4336H85.2627V53.7832H102.743V61.1369H77.8528V25.4496H102.742V32.6425H85.2627Z"
  />
  <path
    d="M42.1115 66.8909V85.9448C42.1115 90.5526 40.9405 94.3364 38.5986 97.2964C38.335 97.6297 38.0584 97.9525 37.7692 98.264C35.8501 100.271 33.3882 101.676 30.684 102.308L25.8772 88.9144C25.8574 88.8595 25.8211 88.812 25.7733 88.7784C25.7254 88.7448 25.6684 88.7268 25.61 88.7268C25.5516 88.7268 25.4946 88.7448 25.4467 88.7784C25.3989 88.812 25.3626 88.8595 25.3428 88.9144L20.4303 102.298C17.7453 101.66 15.3022 100.259 13.3953 98.2636C13.0803 97.9338 12.7836 97.5871 12.5064 97.2248C10.1688 94.278 9 90.518 9 85.9448V66.8909H17.3514V85.4707C17.3152 86.052 17.3152 86.635 17.3514 87.2163L22.0164 77.5014C22.3399 76.8221 22.8496 76.2487 23.4861 75.8476C24.1227 75.4465 24.86 75.2344 25.6124 75.2358C26.3648 75.2371 27.1013 75.452 27.7364 75.8554C28.3715 76.2589 28.879 76.8342 29.2 77.5147L33.8184 87.2227C33.8091 87.0961 33.7934 66.8896 33.7934 66.8896L42.1115 66.8909Z"
  />
</svg>
