<svg viewBox="0 0 512 512" xmlns="http://www.w3.org/2000/svg" fill="currentColor">
    <path
        d="M103.226 25.9153C94.1259 28.3153 88.3259 31.6153 80.9259 38.6153C74.1259 45.1153 68.6259 55.2153 66.6259 64.6153C64.5259 74.5153 64.4259 437.015 66.5259 446.915C68.5259 456.315 72.7259 464.415 79.2259 471.315C86.5259 479.115 93.6259 483.315 103.526 485.915C111.226 487.815 114.426 487.915 201.626 487.915C261.626 487.915 293.726 487.515 297.726 486.815C312.226 484.215 327.426 473.015 333.526 460.415C338.726 449.715 339.126 446.615 339.126 417.415V390.415L216.626 390.715L94.1259 391.115V236.015V80.9153H202.126H310.126V92.4153V103.915H324.626H339.126V85.6153C339.126 73.6153 338.626 65.7153 337.726 62.4153C332.726 43.4153 316.726 28.4153 297.726 25.0153C293.726 24.3153 261.726 23.9153 201.226 24.0153C114.926 24.0153 110.326 24.1153 103.226 25.9153ZM212.826 418.815C227.826 426.515 229.626 447.215 216.326 457.615C206.526 465.115 193.026 463.515 184.826 453.915C174.126 441.415 179.626 422.515 195.526 417.315C200.626 415.615 207.826 416.215 212.826 418.815Z" />
    <path
        d="M119.126 131.915V151.915L151.426 151.715L183.626 151.415L183.926 131.615L184.126 111.915H151.626H119.126V131.915Z" />
    <path
        d="M310.126 144.415V160.915L307.426 161.515C300.426 163.015 293.926 165.515 286.226 169.615L277.726 174.015L266.126 162.415L254.626 150.915L242.626 162.915L230.626 174.915L242.326 186.615C253.426 197.815 253.926 198.515 252.426 200.415C249.726 203.815 244.326 216.315 242.326 223.515L240.426 230.415L224.226 230.715L208.126 230.915V247.415V263.915H224.126C236.126 263.915 240.326 264.215 240.526 265.115C243.826 276.515 247.026 284.915 250.026 290.115L253.826 296.415L242.226 308.115L230.626 319.915L242.626 331.915L254.626 343.915L266.226 332.315L277.726 320.815L285.226 324.715C292.926 328.815 298.626 331.115 305.926 332.915L310.126 334.015V350.415V366.915H327.126H344.126V350.415V333.915L346.926 333.315C355.226 331.515 370.926 325.015 374.926 321.715C375.926 320.815 378.726 323.015 387.926 332.215L399.626 343.915L411.626 331.915L423.626 319.915L412.226 308.515L400.826 297.115L404.826 289.215C409.026 281.015 411.326 275.215 413.126 268.115L414.226 263.915H430.626H447.126V247.415V230.915H430.626H414.226L413.126 226.615C411.326 219.615 409.026 213.815 404.826 205.615L400.826 197.715L412.226 186.315L423.626 174.915L411.626 162.915L399.626 150.915L388.026 162.515L376.426 174.115L372.526 171.715C366.926 168.315 357.626 164.315 350.426 162.315L344.126 160.615V144.215V127.915H327.126H310.126V144.415ZM342.226 214.215C350.826 218.415 355.626 223.115 359.826 231.615C363.226 238.415 363.526 239.815 363.526 247.415C363.526 255.015 363.226 256.415 359.826 263.215C353.726 275.515 343.626 282.515 330.426 283.615C308.826 285.415 291.126 269.115 291.126 247.415C291.126 231.415 300.226 218.415 315.326 212.815C323.026 210.015 334.926 210.615 342.226 214.215Z" />
    <path
        d="M119.126 232.915V252.915H151.626H184.126L183.926 233.115L183.626 213.415L151.426 213.115L119.126 212.915V232.915Z" />
    <path d="M119.126 338.915V358.915H151.626H184.126V338.915V318.915H151.626H119.126V338.915Z" />
</svg>