<svg width="747" height="881" viewBox="0 0 747 881" fill="none" xmlns="http://www.w3.org/2000/svg">
<g clip-path="url(#clip0)">
<path d="M18.7633 147.252C21.1679 147.252 23.1172 145.303 23.1172 142.899C23.1172 140.495 21.1679 138.546 18.7633 138.546C16.3587 138.546 14.4094 140.495 14.4094 142.899C14.4094 145.303 16.3587 147.252 18.7633 147.252Z" fill="#E7EFFD"/>
<path d="M67.9446 144.768C68.977 144.768 69.8139 143.931 69.8139 142.899C69.8139 141.867 68.977 141.03 67.9446 141.03C66.9123 141.03 66.0754 141.867 66.0754 142.899C66.0754 143.931 66.9123 144.768 67.9446 144.768Z" fill="#E7EFFD"/>
<path d="M155.092 174.021C156.124 174.021 156.961 173.184 156.961 172.152C156.961 171.12 156.124 170.283 155.092 170.283C154.059 170.283 153.222 171.12 153.222 172.152C153.222 173.184 154.059 174.021 155.092 174.021Z" fill="#E7EFFD"/>
<path d="M696.04 170.283C697.072 170.283 697.909 169.447 697.909 168.414C697.909 167.382 697.072 166.545 696.04 166.545C695.007 166.545 694.17 167.382 694.17 168.414C694.17 169.447 695.007 170.283 696.04 170.283Z" fill="#E7EFFD"/>
<path opacity="0.4" d="M537.93 724.733H504.725V747.137H537.93V724.733Z" fill="black"/>
<path opacity="0.4" d="M627.574 724.733H594.368V747.137H627.574V724.733Z" fill="black"/>
<path opacity="0.4" d="M379.403 577.794H213.399V597.819H379.403V577.794Z" fill="black"/>
<path opacity="0.4" d="M379.403 641.687H213.399V661.711H379.403V641.687Z" fill="black"/>
<path d="M130.234 326.311H127.378V323.456H126.867V326.311H124.011V326.822H126.867V329.678H127.378V326.822H130.234V326.311Z" fill="#E7EFFD"/>
<path d="M723.846 266.958H720.99V264.102H720.468V266.958H717.623V267.468H720.468V270.324H720.99V267.468H723.846V266.958Z" fill="#E7EFFD"/>
<path d="M197.887 255.407H195.031V252.552H194.509V255.407H191.664V255.93H194.509V258.774H195.031V255.93H197.887V255.407Z" fill="#E7EFFD"/>
<path d="M193.533 439.795C194.566 439.795 195.403 438.958 195.403 437.926C195.403 436.893 194.566 436.057 193.533 436.057C192.501 436.057 191.664 436.893 191.664 437.926C191.664 438.958 192.501 439.795 193.533 439.795Z" fill="#E7EFFD"/>
<path d="M619.83 272.82C620.862 272.82 621.699 271.983 621.699 270.951C621.699 269.919 620.862 269.082 619.83 269.082C618.797 269.082 617.96 269.919 617.96 270.951C617.96 271.983 618.797 272.82 619.83 272.82Z" fill="#E7EFFD"/>
<path d="M513.491 377.365C514.523 377.365 515.36 376.528 515.36 375.496C515.36 374.464 514.523 373.627 513.491 373.627C512.458 373.627 511.621 374.464 511.621 375.496C511.621 376.528 512.458 377.365 513.491 377.365Z" fill="#E7EFFD"/>
<path d="M569.093 690.071C569.093 690.071 529.257 699.705 513.491 717.733C508.208 723.758 500.371 728.099 492.279 731.199V704.001C501.393 688.701 510.577 671.683 510.577 671.683C510.995 670.847 514.315 659.111 514.315 659.111C521.792 653.237 513.897 632.714 513.897 632.714C513.897 632.714 518.472 619.724 515.975 617.205C513.479 614.686 515.557 607.988 517.636 605.051C519.714 602.114 519.296 598.341 519.296 595.834C519.296 593.326 515.975 589.542 510.577 587.453C505.178 585.363 510.994 582.008 514.315 581.161C517.636 580.314 518.472 572.362 514.733 568.171C510.994 563.981 515.151 561.473 517.218 556.865C519.284 552.256 510.542 553.092 510.542 553.092V510.721C510.542 510.721 508.045 496.896 505.561 472.588C503.076 448.28 493.521 445.773 493.521 445.773C488.403 444.183 483.409 442.22 478.578 439.899C473.493 437.516 468.219 435.555 462.812 434.037C462.812 434.037 451.608 434.037 442.47 431.227C433.333 428.418 428.596 428.221 428.596 428.221L427.098 427.478C415.862 421.766 406.961 412.328 401.916 400.779C401.66 400.198 401.428 399.618 401.196 399.061C403.677 396.342 405.897 393.396 407.825 390.262V390.192C407.825 390.621 407.825 391.051 407.825 391.48C407.825 391.655 407.825 391.84 407.825 392.014C407.825 393.048 407.825 394.081 407.825 395.114V395.218C414.443 383.529 433.647 380.859 435.469 367.509C435.552 366.901 435.595 366.289 435.597 365.675V365.594C435.597 365.153 435.597 364.7 435.597 364.247C435.353 360.521 434.076 356.806 433.832 353.045C433.751 351.967 433.751 350.885 433.832 349.806V349.876C434.691 339.51 442.505 330.49 446.081 320.426C447.043 317.718 447.671 314.904 447.95 312.044V311.963C448.043 311.104 448.101 310.234 448.125 309.363C448.125 309.154 448.125 308.933 448.125 308.724C448.125 308.121 448.125 307.564 448.125 306.914C448.016 301.559 446.811 296.283 444.585 291.411C442.358 286.54 439.157 282.176 435.179 278.589C428.561 272.843 419.819 269.233 415.233 261.722C413.096 258.24 412.051 254.107 409.718 250.741C405.329 244.379 397.271 241.791 389.643 240.874C382.015 239.957 374.178 240.258 366.887 237.867C361.709 236.172 357.018 233.166 351.794 231.657C346.101 230.134 340.079 230.388 334.536 232.387C328.992 234.385 324.193 238.031 320.783 242.835C318.031 246.852 316.231 251.658 312.516 254.792C304.911 261.223 292.012 258.437 285.348 265.843C281.691 269.918 281.273 275.467 281.714 281.131C281.714 281.201 281.714 281.271 281.714 281.34C281.714 281.77 281.795 282.211 281.842 282.652C281.842 282.861 281.842 283.07 281.842 283.267C281.842 283.465 281.842 283.709 281.923 283.929C282.155 285.961 282.445 287.98 282.701 289.931C282.701 290.232 282.77 290.523 282.805 290.824L283.014 292.647C283.014 293.088 283.084 293.529 283.13 293.97C283.177 294.411 283.212 295.131 283.246 295.619C283.281 296.106 283.246 296.478 283.328 296.919C284.072 312.389 280.792 327.787 273.807 341.611C267.526 353.927 258.191 365.28 256.566 379.036C256.313 381.291 256.251 383.562 256.38 385.827C256.38 386.094 256.38 386.361 256.38 386.628C256.38 386.895 256.45 387.441 256.485 387.847C256.519 388.253 256.577 388.787 256.636 389.252C256.636 389.519 256.705 389.786 256.74 390.053C256.821 390.668 256.914 391.283 257.019 391.91L257.088 392.305C258.737 401.684 262.476 410.878 264.461 420.35C265.205 423.844 265.702 427.385 265.947 430.949C265.942 430.972 265.942 430.996 265.947 431.019C266.017 432.179 266.075 433.282 266.11 434.42C266.11 435.952 266.11 437.496 266.11 439.063C262.958 440.274 259.726 441.267 256.438 442.035C250.633 442.871 233.601 457.961 234.843 461.769C236.085 465.577 227.227 491.951 226.983 492.752L213.05 589.101C213.05 589.101 205.655 596.229 207.965 600.837C210.276 605.446 207.512 613.409 207.512 613.409C207.512 613.409 195.02 618.853 197.794 622.208C200.569 625.563 199.304 631.843 197.4 636.034C195.496 640.224 192.372 647.77 197.4 649.023C202.427 650.277 198.259 666.633 198.259 666.633C198.259 666.633 215.779 664.613 214.513 675.015C214.095 678.323 226.762 687.424 232.045 691.069V741.147C224.951 739.162 216.615 736.585 211.297 734.101C200.511 729.075 139.917 719.44 126.635 748.356C113.353 777.272 144.898 815.824 152.781 820.014C152.781 820.014 160.258 825.877 161.919 828.814C163.579 831.75 173.123 832.586 173.123 832.586C173.123 832.586 183.084 837.23 185.569 839.702C187.403 841.56 202.578 846.377 220.562 850.15C220.562 850.15 206.038 883.582 229.734 880.831C253.431 878.079 264.972 866.413 281.679 866.413C288.355 866.413 300.755 865.473 313.236 864.358C316.371 864.913 319.472 865.645 322.524 866.552C329.556 868.763 336.777 870.317 344.096 871.196C344.096 871.196 362.777 881.249 372.739 878.73C373.56 878.498 374.326 878.104 374.991 877.569H375.223C377.035 877.116 379.09 875.247 381.226 872.426C393.684 873.703 407.93 875.514 413.224 877.58C423.546 881.562 497.376 876.048 497.376 876.048C497.376 876.048 545.071 876.988 558.736 881.121C572.401 885.253 567.548 838.924 542.331 833.712C535.599 832.362 528.75 831.686 521.885 831.692C523.632 829.891 525.228 827.95 526.657 825.888C535.736 825.064 541.75 824.553 541.75 824.553C541.75 824.553 565.818 812.817 579.519 805.69C588.266 800.933 596.122 794.696 602.739 787.256C602.739 787.256 614.768 779.71 619.748 776.808C624.729 773.906 627.214 764.236 627.214 764.236C664.959 678.741 569.093 690.071 569.093 690.071ZM461.024 582.833C461.024 581.428 461.024 580.012 461.024 578.607C462.37 579.559 462.173 581.056 461.024 582.821V582.833ZM461.418 612.469C462.429 613.792 463.404 614.999 464.1 615.951C466.782 619.434 461.929 621.059 462.278 626.828C462.359 628.117 462.475 629.916 462.591 631.913C462.08 623.589 461.662 616.741 461.418 612.457V612.469Z" fill="url(#paint0_linear)"/>
<path d="M245.397 744.711C245.397 744.711 222.176 739.314 211.367 734.334C200.558 729.354 139.987 719.811 126.704 748.449C113.422 777.087 144.968 815.244 152.851 819.4C160.734 823.555 237.513 766.686 237.513 766.686L298.073 792.224L309.683 752.593L245.397 744.711Z" fill="#65617D"/>
<path d="M491.895 752.593H313.782C290.165 752.593 271.021 771.735 271.021 795.347V801.534C271.021 825.146 290.165 844.288 313.782 844.288H491.895C515.512 844.288 534.656 825.146 534.656 801.534V795.347C534.656 771.735 515.512 752.593 491.895 752.593Z" fill="#65617D"/>
<path opacity="0.1" d="M534.656 798.434C534.665 807.453 532.007 816.274 527.017 823.787C525.32 826.333 523.375 828.705 521.212 830.868C516.958 835.133 511.904 838.515 506.339 840.82C500.773 843.124 494.808 844.307 488.784 844.299H316.882C304.718 844.299 293.054 839.468 284.453 830.869C275.852 822.27 271.021 810.607 271.021 798.446C271.021 786.285 275.852 774.622 284.453 766.023C293.054 757.424 304.718 752.593 316.882 752.593H488.796C500.957 752.593 512.62 757.422 521.22 766.019C529.82 774.615 534.653 786.275 534.656 798.434V798.434Z" fill="black"/>
<path d="M391.118 801.116C391.118 801.116 364.681 807.907 343.109 807.605C321.537 807.303 220.632 849.221 220.632 849.221C220.632 849.221 206.108 882.328 229.804 879.589C253.501 876.849 265.041 865.357 281.749 865.357C298.456 865.357 351.016 859.553 351.016 859.553L401.59 822.197L391.118 801.116Z" fill="#FBBEBE"/>
<path d="M407.663 488.7L360.246 498.045L357.169 498.66C357.169 498.66 319.68 488.7 318.437 487.864C317.195 487.029 283.165 441.187 283.165 441.187C283.165 441.187 300.372 441.373 313.886 433.584C314.374 433.305 314.85 433.003 315.326 432.713C321.269 429.13 325.783 423.595 328.097 417.053C328.341 416.369 328.55 415.66 328.747 414.918C330.187 409.369 330.28 402.647 328.353 394.51C323.708 375.159 334.39 369.831 348.543 370.295C368.989 370.968 396.819 383.726 396.819 383.726C397.179 390.238 398.66 396.639 401.196 402.647C401.416 403.205 401.66 403.808 401.916 404.342C406.993 415.799 415.895 425.135 427.098 430.751L428.596 431.494C430.105 432.214 431.696 432.899 433.345 433.514C469.499 447.212 407.663 488.7 407.663 488.7Z" fill="#FBBEBE"/>
<path opacity="0.1" d="M401.962 404.342C392.945 414.549 380.713 421.373 367.29 423.684C353.866 425.995 340.056 423.656 328.144 417.053C330.187 411.11 330.57 403.715 328.399 394.51C317.195 347.206 396.9 383.726 396.9 383.726C397.293 390.853 399.009 397.844 401.962 404.342V404.342Z" fill="black"/>
<path d="M416.928 362.32C416.947 373.499 413.808 384.456 407.872 393.93C405.939 397.037 403.72 399.955 401.242 402.648C390.784 414.108 376.259 421.024 360.768 421.917C359.607 421.999 358.365 422.034 357.158 422.034C345.339 422.034 333.785 418.529 323.958 411.964C314.131 405.399 306.471 396.068 301.948 385.15C297.425 374.232 296.242 362.219 298.548 350.629C300.853 339.039 306.545 328.393 314.902 320.037C323.26 311.681 333.907 305.991 345.499 303.685C357.091 301.38 369.107 302.563 380.026 307.085C390.946 311.607 400.279 319.265 406.845 329.091C413.411 338.917 416.916 350.468 416.916 362.285L416.928 362.32Z" fill="#FBBEBE"/>
<path opacity="0.1" d="M407.663 488.7L360.246 498.045L357.169 498.66C357.169 498.66 319.68 488.7 318.437 487.865C317.195 487.029 283.165 441.187 283.165 441.187C283.165 441.187 300.372 441.373 313.886 433.584C314.374 433.305 314.85 433.003 315.326 432.713C319.622 437.357 333.682 450.486 355.776 450.393C358.613 450.394 361.445 450.188 364.252 449.778C370.916 448.756 377.638 448.094 384.349 447.456C397.202 446.109 416.858 442.209 427.18 430.856L428.677 431.599C430.187 432.319 431.777 433.003 433.426 433.619C469.499 447.212 407.663 488.7 407.663 488.7Z" fill="black"/>
<path d="M461.198 609.857C461.604 618.992 468.257 721.889 468.257 721.889H261.164L262.569 657.103L263.73 605.283L264.101 588.277L265.761 529.364L259.759 524.071L227.134 495.329C227.378 494.562 236.225 468.339 234.994 464.648C233.763 460.956 250.772 445.981 256.589 445.146C259.895 444.378 263.146 443.389 266.319 442.186C276.106 438.703 289.168 433.688 290.607 434.478C292.639 435.569 313.004 433.677 313.828 433.595C313.828 433.595 328.852 453.016 355.695 452.9C358.521 452.886 361.343 452.661 364.136 452.227C370.8 451.205 377.522 450.544 384.233 449.847C397.736 448.442 418.727 444.205 428.561 431.506C428.561 431.506 433.31 431.703 442.436 434.478C451.561 437.252 462.777 437.264 462.777 437.264C468.181 438.767 473.455 440.708 478.544 443.068C483.377 445.362 488.371 447.302 493.486 448.872C493.486 448.872 503.03 451.356 505.526 475.42C508.022 499.484 510.542 513.182 510.542 513.182L461.198 555.913C461.198 555.913 460.792 600.686 461.198 609.857Z" fill="#6C63FF"/>
<path d="M227.145 681.643L234.402 693.263L261.582 702.84L280.263 668.781L263.044 657.161L235.447 646.377L219.68 655.501L227.145 681.643Z" fill="#FBBEBE"/>
<path d="M459.12 738.895C459.12 738.895 497.712 735.993 513.491 718.151C529.269 700.309 569.093 690.767 569.093 690.767C569.093 690.767 664.959 679.565 627.144 764.213C627.144 764.213 624.659 773.755 619.679 776.657C614.698 779.559 602.67 787.035 602.67 787.035L455.416 774.173L459.12 738.895Z" fill="#65617D"/>
<path opacity="0.1" d="M534.656 798.435C534.665 807.454 532.007 816.274 527.017 823.787C502.24 825.981 447.37 831.135 435.887 834.339C421.781 838.251 393.231 831.437 390.108 830.671L389.818 830.601C389.818 830.601 384.314 813.909 381.69 803.229C380.529 798.377 379.914 794.766 380.68 794.499C383.176 793.675 406.002 787.442 405.584 791.017C405.166 794.592 474.085 764.248 474.085 764.248L476.198 790.808C483.199 798.818 534.656 786.907 534.656 798.435Z" fill="black"/>
<path d="M605.619 776.239L602.716 787.035C596.086 794.411 588.23 800.584 579.495 805.283C565.795 812.341 541.727 823.961 541.727 823.961C541.727 823.961 453.338 831.425 438.395 835.569C423.453 839.714 392.325 831.831 392.325 831.831C392.325 831.831 380.715 796.565 383.2 795.729C385.684 794.894 408.51 788.683 408.104 792.247C407.697 795.811 476.605 765.478 476.605 765.478L605.619 776.239Z" fill="#65617D"/>
<path d="M359.515 869.269C359.515 869.269 402.96 872.298 413.294 876.234C423.627 880.169 497.445 874.724 497.445 874.724C497.445 874.724 545.14 875.653 558.806 879.739C572.471 883.825 567.618 837.949 542.4 832.807C517.183 827.664 481.644 835.233 481.644 835.233C481.644 835.233 441.542 830.067 436.677 829.429C431.812 828.79 399.779 829.719 399.779 829.719L359.515 869.269Z" fill="#FBBEBE"/>
<path opacity="0.1" d="M188.785 754.752C188.785 754.752 246.209 759.918 262 769.332L188.785 754.752Z" fill="black"/>
<path opacity="0.1" d="M546.963 717.095C546.963 717.095 501.997 728.03 484.372 744.119L546.963 717.095Z" fill="black"/>
<path opacity="0.1" d="M192.129 741.692C193.046 741.994 218.565 745.337 217.95 747.764C217.335 750.19 192.129 741.692 192.129 741.692Z" fill="black"/>
<path opacity="0.1" d="M152.026 805.701L155.347 818.157C155.347 818.157 162.812 823.961 164.473 826.863C166.133 829.765 175.677 830.601 175.677 830.601C175.677 830.601 185.638 835.163 188.135 837.647C190.631 840.132 217.59 848.025 242.912 851.345C268.234 854.665 315.117 860.887 325.078 864.207C332.117 866.39 339.342 867.917 346.662 868.769C346.662 868.769 365.331 878.729 375.293 876.245C385.255 873.761 402.264 828.523 402.264 828.523C402.264 828.523 336.7 813.177 334.622 808.197C332.544 803.217 269.465 779.989 269.465 779.989L232.115 780.871L152.026 805.701Z" fill="black"/>
<path d="M149.53 806.943L152.851 819.399C152.851 819.399 160.328 825.203 161.988 828.105C163.648 831.007 173.192 831.843 173.192 831.843C173.192 831.843 183.154 836.405 185.638 838.901C188.123 841.397 215.105 849.267 240.416 852.587C265.726 855.907 312.632 862.129 322.594 865.449C329.629 867.625 336.851 869.148 344.166 870C344.166 870 362.847 879.948 372.808 877.464C382.77 874.98 399.779 829.742 399.779 829.742C399.779 829.742 334.204 814.396 332.138 809.416C330.071 804.436 237.513 766.685 237.513 766.685L208.488 760.045L149.53 806.943Z" fill="#65617D"/>
<path d="M234.39 491.185L227.134 495.34L213.201 590.773C213.201 590.773 205.806 597.831 208.116 602.381C210.426 606.932 207.663 614.825 207.663 614.825C207.663 614.825 195.171 620.223 197.945 623.543C200.72 626.863 199.455 633.085 197.551 637.229C195.647 641.373 192.523 648.838 197.551 650.091C202.578 651.345 198.41 667.504 198.41 667.504C198.41 667.504 215.93 665.507 214.664 675.792C214.142 679.948 234.471 693.205 234.471 693.205C234.471 693.205 211.367 651.299 263.126 657.103L267.573 633.48C267.573 633.48 272.019 620.177 267.573 616.067C263.126 611.958 268.571 592.212 268.571 592.212L269.546 506.531L234.39 491.185Z" fill="#6C63FF"/>
<path opacity="0.1" d="M223.117 614.431C224.034 615.951 251.98 619.074 253.803 624.031C255.625 628.987 223.117 614.431 223.117 614.431Z" fill="black"/>
<path opacity="0.1" d="M214.304 638.123C214.304 638.123 218.101 626.271 227.076 628.395C236.05 630.519 214.304 638.123 214.304 638.123Z" fill="black"/>
<path opacity="0.1" d="M209.451 655.431C209.451 655.431 216.127 639.632 225.241 640.851C234.355 642.07 209.451 655.431 209.451 655.431Z" fill="black"/>
<path d="M513.491 655.083L510.577 672.496C510.577 672.496 480.703 727.275 475.304 728.1C469.906 728.924 440.473 691.591 440.473 691.591L432.59 655.071L463.624 649.186L477.406 635.569C477.406 635.569 512.237 638.901 513.491 655.083Z" fill="#FBBEBE"/>
<path d="M499.373 505.3L510.576 513.183V555.089C510.576 555.089 519.296 554.253 517.218 558.827C515.139 563.4 510.994 565.873 514.733 570.029C518.471 574.184 517.636 582.055 514.315 582.891C510.994 583.727 505.189 587.035 510.576 589.113C515.964 591.191 519.296 594.917 519.296 597.413C519.296 599.909 519.714 603.635 517.636 606.537C515.557 609.439 513.491 616.079 515.975 618.575C518.46 621.071 513.897 633.921 513.897 633.921C513.897 633.921 521.792 654.259 514.315 660.063C514.315 660.063 510.994 671.671 510.576 672.507C510.576 672.507 515.813 632.122 463.601 649.198C463.601 649.198 462.638 633.805 462.278 628.105C461.918 622.406 466.782 620.734 464.1 617.333C461.418 613.932 454.708 606.119 457.877 604.053C461.047 601.987 459.956 598.249 458.702 595.335C457.448 592.421 453.071 592.433 457.041 588.904C461.012 585.375 463.369 582.067 461.035 580.407C458.702 578.747 454.65 573.337 457.877 570.853C461.105 568.369 461.198 532.267 461.198 532.267C461.198 532.267 474.48 479.158 499.373 505.3Z" fill="#6C63FF"/>
<path opacity="0.1" d="M494.101 576.692C494.101 576.692 510.054 572.362 510.577 576.692C511.099 581.022 494.101 576.692 494.101 576.692Z" fill="black"/>
<path opacity="0.1" d="M476.175 588.614C476.175 588.614 498.049 583.146 500.777 587.395C503.506 591.643 476.175 588.614 476.175 588.614Z" fill="black"/>
<path opacity="0.1" d="M471.31 600.152C471.31 600.152 504.121 595.59 506.246 602.277C508.371 608.963 471.31 600.152 471.31 600.152Z" fill="black"/>
<path opacity="0.1" d="M476.175 614.431C477.394 614.732 507.767 616.857 508.371 622.626C508.974 628.396 476.175 614.431 476.175 614.431Z" fill="black"/>
<path d="M480.134 633.131H244.282C237.569 633.131 232.126 638.573 232.126 645.285V768.717C232.126 775.429 237.569 780.871 244.282 780.871H480.134C486.848 780.871 492.29 775.429 492.29 768.717V645.285C492.29 638.573 486.848 633.131 480.134 633.131Z" fill="#3F3D56"/>
<path opacity="0.1" d="M275.688 542.575C275.688 542.575 300.627 561.636 319.912 547.114C319.912 547.114 287.31 550.074 275.688 542.575Z" fill="black"/>
<path opacity="0.1" d="M401.962 547.706C401.962 547.706 426.889 566.755 446.174 552.233C446.174 552.233 413.584 555.205 401.962 547.706Z" fill="black"/>
<path opacity="0.1" d="M416.928 362.32C416.947 373.499 413.808 384.456 407.872 393.93C407.372 377.295 403.46 360.648 394.404 346.753C386.114 333.984 360.908 311.708 343.585 317.918C341.773 318.582 340.144 319.664 338.828 321.076C337.513 322.488 336.549 324.19 336.015 326.044C334.297 332.568 339.324 335.331 342.552 340.473C348.025 349.384 350.164 359.945 348.589 370.283C348.369 371.675 348.079 373.054 347.719 374.416C344.99 384.654 338.744 396.367 345.187 404.76C349.681 410.564 359.34 412.631 360.652 419.851C360.772 420.533 360.811 421.226 360.769 421.917C360.467 426.804 356.299 431.111 354.476 435.905C352.339 441.559 353.547 447.177 355.764 452.854C358.644 460.26 363.242 467.747 364.356 475.571C365.471 483.395 363.067 490.662 360.234 498.01C357.552 504.975 354.429 511.882 353.384 519.137C351.376 532.928 356.438 548.878 347.753 559.767C346.871 561.084 345.508 562.004 343.957 562.332C338.395 562.912 339.313 552.918 334.866 549.563C335.342 555.367 335.795 561.427 333.705 566.859C331.615 572.292 326.112 576.912 320.353 575.995L318.368 562.959C314.449 566.816 309.733 569.768 304.551 571.607C306.591 557.744 311.503 544.46 318.971 532.603C304.354 539.638 295.832 554.868 288.227 569.193C283.49 578.143 278.579 587.917 280.239 597.912C280.913 601.986 282.666 605.863 283.049 609.961C283.432 614.059 281.946 618.853 278.126 620.409C274.794 621.767 270.905 620.142 268.501 617.425L268.083 616.926C267.851 616.624 267.631 616.311 267.422 615.997C267.007 615.367 266.638 614.708 266.319 614.024C265.28 611.57 264.502 609.014 263.996 606.397L263.741 605.236C259.875 588.277 256.392 570.783 259.225 553.626C260.27 547.311 262.174 541.042 261.941 534.634C261.767 531.021 261.031 527.457 259.759 524.071C256.369 514.575 249.844 505.857 246.128 496.292C246.088 496.227 246.056 496.157 246.035 496.083C244.085 491.022 243.121 484.695 246.732 480.632C248.59 478.531 251.376 477.475 253.698 475.989C260.92 471.288 264.147 462.361 265.483 453.84C266.084 450 266.386 446.119 266.388 442.232C276.176 438.749 289.237 433.735 290.677 434.524C292.709 435.615 313.073 433.723 313.898 433.642C320.098 430.066 325.508 424.808 328.155 417.111C328.399 416.427 328.608 415.718 328.805 414.975C319.51 409.961 311.71 402.573 306.199 393.563C300.689 384.554 297.666 374.246 297.437 363.688C297.208 353.13 299.782 342.7 304.896 333.46C310.011 324.221 317.484 316.501 326.553 311.089C335.622 305.676 345.964 302.764 356.526 302.648C367.087 302.532 377.491 305.217 386.677 310.43C395.863 315.642 403.503 323.196 408.819 332.321C414.135 341.447 416.937 351.818 416.939 362.378L416.928 362.32Z" fill="black"/>
<path d="M347.719 371.932C344.979 382.17 338.744 393.883 345.199 402.288C349.692 408.092 359.352 410.146 360.641 417.378C361.674 423.183 356.554 427.965 354.487 433.421C349.565 446.457 362.406 459.273 364.356 473.075C366.481 488.05 355.567 501.69 353.396 516.653C351.387 530.444 356.45 546.382 347.765 557.282C346.888 558.605 345.523 559.527 343.968 559.848C338.407 560.44 339.324 550.445 334.878 547.079C335.354 552.883 335.806 558.942 333.717 564.375C331.627 569.808 326.123 574.416 320.365 573.511L318.379 560.463C314.462 564.321 309.745 567.273 304.563 569.111C306.603 555.254 311.51 541.974 318.971 530.119C304.354 537.153 295.844 552.384 288.239 566.697C283.49 575.647 278.591 585.433 280.239 595.427C280.913 599.502 282.666 603.367 283.049 607.477C283.432 611.586 281.946 616.357 278.126 617.924C274.643 619.375 270.429 617.448 268.083 614.442C265.738 611.435 264.833 607.605 263.985 603.902C260.014 586.582 256.31 568.705 259.201 551.176C260.246 544.85 262.15 538.581 261.918 532.185C261.419 518.174 251.074 506.647 246.035 493.611C244.073 488.538 243.121 482.223 246.732 478.16C248.59 476.059 251.376 475.002 253.698 473.516C260.908 468.803 264.147 459.888 265.471 451.368C266.897 442.157 266.634 432.763 264.693 423.647C261.779 410.007 255.091 396.681 256.752 382.832C258.377 369.204 267.712 357.967 273.993 345.767C282.074 329.975 285.175 312.105 282.887 294.516C281.807 286.332 279.914 276.859 285.464 270.742C292.128 263.405 305.027 266.168 312.632 259.807C316.347 256.707 318.147 251.936 320.899 247.966C324.337 243.197 329.144 239.584 334.682 237.606C340.219 235.629 346.227 235.38 351.91 236.892C357.135 238.389 361.825 241.361 367.003 243.044C374.295 245.366 382.097 245.111 389.76 246.028C397.422 246.945 405.445 249.51 409.834 255.79C412.156 259.133 413.212 263.208 415.349 266.667C419.935 274.097 428.677 277.672 435.295 283.372C440.97 288.431 445.03 295.049 446.966 302.401C448.903 309.752 448.632 317.511 446.186 324.709C442.238 335.702 433.101 345.43 433.879 357.085C434.192 361.879 436.201 366.58 435.574 371.328C433.739 384.55 414.548 387.185 407.918 398.77C408.452 379.779 404.807 360.219 394.439 344.304C386.149 331.535 360.943 309.247 343.62 315.457C341.81 316.124 340.182 317.207 338.867 318.619C337.552 320.03 336.588 321.73 336.05 323.583C334.332 330.095 339.359 332.87 342.587 338.012C345.677 343.032 347.724 348.622 348.605 354.45C349.487 360.278 349.186 366.223 347.719 371.932Z" fill="#553538"/>
<g opacity="0.2">
<path opacity="0.2" d="M266.319 437.728C266.463 431.763 265.906 425.802 264.658 419.968C262.185 408.359 257.007 396.995 256.531 385.34C255.858 398.318 261.93 410.878 264.658 423.647C265.648 428.279 266.204 432.993 266.319 437.728V437.728Z" fill="black"/>
<path opacity="0.2" d="M315.779 531.93C316.789 530.085 317.834 528.251 318.96 526.463C304.354 533.498 295.832 548.728 288.227 563.052C283.827 571.329 279.311 580.337 279.984 589.554C280.541 581.649 284.431 573.941 288.227 566.779C295.263 553.534 303.088 539.534 315.779 531.93Z" fill="black"/>
<path opacity="0.2" d="M282.979 607.001C282.538 610.136 280.982 613.107 278.126 614.28C274.643 615.719 270.429 613.804 268.095 610.797C265.761 607.791 264.832 603.972 263.985 600.257C261.152 587.883 258.458 575.206 258.18 562.588C257.901 576.437 260.85 590.39 263.985 603.995C264.832 607.698 265.75 611.54 268.095 614.535C270.44 617.53 274.608 619.457 278.126 618.018C281.946 616.451 283.444 611.68 283.061 607.57C282.979 607.373 282.979 607.187 282.979 607.001Z" fill="black"/>
<path opacity="0.2" d="M349.065 359.465C348.93 362.445 348.479 365.402 347.719 368.287C345.698 375.867 341.751 384.272 342.459 391.504C343.016 385.189 346.035 378.317 347.719 371.99C348.795 367.907 349.249 363.684 349.065 359.465Z" fill="black"/>
<path opacity="0.2" d="M283.572 304.07C283.669 299.643 283.428 295.215 282.852 290.825C282.422 287.598 281.876 284.161 281.691 280.807C281.424 285.276 282.236 290.093 282.852 294.563C283.266 297.716 283.506 300.89 283.572 304.07V304.07Z" fill="black"/>
<path opacity="0.2" d="M360.652 417.495C360.652 417.39 360.652 417.309 360.571 417.205C359.689 421.523 356.136 425.47 354.499 429.811C353.527 432.403 353.177 435.186 353.477 437.937C353.618 436.435 353.962 434.959 354.499 433.549C356.554 428.082 361.674 423.253 360.652 417.495Z" fill="black"/>
<path opacity="0.2" d="M261.918 528.54C261.407 514.529 251.074 503.002 246.024 489.966C245.218 487.914 244.672 485.769 244.398 483.581C244.118 487.037 244.676 490.509 246.024 493.704C250.993 506.566 261.047 517.884 261.86 531.582C261.918 530.572 261.953 529.55 261.918 528.54Z" fill="black"/>
<path opacity="0.2" d="M394.438 340.659C386.137 327.89 360.943 305.602 343.62 311.813C341.808 312.479 340.178 313.562 338.862 314.973C337.545 316.384 336.578 318.085 336.039 319.939C335.629 321.36 335.585 322.861 335.911 324.303C335.911 324.094 335.981 323.885 336.039 323.676C336.576 321.822 337.543 320.121 338.86 318.709C340.177 317.297 341.807 316.215 343.62 315.551C360.943 309.34 386.137 331.663 394.438 344.397C403.82 358.815 407.686 376.216 407.941 393.477C408.185 374.962 404.481 356.075 394.438 340.659Z" fill="black"/>
<path opacity="0.2" d="M435.539 367.649C433.716 380.836 414.64 383.494 407.941 395.01C407.941 396.275 407.941 397.552 407.941 398.817C414.559 387.209 433.763 384.597 435.585 371.375C435.748 370.076 435.748 368.762 435.585 367.463C435.576 367.526 435.56 367.588 435.539 367.649V367.649Z" fill="black"/>
<path opacity="0.2" d="M446.151 321.018C442.203 332.023 433.066 341.739 433.844 353.405C433.844 353.568 433.844 353.742 433.844 353.916C434.703 343.643 442.517 334.728 446.093 324.756C447.703 320.201 448.393 315.371 448.125 310.547C447.997 314.117 447.332 317.647 446.151 321.018V321.018Z" fill="black"/>
<path opacity="0.2" d="M347.765 553.661C346.888 554.986 345.524 555.912 343.968 556.238C338.407 556.83 339.324 546.835 334.878 543.469C334.994 544.792 335.098 546.127 335.168 547.462C339.301 551.037 338.535 560.545 343.968 559.964C344.739 559.807 345.471 559.5 346.122 559.06C346.774 558.619 347.332 558.055 347.765 557.399C352.723 551.177 353.199 543.318 353.071 535.157C352.943 541.96 351.956 548.449 347.765 553.661Z" fill="black"/>
<path opacity="0.2" d="M333.705 560.766C331.592 566.21 326.112 570.818 320.341 569.901C319.683 565.56 319.026 561.211 318.368 556.854C314.62 560.531 310.148 563.389 305.236 565.246C304.981 566.57 304.737 567.905 304.54 569.24C309.726 567.402 314.446 564.45 318.368 560.591C319.026 564.948 319.683 569.298 320.341 573.639C326.147 574.545 331.592 569.948 333.705 564.503C335.002 560.711 335.52 556.695 335.226 552.698C335.165 555.452 334.651 558.178 333.705 560.766V560.766Z" fill="black"/>
<path opacity="0.2" d="M353.396 513.032C352.948 516.538 352.781 520.074 352.897 523.607C352.915 521.319 353.082 519.036 353.396 516.77C355.474 502.503 365.471 489.444 364.565 475.293C363.764 488.085 355.288 500.03 353.396 513.032Z" fill="black"/>
</g>
<path d="M361.078 695.05C359.44 695.235 357.782 695.755 356.425 696.514C355.862 696.83 354.856 697.508 354.428 697.871C353.977 698.248 353.183 699.057 352.836 699.497C351.24 701.493 350.234 704.024 350.029 706.529C349.972 707.238 350.002 708.722 350.091 709.515C350.303 711.415 350.866 713.276 351.737 714.948C352.057 715.565 352.292 715.931 352.863 716.682C355.068 719.607 357.62 721.21 360.982 721.784C361.514 721.873 362.597 722 362.825 722C362.886 722 362.666 721.892 362.273 721.734C360.076 720.852 358.638 720 357.204 718.74C355.766 717.476 354.07 715.334 353.353 713.87C352.439 712.012 352.019 710.305 351.938 708.128C351.838 705.392 352.682 702.799 354.347 700.741C355.6 699.188 357.551 697.89 359.451 697.343C359.918 697.208 360.627 697.058 361.136 696.984C361.707 696.907 363.387 696.919 363.97 697.008C365.404 697.223 366.66 697.74 367.763 698.564C368.411 699.046 369.286 699.99 369.76 700.718C370.246 701.462 370.704 702.606 370.909 703.589C371.032 704.179 371.078 705.2 371.009 705.816C370.889 706.857 370.531 707.962 370.057 708.756C368.796 710.856 366.306 712.055 363.865 711.731C362.709 711.577 361.834 711.161 361.028 710.375C359.49 708.868 359.05 706.641 359.96 704.976C360.365 704.24 361.082 703.554 361.734 703.273C362.038 703.142 362.728 702.965 363.087 702.922C363.704 702.853 364.386 702.999 364.933 703.319C365.307 703.539 365.847 704.09 366.067 704.479C366.899 705.959 366.549 707.608 365.23 708.379C364.933 708.556 364.37 708.76 364.058 708.806C363.773 708.849 363.769 708.887 364.047 708.937C364.463 709.014 365.057 708.972 365.461 708.833C366.714 708.402 367.667 707.188 367.805 705.855C367.84 705.504 367.782 704.741 367.694 704.352C367.428 703.2 366.529 702.132 365.307 701.524C363.337 700.537 360.801 701.08 359.124 702.841C358.549 703.446 358.16 704.094 357.898 704.888C357.489 706.113 357.458 707.207 357.786 708.529C358.341 710.745 360.064 712.617 362.212 713.33C364.151 713.977 366.34 713.812 368.287 712.872C369.228 712.417 369.818 712.008 370.485 711.338C371.926 709.901 372.794 707.901 372.971 705.6C373.064 704.464 372.937 703.473 372.543 702.183C371.792 699.724 370.037 697.551 367.79 696.291C366.695 695.674 365.616 695.308 364.297 695.1C363.603 694.992 361.83 694.965 361.078 695.05Z" fill="white"/>
<path d="M451.535 14.5061L442.051 47.8239L417.939 22.9523L362 37.0156L466.41 144.714L507.473 0.442874L451.535 14.5061Z" fill="#41B883"/>
<path d="M451.535 14.5063L442.051 47.8241L417.939 22.9524L391.095 29.7012L453.74 94.3187L478.379 7.7575L451.535 14.5063Z" fill="#34495E"/>
<rect x="602.088" y="11.8184" width="100.381" height="100.381" transform="rotate(25.9042 602.088 11.8184)" fill="black"/>
<path fill-rule="evenodd" clip-rule="evenodd" d="M599.035 3L700 52.0351L650.965 153L550 103.965L599.035 3ZM635.11 125.125C630.43 122.853 628.97 119.127 628.549 114.819L618.663 115.553C618.776 122.41 622.429 129.373 631.24 133.652C640.252 138.029 649.234 136.608 653.383 128.066C657.231 120.142 654.391 114.408 648.009 107.036L646.131 104.868C642.916 101.128 641.713 99.1198 643.095 96.2736C644.214 93.9706 646.831 93.0631 649.61 94.4128C652.335 95.736 653.531 97.7373 653.742 101.444L663.434 100.288C662.978 93.2738 659.661 89.0681 653.629 86.1384C645.156 82.0234 637.103 84.8071 633.648 91.9228C629.896 99.6474 632.67 105.51 638.099 111.752L639.977 113.922C643.385 117.916 645.405 120.321 643.825 123.575C642.507 126.289 639.041 127.035 635.11 125.125ZM598.37 107.209C595.11 105.626 594.84 102.731 594.634 99.3633L584.64 100.288C584.578 106.11 587.068 112.178 594.664 115.867C603.072 119.95 611.003 118.275 615.774 108.452L631.504 76.0629L622.017 71.4552L606.349 103.716C604.046 108.458 601.487 108.723 598.37 107.209Z" fill="#F7DF1E"/>
<g clip-path="url(#clip1)">
<rect x="24.546" y="594.54" width="102.333" height="101.333" transform="rotate(-5.80435 24.546 594.54)" fill="white"/>
<path d="M70.5485 559.273C70.2934 559.4 66.4801 562.099 62.1105 565.257C57.7408 568.416 48.753 574.925 42.1338 579.685C24.6848 592.281 19.3776 596.104 11.6387 601.715C5.89419 605.851 4.62892 606.918 4.28882 607.857C3.92231 608.866 4.3611 613.512 8.05806 649.221C11.9028 686.054 12.2899 689.533 12.8981 690.242C13.2836 690.739 19.7996 693.862 30.5041 698.638C39.8079 702.818 51.9563 708.284 57.4662 710.74C62.9761 713.195 71.8949 717.214 77.2986 719.613C85.5834 723.327 87.3291 724.021 88.4567 723.906C89.5808 723.759 94.2456 720.537 122.09 700.451C139.851 687.623 154.725 676.729 155.142 676.218L155.891 675.338L151.85 634.604C147.952 595.598 147.744 593.877 147.082 592.973C146.424 592.102 128.961 584.127 78.6985 561.661C72.7671 559.014 71.6952 558.688 70.5485 559.273ZM48.4084 603.506C51.4008 603.939 53.535 604.828 55.7467 606.479C56.5436 607.068 67.6559 617.833 80.4527 630.336L103.708 653.101L101.392 628.677L99.0736 604.219L99.9162 602.291C101.767 598.082 106.834 595.858 111.467 597.263C113.196 597.791 115.571 599.728 116.582 601.434L117.546 603.011L121.022 637.202L124.494 671.359L123.807 673.171C121.697 678.78 113.76 681.128 106.409 678.357C104.909 677.773 103.368 676.79 101.681 675.353C100.322 674.185 89.25 663.483 77.0844 651.586L54.9824 629.943L57.3033 653.764L59.6243 677.585L58.8879 679.569C56.9923 684.654 51.5536 687.184 46.5985 685.241C44.1226 684.287 41.9896 682.091 41.2528 679.787C40.8729 678.687 39.7009 667.816 37.4479 644.994L34.1763 611.821L34.9127 609.837C36.7256 604.928 41.876 602.528 48.4084 603.506Z" fill="#009900"/>
</g>
<path fill-rule="evenodd" clip-rule="evenodd" d="M517.774 242.224C517.725 242.003 517.688 241.779 517.667 241.554C517.496 240.053 517.764 238.536 518.437 237.185L484.519 226.892L561.844 153.48L569.566 187.593L576.941 180.558L570.226 150.767C570.045 149.911 568.797 145.256 564.596 143.981C562.698 143.405 559.727 143.402 556.335 146.617L478.025 220.906C477.356 221.551 474.009 224.993 475.005 229.246C475.462 231.18 476.902 233.756 481.385 235.117L524.156 248.095C519.7 246.743 518.223 244.188 517.774 242.224Z" fill="#00C58E"/>
<path fill-rule="evenodd" clip-rule="evenodd" d="M618.681 263.587L599.15 176.931C598.953 176.021 597.724 171.356 593.509 170.077C591.61 169.5 588.645 169.481 585.252 172.697L576.941 180.558L579.192 190.514L590.682 179.552L610.09 264.996L594.304 260.206C594.141 261.472 593.652 262.673 592.887 263.693C592.722 263.92 592.537 264.132 592.335 264.326L592.119 264.555C588.899 267.528 584.251 266.33 583.354 266.058L608.05 273.552C608.961 273.829 613.595 275.022 616.815 272.049C618.257 270.69 619.769 268.128 618.681 263.587Z" fill="#108775"/>
<path d="M592.12 264.555L592.336 264.327C592.538 264.133 592.721 263.92 592.887 263.694C593.653 262.674 594.141 261.472 594.304 260.207C594.466 258.836 594.378 257.449 594.044 256.112L579.222 190.524L576.941 180.558L569.536 187.585L520.78 233.88C519.815 234.838 519.022 235.957 518.438 237.185C517.752 238.527 517.467 240.041 517.623 241.541C517.644 241.766 517.68 241.99 517.73 242.211C518.187 244.144 519.626 246.721 524.11 248.081L583.308 266.045C584.251 266.331 588.899 267.529 592.12 264.555ZM571.788 197.54L585.335 257.485L527.228 239.853L571.788 197.54Z" fill="#2F495E"/>
<path d="M229.172 285.316L163.677 219.829C159.908 216.057 153.791 216.057 150.018 219.829L136.419 233.43L153.669 250.68C157.679 249.326 162.275 250.234 165.471 253.43C168.683 256.645 169.584 261.281 168.196 265.305L184.822 281.931C188.845 280.545 193.486 281.441 196.698 284.658C201.188 289.147 201.188 296.422 196.698 300.912C192.206 305.404 184.933 305.404 180.439 300.912C177.062 297.533 176.227 292.572 177.937 288.411L162.431 272.906L162.43 313.709C163.525 314.251 164.558 314.975 165.47 315.883C169.959 320.372 169.959 327.644 165.47 332.141C160.98 336.629 153.702 336.629 149.217 332.141C144.727 327.645 144.727 320.372 149.217 315.883C150.326 314.775 151.61 313.937 152.98 313.375V272.192C151.609 271.633 150.327 270.801 149.216 269.684C145.815 266.286 144.996 261.295 146.74 257.118L129.735 240.11L84.8298 285.014C81.0567 288.788 81.0567 294.906 84.8298 298.678L150.321 364.165C154.092 367.937 160.207 367.937 163.983 364.165L229.171 298.987C232.943 295.213 232.943 289.094 229.171 285.322" fill="#F05133"/>
<path d="M320.678 158.64C320.676 158.639 320.676 158.636 320.676 158.634C319.868 157.25 319.81 154.973 319.742 152.546C319.675 150.121 319.581 147.501 317.998 145.498C317.995 145.493 317.99 145.49 317.988 145.484C317.676 145.08 317.343 144.724 316.999 144.414C316.653 144.103 316.295 143.835 315.928 143.605C320.159 136.295 320.691 128.274 319.431 120.678C317.888 111.352 313.669 102.649 310.325 96.6045C306.66 89.4474 303.041 82.6262 304.876 73.9944C307.678 60.8225 313.913 36.6041 290.616 31.8828C289.67 31.6912 288.673 31.5312 287.626 31.4066C261.164 28.2558 262.554 57.0747 260.319 66.18C258.49 72.8014 256.06 77.82 250.105 83.4529C243.364 88.8102 233.596 97.7129 227.779 107.857C225.034 112.643 223.166 117.71 222.922 122.812C222.644 122.975 222.376 123.152 222.115 123.334C220.175 124.715 218.579 126.538 216.985 127.66C215.509 128.637 213.665 128.749 211.601 129.049C209.537 129.35 207.219 129.94 205.442 132.137C205.442 132.137 205.442 132.139 205.44 132.138C205.437 132.141 205.435 132.146 205.431 132.148C204.601 133.15 204.161 134.323 203.914 135.552C203.685 136.689 203.621 137.874 203.569 139.018C203.459 141.396 203.379 143.651 202.605 145.033C200.247 148.881 199.472 151.712 200.126 154.012C200.782 156.318 202.807 157.683 205.2 158.707C209.988 160.75 216.808 161.855 221.572 165.747L222.205 164.976L221.577 165.748C226.688 169.874 232.263 172.095 237.091 171.972C240.594 171.885 243.712 170.444 245.723 167.666C249.338 168.375 253.608 167.647 260.027 168.576C264.404 169.097 269.408 172.052 275.666 172.953C275.693 173.655 275.798 174.346 275.995 175.023C275.997 175.029 275.999 175.036 276.001 175.042C277.438 180.307 281.454 183.392 286.282 183.974C291.113 184.557 296.732 182.779 301.798 178.753L301.174 177.974L301.804 178.746C306.649 174.819 313.509 174.168 318.319 172.453C320.722 171.595 322.785 170.331 323.393 168.013C323.997 165.696 323.146 162.792 320.678 158.64Z" fill="#202020"/>
<path d="M321.458 167.507C321.084 168.937 319.817 169.801 317.641 170.576C313.293 172.128 306.008 172.775 300.551 177.193C295.826 180.95 290.677 182.499 286.517 181.997C282.359 181.495 279.167 179.091 277.921 174.505L277.92 174.495L277.918 174.483C277.117 171.772 278.433 168.014 280.342 164.154C282.252 160.294 284.659 156.419 285.554 153.058L285.555 153.049C286.653 148.732 287.666 144.972 288.991 142.18C290.319 139.387 291.876 137.632 294.152 136.926C294.257 136.894 294.363 136.862 294.467 136.835C293.938 140.658 295.04 144.89 298.187 146.389C301.624 148.072 307.477 146.022 310.195 143.935C310.639 144.006 311.074 144.07 311.494 144.144C313.442 144.487 315.042 144.926 316.413 146.707L316.417 146.712L316.422 146.718C317.481 148.052 317.678 150.211 317.745 152.597C317.812 154.985 317.731 157.553 318.955 159.642L318.955 159.643L318.956 159.648C321.315 163.613 321.834 166.076 321.458 167.507Z" fill="#FFCD00"/>
<path d="M245.579 163.367L245.576 163.376L245.573 163.389C244.3 167.902 241.205 169.876 237.04 169.982C232.878 170.088 227.662 168.098 222.838 164.205C222.836 164.205 222.835 164.202 222.833 164.202C217.503 159.853 210.347 158.74 205.986 156.876C203.806 155.944 202.463 154.933 202.049 153.473C201.635 152.011 202.084 149.698 204.324 146.052L204.334 146.036L204.343 146.02C205.503 143.961 205.458 141.443 205.565 139.111C205.673 136.78 205.917 134.687 206.98 133.41L206.99 133.397C208.365 131.691 209.958 131.301 211.892 131.02C213.83 130.737 216.073 130.661 218.103 129.31L218.116 129.303L218.126 129.297C220.02 127.967 221.609 126.142 223.277 124.956C224.685 123.954 226.01 123.37 227.762 123.71C227.782 123.716 227.8 123.72 227.821 123.722C228.127 123.785 228.447 123.877 228.78 124C231.032 124.817 232.73 126.841 234.15 129.87L237.722 141.232L237.723 141.238L237.725 141.242C238.595 144.662 241.069 148.728 243.045 152.767C245.023 156.804 246.39 160.733 245.579 163.367Z" fill="#FFCD00"/>
<path d="M292.843 73.6571C292.568 72.6829 291.813 71.6574 290.372 70.6982L290.369 70.6965L290.364 70.6932C287.376 68.6397 285.977 68.2554 284.391 66.7055C281.804 64.2047 279.484 63.044 277.443 62.6424C276.374 62.4308 275.382 62.4277 274.468 62.5502C271.812 62.9031 269.805 64.3483 268.576 65.1159L268.573 65.1176C268.573 65.1187 268.572 65.1185 268.571 65.1207C268.329 65.2719 268.032 65.3942 267.306 65.7296C266.575 66.0652 265.478 66.5722 263.896 67.3242C262.489 67.9918 261.852 69.1023 261.996 70.5812C262.136 72.0595 263.161 73.9386 265.347 75.8251L265.35 75.829L265.355 75.8323C266.704 77.0362 267.507 78.4557 268.513 79.6584C269.017 80.2593 269.562 80.8154 270.257 81.2921C270.952 81.7686 271.795 82.1666 272.893 82.4553C275.469 83.1306 277.545 82.737 279.433 82.1109C281.325 81.4868 283 80.5952 284.757 80.3938L284.761 80.3923L284.764 80.3918C288.357 80.0195 291.195 78.3843 292.354 76.5211C292.935 75.589 293.116 74.6309 292.843 73.6571Z" fill="#FFCD00"/>
<path d="M283.265 76.9064C280.294 77.7634 276.811 78.8257 273.469 78.1533C270.127 77.4809 267.798 75.4107 266.202 73.5287C265.402 72.588 264.782 71.6878 264.31 71.029C263.462 70.0332 263.806 68.9439 264.213 69.0598C264.891 69.2866 264.812 70.2189 265.167 70.7142C265.648 71.3851 266.246 72.2491 267 73.14C268.51 74.9188 270.626 76.78 273.624 77.3831C276.616 77.9851 280.461 76.9367 282.833 76.1742C284.176 75.7414 285.957 74.8396 287.396 74.174C288.497 73.6654 288.632 72.8122 289.406 73.064C290.179 73.3156 289.423 74.0417 288.12 74.7842C286.815 75.5254 284.822 76.4569 283.265 76.9064Z" fill="#202020"/>
<path d="M312.937 142.409C312.566 142.32 312.198 142.248 311.838 142.185C311.806 142.179 311.774 142.172 311.739 142.165C313.248 139.445 311.636 136.889 306.686 133.338C301.538 129.728 296.99 129.067 295.22 133.937C295.119 134.19 295.026 134.45 294.941 134.716C294.489 134.779 294.028 134.878 293.556 135.024C290.615 135.937 288.639 138.269 287.186 141.327C285.736 144.38 284.721 148.22 283.622 152.546L283.622 152.55C283.044 154.718 281.538 157.508 279.987 160.472C269.415 165.188 256.007 165.455 246.6 155.846C246.097 154.533 245.481 153.209 244.838 151.895C244.428 151.056 244 150.22 243.577 149.392C244.693 149.619 245.681 149.627 246.52 149.435C247.563 149.194 248.373 148.636 248.885 147.812C249.908 146.164 249.746 143.517 248.197 140.218C246.648 136.92 243.697 132.957 239.055 128.655L239.055 128.653C235.65 125.459 234.073 122.065 233.699 118.652C233.327 115.236 234.167 111.793 235.643 108.525C238.472 102.249 243.629 96.6297 246.906 93.112C247.667 92.7588 246.961 94.0658 243.203 98.582C239.819 102.721 233.083 112.487 237.682 122.097C239.044 116.192 241.686 110.422 245.214 105.237C250.274 98.0765 260.293 85.9071 263.057 75.1575C263.313 75.434 264.198 76.3285 264.601 76.6798C264.602 76.6811 264.602 76.6811 264.604 76.6816C265.781 77.7333 266.553 79.081 267.641 80.3827C268.734 81.6864 270.177 82.9137 272.605 83.5502C272.837 83.6106 273.067 83.6647 273.291 83.7099C275.824 84.2194 277.962 83.793 279.795 83.1864C281.787 82.527 283.441 81.6867 284.883 81.5202C284.884 81.5181 284.887 81.5187 284.888 81.5188C287.927 81.2035 290.516 80.0834 292.179 78.5055C292.644 87.6817 295.273 101.33 297.356 108.151C298.465 111.769 300.581 119.412 300.416 128.074C301.383 128.239 302.415 128.591 303.489 129.109C309.519 119.654 304.41 107.137 301.676 103.387C300.586 101.805 300.639 101.205 301.306 101.367C304.295 105.306 307.774 112.714 308.047 120.343C308.17 123.822 307.637 127.346 306.095 130.62C306.474 130.873 306.86 131.146 307.248 131.435C312.994 135.806 314.806 138.968 312.937 142.409Z" fill="white"/>
<path d="M295.166 63.6611C294.832 65.3934 294.235 66.8059 293.275 68.177C292.728 68.9585 292.151 69.5919 291.508 70.1111C291.349 69.9922 291.183 69.8752 291.01 69.7601C290.41 69.3489 289.878 69.0022 289.398 68.7022C288.917 68.4021 288.538 68.188 288.15 67.9596C288.526 67.6555 289.209 67.3453 289.54 66.8501C290.041 66.1033 290.365 65.3411 290.588 64.3993C290.595 64.3613 290.614 64.331 290.622 64.2865C290.825 63.3823 290.86 62.5813 290.754 61.7327C290.643 60.8412 290.41 60.1704 289.997 59.5674C289.584 58.9655 289.117 58.6364 288.505 58.4919C288.476 58.4838 288.449 58.4783 288.42 58.4724C287.842 58.3584 287.299 58.4561 286.694 58.7841C286.057 59.1283 285.535 59.6281 285.036 60.3696C284.537 61.1114 284.212 61.8799 283.987 62.8271C283.974 62.8629 283.968 62.8955 283.96 62.9335C283.842 63.4558 283.781 63.9429 283.768 64.4251C282.702 63.5994 281.275 62.8658 280.279 62.4066C280.31 61.9437 280.37 61.4731 280.457 60.9832L280.483 60.8518C280.812 59.123 281.393 57.7006 282.361 56.3334C283.329 54.9639 284.369 54.0486 285.705 53.4031C287.042 52.7589 288.264 52.5854 289.617 52.843L289.68 52.8557C291.001 53.1214 292.052 53.7365 293.044 54.8085C294.05 55.8993 294.686 57.1359 295.07 58.7651C295.448 60.3545 295.485 61.8403 295.179 63.5316C295.17 63.5762 295.162 63.6142 295.166 63.6611Z" fill="white"/>
<path d="M274.858 61.3681C274.674 61.3832 274.495 61.4014 274.317 61.4254C273.305 61.561 272.483 61.7684 271.66 62.1015C271.832 61.6149 271.944 61.1096 272.003 60.5303C272.004 60.499 272.01 60.473 272.016 60.4426C272.091 59.6745 272.058 59.0111 271.92 58.32C271.769 57.6002 271.545 57.068 271.2 56.6234C270.888 56.2214 270.56 55.9983 270.164 55.9233C270.124 55.9151 270.083 55.9079 270.042 55.9031C269.59 55.8518 269.179 55.9939 268.744 56.3472C268.311 56.6987 267.978 57.1775 267.672 57.8405C267.368 58.5015 267.187 59.1749 267.098 59.9719C267.092 60.0034 267.095 60.0299 267.088 60.0615C267.011 60.8359 267.037 61.4979 267.18 62.1901C267.326 62.9021 267.556 63.4354 267.902 63.8791C267.96 63.9542 268.018 64.0223 268.076 64.0837C267.576 64.3312 267.237 64.5095 266.827 64.6981C266.564 64.8182 266.253 64.9624 265.89 65.1324C265.33 64.3484 264.954 63.4319 264.699 62.2684C264.395 60.895 264.351 59.5718 264.562 58.0624L264.564 58.0505C264.782 56.5424 265.187 55.2891 265.865 54.0454C266.544 52.8009 267.287 51.9525 268.245 51.3248C269.203 50.6946 270.087 50.4589 271.068 50.6043C271.144 50.6161 271.218 50.6289 271.293 50.6438C272.17 50.8227 272.896 51.2716 273.578 52.0812C274.316 52.9599 274.801 53.99 275.105 55.3655C275.41 56.7413 275.452 58.0643 275.235 59.5724L275.233 59.5843C275.147 60.2181 275.023 60.8068 274.858 61.3681Z" fill="white"/>
<path d="M278.552 65.8232C278.592 66.2018 279.179 66.2579 279.477 66.4964C279.739 66.705 279.907 67.0802 280.233 67.1549C280.544 67.2275 281.056 67.2085 281.158 66.907C281.295 66.5084 280.748 66.1282 280.393 65.9007C279.936 65.6087 279.319 65.3829 278.802 65.5468C278.683 65.585 278.539 65.6995 278.552 65.8232Z" fill="#202020"/>
<path d="M275.154 65.1391C274.971 65.473 274.407 65.2975 274.04 65.4021C273.718 65.4934 273.418 65.7743 273.087 65.7169C272.773 65.6637 272.309 65.4484 272.331 65.1307C272.359 64.7102 273.011 64.5711 273.426 64.4988C273.961 64.4063 274.616 64.4364 275.03 64.7877C275.124 64.8687 275.213 65.0301 275.154 65.1391Z" fill="#202020"/>
<path fill-rule="evenodd" clip-rule="evenodd" d="M709.878 324.692C709.933 324.896 709.961 325.107 709.962 325.319V358.235C709.962 358.657 709.85 359.072 709.639 359.438C709.427 359.803 709.122 360.106 708.756 360.317L681.129 376.223V407.75C681.129 408.608 680.673 409.4 679.929 409.832L622.26 443.03C622.128 443.105 621.984 443.153 621.84 443.204C621.786 443.222 621.735 443.255 621.678 443.27C621.275 443.376 620.851 443.376 620.448 443.27C620.382 443.252 620.322 443.216 620.259 443.192C620.127 443.144 619.989 443.102 619.863 443.03L562.206 409.832C561.84 409.621 561.535 409.318 561.324 408.952C561.112 408.587 561 408.172 561 407.75V309.002C561 308.786 561.03 308.576 561.084 308.372C561.102 308.303 561.144 308.24 561.168 308.171C561.213 308.045 561.255 307.916 561.321 307.799C561.366 307.721 561.432 307.658 561.486 307.586C561.555 307.49 561.618 307.391 561.699 307.307C561.768 307.238 561.858 307.187 561.936 307.127C562.023 307.055 562.101 306.977 562.2 306.92H562.203L591.033 290.321C591.398 290.111 591.812 290 592.233 290C592.654 290 593.068 290.111 593.433 290.321L622.263 306.92H622.269C622.365 306.98 622.446 307.055 622.533 307.124C622.611 307.184 622.698 307.238 622.767 307.304C622.851 307.391 622.911 307.49 622.983 307.586C623.034 307.658 623.103 307.721 623.145 307.799C623.214 307.919 623.253 308.045 623.301 308.171C623.325 308.24 623.367 308.303 623.385 308.375C623.44 308.579 623.468 308.79 623.469 309.002V370.679L647.493 356.846V325.316C647.493 325.106 647.523 324.893 647.577 324.692C647.598 324.62 647.637 324.557 647.661 324.488C647.709 324.362 647.751 324.233 647.817 324.116C647.862 324.038 647.928 323.975 647.979 323.903C648.051 323.807 648.111 323.708 648.195 323.624C648.264 323.555 648.351 323.504 648.429 323.444C648.519 323.372 648.597 323.294 648.693 323.237H648.696L677.529 306.638C677.894 306.427 678.308 306.317 678.729 306.317C679.15 306.317 679.564 306.427 679.929 306.638L708.759 323.237C708.861 323.297 708.939 323.372 709.029 323.441C709.104 323.501 709.191 323.555 709.26 323.621C709.344 323.708 709.404 323.807 709.476 323.903C709.53 323.975 709.596 324.038 709.638 324.116C709.707 324.233 709.746 324.362 709.794 324.488C709.821 324.557 709.86 324.62 709.878 324.692V324.692ZM705.156 356.846V329.474L695.067 335.282L681.129 343.307V370.679L705.159 356.846H705.156ZM676.326 406.361V378.971L662.616 386.801L623.466 409.145V436.793L676.326 406.361ZM565.806 313.157V406.361L618.66 436.79V409.148L591.048 393.521L591.039 393.515L591.027 393.509C590.934 393.455 590.856 393.377 590.769 393.311C590.694 393.251 590.607 393.203 590.541 393.137L590.535 393.128C590.457 393.053 590.403 392.96 590.337 392.876C590.277 392.795 590.205 392.726 590.157 392.642L590.154 392.633C590.1 392.543 590.067 392.435 590.028 392.333C589.989 392.243 589.938 392.159 589.914 392.063V392.06C589.884 391.946 589.878 391.826 589.866 391.709C589.854 391.619 589.83 391.529 589.83 391.439V391.433V326.99L575.895 318.962L565.806 313.16V313.157ZM592.236 295.175L568.215 309.002L592.23 322.829L616.248 308.999L592.23 295.175H592.236ZM604.728 381.467L618.663 373.445V313.157L608.574 318.965L594.636 326.99V387.278L604.728 381.467ZM678.729 311.492L654.711 325.319L678.729 339.146L702.744 325.316L678.729 311.492V311.492ZM676.326 343.307L662.388 335.282L652.299 329.474V356.846L666.234 364.868L676.326 370.679V343.307ZM621.06 404.99L656.289 384.878L673.899 374.828L649.899 361.01L622.266 376.919L597.081 391.418L621.06 404.99V404.99Z" fill="#FF2D20"/>
<path d="M154 428C134 428 121.5 437.906 116.5 457.717C124 447.811 132.75 444.097 142.75 446.573C148.456 447.987 152.533 452.087 157.047 456.625C164.4 464.018 172.911 472.575 191.5 472.575C211.5 472.575 224 462.67 229 442.858C221.5 452.764 212.75 456.479 202.75 454.002C197.044 452.588 192.967 448.488 188.453 443.951C181.1 436.557 172.589 428 154 428ZM116.5 472.575C96.5 472.575 84 482.481 79 502.292C86.5 492.387 95.25 488.672 105.25 491.149C110.956 492.563 115.033 496.663 119.547 501.2C126.9 508.594 135.411 517.151 154 517.151C174 517.151 186.5 507.245 191.5 487.434C184 497.34 175.25 501.054 165.25 498.578C159.544 497.164 155.467 493.064 150.953 488.526C143.6 481.133 135.089 472.575 116.5 472.575Z" fill="#14B4C6"/>
<g clip-path="url(#clip2)">
<path d="M718.95 463.951C713.97 466.378 713.921 472.832 718.95 483.946C720.61 487.683 720.903 487.343 713.53 490.546C705.328 494.137 702.008 496.758 699.567 501.465C697.565 505.251 698.737 511.074 702.106 514.132C704.791 516.656 706.548 517.238 711.285 517.238C715.288 517.238 716.02 517.092 718.852 515.685C720.61 514.812 723.002 513.258 724.223 512.142L726.42 510.201L723.002 511.754C716.948 514.52 712.212 514.083 710.064 510.541C707.476 506.367 710.161 502.145 719.487 495.739L723.198 493.166L723.979 495.739C725.883 502.096 725.102 504.863 720.268 509.473C717.241 512.336 717.485 512.482 722.026 510.492C724.858 509.231 727.494 506.755 728.422 504.523C729.349 502.436 729.301 496.709 728.324 493.118L727.592 490.206L730.57 487.149C737.405 480.015 737.796 473.026 731.693 466.62L729.593 464.339L730.814 466.669C733.646 471.813 732.767 477.103 728.275 481.422C726.81 482.83 725.492 483.994 725.297 483.994C724.76 483.994 722.319 477.54 721.83 474.919C721.098 471.085 722.661 467.979 725.297 467.979C726.322 467.979 727.25 468.61 728.91 470.26C730.961 472.395 731.058 472.493 730.57 471.134C728.08 464.533 723.539 461.719 718.95 463.951Z" fill="black"/>
<path d="M632.219 464.972C632.219 465.216 630.472 474.33 628.336 485.297C626.2 496.263 624.453 505.524 624.453 505.865C624.453 506.401 625.423 506.499 628.918 506.401L633.384 506.255L635.714 494.801C636.928 488.514 637.996 483.201 637.996 482.957C638.044 482.47 646.976 482.518 648.433 483.103C650.811 483.981 650.86 484.761 648.724 495.63C647.656 501.186 646.782 505.914 646.782 506.109C646.782 506.352 648.821 506.499 651.345 506.499C655.666 506.499 655.908 506.45 656.151 505.378C656.297 504.793 657.219 500.114 658.19 495.045C660.763 481.592 660.471 479.35 655.52 477.108C653.724 476.28 652.074 476.036 646.442 475.89C642.608 475.792 639.501 475.5 639.501 475.305C639.501 475.11 639.938 472.77 640.472 470.187C641.006 467.604 641.443 465.264 641.443 465.021C641.443 464.777 639.355 464.582 636.831 464.582C634.307 464.582 632.219 464.777 632.219 464.972Z" fill="black"/>
<path d="M594.023 476.265C593.876 476.606 592.122 485.572 590.075 496.145C588.028 506.719 586.225 515.879 586.078 516.512C585.835 517.584 585.883 517.584 590.465 517.584H595.144L595.68 514.807C596.021 513.248 596.508 510.763 596.85 509.301L597.386 506.621L604.696 506.329C612.543 506.036 614.785 505.5 618.197 503.161C622.875 499.897 625.458 495.073 625.8 488.934C626.141 482.599 624.24 479.091 619.171 476.801C616.735 475.68 594.364 475.193 594.023 476.265ZM613.518 483.233C615.614 484.11 616.832 486.595 616.393 489.226C615.516 494.342 613.762 497.217 610.545 498.63C608.303 499.605 599.433 500.482 598.945 499.751C598.702 499.361 599.189 496.584 601.577 485.036L602.064 482.502H606.938C610.106 482.502 612.397 482.746 613.518 483.233Z" fill="black"/>
<path d="M665.724 476.836C665.578 477.468 663.772 486.473 661.722 496.938C659.672 507.354 657.914 516.311 657.768 516.797C657.524 517.576 657.866 517.673 662.259 517.527L667.091 517.381L668.068 512.027L669.043 506.673L676.61 506.381C683.395 506.137 684.469 505.991 686.958 504.872C692.718 502.195 696.624 496.938 697.648 490.318C698.673 483.991 696.477 479.464 691.254 477.03C689.252 476.106 688.032 476.008 677.537 475.862L666.017 475.667L665.724 476.836ZM685.396 483.455C687.739 484.624 688.423 486.132 688.081 489.345C687.593 494.261 685.152 497.863 681.54 499.08C680.661 499.372 677.83 499.761 675.341 499.907C671.192 500.199 670.752 500.15 670.752 499.372C670.752 498.934 671.436 494.942 672.266 490.562L673.827 482.579H678.758C682.468 482.579 684.127 482.774 685.396 483.455Z" fill="black"/>
<path d="M730.994 466.813C733.484 471.286 732.654 476.343 729.382 480.282C727.429 482.713 716.199 489.34 713.269 490.494C702.771 494.627 698.133 500.705 698.621 506.297C698.865 510.673 701.16 514.271 705.457 516.508C707.166 516.995 708.24 517.238 711.561 517.238C715.564 517.238 715.808 517.189 718.64 515.779C720.398 514.904 723.035 513.25 724.255 512.132L726.452 510.187L722.791 511.889C716.687 514.32 712.781 513.834 710.243 510.77C707.46 506.297 710.438 502.066 722.058 494.14C732.067 487.819 735.974 482.032 735.974 476.149C736.218 472.745 734.753 469.779 731.823 466.667L729.626 464.235L730.994 466.813Z" fill="url(#paint1_linear)"/>
</g>
<path fill-rule="evenodd" clip-rule="evenodd" d="M702.812 716L662.264 675.614L684.674 652.754L747.89 716H702.812Z" fill="#02539A"/>
<path fill-rule="evenodd" clip-rule="evenodd" d="M661.706 675.698L702.016 635.403H747.332L684.622 698.089L661.706 675.698Z" fill="#45D1FD" fill-opacity="0.85"/>
<path fill-rule="evenodd" clip-rule="evenodd" d="M627 640.575L649.854 663.388L747.332 566H701.851L627 640.575Z" fill="#45D1FD"/>
</g>
<defs>
<linearGradient id="paint0_linear" x1="379.751" y1="881.179" x2="379.751" y2="230.612" gradientUnits="userSpaceOnUse">
<stop stop-color="#808080" stop-opacity="0.25"/>
<stop offset="0.54" stop-color="#808080" stop-opacity="0.12"/>
<stop offset="1" stop-color="#808080" stop-opacity="0.1"/>
</linearGradient>
<linearGradient id="paint1_linear" x1="717.493" y1="517.481" x2="717.493" y2="464.478" gradientUnits="userSpaceOnUse">
<stop stop-color="#2666A9"/>
<stop offset="1" stop-color="#202664"/>
</linearGradient>
<clipPath id="clip0">
<rect width="747" height="881" fill="white"/>
</clipPath>
<clipPath id="clip1">
<rect width="150" height="170.667" fill="white" transform="translate(-3 564.17) rotate(-5.80435)"/>
</clipPath>
<clipPath id="clip2">
<rect width="150" height="65.0391" fill="white" transform="translate(586 458)"/>
</clipPath>
</defs>
</svg>
