<svg fill="currentColor"
    viewBox="0 0 512 132"
    fill="none"
    xmlns="http://www.w3.org/2000/svg">
    <path d="M240.741 38.485C238.011 38.4 235.791 40.533 235.711 43.178C235.711 43.264 235.711 43.434 235.711 43.52V67.754C224.011 58.368 206.861 60.245 197.481 71.936C193.641 76.8 191.501 82.773 191.501 89.002C191.251 104.021 203.191 116.394 218.211 116.65C233.231 116.906 245.601 104.96 245.861 89.941C245.861 89.6 245.861 89.344 245.861 89.002V43.52C245.861 42.154 245.351 40.874 244.411 39.936C243.391 38.997 242.111 38.485 240.741 38.485ZM234.341 95.573C232.631 99.669 229.391 102.912 225.291 104.704C221.031 106.496 216.251 106.496 211.981 104.704C207.891 102.997 204.731 99.669 203.021 95.658C201.231 91.477 201.231 86.698 203.021 82.432C204.731 78.336 207.971 75.093 211.981 73.386C216.251 71.594 221.031 71.594 225.291 73.386C229.391 75.178 232.631 78.421 234.341 82.517C236.131 86.613 236.131 91.392 234.341 95.573Z"
        fill="#0091E2"/>
    <path d="M297.491 69.802C286.911 59.221 269.671 59.221 259.091 69.802C253.971 74.922 251.151 81.834 251.151 89.002C250.891 104.021 262.841 116.394 277.861 116.65C292.881 116.906 305.251 104.96 305.511 89.941C305.511 89.6 305.511 89.344 305.511 89.002C305.511 85.418 304.831 81.92 303.461 78.592C302.091 75.264 300.051 72.277 297.491 69.802ZM293.991 95.488C293.131 97.536 291.851 99.328 290.321 100.864C288.781 102.4 286.911 103.68 284.941 104.533C280.681 106.325 275.901 106.325 271.631 104.533C267.531 102.826 264.291 99.498 262.591 95.488C260.791 91.306 260.791 86.528 262.591 82.261C264.291 78.165 267.531 75.008 271.631 73.216C275.901 71.424 280.681 71.424 284.941 73.216C286.991 74.069 288.781 75.349 290.321 76.885C291.851 78.421 293.131 80.298 293.991 82.261C295.781 86.613 295.781 91.392 293.991 95.488Z"
        fill="#0091E2"/>
    <path d="M409.871 66.816C409.871 66.133 409.701 65.45 409.441 64.853C409.191 64.256 408.761 63.744 408.331 63.232C407.911 62.805 407.311 62.378 406.711 62.122C406.121 61.866 405.431 61.696 404.751 61.696C403.811 61.696 402.871 61.952 402.021 62.464L373.011 81.322V43.605C373.011 42.24 372.491 40.96 371.561 40.021C370.621 39.082 369.341 38.485 367.971 38.485C365.161 38.485 362.941 40.704 362.851 43.52C362.851 43.52 362.851 43.52 362.851 43.605V111.018C362.851 112.384 363.361 113.664 364.301 114.602C365.241 115.626 366.521 116.138 367.891 116.138C369.251 116.138 370.531 115.626 371.471 114.602C372.411 113.664 373.011 112.384 372.921 111.018V93.525L378.811 89.685L401.251 114.858C402.191 115.712 403.391 116.224 404.671 116.138C405.351 116.138 406.031 116.053 406.631 115.712C407.231 115.456 407.741 115.114 408.251 114.602C408.681 114.09 409.101 113.578 409.361 112.981C409.611 112.384 409.791 111.701 409.791 111.018C409.791 109.738 409.271 108.458 408.421 107.52L387.601 84.053L407.911 70.826C409.271 69.973 409.961 68.437 409.871 66.816Z"
        fill="#0091E2"/>
    <path d="M325.651 76.885C327.181 75.349 329.061 74.069 331.111 73.215C333.241 72.362 335.461 71.85 337.761 71.85C339.811 71.85 341.771 72.191 343.651 72.874C345.531 73.642 347.321 74.666 348.861 76.031C349.801 76.799 350.991 77.141 352.191 77.141C353.551 77.226 354.921 76.714 355.851 75.69C356.791 74.751 357.311 73.386 357.311 72.021C357.311 70.57 356.711 69.119 355.511 68.181C350.651 63.829 344.331 61.439 337.761 61.61C322.751 61.61 310.541 73.813 310.541 88.831C310.541 103.85 322.661 115.967 337.591 116.053C344.161 116.053 350.481 113.749 355.431 109.482C356.451 108.543 357.051 107.178 357.051 105.727C357.131 102.997 355.001 100.778 352.361 100.693C352.271 100.693 352.101 100.693 352.011 100.693C350.821 100.693 349.711 101.034 348.771 101.717C347.241 103.082 345.531 104.106 343.651 104.874C341.771 105.557 339.731 105.898 337.761 105.898C335.461 105.898 333.241 105.471 331.111 104.533C329.061 103.679 327.271 102.399 325.651 100.863C318.991 94.207 318.991 83.455 325.561 76.799C325.651 76.97 325.651 76.97 325.651 76.885Z"
        fill="#0091E2"/>
    <path d="M510.651 65.194C509.631 64.256 508.521 63.573 507.241 63.146C505.791 62.634 504.251 62.293 502.711 62.122C501.181 61.952 499.641 61.866 498.111 61.866C495.031 61.866 491.881 62.378 488.971 63.488C486.071 64.512 483.431 66.048 481.041 67.925V66.901C480.951 64.085 478.561 61.952 475.751 62.037C473.101 62.122 470.971 64.256 470.881 66.901V111.189C470.971 114.005 473.361 116.138 476.171 116.053C478.821 115.968 480.951 113.834 481.041 111.189V89.088C481.041 86.784 481.471 84.565 482.401 82.432C483.261 80.384 484.451 78.592 486.071 77.056C487.611 75.52 489.491 74.24 491.451 73.386C493.581 72.533 495.801 72.021 498.111 72.021C500.411 72.021 502.631 72.448 504.761 73.216C505.441 73.557 506.131 73.728 506.891 73.728C507.581 73.728 508.261 73.642 508.861 73.301C509.451 73.045 509.971 72.704 510.481 72.192C510.911 71.765 511.331 71.168 511.591 70.57C511.841 69.973 512.011 69.29 512.011 68.608C512.101 67.328 511.591 66.133 510.651 65.194Z"
        fill="#0091E2"/>
    <path d="M463.551 78.592C459.191 68.522 449.291 61.952 438.371 61.866C423.351 61.866 411.241 73.984 411.151 89.002C411.151 104.021 423.351 116.224 438.371 116.224C444.861 116.224 451.171 113.92 456.121 109.653C456.211 109.568 456.291 109.482 456.291 109.482C456.721 109.141 457.151 108.714 457.401 108.202C459.021 105.813 458.431 102.656 456.121 101.034C454.161 99.754 451.601 100.01 449.891 101.632C449.721 101.802 449.211 102.229 449.211 102.314L449.121 102.4C447.671 103.594 446.051 104.618 444.261 105.216C442.381 105.898 440.421 106.24 438.371 106.154C436.491 106.154 434.701 105.898 432.911 105.301C431.201 104.704 429.581 103.936 428.131 102.826C426.681 101.802 425.401 100.522 424.381 99.072C423.271 97.621 422.501 95.914 421.991 94.208H460.391C461.751 94.208 463.031 93.696 463.971 92.757C465.001 91.818 465.511 90.538 465.421 89.173C465.511 85.504 464.831 81.92 463.551 78.592ZM421.991 84.053C422.501 82.261 423.271 80.64 424.381 79.189C425.401 77.738 426.681 76.458 428.131 75.434C429.581 74.41 431.201 73.557 432.911 72.96C434.621 72.362 436.491 72.106 438.291 72.106C440.081 72.106 441.961 72.362 443.661 72.96C447.081 74.069 450.061 76.288 452.201 79.189C453.311 80.64 454.071 82.346 454.671 84.053H421.991Z"
        fill="#0091E2"/>
    <path d="M182.201 49.92C181.691 49.493 177.081 45.994 167.181 45.994C164.621 45.994 161.981 46.25 159.421 46.677C157.541 33.621 146.701 27.306 146.281 26.965L143.631 25.429L141.921 27.904C139.791 31.232 138.171 34.986 137.231 38.826C135.441 46.25 136.551 53.248 140.301 59.221C135.781 61.781 128.441 62.378 126.911 62.464H5.73098C2.57098 62.464 0.011011 65.024 0.011011 68.181C-0.158989 78.762 1.64094 89.344 5.31094 99.328C9.49094 110.25 15.721 118.357 23.741 123.306C32.781 128.853 47.5509 132.01 64.1909 132.01C71.6909 132.01 79.201 131.328 86.631 129.962C96.951 128.085 106.851 124.501 115.981 119.296C123.491 114.944 130.231 109.397 135.951 102.912C145.591 92.074 151.311 79.957 155.491 69.205C156.091 69.205 156.601 69.205 157.201 69.205C167.691 69.205 174.181 65.024 177.761 61.44C180.151 59.221 181.951 56.49 183.231 53.418L183.991 51.2L182.201 49.92Z"
        fill="#0091E2"/>
    <path d="M17.001 58.965H33.2109C33.9809 58.965 34.661 58.368 34.661 57.514V43.008C34.661 42.24 34.0609 41.557 33.2109 41.557H17.001C16.231 41.557 15.5509 42.154 15.5509 43.008V57.514C15.6309 58.368 16.231 58.965 17.001 58.965Z"
        fill="#0091E2"/>
    <path d="M39.351 58.965H55.5709C56.3309 58.965 57.021 58.368 57.021 57.514V43.008C57.021 42.24 56.4209 41.557 55.5709 41.557H39.351C38.591 41.557 37.901 42.154 37.901 43.008V57.514C37.991 58.368 38.591 58.965 39.351 58.965Z"
        fill="#0091E2"/>
    <path d="M62.141 58.965H78.3509C79.1209 58.965 79.8009 58.368 79.8009 57.514V43.008C79.8009 42.24 79.2009 41.557 78.3509 41.557H62.141C61.371 41.557 60.6909 42.154 60.6909 43.008V57.514C60.6909 58.368 61.281 58.965 62.141 58.965Z"
        fill="#0091E2"/>
    <path d="M84.5809 58.965H100.791C101.561 58.965 102.241 58.368 102.241 57.514V43.008C102.241 42.24 101.651 41.557 100.791 41.557H84.5809C83.8109 41.557 83.131 42.154 83.131 43.008V57.514C83.131 58.368 83.8109 58.965 84.5809 58.965Z"
        fill="#0091E2"/>
    <path d="M39.351 38.229H55.5709C56.3309 38.229 57.021 37.546 57.021 36.778V22.272C57.021 21.504 56.4209 20.821 55.5709 20.821H39.351C38.591 20.821 37.901 21.418 37.901 22.272V36.778C37.991 37.546 38.591 38.229 39.351 38.229Z"
        fill="#0091E2"/>
    <path d="M62.141 38.229H78.3509C79.1209 38.229 79.8009 37.546 79.8009 36.778V22.272C79.8009 21.504 79.2009 20.821 78.3509 20.821H62.141C61.371 20.821 60.6909 21.418 60.6909 22.272V36.778C60.6909 37.546 61.281 38.229 62.141 38.229Z"
        fill="#0091E2"/>
    <path d="M84.5809 38.229H100.791C101.561 38.229 102.241 37.546 102.241 36.778V22.272C102.241 21.504 101.561 20.821 100.791 20.821H84.5809C83.8109 20.821 83.131 21.418 83.131 22.272V36.778C83.131 37.546 83.8109 38.229 84.5809 38.229Z"
        fill="#0091E2"/>
    <path d="M84.5809 17.408H100.791C101.561 17.408 102.241 16.81 102.241 15.957V1.45001C102.241 0.682012 101.561 0 100.791 0H84.5809C83.8109 0 83.131 0.597012 83.131 1.45001V15.957C83.131 16.725 83.8109 17.408 84.5809 17.408Z"
        fill="#0091E2"/>
    <path d="M107.191 58.965H123.411C124.171 58.965 124.861 58.368 124.861 57.514V43.008C124.861 42.24 124.261 41.557 123.411 41.557H107.191C106.431 41.557 105.741 42.154 105.741 43.008V57.514C105.831 58.368 106.431 58.965 107.191 58.965Z"
        fill="#0091E2"/>
</svg>
