<svg fill="currentColor"
    viewBox="0 0 512 145"
    xmlns="http://www.w3.org/2000/svg">
    <!-- fill="#404137" -->
    <path fill-rule="evenodd"
        clip-rule="evenodd"
        d="M271.496 0.000259563C271.124 0.00480663 270.742 0.0939165 270.414 0.288531C269.75 0.67867 269.332 1.39347 269.332 2.16284V57.3124C269.332 57.8544 269.077 58.3382 268.614 58.6102C268.141 58.883 267.568 58.883 267.095 58.6102L258.083 53.4192C256.746 52.6453 255.1 52.6462 253.763 53.4192L217.786 74.182C216.44 74.9578 215.622 76.4501 215.622 78.0025V119.526C215.622 121.078 216.44 122.498 217.786 123.275L253.763 144.038C255.1 144.814 256.737 144.814 258.083 144.038L294.059 123.275C295.405 122.498 296.223 121.078 296.223 119.526V16.005C296.223 14.4299 295.359 12.9521 293.986 12.1837L272.579 0.216706C272.242 0.0293668 271.869 -0.00337809 271.496 0.000259563ZM40.0778 51.8332C39.3958 51.8614 38.7502 51.9815 38.1318 52.338L2.16441 73.0998C0.818477 73.8756 0 75.2861 0 76.8494L0.0727131 132.575C0.0727131 133.35 0.472913 134.07 1.15497 134.45C1.81885 134.849 2.64642 134.849 3.31938 134.45L24.6542 122.194C26.0092 121.391 26.8913 119.994 26.8913 118.445V92.4203C26.8913 90.868 27.7098 89.4439 29.0557 88.6718L38.1318 83.4089C38.8138 83.017 39.5414 82.8324 40.2962 82.8324C41.0419 82.8324 41.8057 83.017 42.4605 83.4089L51.5456 88.6718C52.8916 89.4439 53.71 90.868 53.71 92.4203V118.445C53.71 119.994 54.6012 121.4 55.9381 122.194L77.282 134.45C77.9549 134.849 78.7825 134.849 79.4464 134.45C80.1103 134.07 80.5286 133.35 80.5286 132.575L80.6013 76.8494C80.6013 75.2861 79.7829 73.8756 78.4369 73.0998L42.4605 52.338C41.8512 51.9815 41.2056 51.8614 40.5144 51.8332H40.0778ZM363.338 52.338C362.583 52.337 361.847 52.5271 361.174 52.9145L325.197 73.6773C323.86 74.453 323.042 75.8736 323.042 77.4259V118.95C323.042 120.511 323.915 121.927 325.27 122.698L360.955 143.028C362.274 143.78 363.884 143.837 365.211 143.099L386.837 131.06C387.529 130.679 387.992 129.969 387.992 129.186C387.992 128.403 387.592 127.701 386.91 127.312L350.725 106.55C350.043 106.163 349.57 105.38 349.57 104.603V91.6264C349.57 90.8507 350.052 90.1395 350.725 89.753L361.965 83.2644C362.638 82.8769 363.456 82.8769 364.129 83.2644L375.379 89.753C376.052 90.1395 376.461 90.8507 376.461 91.6264V101.864C376.461 102.64 376.87 103.351 377.534 103.738C378.216 104.126 379.026 104.128 379.698 103.738L401.252 91.1945C402.597 90.4169 403.416 88.9928 403.416 87.4459V77.425C403.416 75.8772 402.597 74.4531 401.252 73.6764L365.503 52.9145C364.83 52.5235 364.084 52.3379 363.338 52.337V52.338ZM255.782 83.3371C255.964 83.3371 256.182 83.3835 256.355 83.4799L268.677 90.617C269.014 90.8107 269.259 91.1681 269.259 91.5546V105.828C269.259 106.216 269.023 106.573 268.677 106.765L256.355 113.903C256.018 114.093 255.609 114.093 255.272 113.903L242.941 106.765C242.613 106.572 242.368 106.216 242.368 105.828V91.5546C242.368 91.1681 242.613 90.8116 242.941 90.617L255.272 83.4817C255.445 83.3844 255.591 83.338 255.782 83.338V83.3371Z" />
    <!-- fill="#83CD29" -->
    <path fill-rule="evenodd"
        clip-rule="evenodd"
        d="M471.113 51.3285C469.867 51.3285 468.648 51.5868 467.575 52.1942L433.627 71.803C431.426 73.068 430.089 75.4588 430.089 78.0025V117.147C430.089 119.69 431.426 122.078 433.627 123.347L442.493 128.466C446.804 130.589 448.386 130.557 450.351 130.557C456.726 130.557 460.373 126.686 460.373 119.959V81.3182C460.373 80.7726 459.9 80.3815 459.363 80.3815H455.107C454.561 80.3815 454.098 80.7726 454.098 81.3182V119.959C454.098 122.941 450.997 125.94 445.949 123.42L436.728 118.013C436.4 117.835 436.146 117.522 436.146 117.147V78.0025C436.146 77.6305 436.391 77.2532 436.728 77.0649L470.603 57.5288C470.922 57.346 471.304 57.346 471.613 57.5288L505.498 77.0649C505.825 77.2595 506.08 77.6196 506.08 78.0025V117.147C506.08 117.522 505.889 117.905 505.57 118.085L471.613 137.621C471.322 137.795 470.922 137.795 470.603 137.621L461.882 132.431C461.628 132.279 461.273 132.29 461.018 132.431C458.608 133.796 458.163 133.954 455.898 134.738C455.344 134.932 454.498 135.233 456.189 136.18L467.575 142.884C468.666 143.511 469.876 143.821 471.113 143.821C472.368 143.821 473.559 143.511 474.641 142.884L508.599 123.347C510.8 122.069 512.127 119.69 512.127 117.147V78.0025C512.127 75.4588 510.8 73.0726 508.599 71.803L474.641 52.1942C473.577 51.5868 472.359 51.3285 471.113 51.3285ZM148.144 52.1215C147.398 52.1215 146.652 52.3107 145.979 52.6981L110.012 73.3881C108.666 74.1639 107.847 75.658 107.847 77.2095V118.733C107.847 120.287 108.666 121.705 110.012 122.482L145.979 143.244C147.325 144.021 148.962 144.021 150.308 143.244L186.284 122.482C187.621 121.705 188.449 120.287 188.449 118.733V77.2095C188.449 75.6562 187.63 74.1639 186.284 73.3881L150.308 52.6981C149.635 52.3107 148.898 52.1215 148.144 52.1215ZM521.503 52.3388V53.3483H524.314V60.7727H525.468V53.3483H528.351V52.3388H521.503ZM529.361 52.3388V60.7727H530.443V55.7992C530.443 55.5964 530.452 55.2817 530.443 54.8615C530.425 54.4341 530.443 54.0613 530.443 53.8521V53.6357L532.826 60.7727H533.971L536.427 53.6357C536.427 54.0895 536.363 54.5278 536.354 54.9334C536.345 55.3272 536.354 55.6237 536.354 55.7983V60.7727H537.436V52.338H535.845L533.399 59.475L531.016 52.338L529.361 52.3388ZM480.198 79.3002C470.531 79.3002 464.765 83.4153 464.765 90.2587C464.765 97.6813 470.485 99.7211 479.761 100.64C490.865 101.726 491.729 103.356 491.729 105.541C491.729 109.332 488.71 110.948 481.562 110.948C472.595 110.948 470.622 108.708 469.958 104.244C469.876 103.765 469.512 103.379 469.021 103.379H464.62C464.083 103.379 463.61 103.845 463.61 104.388C463.61 110.102 466.72 116.86 481.562 116.86C492.311 116.86 498.504 112.642 498.504 105.253C498.504 97.9277 493.502 95.9616 483.081 94.5838C472.55 93.1906 471.54 92.5085 471.54 90.0422C471.54 88.006 472.395 85.2842 480.198 85.2842C487.164 85.2842 489.738 86.7865 490.793 91.4837C490.883 91.9256 491.274 92.2767 491.729 92.2767H496.131C496.395 92.2767 496.658 92.1102 496.849 91.9165C497.031 91.7083 497.158 91.4745 497.14 91.1954C496.458 83.1052 491.056 79.3002 480.198 79.3002ZM363.265 89.1774C363.12 89.1774 362.965 89.1774 362.829 89.2483L355.908 93.2852C355.654 93.4335 355.481 93.7081 355.481 94.0064V101.936C355.481 102.235 355.654 102.508 355.908 102.658L362.829 106.622C363.093 106.772 363.365 106.772 363.62 106.622L370.55 102.658C370.804 102.509 370.977 102.235 370.977 101.936V94.0064C370.977 93.7081 370.804 93.4344 370.55 93.2852L363.62 89.2483C363.493 89.1719 363.411 89.1774 363.265 89.1774Z" />
</svg>
