<svg viewBox="0 0 497 196" fill="currentColor" xmlns="http://www.w3.org/2000/svg">
  <g clip-path="url(#clip0_1007_29)">
    <path
      d="M195.316 29.0408L103.261 193.65C101.361 197.048 96.4779 197.068 94.5487 193.686L0.669364 29.0566C-1.43231 25.3711 1.71924 20.9068 5.89569 21.6533L98.0483 38.1251C98.6362 38.2302 99.238 38.2292 99.8259 38.122L190.051 21.6769C194.214 20.9183 197.38 25.3479 195.316 29.0408Z" />
    <path
      d="M141.946 0.048305L73.823 13.3967C72.7034 13.6161 71.8744 14.5649 71.8068 15.7037L67.6163 86.4779C67.5178 88.1449 69.0487 89.4386 70.6757 89.0634L89.642 84.6863C91.4166 84.277 93.02 85.84 92.6553 87.6245L87.0204 115.218C86.6412 117.075 88.3848 118.663 90.1983 118.112L101.913 114.553C103.729 114.001 105.474 115.594 105.09 117.452L96.1349 160.795C95.5746 163.506 99.1807 164.984 100.685 162.66L101.689 161.108L157.199 50.3272C158.129 48.4724 156.526 46.3573 154.489 46.7505L134.966 50.5183C133.132 50.872 131.571 49.1635 132.088 47.3686L144.831 3.19644C145.349 1.39848 143.782 -0.31152 141.946 0.048305Z"
      fill="gray" fill-opacity="0.8" />
    <path
      d="M254.922 144.734L288.438 48.25H304.766L262.656 162H251.016L254.922 144.734ZM223.594 48.25L256.797 144.734L260.938 162H249.297L207.266 48.25H223.594ZM333.594 77.4688V162H319.062V77.4688H333.594ZM317.969 55.0469C317.969 52.7031 318.672 50.724 320.078 49.1094C321.536 47.4948 323.672 46.6875 326.484 46.6875C329.245 46.6875 331.354 47.4948 332.812 49.1094C334.323 50.724 335.078 52.7031 335.078 55.0469C335.078 57.2865 334.323 59.2135 332.812 60.8281C331.354 62.3906 329.245 63.1719 326.484 63.1719C323.672 63.1719 321.536 62.3906 320.078 60.8281C318.672 59.2135 317.969 57.2865 317.969 55.0469ZM392.188 77.4688V88.5625H346.484V77.4688H392.188ZM361.953 56.9219H376.406V141.062C376.406 143.927 376.849 146.089 377.734 147.547C378.62 149.005 379.766 149.969 381.172 150.438C382.578 150.906 384.089 151.141 385.703 151.141C386.901 151.141 388.151 151.036 389.453 150.828C390.807 150.568 391.823 150.359 392.5 150.203L392.578 162C391.432 162.365 389.922 162.703 388.047 163.016C386.224 163.38 384.01 163.562 381.406 163.562C377.865 163.562 374.609 162.859 371.641 161.453C368.672 160.047 366.302 157.703 364.531 154.422C362.812 151.089 361.953 146.609 361.953 140.984V56.9219ZM444.219 163.562C438.333 163.562 432.995 162.573 428.203 160.594C423.464 158.562 419.375 155.724 415.938 152.078C412.552 148.432 409.948 144.109 408.125 139.109C406.302 134.109 405.391 128.641 405.391 122.703V119.422C405.391 112.547 406.406 106.427 408.438 101.062C410.469 95.6458 413.229 91.0625 416.719 87.3125C420.208 83.5625 424.167 80.724 428.594 78.7969C433.021 76.8698 437.604 75.9062 442.344 75.9062C448.385 75.9062 453.594 76.9479 457.969 79.0312C462.396 81.1146 466.016 84.0312 468.828 87.7812C471.641 91.4792 473.724 95.8542 475.078 100.906C476.432 105.906 477.109 111.375 477.109 117.312V123.797H413.984V112H462.656V110.906C462.448 107.156 461.667 103.51 460.312 99.9688C459.01 96.4271 456.927 93.5104 454.062 91.2188C451.198 88.9271 447.292 87.7812 442.344 87.7812C439.062 87.7812 436.042 88.4844 433.281 89.8906C430.521 91.2448 428.151 93.276 426.172 95.9844C424.193 98.6927 422.656 102 421.562 105.906C420.469 109.812 419.922 114.318 419.922 119.422V122.703C419.922 126.714 420.469 130.49 421.562 134.031C422.708 137.521 424.349 140.594 426.484 143.25C428.672 145.906 431.302 147.99 434.375 149.5C437.5 151.01 441.042 151.766 445 151.766C450.104 151.766 454.427 150.724 457.969 148.641C461.51 146.557 464.609 143.771 467.266 140.281L476.016 147.234C474.193 149.995 471.875 152.625 469.062 155.125C466.25 157.625 462.786 159.656 458.672 161.219C454.609 162.781 449.792 163.562 444.219 163.562Z" />
  </g>
  <defs>
    <clipPath id="clip0_1007_29">
      <rect width="497" height="196" fill="white" />
    </clipPath>
  </defs>
</svg>