<svg width="280" height="280" viewBox="0 0 280 280" fill="none" xmlns="http://www.w3.org/2000/svg">
<g clip-path="url(#clip0_282_4)">
<circle cx="140" cy="140" r="140" fill="white"/>
<path d="M130.412 0.233879C114.965 1.49388 101.012 4.66722 88.1323 9.84723C42.3521 28.2339 9.91877 68.6007 1.89213 117.134C-10.7079 193.247 40.9521 265.347 117.205 277.994C193.319 290.594 265.419 238.934 278.065 162.681C287.632 104.954 260.192 47.4139 209.185 18.2472C191.919 8.30723 171.759 2.10055 151.412 0.373879C146.232 -0.0461208 134.752 -0.139454 130.412 0.233879ZM155.612 14.8405C183.425 18.5739 207.879 30.3805 227.665 49.6072C248.199 69.5807 260.799 94.5472 264.905 123.341C265.839 129.827 265.979 148.541 265.139 154.841C263.272 168.701 258.652 184.474 253.379 194.974C250.765 200.247 246.659 207.107 246.099 207.107C244.139 207.107 238.585 204.074 233.779 200.341C211.612 183.167 198.545 170.521 187.719 155.774C182.119 148.121 169.519 128.847 169.939 128.474C170.032 128.427 171.712 128.007 173.765 127.541C175.912 127.074 179.179 125.861 181.652 124.601C191.639 119.514 196.399 111.114 196.445 98.7007C196.445 92.7272 195.419 87.7337 193.319 83.4872C191.125 79.1007 188.325 76.0672 184.172 73.4537C179.925 70.8407 177.125 69.7207 171.385 68.4607C167.092 67.4807 165.319 67.4337 142.219 67.2472L117.579 67.0137V68.8807V70.7008L119.959 70.9807C121.219 71.1207 123.505 71.8672 124.952 72.5672C127.192 73.6407 127.799 74.2472 128.779 76.2072L129.945 78.5407V126.141C129.945 152.321 129.759 174.534 129.572 175.514C128.965 178.267 126.445 180.741 123.039 181.861C121.452 182.374 119.632 182.841 118.979 182.934C118.045 183.027 117.765 183.354 117.672 184.567L117.532 186.107H138.112H158.692L158.552 184.614C158.412 183.214 158.272 183.121 155.519 182.561C152.065 181.861 148.892 180.507 147.865 179.294C145.952 177.054 145.859 175.934 145.672 153.067L145.532 131.041H148.005C149.359 131.041 151.225 130.901 152.112 130.761L153.792 130.481L158.972 138.367C177.405 166.134 186.645 176.634 207.645 193.621C211.892 197.074 221.552 204.401 226.872 208.181L231.865 211.774H237.512C240.592 211.774 243.112 211.961 243.112 212.147C243.112 212.334 241.292 214.807 239.099 217.607C234.339 223.674 223.979 234.127 218.379 238.561C200.692 252.561 179.505 261.567 156.545 264.834C150.059 265.767 131.345 265.907 125.045 265.067C95.3188 261.101 69.7453 248.314 49.4455 227.361C30.6388 207.901 18.9721 183.914 15.0521 156.474C14.1188 149.987 13.9788 131.274 14.8188 124.974C16.2188 114.474 19.0188 103.227 22.3321 94.8737L24.1988 90.2072V94.0337L24.2455 97.9072H25.5521C26.7655 97.9072 26.9988 97.5808 28.3521 94.2672C30.4988 88.9937 34.0921 83.4407 37.2655 80.5472C40.2988 77.7472 44.1255 76.0208 49.7721 74.9472C54.2988 74.1072 76.0923 74.1072 78.5188 74.9937C81.6923 76.0672 81.6453 75.7408 81.6453 102.807V126.841H70.3523L59.0123 126.794L52.3855 129.967C48.7455 131.694 45.7588 133.281 45.7588 133.467C45.7121 133.701 53.7855 133.841 63.6788 133.841H81.6453V155.727C81.6453 176.587 81.5988 177.661 80.7588 178.687L79.8723 179.807H63.3523C49.1188 179.807 46.4588 179.667 43.8455 178.967C37.6855 177.287 36.6121 175.467 36.6121 166.601L36.6588 160.441H34.9321C33.6721 160.441 33.1121 160.674 32.9255 161.234C32.5988 162.401 29.0521 175.187 27.6988 180.274C27.0455 182.561 26.4388 184.847 26.2988 185.267C26.0655 186.061 28.2588 186.107 68.0653 186.107H110.112V184.474C110.112 183.074 109.972 182.841 108.992 182.841C106.845 182.841 101.665 180.927 100.125 179.574C97.1853 176.961 97.2788 178.641 97.2788 126.141C97.2788 78.5872 97.2788 78.5407 98.2588 76.3937C99.6123 73.4537 102.505 71.9137 108.852 70.6072C109.925 70.3737 110.112 70.1407 110.112 68.7407V67.1072L73.6653 67.0137L37.2188 66.8737L40.5788 62.4407C45.5721 55.9537 57.4723 44.2872 64.3788 39.1539C82.6253 25.5739 103.579 17.1739 124.812 14.8872C127.379 14.6072 130.225 14.2805 131.112 14.1872C133.959 13.8605 151.739 14.3272 155.612 14.8405ZM164.525 74.7137C174.932 77.6537 180.112 85.3537 180.112 97.9072C180.112 108.827 176.425 116.061 169.005 119.981C164.619 122.314 159.812 123.341 148.985 124.274L145.579 124.554V100.941C145.579 75.4607 145.625 75.1337 148.052 74.0607C149.499 73.4537 161.679 73.9207 164.525 74.7137Z" fill="black"/>
</g>
<defs>
<clipPath id="clip0_282_4">
<rect width="280" height="280" fill="white"/>
</clipPath>
</defs>
</svg>
