<svg width="290" height="290" viewBox="0 0 290 290" fill="none" xmlns="http://www.w3.org/2000/svg">
<mask id="path-1-outside-1_127_11" maskUnits="userSpaceOnUse" x="-1" y="0" width="291" height="290" fill="black">
<rect fill="white" x="-1" width="291" height="290"/>
<path d="M135.412 5.23388C119.965 6.49388 106.012 9.66722 93.1323 14.8472C47.3521 33.2339 14.9188 73.6007 6.89213 122.134C-5.70788 198.247 45.9521 270.347 122.205 282.994C198.319 295.594 270.419 243.934 283.065 167.681C292.632 109.954 265.192 52.4139 214.185 23.2472C196.919 13.3072 176.759 7.10055 156.412 5.37388C151.232 4.95388 139.752 4.86055 135.412 5.23388ZM160.612 19.8405C188.425 23.5739 212.879 35.3805 232.665 54.6072C253.199 74.5807 265.799 99.5472 269.905 128.341C270.839 134.827 270.979 153.541 270.139 159.841C268.272 173.701 263.652 189.474 258.379 199.974C255.765 205.247 251.659 212.107 251.099 212.107C249.139 212.107 243.585 209.074 238.779 205.341C216.612 188.167 203.545 175.521 192.719 160.774C187.119 153.121 174.519 133.847 174.939 133.474C175.032 133.427 176.712 133.007 178.765 132.541C180.912 132.074 184.179 130.861 186.652 129.601C196.639 124.514 201.399 116.114 201.445 103.701C201.445 97.7272 200.419 92.7337 198.319 88.4872C196.125 84.1007 193.325 81.0672 189.172 78.4537C184.925 75.8407 182.125 74.7207 176.385 73.4607C172.092 72.4807 170.319 72.4337 147.219 72.2472L122.579 72.0137V73.8807V75.7008L124.959 75.9807C126.219 76.1207 128.505 76.8672 129.952 77.5672C132.192 78.6407 132.799 79.2472 133.779 81.2072L134.945 83.5407V131.141C134.945 157.321 134.759 179.534 134.572 180.514C133.965 183.267 131.445 185.741 128.039 186.861C126.452 187.374 124.632 187.841 123.979 187.934C123.045 188.027 122.765 188.354 122.672 189.567L122.532 191.107H143.112H163.692L163.552 189.614C163.412 188.214 163.272 188.121 160.519 187.561C157.065 186.861 153.892 185.507 152.865 184.294C150.952 182.054 150.859 180.934 150.672 158.067L150.532 136.041H153.005C154.359 136.041 156.225 135.901 157.112 135.761L158.792 135.481L163.972 143.367C182.405 171.134 191.645 181.634 212.645 198.621C216.892 202.074 226.552 209.401 231.872 213.181L236.865 216.774H242.512C245.592 216.774 248.112 216.961 248.112 217.147C248.112 217.334 246.292 219.807 244.099 222.607C239.339 228.674 228.979 239.127 223.379 243.561C205.692 257.561 184.505 266.567 161.545 269.834C155.059 270.767 136.345 270.907 130.045 270.067C100.319 266.101 74.7453 253.314 54.4455 232.361C35.6388 212.901 23.9721 188.914 20.0521 161.474C19.1188 154.987 18.9788 136.274 19.8188 129.974C21.2188 119.474 24.0188 108.227 27.3321 99.8737L29.1988 95.2072V99.0337L29.2455 102.907H30.5521C31.7655 102.907 31.9988 102.581 33.3521 99.2672C35.4988 93.9937 39.0921 88.4407 42.2655 85.5472C45.2988 82.7472 49.1255 81.0208 54.7721 79.9472C59.2988 79.1072 81.0923 79.1072 83.5188 79.9937C86.6923 81.0672 86.6453 80.7408 86.6453 107.807V131.841H75.3523L64.0123 131.794L57.3855 134.967C53.7455 136.694 50.7588 138.281 50.7588 138.467C50.7121 138.701 58.7855 138.841 68.6788 138.841H86.6453V160.727C86.6453 181.587 86.5988 182.661 85.7588 183.687L84.8723 184.807H68.3523C54.1188 184.807 51.4588 184.667 48.8455 183.967C42.6855 182.287 41.6121 180.467 41.6121 171.601L41.6588 165.441H39.9321C38.6721 165.441 38.1121 165.674 37.9255 166.234C37.5988 167.401 34.0521 180.187 32.6988 185.274C32.0455 187.561 31.4388 189.847 31.2988 190.267C31.0655 191.061 33.2588 191.107 73.0653 191.107H115.112V189.474C115.112 188.074 114.972 187.841 113.992 187.841C111.845 187.841 106.665 185.927 105.125 184.574C102.185 181.961 102.279 183.641 102.279 131.141C102.279 83.5872 102.279 83.5407 103.259 81.3937C104.612 78.4537 107.505 76.9137 113.852 75.6072C114.925 75.3737 115.112 75.1407 115.112 73.7407V72.1072L78.6653 72.0137L42.2188 71.8737L45.5788 67.4407C50.5721 60.9537 62.4723 49.2872 69.3788 44.1539C87.6253 30.5739 108.579 22.1739 129.812 19.8872C132.379 19.6072 135.225 19.2805 136.112 19.1872C138.959 18.8605 156.739 19.3272 160.612 19.8405ZM169.525 79.7137C179.932 82.6537 185.112 90.3537 185.112 102.907C185.112 113.827 181.425 121.061 174.005 124.981C169.619 127.314 164.812 128.341 153.985 129.274L150.579 129.554V105.941C150.579 80.4607 150.625 80.1337 153.052 79.0607C154.499 78.4537 166.679 78.9207 169.525 79.7137Z"/>
</mask>
<path d="M135.412 5.23388C119.965 6.49388 106.012 9.66722 93.1323 14.8472C47.3521 33.2339 14.9188 73.6007 6.89213 122.134C-5.70788 198.247 45.9521 270.347 122.205 282.994C198.319 295.594 270.419 243.934 283.065 167.681C292.632 109.954 265.192 52.4139 214.185 23.2472C196.919 13.3072 176.759 7.10055 156.412 5.37388C151.232 4.95388 139.752 4.86055 135.412 5.23388ZM160.612 19.8405C188.425 23.5739 212.879 35.3805 232.665 54.6072C253.199 74.5807 265.799 99.5472 269.905 128.341C270.839 134.827 270.979 153.541 270.139 159.841C268.272 173.701 263.652 189.474 258.379 199.974C255.765 205.247 251.659 212.107 251.099 212.107C249.139 212.107 243.585 209.074 238.779 205.341C216.612 188.167 203.545 175.521 192.719 160.774C187.119 153.121 174.519 133.847 174.939 133.474C175.032 133.427 176.712 133.007 178.765 132.541C180.912 132.074 184.179 130.861 186.652 129.601C196.639 124.514 201.399 116.114 201.445 103.701C201.445 97.7272 200.419 92.7337 198.319 88.4872C196.125 84.1007 193.325 81.0672 189.172 78.4537C184.925 75.8407 182.125 74.7207 176.385 73.4607C172.092 72.4807 170.319 72.4337 147.219 72.2472L122.579 72.0137V73.8807V75.7008L124.959 75.9807C126.219 76.1207 128.505 76.8672 129.952 77.5672C132.192 78.6407 132.799 79.2472 133.779 81.2072L134.945 83.5407V131.141C134.945 157.321 134.759 179.534 134.572 180.514C133.965 183.267 131.445 185.741 128.039 186.861C126.452 187.374 124.632 187.841 123.979 187.934C123.045 188.027 122.765 188.354 122.672 189.567L122.532 191.107H143.112H163.692L163.552 189.614C163.412 188.214 163.272 188.121 160.519 187.561C157.065 186.861 153.892 185.507 152.865 184.294C150.952 182.054 150.859 180.934 150.672 158.067L150.532 136.041H153.005C154.359 136.041 156.225 135.901 157.112 135.761L158.792 135.481L163.972 143.367C182.405 171.134 191.645 181.634 212.645 198.621C216.892 202.074 226.552 209.401 231.872 213.181L236.865 216.774H242.512C245.592 216.774 248.112 216.961 248.112 217.147C248.112 217.334 246.292 219.807 244.099 222.607C239.339 228.674 228.979 239.127 223.379 243.561C205.692 257.561 184.505 266.567 161.545 269.834C155.059 270.767 136.345 270.907 130.045 270.067C100.319 266.101 74.7453 253.314 54.4455 232.361C35.6388 212.901 23.9721 188.914 20.0521 161.474C19.1188 154.987 18.9788 136.274 19.8188 129.974C21.2188 119.474 24.0188 108.227 27.3321 99.8737L29.1988 95.2072V99.0337L29.2455 102.907H30.5521C31.7655 102.907 31.9988 102.581 33.3521 99.2672C35.4988 93.9937 39.0921 88.4407 42.2655 85.5472C45.2988 82.7472 49.1255 81.0208 54.7721 79.9472C59.2988 79.1072 81.0923 79.1072 83.5188 79.9937C86.6923 81.0672 86.6453 80.7408 86.6453 107.807V131.841H75.3523L64.0123 131.794L57.3855 134.967C53.7455 136.694 50.7588 138.281 50.7588 138.467C50.7121 138.701 58.7855 138.841 68.6788 138.841H86.6453V160.727C86.6453 181.587 86.5988 182.661 85.7588 183.687L84.8723 184.807H68.3523C54.1188 184.807 51.4588 184.667 48.8455 183.967C42.6855 182.287 41.6121 180.467 41.6121 171.601L41.6588 165.441H39.9321C38.6721 165.441 38.1121 165.674 37.9255 166.234C37.5988 167.401 34.0521 180.187 32.6988 185.274C32.0455 187.561 31.4388 189.847 31.2988 190.267C31.0655 191.061 33.2588 191.107 73.0653 191.107H115.112V189.474C115.112 188.074 114.972 187.841 113.992 187.841C111.845 187.841 106.665 185.927 105.125 184.574C102.185 181.961 102.279 183.641 102.279 131.141C102.279 83.5872 102.279 83.5407 103.259 81.3937C104.612 78.4537 107.505 76.9137 113.852 75.6072C114.925 75.3737 115.112 75.1407 115.112 73.7407V72.1072L78.6653 72.0137L42.2188 71.8737L45.5788 67.4407C50.5721 60.9537 62.4723 49.2872 69.3788 44.1539C87.6253 30.5739 108.579 22.1739 129.812 19.8872C132.379 19.6072 135.225 19.2805 136.112 19.1872C138.959 18.8605 156.739 19.3272 160.612 19.8405ZM169.525 79.7137C179.932 82.6537 185.112 90.3537 185.112 102.907C185.112 113.827 181.425 121.061 174.005 124.981C169.619 127.314 164.812 128.341 153.985 129.274L150.579 129.554V105.941C150.579 80.4607 150.625 80.1337 153.052 79.0607C154.499 78.4537 166.679 78.9207 169.525 79.7137Z" fill="black"/>
<path d="M135.412 5.23388C119.965 6.49388 106.012 9.66722 93.1323 14.8472C47.3521 33.2339 14.9188 73.6007 6.89213 122.134C-5.70788 198.247 45.9521 270.347 122.205 282.994C198.319 295.594 270.419 243.934 283.065 167.681C292.632 109.954 265.192 52.4139 214.185 23.2472C196.919 13.3072 176.759 7.10055 156.412 5.37388C151.232 4.95388 139.752 4.86055 135.412 5.23388ZM160.612 19.8405C188.425 23.5739 212.879 35.3805 232.665 54.6072C253.199 74.5807 265.799 99.5472 269.905 128.341C270.839 134.827 270.979 153.541 270.139 159.841C268.272 173.701 263.652 189.474 258.379 199.974C255.765 205.247 251.659 212.107 251.099 212.107C249.139 212.107 243.585 209.074 238.779 205.341C216.612 188.167 203.545 175.521 192.719 160.774C187.119 153.121 174.519 133.847 174.939 133.474C175.032 133.427 176.712 133.007 178.765 132.541C180.912 132.074 184.179 130.861 186.652 129.601C196.639 124.514 201.399 116.114 201.445 103.701C201.445 97.7272 200.419 92.7337 198.319 88.4872C196.125 84.1007 193.325 81.0672 189.172 78.4537C184.925 75.8407 182.125 74.7207 176.385 73.4607C172.092 72.4807 170.319 72.4337 147.219 72.2472L122.579 72.0137V73.8807V75.7008L124.959 75.9807C126.219 76.1207 128.505 76.8672 129.952 77.5672C132.192 78.6407 132.799 79.2472 133.779 81.2072L134.945 83.5407V131.141C134.945 157.321 134.759 179.534 134.572 180.514C133.965 183.267 131.445 185.741 128.039 186.861C126.452 187.374 124.632 187.841 123.979 187.934C123.045 188.027 122.765 188.354 122.672 189.567L122.532 191.107H143.112H163.692L163.552 189.614C163.412 188.214 163.272 188.121 160.519 187.561C157.065 186.861 153.892 185.507 152.865 184.294C150.952 182.054 150.859 180.934 150.672 158.067L150.532 136.041H153.005C154.359 136.041 156.225 135.901 157.112 135.761L158.792 135.481L163.972 143.367C182.405 171.134 191.645 181.634 212.645 198.621C216.892 202.074 226.552 209.401 231.872 213.181L236.865 216.774H242.512C245.592 216.774 248.112 216.961 248.112 217.147C248.112 217.334 246.292 219.807 244.099 222.607C239.339 228.674 228.979 239.127 223.379 243.561C205.692 257.561 184.505 266.567 161.545 269.834C155.059 270.767 136.345 270.907 130.045 270.067C100.319 266.101 74.7453 253.314 54.4455 232.361C35.6388 212.901 23.9721 188.914 20.0521 161.474C19.1188 154.987 18.9788 136.274 19.8188 129.974C21.2188 119.474 24.0188 108.227 27.3321 99.8737L29.1988 95.2072V99.0337L29.2455 102.907H30.5521C31.7655 102.907 31.9988 102.581 33.3521 99.2672C35.4988 93.9937 39.0921 88.4407 42.2655 85.5472C45.2988 82.7472 49.1255 81.0208 54.7721 79.9472C59.2988 79.1072 81.0923 79.1072 83.5188 79.9937C86.6923 81.0672 86.6453 80.7408 86.6453 107.807V131.841H75.3523L64.0123 131.794L57.3855 134.967C53.7455 136.694 50.7588 138.281 50.7588 138.467C50.7121 138.701 58.7855 138.841 68.6788 138.841H86.6453V160.727C86.6453 181.587 86.5988 182.661 85.7588 183.687L84.8723 184.807H68.3523C54.1188 184.807 51.4588 184.667 48.8455 183.967C42.6855 182.287 41.6121 180.467 41.6121 171.601L41.6588 165.441H39.9321C38.6721 165.441 38.1121 165.674 37.9255 166.234C37.5988 167.401 34.0521 180.187 32.6988 185.274C32.0455 187.561 31.4388 189.847 31.2988 190.267C31.0655 191.061 33.2588 191.107 73.0653 191.107H115.112V189.474C115.112 188.074 114.972 187.841 113.992 187.841C111.845 187.841 106.665 185.927 105.125 184.574C102.185 181.961 102.279 183.641 102.279 131.141C102.279 83.5872 102.279 83.5407 103.259 81.3937C104.612 78.4537 107.505 76.9137 113.852 75.6072C114.925 75.3737 115.112 75.1407 115.112 73.7407V72.1072L78.6653 72.0137L42.2188 71.8737L45.5788 67.4407C50.5721 60.9537 62.4723 49.2872 69.3788 44.1539C87.6253 30.5739 108.579 22.1739 129.812 19.8872C132.379 19.6072 135.225 19.2805 136.112 19.1872C138.959 18.8605 156.739 19.3272 160.612 19.8405ZM169.525 79.7137C179.932 82.6537 185.112 90.3537 185.112 102.907C185.112 113.827 181.425 121.061 174.005 124.981C169.619 127.314 164.812 128.341 153.985 129.274L150.579 129.554V105.941C150.579 80.4607 150.625 80.1337 153.052 79.0607C154.499 78.4537 166.679 78.9207 169.525 79.7137Z" stroke="white" stroke-width="10" mask="url(#path-1-outside-1_127_11)"/>
</svg>
