<?xml version="1.0" standalone="no"?>
<!DOCTYPE svg PUBLIC "-//W3C//DTD SVG 20010904//EN"
 "http://www.w3.org/TR/2001/REC-SVG-20010904/DTD/svg10.dtd">
<svg version="1.0" xmlns="http://www.w3.org/2000/svg"
 width="700.000000pt" height="700.000000pt" viewBox="0 0 700.000000 700.000000"
 preserveAspectRatio="xMidYMid meet">
<metadata>
Created by potrace 1.14, written by Peter Selinger 2001-2017
</metadata>
<g transform="translate(0.000000,700.000000) scale(0.100000,-0.100000)"
fill="#000000" stroke="none">
<path d="M3218 6989 c-37 -4 -87 -10 -110 -13 -24 -3 -63 -8 -88 -11 -54 -7
-209 -34 -230 -40 -8 -2 -31 -7 -50 -10 -19 -3 -53 -11 -75 -17 -22 -5 -50
-12 -62 -14 -45 -8 -308 -97 -410 -138 -959 -388 -1688 -1166 -2014 -2147 -26
-81 -51 -158 -54 -170 -2 -13 -16 -71 -30 -129 -36 -154 -68 -355 -82 -515
-10 -105 -9 -499 0 -595 8 -72 32 -253 40 -295 3 -11 7 -38 11 -60 20 -112
108 -437 136 -500 5 -11 30 -74 56 -140 121 -310 313 -635 541 -914 98 -119
345 -371 443 -451 36 -29 67 -56 70 -59 11 -14 192 -143 280 -200 52 -33 100
-64 105 -68 45 -34 312 -169 446 -226 133 -57 345 -128 479 -162 58 -14 121
-30 140 -35 19 -5 51 -12 70 -15 19 -3 60 -10 90 -15 197 -34 329 -44 580 -45
187 0 339 8 430 21 453 67 781 168 1139 350 186 95 209 108 365 212 311 205
625 499 847 792 35 47 66 87 69 90 10 9 147 225 188 295 126 218 284 596 328
780 1 6 18 75 37 155 20 80 38 165 42 190 4 25 9 54 11 65 2 11 6 44 10 73 3
29 7 63 10 75 18 96 25 571 10 702 -4 33 -9 83 -12 110 -12 106 -40 269 -65
375 -161 672 -494 1257 -985 1730 -55 52 -128 120 -164 150 -36 30 -67 57 -70
60 -10 10 -186 137 -245 177 -338 226 -721 395 -1115 492 -69 16 -138 33 -155
36 -16 2 -41 7 -55 9 -49 9 -236 35 -300 42 -91 9 -521 11 -602 3z m532 -353
c63 -3 131 -8 150 -11 409 -55 802 -188 1170 -396 55 -31 281 -177 290 -188 3
-4 23 -19 45 -36 161 -120 391 -342 524 -505 29 -36 60 -74 69 -85 85 -105
234 -340 314 -500 127 -250 233 -565 284 -840 9 -49 18 -97 19 -106 23 -121
36 -596 21 -769 -24 -265 -132 -688 -242 -945 -59 -140 -171 -347 -223 -414
l-19 -25 -57 22 c-113 43 -315 191 -655 481 -210 178 -445 410 -568 561 -20
25 -43 51 -50 58 -7 8 -25 30 -40 50 -15 21 -29 39 -33 42 -43 38 -499 726
-499 754 0 3 9 6 19 6 35 0 232 69 290 102 183 103 297 257 335 453 15 81 17
316 2 380 -55 241 -180 396 -400 495 -78 35 -250 78 -341 85 -78 6 -1074 19
-1192 16 -20 -1 -23 -6 -23 -46 0 -29 5 -45 13 -46 76 -7 122 -21 189 -56 37
-20 53 -38 78 -85 l32 -60 -4 -1211 c-4 -1343 2 -1236 -70 -1303 -42 -40 -77
-57 -157 -77 -35 -9 -66 -18 -68 -21 -3 -2 -6 -19 -6 -38 l-2 -33 509 0 c356
0 510 3 513 11 9 23 -17 64 -44 69 -185 41 -252 88 -267 190 -3 22 -9 280 -12
573 l-6 532 28 1 c43 0 150 8 165 11 7 2 48 -51 92 -117 268 -401 438 -635
600 -825 99 -116 311 -329 427 -430 41 -36 80 -69 86 -75 6 -5 30 -26 54 -45
24 -19 48 -40 54 -46 23 -21 367 -283 506 -384 l145 -105 95 -2 c52 -1 114 -2
138 -2 23 -1 42 -6 42 -12 0 -32 -164 -224 -355 -415 -265 -265 -437 -394
-735 -552 -372 -197 -844 -336 -1210 -358 -178 -10 -540 -5 -660 10 -102 13
-287 50 -405 82 -49 14 -99 26 -110 29 -40 9 -257 87 -324 116 -512 226 -933
552 -1260 974 -34 44 -65 85 -69 90 -57 72 -191 293 -254 418 -148 294 -263
661 -308 983 -27 193 -30 630 -5 834 4 42 10 71 30 176 9 43 18 90 21 104 25
132 150 519 175 544 3 3 5 -34 5 -82 l0 -87 30 -3 c30 -3 32 0 82 107 129 278
249 393 472 452 80 22 103 23 415 23 424 1 416 4 429 -151 8 -95 10 -1143 2
-1151 -4 -3 -131 -5 -284 -5 l-277 1 -170 -82 c-156 -77 -167 -84 -135 -87 19
-3 222 -6 450 -8 228 -1 417 -4 419 -6 4 -5 2 -962 -3 -1040 -1 -28 -10 -62
-20 -77 l-17 -26 -412 3 c-430 3 -450 4 -528 30 -119 40 -140 88 -143 332 l-1
118 -33 1 c-18 0 -39 -4 -47 -10 -15 -12 -179 -602 -171 -615 8 -12 84 -13
1118 -15 1055 -2 983 -6 968 53 -4 18 -14 25 -35 28 -112 14 -233 81 -257 143
-20 51 -23 250 -23 1345 l1 1120 21 47 c34 73 90 107 249 148 38 9 42 14 46
46 2 19 1 37 -3 39 -3 3 -412 6 -908 7 -495 2 -901 6 -901 9 0 9 65 93 146
189 88 105 347 357 457 445 243 195 573 382 857 487 122 44 292 97 370 113
155 33 215 44 275 50 22 3 49 7 61 9 12 2 57 7 100 11 43 4 80 8 82 10 4 3
332 -3 462 -9z m190 -1490 c151 -6 214 -21 306 -72 66 -36 153 -123 184 -184
27 -53 58 -157 66 -220 11 -92 5 -258 -12 -312 -3 -9 -7 -25 -9 -35 -12 -59
-59 -155 -100 -204 -34 -41 -117 -106 -170 -132 -53 -26 -188 -63 -270 -72
-27 -4 -61 -8 -75 -10 -13 -3 -58 -7 -100 -10 -41 -4 -85 -8 -98 -10 l-23 -4
2 557 c2 570 6 663 33 691 14 13 96 30 121 25 6 -2 71 -5 145 -8z"/>
</g>
</svg>
