<svg
  viewBox="0 0 512 512"
  xmlns="http://www.w3.org/2000/svg"
  fill="currentColor"
>
  <path
    d="M188.614 395.958C188.614 395.958 169.048 407.336 202.538 411.186C243.11 415.815 263.846 415.151 308.557 406.689C308.557 406.689 320.312 414.059 336.728 420.443C236.499 463.4 109.889 417.955 188.614 395.958Z"
  />
  <path
    d="M176.366 339.902C176.366 339.902 154.422 356.146 187.936 359.613C231.277 364.084 265.504 364.45 324.729 353.045C324.729 353.045 332.921 361.35 345.802 365.892C224.618 401.327 89.6413 368.686 176.366 339.902Z"
  />
  <path
    d="M279.617 244.813C304.313 273.247 273.128 298.833 273.128 298.833C273.128 298.833 335.837 266.461 307.038 225.923C280.14 188.12 259.513 169.336 371.179 104.574C371.179 104.574 195.9 148.351 279.617 244.813Z"
  />
  <path
    d="M412.179 437.42C412.179 437.42 426.658 449.35 396.233 458.58C338.379 476.106 155.439 481.398 104.619 459.278C86.3501 451.331 120.609 440.301 131.385 437.987C142.624 435.55 149.046 436.004 149.046 436.004C128.73 421.692 17.7294 464.107 92.6636 476.253C297.02 509.394 465.186 461.33 412.179 437.42Z"
  />
  <path
    d="M198.023 281.822C198.023 281.822 104.968 303.924 165.07 311.95C190.446 315.348 241.035 314.579 288.156 310.631C326.667 307.382 365.336 300.475 365.336 300.475C365.336 300.475 351.757 306.291 341.932 312.999C247.437 337.851 64.8881 326.29 117.441 300.869C161.886 279.385 198.023 281.822 198.023 281.822Z"
  />
  <path
    d="M364.952 375.129C461.012 325.213 416.598 277.244 385.597 283.707C377.999 285.288 374.611 286.659 374.611 286.659C374.611 286.659 377.432 282.24 382.819 280.327C444.148 258.766 491.314 343.919 363.022 377.645C363.022 377.646 364.508 376.318 364.952 375.129Z"
  />
  <path
    d="M307.038 0C307.038 0 360.237 53.2171 256.581 135.05C173.459 200.694 237.626 238.123 256.546 280.886C208.026 237.11 172.42 198.573 196.307 162.707C231.369 110.058 328.502 84.5322 307.038 0Z"
  />
  <path
    d="M207.462 510.39C299.667 516.293 441.258 507.116 444.612 463.487C444.612 463.487 438.166 480.026 368.409 493.161C289.71 507.971 192.646 506.242 135.077 496.75C135.078 496.749 146.862 506.504 207.462 510.39Z"
  />
</svg>
