<svg data-v-e7543957="" width="459" height="112" viewBox="0 0 459 112" fill="currentColor"
  xmlns="http://www.w3.org/2000/svg" class="h-8 w-auto group-hover:text-primary-400">
  <path
    d="M128.45 103.8C126.95 103 125.8 101.9 125 100.5C124.2 99.1 123.8 96.95 123.8 94.05C123.8 91.95 124.35 89.75 125.45 87.45C126.65 85.05 128 82.75 129.5 80.55C131.1 78.25 132.45 76.2 133.55 74.4C137.65 67.6 141.85 60.75 146.15 53.85C150.45 46.95 154 40.35 156.8 34.05C156 34.25 155.2 34.4 154.4 34.5C153.7 34.5 152.95 34.55 152.15 34.65C151.75 34.75 151.3 34.8 150.8 34.8C150.4 34.8 150 34.8 149.6 34.8C147.5 34.8 146 34.45 145.1 33.75C144.2 33.05 143.75 32.2 143.75 31.2C143.75 30.8 143.8 30.45 143.9 30.15C144.1 29.75 144.25 29.35 144.35 28.95C146.85 28.75 149.4 28.4 152 27.9C154.7 27.4 157.35 26.8 159.95 26.1C160.15 25.4 160.35 24.7 160.55 24C160.85 23.2 161.05 22.45 161.15 21.75C162.35 21.75 163.25 22.1 163.85 22.8C164.45 23.4 164.9 24.1 165.2 24.9C168.4 24.1 171.5 23.4 174.5 22.8C177.5 22.2 180.3 21.9 182.9 21.9C188.3 21.9 192.15 23.4 194.45 26.4C196.75 29.3 197.9 32.8 197.9 36.9C197.9 40.6 196.65 44.7 194.15 49.2C191.75 53.6 188.5 57.85 184.4 61.95C180.3 66.05 175.7 69.4 170.6 72C165.6 74.6 160.55 75.9 155.45 75.9C153.45 75.9 151.4 75.65 149.3 75.15C147.3 74.65 145.35 73.85 143.45 72.75C142.15 75.05 140.8 77.45 139.4 79.95C138.1 82.35 136.85 84.75 135.65 87.15C133.75 90.75 132.1 94.1 130.7 97.2C129.4 100.2 128.65 102.4 128.45 103.8ZM144.95 70.2C148.25 70.4 152 69.9 156.2 68.7C160.5 67.4 164.85 65.6 169.25 63.3C173.65 61 177.7 58.3 181.4 55.2C185.2 52.1 188.25 48.85 190.55 45.45C192.85 41.95 194 38.5 194 35.1C194 31.2 190.5 29.25 183.5 29.25C180.6 29.25 177.6 29.55 174.5 30.15C171.4 30.75 168.35 31.4 165.35 32.1C164.95 34 164 36.55 162.5 39.75C161 42.85 159.25 46.15 157.25 49.65C155.35 53.15 153.5 56.45 151.7 59.55C149.9 62.55 148.45 64.95 147.35 66.75L144.95 70.2ZM199.123 105.75C198.023 105.75 197.223 105 196.723 103.5C196.323 102.1 196.123 100.45 196.123 98.55C196.123 96.15 196.323 93.65 196.723 91.05C197.123 88.45 197.473 86.5 197.773 85.2C198.773 81.1 200.423 76.4 202.723 71.1C205.023 65.7 207.623 60.3 210.523 54.9C213.423 49.4 216.273 44.3 219.073 39.6C221.873 34.9 224.273 31.1 226.273 28.2C225.873 28.3 224.823 28.8 223.123 29.7C221.523 30.6 219.623 31.6 217.423 32.7C215.323 33.7 213.273 34.65 211.273 35.55C209.273 36.45 207.773 37.05 206.773 37.35C206.473 37.45 206.173 37.5 205.873 37.5C205.173 37.5 204.773 37.3 204.673 36.9C204.673 36.4 204.573 36.1 204.373 36C204.373 35.9 205.223 35.25 206.923 34.05C208.623 32.75 210.723 31.2 213.223 29.4C215.723 27.6 218.273 25.85 220.873 24.15C223.573 22.35 225.923 20.85 227.923 19.65C229.923 18.45 231.223 17.85 231.823 17.85C232.323 17.85 233.323 18.1 234.823 18.6C236.323 19 237.723 19.55 239.023 20.25C240.323 20.95 240.873 21.65 240.673 22.35C240.673 22.45 240.673 22.6 240.673 22.8C240.673 23 240.573 23.15 240.373 23.25C238.773 25.45 236.873 28.25 234.673 31.65C232.473 34.95 230.223 38.45 227.923 42.15C225.623 45.85 223.423 49.5 221.323 53.1C219.223 56.6 217.473 59.75 216.073 62.55C210.273 73.55 206.273 82.45 204.073 89.25C201.873 95.95 200.773 101.05 200.773 104.55C200.773 105.35 200.223 105.75 199.123 105.75ZM225.13 103.8C223.63 103 222.48 101.9 221.68 100.5C220.88 99.1 220.48 96.95 220.48 94.05C220.48 91.95 221.03 89.75 222.13 87.45C223.33 85.05 224.68 82.75 226.18 80.55C227.78 78.25 229.13 76.2 230.23 74.4C234.33 67.6 238.53 60.75 242.83 53.85C247.13 46.95 250.68 40.35 253.48 34.05C252.68 34.25 251.88 34.4 251.08 34.5C250.38 34.5 249.63 34.55 248.83 34.65C248.43 34.75 247.98 34.8 247.48 34.8C247.08 34.8 246.68 34.8 246.28 34.8C244.18 34.8 242.68 34.45 241.78 33.75C240.88 33.05 240.43 32.2 240.43 31.2C240.43 30.8 240.48 30.45 240.58 30.15C240.78 29.75 240.93 29.35 241.03 28.95C243.53 28.75 246.08 28.4 248.68 27.9C251.38 27.4 254.03 26.8 256.63 26.1C256.83 25.4 257.03 24.7 257.23 24C257.53 23.2 257.73 22.45 257.83 21.75C259.03 21.75 259.93 22.1 260.53 22.8C261.13 23.4 261.58 24.1 261.88 24.9C265.08 24.1 268.18 23.4 271.18 22.8C274.18 22.2 276.98 21.9 279.58 21.9C284.98 21.9 288.83 23.4 291.13 26.4C293.43 29.3 294.58 32.8 294.58 36.9C294.58 40.6 293.33 44.7 290.83 49.2C288.43 53.6 285.18 57.85 281.08 61.95C276.98 66.05 272.38 69.4 267.28 72C262.28 74.6 257.23 75.9 252.13 75.9C250.13 75.9 248.08 75.65 245.98 75.15C243.98 74.65 242.03 73.85 240.13 72.75C238.83 75.05 237.48 77.45 236.08 79.95C234.78 82.35 233.53 84.75 232.33 87.15C230.43 90.75 228.78 94.1 227.38 97.2C226.08 100.2 225.33 102.4 225.13 103.8ZM241.63 70.2C244.93 70.4 248.68 69.9 252.88 68.7C257.18 67.4 261.53 65.6 265.93 63.3C270.33 61 274.38 58.3 278.08 55.2C281.88 52.1 284.93 48.85 287.23 45.45C289.53 41.95 290.68 38.5 290.68 35.1C290.68 31.2 287.18 29.25 280.18 29.25C277.28 29.25 274.28 29.55 271.18 30.15C268.08 30.75 265.03 31.4 262.03 32.1C261.63 34 260.68 36.55 259.18 39.75C257.68 42.85 255.93 46.15 253.93 49.65C252.03 53.15 250.18 56.45 248.38 59.55C246.58 62.55 245.13 64.95 244.03 66.75L241.63 70.2ZM296.553 105.75C294.353 105.75 292.453 105.45 290.853 104.85C289.253 104.35 288.053 103.45 287.253 102.15C285.953 102.15 284.703 101.6 283.503 100.5C282.403 99.4 281.853 97.55 281.853 94.95C281.853 90.65 283.403 86.1 286.503 81.3C289.703 76.5 293.453 70.5 297.753 63.3C298.753 61.6 300.103 59.55 301.803 57.15C303.603 54.65 305.403 52 307.203 49.2C309.103 46.4 310.753 43.65 312.153 40.95C313.653 38.15 314.653 35.7 315.153 33.6C314.153 33.7 313.003 33.9 311.703 34.2C310.503 34.4 309.403 34.55 308.403 34.65C308.003 34.75 307.653 34.8 307.353 34.8C307.053 34.8 306.753 34.8 306.453 34.8C304.553 34.8 303.303 34.45 302.703 33.75C302.103 33.05 301.803 32.25 301.803 31.35C301.803 30.45 301.803 29.75 301.803 29.25C305.303 28.95 309.153 28.35 313.353 27.45C318.753 26.45 324.103 25.2 329.403 23.7C334.803 22.2 340.353 21.45 346.053 21.45C352.253 21.45 357.103 22.75 360.603 25.35C364.103 27.95 365.853 32.25 365.853 38.25C365.853 43.05 364.753 48.2 362.553 53.7C360.353 59.2 357.403 64.65 353.703 70.05C350.003 75.45 345.803 80.45 341.103 85.05C336.403 89.65 331.503 93.45 326.403 96.45C323.603 98.15 320.453 99.7 316.953 101.1C313.453 102.5 309.903 103.6 306.303 104.4C302.803 105.3 299.553 105.75 296.553 105.75ZM296.703 101.55C302.303 101.55 307.603 100.35 312.603 97.95C317.703 95.45 322.453 92.25 326.853 88.35C331.253 84.45 335.153 80.3 338.553 75.9C340.553 73.4 342.753 70.4 345.153 66.9C347.553 63.3 349.853 59.6 352.053 55.8C354.253 51.9 356.053 48.2 357.453 44.7C358.953 41.1 359.703 38.05 359.703 35.55C359.703 33.25 359.153 31.45 358.053 30.15C356.953 28.85 354.953 28.2 352.053 28.2C349.953 28.2 347.003 28.45 343.203 28.95C339.503 29.45 335.603 30.05 331.503 30.75C327.403 31.35 323.753 31.95 320.553 32.55C321.053 33.35 321.303 34.25 321.303 35.25C321.303 37.35 320.603 39.95 319.203 43.05C317.903 46.15 316.253 49.35 314.253 52.65C312.353 55.95 310.453 59.05 308.553 61.95C306.753 64.85 305.303 67.15 304.203 68.85C301.703 72.55 299.153 76.6 296.553 81C294.053 85.4 292.053 89.8 290.553 94.2C290.153 95.3 289.953 96.4 289.953 97.5C289.953 98.8 290.453 99.8 291.453 100.5C292.453 101.2 294.203 101.55 296.703 101.55ZM371.407 105.75C369.207 105.75 367.307 105.45 365.707 104.85C364.107 104.35 362.907 103.45 362.107 102.15C360.807 102.15 359.557 101.6 358.357 100.5C357.257 99.4 356.707 97.55 356.707 94.95C356.707 90.65 358.257 86.1 361.357 81.3C364.557 76.5 368.307 70.5 372.607 63.3C373.607 61.6 374.957 59.55 376.657 57.15C378.457 54.65 380.257 52 382.057 49.2C383.957 46.4 385.607 43.65 387.007 40.95C388.507 38.15 389.507 35.7 390.007 33.6C389.007 33.7 387.857 33.9 386.557 34.2C385.357 34.4 384.257 34.55 383.257 34.65C382.857 34.75 382.507 34.8 382.207 34.8C381.907 34.8 381.607 34.8 381.307 34.8C379.407 34.8 378.157 34.45 377.557 33.75C376.957 33.05 376.657 32.25 376.657 31.35C376.657 30.45 376.657 29.75 376.657 29.25C380.157 28.95 384.007 28.35 388.207 27.45C393.607 26.45 398.957 25.2 404.257 23.7C409.657 22.2 415.207 21.45 420.907 21.45C427.107 21.45 431.957 22.75 435.457 25.35C438.957 27.95 440.707 32.25 440.707 38.25C440.707 43.05 439.607 48.2 437.407 53.7C435.207 59.2 432.257 64.65 428.557 70.05C424.857 75.45 420.657 80.45 415.957 85.05C411.257 89.65 406.357 93.45 401.257 96.45C398.457 98.15 395.307 99.7 391.807 101.1C388.307 102.5 384.757 103.6 381.157 104.4C377.657 105.3 374.407 105.75 371.407 105.75ZM371.557 101.55C377.157 101.55 382.457 100.35 387.457 97.95C392.557 95.45 397.307 92.25 401.707 88.35C406.107 84.45 410.007 80.3 413.407 75.9C415.407 73.4 417.607 70.4 420.007 66.9C422.407 63.3 424.707 59.6 426.907 55.8C429.107 51.9 430.907 48.2 432.307 44.7C433.807 41.1 434.557 38.05 434.557 35.55C434.557 33.25 434.007 31.45 432.907 30.15C431.807 28.85 429.807 28.2 426.907 28.2C424.807 28.2 421.857 28.45 418.057 28.95C414.357 29.45 410.457 30.05 406.357 30.75C402.257 31.35 398.607 31.95 395.407 32.55C395.907 33.35 396.157 34.25 396.157 35.25C396.157 37.35 395.457 39.95 394.057 43.05C392.757 46.15 391.107 49.35 389.107 52.65C387.207 55.95 385.307 59.05 383.407 61.95C381.607 64.85 380.157 67.15 379.057 68.85C376.557 72.55 374.007 76.6 371.407 81C368.907 85.4 366.907 89.8 365.407 94.2C365.007 95.3 364.807 96.4 364.807 97.5C364.807 98.8 365.307 99.8 366.307 100.5C367.307 101.2 369.057 101.55 371.557 101.55Z"></path>
  <path
    d="M73.6206 5.57419C67.016 6.11455 45.9657 8.06588 28.6851 9.74702C23.7091 10.2273 18.0393 10.7677 16.0489 10.9478C10.4395 11.4282 7.93641 12.2687 6.03645 14.3101C3.83492 16.6217 3.29207 18.7832 2.86986 26.7085C2.71907 29.8307 2.2667 38.4165 1.84449 45.7715C1.06038 59.9711 1.06038 59.8811 0.30643 74.8913C-0.206256 85.2783 -0.176098 85.3984 1.18101 88.5505C1.54291 89.3611 3.29207 92.9635 5.04124 96.506C8.47925 103.381 9.86652 105.362 12.0681 106.473C13.1839 107.043 13.6363 107.073 16.9235 106.923C20.6028 106.743 43.2514 104.732 59.8987 103.11C64.9652 102.63 73.4095 101.82 78.6871 101.309C91.6551 100.078 93.8868 99.3579 95.6359 95.9356C96.028 95.155 96.4803 93.7141 96.6613 92.7234C96.993 90.8021 98.1089 80.9854 99.1041 71.529C100.069 62.0726 101.758 47.5127 102.904 38.4165C104.321 27.399 104.261 25.0274 102.512 21.3949C100.763 17.7925 96.601 11.6983 94.3994 9.5669C91.1122 6.38474 87.3123 4.91374 82.5172 5.0038C81.2807 5.0038 77.2697 5.27398 73.6206 5.57419ZM89.0313 7.9458C91.9265 9.35676 93.9169 11.4882 97.3851 16.8919C100.672 21.9653 100.702 22.1154 99.2549 24.6071C98.3803 26.1382 95.274 29.0802 92.8011 30.7313C90.4789 32.3224 85.7139 34.5739 83.6029 35.1443C81.7331 35.6546 78.8982 35.6846 76.7268 35.2343C73.7412 34.6039 67.9207 32.8327 63.6684 31.2116C61.3463 30.341 58.1495 29.1402 56.5813 28.5698C47.2323 25.1175 42.7991 23.4663 39.8436 22.2655C36.2849 20.8245 21.9297 15.9012 17.7679 14.7004C16.3505 14.2801 14.6616 13.9499 14.0283 13.9499C12.4903 13.9499 10.3792 14.9706 9.2332 16.2314C8.20783 17.4022 8.02688 17.012 8.90146 15.571C9.26336 15.0006 10.1379 14.3101 11.103 13.8598C12.5204 13.1693 13.3045 13.0493 18.1298 12.7491C27.5693 12.1787 70.9365 8.18596 78.2951 7.19529C80.0442 6.98515 82.6981 6.80502 84.206 6.83504C86.6488 6.9251 87.1917 7.04519 89.0313 7.9458ZM20.2409 17.6724C22.4123 18.3929 26.2725 19.7438 28.8359 20.6444C37.9436 23.8566 42.8895 25.6278 44.0657 26.0781C47.7751 27.4891 67.9509 34.8441 71.6603 36.165C76.6967 37.9061 79.3204 38.3865 81.6426 37.9662C82.5172 37.7861 83.2711 37.726 83.3314 37.7861C83.5426 37.9962 77.5411 41.2684 76.9681 41.2684C76.6967 41.2684 75.8824 40.8782 75.1888 40.3978C70.8159 37.4258 64.8747 34.9642 49.0418 29.5905C43.161 27.6092 35.7723 24.9674 32.6057 23.7365C29.4692 22.4757 26.5137 21.455 26.0614 21.455C25.0058 21.455 24.9154 22.2355 25.9106 22.6558C28.7454 23.8266 45.6942 30.4611 45.845 30.4611C46.1466 30.4611 63.1859 36.6153 64.8747 37.3658C68.3429 38.8368 70.3333 40.0076 71.7206 41.3285C72.5047 42.109 73.1682 42.9796 73.1682 43.2798C73.1682 44.0003 68.8858 55.6482 66.6239 61.0819C65.5985 63.4835 64.3922 66.5756 63.8795 67.9866C61.678 74.1708 60.3209 76.4824 57.8178 78.3136C55.7972 79.8146 53.6861 80.4751 41.3515 83.5972C29.6803 86.5392 24.9455 87.5899 23.4979 87.5299C21.3567 87.4398 18.4314 85.8787 17.6171 84.4077C17.2854 83.8073 16.3505 80.7753 16.0188 79.1842C15.9283 78.8239 15.5362 77.1128 15.1442 75.4316C13.3045 67.7164 11.8268 56.3987 10.7411 42.3191C10.4094 37.8461 9.92684 31.782 9.65542 28.81C9.08241 22.4757 9.29352 20.4943 10.7109 18.7531C13.003 15.9312 14.541 15.7511 20.2409 17.6724ZM6.7904 21.8452C7.1523 23.0461 7.60467 28.9601 8.17767 41.2684C8.75067 52.9464 9.0221 56.6989 10.1681 68.2868C10.6506 73.3302 11.1332 78.2536 11.2236 79.2442C11.2839 80.2349 11.4951 82.6065 11.6458 84.4978C11.9776 88.2804 11.9776 99.1177 11.676 100.559C11.4046 101.82 10.4697 101.88 9.5951 100.709C8.56973 99.3579 2.41749 87.2597 1.96512 85.7887C1.6937 84.798 1.6937 83.4471 1.96512 79.6345C2.14607 76.9327 2.71907 66.2154 3.2016 55.8283C4.40792 30.4011 4.67934 25.898 5.22219 23.2562C5.46345 22.0254 5.73487 20.9146 5.82535 20.7645C6.06661 20.3742 6.45866 20.8245 6.7904 21.8452ZM102.12 25.3276C102.12 25.8079 102.18 26.4083 102.271 26.6485C102.391 26.9487 101.939 27.2489 100.642 27.7292C99.6469 28.0895 98.7422 28.5098 98.6517 28.6599C98.5311 28.84 98.32 28.9601 98.1089 28.9601C97.9279 28.9601 98.4708 28.2396 99.3152 27.369C100.16 26.5284 101.004 25.5077 101.185 25.1175C101.668 24.1868 102.12 24.2769 102.12 25.3276ZM101.547 32.0222C101.969 32.8027 101.879 34.0936 100.612 44.7208C100.099 49.0137 99.1644 57.2393 98.5009 63.0332C97.174 74.6211 95.6359 87.4098 95.2137 90.5919C94.8518 93.3238 93.736 94.5246 91.6852 94.4646C90.3281 94.4045 84.4775 91.9729 80.5569 89.8414C74.3745 86.4791 64.4827 79.5444 63.397 77.8333C63.0351 77.2329 63.0653 77.0828 65.9303 69.9379C74.1031 49.5541 74.8872 47.963 78.657 44.3906C80.7077 42.4392 82.2458 41.2985 84.4775 40.0676C85.4727 39.5272 87.1314 38.5666 88.1567 37.9061C92.1376 35.3844 99.5866 31.3917 100.371 31.3917C100.914 31.3617 101.306 31.5718 101.547 32.0222ZM15.295 78.7039C15.687 79.1842 15.6569 79.2142 15.2045 78.8239C14.9029 78.6138 14.6616 78.3736 14.6616 78.3136C14.6616 78.0734 14.9029 78.2235 15.295 78.7039ZM64.1208 82.1262C65.9303 82.9668 68.3128 84.798 67.5588 84.798C67.408 84.798 65.9906 84.3177 64.4224 83.7173C61.9494 82.7566 61.105 82.6065 58.3304 82.4564C55.2543 82.3363 54.5909 82.1262 55.4353 81.6158C57.094 80.5951 61.3463 80.8353 64.1208 82.1262ZM49.1926 84.1676C48.891 84.4378 43.5229 85.7286 42.8594 85.6686C42.4975 85.6386 48.4085 83.9574 49.0418 83.9274C49.3132 83.8974 49.3434 83.9874 49.1926 84.1676ZM19.6679 88.7307C21.598 89.8114 24.3122 90.2017 26.2725 89.6313C27.7502 89.181 31.2787 88.4004 31.7009 88.4004C31.8517 88.4004 30.3137 89.0009 28.2328 89.7213C23.136 91.4325 21.417 92.2731 19.6377 93.8642C18.1298 95.2151 17.0743 95.9055 16.5314 95.9055C16.3807 95.9055 16.1695 94.6447 16.0489 93.1136C15.9283 91.6126 15.6569 89.0309 15.4458 87.3798L15.0537 84.4378L16.5314 86.0889C17.3457 87.0195 18.7631 88.1903 19.6679 88.7307ZM64.724 85.5485C67.981 86.5692 81.7029 93.2938 84.4775 95.2151C88.0964 97.7068 87.5837 98.1571 80.6172 98.6074C78.084 98.7875 71.2984 99.3879 65.4779 99.9583C59.6876 100.529 51.8766 101.279 48.137 101.609C44.3974 101.94 40.7483 102.27 39.9944 102.36C27.1471 103.771 21.5678 104.371 19.2155 104.521L16.3807 104.702L16.5918 103.711C16.8933 102.12 18.1901 99.538 19.5171 97.8269C20.7234 96.2358 23.5583 93.8942 24.9455 93.2938C26.363 92.6934 36.496 89.6313 40.7483 88.5505C44.3974 87.6199 51.1227 85.7887 54.4702 84.828C55.0432 84.6479 57.0337 84.5578 58.8431 84.6179C61.4066 84.7079 62.7335 84.8881 64.724 85.5485ZM42.3165 85.8787C42.2261 85.9688 41.9546 85.9988 41.7435 85.9088C41.5023 85.8187 41.5928 85.7286 41.9245 85.7286C42.2562 85.6986 42.4372 85.7887 42.3165 85.8787ZM41.1102 86.1789C41.0197 86.269 40.7483 86.299 40.5372 86.209C40.296 86.1189 40.3864 86.0288 40.7182 86.0288C41.0499 85.9988 41.2309 86.0889 41.1102 86.1789Z"></path>
  <path
    d="M54.2591 14.07C51.4544 14.9706 50.3989 15.7512 49.7656 17.4023C49.3434 18.5431 49.3132 18.9633 49.6148 19.954C50.037 21.365 51.2735 22.4157 52.3592 22.2956C52.7814 22.2656 53.7464 22.5058 54.4702 22.866C56.3702 23.7366 58.632 24.1569 61.3764 24.1569C63.3367 24.1569 63.97 24.0368 65.3271 23.3163C66.2318 22.866 67.2271 22.1455 67.5286 21.7252C68.0413 21.0047 68.0715 20.8546 67.6493 20.0741L67.1969 19.2035L68.8254 19.2936C70.0619 19.3836 71.027 19.2035 72.8063 18.5431C75.5808 17.5224 78.8982 17.4323 81.7331 18.2729C84.5076 19.0834 87.3424 22.0554 86.5583 23.2863C86.4075 23.5565 86.2266 23.3463 85.9853 22.6559C85.8044 22.0855 85.2615 21.365 84.8092 21.0348C84.1155 20.4944 83.9647 20.4644 83.7235 20.8546C83.5425 21.1248 83.5727 21.425 83.7235 21.5751C84.3266 22.1755 83.9647 22.6258 82.3965 23.2262C79.049 24.4571 74.9777 24.307 72.8063 22.836C71.9619 22.2656 71.8111 21.9954 71.8111 20.9447C71.8111 20.2542 71.7206 19.6238 71.6 19.5037C71.3285 19.2335 69.5794 20.1642 68.7651 21.0648C68.0413 21.8453 67.8001 23.3463 68.2826 24.0068C68.8857 24.8774 70.6349 25.7179 73.0475 26.2883C79.0791 27.7293 86.8901 26.0782 89.2726 22.866C90.0868 21.7853 90.0567 20.0141 89.2122 18.8433C87.7345 16.7719 81.2807 14.5503 76.8173 14.5503C75.5507 14.5503 73.4396 14.8205 72.1126 15.1508C69.0365 15.9013 68.1921 15.9013 67.4683 15.1207C65.8699 13.4096 58.2098 12.8092 54.2591 14.07ZM64.1208 17.1021C65.8398 17.9727 65.8699 18.0327 65.508 19.2635C65.2366 20.1341 64.9049 20.4644 63.8494 20.9447C62.2208 21.6652 59.386 21.4851 57.3051 20.5244C56.2194 20.0141 55.948 19.7139 55.7972 18.8733C55.5559 17.6424 55.1035 17.2822 54.621 17.9427C54.0178 18.7532 52.0576 19.984 52.0576 19.5638C52.0576 18.8433 53.8067 17.4923 55.4353 16.8919C57.5162 16.1714 62.4922 16.2615 64.1208 17.1021ZM68.5842 16.8319C69.3683 17.042 69.4587 17.4023 68.7651 17.6725C68.2524 17.8526 67.4382 17.4023 67.4382 16.922C67.4382 16.6218 67.6493 16.5917 68.5842 16.8319Z"></path>
  <path
    d="M33.3596 39.4374C31.5803 39.9777 29.7708 41.1785 27.901 43.0398C24.5233 46.4021 23.0154 50.3348 23.7091 53.7871C24.1614 55.9486 25.0662 56.8792 26.6645 56.8792C28.3534 56.8792 28.9867 56.0987 28.6851 54.4175C28.1724 51.7157 28.3534 49.8845 29.3486 48.1433C30.8263 45.5315 34.1437 43.6702 36.6468 44.0905C38.6674 44.4207 41.1705 47.6329 41.2007 49.9145C41.2007 50.4849 40.9293 52.2261 40.6277 53.8171C39.8436 57.6597 38.1849 69.9381 38.1849 71.8294C38.1849 73.1803 38.3055 73.4204 39.2404 74.261C39.8436 74.7714 40.6277 75.1917 41.0197 75.1917C41.7435 75.1917 43.7038 73.9308 44.5181 72.9401C44.7593 72.6399 47.8355 69.848 51.3639 66.7259C54.8924 63.6038 57.9384 60.7819 58.0892 60.4817C58.9638 58.8606 57.7574 56.8792 55.8575 56.8792C54.4702 56.8792 52.8718 58.1701 47.3831 63.6938C43.0705 67.9868 43.0102 68.0468 43.0102 67.0561C43.0102 65.7652 44.2768 57.6898 45.1212 53.7571C45.453 52.136 45.7244 49.9145 45.6942 48.8037C45.6942 46.6723 45.1514 44.6909 44.6086 44.781C44.4276 44.811 44.3371 44.6009 44.4276 44.2706C44.6689 43.34 41.7737 40.5181 39.7833 39.7676C38.1246 39.1372 34.8675 38.9871 33.3596 39.4374Z"></path>
  <path
    d="M4.79998 51.0851C4.31745 51.8356 4.25714 52.7062 4.34761 61.3821C4.55872 81.796 5.37298 87.0496 8.35863 87.0496C9.32368 87.0496 9.41416 86.9595 9.71574 85.6686C10.2586 83.5672 10.4395 78.2836 10.1379 73.6905C9.83637 69.0073 9.384 66.3355 8.59989 64.4442C7.96657 62.9732 6.82057 62.2527 6.06662 62.8831C5.67456 63.2134 5.61425 62.8831 5.61425 60.0012C5.61425 56.5188 6.0063 54.9578 6.3682 57.0592C6.48883 57.6896 6.73009 58.7704 6.91104 59.4308C7.33325 60.8418 8.17768 61.202 8.38878 60.0312C8.59989 59.0706 8.11736 54.1472 7.69515 52.5261C7.09199 50.2446 5.76504 49.6141 4.79998 51.0851ZM7.8761 69.0373C8.59989 70.5984 8.90147 79.6946 8.26815 81.1956L7.81578 82.2463L7.27294 81.0455C6.85072 80.1149 6.69993 78.794 6.5793 74.9814C6.39835 68.3168 6.73009 66.6957 7.8761 69.0373Z"></path>
  <path
    d="M7.21263 93.564C7.42373 96.5059 7.57452 96.8062 8.78084 96.8062C9.35384 96.8062 9.89669 96.6561 9.98716 96.4759C10.1078 96.3258 10.1078 95.3652 9.98716 94.3445C9.7459 92.3031 9.08242 91.4025 7.84594 91.4025H7.03168L7.21263 93.564Z"></path>
  <path
    d="M88.4583 45.7115C83.3616 47.5127 78.3252 56.3387 78.2046 63.7838C78.1141 68.1067 79.4109 70.3582 82.1251 70.5984C83.5425 70.7485 83.6028 70.7185 85.1711 69.0674C86.0456 68.1367 87.1615 66.5457 87.644 65.4949C88.6091 63.4536 89.8757 61.7124 90.2074 62.0426C90.6297 62.4329 90.7503 66.0954 90.3884 67.1761C90.1773 67.7765 89.3027 69.0674 88.4281 70.028C85.4123 73.3903 82.8187 77.4431 82.8187 78.794C82.8187 79.5445 83.4521 79.8147 84.4774 79.5745C85.2917 79.3644 89.3027 74.2909 92.3185 69.6378L94.0677 66.9359L93.8867 61.3822C93.7058 55.258 93.4042 53.8771 92.3185 53.8771C91.4439 53.8771 90.8709 54.6576 88.8503 58.6803C86.8599 62.643 85.7441 64.2641 84.5981 64.8645C83.4219 65.4649 82.6981 65.1947 82.0648 63.9339C80.5267 60.6316 81.7632 55.4982 84.8393 52.5261C86.2869 51.1452 87.3123 50.875 87.8853 51.7156C88.4583 52.5562 89.4837 52.5562 90.2678 51.6856C92.3788 49.374 92.982 47.3326 91.9566 46.1318C91.2027 45.2612 90.1471 45.1111 88.4583 45.7115Z"></path>
  <path
    d="M44.8196 93.0536C42.1657 93.534 39.1801 94.4946 37.2801 95.4853C35.5913 96.3559 35.1691 96.7161 34.4453 97.8269C33.7215 98.9677 34.1437 99.9583 35.531 100.349C36.8881 100.709 54.8321 100.529 58.6018 100.108C66.7143 99.2378 71.6904 96.2958 68.554 94.2545C67.408 93.534 63.2462 93.1737 59.5971 93.5039C54.8321 93.9543 52.2988 94.6147 48.0767 96.6261C45.5133 97.8269 43.4927 98.3072 40.9292 98.3072C38.8182 98.3072 38.2452 98.007 38.9991 97.3466C40.115 96.3559 45.3625 94.7048 48.9513 94.2545C50.5195 94.0443 51.3639 93.5039 51.002 92.9035C50.7608 92.4833 47.5942 92.5733 44.8196 93.0536ZM64.0303 95.7555C65.1461 96.2058 65.1461 96.2358 64.543 96.8062C63.397 97.947 59.5971 98.6975 54.5607 98.7275C51.2433 98.7575 49.8862 98.6675 49.6147 98.3973C49.3433 98.1271 49.3132 97.9169 49.5243 97.7068C50.0068 97.2265 54.5908 96.1758 58.059 95.7555C62.3716 95.2451 62.7636 95.2451 64.0303 95.7555Z"></path>
  <path
    d="M30.6454 94.8849C28.0819 95.9956 25.8502 96.9863 25.6995 97.1364C25.2169 97.5567 26.4232 98.6074 27.3883 98.6074C27.8708 98.6074 30.2232 97.7669 32.6358 96.7462C36.3452 95.1851 36.9786 94.8249 36.9786 94.2545C36.9786 93.8342 36.677 93.4739 36.2246 93.2638C35.8024 93.0536 35.4103 92.9035 35.3802 92.9035C35.35 92.9336 33.2088 93.8042 30.6454 94.8849Z"></path>
</svg>