<svg width="256" height="74" viewBox="0 0 256 74" fill="none" xmlns="http://www.w3.org/2000/svg">
<path d="M36.6082 1.09864L58.5468 1.07446L21.7398 37.8627L12.1472 47.4016L1.23291 36.4739L36.6082 1.09864ZM36.404 33.9462C36.6888 33.5701 37.2126 33.7554 37.6102 33.7071L58.528 33.7125L39.4637 52.758L28.493 41.8545L36.404 33.9462Z" fill="#44D1FD"/>
<path opacity="0.54" d="M89.3823 16.4426L113.298 16.4507L113.295 21.1597C107.039 21.1597 100.78 21.1409 94.5211 21.1677C94.043 21.3262 94.2686 21.9253 94.2149 22.2933L94.2337 34.959C94.3922 35.4344 94.9939 35.2061 95.3646 35.2652L111.418 35.2572V39.9608C106.427 39.9581 101.438 39.9581 96.4472 39.9608C95.7058 39.9581 94.9563 39.9124 94.223 40.0387L94.1666 57.9184C92.5575 57.8539 90.9511 57.913 89.342 57.8781L89.3394 17.2028L89.3823 16.4426V16.4426ZM119.098 16.4507H124.008L124.011 44.5919L123.957 57.8432C122.359 57.8136 120.76 57.8056 119.165 57.8486C119.041 57.1931 119.092 56.5269 119.092 55.8661L119.098 16.4507V16.4507ZM167.16 19.9401L172.087 19.9428L172.095 28.2702C174.504 28.3293 176.927 28.1628 179.332 28.3535C179.264 29.847 179.321 31.3406 179.294 32.8342C176.898 32.8395 174.504 32.8583 172.111 32.8234L172.092 49.4083C172.143 50.9449 172.471 52.8011 173.964 53.5935C175.67 54.5633 177.765 54.1066 179.38 53.1718V57.9963C177.602 58.8022 175.573 58.8989 173.664 58.6383C170.972 58.2273 168.393 56.3926 167.579 53.7251C167.039 52.2638 167.163 50.687 167.152 49.1612L167.141 33.0088L167.02 32.8718C165.32 32.7804 163.614 32.8852 161.911 32.8261C161.922 31.3057 161.852 29.7853 161.949 28.2675C163.679 28.238 165.417 28.3454 167.144 28.2138L167.16 19.9401V19.9401ZM187.973 19.924C189.612 19.9804 191.25 19.9052 192.886 19.9616L192.999 20.0852C193.061 22.8198 192.916 25.5625 193.064 28.2917C195.398 28.2487 197.732 28.2836 200.064 28.2702L200.08 32.7992C197.732 32.8879 195.377 32.8341 193.029 32.8207L193.002 49.6931C192.999 51.1625 193.424 52.9005 194.845 53.6231C196.588 54.574 198.702 54.0851 200.322 53.1127L200.317 57.9641C198.589 58.7431 196.642 58.8935 194.778 58.6786C192.357 58.3563 189.988 56.9889 188.852 54.7728C188.304 53.6123 187.997 52.3283 187.946 51.047V32.8395C186.246 32.8368 184.548 32.8449 182.851 32.8395L182.861 28.2541C184.535 28.2998 186.208 28.2407 187.882 28.2971C188.059 25.5141 187.868 22.7123 187.973 19.924V19.924ZM211.886 28.426C215.287 27.0157 219.212 26.9889 222.685 28.1708C226.663 29.5435 229.742 33.0141 230.87 37.0408C231.609 39.2731 231.579 41.6451 231.474 43.966L208.091 43.9902C208.284 46.4803 209.028 49.0188 210.758 50.8885C213.216 53.7547 217.447 54.8185 221.02 53.6929C223.526 52.9542 225.481 51.0255 226.768 48.8093C228.192 49.4459 229.575 50.1712 230.994 50.824C229.054 54.5203 225.527 57.4564 221.382 58.2515C217.979 58.8881 214.256 58.9042 211.134 57.2226C207.083 55.2106 204.295 51.1141 203.5 46.7087C202.922 43.324 203.102 39.7432 204.375 36.5304C205.711 33.0034 208.41 29.9491 211.886 28.426V28.426ZM213.737 32.673C210.876 33.9946 209.033 36.9307 208.459 39.9608L226.392 39.9044C226.107 37.9246 225.403 35.9126 223.953 34.4808C221.412 31.757 217.068 31.2251 213.737 32.673ZM242.12 33.0625C243.992 28.5147 249.744 26.1266 254.291 28.0311V33.3392C252.382 32.587 250.241 32.1223 248.223 32.716C245.467 33.5353 243.428 35.9932 242.647 38.6982C242.109 40.5249 242.311 42.4321 242.332 44.3045C242.123 46.7275 242.437 49.1531 242.279 51.5761C242.407 53.6687 242.166 55.7613 242.343 57.8566C240.672 57.9372 239.001 57.8512 237.333 57.9076C237.236 51.5923 237.32 45.2742 237.293 38.9561L237.33 28.3212C238.897 28.3642 240.465 28.3159 242.034 28.3535C242.176 29.9223 241.859 31.4991 242.12 33.0625V33.0625ZM131.052 28.2621C132.717 28.332 134.396 28.1628 136.053 28.3508L136.029 45.9565C136.013 48.1082 136.319 50.4587 137.807 52.1295C139.728 54.257 142.981 54.6465 145.608 53.8057C149.119 52.5486 151.569 48.8308 151.427 45.113L151.48 28.2621L156.496 28.2729L156.466 57.8351C154.876 57.8083 153.288 57.8351 151.701 57.8163L151.682 53.6096C150.653 54.9017 149.573 56.2099 148.098 57.0239C145.079 58.9284 141.249 59.1809 137.867 58.2058C135.685 57.5477 133.786 56.0192 132.693 54.0206C131.395 51.8233 131.068 49.2257 130.992 46.7221L131.052 28.2621V28.2621Z" fill="black"/>
<path d="M17.5574 52.7768L28.4931 41.8545L39.4638 52.758L39.5094 52.8064L28.4958 63.7179L17.5574 52.7768V52.7768Z" fill="#1FBCFD"/>
<path d="M28.4956 63.718L39.5092 52.8064L58.536 71.8519C51.3691 71.868 44.2048 71.8466 37.0406 71.8627C36.6323 71.954 36.3798 71.5806 36.1192 71.3496L28.4956 63.718V63.718Z" fill="#08589C"/>
</svg>