<svg
  width="514"
  height="514"
  viewBox="0 0 514 514"
  fill="currentColor"
  xmlns="http://www.w3.org/2000/svg"
>
  <g clip-path="url(#clip0_404_2)">
    <path
      fill-rule="evenodd"
      clip-rule="evenodd"
      d="M335.572 177.26C351.999 177.284 365.516 189.654 367.344 205.569L367.553 209.3L367.474 263L335.446 263L335.525 209.253L176.393 209.02L176.189 348.749C176.124 392.644 211.695 428.283 255.638 428.347C258.12 428.351 260.576 428.241 263 428.022L263 460.11C260.551 460.266 258.081 460.344 255.592 460.341C196.014 460.253 147.41 413.545 144.317 354.816L144.161 348.702L144.365 208.973C144.389 192.566 156.773 179.061 172.705 177.237L176.44 177.027L335.572 177.26ZM512.096 284.788L512.206 209.512L511.994 205.78C510.169 189.866 496.649 177.495 480.225 177.471L391.047 177.322C395.74 185.448 398.699 194.7 399.411 204.571L399.58 209.347L480.178 209.465L480.1 263L484 263C497.526 263 508.89 272.261 512.096 284.788ZM120.965 176.927C116.406 184.766 113.466 193.663 112.603 203.16L112.338 208.927L32.6104 208.81L32.4353 328.437C32.3873 361.237 58.9661 387.865 91.8007 387.913C100.487 387.926 108.741 386.076 116.184 382.744C118.707 393.261 122.427 403.347 127.167 412.837C116.283 417.416 104.312 419.925 91.7538 419.907C43.035 419.836 3.26701 381.734 0.554653 333.759L0.407499 328.39L0.582598 208.763C0.606613 192.356 12.9904 178.851 28.9215 177.026L32.6573 176.816L120.965 176.927ZM256.182 16.3737C295.58 16.4314 327.471 48.3828 327.414 87.7394C327.356 127.096 295.371 158.954 255.973 158.896C216.574 158.839 184.682 126.887 184.74 87.5305C184.797 48.1739 216.783 16.316 256.182 16.3737ZM415.879 36.7036C449.723 36.7532 477.118 64.1994 477.068 98.0067C477.019 131.814 449.544 159.18 415.7 159.13C381.859 159.08 354.461 131.634 354.511 97.8273C354.56 64.02 382.039 36.6541 415.879 36.7036ZM96.929 36.2368C130.773 36.2863 158.168 63.7325 158.118 97.5398C158.069 131.347 130.593 158.713 96.7498 158.663C62.9067 158.614 35.5115 131.167 35.5609 97.3604C35.6104 63.5531 63.0859 36.1872 96.929 36.2368ZM256.135 48.3673C234.425 48.3355 216.799 65.8906 216.768 87.5774C216.736 109.264 234.31 126.871 256.02 126.903C277.729 126.934 295.354 109.379 295.386 87.6925C295.418 66.0056 277.844 48.3991 256.135 48.3673ZM415.832 68.6972C399.677 68.6736 386.562 81.7366 386.538 97.8742C386.515 114.012 399.592 127.113 415.747 127.136C431.902 127.16 445.017 114.097 445.04 97.9598C445.064 81.8222 431.987 68.7209 415.832 68.6972ZM96.8822 68.2304C80.7274 68.2067 67.6124 81.2698 67.5888 97.4073C67.5651 113.545 80.6418 126.646 96.7967 126.67C112.952 126.693 126.067 113.631 126.09 97.4929C126.114 81.3554 113.037 68.254 96.8822 68.2304Z"
    />
    <path
      fill-rule="evenodd"
      clip-rule="evenodd"
      d="M298 268C281.984 268 269 280.984 269 297L269 479C269 495.016 281.984 508 298 508L480 508C496.016 508 509 495.016 509 479L509 297C509 280.984 496.016 268 480 268L298 268ZM323 293C306.984 293 294 305.984 294 322L294 454C294 470.016 306.984 483 323 483L455 483C471.016 483 484 470.016 484 454L484 322C484 305.984 471.016 293 455 293L323 293Z"
    />
    <path
      fill-rule="evenodd"
      clip-rule="evenodd"
      d="M446.635 387.54L405.113 429.061C404.127 430.036 403.344 431.196 402.81 432.475C402.275 433.755 402 435.127 402 436.514C402 437.9 402.275 439.273 402.81 440.552C403.344 441.831 404.127 442.992 405.113 443.966C406.088 444.952 407.248 445.736 408.528 446.27C409.807 446.804 411.18 447.08 412.566 447.08C413.952 447.08 415.325 446.804 416.604 446.27C417.884 445.736 419.044 444.952 420.019 443.966L468.886 394.992C473.038 390.84 473.038 384.133 468.886 379.981L420.019 331.113C419.044 330.127 417.884 329.344 416.604 328.81C415.325 328.275 413.952 328 412.566 328C411.18 328 409.807 328.275 408.528 328.81C407.248 329.344 406.088 330.127 405.113 331.113C404.127 332.088 403.344 333.248 402.81 334.528C402.275 335.807 402 337.18 402 338.566C402 339.952 402.275 341.325 402.81 342.604C403.344 343.884 404.127 345.044 405.113 346.019L446.635 387.54Z"
    />
    <path
      fill-rule="evenodd"
      clip-rule="evenodd"
      d="M331.365 387.54L372.887 346.018C373.873 345.044 374.656 343.884 375.19 342.604C375.725 341.325 376 339.952 376 338.566C376 337.179 375.725 335.807 375.19 334.528C374.656 333.248 373.873 332.088 372.887 331.113C371.912 330.127 370.752 329.344 369.472 328.81C368.193 328.275 366.82 328 365.434 328C364.048 328 362.675 328.275 361.396 328.81C360.116 329.344 358.956 330.127 357.981 331.113L309.114 380.087C304.962 384.239 304.962 390.947 309.114 395.099L357.981 443.966C358.956 444.952 360.116 445.735 361.396 446.27C362.675 446.804 364.048 447.08 365.434 447.08C366.82 447.08 368.193 446.804 369.472 446.27C370.752 445.735 371.912 444.952 372.887 443.966C373.873 442.992 374.656 441.831 375.19 440.552C375.725 439.273 376 437.9 376 436.514C376 435.127 375.725 433.755 375.19 432.475C374.656 431.196 373.873 430.035 372.887 429.061L331.365 387.54Z"
    />
  </g>
  <defs>
    <clipPath id="clip0_404_2">
      <rect
        width="512"
        height="512"
        fill="white"
        transform="translate(1.31836 0.663574) rotate(0.083864)"
      />
    </clipPath>
  </defs>
</svg>
