<svg
  width="256"
  height="256"
  viewBox="0 0 256 256"
  xmlns="http://www.w3.org/2000/svg"
>
  <path
    fill-rule="evenodd"
    clip-rule="evenodd"
    d="M96.0312 63.9992C96.0312 46.3439 110.344 32.0312 127.999 32.0312C145.655 32.0312 159.967 46.3439 159.967 63.9992C159.967 81.6548 145.655 95.9674 127.999 95.9674C110.344 95.9674 96.0312 81.6548 96.0312 63.9992ZM176 72C176 58.7451 186.746 48 200 48C213.254 48 224 58.7451 224 72C224 85.2549 213.254 96 200 96C186.746 96 176 85.2549 176 72ZM56 48C42.7451 48 32 58.7451 32 72C32 85.2549 42.7451 96 56 96C69.2549 96 80 85.2549 80 72C80 58.7451 69.2549 48 56 48ZM96 111.992C87.1979 111.992 80.056 119.1 80.0003 127.889L80.0001 127.935L80 127.992V175.998C80 180.968 80.7555 185.761 82.1579 190.27C88.2352 209.811 106.461 223.998 128 223.998C138.449 223.998 148.119 220.659 156 214.989V141V140.5C156 137.185 157.317 134.005 159.661 131.661C162.005 129.317 165.185 128 168.5 128H169H176V127.992C176 119.156 168.837 111.992 160 111.992H96ZM240.002 128H192.002V127.992C192.002 122.164 190.444 116.699 187.72 111.992H224.002C232.839 111.992 240.002 119.156 240.002 127.992V128ZM64 127.992C64 122.164 65.5582 116.699 68.281 111.992H32C23.1635 111.992 16 119.156 16 127.992V167.998C16 190.089 33.9086 207.998 56 207.998C61.2979 207.998 66.3554 206.968 70.9829 205.097C66.5184 196.366 64 186.477 64 175.997V127.992Z"
  />
  <path
    fill-rule="evenodd"
    clip-rule="evenodd"
    d="M240.75 139.625H173.25C171.758 139.625 170.327 140.218 169.273 141.273C168.218 142.327 167.625 143.758 167.625 145.25V212.75C167.625 214.242 168.218 215.673 169.273 216.727C170.327 217.782 171.758 218.375 173.25 218.375H240.75C242.242 218.375 243.673 217.782 244.727 216.727C245.782 215.673 246.375 214.242 246.375 212.75V145.25C246.375 143.758 245.782 142.327 244.727 141.273C243.673 140.218 242.242 139.625 240.75 139.625ZM173.25 134C170.266 134 167.405 135.185 165.295 137.295C163.185 139.405 162 142.266 162 145.25V212.75C162 215.734 163.185 218.595 165.295 220.705C167.405 222.815 170.266 224 173.25 224H240.75C243.734 224 246.595 222.815 248.705 220.705C250.815 218.595 252 215.734 252 212.75V145.25C252 142.266 250.815 139.405 248.705 137.295C246.595 135.185 243.734 134 240.75 134H173.25Z"
  />
  <path
    fill-rule="evenodd"
    clip-rule="evenodd"
    d="M239.375 141.312H175.625C174.216 141.312 172.865 141.872 171.868 142.868C170.872 143.865 170.312 145.216 170.312 146.625V210.375C170.312 211.784 170.872 213.135 171.868 214.132C172.865 215.128 174.216 215.688 175.625 215.688H239.375C240.784 215.688 242.135 215.128 243.132 214.132C244.128 213.135 244.688 211.784 244.688 210.375V146.625C244.688 145.216 244.128 143.865 243.132 142.868C242.135 141.872 240.784 141.312 239.375 141.312ZM175.625 136C172.807 136 170.105 137.119 168.112 139.112C166.119 141.105 165 143.807 165 146.625V210.375C165 213.193 166.119 215.895 168.112 217.888C170.105 219.881 172.807 221 175.625 221H239.375C242.193 221 244.895 219.881 246.888 217.888C248.881 215.895 250 213.193 250 210.375V146.625C250 143.807 248.881 141.105 246.888 139.112C244.895 137.119 242.193 136 239.375 136H175.625Z"
  />
  <path
    fill-rule="evenodd"
    clip-rule="evenodd"
    d="M237 144H177C175.674 144 174.402 144.527 173.464 145.464C172.527 146.402 172 147.674 172 149V209C172 210.326 172.527 211.598 173.464 212.536C174.402 213.473 175.674 214 177 214H237C238.326 214 239.598 213.473 240.536 212.536C241.473 211.598 242 210.326 242 209V149C242 147.674 241.473 146.402 240.536 145.464C239.598 144.527 238.326 144 237 144ZM177 139C174.348 139 171.804 140.054 169.929 141.929C168.054 143.804 167 146.348 167 149V209C167 211.652 168.054 214.196 169.929 216.071C171.804 217.946 174.348 219 177 219H237C239.652 219 242.196 217.946 244.071 216.071C245.946 214.196 247 211.652 247 209V149C247 146.348 245.946 143.804 244.071 141.929C242.196 140.054 239.652 139 237 139H177Z"
  />
  <path
    fill-rule="evenodd"
    clip-rule="evenodd"
    d="M200.553 160.133C200.815 160.395 201.023 160.705 201.165 161.047C201.307 161.388 201.38 161.755 201.38 162.125C201.38 162.495 201.307 162.861 201.165 163.203C201.023 163.544 200.815 163.855 200.553 164.116L185.664 179L200.553 193.883C201.082 194.412 201.378 195.128 201.378 195.875C201.378 196.622 201.082 197.338 200.553 197.866C200.025 198.394 199.309 198.691 198.562 198.691C197.815 198.691 197.099 198.394 196.571 197.866L179.696 180.991C179.434 180.73 179.226 180.419 179.084 180.078C178.943 179.736 178.87 179.37 178.87 179C178.87 178.63 178.943 178.263 179.084 177.922C179.226 177.58 179.434 177.27 179.696 177.008L196.571 160.133C196.832 159.871 197.143 159.664 197.484 159.522C197.826 159.38 198.192 159.307 198.562 159.307C198.932 159.307 199.298 159.38 199.64 159.522C199.982 159.664 200.292 159.871 200.553 160.133V160.133ZM213.446 160.133C213.184 160.395 212.976 160.705 212.834 161.047C212.693 161.388 212.62 161.755 212.62 162.125C212.62 162.495 212.693 162.861 212.834 163.203C212.976 163.544 213.184 163.855 213.446 164.116L228.335 179L213.446 193.883C212.918 194.412 212.621 195.128 212.621 195.875C212.621 196.622 212.918 197.338 213.446 197.866C213.974 198.394 214.69 198.691 215.437 198.691C216.184 198.691 216.9 198.394 217.428 197.866L234.303 180.991C234.565 180.73 234.773 180.419 234.915 180.078C235.057 179.736 235.13 179.37 235.13 179C235.13 178.63 235.057 178.263 234.915 177.922C234.773 177.58 234.565 177.27 234.303 177.008L217.428 160.133C217.167 159.871 216.857 159.664 216.515 159.522C216.173 159.38 215.807 159.307 215.437 159.307C215.067 159.307 214.701 159.38 214.359 159.522C214.018 159.664 213.707 159.871 213.446 160.133V160.133Z"
  />
</svg>
