<svg
  width="514"
  height="514"
  viewBox="0 0 514 514"
  fill="currentColor"
  xmlns="http://www.w3.org/2000/svg"
>
  <g clip-path="url(#clip0_404_2)">
    <path
      fill-rule="evenodd"
      clip-rule="evenodd"
      d="M335.572 177.26C351.999 177.284 365.516 189.654 367.343 205.569L367.553 209.3L367.474 263L335.446 263L335.525 209.253L176.393 209.02L176.189 348.749C176.124 392.644 211.695 428.283 255.638 428.347C258.12 428.351 260.576 428.241 263 428.022L263 460.11C260.551 460.266 258.081 460.344 255.592 460.341C196.014 460.253 147.41 413.545 144.317 354.816L144.161 348.702L144.365 208.973C144.389 192.566 156.773 179.061 172.705 177.237L176.44 177.027L335.572 177.26ZM512.096 284.788L512.206 209.512L511.994 205.78C510.169 189.866 496.649 177.495 480.225 177.471L391.047 177.322C395.74 185.448 398.699 194.7 399.411 204.571L399.58 209.347L480.178 209.465L480.1 263L484 263C497.526 263 508.89 272.261 512.096 284.788ZM120.965 176.927C116.406 184.766 113.466 193.663 112.603 203.16L112.338 208.927L32.6104 208.81L32.4353 328.437C32.3873 361.237 58.9661 387.865 91.8007 387.913C100.487 387.926 108.741 386.076 116.184 382.744C118.707 393.261 122.427 403.347 127.167 412.837C116.283 417.416 104.312 419.925 91.7538 419.907C43.035 419.836 3.26701 381.734 0.554653 333.759L0.407499 328.39L0.582598 208.763C0.606613 192.356 12.9904 178.851 28.9215 177.026L32.6573 176.816L120.965 176.927ZM256.182 16.3737C295.58 16.4314 327.471 48.3828 327.414 87.7394C327.356 127.096 295.371 158.954 255.973 158.896C216.574 158.839 184.682 126.887 184.74 87.5305C184.797 48.1739 216.783 16.316 256.182 16.3737ZM415.879 36.7036C449.723 36.7532 477.118 64.1994 477.068 98.0067C477.019 131.814 449.544 159.18 415.7 159.13C381.859 159.08 354.461 131.634 354.511 97.8273C354.56 64.02 382.039 36.6541 415.879 36.7036ZM96.929 36.2368C130.773 36.2863 158.168 63.7325 158.118 97.5398C158.069 131.347 130.593 158.713 96.7499 158.663C62.9067 158.614 35.5115 131.167 35.5609 97.3604C35.6104 63.5531 63.0859 36.1873 96.929 36.2368ZM256.135 48.3673C234.425 48.3355 216.799 65.8906 216.768 87.5774C216.736 109.264 234.31 126.871 256.02 126.903C277.729 126.934 295.354 109.379 295.386 87.6925C295.418 66.0056 277.844 48.3991 256.135 48.3673ZM415.832 68.6972C399.677 68.6736 386.562 81.7366 386.538 97.8742C386.515 114.012 399.592 127.113 415.747 127.136C431.902 127.16 445.017 114.097 445.04 97.9598C445.064 81.8222 431.987 68.7209 415.832 68.6972ZM96.8822 68.2304C80.7274 68.2067 67.6124 81.2698 67.5888 97.4073C67.5651 113.545 80.6418 126.646 96.7967 126.67C112.952 126.693 126.067 113.631 126.09 97.4929C126.114 81.3554 113.037 68.254 96.8822 68.2304Z"
    />
    <path
      fill-rule="evenodd"
      clip-rule="evenodd"
      d="M313.979 281C299.631 281 288 292.631 288 306.979L288 470.021C288 484.369 299.631 496 313.979 496H477.021C491.369 496 503 484.369 503 470.021V306.979C503 292.631 491.369 281 477.021 281L313.979 281ZM336.375 303.396C322.027 303.396 310.396 315.027 310.396 329.375V447.625C310.396 461.973 322.027 473.604 336.375 473.604H454.625C468.973 473.604 480.604 461.973 480.604 447.625V329.375C480.604 315.027 468.973 303.396 454.625 303.396H336.375Z"
    />
    <path
      d="M447.75 387.811L410.554 425.007C409.671 425.88 408.969 426.92 408.49 428.066C408.012 429.212 407.765 430.442 407.765 431.684C407.765 432.926 408.012 434.155 408.49 435.301C408.969 436.447 409.671 437.487 410.554 438.36C411.427 439.243 412.467 439.945 413.613 440.424C414.759 440.902 415.988 441.149 417.23 441.149C418.473 441.149 419.702 440.902 420.848 440.424C421.994 439.945 423.034 439.243 423.907 438.36L467.684 394.487C471.403 390.768 471.403 384.759 467.684 381.04L423.907 337.262C423.034 336.379 421.994 335.677 420.848 335.199C419.702 334.72 418.473 334.473 417.23 334.473C415.988 334.473 414.759 334.72 413.613 335.199C412.467 335.677 411.427 336.379 410.554 337.262C409.671 338.135 408.969 339.175 408.49 340.321C408.012 341.467 407.765 342.697 407.765 343.939C407.765 345.181 408.012 346.41 408.49 347.556C408.969 348.702 409.671 349.742 410.554 350.615L447.75 387.811Z"
    />
    <path
      d="M344.488 387.811L381.684 350.615C382.568 349.742 383.269 348.702 383.748 347.556C384.227 346.41 384.473 345.181 384.473 343.939C384.473 342.697 384.227 341.467 383.748 340.321C383.269 339.175 382.568 338.135 381.684 337.262C380.811 336.379 379.772 335.677 378.626 335.199C377.48 334.72 376.25 334.473 375.008 334.473C373.766 334.473 372.536 334.72 371.39 335.199C370.244 335.677 369.205 336.379 368.332 337.262L324.555 381.135C320.835 384.854 320.835 390.863 324.555 394.583L368.332 438.36C369.205 439.243 370.244 439.945 371.39 440.424C372.536 440.902 373.766 441.149 375.008 441.149C376.25 441.149 377.48 440.902 378.626 440.424C379.772 439.945 380.811 439.243 381.684 438.36C382.568 437.487 383.269 436.447 383.748 435.301C384.227 434.155 384.473 432.925 384.473 431.683C384.473 430.441 384.227 429.212 383.748 428.066C383.269 426.92 382.568 425.88 381.684 425.007L344.488 387.811Z"
    />
  </g>
  <defs>
    <clipPath id="clip0_404_2">
      <rect
        width="512"
        height="512"
        fill="white"
        transform="translate(1.31836 0.663574) rotate(0.083864)"
      />
    </clipPath>
  </defs>
</svg>
