<svg
  width="512"
  height="512"
  viewBox="0 0 512 512"
  xmlns="http://www.w3.org/2000/svg"
>
  <path
    d="M81.9591 0.274958C58.2257 0.640892 56.2392 0.849996 48.816 3.93429C32.4012 10.7825 18.3389 26.7267 15.8819 41.3118C14.2091 50.9306 14 70.7433 14 209.641C14 348.225 14.2091 368.613 15.8297 378.075C17.398 387.067 23.0438 396.372 32.349 405.154C37.7857 410.225 41.8109 412.996 47.4568 415.4C56.5528 419.321 63.3487 420.001 92.2052 420.053H111.6L115.886 427.79C124.669 443.525 133.66 455.601 145.213 467.102C165.549 487.437 189.753 501.186 218.086 508.504C229.012 511.275 231.626 511.536 250.288 511.902C276.113 512.321 284.163 511.536 299.951 506.779C317.934 501.395 336.021 492.351 350.136 481.687C369.217 467.206 385.893 447.55 396.087 427.424L399.851 420.053H418.513C444.495 420.001 452.232 419.53 458.452 417.439C467.653 414.355 476.749 408.5 484.015 400.92C488.459 396.267 490.289 393.706 493.059 388.426C495.307 384.035 496.3 380.271 497.085 373.004C497.921 365.738 498.391 79.9962 497.607 58.197C497.085 43.5074 497.085 43.1415 495.464 38.332C489.818 21.3945 476.801 8.43005 459.916 2.88877C455.786 1.52959 453.591 1.16365 446.847 0.693168C437.594 0.118129 117.298 -0.30008 81.9591 0.274958ZM375.961 29.9156C379.724 30.9611 384.429 35.0909 386.416 39.0639C387.618 41.4686 387.775 42.4096 387.775 47.5849C387.775 52.7603 387.618 53.7013 386.416 56.106C384.638 59.6607 380.195 63.7383 376.745 64.8361C372.615 66.1953 365.348 65.7771 361.532 63.8951C358.082 62.2223 354.161 58.197 352.593 54.7468C350.92 51.192 350.972 43.8733 352.645 40.4754C355.259 35.1955 360.069 31.0656 365.558 29.4451C368.956 28.4518 370.994 28.5564 375.961 29.9156ZM312.549 30.2292C316.418 31.8498 318.927 33.8363 320.757 36.7638C323.057 40.3708 323.684 42.8801 323.684 47.9509C323.684 52.0807 323.527 52.8126 321.907 56.0014C319.659 60.3926 315.895 63.6337 311.661 64.8884C307.426 66.0907 300.003 65.7248 296.919 64.1042C293.678 62.4314 290.437 59.0334 288.659 55.3741C287.352 52.6557 287.143 51.7148 287.143 47.5849C287.143 43.5597 287.352 42.4619 288.555 39.9003C290.75 35.1955 295.56 31.0134 300.474 29.4974C303.349 28.6087 309.517 29.0269 312.549 30.2292ZM442.142 30.752C454.427 37.0251 456.727 51.9761 446.795 61.1245C442.404 65.202 437.019 66.7703 431.373 65.6202C425.309 64.3656 420.5 61.0199 417.781 56.106C416.37 53.5444 416.265 52.9171 416.265 47.8463C416.265 43.2983 416.475 41.9391 417.416 39.9003C419.507 35.3 424.368 31.2225 429.596 29.4974C430.328 29.236 432.785 29.1314 435.085 29.1837C438.483 29.2883 439.79 29.6019 442.142 30.752ZM467.026 224.906C466.817 295.897 466.451 357.844 466.242 362.654C465.823 371.07 465.771 371.541 464.15 374.834C461.066 381.107 454.375 386.283 447.631 387.642C446.22 387.903 437.594 388.321 428.55 388.53C413.547 388.792 412.031 388.792 411.352 387.955C410.724 387.224 410.776 386.283 411.561 381.473C413.443 369.92 413.129 338.868 410.986 325.956C408.947 313.828 403.249 297.518 396.191 283.821C375.281 243.203 338.008 213.666 293.26 202.323C283.223 199.813 278.779 199.343 260.691 199.081C236.383 198.663 227.653 199.656 212.127 204.361C184.63 212.673 165.34 224.226 145.161 244.353C127.178 262.336 115.416 280.841 107.313 304.052C101.301 321.251 99.7853 330.765 99.3671 353.139C99.1057 367.045 99.2102 369.45 100.256 377.657C101.092 384.401 101.249 386.858 100.779 387.328C99.8898 388.217 66.3808 388.112 62.6692 387.171C59.3235 386.335 52.9981 382.205 50.8025 379.434C47.2999 375.095 46.6204 372.534 45.7839 359.203C45.0521 348.591 44.8952 109.271 45.5748 101.064L45.993 96.4632L78.4566 96.3064C96.335 96.2541 191.164 96.1496 289.182 96.045L467.392 95.9405L467.026 224.906ZM268.167 233.166C271.199 237.661 280.556 256.272 284.529 265.786C286.098 269.654 288.816 276.868 290.541 281.835L293.625 290.931H256.039H218.4L220.962 283.717C227.705 264.584 235.703 247.698 244.695 233.793L247.675 229.245L256.666 229.349L265.71 229.506L268.167 233.166ZM199.633 253.083C197.071 259.408 192.994 270.334 190.589 277.391L186.302 290.251L167.012 290.617C156.4 290.826 147.618 290.878 147.513 290.774C147.148 290.46 154.362 280.632 158.544 275.771C163.824 269.654 171.874 261.552 177.102 257.056C183.689 251.41 203.867 239.439 204.181 240.955C204.285 241.373 202.247 246.81 199.633 253.083ZM314.013 243.412C332.414 253.24 348.62 267.668 361.271 285.651C363.205 288.369 364.669 290.669 364.564 290.774C364.46 290.878 355.677 290.826 345.013 290.617L325.671 290.251L322.691 280.528C318.457 266.779 314.431 255.592 311.086 248.326C309.517 244.875 308.106 241.739 307.949 241.373C307.479 240.223 308.942 240.693 314.013 243.412ZM179.193 355.492V388.687H165.183C157.446 388.687 147.252 388.53 142.443 388.321L133.817 388.008L132.719 383.721C130.576 375.043 129.949 367.515 130.21 353.139C130.576 334.634 132.406 323.551 135.281 322.767C136.013 322.558 146.154 322.401 157.916 322.349L179.193 322.296V355.492ZM300.108 323.447C302.251 332.124 301.676 385.446 299.48 387.799C298.905 388.374 224.255 388.844 216.832 388.321L210.82 387.903L210.14 379.539C209.356 369.711 209.618 335.418 210.559 328.883C211.238 323.865 211.709 322.976 213.538 322.662C214.375 322.558 234.083 322.401 257.398 322.349L299.846 322.296L300.108 323.447ZM378.052 322.872C378.208 323.028 378.993 325.956 379.724 329.406C380.979 335 381.136 337.038 381.345 349.166C381.659 364.64 380.874 377.971 379.358 383.826C378.836 386.021 378.261 387.903 378.156 388.06C377.999 388.164 367.387 388.374 354.527 388.583L331.16 388.844L331.473 386.544C332.937 376.036 333.199 338.763 331.944 326.06L331.578 322.244L354.684 322.401C367.387 322.506 377.895 322.715 378.052 322.872ZM188.603 430.508C191.582 440.336 197.385 456.333 201.358 465.481L203.24 469.872L201.567 469.506C198.326 468.879 184.525 459.992 174.958 452.412C167.065 446.139 151.696 428.417 147.879 421.203L147.252 420.053L166.437 420.158L185.571 420.314L188.603 430.508ZM292.632 420.523C292.632 421.569 288.136 433.749 285.209 440.702C278.309 457.012 266.808 478.655 263.619 481.216C262.312 482.262 249.766 482.314 247.309 481.268C241.872 479.021 228.489 452.83 220.543 428.992C219.393 425.49 218.4 422.249 218.4 421.83C218.4 420.262 219.446 420.262 258.81 420.158C279.459 420.105 292.632 420.262 292.632 420.523ZM363.676 420.837C364.407 421.569 361.062 426.692 355.677 433.383C350.816 439.343 337.59 452.255 332.205 456.28C325.096 461.613 307.06 472.329 306.381 471.597C306.276 471.493 308.263 466.265 310.824 459.94C316.157 446.975 319.136 438.872 322.691 427.738L325.148 420.001L344.124 420.158C356.514 420.262 363.362 420.523 363.676 420.837Z"
  />
</svg>
