<?xml version="1.0" standalone="no"?>
<!DOCTYPE svg PUBLIC "-//W3C//DTD SVG 20010904//EN"
 "http://www.w3.org/TR/2001/REC-SVG-20010904/DTD/svg10.dtd">
<svg version="1.0" xmlns="http://www.w3.org/2000/svg"
 width="512.000000pt" height="512.000000pt" viewBox="0 0 512.000000 512.000000"
 preserveAspectRatio="xMidYMid meet">

<g transform="translate(0.000000,512.000000) scale(0.100000,-0.100000)"
fill="#000000" stroke="none">
<path d="M176 4714 c-32 -10 -64 -31 -96 -63 -87 -88 -81 78 -78 -1866 l3
-1720 22 -40 c25 -47 74 -95 123 -121 34 -18 89 -19 1323 -22 l1287 -2 0 -205
c0 -137 4 -213 12 -230 13 -28 55 -55 86 -55 31 0 102 55 237 184 l125 118
154 -145 c164 -154 191 -170 247 -147 54 23 59 47 59 274 l0 205 628 3 c621 3
627 3 667 25 47 25 95 74 121 123 18 34 19 99 22 1755 3 1944 9 1778 -78 1866
-86 86 144 79 -2484 78 -2037 0 -2337 -2 -2380 -15z m4734 -149 c64 -33 60 93
60 -1762 0 -1669 0 -1688 -20 -1721 -11 -18 -32 -37 -46 -42 -15 -6 -260 -10
-625 -10 l-599 0 0 115 0 115 483 0 c365 0 488 3 507 13 13 7 35 28 47 46 l23
34 0 1451 c0 1438 0 1451 -20 1484 -39 64 -14 62 -829 62 -532 0 -747 -3 -765
-11 -35 -16 -50 -63 -31 -99 8 -15 22 -30 30 -34 9 -3 220 -6 468 -6 l452 0
17 -70 c55 -228 230 -403 458 -458 l70 -17 0 -851 0 -851 -62 -14 c-219 -46
-425 -252 -470 -470 l-12 -59 -134 0 c-73 0 -132 3 -130 8 71 138 92 217 92
342 0 186 -59 325 -194 460 -139 139 -272 194 -465 194 -127 -1 -228 -28 -329
-89 -197 -119 -326 -342 -326 -565 0 -80 28 -200 64 -277 l35 -73 -334 0
c-332 0 -334 0 -359 -22 -36 -33 -39 -75 -6 -108 19 -19 33 -20 410 -20 l390
0 0 -115 0 -115 -1259 0 c-794 0 -1269 4 -1285 10 -14 5 -35 24 -46 42 -20 33
-20 52 -20 1721 0 1487 2 1691 15 1717 33 64 -156 59 2393 60 2057 0 2326 -2
2352 -15z m-320 -561 l0 -196 -32 6 c-69 13 -173 74 -231 135 -57 59 -108 152
-122 219 l-7 32 196 0 196 0 0 -196z m-1269 -1748 c261 -56 439 -310 399 -569
-37 -243 -258 -436 -501 -437 -64 0 -193 35 -248 67 -103 60 -191 166 -232
279 -31 84 -31 244 0 328 60 165 206 294 375 331 80 18 127 18 207 1z m1269
-651 l0 -195 -196 0 -196 0 7 33 c22 102 109 224 205 285 45 29 142 69 173 71
4 1 7 -87 7 -194z m-1539 -481 c79 -21 243 -24 319 -5 30 8 79 24 108 37 l52
23 0 -287 0 -286 -52 50 c-29 27 -92 86 -139 132 -121 115 -114 116 -289 -49
l-140 -131 0 286 0 286 38 -19 c21 -11 67 -27 103 -37z"/>
<path d="M453 4335 c-18 -8 -42 -29 -53 -47 -20 -33 -20 -47 -20 -1484 l0
-1451 23 -34 c12 -18 34 -39 47 -46 19 -10 167 -13 633 -13 l608 0 26 26 c20
20 24 31 19 57 -13 67 -14 67 -356 67 l-307 0 -14 63 c-46 219 -247 420 -466
466 l-63 14 0 851 0 852 63 13 c113 23 202 74 297 170 95 96 140 175 168 292
l17 69 880 0 c958 0 915 -3 929 55 7 29 -15 79 -39 89 -9 3 -544 6 -1188 6
-984 -1 -1177 -3 -1204 -15z m462 -167 c-14 -67 -65 -160 -122 -219 -58 -61
-162 -122 -230 -135 l-33 -6 0 196 0 196 196 0 196 0 -7 -32z m-324 -2384
c144 -42 259 -153 309 -299 11 -32 20 -62 20 -67 0 -4 -88 -8 -195 -8 l-195 0
0 195 c0 107 1 195 3 195 2 0 28 -7 58 -16z"/>
<path d="M1454 3914 c-62 -30 -69 -58 -69 -264 0 -165 2 -188 19 -213 41 -60
-24 -57 1156 -57 1173 0 1116 -3 1154 54 24 38 24 395 -1 437 -37 62 23 59
-1155 59 -935 0 -1077 -2 -1104 -16z m2126 -259 l0 -125 -1020 0 -1020 0 0
125 0 125 1020 0 1020 0 0 -125z"/>
<path d="M884 3120 c-48 -19 -52 -105 -5 -129 13 -7 174 -11 479 -11 l459 0
21 23 c31 33 29 80 -4 106 -26 21 -36 21 -478 20 -248 0 -460 -4 -472 -9z"/>
<path d="M2254 3120 c-48 -19 -52 -105 -5 -129 13 -8 327 -11 996 -11 669 0
983 3 996 11 48 25 44 105 -7 128 -30 13 -1946 15 -1980 1z"/>
<path d="M884 2720 c-48 -19 -52 -105 -5 -129 13 -8 341 -11 1044 -11 l1024 0
21 23 c31 33 29 80 -4 106 -27 21 -30 21 -1043 20 -559 0 -1025 -4 -1037 -9z"/>
<path d="M3384 2720 c-48 -19 -52 -105 -5 -129 13 -7 160 -11 431 -11 271 0
418 4 431 11 48 25 44 105 -7 128 -30 13 -817 15 -850 1z"/>
<path d="M884 2320 c-48 -19 -52 -105 -5 -129 13 -7 185 -11 514 -11 l494 0
21 23 c31 33 29 80 -4 106 -26 21 -36 21 -513 20 -267 0 -495 -4 -507 -9z"/>
<path d="M1384 1820 c-48 -19 -52 -105 -5 -129 13 -7 166 -11 450 -11 418 0
432 1 451 20 30 30 27 83 -6 109 -26 21 -36 21 -448 20 -231 0 -430 -4 -442
-9z"/>
<path d="M3147 2070 c-94 -24 -174 -90 -216 -179 -37 -80 -37 -194 2 -268 60
-116 160 -178 287 -178 93 0 155 26 222 92 65 64 92 128 92 223 1 62 -4 85
-27 131 -32 66 -100 132 -162 160 -52 23 -146 32 -198 19z m139 -159 c77 -35
117 -117 95 -193 -17 -56 -76 -114 -124 -123 -62 -12 -107 3 -153 49 -69 68
-72 155 -7 227 53 59 117 72 189 40z"/>
</g>
</svg>
