<svg version="1.0" xmlns="http://www.w3.org/2000/svg" viewBox="0 0 512.000000 512.000000"
  preserveAspectRatio="xMidYMid meet" fill="currentColor">
  <g transform="translate(0.000000,512.000000) scale(0.100000,-0.100000)" stroke="none">
    <path d="M436 5104 c-57 -21 -102 -58 -133 -112 l-28 -47 -3 -1468 c-1 -994 1
-1481 8 -1508 15 -56 68 -119 125 -148 44 -23 63 -26 177 -29 l128 -4 0 -790
c0 -571 3 -801 12 -829 15 -51 69 -114 122 -142 l41 -22 1875 -3 c2106 -3
1934 -9 2015 73 81 80 75 -42 75 1594 -1 1190 -3 1463 -14 1494 -20 55 -61
103 -114 134 -44 26 -56 28 -179 31 l-133 4 0 796 c0 780 -1 798 -21 842 -25
55 -62 95 -114 123 l-40 22 -1880 2 c-1613 1 -1886 0 -1919 -13z m1024 -421
c91 -157 167 -290 168 -295 2 -4 -269 -8 -602 -8 l-606 0 0 258 c1 274 3 292
51 318 19 10 111 13 424 13 l400 1 165 -287z m2750 272 c16 -8 34 -24 40 -34
6 -12 10 -121 10 -280 l0 -261 -711 0 c-481 0 -717 -3 -730 -11 -48 -25 -44
-105 7 -128 18 -8 227 -11 729 -11 l705 0 0 -450 0 -450 -1687 -2 -1688 -3
-41 -22 c-22 -12 -55 -38 -72 -58 -64 -72 -62 -49 -62 -706 l0 -599 -105 0
c-59 0 -115 5 -130 12 -58 26 -55 -29 -55 1173 l0 1105 1050 0 c758 0 1056 3
1074 11 47 22 56 99 14 126 -7 4 -179 10 -383 13 l-370 5 -133 230 c-74 127
-149 258 -169 293 l-35 62 1357 0 c1190 0 1360 -2 1385 -15z m-2323 -2045 c84
-146 160 -277 169 -292 l15 -28 -606 0 -605 0 0 263 c0 282 2 296 54 317 11 5
201 8 420 7 l399 -2 154 -265z m2762 256 c48 -25 51 -47 51 -321 l0 -255 -719
0 -720 0 -20 -26 c-28 -35 -26 -69 4 -99 l24 -25 716 0 715 0 0 -1111 0 -1111
-34 -34 -34 -34 -1846 0 c-1993 0 -1888 -3 -1916 49 -7 13 -10 388 -10 1130
l0 1111 1054 0 c1050 0 1053 0 1080 21 33 26 35 73 4 106 l-21 23 -367 0 -366
0 -167 290 c-92 159 -167 292 -167 295 0 3 610 5 1355 5 1154 0 1360 -2 1384
-14z" />
    <path d="M3002 4727 c-31 -33 -29 -80 4 -106 43 -34 86 -26 110 20 39 76 -56
148 -114 86z" />
    <path d="M3385 4725 c-14 -13 -25 -36 -25 -50 0 -14 11 -37 25 -50 13 -14 36
-25 50 -25 14 0 37 11 50 25 14 13 25 36 25 50 0 14 -11 37 -25 50 -13 14 -36
25 -50 25 -14 0 -37 -11 -50 -25z" />
    <path d="M3826 4729 c-53 -41 -18 -129 51 -129 32 0 73 42 73 75 0 33 -41 75
-73 75 -13 0 -36 -9 -51 -21z" />
    <path d="M757 3998 c-24 -19 -36 -59 -25 -87 16 -45 34 -50 176 -51 128 0 134
1 157 25 14 13 25 36 25 50 0 14 -11 37 -25 50 -23 24 -29 25 -158 25 -91 0
-138 -4 -150 -12z" />
    <path d="M1385 3985 c-14 -13 -25 -36 -25 -50 0 -14 11 -37 25 -50 l24 -25
534 0 c525 0 535 0 561 21 34 27 36 77 3 107 l-23 22 -538 0 -537 0 -24 -25z" />
    <path d="M1332 3647 c-31 -33 -29 -80 4 -106 27 -21 32 -21 841 -21 l814 0 24
25 c14 13 25 36 25 50 0 14 -11 37 -25 50 l-24 25 -819 0 -819 0 -21 -23z" />
    <path d="M3323 3655 c-11 -8 -24 -26 -27 -40 -7 -29 15 -79 39 -89 9 -3 142
-6 296 -6 l280 0 24 25 c14 13 25 36 25 50 0 14 -11 37 -25 50 l-24 25 -283 0
c-234 0 -287 -3 -305 -15z" />
    <path d="M3443 2945 c-56 -40 -24 -135 46 -135 35 0 71 39 71 76 0 62 -65 95
-117 59z" />
    <path d="M3822 2937 c-31 -33 -29 -80 4 -106 43 -34 86 -26 110 20 39 76 -56
148 -114 86z" />
    <path d="M4267 2948 c-38 -30 -38 -95 1 -124 44 -34 112 4 112 62 0 60 -67 97
-113 62z" />
    <path d="M2912 2122 c-59 -21 -113 -68 -136 -117 -36 -75 -448 -1304 -453
-1351 -16 -143 95 -264 242 -264 77 0 129 24 181 82 37 43 54 89 264 709 192
566 225 672 224 719 -3 164 -167 277 -322 222z m145 -163 c12 -12 25 -33 28
-48 4 -19 -57 -212 -215 -676 -239 -704 -235 -695 -306 -695 -43 0 -94 45 -94
83 0 19 251 776 422 1270 32 93 104 122 165 66z" />
    <path d="M1829 2106 c-58 -21 -79 -40 -390 -353 -343 -345 -344 -347 -344
-488 0 -152 4 -158 358 -511 183 -183 318 -310 342 -322 101 -50 205 -33 284
46 52 52 71 101 71 178 -1 90 -24 122 -275 374 l-235 235 236 235 c149 149
243 250 255 275 25 53 25 147 0 201 -51 113 -187 171 -302 130z m142 -165 c22
-22 29 -39 29 -67 0 -36 -12 -50 -270 -309 -227 -228 -270 -276 -270 -300 0
-24 43 -71 270 -300 256 -258 270 -274 270 -309 0 -21 -5 -46 -10 -57 -15 -28
-67 -51 -99 -44 -33 7 -625 597 -641 638 -15 41 -12 102 5 145 17 39 543 577
600 613 44 28 81 24 116 -10z" />
    <path d="M3566 2106 c-56 -21 -108 -67 -135 -121 -31 -59 -34 -151 -6 -210 12
-25 107 -129 254 -278 l235 -237 -241 -243 c-231 -232 -242 -244 -258 -300
-27 -92 -3 -178 67 -243 69 -66 145 -85 235 -59 56 16 67 26 375 332 366 365
372 374 372 518 1 141 -7 152 -362 506 -169 169 -323 315 -342 324 -46 24
-145 29 -194 11z m417 -433 c296 -295 336 -343 337 -403 0 -80 -11 -94 -313
-398 -161 -161 -305 -300 -320 -308 -71 -38 -163 47 -127 118 7 12 129 141
273 285 229 230 260 265 260 293 0 27 -31 62 -261 293 -143 144 -266 275 -272
291 -23 62 24 125 95 126 25 0 69 -40 328 -297z" />
  </g>
</svg>