<svg version="1.0" xmlns="http://www.w3.org/2000/svg" viewBox="0 0 512.000000 512.000000"
  preserveAspectRatio="xMidYMid meet" fill="currentColor">
  <g transform="translate(0.000000,512.000000) scale(0.100000,-0.100000)" stroke="none">
    <path d="M468 4486 c-74 -26 -123 -75 -147 -145 -8 -25 -11 -429 -11 -1492 l0
-1459 -134 0 c-188 0 -176 22 -176 -313 0 -166 4 -273 11 -298 16 -50 61 -105
112 -132 l42 -22 1746 -3 1746 -2 27 21 c33 26 36 79 6 109 -20 20 -33 20
-1755 20 l-1736 0 -24 25 c-25 24 -25 24 -25 235 l0 210 780 0 780 0 0 -67 c0
-44 7 -82 19 -109 24 -53 91 -109 146 -123 61 -15 1309 -15 1370 0 55 14 122
70 146 123 12 27 19 65 19 109 l0 67 780 0 780 0 0 -210 c0 -211 0 -211 -25
-235 l-24 -25 -491 0 -491 0 -24 -25 c-32 -31 -32 -69 0 -101 l25 -25 507 3
c503 3 508 3 550 25 51 27 96 82 112 132 7 25 11 132 11 298 0 335 12 313
-176 313 l-134 0 0 1456 c0 1063 -3 1467 -11 1495 -16 50 -61 105 -112 132
l-42 22 -885 3 c-630 2 -893 -1 -912 -9 -52 -21 -58 -102 -9 -128 13 -7 144
-11 375 -11 l356 0 0 -545 0 -545 -1010 0 -1010 0 0 545 0 545 511 0 c340 0
517 4 530 11 48 25 44 105 -7 128 -39 18 -2066 15 -2116 -3z m932 -216 l0 -79
-371 -3 -371 -3 -19 -24 c-18 -23 -19 -58 -19 -1282 0 -901 3 -1265 11 -1282
6 -14 22 -30 36 -36 34 -16 3752 -16 3786 0 14 6 30 22 36 36 16 34 15 952 0
987 -23 51 -103 55 -128 7 -7 -13 -11 -167 -11 -455 l0 -436 -1790 0 -1790 0
0 1170 0 1170 315 0 315 0 0 -445 c0 -432 1 -446 20 -465 19 -19 33 -20 230
-20 l210 0 0 -240 0 -241 -77 3 -78 3 -3 55 c-2 39 -9 61 -24 78 -21 22 -22
22 -360 22 l-339 0 -24 -25 c-25 -24 -25 -26 -25 -205 0 -179 0 -181 25 -205
l24 -25 337 0 c333 0 338 0 361 22 18 17 23 32 23 74 l0 52 135 4 c113 2 137
6 152 21 16 16 18 47 23 310 l5 292 233 3 232 2 0 -395 0 -395 -133 0 c-182 0
-172 13 -172 -226 0 -178 1 -184 23 -206 l23 -23 339 0 339 0 23 23 c22 22 23
28 23 206 0 239 10 226 -172 226 l-133 0 0 395 0 395 233 -2 232 -3 5 -292 c5
-263 7 -294 23 -310 15 -15 39 -19 152 -21 l135 -4 0 -51 c0 -38 5 -56 22 -74
l21 -23 339 0 339 0 24 25 c25 24 25 26 25 205 0 179 0 181 -25 205 l-24 25
-339 0 c-338 0 -339 0 -360 -22 -15 -17 -22 -39 -24 -78 l-3 -55 -77 -3 -78
-3 0 241 0 240 210 0 c197 0 211 1 230 20 19 19 20 33 20 465 l0 445 315 0
315 0 0 -591 c0 -397 3 -597 11 -610 25 -48 105 -44 128 7 8 18 11 209 11 658
0 609 -1 635 -19 657 l-19 24 -371 3 -371 3 0 79 0 80 445 0 446 0 24 -25 25
-24 0 -1456 0 -1455 -2100 0 -2100 0 0 1455 0 1456 25 24 24 25 446 0 445 0 0
-80z m150 -1710 l0 -80 -235 0 -235 0 0 80 0 80 235 0 235 0 0 -80z m2490 0
l0 -80 -235 0 -235 0 0 80 0 80 235 0 235 0 0 -80z m-1242 -467 l-3 -78 -235
0 -235 0 -3 78 -3 77 241 0 241 0 -3 -77z m462 -908 c0 -46 -4 -60 -25 -80
l-24 -25 -651 0 -651 0 -24 25 c-21 20 -25 34 -25 80 l0 55 700 0 700 0 0 -55z" />
    <path d="M2642 4193 c-26 -23 -292 -686 -292 -729 0 -17 8 -38 18 -47 24 -22
74 -22 100 1 23 19 292 683 292 721 0 29 -43 71 -73 71 -14 0 -34 -8 -45 -17z" />
    <path d="M2084 4169 c-29 -14 -217 -327 -217 -360 0 -34 180 -346 215 -372 24
-18 30 -18 58 -7 34 14 50 37 50 71 0 12 -36 84 -80 160 -44 76 -80 141 -80
144 0 4 36 67 80 140 44 73 80 144 80 158 0 51 -60 88 -106 66z" />
    <path d="M2973 4170 c-25 -10 -43 -39 -43 -70 0 -12 36 -82 80 -155 44 -73 80
-136 80 -140 0 -3 -36 -68 -80 -144 -46 -79 -80 -149 -80 -164 0 -55 68 -86
116 -53 30 21 207 334 207 365 0 37 -189 346 -220 360 -28 13 -31 13 -60 1z" />
  </g>
</svg>