<svg id="i-useweb-new-logo-white" data-name="Groupe 19840" xmlns="http://www.w3.org/2000/svg"
  viewBox="0 0 272.681 192.384" fill="currentColor">
  <g data-name="Groupe 19821" clip-path="url(#a)">
    <path data-name="Tracé 11501"
      d="M20.807 1.805v45.514q0 10.828 5.234 17.019t15.441 6.188q10.208 0 15.376-6.188t5.17-17.019V1.805h20.806v46.672q0 18.827-10.861 30.17-10.992 11.347-30.49 11.347T10.992 78.647Q0 67.306 0 48.477V1.805z">
    </path>
    <path data-name="Tracé 11502"
      d="M103.08 7.221Q111.717 0 125.98 0a76.788 76.788 0 0128.528 5.286v18.179q-14.658-5.927-27.481-5.93-12.434 0-12.432 7.221a5.891 5.891 0 002.814 5.286 38.948 38.948 0 009.488 3.738l7.328 2.063q25.126 6.963 25.125 25.786 0 13.284-9.488 20.823t-25.844 7.541a75.384 75.384 0 01-28-5.286V66.27q14.65 5.93 27.869 5.93 7.327 0 11.188-2.319a7.29 7.29 0 003.86-6.577 5.983 5.983 0 00-2.618-5.351q-2.618-1.741-9.553-3.675l-7.851-2.063q-24.6-6.831-24.6-25.656 0-12.119 8.768-19.34">
    </path>
    <path data-name="Tracé 11503"
      d="M95.463 192.384h62.838v-18.176H95.463zm0-70.465h62.838v-17.781H95.463zm61 15.937h-61v18.176h61z"></path>
    <path data-name="Tracé 11504"
      d="M171.343 104.138h24.817q14.725 0 23.173 6.388a20.574 20.574 0 018.445 17.319 19.989 19.989 0 01-8.647 16.991q14.051 6.984 14.053 21.6a23.587 23.587 0 01-8.378 18.7q-8.378 7.244-22.971 7.244h-30.492zm20.674 17.913v17.122h3.333q5.538 0 8.445-2.3a7.561 7.561 0 002.905-6.255 7.637 7.637 0 00-2.837-6.258q-2.839-2.3-8.513-2.3zm0 34.377v17.913h9.008q5.133 0 8.039-2.437a8.694 8.694 0 000-12.974q-2.906-2.5-8.039-2.5z">
    </path>
    <path data-name="Tracé 11505" d="M272.682 174.224a13.086 13.086 0 11-13.086-13.089 13.086 13.086 0 0113.086 13.086">
    </path>
    <path data-name="Tracé 11506"
      d="M189.784 19.017v16.031h41.682v18.289h-41.682v18.29h43.5v18.3h-61.94V1.117h61.939v17.9z"></path>
    <path data-name="Tracé 11507"
      d="M82.4 104.246v47.417q0 17.2-8.742 28.249a40.057 40.057 0 01-2.064 2.408 35.6 35.6 0 01-17.632 10.064L42 159.053a.707.707 0 00-1.33 0L28.445 192.36a35.611 35.611 0 01-17.507-10.041 31.114 31.114 0 01-2.212-2.585Q0 168.734 0 151.663v-47.417h20.783v46.237a34.976 34.976 0 000 4.344l11.609-24.176a9.892 9.892 0 0117.877.033l11.493 24.159c-.023-.315-.062-50.6-.062-50.6z">
    </path>
  </g>
</svg>