<svg viewBox="0 0 512 512" fill="none" xmlns="http://www.w3.org/2000/svg" fill="currentColor">
    <path
        d="M48.5295 22.8418C28.4414 27.3058 12.5547 39.1223 4.67702 55.9281C1.13206 63.6745 0.475583 66.5629 0.0816982 77.9856C-0.70607 97.4172 4.15184 110.415 16.8874 122.888C40.2579 145.865 85.0294 146.39 109.844 123.939C139.517 97.1546 132.689 46.7374 96.9772 28.7501C88.1805 24.286 72.9503 20.8724 63.1032 21.0037C59.6895 21.0037 53.1248 21.9227 48.5295 22.8418ZM80.1715 45.8184C88.3118 48.1817 96.9772 55.1403 101.441 62.8867C105.118 69.4514 105.511 71.1583 105.511 81.268C105.511 91.1151 105.118 93.2158 101.966 98.4676C97.6337 105.82 91.8567 110.941 83.8478 114.617C74.9197 118.687 52.9935 118.556 43.8029 114.354C29.8856 107.921 22.1392 96.1043 22.2705 81.268C22.2705 66.6942 27.6536 56.7158 38.945 50.1511C49.9737 43.5864 66.123 42.0108 80.1715 45.8184Z" />
    <path
        d="M352.871 159.388C333.045 162.671 312.432 170.811 299.04 180.395C295.495 182.89 292.344 184.991 291.95 184.991C291.556 184.991 291.293 181.052 291.293 176.325C291.293 168.579 290.9 167.397 287.486 163.852L283.678 160.045H226.303C167.745 160.045 165.513 160.176 161.706 165.165C160.393 166.741 160.13 203.241 159.999 325.87V484.474L163.281 487.625L166.432 490.908H225.384C281.578 490.908 284.597 490.776 287.486 488.413L290.637 485.918L291.293 389.548L291.95 293.309L295.626 286.35C300.353 277.291 308.493 269.151 316.896 265.081C326.218 260.617 343.943 260.485 353.921 264.949C361.93 268.494 369.283 275.978 372.959 284.381C378.998 297.904 379.261 302.631 379.261 394.8C379.261 484.343 379.261 485.262 384.381 489.201C385.957 490.382 401.318 490.776 445.959 490.908H505.435L508.718 487.625L512 484.343L511.475 381.014C511.081 279.129 511.081 277.291 508.061 264.424C494.538 204.816 457.907 168.316 402.369 159.388C388.058 157.025 366.657 157.025 352.871 159.388ZM409.196 183.547C429.284 188.798 443.333 196.807 456.987 210.856C470.773 225.167 479.964 243.023 486.004 267.575C488.629 278.341 488.761 282.805 489.155 373.661L489.68 468.587H445.696H401.712L401.187 382.852C400.793 305.519 400.531 296.46 398.43 289.37C389.108 257.728 369.676 241.185 339.873 239.216C311.644 237.377 288.405 251.295 275.407 277.554L269.63 289.108L269.236 378.913L268.842 468.587H225.646H182.319V325.476V182.365H225.646H268.973V202.19C268.973 222.016 269.761 225.823 274.094 229.237C276.72 231.207 282.759 231.338 286.304 229.5C287.749 228.712 289.849 225.955 290.9 223.329C299.302 203.109 326.349 186.041 357.597 181.052C370.464 179.083 396.723 180.395 409.196 183.547Z" />
    <path
        d="M9.00966 161.752C2.18233 165.165 2.44492 158.601 2.8388 327.183L3.10139 484.605L6.77764 487.757L10.4539 490.908H62.8405H115.227L118.903 487.757L122.58 484.605L122.974 328.233C123.236 157.681 123.63 164.246 116.015 161.358C110.632 159.257 13.0798 159.651 9.00966 161.752ZM100.653 325.739L100.916 468.587H62.8405H24.765V326.395C24.765 248.144 25.1589 183.678 25.6841 183.284C26.2093 182.759 43.1463 182.496 63.3657 182.628L100.26 183.021L100.653 325.739Z" />
</svg>