<svg fill="currentColor"
    viewBox="0 0 512 224"
    xmlns="http://www.w3.org/2000/svg">
    <!-- fill="#413000" -->
    <path d="M306.806 72.7806C295.581 72.7806 287.222 78.2924 287.222 91.5577C287.222 101.552 292.732 108.49 306.202 108.49C317.619 108.49 325.373 101.763 325.373 91.1449C325.373 79.1119 318.434 72.7813 306.806 72.7813V72.7806ZM284.357 166.441C281.701 169.701 279.054 173.164 279.054 177.252C279.054 185.407 289.453 187.861 303.739 187.861C315.573 187.861 331.692 187.033 331.692 176.03C331.692 169.49 323.937 169.086 314.138 168.471L284.356 166.441H284.357ZM344.748 73.3976C348.415 78.0917 352.297 84.6218 352.297 94.007C352.297 116.653 334.546 129.915 308.845 129.915C302.309 129.915 296.392 129.1 292.723 128.082L285.988 138.894L305.98 140.115C341.28 142.364 362.084 143.386 362.084 170.512C362.084 193.982 341.482 207.236 305.98 207.236C269.052 207.236 254.975 197.849 254.975 181.733C254.975 172.548 259.056 167.663 266.197 160.919C259.462 158.073 257.221 152.975 257.221 147.463C257.221 142.972 259.462 138.892 263.14 135.013C266.812 131.14 270.891 127.258 275.788 122.771C265.792 117.875 258.241 107.266 258.241 92.1656C258.241 68.7054 273.749 52.5934 304.959 52.5934C313.734 52.5934 319.041 53.401 323.734 54.6328H363.522V71.9706L344.748 73.3992" />
    <!-- fill="#413000" -->
    <path d="M399.435 36.3216C387.802 36.3216 381.072 29.5827 381.072 17.9489C381.072 6.32967 387.802 0 399.435 0C411.269 0 418.002 6.32967 418.002 17.9489C418.002 29.5825 411.269 36.3216 399.435 36.3216ZM373.111 158.932V142.822L383.52 141.398C386.377 140.984 386.783 140.376 386.783 137.309V77.326C386.783 75.0863 386.173 73.6519 384.127 73.0447L373.111 69.1647L375.354 52.6446H417.591V137.31C417.591 140.581 417.788 140.985 420.857 141.399L431.264 142.823V158.933H373.109" />
    <!-- fill="#413000" -->
    <path d="M511.944 151.024C503.166 155.304 490.316 159.181 478.68 159.181C454.403 159.181 445.224 149.397 445.224 126.332V72.8817C445.224 71.66 445.224 70.8404 443.586 70.8404H429.306V52.683C447.266 50.6372 454.402 41.6583 456.647 19.4199H476.031V48.4013C476.031 49.8243 476.031 50.4407 477.665 50.4407H506.431V70.84H476.032V119.6C476.032 131.639 478.892 136.328 489.903 136.328C495.623 136.328 501.533 134.904 506.43 133.066L511.944 151.026" />
    <!-- fill="#F05133" -->
    <path d="M209.638 97.4823L116.344 4.19904C110.976 -1.17377 102.262 -1.17377 96.8878 4.19904L77.5162 23.5725L102.088 48.1448C107.801 46.216 114.348 47.5092 118.9 52.0615C123.475 56.6421 124.759 63.2456 122.782 68.9772L146.465 92.6604C152.195 90.686 158.805 91.9616 163.381 96.5449C169.777 102.939 169.777 113.301 163.381 119.697C156.983 126.096 146.622 126.096 140.221 119.697C135.411 114.884 134.221 107.817 136.657 101.891L114.57 79.8042L114.568 137.927C116.128 138.698 117.599 139.729 118.899 141.023C125.293 147.417 125.293 157.776 118.899 164.181C112.502 170.574 102.136 170.574 95.7464 164.181C89.3509 157.777 89.3509 147.417 95.7464 141.023C97.3269 139.445 99.1558 138.251 101.107 137.45V78.7879C99.1548 77.9908 97.3281 76.8055 95.7453 75.2151C90.901 70.3746 89.7342 63.2647 92.2186 57.3159L67.9952 33.0888L4.03087 97.0513C-1.34362 102.428 -1.34362 111.142 4.03087 116.515L97.3199 209.798C102.691 215.171 111.401 215.171 116.78 209.798L209.637 116.956C215.01 111.58 215.01 102.864 209.637 97.4901" />
</svg>
