<svg viewBox="0 0 512 161"
    fill="currentColor"
    xmlns="http://www.w3.org/2000/svg">
    <!-- fill="black" -->
    <path opacity="0.54"
        d="M241.515 23.559H273.646C284.551 23.559 294.068 25.81 302.208 30.3235C310.337 34.837 316.589 41.1116 320.951 49.1357C325.312 57.1714 327.493 66.3851 327.493 76.8C327.493 87.215 325.312 96.4286 320.951 104.464C316.589 112.5 310.337 118.763 302.208 123.277C294.079 127.79 284.562 130.041 273.646 130.041H241.515V23.559V23.559ZM273.646 118.017C286.242 118.017 296.225 114.401 303.619 107.158C311.002 99.9158 314.699 89.8041 314.699 76.8117C314.699 63.8192 311.002 53.7075 303.619 46.4649C296.237 39.2223 286.242 35.6068 273.646 35.6068H254.017V118.005H273.646V118.017Z" />
    <!-- fill="black" -->
    <path opacity="0.54"
        d="M346.959 129.166C342.597 126.985 339.226 123.988 336.847 120.163C334.468 116.349 333.278 112.01 333.278 107.147C333.278 99.1111 336.299 92.8482 342.352 88.3346C348.393 83.8211 356.032 81.5702 365.258 81.5702C369.818 81.5702 374.052 82.0717 377.97 83.063C381.889 84.0544 384.886 85.1973 386.974 86.4802V81.8734C386.974 76.2169 384.991 71.68 381.026 68.2628C377.061 64.8456 372.046 63.1312 366.004 63.1312C361.736 63.1312 357.829 64.0525 354.248 65.8836C350.679 67.7147 347.857 70.2688 345.769 73.5461L336.252 66.4084C339.226 61.8482 343.32 58.2794 348.522 55.7019C353.723 53.1244 359.508 51.8298 365.853 51.8298C376.163 51.8298 384.268 54.5356 390.17 59.9355C396.071 65.3471 399.022 72.7064 399.022 82.025V130.064H386.974V119.206H386.379C384.198 122.88 380.921 125.994 376.559 128.572C372.197 131.149 367.287 132.444 361.829 132.444C356.289 132.444 351.332 131.347 346.959 129.166ZM374.926 118.017C378.588 115.836 381.516 112.908 383.697 109.246C385.878 105.584 386.974 101.56 386.974 97.1984C384.595 95.6123 381.667 94.3177 378.204 93.3263C374.728 92.335 371.066 91.8335 367.194 91.8335C360.254 91.8335 355.018 93.268 351.507 96.1488C347.985 99.0295 346.224 102.75 346.224 107.298C346.224 111.462 347.81 114.833 350.982 117.41C354.155 119.988 358.167 121.282 363.03 121.282C367.287 121.282 371.264 120.198 374.926 118.017Z" />
    <!-- fill="black" -->
    <path opacity="0.54"
        d="M412.364 55.3987H424.412V67.4464H425.007C426.791 62.9795 429.812 59.5157 434.08 57.0315C438.337 54.5589 443.002 53.311 448.064 53.311C450.245 53.311 452.076 53.4626 453.569 53.7542V66.7C451.878 66.3034 449.604 66.1052 446.723 66.1052C440.273 66.1052 435.048 68.2395 431.036 72.4964C427.024 76.765 425.007 82.3166 425.007 89.151V131.242H412.364V55.3987ZM490.879 130.927C488.254 129.924 486.05 128.56 484.254 126.834C482.271 124.921 480.779 122.693 479.787 120.174C478.796 117.655 478.294 114.576 478.294 110.937V65.662H465.057V54.209H478.294V32.796H490.937V54.209H509.376V65.662H490.937V107.928C490.937 112.185 491.73 115.322 493.316 117.352C495.194 119.579 497.923 120.699 501.492 120.699C504.361 120.699 507.148 119.859 509.819 118.168V130.519C508.326 131.207 506.822 131.709 505.282 132.012C503.743 132.315 501.783 132.455 499.404 132.455C496.36 132.444 493.514 131.93 490.879 130.927Z" />
    <!-- fill="#01579B" -->
    <path d="M27.5377 27.5451C27.5377 27.5451 61.4349 10.6075 78.3802 2.1286C81.4643 0.60832 84.8793 -0.117976 88.3152 0.015592C93.4538 0.330866 99.5651 5.30147 99.5651 5.30147L161 66.7397V132.404H132.402V161H65.6679L5.29287 100.628C2.03262 97.2744 0 92.5452 0 87.9167C0 85.7769 1.2075 82.4296 2.11983 80.5044L27.5377 27.5451ZM32.0927 32.0998V111.167C32.1061 114.809 32.2335 118.035 35.4334 121.282L68.4518 154.292H125.694V125.696L32.0927 32.0998V32.0998ZM112.962 27.5518C106.931 21.5414 100.826 15.6116 94.5808 9.82264C92.5549 8.03161 90.7772 6.68331 87.4029 6.72356C84.9208 6.81747 81.5666 8.03161 81.5666 8.03161L42.5375 27.5451L112.962 27.5518Z" />
</svg>
