<svg viewBox="0 0 793 94" fill="none" xmlns="http://www.w3.org/2000/svg" fill="currentColor">
    <path
        d="M0 93.9996L29.7453 17.8044C33.9371 7.06698 44.2746 0 55.7894 0H73.7224L43.9771 76.195C39.7853 86.9326 29.4477 93.9996 17.933 93.9996H0Z" />
    <path
        d="M43.6376 94L73.3829 17.8047C77.5745 7.06733 87.912 0.000327874 99.4267 0.000327874H117.36L87.6145 76.1954C83.4229 86.933 73.0854 94 61.5706 94H43.6376Z" />
    <path
        d="M87.2779 94L117.023 17.8047C121.215 7.06733 131.552 0.000327874 143.067 0.000327874H161L131.255 76.1954C127.063 86.933 116.726 94 105.211 94H87.2779Z" />
    <path
        d="M231.009 56.4001C231.009 47.546 235.255 42.3303 243.381 42.3303C251.023 42.3303 253.57 47.7885 253.57 54.8231V92.5444H270.795V52.8825C270.795 38.0854 263.032 27.533 247.748 27.533C238.651 27.533 232.222 30.3227 226.643 36.5084C223.004 30.9291 216.818 27.533 208.206 27.533C199.108 27.533 192.801 31.293 189.89 36.7509V28.9885H174V92.5444H191.224V56.0361C191.224 47.546 195.591 42.3303 203.596 42.3303C211.238 42.3303 213.785 47.7885 213.785 54.8231V92.5444H231.009V56.4001Z" />
    <path
        d="M341.492 65.7393C341.492 65.7393 341.735 63.4346 341.735 60.645C341.735 41.8452 328.999 27.533 310.198 27.533C291.397 27.533 278.297 41.8452 278.297 60.645C278.297 80.1727 291.519 94 310.319 94C324.996 94 336.641 85.1455 340.401 72.2891H323.055C320.994 76.898 316.02 79.2026 310.804 79.2026C302.192 79.2026 296.613 74.4723 295.4 65.7393H341.492ZM310.077 41.3601C318.082 41.3601 323.298 46.2115 324.511 53.3679H295.643C297.098 46.0904 302.192 41.3601 310.077 41.3601Z" />
    <path
        d="M344.275 43.7856H351.917V92.5442H369.141V28.9883H344.275V43.7856ZM360.529 20.7406C366.593 20.7406 370.96 16.4954 370.96 10.4309C370.96 4.36645 366.593 0 360.529 0C354.464 0 350.097 4.36645 350.097 10.4309C350.097 16.4954 354.464 20.7406 360.529 20.7406Z" />
    <path
        d="M404.806 77.747C404.321 77.747 403.593 77.8685 402.501 77.8685C398.62 77.8685 398.135 76.0489 398.135 73.3807V1.57698H380.911V74.5934C380.911 87.2076 385.763 92.787 399.469 92.787C401.774 92.787 403.957 92.5444 404.806 92.423V77.747Z" />
    <path
        d="M406.766 43.7856H414.408V92.5442H431.632V28.9883H406.766V43.7856ZM423.02 20.7406C429.084 20.7406 433.451 16.4954 433.451 10.4309C433.451 4.36645 429.084 0 423.02 0C416.955 0 412.588 4.36645 412.588 10.4309C412.588 16.4954 416.955 20.7406 423.02 20.7406Z" />
    <path
        d="M466.211 93.2109C482.949 93.2109 490.833 84.3568 490.833 75.0177C490.833 49.0615 452.625 63.495 452.625 46.3929C452.625 40.8136 457.356 36.0833 466.938 36.0833C476.763 36.0833 481.372 41.4201 482.1 48.091H490.712C489.984 39.722 484.284 28.5634 467.181 28.5634C452.504 28.5634 444.256 37.2963 444.256 46.7569C444.256 72.1065 482.464 57.5516 482.464 75.2602C482.464 81.4457 476.642 85.6909 466.211 85.6909C455.536 85.6909 450.199 80.3541 449.593 72.4705H440.86C441.587 83.2652 448.38 93.2109 466.211 93.2109Z" />
    <path
        d="M559.233 63.3735C559.233 63.3735 559.354 61.4329 559.354 60.0988C559.354 42.6331 548.074 28.5634 529.637 28.5634C511.079 28.5634 499.313 43.7247 499.313 60.8264C499.313 78.1709 510.23 93.2109 529.758 93.2109C544.435 93.2109 554.624 84.2354 558.264 72.4705H549.287C546.619 79.9905 539.341 85.4484 529.88 85.4484C516.901 85.4484 508.774 75.8663 507.925 63.3735H559.233ZM529.637 36.3262C541.767 36.3262 549.651 44.4523 550.742 56.339H508.168C509.624 44.9377 517.629 36.3262 529.637 36.3262Z" />
    <path
        d="M612.819 62.4034V68.2253C612.819 78.7775 605.177 86.0549 590.5 86.0549C581.402 86.0549 576.43 82.2947 576.43 74.1686C576.43 70.0444 578.373 66.8912 581.402 65.1931C584.559 63.495 588.802 62.4034 612.819 62.4034ZM589.53 93.2109C600.205 93.2109 608.817 89.8147 613.181 82.7802V91.7553H621.431V51.3658C621.431 37.6603 613.547 28.5634 595.717 28.5634C578.614 28.5634 571.093 37.1749 569.516 48.2125H577.886C579.583 39.4795 586.256 35.9622 595.351 35.9622C606.995 35.9622 612.819 40.8136 612.819 51.2447V55.2474C593.291 55.2474 585.162 55.611 579.101 58.0371C572.062 60.8264 567.939 67.0122 567.939 74.4111C567.939 85.2059 574.853 93.2109 589.53 93.2109Z" />
    <path
        d="M668.514 29.5338C668.514 29.5338 667.058 29.4125 666.454 29.4125C655.051 29.4125 648.986 35.3557 646.681 39.6009V30.0189H638.435V91.7553H647.047V56.7026C647.047 43.8462 654.931 37.5388 665.481 37.5388C667.058 37.5388 668.514 37.6603 668.514 37.6603V29.5338Z" />
    <path
        d="M669.985 60.9478C669.985 77.807 681.629 93.2109 700.429 93.2109C717.17 93.2109 726.875 82.0522 729.301 69.8019H720.565C718.019 79.384 710.984 85.4484 700.429 85.4484C687.453 85.4484 678.717 75.1387 678.717 60.9478C678.717 46.6355 687.453 36.3262 700.429 36.3262C710.984 36.3262 718.019 42.3906 720.565 51.9723H729.301C726.875 39.722 717.17 28.5634 700.429 28.5634C681.629 28.5634 669.985 43.9672 669.985 60.9478Z" />
    <path
        d="M749.576 0.788262H740.96V91.7555H749.576V55.2476C749.576 42.6333 757.701 36.0835 768.134 36.0835C779.172 36.0835 784.385 42.8759 784.385 54.0346V91.7555H793V52.3365C793 38.6306 784.871 28.5636 769.587 28.5636C758.067 28.5636 751.756 34.8707 749.576 38.6306V0.788262Z" />
</svg>