<svg
  viewBox="0 0 512 134"
  fill="currentColor"
  xmlns="http://www.w3.org/2000/svg"
>
  <path
    fill-rule="evenodd"
    clip-rule="evenodd"
    d="M111.775 20.3381H37.6512V57.5033H74.1237C75.4231 57.5033 76.4772 58.5574 76.4772 59.8568V95.8259H114.129V22.6959C114.129 22.3865 114.069 22.08 113.951 21.794C113.833 21.5079 113.659 21.248 113.441 21.029C113.222 20.81 112.963 20.6362 112.677 20.5177C112.391 20.3992 112.085 20.3381 111.775 20.3381V20.3381Z"
  />
  <path
    opacity="0.405"
    fill-rule="evenodd"
    clip-rule="evenodd"
    d="M37.6472 20.3381V57.5033H2.87419C2.64055 57.5029 2.41231 57.4331 2.21843 57.3027C2.02455 57.1723 1.87379 56.9873 1.78527 56.7711C1.69676 56.5548 1.67448 56.3172 1.72128 56.0883C1.76807 55.8594 1.88183 55.6496 2.0481 55.4854L37.6472 20.3381ZM78.4824 131.012C78.3168 131.175 78.1069 131.285 77.879 131.329C77.6511 131.372 77.4153 131.348 77.2012 131.258C76.9871 131.169 76.8042 131.018 76.6755 130.825C76.5467 130.632 76.4778 130.405 76.4774 130.173V95.8259H114.129L78.4824 131.008V131.012Z"
  />
  <path
    opacity="0.405"
    d="M37.6471 57.5032H75.3028C75.9481 57.5032 76.4773 58.0281 76.4773 58.6778V95.8257H40.0049C39.3807 95.8257 38.7821 95.5778 38.3407 95.1364C37.8994 94.695 37.6514 94.0964 37.6514 93.4722V57.5032H37.6471Z"
  />
  <path
    fill-rule="evenodd"
    clip-rule="evenodd"
    d="M493.805 17.9931C495.908 20.0755 498.391 21.1124 501.256 21.1124C504.212 21.1124 506.742 20.0755 508.846 17.9931C510.95 15.9107 512 13.4583 512 10.6229C512 7.79184 510.95 5.31359 508.846 3.18814C507.868 2.16324 506.69 1.3511 505.384 0.802521C504.078 0.253945 502.673 -0.019267 501.256 -2.65831e-05C498.391 -2.65831e-05 495.908 1.0627 493.805 3.18384C491.701 5.31359 490.651 7.78754 490.651 10.6272C490.651 13.4583 491.701 15.9107 493.805 17.9931V17.9931ZM265.513 45.1506C265.513 45.3658 265.332 45.5465 265.113 45.5465H250.333V73.1687C250.333 75.4705 250.919 77.1528 252.08 78.2155C253.242 79.2782 254.946 79.872 257.183 80.0054C259.231 80.1301 261.727 80.1215 264.674 79.9838L265.091 79.9623C265.145 79.9594 265.199 79.9675 265.249 79.9861C265.3 80.0046 265.346 80.0333 265.385 80.0704C265.424 80.1074 265.455 80.1521 265.476 80.2015C265.498 80.251 265.509 80.3043 265.508 80.3582V95.1201C265.509 95.218 265.473 95.3127 265.408 95.3858C265.343 95.4589 265.253 95.5053 265.156 95.5159L264.885 95.5461C253.311 96.7637 245.123 95.6321 240.33 92.1557C235.451 88.6147 233.016 82.2857 233.016 73.1687V45.5465H221.726C221.621 45.5465 221.52 45.5048 221.446 45.4305C221.372 45.3563 221.33 45.2556 221.33 45.1506V29.4765C221.33 29.2614 221.507 29.0807 221.726 29.0807H233.012V18.1222C233.012 17.8038 233.201 17.5198 233.489 17.3908L249.778 10.3045C249.839 10.2771 249.905 10.2654 249.971 10.2702C250.037 10.2751 250.101 10.2966 250.157 10.3325C250.212 10.3685 250.258 10.4179 250.29 10.4761C250.321 10.5344 250.338 10.5996 250.338 10.6659V29.0807H265.113C265.328 29.0807 265.508 29.2571 265.508 29.4765V45.1506H265.513ZM296.921 40.5039C298.53 36.253 301.194 33.0648 304.907 30.9394C308.57 28.8538 312.713 27.7566 316.928 27.7555C317.147 27.7555 317.328 27.9319 317.328 28.1557V46.1617C317.328 46.2518 317.309 46.3409 317.272 46.4232C317.236 46.5055 317.182 46.5793 317.115 46.6396C317.048 46.7 316.97 46.7457 316.884 46.7739C316.798 46.802 316.708 46.8118 316.618 46.8028C311.623 46.3553 307.135 47.4439 303.16 50.0641C298.999 52.8048 296.921 57.3655 296.921 63.7418V95.0814C296.921 95.1337 296.911 95.1856 296.891 95.2339C296.87 95.2822 296.841 95.326 296.804 95.3628C296.767 95.3996 296.722 95.4287 296.674 95.4483C296.625 95.468 296.573 95.4778 296.521 95.4772H279.991C279.886 95.4772 279.785 95.4355 279.711 95.3613C279.637 95.2871 279.595 95.1864 279.595 95.0814V29.4722C279.595 29.2571 279.771 29.0764 279.991 29.0764H296.521C296.736 29.0764 296.917 29.2528 296.917 29.4722V40.4953L296.921 40.5039ZM378.824 29.0807C378.772 29.0801 378.72 29.09 378.671 29.1096C378.623 29.1292 378.578 29.1583 378.541 29.1951C378.504 29.2319 378.475 29.2758 378.454 29.3241C378.434 29.3724 378.424 29.4242 378.424 29.4765V36.9199C373.235 30.4532 365.938 27.222 356.537 27.222C347.588 27.222 339.908 30.6081 333.51 37.3803C327.108 44.1524 323.907 52.452 323.907 62.279C323.907 72.1059 327.108 80.4055 333.51 87.1777C339.908 93.9498 347.588 97.3359 356.537 97.3359C365.938 97.3359 373.231 94.1047 378.424 87.6423V95.0814C378.424 95.2965 378.605 95.4772 378.824 95.4772H395.35C395.569 95.4772 395.75 95.3008 395.75 95.0814V29.4722C395.75 29.4199 395.74 29.3681 395.72 29.3198C395.699 29.2715 395.67 29.2276 395.633 29.1908C395.595 29.154 395.551 29.1249 395.503 29.1053C395.454 29.0857 395.402 29.0758 395.35 29.0764H378.824V29.0807ZM346.469 75.8233C349.958 79.2782 354.386 81.0035 359.764 81.0035C365.133 81.0035 369.586 79.2524 373.123 75.7545C376.66 72.2608 378.424 67.769 378.424 62.279C378.424 56.789 376.66 52.2971 373.123 48.7992C369.586 45.3055 365.133 43.5544 359.759 43.5544C354.39 43.5544 349.958 45.3055 346.465 48.8035C342.98 52.2971 341.229 56.789 341.229 62.279C341.229 67.769 342.975 72.2823 346.469 75.8233V75.8233ZM472.748 37.3803C466.346 30.6081 458.623 27.222 449.583 27.222C440.182 27.222 432.932 30.4532 427.83 36.9156V29.4765C427.83 29.3716 427.788 29.2709 427.714 29.1967C427.64 29.1224 427.539 29.0807 427.434 29.0807H410.904C410.799 29.0807 410.698 29.1224 410.624 29.1967C410.549 29.2709 410.508 29.3716 410.508 29.4765V121.637C410.508 121.856 410.684 122.037 410.904 122.037H427.434C427.649 122.037 427.83 121.856 427.83 121.637V87.6423C432.932 94.1047 440.182 97.3359 449.583 97.3359C458.623 97.3359 466.346 93.9498 472.748 87.1777C479.146 80.4055 482.347 72.1059 482.347 62.279C482.347 52.452 479.146 44.1524 472.748 37.3803V37.3803ZM433.066 75.8233C436.559 79.2782 440.987 81.0035 446.361 81.0035C451.73 81.0035 456.183 79.2524 459.72 75.7545C463.257 72.2608 465.025 67.769 465.025 62.279C465.025 56.789 463.257 52.2971 459.72 48.7992C456.183 45.3055 451.73 43.5544 446.361 43.5544C440.987 43.5544 436.559 45.3055 433.066 48.8035C429.576 52.2971 427.83 56.789 427.83 62.279C427.83 67.769 429.576 72.2823 433.066 75.8233V75.8233ZM493.06 95.4772C492.955 95.4772 492.855 95.4355 492.78 95.3613C492.706 95.2871 492.664 95.1864 492.664 95.0814V29.4722C492.664 29.2571 492.841 29.0764 493.06 29.0764H509.59C509.81 29.0764 509.986 29.2528 509.986 29.4722V95.0857C509.986 95.1907 509.945 95.2914 509.87 95.3656C509.796 95.4398 509.695 95.4815 509.59 95.4815H493.06V95.4772ZM184.204 52.2541C181.829 51.1483 180.646 49.707 180.646 47.9387C180.646 46.2564 181.381 44.9269 182.861 43.9545C184.337 42.9822 186.196 42.4917 188.433 42.4917C192.723 42.4917 195.962 44.1481 198.157 47.4568C198.23 47.5691 198.34 47.6522 198.468 47.6915C198.597 47.7308 198.735 47.7239 198.858 47.6719L213.478 41.2741C213.529 41.2514 213.574 41.2184 213.611 41.1771C213.648 41.1359 213.676 41.0873 213.693 41.0346C213.71 40.9818 213.716 40.9261 213.71 40.871C213.704 40.8159 213.687 40.7627 213.659 40.7147C213.49 40.4342 213.318 40.156 213.142 39.88C210.643 35.9863 207.403 33.0821 203.337 30.8749C198.862 28.4396 193.893 27.222 188.433 27.222C181.179 27.222 175.117 29.1022 170.233 32.8669C165.359 36.6273 162.919 41.7861 162.919 48.3345C162.919 52.6757 164.107 56.2813 166.477 59.1596C168.768 61.9776 171.753 64.1513 175.138 65.4671C178.537 66.7923 181.941 67.9024 185.344 68.7844C188.743 69.6707 191.634 70.6689 194.005 71.7746C196.376 72.8804 197.563 74.3174 197.563 76.0901C197.563 79.8978 194.474 81.7995 188.3 81.7995C182.418 81.7995 178.344 79.6482 176.076 75.3543C175.985 75.1733 175.829 75.0339 175.638 74.9643C175.448 74.8948 175.239 74.9004 175.052 74.98L160.475 81.3693C160.427 81.3906 160.383 81.4215 160.346 81.4601C160.31 81.4987 160.282 81.5443 160.263 81.5941C160.245 81.6438 160.237 81.6968 160.239 81.7498C160.241 81.8029 160.254 81.8549 160.277 81.9028L160.441 82.2341C165.535 92.302 174.82 97.3359 188.3 97.3359C195.997 97.3359 202.421 95.4987 207.566 91.8287C212.717 88.15 215.289 82.9053 215.289 76.0901C215.289 71.5724 214.102 67.812 211.731 64.8002C209.496 61.8939 206.498 59.6656 203.07 58.3637C199.734 57.1003 196.327 56.0358 192.865 55.1755C189.461 54.3322 186.574 53.3598 184.204 52.2498V52.2541Z"
  />
</svg>
