<svg fill="currentColor"
    viewBox="0 0 512 112"
    xmlns="http://www.w3.org/2000/svg">
    <!-- fill="black" -->
    <path d="M9.84884 0.279483C6.25157 1.11768 2.6543 4.15615 0.942974 7.8582L0 9.84892V55.9499V102.051L0.942974 104.042C2.2352 106.836 4.67995 109.35 7.47394 110.712L9.77899 111.83H90.8049H171.831L174.101 110.712C177.07 109.245 179.2 107.115 180.527 104.321L181.61 102.051V55.9499V9.84892L180.632 7.7185C179.375 5.02928 176.685 2.34006 173.926 1.04783L171.831 0.0699329L91.5034 8.29995e-05C45.5771 8.29995e-05 10.6172 0.104858 9.84884 0.279483ZM170.434 9.1155C171.097 9.3949 171.971 10.1632 172.355 10.7919C173.053 11.9444 173.053 12.4334 173.053 55.88C173.053 104.391 173.193 101.143 170.853 102.575C169.77 103.273 168.478 103.273 90.8748 103.273C3.73697 103.273 10.687 103.448 9.25512 101.073C8.59154 99.9903 8.55662 98.9774 8.55662 56.0197C8.55662 7.50895 8.41692 10.757 10.7569 9.32505C11.8396 8.62655 13.1318 8.62655 90.5604 8.62655C158.245 8.62655 169.386 8.6964 170.434 9.1155Z" />
    <!-- fill="black" -->
    <path d="M26.0191 55.9499V85.8108H34.7503H43.4816V68.8722C43.4816 59.5472 43.5864 51.9336 43.761 51.9685C43.9007 51.9685 47.7774 56.7532 52.3875 62.5857C56.9975 68.4182 60.8742 73.2029 61.0139 73.2029C61.1187 73.2378 65.0303 68.488 69.6753 62.6555C74.3203 56.858 78.2319 52.0733 78.3367 52.0034C78.4764 51.9685 78.5812 59.5123 78.5812 68.7674V85.6362H87.3124H96.0437V55.9499V26.2637L87.3124 26.1939L78.5812 26.0891L69.9198 36.9508C65.1351 42.9229 61.1187 47.7426 60.9441 47.6727C60.7694 47.6029 56.788 42.7483 52.0731 36.8111L43.4816 26.0891H34.7503H26.0191V55.9499Z" />
    <!-- fill="black" -->
    <path d="M125.835 40.967L125.73 55.845L117.278 55.9149C111.83 55.9149 108.826 56.0895 108.826 56.2991C108.896 56.5785 131.807 83.6104 133.972 85.9504C134.566 86.6139 134.601 86.579 135.579 85.4614C136.103 84.7978 141.935 77.9875 148.536 70.304C155.102 62.6205 160.48 56.2292 160.48 56.1244C160.48 56.0197 156.638 55.9847 151.924 56.0546L143.367 56.1943V41.1416V26.089H134.636H125.904L125.835 40.967Z" />
    <!-- fill="black" -->
    <path d="M401.231 44.0891C393.932 45.4162 389.427 49.258 387.785 55.6493C385.655 63.8217 390.23 71.9592 398.332 74.4389C402.733 75.801 409.997 75.312 413.804 73.3911C417.436 71.5401 420.37 67.8381 421.488 63.682C421.767 62.6342 421.872 60.7832 421.767 58.583C421.627 55.6842 421.418 54.7761 420.545 52.8902C417.89 47.1974 413.036 44.3336 405.597 44.0542C403.676 43.9843 401.72 43.9843 401.231 44.0891ZM408.146 52.4362C411.01 53.6585 412.407 55.9636 412.407 59.491C412.372 64.6599 409.648 67.2793 404.374 67.2793C399.52 67.2443 396.307 63.5772 396.796 58.6179C397.215 54.4618 400.183 51.9123 404.619 51.9123C405.841 51.9123 407.413 52.1568 408.146 52.4362Z" />
    <!-- fill="black" -->
    <path d="M201.286 44.6479C201.181 44.8924 201.146 51.7726 201.181 59.945L201.286 74.7881H205.651H210.017L210.192 66.1267L210.366 57.5003L214.313 62.3898C216.688 65.3584 218.504 67.2793 218.853 67.2443C219.377 67.2443 224.476 61.3769 226.432 58.5131C226.816 57.9543 227.235 57.5003 227.41 57.5003C227.549 57.5003 227.654 61.4468 227.654 66.2315V74.9977L232.125 74.8929L236.56 74.7881L236.665 59.491L236.735 44.2288H232.718C227.968 44.2288 228.981 43.5652 223.149 50.6201C220.948 53.2744 219.028 55.3699 218.853 55.3349C218.643 55.2651 216.513 52.7854 214.068 49.8168L209.633 44.4034L205.547 44.2986C202.473 44.2288 201.39 44.3336 201.286 44.6479Z" />
    <!-- fill="black" -->
    <path d="M253.324 45.2765C252.625 46.6386 240.227 74.5785 240.227 74.7881C240.227 74.8929 242.357 74.9627 244.942 74.9627H249.657L250.041 73.9848C250.216 73.4609 250.809 72.0639 251.333 70.8416L252.276 68.6762L258.877 68.7461L265.513 68.8508L266.56 71.4702C267.154 72.9021 267.783 74.2991 267.923 74.5436C268.237 75.0326 277.247 75.1723 277.247 74.6833C277.247 74.5087 276.235 72.1338 275.012 69.3398C267.434 52.2615 264.325 45.2066 264.325 44.9272C264.325 44.3684 263.138 44.2287 258.528 44.2287H253.883L253.324 45.2765ZM261.077 57.9193C262.23 60.7482 263.103 63.1581 262.998 63.2628C262.719 63.5422 254.546 63.4724 254.546 63.193C254.546 62.9485 258.353 53.3092 258.632 52.8552C258.877 52.4361 258.807 52.2964 261.077 57.9193Z" />
    <!-- fill="black" -->
    <path d="M282.312 44.6479C282.207 44.8924 282.172 51.7726 282.207 59.9451L282.312 74.7882H286.782H291.287L291.253 68.9208L291.183 63.0883H292.894C296.037 63.0883 297.295 64.5901 300.997 72.8673L301.87 74.7882L306.864 74.893C309.623 74.9279 311.823 74.858 311.753 74.7183C311.684 74.5786 311.299 73.7404 310.88 72.8673C307.737 65.9871 306.55 63.8217 305.257 62.6692L303.86 61.4119L305.188 60.5039C305.956 60.0149 307.004 58.8624 307.528 57.9543C309.553 54.4618 308.505 49.293 305.188 46.6736C302.533 44.5781 301.765 44.4384 291.637 44.2987C284.268 44.1939 282.451 44.2638 282.312 44.6479ZM296.282 50.5503C298.168 51.0392 298.901 51.8076 299.146 53.6236C299.53 56.3478 297.574 57.64 293.383 57.4305L291.392 57.3257L291.287 54.2174C291.218 52.5061 291.253 50.8995 291.357 50.6201C291.602 50.0613 294.151 50.0264 296.282 50.5503Z" />
    <!-- fill="black" -->
    <path d="M317.062 59.5958V74.9628H321.602H326.142V67.9778C326.142 64.136 326.247 60.9928 326.422 61.0277C326.562 61.0277 328.622 63.4725 331.032 66.476C333.442 69.4446 335.991 72.5879 336.725 73.4261L338.087 74.9628H343.465C346.434 74.9628 348.844 74.8231 348.844 74.6834C348.844 74.404 343.849 68.1524 338.157 61.3071L335.956 58.6877L341.509 51.7027C344.583 47.8959 347.097 44.6479 347.097 44.4733C347.097 44.3336 344.897 44.2288 342.243 44.2288H337.353L332.01 50.8645C329.076 54.4967 326.562 57.4654 326.422 57.5003C326.247 57.5003 326.142 54.4967 326.142 50.8645V44.2288H321.602H317.062V59.5958Z" />
    <!-- fill="black" -->
    <path d="M352.511 44.6479C352.406 44.8924 352.371 51.7726 352.406 59.9451L352.511 74.7882L360.718 74.8929C370.637 74.9977 373.64 74.6834 376.504 73.1467C378.844 71.9243 381.289 69.3399 382.407 66.9301C384.258 63.0883 384.118 56.9415 382.092 52.8553C379.857 48.3151 375.841 45.5909 370.078 44.7178C365.782 44.0891 352.755 44.0193 352.511 44.6479ZM368.681 51.0392C372.104 52.052 373.885 54.4618 374.234 58.4782C374.793 65.3934 372.139 68.1874 364.735 68.3969L361.591 68.5017L361.487 59.491L361.417 50.5153H364.141C365.643 50.5153 367.668 50.7598 368.681 51.0392Z" />
    <!-- fill="black" -->
    <path d="M421.837 44.7177C421.837 44.9971 422.989 47.9308 424.386 51.2487C425.818 54.6015 428.647 61.3769 430.743 66.3363L434.515 75.3469L437.274 75.2421L440.033 75.1374L443.944 66.476C446.075 61.7262 447.926 57.8495 448.031 57.8495C448.17 57.8495 449.986 61.7262 452.082 66.476L455.924 75.1374H458.683H461.407L468.008 59.8053C471.605 51.3884 474.574 44.4383 474.574 44.3685C474.574 44.2637 472.443 44.2637 469.789 44.2986L465.039 44.4034L461.896 52.506C460.15 56.9764 458.648 60.6435 458.508 60.6435C458.368 60.6435 457.356 58.4782 456.273 55.8239C455.155 53.2045 453.584 49.5025 452.78 47.6514L451.349 44.2288H448.135C444.329 44.2288 445.237 43.1112 440.871 53.3093C439.195 57.2558 437.693 60.5737 437.588 60.7134C437.448 60.8531 436.121 57.64 434.619 53.5537C433.083 49.4675 431.651 45.7306 431.371 45.1718L430.882 44.2288H426.377C422.71 44.2288 421.837 44.3336 421.837 44.7177Z" />
    <!-- fill="black" -->
    <path d="M478.939 44.6479C478.834 44.8924 478.799 51.7726 478.834 59.945L478.939 74.7881H483.479H488.02L488.194 66.476L488.369 58.1639L491.826 61.9358C493.747 63.9963 497.24 67.8032 499.65 70.3177L504.015 74.9628H507.962H511.943V59.945C511.943 51.6678 511.943 44.8225 511.943 44.6479C511.943 44.5082 509.952 44.4034 507.508 44.4034H503.037L502.933 52.7854L502.863 61.1674L501.71 59.9101C500.523 58.548 493.049 50.5851 489.277 46.6037L487.042 44.2288H483.06C480.196 44.2288 479.044 44.3685 478.939 44.6479Z" />
</svg>