<svg viewBox="0 0 512 217"
    fill="currentColor"
    xmlns="http://www.w3.org/2000/svg">
    <!-- fill="#3E474A" -->
    <path fill-rule="evenodd"
        clip-rule="evenodd"
        d="M83.7346 208.246L15.5386 167.772C8.86832 163.812 4.72469 156.425 4.72469 148.49V67.5295C4.72469 59.5947 8.86832 52.2076 15.5362 48.2497L83.7346 7.76836C87.0043 5.82752 90.7288 4.80114 94.5057 4.80114C98.2802 4.80114 102.005 5.82752 105.277 7.76836L173.473 48.2497C179.093 51.586 182.884 57.3633 183.951 63.8431C181.689 59.016 176.588 57.7038 170.644 61.1759L106.127 101.026C98.0825 105.729 92.1505 111.007 92.1457 120.706V200.204C92.141 206.012 94.4866 209.775 98.0897 210.866C96.9061 211.07 95.713 211.213 94.5057 211.213C90.7288 211.213 87.0043 210.187 83.7346 208.246ZM175.857 44.1037L107.66 3.62473C103.591 1.20761 99.047 0.000244141 94.5057 0.000244141C89.962 0.000244141 85.4183 1.20761 81.3485 3.62473L13.1524 44.1037C5.01522 48.9355 0 57.8658 0 67.5295V148.49C0 158.151 5.01522 167.084 13.1548 171.916L81.3508 212.392C85.423 214.807 89.962 216.014 94.5057 216.014C99.0494 216.014 103.588 214.807 107.658 212.392L175.857 171.916C183.996 167.084 189.011 158.151 189.011 148.49V67.5295C189.011 57.8658 183.996 48.9355 175.857 44.1037ZM121.819 118.914C122.369 118.635 122.821 118.978 122.829 119.697L122.886 125.572C125.346 124.593 127.482 124.331 129.418 124.779C129.837 124.891 130.023 125.462 129.851 126.141L128.558 131.347C128.458 131.74 128.237 132.138 127.97 132.385C127.858 132.495 127.744 132.58 127.629 132.638C127.456 132.726 127.284 132.754 127.12 132.721C126.236 132.521 124.136 132.061 120.831 133.735C117.363 135.491 116.151 138.503 116.175 140.739C116.203 143.409 117.573 144.218 122.302 144.299C128.603 144.404 131.325 147.157 131.392 153.503C131.456 159.736 128.13 166.427 123.04 170.528L123.152 176.343C123.16 177.044 122.705 177.846 122.155 178.125L118.711 180.108C118.159 180.387 117.706 180.044 117.699 179.344L117.639 173.624C114.689 174.85 111.7 175.146 109.79 174.379C109.431 174.238 109.276 173.707 109.419 173.102L110.667 167.844C110.767 167.43 110.986 167.015 111.284 166.751C111.388 166.649 111.498 166.57 111.607 166.515C111.805 166.415 111.998 166.394 112.162 166.456C114.22 167.149 116.851 166.825 119.383 165.544C122.598 163.917 124.748 160.638 124.715 157.38C124.684 154.425 123.083 153.196 119.192 153.168C114.239 153.182 109.621 152.206 109.545 144.914C109.483 138.91 112.605 132.664 117.547 128.713L117.485 122.843C117.478 122.121 117.918 121.328 118.485 121.043L121.819 118.914ZM140.998 166.481L157.98 156.318C158.43 156.056 158.794 156.282 158.794 156.822V160.742C158.792 161.283 158.723 161.785 158.273 162.047L141.029 172.528C140.579 172.792 140.215 172.566 140.215 172.023V167.579C140.217 167.039 140.548 166.743 140.998 166.481Z" />
    <!-- fill="#3E474A" -->
    <path fill-rule="evenodd"
        clip-rule="evenodd"
        d="M234.639 114.092H249.668C251.79 114.158 253.776 114.501 255.574 115.106C257.287 115.678 258.792 116.504 260.051 117.559C261.283 118.593 262.228 119.826 262.933 121.319C263.623 122.793 263.959 124.541 263.924 126.577C263.924 128.499 263.545 130.211 262.795 131.669C262.021 133.174 261.004 134.407 259.697 135.436C258.332 136.505 256.729 137.356 254.936 137.963C253.107 138.58 251.143 138.913 249.156 138.944H234.639V114.092ZM260.456 91.9472C259.673 93.2784 258.677 94.3691 257.413 95.2787C256.101 96.2194 254.572 96.9553 252.86 97.4577C251.083 97.984 249.242 98.2674 247.454 98.3007H234.639V77.1063H247.073C249.071 77.142 251.045 77.3897 252.945 77.8469C254.693 78.2637 256.246 78.9186 257.556 79.7854C258.782 80.5974 259.735 81.6143 260.47 82.8907C261.173 84.1148 261.53 85.6841 261.53 87.5535C261.53 89.2776 261.178 90.7136 260.456 91.9472ZM277.209 111.151C275.509 109.098 273.459 107.321 271.115 105.871C270.827 105.695 270.537 105.524 270.241 105.354C272.111 104.107 273.773 102.637 275.19 100.982C276.704 99.2128 277.907 97.1958 278.772 94.993C279.641 92.7759 280.105 90.3112 280.155 87.644C280.203 83.0193 279.234 78.9495 277.271 75.5441C275.342 72.1959 272.72 69.4049 269.482 67.2402C266.341 65.147 262.723 63.5824 258.727 62.587C254.858 61.6249 250.845 61.1153 246.761 61.0724H219.463C217.558 61.0724 216.012 62.5417 216.012 64.354V151.634C216.012 153.447 217.558 154.916 219.463 154.916H248.878C253.112 154.873 257.282 154.235 261.271 153.023C265.321 151.789 268.96 149.984 272.087 147.653C275.288 145.269 277.874 142.271 279.774 138.744C281.705 135.167 282.66 131.021 282.613 126.456C282.613 123.503 282.134 120.7 281.193 118.126C280.253 115.554 278.912 113.208 277.209 111.151Z" />
    <!-- fill="#3E474A" -->
    <path fill-rule="evenodd"
        clip-rule="evenodd"
        d="M333.138 116.105H318.069L325.663 92.7033L333.138 116.105ZM333.893 63.3598C333.438 61.9976 332.11 61.0736 330.605 61.0736H320.834C319.336 61.0736 318.012 61.9904 317.552 63.3455L287.921 150.628C287.582 151.626 287.766 152.717 288.416 153.567C289.066 154.415 290.102 154.915 291.204 154.915H302.869C304.378 154.915 305.714 153.979 306.162 152.607L312.785 132.313H338.325L344.831 152.593C345.274 153.974 346.615 154.915 348.132 154.915H359.731C360.832 154.915 361.865 154.417 362.515 153.572C363.165 152.729 363.351 151.64 363.018 150.643L333.893 63.3598Z" />
    <!-- fill="#3E474A" -->
    <path fill-rule="evenodd"
        clip-rule="evenodd"
        d="M433.109 114.524C431.549 112.523 429.708 110.716 427.629 109.144C425.631 107.629 423.452 106.258 421.154 105.057C418.899 103.881 416.515 102.824 414.067 101.909C411.715 101.038 409.331 100.238 406.949 99.5231C404.93 98.9349 402.768 98.2443 400.522 97.4727C398.438 96.7607 396.481 95.8581 394.702 94.7889C393.092 93.822 391.754 92.6337 390.72 91.2549C389.825 90.0594 389.372 88.5758 389.344 86.7731C389.344 84.9847 389.694 83.4915 390.418 82.2008C391.175 80.8553 392.161 79.7527 393.433 78.8359C394.749 77.8834 396.288 77.1547 398.002 76.6712C402.013 75.5353 406.511 75.7044 409.762 76.9117C411.522 77.5642 413.055 78.4882 414.313 79.6504C415.589 80.8315 416.632 82.277 417.416 83.944C418.24 85.6991 418.806 87.6995 419.099 89.8856C419.316 91.5216 420.783 92.7504 422.521 92.7504H434.497C435.426 92.7504 436.314 92.398 436.962 91.7669C437.612 91.1382 437.967 90.2857 437.948 89.4045C437.853 84.9323 436.817 80.8029 434.866 77.1356C432.937 73.5183 430.335 70.3891 427.134 67.8339C423.976 65.3167 420.311 63.3402 416.242 61.9518C408.519 59.3251 399.936 59.1846 391.737 61.6113C387.793 62.7805 384.212 64.5213 381.092 66.7789C377.911 69.0793 375.301 71.9418 373.334 75.2781C371.305 78.7168 370.276 82.6438 370.276 86.9541C370.276 91.293 371.321 95.1556 373.381 98.4372C375.336 101.55 377.889 104.286 380.968 106.565C383.933 108.763 387.255 110.637 390.839 112.137C394.28 113.578 397.71 114.826 401.039 115.852C403.225 116.521 405.504 117.264 407.876 118.088C410.031 118.839 412.031 119.784 413.817 120.899C415.456 121.92 416.756 123.137 417.785 124.613C418.692 125.918 419.133 127.54 419.133 129.576C419.133 131.386 418.756 132.865 417.982 134.096C417.137 135.442 416.08 136.523 414.753 137.402C413.372 138.311 411.765 138.997 409.964 139.435C405.649 140.493 400.955 140.326 397.255 139.19C395.271 138.583 393.504 137.675 392.004 136.492C390.508 135.313 389.265 133.846 388.305 132.136C387.329 130.398 386.672 128.34 386.35 126.028C386.124 124.397 384.659 123.177 382.931 123.177H371.016C370.083 123.177 369.19 123.535 368.542 124.171C367.892 124.806 367.54 125.666 367.566 126.552C367.709 131.227 368.897 135.48 371.1 139.192C373.25 142.819 376.089 145.932 379.535 148.449C382.919 150.926 386.803 152.847 391.075 154.159C395.307 155.457 399.693 156.115 404.113 156.115C408.066 156.115 412.072 155.579 416.015 154.524C420.03 153.45 423.693 151.816 426.898 149.673C430.185 147.475 432.902 144.689 434.971 141.386C437.114 137.968 438.2 133.951 438.2 129.455C438.2 126.509 437.743 123.756 436.843 121.277C435.952 118.831 434.697 116.56 433.109 114.524Z" />
    <!-- fill="#3E474A" -->
    <path fill-rule="evenodd"
        clip-rule="evenodd"
        d="M509.58 61.0734H498.547C496.642 61.0734 495.096 62.5403 495.096 64.3525V98.5994H464.362V64.3525C464.362 62.5403 462.819 61.0734 460.914 61.0734H449.943C448.038 61.0734 446.492 62.5403 446.492 64.3525V151.635C446.492 153.448 448.038 154.915 449.943 154.915H460.914C462.819 154.915 464.362 153.448 464.362 151.635V114.571H495.096V151.635C495.096 153.448 496.642 154.915 498.547 154.915H509.58C511.485 154.915 513.031 153.448 513.031 151.635V64.3525C513.031 62.5403 511.485 61.0734 509.58 61.0734Z" />
</svg>
