<svg fill="currentColor"
    viewBox="0 0 512 168"
    xmlns="http://www.w3.org/2000/svg">
    <!-- fill="#41B883" -->
    <path d="M118.682 0L96.4156 38.5662L74.1491 0H0L96.4156 166.998L192.831 0H118.682Z" />
    <!-- fill="#34495E" -->
    <path d="M118.682 0L96.4156 38.5663L74.1492 0H38.5663L96.4156 100.197L154.265 0H118.682Z" />
    <!-- fill="#273849" -->
    <path d="M226.521 42.8217C226.521 41.7578 227.053 40.8712 228.117 40.162C229.181 39.4527 230.333 39.0981 231.575 39.0981C233.525 39.0981 234.678 39.8517 235.032 41.3589L259.635 123.013L284.104 41.3589C284.636 39.8517 285.745 39.0981 287.429 39.0981C288.67 39.0981 289.867 39.497 291.02 40.295C292.172 41.0042 292.749 41.8908 292.749 42.9547C292.749 43.0434 292.704 43.1764 292.616 43.3537C292.616 43.531 292.616 43.664 292.616 43.7526L264.954 133.918C264.334 136.046 262.561 137.109 259.635 137.109C256.798 137.109 255.069 136.046 254.448 133.918L226.654 43.7526C226.565 43.5753 226.521 43.265 226.521 42.8217ZM298.068 112.241V76.7334C298.068 75.9355 298.467 75.1819 299.265 74.4726C300.152 73.7634 301.215 73.4087 302.457 73.4087C303.521 73.4087 304.496 73.7634 305.382 74.4726C306.269 75.1819 306.712 75.9355 306.712 76.7334V112.241C306.712 116.674 308.352 120.619 311.633 124.077C314.913 127.534 318.814 129.263 323.336 129.263C327.857 129.263 331.758 127.534 335.038 124.077C338.319 120.619 339.959 116.674 339.959 112.241V76.6004C339.959 75.7138 340.402 74.9602 341.289 74.3396C342.175 73.719 343.195 73.4087 344.348 73.4087C345.5 73.4087 346.475 73.719 347.273 74.3396C348.16 74.9602 348.603 75.7138 348.603 76.6004V112.241C348.603 118.89 346.076 124.742 341.023 129.795C336.058 134.76 330.162 137.242 323.336 137.242C316.42 137.242 310.48 134.76 305.515 129.795C300.551 124.742 298.068 118.89 298.068 112.241ZM362.313 111.975V97.0804C362.313 90.4311 364.795 84.7126 369.76 79.9251C374.725 75.0489 380.71 72.6108 387.714 72.6108C394.452 72.6108 400.259 74.9159 405.135 79.5261C410.1 84.1363 412.582 89.8991 412.582 96.8144C412.582 99.2969 412.272 101.292 411.651 102.799C411.119 104.306 410.188 105.37 408.859 105.991C407.617 106.611 406.465 107.01 405.401 107.187C404.337 107.365 402.874 107.453 401.012 107.453H370.957V112.374C370.957 117.605 372.819 121.816 376.543 125.008C380.355 128.111 385.231 129.662 391.171 129.662C394.186 129.662 396.801 129.219 399.017 128.332C401.323 127.446 403.051 126.559 404.204 125.673C405.445 124.786 406.42 124.343 407.13 124.343C408.105 124.343 408.947 124.83 409.656 125.806C410.454 126.692 410.853 127.579 410.853 128.465C410.853 130.327 408.947 132.278 405.135 134.317C401.323 136.267 396.579 137.242 390.905 137.242C382.483 137.242 375.612 134.937 370.292 130.327C364.973 125.628 362.313 119.511 362.313 111.975ZM370.957 101.07H397.555C400.214 101.07 401.987 100.804 402.874 100.272C403.761 99.6515 404.204 98.4103 404.204 96.5485C404.204 92.1156 402.608 88.2146 399.416 84.8456C396.313 81.4766 392.368 79.7921 387.581 79.7921C382.97 79.7921 379.025 81.3879 375.745 84.5796C372.553 87.7713 370.957 91.5836 370.957 96.0165V101.07ZM422.557 130.992C422.557 129.219 423.134 127.756 424.286 126.604C425.439 125.362 426.902 124.742 428.675 124.742C430.271 124.742 431.645 125.362 432.797 126.604C434.038 127.845 434.659 129.308 434.659 130.992C434.659 132.588 434.038 134.006 432.797 135.248C431.645 136.489 430.271 137.109 428.675 137.109C426.902 137.109 425.439 136.533 424.286 135.381C423.134 134.139 422.557 132.677 422.557 130.992ZM435.045 163.308C435.045 162.155 435.399 161.18 436.109 160.382C436.818 159.673 437.704 159.318 438.768 159.318C442.669 159.318 445.24 157.855 446.482 154.93C447.723 152.093 448.343 147.793 448.343 142.03V76.6004C448.343 75.6252 448.742 74.8716 449.54 74.3396C450.338 73.719 451.358 73.4087 452.599 73.4087C453.84 73.4087 454.86 73.719 455.658 74.3396C456.544 74.9602 456.988 75.7138 456.988 76.6004V142.03C456.988 158.786 451.136 167.165 439.433 167.165C437.926 167.165 436.818 166.766 436.109 165.968C435.399 165.258 435.045 164.372 435.045 163.308ZM448.343 53.1947C447.191 52.0422 446.615 50.7123 446.615 49.2051C446.615 47.6979 447.191 46.4124 448.343 45.3485C449.496 44.2846 450.915 43.7526 452.599 43.7526C454.195 43.7526 455.525 44.2846 456.589 45.3485C457.741 46.4124 458.317 47.6979 458.317 49.2051C458.317 50.7123 457.741 52.0422 456.589 53.1947C455.525 54.2586 454.195 54.7905 452.599 54.7905C450.915 54.7905 449.496 54.2586 448.343 53.1947ZM469.81 127.667C469.81 126.781 470.12 125.894 470.741 125.008C471.361 124.121 472.071 123.678 472.868 123.678C473.489 123.678 474.464 124.21 475.794 125.274C477.124 126.249 479.03 127.268 481.513 128.332C483.995 129.396 486.965 129.928 490.423 129.928C495.122 129.928 498.579 129.042 500.796 127.268C503.012 125.495 504.12 123.235 504.12 120.486C504.12 117.294 502.968 114.768 500.663 112.906C498.446 110.955 495.742 109.537 492.55 108.65C489.359 107.764 486.123 106.788 482.842 105.725C479.651 104.661 476.902 102.932 474.597 100.538C472.381 98.0556 471.273 94.7753 471.273 90.697C471.273 85.8208 473.001 81.6096 476.459 78.0633C480.005 74.4283 485.281 72.6108 492.285 72.6108C496.629 72.6108 500.663 73.3201 504.386 74.7386C508.199 76.0685 510.105 77.5313 510.105 79.1272C510.105 80.0137 509.75 80.989 509.041 82.0529C508.332 83.1168 507.489 83.6487 506.514 83.6487C506.248 83.6487 504.608 83.0281 501.594 81.7869C498.579 80.5457 495.521 79.9251 492.418 79.9251C487.985 79.9251 484.66 80.989 482.444 83.1168C480.227 85.2446 479.119 87.6383 479.119 90.2981C479.119 93.0465 480.227 95.2186 482.444 96.8144C484.749 98.4103 487.497 99.6515 490.689 100.538C493.969 101.336 497.205 102.311 500.397 103.464C503.677 104.528 506.425 106.478 508.642 109.315C510.947 112.064 512.1 115.654 512.1 120.087C512.1 125.407 510.194 129.618 506.381 132.721C502.658 135.735 497.427 137.242 490.689 137.242C484.837 137.242 479.872 136.223 475.794 134.184C471.805 132.056 469.81 129.884 469.81 127.667Z" />
</svg>
