<svg version="1.0" xmlns="http://www.w3.org/2000/svg" viewBox="0 0 512.000000 512.000000"
  preserveAspectRatio="xMidYMid meet" fill="currentColor">
  <g transform="translate(0.000000,512.000000) scale(0.100000,-0.100000)" stroke="none">
    <path d="M845 5106 c-94 -29 -160 -84 -206 -168 l-34 -63 0 -1375 0 -1375 25
-50 c31 -64 101 -134 165 -165 l50 -25 643 -3 642 -3 0 -169 0 -170 -207 0
c-226 0 -303 -8 -367 -40 -55 -26 -122 -93 -155 -155 l-26 -50 -3 -511 c-3
-497 -2 -513 18 -567 28 -74 98 -148 175 -184 l60 -28 935 0 935 0 60 28 c77
36 147 110 175 184 20 54 21 70 18 567 l-3 511 -27 50 c-53 102 -144 167 -257
186 -31 5 -149 9 -263 9 l-208 0 0 170 0 169 643 3 642 3 57 28 c64 31 125 95
160 165 l23 47 0 1375 0 1375 -34 63 c-38 70 -92 120 -167 154 l-49 23 -1690
2 c-1339 1 -1698 -1 -1730 -11z m3412 -177 c29 -14 52 -35 68 -63 24 -42 25
-48 25 -234 l0 -192 -1790 0 -1790 0 0 192 c0 185 1 193 25 233 16 28 39 50
67 64 l43 21 1654 0 1655 0 43 -21z m93 -1704 c0 -1022 0 -1047 -20 -1085 -11
-21 -34 -49 -52 -62 l-33 -23 -627 -3 -628 -2 0 385 0 385 74 0 c59 0 79 4
107 23 73 48 91 149 40 228 -70 109 -546 726 -573 743 -41 26 -115 26 -156 0
-27 -17 -559 -712 -591 -771 -16 -32 -13 -103 7 -143 29 -58 73 -80 158 -80
l74 0 0 -385 0 -385 -628 2 -629 3 -35 27 c-73 55 -68 -22 -68 1142 l0 1046
1790 0 1790 0 0 -1045z m-1535 95 l246 -325 -68 -2 c-99 -4 -131 -11 -153 -35
-20 -21 -20 -36 -20 -720 l0 -698 -260 0 -260 0 0 698 0 699 -26 24 c-23 21
-36 24 -119 27 l-94 4 247 329 c136 181 250 328 254 327 4 -2 118 -149 253
-328z m629 -1960 c48 -11 84 -36 114 -80 l23 -34 -3 -485 -3 -486 -24 -34
c-13 -18 -42 -42 -65 -52 -39 -18 -84 -19 -926 -19 -842 0 -887 1 -926 19 -23
10 -52 34 -65 52 l-24 34 -3 486 -3 485 23 34 c29 43 67 70 109 80 48 11 1725
12 1773 0z" />
    <path d="M972 4755 c-41 -34 -44 -84 -7 -120 21 -22 33 -25 98 -25 94 0 127
21 127 80 0 64 -25 84 -112 88 -69 4 -76 2 -106 -23z" />
    <path d="M1413 4770 c-50 -20 -60 -105 -17 -139 22 -17 41 -21 101 -21 65 0
77 3 98 25 35 34 33 78 -4 116 -27 26 -36 29 -93 28 -35 0 -73 -4 -85 -9z" />
    <path d="M1826 4758 c-40 -35 -43 -78 -11 -116 26 -31 29 -32 105 -32 76 0 79
1 105 32 32 38 29 81 -11 116 -21 18 -37 22 -94 22 -57 0 -73 -4 -94 -22z" />
    <path d="M3699 4751 c-37 -38 -39 -82 -4 -116 24 -25 25 -25 230 -25 205 0
206 0 230 25 35 34 33 78 -4 116 l-29 29 -197 0 -197 0 -29 -29z" />
    <path d="M2597 1090 c-20 -16 -43 -74 -116 -293 -50 -149 -91 -282 -91 -295 0
-35 43 -72 83 -72 62 0 71 16 167 305 50 148 90 280 90 293 0 31 -52 82 -83
82 -13 0 -36 -9 -50 -20z" />
    <path d="M1956 924 c-222 -148 -222 -161 4 -312 134 -91 157 -103 184 -98 17
3 41 17 54 32 45 51 25 94 -79 164 -43 29 -79 56 -79 59 0 3 37 30 81 59 103
68 123 118 69 172 -40 40 -77 28 -234 -76z" />
    <path d="M2930 1000 c-54 -54 -34 -104 69 -172 44 -29 81 -56 81 -59 0 -3 -36
-30 -79 -60 -104 -71 -124 -112 -78 -163 12 -15 36 -29 53 -32 27 -5 50 7 184
98 226 151 226 164 4 312 -157 104 -194 116 -234 76z" />
  </g>
</svg>