<svg version="1.0" xmlns="http://www.w3.org/2000/svg" viewBox="0 0 512.000000 512.000000"
  preserveAspectRatio="xMidYMid meet" fill="currentColor">
  <g transform="translate(0.000000,512.000000) scale(0.100000,-0.100000)" stroke="none">
    <path d="M3930 5106 c-63 -17 -134 -54 -181 -94 -23 -20 -116 -148 -216 -298
l-177 -264 -1395 0 -1396 0 -58 -24 c-119 -49 -197 -128 -240 -242 l-22 -59 0
-1360 c0 -1256 1 -1364 17 -1415 35 -113 132 -215 248 -263 l55 -22 826 -3
826 -3 -53 -222 c-30 -122 -56 -232 -59 -243 -5 -20 -12 -22 -167 -26 -184 -5
-222 -16 -298 -84 -59 -54 -91 -121 -97 -210 l-6 -73 -179 -3 -180 -3 -24 -28
c-33 -38 -33 -96 0 -134 l24 -28 1382 0 1382 0 24 28 c33 38 33 96 0 134 l-24
28 -180 3 -179 3 -6 73 c-6 89 -38 156 -97 210 -76 68 -114 79 -298 84 -155 4
-162 6 -167 26 -3 11 -29 121 -59 243 l-53 222 826 3 826 3 58 23 c117 48 219
160 249 275 11 42 13 302 13 1407 l0 1355 -22 59 c-60 159 -209 266 -371 266
-72 0 -69 -9 -33 90 42 114 21 284 -49 384 -37 55 -108 120 -159 145 -93 48
-218 63 -311 37z m217 -214 c46 -24 89 -71 110 -119 20 -48 17 -147 -6 -191
-18 -36 -670 -838 -695 -856 -8 -6 -58 25 -157 99 -79 60 -143 111 -142 114 1
4 139 211 307 461 307 459 329 487 402 510 44 14 136 5 181 -18z m-1156 -986
l-229 -343 -77 -7 c-334 -30 -552 -247 -595 -593 -18 -138 7 -390 55 -550 27
-90 97 -119 166 -68 147 107 155 109 434 110 207 2 236 4 295 23 220 74 353
301 318 545 -6 39 -11 84 -12 98 -1 21 97 146 449 577 l450 552 151 -3 c141
-2 153 -4 186 -26 45 -31 74 -75 87 -131 7 -29 11 -381 11 -997 l0 -953 -1575
0 c-1711 0 -1623 3 -1660 -54 -22 -33 -14 -91 15 -120 21 -21 22 -21 1618 -26
l1597 -5 0 -260 0 -260 -28 -47 c-18 -31 -44 -57 -75 -75 l-47 -28 -1965 0
-1965 0 -47 28 c-31 18 -57 44 -75 75 l-28 47 0 260 0 260 167 5 c152 5 169 7
188 26 29 29 37 87 15 120 -29 44 -70 54 -230 54 l-146 0 3 983 c3 1082 -1
1005 65 1071 57 58 -22 55 1401 56 l1312 0 -229 -344z m295 -246 l135 -101
-18 -24 c-70 -92 -190 -234 -198 -234 -5 -1 -65 40 -133 90 l-123 91 17 27
c98 150 169 251 176 251 5 0 70 -45 144 -100z m-327 -432 c169 -126 180 -135
192 -178 33 -116 4 -241 -74 -318 -73 -72 -92 -76 -347 -77 -231 -1 -304 -11
-383 -52 -16 -8 -31 -13 -33 -10 -13 12 -27 138 -28 242 -1 183 34 294 123
388 76 81 203 134 323 136 45 1 54 -4 227 -131z m-259 -2172 c0 -3 25 -109 55
-236 30 -127 55 -235 55 -241 0 -5 -101 -9 -250 -9 -149 0 -250 4 -250 9 0 6
25 114 55 241 30 127 55 233 55 236 0 2 63 4 140 4 77 0 140 -2 140 -4z m603
-697 c48 -13 77 -57 77 -116 l0 -43 -821 0 -821 0 4 55 c5 62 25 91 72 104 45
13 1442 13 1489 0z" />
    <path d="M1093 2125 c-99 -43 -71 -185 36 -185 96 0 138 124 59 173 -37 24
-61 27 -95 12z" />
  </g>
</svg>