<svg version="1.0" xmlns="http://www.w3.org/2000/svg" viewBox="0 0 512.000000 512.000000"
  preserveAspectRatio="xMidYMid meet" fill="currentColor">
  <g transform="translate(0.000000,512.000000) scale(0.100000,-0.100000)" stroke="none">
    <path d="M909 5004 c-60 -18 -139 -89 -170 -151 l-24 -48 -3 -662 -3 -662
-297 -3 c-276 -3 -299 -4 -331 -23 -19 -11 -43 -33 -55 -48 l-21 -28 0 -1404
c0 -1402 0 -1404 21 -1431 11 -15 33 -37 48 -48 27 -21 37 -21 837 -24 l809
-2 0 -87 c0 -47 6 -104 12 -127 16 -54 90 -128 144 -144 54 -16 900 -17 957
-1 49 13 115 73 138 124 17 37 19 81 19 627 l0 587 454 3 c430 3 455 4 475 22
27 25 29 86 3 109 -16 14 -44 17 -185 17 -91 0 -168 4 -171 9 -3 5 -26 98 -51
207 -25 110 -48 207 -51 216 -5 16 41 17 713 20 706 3 719 3 764 24 63 30 116
79 147 138 l27 51 3 1257 c2 1252 2 1257 -19 1312 -27 73 -92 138 -164 165
-49 19 -78 21 -244 21 -183 0 -188 -1 -209 -23 -28 -30 -29 -80 -2 -107 19
-19 33 -20 203 -20 203 0 227 -6 267 -72 20 -32 20 -53 20 -990 l0 -958 -1290
0 -1290 0 0 259 c0 251 -1 259 -22 291 -13 18 -36 43 -51 54 -28 21 -36 21
-743 24 l-714 3 0 637 c0 710 -3 681 69 729 l34 23 1582 0 1582 0 21 23 c28
30 29 80 2 107 -20 20 -33 20 -1607 19 -1347 0 -1595 -3 -1634 -15z m1331
-2129 l0 -455 -60 0 -60 0 0 365 0 366 -25 24 -24 25 -876 0 c-862 0 -875 0
-895 -20 -20 -20 -20 -33 -20 -674 l0 -655 22 -15 c30 -21 71 -20 99 3 l24 19
3 596 3 596 769 0 770 0 0 -314 0 -314 -42 -7 c-94 -15 -174 -83 -198 -166 -6
-20 -10 -258 -10 -591 l0 -558 -645 0 -645 0 0 184 c0 104 -5 196 -11 214 -12
34 -56 58 -88 47 -50 -16 -51 -19 -51 -295 l0 -259 26 -20 c26 -21 34 -21 720
-21 l694 0 0 -165 0 -165 -785 0 -785 0 0 1348 c0 742 3 1352 7 1355 3 4 474
7 1045 7 l1038 0 0 -455z m2730 -367 c0 -218 -7 -246 -70 -283 -35 -20 -48
-20 -969 -20 l-934 0 -13 45 c-17 57 -64 114 -117 143 -39 20 -58 22 -259 25
l-218 4 0 139 0 139 1290 0 1290 0 0 -192z m-2149 -267 c18 -22 19 -51 19
-847 l0 -824 -485 0 -485 0 0 815 c0 577 3 821 11 839 6 13 21 29 33 34 14 7
168 10 454 9 l434 -2 19 -24z m489 -197 c0 -6 89 -402 96 -427 5 -16 -8 -17
-203 -15 l-208 3 -3 223 -2 222 160 0 c88 0 160 -3 160 -6z m-470 -1688 c0
-58 -3 -67 -26 -85 -26 -21 -37 -21 -461 -21 l-434 0 -24 25 c-21 20 -25 34
-25 85 l0 60 485 0 485 0 0 -64z" />
    <path d="M1077 849 c-47 -27 -39 -108 13 -129 18 -7 65 -11 125 -8 87 3 99 5
116 27 25 30 24 62 -2 95 -20 25 -24 26 -127 26 -59 0 -115 -5 -125 -11z" />
    <path d="M2242 2170 c-22 -21 -30 -73 -14 -96 16 -24 55 -34 135 -34 104 0
131 16 131 75 0 60 -27 75 -138 75 -79 0 -95 -3 -114 -20z" />
  </g>
</svg>