<?xml version="1.0" standalone="no"?>
<!DOCTYPE svg PUBLIC "-//W3C//DTD SVG 20010904//EN"
 "http://www.w3.org/TR/2001/REC-SVG-20010904/DTD/svg10.dtd">
<svg version="1.0" xmlns="http://www.w3.org/2000/svg"
 width="512.000000pt" height="512.000000pt" viewBox="0 0 512.000000 512.000000"
 preserveAspectRatio="xMidYMid meet">

<g transform="translate(0.000000,512.000000) scale(0.100000,-0.100000)"
fill="#000000" stroke="none">
<path d="M1440 5111 c-92 -29 -176 -107 -204 -188 -57 -167 33 -340 202 -389
l53 -16 -4 -641 c-4 -704 -3 -688 -69 -875 -49 -140 -99 -225 -259 -437 -134
-179 -150 -203 -145 -230 12 -61 74 -83 120 -43 54 49 298 386 346 480 81 156
150 394 150 514 l0 34 139 0 c125 0 141 2 165 21 34 27 36 77 3 107 -22 20
-33 22 -165 22 l-142 0 0 125 0 125 139 0 c125 0 141 2 165 21 34 27 36 77 3
107 -21 19 -35 22 -162 24 l-140 3 -3 60 c-2 33 -1 88 3 123 l7 62 132 0 c120
0 136 2 160 21 34 27 36 77 3 107 -22 20 -33 22 -160 22 l-137 0 0 125 0 125
430 0 430 0 0 -607 c0 -670 4 -721 61 -908 62 -203 112 -285 419 -689 154
-203 278 -371 276 -373 -2 -2 -31 3 -65 12 -269 69 -573 15 -938 -168 -81 -41
-90 -44 -108 -30 -36 27 -189 100 -255 122 -111 36 -209 51 -375 58 -221 8
-483 -26 -659 -87 -31 -10 -56 -17 -56 -14 0 2 34 49 77 104 61 80 76 106 75
132 -2 59 -75 90 -120 51 -26 -24 -472 -606 -515 -675 -123 -192 -193 -417
-204 -654 -9 -199 20 -349 94 -487 41 -77 164 -195 243 -234 150 -72 29 -67
1574 -70 1494 -4 1474 -4 1609 47 33 12 88 42 123 66 l65 45 39 -34 c88 -75
233 -127 355 -127 253 0 485 180 549 427 14 54 16 212 16 1372 0 1298 0 1311
-20 1331 -25 25 -71 26 -101 1 -24 -19 -24 -20 -27 -279 l-3 -261 -37 -13
c-21 -7 -80 -13 -137 -13 -98 0 -101 1 -185 44 -110 56 -150 70 -236 81 -65 8
-175 0 -218 -16 -14 -6 -16 8 -16 140 l0 146 138 0 c132 0 140 1 160 23 31 33
29 80 -4 106 -24 19 -40 21 -160 21 l-134 0 0 125 0 125 138 0 c132 0 140 1
160 23 31 33 29 80 -4 106 -24 19 -40 21 -160 21 l-134 0 0 125 0 125 138 0
c132 0 140 1 160 23 31 33 29 80 -4 106 -24 19 -40 21 -160 21 l-134 0 0 125
0 125 415 0 415 0 0 -370 c0 -306 3 -376 15 -399 24 -47 78 -56 113 -18 22 23
22 27 22 404 l0 382 53 24 c111 51 167 132 175 253 7 104 -16 163 -88 236 -91
90 -72 88 -705 88 -633 0 -614 2 -705 -88 -41 -42 -60 -71 -73 -111 -49 -154
11 -304 149 -372 l64 -32 0 -1235 c0 -738 -4 -1232 -9 -1227 -5 6 -190 249
-411 540 -408 538 -447 596 -505 755 -68 188 -67 181 -72 887 l-5 641 54 16
c101 29 183 112 209 211 36 132 -33 279 -161 346 l-45 24 -620 2 c-341 1 -631
-2 -645 -6z m1250 -160 c48 -26 72 -62 77 -118 6 -65 -20 -111 -77 -140 l-44
-23 -581 0 c-546 0 -582 1 -615 19 -107 56 -107 210 0 263 32 17 83 18 620 18
551 0 587 -1 620 -19z m2090 -359 c76 -38 103 -134 58 -213 -40 -72 -22 -70
-637 -67 l-549 3 -27 25 c-43 40 -58 77 -53 132 6 58 31 96 79 120 31 16 79
18 564 18 485 0 533 -2 565 -18z m-601 -2105 c118 -62 199 -81 316 -74 50 3
100 9 113 13 l22 6 0 -969 c0 -934 -1 -972 -19 -1026 -47 -135 -156 -236 -296
-273 -209 -56 -439 76 -499 286 -14 49 -16 168 -14 1059 l3 1004 35 13 c23 9
72 13 141 11 106 -2 108 -3 198 -50z m-1069 -668 c81 -15 175 -47 266 -91 79
-38 82 -41 177 -166 l97 -128 0 -475 c0 -506 2 -525 52 -632 l22 -48 -30 -24
c-46 -38 -130 -75 -202 -91 -102 -21 -2745 -21 -2847 1 -246 52 -384 252 -385
557 0 53 5 131 11 173 13 88 1 81 169 90 208 10 486 61 719 132 254 76 503
189 1026 462 449 235 654 288 925 240z m-1378 -53 c80 -18 189 -56 242 -83
l38 -20 -44 -26 c-79 -46 -420 -214 -518 -255 -303 -126 -584 -202 -885 -237
-124 -14 -235 -20 -235 -11 0 12 65 154 91 198 17 29 65 99 107 155 75 99 79
102 162 141 147 68 331 120 520 148 122 17 427 11 522 -10z"/>
<path d="M4102 2055 c-52 -27 -85 -62 -115 -120 -57 -115 -4 -264 117 -328 57
-30 165 -30 222 0 93 49 153 161 139 258 -11 67 -61 144 -119 180 -40 24 -62
30 -120 33 -61 3 -78 0 -124 -23z m181 -151 c36 -36 43 -77 20 -117 -24 -41
-59 -59 -102 -53 -123 18 -110 196 15 196 31 0 48 -6 67 -26z"/>
<path d="M4058 1256 c-28 -21 -38 -58 -23 -92 31 -74 135 -50 135 31 0 60 -66
96 -112 61z"/>
<path d="M4214 677 c-53 -46 -26 -127 43 -127 70 0 101 86 47 129 -34 27 -57
26 -90 -2z"/>
<path d="M2252 1287 c-56 -60 6 -150 83 -121 24 10 46 60 39 89 -14 54 -84 73
-122 32z"/>
<path d="M2752 1174 c-110 -29 -201 -107 -250 -212 -23 -49 -27 -70 -27 -152
0 -87 3 -101 32 -161 102 -207 355 -280 546 -157 281 180 198 617 -131 687
-68 14 -104 13 -170 -5z m153 -145 c24 -6 62 -27 85 -46 121 -104 111 -276
-21 -364 -137 -93 -329 -2 -346 163 -12 114 46 205 155 244 46 16 71 17 127 3z"/>
<path d="M1652 1063 c-7 -3 -19 -18 -28 -35 -39 -75 57 -146 114 -85 58 61 -7
152 -86 120z"/>
<path d="M1070 891 c-121 -40 -189 -130 -190 -252 -1 -271 363 -359 484 -117
45 90 34 200 -28 281 -53 69 -188 114 -266 88z m143 -181 c63 -70 15 -180 -80
-180 -57 0 -102 47 -103 106 0 102 115 149 183 74z"/>
<path d="M1960 2779 c-181 -81 -217 -326 -68 -453 85 -73 195 -86 297 -35 105
53 159 150 148 268 -8 96 -65 177 -152 217 -66 31 -161 32 -225 3z m178 -145
c29 -20 52 -66 52 -104 0 -93 -107 -151 -184 -101 -40 26 -55 57 -56 110 0 36
6 49 34 77 29 29 41 34 83 34 28 0 58 -7 71 -16z"/>
</g>
</svg>
