<svg viewBox="0 0 512 512" xmlns="http://www.w3.org/2000/svg" fill="currentColor">
  <path fill-rule="evenodd" clip-rule="evenodd"
    d="M356.929 473.354V461.01C356.929 461.01 318.354 461.782 307.553 453.295C296.752 444.809 289.808 430.15 289.808 407.777C289.808 385.403 289.808 337.57 289.808 337.57C289.808 337.57 392.418 326.769 424.821 294.366C457.224 261.963 466.482 209.502 466.482 177.099C466.482 160.897 466.651 117.351 466.651 94.5866C466.651 80.6826 469.108 55.9263 487.979 55.9263C497.362 55.9263 512 55.973 512 55.973V39.7715C512 39.7715 491.941 39 479.597 39C467.253 39 437.55 40.9287 422.506 55.973C407.462 71.0172 397.818 112.292 397.818 183.27C397.818 254.248 391.646 273.536 373.902 291.28C347.282 317.9 289.808 319.826 289.808 319.826C289.808 319.826 289.808 140.838 289.808 116.15C289.808 91.462 289.037 78.3465 300.609 66.774C312.182 55.2015 350.757 56.7445 350.757 56.7445V39H161.243V56.7445C161.243 56.7445 199.818 55.2015 211.391 66.774C222.963 78.3465 222.192 91.462 222.192 116.15C222.192 140.838 222.192 319.826 222.192 319.826C222.192 319.826 164.718 317.9 138.098 291.28C120.354 273.536 114.182 254.248 114.182 183.271C114.182 112.293 104.538 71.0174 89.4939 55.9731C74.4497 40.9289 44.747 39.0001 32.403 39.0001C20.059 39.0001 0 39.7716 0 39.7716V55.9731C0 55.9731 14.6385 55.9265 24.0214 55.9265C42.8917 55.9265 45.3487 80.6827 45.3487 94.5868C45.3487 117.351 45.5185 160.897 45.5185 177.099C45.5185 209.502 54.7765 261.964 87.1794 294.367C119.582 326.77 222.192 337.571 222.192 337.571C222.192 337.571 222.192 385.404 222.192 407.777C222.192 430.15 215.248 444.809 204.447 453.295C193.646 461.782 155.071 461.01 155.071 461.01V473.354" />
</svg>