<svg xmlns="http://www.w3.org/2000/svg" viewBox="0 0 25.65 25.651" role="presentation">
  <g id="_005-instagram-logo" data-name="005-instagram-logo" transform="translate(0 0)">
    <g id="post-instagram">
      <path id="Tracé_8" data-name="Tracé 8" d="M23.086,0H2.565A2.573,2.573,0,0,0,0,2.565V23.086a2.573,2.573,0,0,0,2.565,2.565H23.086a2.573,2.573,0,0,0,2.565-2.565V2.565A2.573,2.573,0,0,0,23.086,0ZM12.825,7.7a5.13,5.13,0,1,1-5.13,5.13A5.145,5.145,0,0,1,12.825,7.7ZM3.206,23.086a.606.606,0,0,1-.641-.641v-10.9H5.258a4.363,4.363,0,0,0-.128,1.283,7.7,7.7,0,1,0,15.39,0,4.363,4.363,0,0,0-.128-1.283h2.693v10.9a.606.606,0,0,1-.641.641ZM23.086,5.771a.606.606,0,0,1-.641.641H19.879a.606.606,0,0,1-.641-.641V3.206a.606.606,0,0,1,.641-.641h2.565a.606.606,0,0,1,.641.641Z" />
    </g>
  </g>
</svg>
