<svg xmlns="http://www.w3.org/2000/svg" viewBox="0 0 29.868 28.541" role="presentation">
  <g id="linkedin-logo_1_" data-name="linkedin-logo (1)" transform="translate(0 0)">
    <path id="LinkedIn" d="M29.868,27.057V38.1h-6.4V27.8c0-2.588-.926-4.355-3.243-4.355a3.5,3.5,0,0,0-3.285,2.342,4.38,4.38,0,0,0-.212,1.561V38.1h-6.4s.086-17.45,0-19.258h6.4v2.73c-.013.02-.03.042-.042.062h.042v-.062A6.358,6.358,0,0,1,22.5,18.389C26.71,18.389,29.868,21.141,29.868,27.057ZM3.624,9.558a3.337,3.337,0,1,0-.085,6.656h.043a3.338,3.338,0,1,0,.042-6.656ZM.38,38.1h6.4V18.841H.38Z" transform="translate(0 -9.558)" />
  </g>
</svg>
