<svg width="512" height="512" viewBox="0 0 512 512"
    xmlns="http://www.w3.org/2000/svg">
    <path d="M238.507 0.597298C210.261 2.9013 184.747 8.70397 161.195 18.176C77.4827 51.7973 18.176 125.611 3.49871 214.357C-19.5413 353.536 74.9227 485.376 214.357 508.501C353.536 531.541 485.376 437.077 508.501 297.643C525.995 192.085 475.819 86.8693 382.549 33.536C350.976 15.36 314.112 4.01063 276.907 0.853298C267.435 0.0852979 246.443 -0.0853687 238.507 0.597298ZM284.587 27.3066C335.445 34.1333 380.16 55.7226 416.341 90.88C453.888 127.403 476.928 173.056 484.437 225.707C486.144 237.568 486.4 271.787 484.864 283.307C481.451 308.651 473.003 337.493 463.36 356.693C458.581 366.336 451.072 378.88 450.048 378.88C446.464 378.88 436.309 373.333 427.52 366.507C386.987 335.104 363.093 311.979 343.296 285.013C333.056 271.019 310.016 235.776 310.784 235.093C310.955 235.008 314.027 234.24 317.781 233.387C321.707 232.533 327.68 230.315 332.203 228.011C350.464 218.709 359.168 203.349 359.253 180.651C359.253 169.728 357.376 160.597 353.536 152.832C349.525 144.811 344.405 139.264 336.811 134.485C329.045 129.707 323.925 127.659 313.429 125.355C305.579 123.563 302.336 123.477 260.096 123.136L215.04 122.709V126.123V129.451L219.392 129.963C221.696 130.219 225.877 131.584 228.523 132.864C232.619 134.827 233.728 135.936 235.52 139.52L237.653 143.787V230.827C237.653 278.699 237.312 319.317 236.971 321.109C235.861 326.144 231.253 330.667 225.024 332.715C222.123 333.653 218.795 334.507 217.6 334.677C215.893 334.848 215.381 335.445 215.211 337.664L214.955 340.48H252.587H290.219L289.963 337.749C289.707 335.189 289.451 335.019 284.416 333.995C278.101 332.715 272.299 330.24 270.421 328.021C266.923 323.925 266.752 321.877 266.411 280.064L266.155 239.787H270.677C273.152 239.787 276.565 239.531 278.187 239.275L281.259 238.763L290.731 253.184C324.437 303.957 341.333 323.157 379.733 354.219C387.499 360.533 405.163 373.931 414.891 380.843L424.021 387.413H434.347C439.979 387.413 444.587 387.755 444.587 388.096C444.587 388.437 441.259 392.96 437.248 398.08C428.544 409.173 409.6 428.288 399.36 436.395C367.019 461.995 328.277 478.464 286.293 484.437C274.432 486.144 240.213 486.4 228.693 484.864C174.336 477.611 127.573 454.229 90.4534 415.915C56.064 380.331 34.7307 336.469 27.5627 286.293C25.856 274.432 25.6 240.213 27.136 228.693C29.696 209.493 34.816 188.928 40.8747 173.653L44.288 165.12V172.117L44.3734 179.2H46.7627C48.9814 179.2 49.408 178.603 51.8827 172.544C55.808 162.901 62.3787 152.747 68.1814 147.456C73.728 142.336 80.7254 139.179 91.0507 137.216C99.328 135.68 139.179 135.68 143.616 137.301C149.419 139.264 149.333 138.667 149.333 188.16V232.107H128.683L107.947 232.021L95.8294 237.824C89.1734 240.981 83.712 243.883 83.712 244.224C83.6267 244.651 98.3894 244.907 116.48 244.907H149.333V284.928C149.333 323.072 149.248 325.035 147.712 326.912L146.091 328.96H115.883C89.856 328.96 84.992 328.704 80.2134 327.424C68.9494 324.352 66.9867 321.024 66.9867 304.811L67.072 293.547H63.9147C61.6107 293.547 60.5867 293.973 60.2454 294.997C59.648 297.131 53.1627 320.512 50.688 329.813C49.4934 333.995 48.384 338.176 48.128 338.944C47.7014 340.395 51.712 340.48 124.501 340.48H201.387V337.493C201.387 334.933 201.131 334.507 199.339 334.507C195.413 334.507 185.941 331.008 183.125 328.533C177.749 323.755 177.92 326.827 177.92 230.827C177.92 143.872 177.92 143.787 179.712 139.861C182.187 134.485 187.477 131.669 199.083 129.28C201.045 128.853 201.387 128.427 201.387 125.867V122.88L134.741 122.709L68.096 122.453L74.24 114.347C83.3707 102.485 105.131 81.152 117.76 71.7653C151.125 46.9333 189.44 31.5733 228.267 27.392C232.96 26.88 238.165 26.2826 239.787 26.112C244.992 25.5146 277.504 26.368 284.587 27.3066ZM300.885 136.789C319.915 142.165 329.387 156.245 329.387 179.2C329.387 199.168 322.645 212.395 309.077 219.563C301.056 223.829 292.267 225.707 272.469 227.413L266.24 227.925V184.747C266.24 138.155 266.325 137.557 270.763 135.595C273.408 134.485 295.68 135.339 300.885 136.789Z" />
</svg>
