<svg version="1.0" xmlns="http://www.w3.org/2000/svg" viewBox="0 0 512.000000 512.000000" fill="currentColor">
  <g transform="translate(0.000000,512.000000) scale(0.100000,-0.100000)" stroke="none">
    <path
      d="M2875 5070 c-33 -4 -72 -12 -87 -18 -46 -19 -307 -34 -513 -30 -177 4 -206 6 -255 26 -73 29 -101 28 -217 -9 -233 -74 -385 -194 -539 -427 -120 -180 -276 -494 -308 -620 -27 -101 -35 -239 -36 -550 l0 -294 -58 -81 c-187 -260 -293 -549 -323 -875 -24 -271 46 -591 201 -908 42 -87 57 -108 106 -147 134 -106 300 -182 516 -236 184 -46 293 -87 372 -140 33 -22 141 -123 240 -224 137 -140 190 -188 219 -197 31 -10 37 -16 37 -39 0 -30 27 -61 53 -61 22 0 30 76 31 286 l1 172 -32 38 c-89 106 -108 180 -66 260 11 21 35 66 52 98 32 60 40 109 20 122 -16 10 -43 -30 -63 -92 -9 -29 -21 -56 -26 -59 -14 -9 -40 50 -50 112 -6 36 -24 80 -50 123 -50 83 -74 185 -65 280 7 70 6 70 -40 5 -13 -19 -14 -19 -14 7 -1 35 34 114 92 208 46 73 56 100 37 100 -16 0 -106 -96 -119 -129 -24 -57 -54 -32 -104 86 -28 68 -45 151 -76 393 -23 170 -43 246 -120 453 -28 77 -51 145 -51 153 0 11 7 13 27 8 26 -7 26 -7 20 40 -17 123 86 -11 141 -184 32 -102 35 -125 18 -159 -9 -16 -16 -49 -16 -73 1 -42 1 -43 18 -22 9 11 24 31 33 44 16 25 16 25 73 -89 60 -118 126 -300 126 -344 0 -14 4 -37 9 -50 8 -20 14 -23 42 -19 35 5 34 9 13 -58 -7 -24 13 -27 40 -7 15 11 19 32 23 104 6 98 16 129 33 103 20 -31 2 -192 -27 -241 -15 -25 -15 -30 1 -68 14 -37 14 -45 2 -70 -14 -26 -13 -30 10 -62 20 -28 26 -54 34 -144 10 -104 14 -124 24 -114 3 3 9 257 13 566 4 309 12 565 16 569 4 5 62 -48 127 -116 l119 -125 0 -915 1 -915 -76 -110 c-42 -60 -92 -126 -111 -147 l-35 -36 23 -15 c13 -9 42 -19 64 -22 22 -4 108 -29 191 -56 162 -52 303 -76 378 -65 37 6 49 13 61 35 8 16 25 31 37 35 58 15 338 -1 338 -19 0 -17 -43 -24 -182 -32 -65 -3 -118 -9 -118 -13 0 -11 103 -19 340 -25 l215 -7 62 69 c33 38 80 98 103 134 43 65 301 581 327 654 8 22 18 86 22 143 7 94 10 105 37 133 16 17 59 50 95 74 89 58 185 153 209 209 29 64 39 164 40 378 0 330 -25 544 -86 719 -45 131 -139 329 -204 429 -60 94 -67 125 -74 312 -7 162 -36 409 -66 558 -32 155 -139 482 -203 620 -37 79 -188 239 -314 334 -157 118 -347 216 -479 249 -75 19 -202 26 -279 17z m-630 -894 c19 -14 18 -15 -13 -33 -17 -10 -32 -21 -32 -25 0 -9 71 -58 84 -58 5 0 24 11 43 26 l33 25 0 -51 c0 -31 8 -66 20 -90 40 -78 16 -81 -69 -9 -34 28 -101 75 -149 104 -100 60 -112 83 -60 108 41 20 118 22 143 3z m-121 -130 c80 -53 174 -133 187 -159 14 -26 3 -34 -19 -14 -25 23 -39 21 -74 -8 -26 -22 -68 -34 -68 -20 0 2 10 25 22 49 30 62 18 74 -75 78 l-71 3 -8 35 c-11 48 -2 80 21 80 11 0 49 -20 85 -44z m884 -115 c-4 -53 -28 -70 -28 -19 0 18 3 51 7 72 6 37 7 38 15 16 5 -13 8 -44 6 -69z m-475 -146 c28 -24 65 -47 81 -50 62 -13 67 -16 61 -36 -4 -10 -3 -24 0 -29 9 -15 35 7 35 30 0 44 62 23 74 -25 4 -14 11 -25 17 -25 13 0 7 40 -12 88 -13 30 -12 35 4 47 25 18 168 29 301 22 121 -6 172 -17 207 -46 22 -17 22 -21 10 -59 -17 -51 -10 -61 57 -85 27 -10 64 -31 83 -46 l34 -29 -27 -7 c-21 -5 -28 -13 -28 -32 0 -24 -2 -25 -37 -19 -21 4 -99 9 -173 12 -233 10 -315 -19 -456 -161 -103 -104 -138 -172 -158 -310 -23 -159 -38 -320 -41 -460 -2 -71 -4 -131 -4 -133 -3 -10 -51 32 -192 168 -174 167 -188 188 -175 274 6 39 17 55 74 113 62 62 70 75 91 147 12 44 40 115 62 157 21 43 39 81 39 85 0 3 -21 -17 -46 -45 -25 -28 -49 -51 -54 -51 -4 0 -2 21 6 47 18 59 18 68 -1 53 -41 -34 -27 40 20 109 19 27 40 64 48 83 14 34 69 88 89 88 6 0 7 -22 3 -62 l-7 -63 32 33 c18 18 35 30 37 28 3 -3 0 -21 -7 -41 -7 -20 -10 -38 -8 -41 6 -5 138 87 157 110 19 23 -1 20 -34 -6 l-28 -22 -84 89 c-98 105 -129 145 -113 145 7 0 35 -20 63 -45z m900 -401 c73 -30 143 -65 156 -77 43 -40 121 -160 135 -208 8 -27 17 -122 21 -225 8 -207 -11 -2334 -22 -2385 l-7 -34 -8 30 c-5 17 -13 505 -19 1085 -11 1237 -17 1406 -52 1509 -31 88 -76 160 -131 207 -39 34 -247 144 -273 144 -6 0 -15 5 -19 12 -15 24 91 -3 219 -58z m-323 49 c-63 -11 -178 -46 -207 -64 -18 -11 -41 -19 -50 -17 -15 3 -13 7 11 23 50 33 157 65 216 63 30 0 44 -3 30 -5z m-1486 -36 c6 -9 7 -19 3 -23 -9 -9 -37 15 -37 33 0 18 20 12 34 -10z m714 -184 c-2 -10 -10 -18 -18 -18 -8 0 -16 8 -18 18 -2 12 3 17 18 17 15 0 20 -5 18 -17z m694 -19 c31 -16 52 -16 158 2 33 5 39 2 87 -49 29 -30 65 -80 80 -111 26 -53 26 -58 14 -98 -16 -48 -18 -112 -6 -175 6 -36 4 -49 -19 -87 -32 -54 -102 -116 -132 -116 -12 0 -35 7 -50 15 -38 20 -95 19 -138 -1 -20 -10 -44 -14 -59 -10 -32 8 -109 85 -143 142 l-27 45 19 42 c23 51 23 123 0 159 -33 51 12 140 112 220 53 43 61 44 104 22z m-1517 -145 c44 -12 55 -23 55 -55 0 -12 10 -33 21 -48 38 -48 10 -41 -42 10 -55 54 -95 104 -82 104 4 0 26 -5 48 -11z m63 -239 c36 -22 52 -54 52 -106 0 -20 10 -58 22 -85 21 -50 21 -51 2 -69 -10 -10 -80 -53 -154 -96 -183 -104 -243 -146 -322 -221 -56 -54 -71 -63 -102 -63 -32 0 -81 19 -124 48 -8 6 16 7 62 4 74 -4 76 -4 107 27 26 26 30 37 25 61 -8 41 6 71 69 153 30 39 55 74 55 79 0 31 -161 -138 -181 -189 -5 -14 -6 -43 -2 -66 6 -40 5 -41 -12 -27 -46 38 -59 131 -22 166 12 12 33 50 46 84 13 34 29 64 35 66 9 3 11 23 8 62 -5 56 -4 57 15 40 24 -22 37 -22 73 -2 35 21 55 14 64 -23 16 -62 74 -171 95 -178 24 -7 100 15 149 45 28 17 32 25 32 63 0 24 -9 77 -20 118 -20 77 -25 129 -12 129 4 0 22 -9 40 -20z m478 -114 c31 -57 34 -67 19 -65 -19 4 -58 73 -70 124 -11 42 5 24 51 -59z m197 -67 c10 -43 -6 -89 -30 -89 -10 0 -31 11 -48 25 -27 22 -28 24 -9 25 26 0 39 15 48 53 9 37 28 30 39 -14z m-23 -186 c0 -22 -15 -15 -33 16 -24 41 -21 48 8 21 14 -13 25 -29 25 -37z m24 -58 c7 -20 -3 -45 -19 -45 -18 0 -24 21 -13 43 11 21 24 22 32 2z m716 -75 c30 -22 60 -85 60 -128 0 -36 -39 -98 -76 -122 -59 -40 -145 -14 -180 52 -39 74 -8 183 60 214 38 18 99 10 136 -16z m-1540 -100 c-19 -16 -62 -45 -95 -65 -54 -32 -65 -35 -110 -29 -27 3 -54 10 -59 14 -9 9 40 25 107 35 20 3 70 23 110 44 39 22 74 37 77 34 3 -2 -11 -17 -30 -33z m-362 -114 c2 -10 0 -22 -5 -27 -20 -20 -62 18 -47 42 10 16 49 5 52 -15z m642 -10 c0 -3 -22 -31 -50 -62 -27 -31 -54 -73 -60 -93 -11 -40 -14 -241 -4 -290 4 -18 30 -58 60 -92 30 -33 54 -62 54 -64 0 -25 -122 81 -145 126 -12 21 -15 68 -15 196 l1 168 72 57 c66 53 87 65 87 54z m-347 -50 c3 -8 3 -16 0 -19 -9 -10 -33 5 -33 19 0 18 26 18 33 0z m2915 -226 c0 -177 -9 -248 -21 -175 -9 52 -9 268 0 331 12 88 22 17 21 -156z m195 194 c9 -9 -4 -34 -18 -34 -14 0 -27 25 -18 34 4 3 12 6 18 6 6 0 14 -3 18 -6z m-3423 -53 c0 -11 -4 -23 -10 -26 -6 -4 -10 5 -10 19 0 14 5 26 10 26 6 0 10 -9 10 -19z m256 -136 c8 -33 -3 -77 -19 -72 -13 4 -22 60 -13 83 8 22 25 16 32 -11z m3211 -11 c3 -9 -2 -32 -11 -51 -14 -29 -19 -33 -31 -23 -19 16 -19 40 1 68 18 26 32 28 41 6z m-1096 -53 c22 -22 29 -39 29 -68 0 -47 -41 -113 -71 -113 -92 0 -123 155 -39 197 37 19 48 16 81 -16z m-2351 -236 c0 -16 -6 -25 -15 -25 -15 0 -21 31 -8 43 13 14 23 6 23 -18z m2347 -30 c34 -24 47 -76 29 -118 -25 -60 -81 -72 -126 -27 -29 29 -28 106 2 137 25 26 64 30 95 8z m188 -250 c-25 -44 -45 -58 -45 -32 0 21 63 103 68 89 2 -7 -8 -32 -23 -57z m-1805 -25 c0 -12 -28 -25 -36 -17 -9 9 6 27 22 27 8 0 14 -5 14 -10z m-46 -82 c-7 -25 -25 -51 -30 -45 -2 2 1 18 7 35 12 36 34 45 23 10z m185 -52 c8 -10 9 -16 1 -21 -13 -8 -30 3 -30 21 0 18 14 18 29 0z m180 -258 c64 -86 131 -236 131 -295 0 -41 -24 -20 -37 32 -7 26 -31 80 -54 119 -68 116 -87 150 -94 174 -11 38 12 25 54 -30z m1149 -40 c-7 -19 -38 -22 -38 -4 0 10 9 16 21 16 12 0 19 -5 17 -12z m126 -168 c16 -6 26 -17 26 -30 0 -20 -1 -20 -32 -3 -49 26 -337 26 -365 1 -21 -19 -43 -24 -43 -10 0 15 34 40 60 45 50 9 329 7 354 -3z m-614 -160 c8 -15 7 -28 -5 -54 -20 -42 -102 -143 -137 -169 -34 -25 -78 -17 -78 15 0 24 96 154 147 199 40 34 58 37 73 9z m713 -9 c10 -7 17 -25 17 -40 0 -40 -41 -114 -71 -128 -14 -7 -100 -19 -191 -28 -92 -8 -179 -20 -194 -25 -16 -6 -52 -31 -80 -56 -56 -47 -77 -53 -112 -28 -61 42 -65 113 -12 221 50 102 57 104 371 101 199 -2 260 -6 272 -17z" />
    <path d="M2263 2913 c-22 -57 3 -190 28 -151 10 15 12 113 3 146 -8 26 -22 29 -31 5z" />
    <path
      d="M3024 3065 c-36 -16 -94 -68 -94 -85 0 -6 14 -1 30 12 76 57 95 68 122 68 104 0 187 -111 175 -234 -4 -49 -4 -49 10 -21 20 37 18 126 -3 167 -21 43 -52 76 -86 94 -34 17 -113 17 -154 -1z" />
    <path d="M2026 1944 c-9 -24 -7 -54 4 -54 12 0 30 33 30 54 0 21 -26 21 -34 0z" />
    <path d="M2280 1284 c0 -14 4 -23 10 -19 6 3 10 15 10 26 0 10 -4 19 -10 19 -5 0 -10 -12 -10 -26z" />
    <path d="M2261 979 c-6 -18 -11 -59 -11 -91 0 -87 31 -133 45 -67 8 37 -4 189 -15 189 -4 0 -13 -14 -19 -31z" />
  </g>
</svg>