<svg xmlns="http://www.w3.org/2000/svg" xmlns:xlink="http://www.w3.org/1999/xlink" aria-hidden="true"
    preserveAspectRatio="xMidYMid meet" viewBox="0 0 256 256">
    <path fill="currentColor"
        d="M238.3 152.5L211 50a12 12 0 0 0-22.9-1.1L167.5 104h-79L67.9 48.9A12 12 0 0 0 45 50L17.7 152.5a16.1 16.1 0 0 0 6.4 17.3l94.8 65.6a15.5 15.5 0 0 0 7.1 2.7h4a15.5 15.5 0 0 0 7.1-2.7l94.8-65.6a16.1 16.1 0 0 0 6.4-17.3Zm-205.1 4.1l9.7-36.6h34.6l34 90.9Zm111.3 54.3l34-90.9h34.6l9.7 36.6Z">
    </path>
</svg>