<svg fill="currentColor"
    viewBox="0 0 512 88"
    xmlns="http://www.w3.org/2000/svg">
    <!-- fill="#2F495E" -->
    <path d="M203.674 25.8244C204.372 26.5529 204.748 27.5328 204.714 28.5417V80.7788C204.743 81.898 204.325 82.9811 203.552 83.7897C202.778 84.6012 201.697 85.0461 200.577 85.014C199.95 85.015 199.325 84.9158 198.729 84.7205C198.183 84.5521 197.692 84.2385 197.309 83.8147L163.467 39.7526V81.2317C163.498 82.2446 163.11 83.2245 162.394 83.9399C161.678 84.6563 160.698 85.0451 159.686 85.014C158.683 85.0521 157.712 84.6604 157.018 83.937C156.326 83.2095 155.956 82.2346 155.99 81.2317V28.8844C155.964 27.7692 156.409 26.6951 157.213 25.9226C157.967 25.1491 159.011 24.7273 160.09 24.7604C160.769 24.7564 161.442 24.8856 162.073 25.1391C162.646 25.3615 163.149 25.7333 163.528 26.2162L197.223 70.3755V28.5417C197.193 27.5298 197.581 26.5499 198.297 25.8335C199.014 25.1181 199.994 24.7293 201.006 24.7604C202.006 24.7233 202.974 25.11 203.674 25.8244ZM273.193 25.8244C273.925 26.638 274.311 27.7051 274.27 28.7992V61.8448C274.34 66.1161 273.303 70.3334 271.259 74.0847C269.324 77.6236 266.447 80.5593 262.949 82.5663C259.323 84.6463 255.207 85.7194 251.027 85.6753C246.81 85.7415 242.651 84.6904 238.972 82.6274C235.457 80.6285 232.567 77.6917 230.624 74.1458C228.581 70.3945 227.543 66.1773 227.614 61.9059V28.8604C227.582 27.7402 228.026 26.6591 228.838 25.8856C229.664 25.078 230.78 24.6371 231.934 24.6622C233.023 24.6632 234.065 25.104 234.823 25.8856C235.625 26.645 236.069 27.7071 236.047 28.8113V61.8568C236.003 64.6783 236.716 67.4597 238.115 69.9105C240.752 74.5596 245.683 77.4342 251.027 77.4382C253.711 77.4573 256.353 76.774 258.689 75.4554C261.047 74.1518 263.01 72.2371 264.368 69.9105C265.789 67.4678 266.518 64.6833 266.473 61.8568V28.8113C266.433 27.7262 266.8 26.6661 267.501 25.8375C268.225 25.0279 269.269 24.58 270.353 24.6131C271.43 24.588 272.466 25.0299 273.193 25.8244ZM339.444 78.8209C339.961 79.5313 340.232 80.391 340.215 81.2687C340.261 82.3769 339.813 83.448 338.991 84.1944C338.234 84.9098 337.231 85.3086 336.189 85.3076C334.849 85.3587 333.58 84.7094 332.835 83.5943L316.104 61.2576L299.752 83.5572C299.016 84.6914 297.751 85.3697 296.399 85.3567C295.41 85.3788 294.457 84.988 293.768 84.2796C293.083 83.6494 292.693 82.7626 292.691 81.8318C292.709 80.7958 293.075 79.7959 293.731 78.9923L311.379 54.9664L293.645 31.1248C293.091 30.4274 292.786 29.5668 292.776 28.677C292.753 27.5729 293.198 26.5098 294 25.7513C294.758 24.9698 295.8 24.5279 296.888 24.5269C297.53 24.5309 298.162 24.6812 298.736 24.9678C299.343 25.2553 299.863 25.6992 300.241 26.2533L316.777 48.4676L333.154 26.4737C333.876 25.3545 335.091 24.6491 336.421 24.576C337.459 24.582 338.446 25.0269 339.138 25.8004C339.891 26.4717 340.333 27.4236 340.363 28.4315C340.334 29.3163 340.034 30.1699 339.505 30.8793L321.538 54.795L339.444 78.8209ZM401.554 25.8244C402.366 26.5629 402.817 27.6179 402.787 28.7131C402.817 29.7942 402.366 30.8322 401.554 31.5526C400.733 32.254 399.671 32.6207 398.588 32.5806H383.262V80.889C383.283 81.9931 382.838 83.0552 382.037 83.8147C380.245 85.4138 377.538 85.4138 375.746 83.8147C374.949 83.0522 374.505 81.9921 374.522 80.889V32.5806H359.236C358.147 32.6217 357.086 32.241 356.274 31.5155C355.486 30.7671 355.062 29.713 355.111 28.6279C355.076 27.5699 355.5 26.5479 356.274 25.8244C357.086 25.1 358.147 24.7183 359.236 24.7604H398.588C399.681 24.7203 400.743 25.102 401.554 25.8244Z"/>
    <!-- fill="#00C58E" -->
    <path d="M420.411 83.472C417.616 81.8939 415.301 79.6045 413.688 76.8381C413.207 76.1547 412.937 75.3472 412.906 74.5135C412.906 73.4334 413.377 72.4084 414.199 71.7101C414.9 70.9766 415.852 70.5388 416.874 70.4867C418.407 70.6299 419.82 71.4115 420.752 72.6409C422.666 75.788 426.102 77.6877 429.779 77.6336C432.775 77.7038 435.661 76.5555 437.785 74.4514C439.929 72.4184 441.122 69.5749 441.071 66.6191V28.8844C441.051 27.7702 441.522 26.7042 442.354 25.9597C443.156 25.1702 444.238 24.7293 445.36 24.7353C446.502 24.6802 447.614 25.102 448.426 25.8986C449.197 26.6841 449.618 27.7552 449.588 28.8604V66.6802C449.618 70.0698 448.726 73.4044 447.003 76.3241C445.3 79.2347 442.845 81.6385 439.909 83.2887C436.823 85.0351 433.326 85.9308 429.779 85.8837C426.503 85.9178 423.267 85.0862 420.411 83.472ZM479.597 84.1083C476.19 82.8137 473.054 80.8729 470.379 78.3931C469.277 77.5464 468.615 76.2459 468.585 74.8562C468.595 73.7981 469.036 72.7912 469.808 72.0648C470.539 71.2762 471.571 70.8323 472.643 70.8414C473.555 70.8283 474.427 71.166 475.088 71.7832C477.162 73.7571 479.567 75.3452 482.192 76.4713C484.837 77.5224 487.663 78.0374 490.498 77.9893C493.744 78.0915 496.931 77.2168 499.666 75.4804C501.94 74.2009 503.373 71.8113 503.413 69.2012C503.453 66.3977 502.041 63.7736 499.666 62.2736C496.229 60.2547 492.462 58.87 488.534 58.1856C482.603 56.9622 478.064 54.9914 474.867 52.237C471.681 49.4837 470.098 45.6652 470.098 40.7937C470.028 37.5944 470.97 34.4553 472.793 31.8221C474.637 29.208 477.182 27.1651 480.138 25.9226C483.514 24.4988 487.141 23.7945 490.809 23.8546C494.245 23.8325 497.652 24.4167 500.878 25.58C503.734 26.5408 506.339 28.0969 508.543 30.1459C509.716 31.0126 510.447 32.3592 510.527 33.8171C510.527 34.8551 510.106 35.848 509.365 36.5714C508.653 37.367 507.631 37.8139 506.559 37.7948C505.838 37.8229 505.137 37.5734 504.586 37.0975C502.802 35.4222 500.688 34.1347 498.383 33.3151C495.999 32.3522 493.444 31.8462 490.869 31.8221C487.642 31.6568 484.446 32.4855 481.701 34.1968C479.577 35.6066 478.294 37.9902 478.294 40.5432C478.294 43.0962 479.577 45.4788 481.701 46.8886C484.837 48.7172 488.264 49.9997 491.821 50.683C495.608 51.4285 499.305 52.5817 502.842 54.1227C505.507 55.303 507.792 57.2117 509.425 59.6305C511.078 62.4099 511.88 65.6142 511.74 68.8465C511.79 72.0237 510.808 75.1307 508.944 77.7078C506.99 80.364 504.355 82.448 501.319 83.7416C497.983 85.2014 494.376 85.9358 490.739 85.8958C486.941 85.9659 483.174 85.3607 479.597 84.1083Z" />
    <!-- fill="#00C58E" -->
    <path d="M35.7629 84.3047C35.6757 84.1504 35.5976 83.991 35.5304 83.8267C35.0605 82.7406 34.9162 81.5423 35.1136 80.376H7.34335L48.614 7.74713L62.1634 31.5656L66.0921 24.6131L54.281 3.80643C53.9504 3.20626 51.9555 0 48.5158 0C46.9618 0 44.7344 0.673322 42.9228 3.85554L1.11323 77.3651C0.758533 78.0013 -0.967867 81.3429 0.746481 84.3047C1.52901 85.6503 3.19426 87.2544 6.86543 87.2544H41.8829C38.2347 87.2544 36.5464 85.6753 35.7629 84.3047Z" />
    <!-- fill="#108775" -->
    <path d="M116.273 77.3651L81.917 16.8419C81.5623 16.2047 79.5794 12.9864 76.1287 12.9864C74.5736 12.9864 72.3463 13.6467 70.5347 16.8289L66.0921 24.6131L70.0448 31.5656L76.1648 20.7335L110.153 80.376H97.2289C97.3942 81.3619 97.3011 82.3739 96.9594 83.3127C96.8873 83.5201 96.797 83.7215 96.6898 83.9129L96.5796 84.1333C94.8422 87.0951 91.0849 87.2544 90.3505 87.2544H110.57C111.316 87.2544 115.062 87.0951 116.799 84.1333C117.571 82.7867 118.122 80.5223 116.273 77.3651Z" />
    <!-- fill="#2F495E" -->
    <path d="M96.5806 84.1333L96.6908 83.9129C96.798 83.7215 96.8872 83.5201 96.9594 83.3127C97.302 82.3739 97.3942 81.3619 97.2289 80.376C97.0385 79.3119 96.6567 78.2919 96.1026 77.3651L70.0698 31.5656L66.0921 24.6131L62.1393 31.5656L36.1185 77.3651C35.6125 78.3029 35.2729 79.3219 35.1146 80.376C34.9052 81.5382 35.0364 82.7376 35.4943 83.8267C35.5614 83.991 35.6396 84.1504 35.7267 84.3047C36.5093 85.6503 38.1745 87.2544 41.8457 87.2544H90.3134C91.0849 87.2544 94.8422 87.0951 96.5806 84.1333ZM66.0921 38.5172L89.8855 80.376H42.3116L66.0921 38.5172Z" />
</svg>
