<svg fill="currentColor"
    viewBox="0 0 512 278"
    xmlns="http://www.w3.org/2000/svg">
    <path fill-rule="evenodd"
        clip-rule="evenodd"
        d="M334.02 203.17C333.95 205.08 329.47 207.62 328 208.55C321.24 212.83 311.53 215.67 305.19 209.33C299.06 203.2 300.779 191.76 307.399 187.7C310.719 185.69 315.03 184.75 319.56 184.36C323.17 184.06 330.57 183.41 333.95 183.8L334.02 203.17ZM288.31 144.08L290.95 154.51C295.41 153.42 298.09 151.85 304.81 150.52C310.04 149.51 315.73 148.93 321.33 149.65C326.97 150.38 330.12 152.49 332.06 156.68C333.04 158.78 333.57 161.28 333.85 163.88L333.78 172.32C333.41 172.51 316.91 173.55 314.54 173.85C298.07 175.97 281.5 184.92 284.08 205.61C285.68 218.48 292.62 224.35 305.62 225.92C312.76 226.78 317.47 225.96 323.37 223.46C325.86 222.41 328.18 221.19 330.28 219.86C333.1 218.12 335.559 215.59 336.129 215.27L337.87 224.12H351.23C351.48 221.41 351.28 188.32 351.28 184.64C351.28 178.04 351.28 171.46 351.28 164.85C351.28 158.46 350.8 153.42 347.8 148.67C338.75 134.26 319.07 134.94 302.81 138.87C299.17 139.74 290.53 142.12 288.31 144.08Z"
        fill="#ED1E24"/>
    <path fill-rule="evenodd"
        clip-rule="evenodd"
        d="M494.659 204.26C493.509 204.91 492.3 206.08 490.98 207.04C487.22 209.76 482.53 212.27 477.57 212.89C462.84 214.7 459.38 199.52 464.11 191.69C469.17 183.34 485.2 183.8 494.71 183.76L494.659 204.26ZM449.03 144.08C449.13 145.7 451.13 153.28 451.8 154.46C454.28 153.96 459.73 151.66 465.71 150.5C474.37 148.78 488.61 147.34 492.78 156.68C494.48 160.5 495.71 171.06 494.51 172.27C493.76 172.82 486.53 172.87 484.87 172.98C475.31 173.58 467.4 174.31 459.1 178.68C450.3 183.29 442.99 191.38 444.8 205.66C446.45 218.64 453.39 224.3 466.36 225.92C475.89 227.11 483.38 224.65 491.02 219.85C494.34 217.76 495.749 215.95 496.879 215.2L498.56 224.09L512 224.11V164.85C512 158.18 511.48 153.52 508.44 148.54C499.68 134.19 479.46 135.15 463.57 138.86C459.85 139.72 451.35 142.09 449.03 144.08Z"
        fill="#ED1E24"/>
    <path fill-rule="evenodd"
        clip-rule="evenodd"
        d="M388.56 224.28L409.99 224.29C410.7 224.11 412.2 220.66 412.62 219.83C413.42 218.17 414.06 216.66 414.82 215C416.26 211.87 417.59 208.37 418.85 205.02C424.02 191.16 428.2 176.05 431.76 161.6C432.64 158.03 436.76 140.85 436.76 138.39L420.74 138.38C417.25 138.34 418.67 137.9 417.73 145.03C416.76 152.42 415.209 159.82 413.419 166.79C412.109 171.88 403.04 204.24 401.23 206.32L396.649 188.99C394.939 183.22 393.36 177.67 391.56 172.01L383.659 146.88C382.749 144.05 381.9 141.02 380.85 138.43L361.919 138.38C361.999 140.05 374.359 178.68 375.189 181.4C377.459 188.76 379.649 195.51 381.879 202.74C384.049 209.86 386.59 217.22 388.56 224.28Z"
        fill="#ED1E24"/>
    <path fill-rule="evenodd"
        clip-rule="evenodd"
        d="M252.419 136.56L252.439 210.93C252.439 224.75 247.92 240.51 234.05 245.04C234.86 246.73 240.839 252.85 242.429 255.23C247.129 254.4 254.029 250.09 256.629 247.62C260.609 243.87 263.049 240.95 265.989 234.94C271.869 222.97 270.929 210.28 270.929 195.92C270.929 166.57 271.089 137.19 270.919 107.84C268.759 107.46 256.069 107.71 252.419 107.72V136.56Z"
        fill="#ED1E24"/>
    <path fill-rule="evenodd"
        clip-rule="evenodd"
        d="M100.969 149.39L95.1494 140.93C93.2394 138.15 91.3695 135.05 89.5795 131.97C86.3195 126.29 82.3996 119.08 80.5996 111.91C77.3196 98.8 85.4195 90.6699 92.5695 82.0699C93.6495 80.7599 94.9196 79.5301 96.0896 78.3C103.57 70.4201 113.82 60.98 121.81 53.21C129.92 45.27 134.809 36.5 135.759 23.65C136.269 16.95 134.969 2.59 130.229 0C131.639 10.07 131.969 16.9 127.889 27.02C123.179 38.76 115.49 45.79 106.57 52.73C99.2795 58.4 87.3495 68.6401 81.0695 74.5601C76.9995 78.4201 70.1195 85.3301 67.2695 92.0601C63.0495 102.03 67.2295 108.55 71.7495 115.51C73.8995 118.83 76.0794 121.67 78.3794 124.64C81.0594 128.11 83.4395 130.5 85.5795 133.21C87.8395 136.09 90.6296 138.74 93.0996 141.47C94.6396 143.16 99.4594 148.33 100.969 149.39Z"
        fill="#ED1E24"/>
    <path fill-rule="evenodd"
        clip-rule="evenodd"
        d="M187.429 235.76C190.279 240.36 187.46 242.31 183.56 244.14C166.21 252.26 107.55 253.79 89.2295 254.05C70.5595 254.33 51.7395 253.58 33.6995 250.42C30.7795 249.92 17.9196 247.87 17.3296 244.46C16.9296 242.31 19.2094 240.7 20.3794 239.97C24.5294 237.39 32.1297 235.61 37.3597 234.66C38.8697 234.39 42.5295 233.99 43.6595 233.53C34.9195 232.25 7.22947 236.92 1.16947 245.54C-2.65053 250.96 3.74956 253.47 8.00956 254.86C23.9696 260.07 57.1895 261.13 74.7095 261.39C100.9 261.74 163.92 261.48 187.01 245.61C188.36 244.69 191.01 242.76 191.28 240.88C191.61 238.55 188.839 236.36 187.429 235.76Z"
        fill="#3C8ACE"/>
    <path fill-rule="evenodd"
        clip-rule="evenodd"
        d="M111.86 160.05C114.64 159.1 122.85 152.37 125.07 150.1C127.97 147.09 132.91 141.52 133.34 135.07C133.72 129.22 129.68 121.6 127.22 117.87C119.42 106.06 113.2 99.2899 123.75 86.1899C127.27 81.8299 131.1 78.41 135.57 74.72C140.92 70.3 149.68 64.2499 155.95 60.3199L163.1 55.72C159.32 56.22 149.3 60.23 145.35 61.71C140.03 63.71 133.91 66.75 129.27 69.42C113.35 78.63 97.6897 93.0299 104.1 112.95C108.43 126.42 121.049 134.49 120.139 144.59C119.589 150.77 113.65 156.96 111.86 160.05Z"
        fill="#ED1E24"/>
    <path fill-rule="evenodd"
        clip-rule="evenodd"
        d="M145.1 225.94C140.21 224.09 136.529 221.94 132.149 219.34C129.609 217.82 130.59 217.95 127.34 218.75C114.1 222.02 92.6195 222.06 78.7095 221.64C75.1395 221.52 65.0796 221.21 63.0496 217.84C61.7496 215.72 63.5095 214.17 64.1995 212.97C55.0895 214.8 45.7995 222.38 58.4795 228.68C72.7395 235.76 102.72 235.83 118.33 233.06C122.77 232.27 142.97 227.66 145.1 225.94Z"
        fill="#3C8ACE"/>
    <path fill-rule="evenodd"
        clip-rule="evenodd"
        d="M149.31 196.2C145.54 195.25 142.16 192.89 139.85 190.87C137.83 189.14 138.519 189.57 134.189 190.3C118.599 192.89 72.1794 197.43 58.8894 191.95C57.1694 191.24 55.1795 190.18 55.0595 188.15C54.9195 185.74 56.9595 184.44 57.8195 183.12C47.1295 184.45 36.8694 194.75 51.1794 199.67C67.3194 205.2 102.13 205.38 119.29 203.22C124.94 202.5 144.99 198.6 149.31 196.2Z"
        fill="#3C8ACE"/>
    <path fill-rule="evenodd"
        clip-rule="evenodd"
        d="M160.049 161.17C158.02 161.25 155.299 161.88 153.249 162.21C150.869 162.57 148.599 162.91 146.219 163.23C131.939 165.23 116.099 166.84 101.789 167.68C90.6295 168.34 48.5094 169.73 42.2294 163.87C41.7694 161.23 44.7793 159.57 46.6393 158.56C53.8493 154.69 61.5394 153.38 68.6494 151.16C58.8194 150.23 34.1094 157.3 25.1794 162.89C15.5194 168.91 31.6193 171.31 37.6393 172.15C72.8993 177.06 105.869 174.43 140.729 169.47C146.419 168.67 147.629 169 151.509 166.53C154.179 164.83 157.68 163.04 160.049 161.17Z"
        fill="#3C8ACE"/>
    <path fill-rule="evenodd"
        clip-rule="evenodd"
        d="M38.1995 267.34C48.0495 271.47 69.4796 273.99 80.6096 274.89C96.2496 276.17 113.42 275.87 129.06 274.77C149.3 273.33 173.3 271.01 191.11 261.97C195.35 259.81 202.979 254.65 203.709 249.7C202.439 250.28 201.339 251.44 200.149 252.24C168.739 273.86 96.9494 271.8 59.8894 269.16L38.1995 267.34Z"
        fill="#3C8ACE"/>
    <path fill-rule="evenodd"
        clip-rule="evenodd"
        d="M167.169 152.73C174.859 150.33 183.61 151.93 188.49 156.26C193.76 160.95 193.82 169.86 190.02 176.76C184.93 185.97 174.259 194.18 165.429 199.72C163.909 200.67 162.449 201.39 161.129 202.37C166.829 201.77 180.34 195.66 185.49 192.49C192.05 188.43 199.369 182.52 202.389 174.85C206.699 163.97 200.43 155.67 193.75 151.74C189.91 149.49 185.27 148.14 179.86 148.37C175.73 148.54 169.029 150.18 167.169 152.73Z"
        fill="#3C8ACE"/>
</svg>
