<svg viewBox="0 0 512 216"
    xmlns="http://www.w3.org/2000/svg">
    <!-- fill="#202020" -->
    <path fill-rule="evenodd" clip-rule="evenodd" d="M172.492 170.406C172.489 170.405 172.488 170.401 172.488 170.398C170.965 168.685 170.234 165.519 169.455 162.139L169.439 162.069C168.656 158.665 167.779 154.993 164.975 152.614C164.97 152.608 164.962 152.605 164.957 152.598C164.402 152.115 163.831 151.708 163.258 151.367C162.681 151.027 162.099 150.751 161.515 150.53C165.412 139.009 163.885 127.534 159.949 117.168C155.122 104.441 146.693 93.354 140.256 85.7703L139.836 85.2432C132.778 76.3722 126.004 67.8594 126.141 55.3991C126.149 54.6304 126.161 53.8358 126.172 53.0183V53.0176L126.172 53.0165L126.172 53.0151L126.172 53.0133L126.172 53.0111C126.451 33.2058 126.918 0.0459958 94.0496 3.23304e-05C92.6588 -0.00156322 91.2056 0.0558765 89.6931 0.177138C57.6765 2.74527 59.5667 31.3895 60.7003 48.5687V48.5687C60.9211 51.9141 61.1131 54.8247 61.0205 57.0233C60.3195 66.8902 58.3141 74.6653 51.5073 84.3088C43.5129 93.7864 32.2519 109.129 26.9207 125.102C24.4047 132.638 23.2075 140.321 24.3119 147.593C23.9662 147.903 23.6381 148.228 23.3212 148.56C22.1014 149.86 21.0469 151.302 20.044 152.673C19.1178 153.94 18.2357 155.146 17.3082 156.124C15.7684 157.657 13.6742 158.378 11.3376 159.183C10.9322 159.322 10.5195 159.465 10.1012 159.614C7.27315 160.625 4.16822 162.117 2.28445 165.722C2.28445 165.722 2.28445 165.725 2.28125 165.725L2.28004 165.727L2.27793 165.732C2.2771 165.734 2.27624 165.736 2.27521 165.737L2.27333 165.74L2.27165 165.742C1.38498 167.392 1.0969 169.173 1.0969 170.977C1.0969 172.648 1.34337 174.339 1.59465 175.968L1.64573 176.301C2.14808 179.566 2.62001 182.634 1.94195 184.734C-0.29392 190.836 -0.583607 195.053 0.992867 198.114C2.57414 201.183 5.81992 202.534 9.48982 203.3C11.8091 203.782 14.388 204.074 17.078 204.378L17.0785 204.378C22.9015 205.038 29.2449 205.756 34.6014 208.588L35.2768 207.321L34.6094 208.589C42.9959 212.961 51.4977 214.514 58.2789 212.969C63.1988 211.851 67.1904 208.931 69.2406 204.438C71.726 204.426 74.3244 203.928 77.3434 203.349L77.3441 203.349L77.3446 203.349L77.3454 203.349L77.3455 203.349C80.7706 202.692 84.7369 201.932 89.6931 201.66C92.6623 201.422 95.9787 201.901 99.6021 202.424C103.699 203.016 108.189 203.665 113.014 203.397C113.251 204.38 113.595 205.326 114.065 206.225C114.068 206.229 114.07 206.233 114.072 206.237L114.072 206.237C114.075 206.242 114.077 206.246 114.08 206.25C117.604 213.275 124.15 216.489 131.13 215.94C138.116 215.391 145.544 211.284 151.552 204.162L150.449 203.239L151.558 204.15C155.59 199.277 161.493 196.414 166.834 193.824C169.077 192.736 171.22 191.696 173.085 190.576C176.233 188.682 178.787 186.311 178.987 182.866C179.182 179.424 177.155 175.566 172.492 170.406ZM156.954 149.691C156.405 149.67 155.865 149.673 155.339 149.686C155.291 149.687 155.244 149.687 155.193 149.687C156.55 145.418 153.549 142.267 145.552 138.661C137.26 135.026 130.651 135.385 129.536 142.763C129.465 143.149 129.408 143.543 129.364 143.942C128.743 144.159 128.121 144.43 127.495 144.77C123.603 146.895 121.476 150.748 120.293 155.478C119.113 160.2 118.772 165.909 118.449 172.328V172.333C118.263 175.33 117.1 179.31 115.855 183.567C115.76 183.893 115.664 184.22 115.568 184.549C101.983 194.21 83.1313 198.395 67.1217 187.502C66.0382 185.791 64.793 184.097 63.5126 182.425C62.7143 181.383 61.8931 180.349 61.0803 179.325L61.0207 179.25C62.6612 179.253 64.0584 178.983 65.1883 178.474C66.5919 177.838 67.5762 176.82 68.066 175.511C69.0423 172.895 68.0612 169.203 64.937 164.986C61.8129 160.77 56.5217 156.014 48.7466 151.259V151.257C43.0329 147.714 39.8415 143.372 38.3451 138.659C36.8486 133.943 37.0567 128.843 38.2122 123.811C40.4241 114.148 46.1074 104.75 49.7341 98.8532C50.7088 98.1384 50.083 100.184 46.061 107.627C42.4599 114.431 35.7235 130.132 44.9454 142.391C45.1919 133.668 47.2821 124.773 50.7904 116.451C51.6577 114.491 52.6857 112.286 53.7991 109.899C59.2444 98.2232 66.7311 82.17 67.4354 68.9192C67.8755 69.2367 69.3784 70.2482 70.0474 70.6296L70.0489 70.6309L70.0522 70.6312C71.3077 71.3679 72.3631 72.3231 73.4604 73.3163C74.0765 73.8741 74.7059 74.4437 75.3914 74.9934C77.304 76.5235 79.6903 77.8462 83.2978 78.0553C83.6435 78.0744 83.9828 78.0856 84.3125 78.0856C88.032 78.0856 90.9305 76.8762 93.3456 75.4992C94.2495 74.9838 95.0907 74.4495 95.8864 73.9441C97.4015 72.9819 98.7515 72.1244 100.055 71.7018C100.056 71.6986 100.061 71.6986 100.061 71.6986C104.262 70.3902 107.599 68.0735 109.498 65.3738C112.761 78.1957 120.349 96.7168 125.227 105.754C127.82 110.547 132.978 120.736 135.206 133.011C136.618 132.968 138.175 133.172 139.838 133.598C145.665 118.538 134.897 102.319 129.973 97.8018C127.985 95.8775 127.889 95.0159 128.876 95.0558C134.215 99.7675 141.23 109.237 143.782 119.929C144.945 124.805 145.193 129.931 143.946 134.991C144.553 135.241 145.176 135.516 145.805 135.814C155.158 140.353 158.615 144.302 156.954 149.691ZM108.112 50.4818C109.078 48.2735 109.519 46.11 109.498 43.5698C109.48 43.5045 109.48 43.4487 109.48 43.3833V43.3832C109.432 40.9085 108.958 38.8215 107.973 36.6851C106.967 34.4944 105.719 32.9291 103.989 31.675C102.284 30.4433 100.625 29.8737 98.685 29.8737H98.5921C96.6091 29.8944 94.9334 30.4863 93.2289 31.7755C91.526 33.0663 90.3176 34.6539 89.3397 36.8622C88.3618 39.0672 87.9457 41.2403 87.9729 43.7741V43.9671C87.9889 44.6835 88.0386 45.3648 88.1266 46.027C89.663 46.3924 91.8861 47.0226 93.6242 47.8858C93.5058 47.2013 93.4546 46.4961 93.4722 45.7254V45.7253C93.4722 45.6695 93.4722 45.6217 93.4802 45.5675C93.5282 44.1666 93.7699 42.9891 94.2628 41.8004C94.7574 40.6117 95.3511 39.7581 96.153 39.0911C96.9148 38.4561 97.6526 38.1641 98.5009 38.1609C98.5441 38.1609 98.5841 38.1609 98.6273 38.1641C99.5316 38.1944 100.285 38.5263 101.039 39.2587C101.793 39.9926 102.313 40.8734 102.723 42.1003C103.113 43.2683 103.291 44.4091 103.262 45.743C103.262 45.7612 103.261 45.778 103.259 45.794C103.257 45.808 103.255 45.8213 103.253 45.8343L103.25 45.8523C103.249 45.8613 103.248 45.8703 103.247 45.8793C103.245 45.89 103.245 45.9009 103.245 45.9121C103.198 47.305 102.957 48.473 102.462 49.6696C102.239 50.2109 101.761 50.6771 101.338 51.089L101.338 51.0891C101.141 51.2806 100.956 51.4604 100.815 51.6306C100.967 51.683 101.117 51.7344 101.269 51.7864L101.27 51.7865L101.27 51.7865C101.733 51.9448 102.212 52.1085 102.787 52.3246C103.55 52.6118 104.4 52.9501 105.364 53.3601C105.641 53.4734 105.908 53.5915 106.166 53.7143C106.927 52.7985 107.561 51.7406 108.112 50.4818ZM80.178 46.1007C79.9235 46.1741 79.6754 46.2507 79.4305 46.3352C78.0413 46.8139 76.9386 47.3404 75.8727 48.0441C75.9767 47.3085 75.9911 46.5634 75.9095 45.7289C75.9031 45.6842 75.9031 45.646 75.9031 45.6013C75.791 44.4956 75.5558 43.5685 75.1653 42.632C74.7475 41.6587 74.2802 40.971 73.6672 40.4413C73.1118 39.9626 72.5853 39.7408 72.0059 39.7472C71.9467 39.7472 71.8859 39.7488 71.8266 39.7536C71.1752 39.8094 70.6343 40.1269 70.1205 40.7492C69.61 41.3683 69.2755 42.1389 69.0322 43.1617C68.7905 44.1812 68.7265 45.1832 68.8273 46.3336C68.8273 46.3568 68.8301 46.3775 68.8329 46.3983C68.8358 46.419 68.8386 46.4397 68.8386 46.4629C68.949 47.5782 69.1747 48.5052 69.5732 49.4418C69.9813 50.4055 70.4566 51.0932 71.0712 51.6213C71.1752 51.7106 71.2761 51.7904 71.3753 51.8606C71.1793 52.0122 71.0031 52.1501 70.8377 52.2796L70.8341 52.2825L70.8325 52.2837C70.4639 52.5723 70.1485 52.8192 69.786 53.0828C69.4499 53.3269 69.0514 53.6189 68.5873 53.9619C67.5742 53.0142 66.7835 51.8271 66.0921 50.2571C65.2727 48.4047 64.8358 46.549 64.7045 44.3583V44.3408C64.5829 42.1501 64.7989 40.2658 65.4023 38.3176C66.0073 36.3678 66.8155 34.959 67.9903 33.8006C69.1634 32.639 70.3446 32.0551 71.7706 31.9817C71.8811 31.9769 71.9899 31.9737 72.0987 31.9737C73.3887 31.9769 74.5411 32.4045 75.7334 33.3538C77.025 34.3846 78.0029 35.7009 78.8223 37.5565C79.6434 39.4121 80.0787 41.2678 80.2004 43.4585V43.476C80.2596 44.395 80.2516 45.2614 80.178 46.1007ZM96.0712 65.8502L96.4595 65.6481C98.5305 64.5711 101.08 62.69 102.711 61.2731C104.34 59.8547 105.201 58.6149 104.038 58.4793C103.368 58.4012 103.101 58.7802 102.725 59.3126C102.449 59.7048 102.114 60.1801 101.515 60.6174C101.11 60.9143 100.684 61.2322 100.247 61.5579L100.246 61.5589L100.245 61.5597L100.245 61.5598L100.245 61.5599C98.7001 62.7126 97.0236 63.9637 95.6416 64.7371C92.5095 66.4874 87.38 69.0594 82.985 69.0594C78.5821 69.0594 75.0658 67.0331 72.4283 64.9509C71.2801 64.0413 70.3046 63.1269 69.4976 62.3703L69.3053 62.1902L69.1521 62.047C68.9156 61.8265 68.7454 61.5056 68.5737 61.1817C68.2793 60.6266 67.9804 60.0629 67.3355 59.9823C66.7273 59.9345 66.5513 61.5699 68.0317 62.7347C68.1447 62.8401 68.2625 62.9507 68.3851 63.0659L68.3853 63.066C69.1891 63.8208 70.2012 64.7712 71.412 65.7263C74.2 67.9298 78.0764 70.1907 82.985 70.1907C87.7338 70.1907 92.2084 67.8612 96.0712 65.8502ZM86.6589 51.3405C86.7643 51.6781 87.1534 51.7614 87.5474 51.8457C87.7641 51.8921 87.9822 51.9387 88.1554 52.0282C88.3109 52.108 88.4553 52.2222 88.5991 52.336C88.8519 52.5361 89.1031 52.7348 89.4101 52.743C89.8695 52.7573 90.5865 52.585 90.6457 52.1303C90.7257 51.5287 89.8455 51.1474 89.2789 50.9272C88.5507 50.6448 87.616 50.5012 86.9326 50.8794C86.7758 50.9671 86.6045 51.1697 86.6589 51.3405ZM80.7774 51.8458C81.172 51.7615 81.5613 51.6782 81.6667 51.3405C81.7195 51.1697 81.5483 50.9671 81.393 50.8794C80.708 50.5012 79.7749 50.6448 79.0467 50.9272C78.4801 51.1474 77.5999 51.5287 77.6799 52.1303C77.7391 52.585 78.4545 52.7573 78.9139 52.743C79.2226 52.7348 79.4746 52.5352 79.7277 52.3347C79.8708 52.2213 80.0143 52.1077 80.1686 52.0282C80.3423 51.9388 80.5606 51.8921 80.7774 51.8458Z" />
    <!-- fill="#202020" -->
    <path d="M208.4 161.33V158.58L210.6 158.36C213.167 158.067 215.11 157.7 216.43 157.26C217.823 156.747 218.777 155.72 219.29 154.18C219.803 152.567 220.06 149.963 220.06 146.37V97.53C220.06 93.8633 219.803 91.26 219.29 89.72C218.777 88.18 217.823 87.19 216.43 86.75C215.11 86.2367 213.167 85.8333 210.6 85.54L208.4 85.32V82.57L224.9 82.9L239.09 82.57V85.1L237.33 85.32C235.203 85.54 233.553 85.87 232.38 86.31C231.28 86.75 230.51 87.7033 230.07 89.17C229.63 90.5633 229.41 92.91 229.41 96.21V142.08C229.41 145.673 229.593 148.643 229.96 150.99C230.4 153.337 231.537 155.06 233.37 156.16C235.203 157.26 238.173 157.81 242.28 157.81H250.53C256.91 157.81 261.493 156.123 264.28 152.75C267.14 149.303 268.827 144.353 269.34 137.9H271.76L270.66 161.33L224.68 161L208.4 161.33ZM278.73 161.33V158.8L280.49 158.58C282.617 158.287 284.23 157.957 285.33 157.59C286.504 157.15 287.31 156.233 287.75 154.84C288.19 153.373 288.41 150.99 288.41 147.69V124.48C288.41 120.667 287.604 118.247 285.99 117.22C284.45 116.12 282.287 115.57 279.5 115.57H278.73V113.04C281.737 113.04 284.634 112.967 287.42 112.82C290.207 112.6 293.104 112.233 296.11 111.72V147.69C296.11 150.99 296.33 153.373 296.77 154.84C297.21 156.233 297.98 157.15 299.08 157.59C300.254 157.957 301.904 158.287 304.03 158.58L305.79 158.8V161.33L292.26 161L278.73 161.33ZM290.94 98.85C289.034 98.85 287.53 98.19 286.43 96.87C285.33 95.55 284.78 93.9733 284.78 92.14C284.78 90.2333 285.33 88.6567 286.43 87.41C287.53 86.09 289.034 85.43 290.94 85.43C293.067 85.43 294.607 86.09 295.56 87.41C296.587 88.6567 297.1 90.2333 297.1 92.14C297.1 93.9733 296.587 95.55 295.56 96.87C294.607 98.19 293.067 98.85 290.94 98.85ZM309.99 161.33V158.8L311.75 158.58C313.877 158.287 315.49 157.957 316.59 157.59C317.763 157.15 318.57 156.233 319.01 154.84C319.45 153.373 319.67 150.99 319.67 147.69V124.48C319.67 120.667 318.863 118.247 317.25 117.22C315.71 116.12 313.547 115.57 310.76 115.57H309.99V113.04C312.997 113.04 315.893 112.967 318.68 112.82C321.467 112.6 324.363 112.233 327.37 111.72V120.63C329.057 118.137 331.44 115.937 334.52 114.03C337.6 112.05 341.193 111.06 345.3 111.06C350.287 111.06 354.21 112.343 357.07 114.91C360.003 117.403 361.47 120.997 361.47 125.69V147.69C361.47 150.99 361.69 153.373 362.13 154.84C362.57 156.233 363.34 157.15 364.44 157.59C365.613 157.957 367.263 158.287 369.39 158.58L371.15 158.8V161.33L357.62 161L344.09 161.33V158.8L345.85 158.58C347.977 158.287 349.59 157.957 350.69 157.59C351.863 157.15 352.67 156.233 353.11 154.84C353.55 153.373 353.77 150.99 353.77 147.69V125.69C353.77 122.023 352.817 119.237 350.91 117.33C349.003 115.35 346.327 114.36 342.88 114.36C340.24 114.36 337.857 114.983 335.73 116.23C333.603 117.403 331.843 118.87 330.45 120.63C329.057 122.39 328.03 124.077 327.37 125.69V147.69C327.37 150.99 327.59 153.373 328.03 154.84C328.47 156.233 329.24 157.15 330.34 157.59C331.513 157.957 333.163 158.287 335.29 158.58L337.05 158.8V161.33L323.52 161L309.99 161.33ZM398.51 162.21C393.743 162.21 389.967 161.037 387.18 158.69C384.467 156.27 383.11 152.713 383.11 148.02V126.68C383.11 123.38 382.89 121.033 382.45 119.64C382.01 118.173 381.203 117.22 380.03 116.78C378.93 116.34 377.317 116.01 375.19 115.79L373.43 115.57V113.04L386.96 113.37L390.81 113.26V147.58C390.81 151.173 391.727 153.923 393.56 155.83C395.393 157.737 397.887 158.69 401.04 158.69C403.753 158.69 406.137 158.103 408.19 156.93C410.317 155.683 412.113 154.107 413.58 152.2C415.12 150.293 416.33 148.35 417.21 146.37V126.68C417.21 123.38 416.99 121.033 416.55 119.64C416.11 118.173 415.303 117.22 414.13 116.78C413.03 116.34 411.417 116.01 409.29 115.79L407.53 115.57V113.04L421.06 113.37L424.91 113.26V148.79C424.91 151.577 425.24 153.667 425.9 155.06C426.633 156.38 427.66 157.26 428.98 157.7C430.373 158.14 432.06 158.36 434.04 158.36V160.89C431.033 160.89 428.283 160.927 425.79 161C423.297 161.073 420.437 161.403 417.21 161.99V151.87C416.477 153.043 415.707 154.07 414.9 154.95C412.993 157.077 410.683 158.837 407.97 160.23C405.257 161.55 402.103 162.21 398.51 162.21ZM435.172 161.33V158.8L436.602 158.58C439.975 158.067 442.725 156.93 444.852 155.17C447.052 153.337 449.032 151.43 450.792 149.45L460.472 138.56L444.962 121.51C443.202 119.603 441.735 118.21 440.562 117.33C439.462 116.377 438.142 115.827 436.602 115.68L435.612 115.57V113.04L447.932 113.37L460.252 113.04V115.57L458.492 115.9C458.199 115.973 457.685 116.12 456.952 116.34C456.219 116.56 455.522 116.89 454.862 117.33C454.275 117.697 453.982 118.247 453.982 118.98C453.982 119.86 454.605 121.033 455.852 122.5L465.862 133.5L475.652 122.5C476.679 121.4 477.192 120.3 477.192 119.2C477.192 118.32 476.642 117.587 475.542 117C474.442 116.34 473.159 115.9 471.692 115.68L471.032 115.57V113.04L483.792 113.37L492.152 113.04V115.57L490.942 115.68C487.935 115.973 485.295 117.037 483.022 118.87C480.822 120.703 478.769 122.683 476.862 124.81L467.512 135.37L480.822 150C482.509 151.833 484.305 153.63 486.212 155.39C488.119 157.15 490.135 158.213 492.262 158.58L493.472 158.8V161.22L482.582 161L468.942 161.22V158.69L470.702 158.47C473.562 158.103 474.992 157.297 474.992 156.05C474.992 155.683 474.882 155.243 474.662 154.73C474.515 154.143 474.149 153.557 473.562 152.97L462.122 140.43L452.332 151.76C451.819 152.273 451.379 152.86 451.012 153.52C450.719 154.107 450.572 154.693 450.572 155.28C450.572 156.013 450.865 156.71 451.452 157.37C452.039 157.957 453.029 158.323 454.422 158.47L456.182 158.69V161.33L445.842 161L435.172 161.33Z" />
</svg>
