<svg viewBox="0 0 512 145"
    xmlns="http://www.w3.org/2000/svg">
    <!-- fill="#02539A" -->
    <path fill-rule="evenodd" clip-rule="evenodd" d="M73.3101 145.049L34.1 105.996L55.77 83.8901L116.9 145.049H73.3101Z" />
    <!-- fill="#45D1FD" fill-opacity="0.85" -->
    <path fill-rule="evenodd" clip-rule="evenodd" d="M33.5601 106.077L72.54 67.1121H116.36L55.72 127.729L33.5601 106.077Z" />
    <!-- fill="#45D1FD" -->
    <path fill-rule="evenodd" clip-rule="evenodd" d="M0 72.1138L22.1 94.1734L116.36 0H72.38L0 72.1138Z" />
    <!-- fill="#6A6A6A" fill-opacity="0.85" -->
    <path d="M180.23 74.9597V116.364H184.83H189.43L189.54 98.395L189.7 80.372L206.91 80.2096L224.07 80.1014V75.7716V71.4417L206.91 71.3335L189.7 71.1711V56.8286V42.4862L208.8 42.3238L227.86 42.2155V37.8857V33.5559H204.04H180.23V74.9597Z" />
    <!-- fill="#6A6A6A" fill-opacity="0.85" -->
    <path d="M240.3 74.9597V116.364H244.9H249.51V74.9597V33.5559H244.9H240.3V74.9597Z" />
    <!-- fill="#6A6A6A" fill-opacity="0.85" -->
    <path d="M337.08 48.8187L336.91 57.0995L331.66 57.2618L326.36 57.4242V61.6999V66.0297H331.77H337.18V85.9468C337.18 107.758 337.29 108.895 340.38 112.629C341.24 113.658 343.25 115.227 344.81 116.093C347.25 117.392 348.55 117.717 352.39 117.879C355.21 118.042 357.86 117.879 359.05 117.446L361 116.797V112.305V107.758L358.78 108.516C353.91 110.248 349.2 108.732 347.47 104.89C346.49 102.725 346.38 101.209 346.38 84.269V66.0297H353.69H361V61.6999V57.3701H353.69H346.38V48.9811V40.5921H341.78H337.24L337.08 48.8187Z" />
    <!-- fill="#6A6A6A" fill-opacity="0.85" -->
    <path d="M378.86 48.981V57.37H373.72H368.57V61.6998V66.0296H373.66H378.8L379.02 86.1632C379.18 101.696 379.4 106.838 379.94 108.516C381.02 111.601 385.57 115.985 388.82 117.067C391.85 118.096 398.07 118.258 401.21 117.392L403.21 116.851V112.304C403.21 109.761 403.16 107.704 403.1 107.704C403 107.704 401.97 108.083 400.78 108.516C396.23 110.14 392.12 109.057 389.84 105.593C388.6 103.753 388.6 103.591 388.6 84.9184V66.0296H395.64H402.67V61.6998V57.37H395.64H388.6V48.981V40.592H383.73H378.86V48.981Z" />
    <!-- fill="#6A6A6A" fill-opacity="0.85" -->
    <path d="M432.98 55.7464C424.38 57.316 417.18 62.8906 413.28 71.0632C410.52 76.9084 410.03 79.1274 410.03 86.867C409.98 92.8746 410.14 94.4982 411.28 97.854C414.63 108.083 422.97 115.714 432.71 117.5C439.64 118.799 449.27 117.121 454.63 113.658C457.55 111.763 462.86 106.351 464.1 103.916L464.91 102.4L461.02 100.56L457.12 98.72L455.12 101.155C452.25 104.782 450.95 105.864 447.32 107.542C442.94 109.598 436.55 109.653 431.63 107.704C425.02 105.106 419.67 97.854 419.29 91.0344L419.18 88.4906L442.61 88.3283L466 88.22V84.2691C465.94 75.8801 463.29 68.7359 458.09 63.2695C451.92 56.8289 442.61 54.0686 432.98 55.7464ZM441.91 64.4602C445.97 65.2179 448.46 66.4627 451.06 69.1147C453.33 71.3879 455.6 75.7177 456.09 78.7486L456.42 80.6429H437.91H419.4L419.72 79.398C422.1 71.3338 427.79 65.5426 434.55 64.4061C438.12 63.8107 438.39 63.8107 441.91 64.4602Z" />
    <!-- fill="#6A6A6A" fill-opacity="0.85" -->
    <path d="M500.63 56.0168C496.63 57.1534 492.08 60.3466 489.92 63.594C488.89 65.1094 487.86 66.3542 487.59 66.4625C487.32 66.5707 487.1 64.6223 487.1 62.0244V57.3699H482.77H478.44V86.8667V116.364H483.04H487.59L487.75 97.529L487.92 78.7483L489.32 75.7716C493.54 66.7872 500.96 63.4857 510.81 66.3542C512 66.679 512 66.6248 512 61.5373C512 56.6122 511.95 56.3957 510.76 56.0709C507.56 55.3132 503.45 55.2591 500.63 56.0168Z" />
    <!-- fill="#6A6A6A" fill-opacity="0.85" -->
    <path d="M264.23 78.8568C264.44 99.153 264.55 100.614 265.63 103.916C267.74 110.302 270.88 113.982 276.46 116.526C278.62 117.5 279.98 117.717 285.5 117.717C291.67 117.717 292.15 117.609 295.62 115.985C299.41 114.199 303.9 110.518 304.44 108.732C304.66 108.137 305.09 107.758 305.36 107.812C305.74 107.975 305.9 109.598 305.85 112.196L305.74 116.364H310.34H314.99V86.8669V57.3701H310.12H305.31L305.14 76.9625L304.98 96.609L303.47 99.477C300.27 105.539 295.51 108.787 289.12 109.22C282.84 109.598 278.03 107.109 275.32 102.075C274.18 99.91 274.13 99.261 273.97 78.5861L273.81 57.3701H268.93H264.01L264.23 78.8568Z" />
</svg>
