<svg viewBox="0 0 512 135"
    xmlns="http://www.w3.org/2000/svg">
    <!-- fill="#009900" -->
    <path d="M154.357 29.6095C152.294 30.2313 150.259 32.1248 149.496 34.1596C149.072 35.2901 149.044 38.2575 149.101 67.4798C149.185 98.5673 149.214 99.5848 149.722 100.659C152.181 105.576 158.851 106.396 162.44 102.185C164.333 99.9804 164.305 100.517 164.305 77.1452C164.305 65.445 164.418 56.1752 164.56 56.2318C164.673 56.26 175.271 66.9146 188.073 79.8866C205.991 98.0021 211.7 103.598 212.773 104.163C216.504 106.085 221.337 104.276 223.202 100.291L223.795 98.9913V67.3385C223.795 36.9575 223.767 35.6292 223.258 34.3009C222.128 31.3617 219.726 29.6095 216.504 29.3834C214.808 29.2704 214.441 29.3269 212.802 30.1465C211.021 31.0226 210.117 31.927 209.071 33.8487C208.563 34.7814 208.534 35.9118 208.393 56.5426L208.252 78.2757L184.993 54.7056C159.359 28.7617 159.981 29.2986 156.731 29.3552C155.827 29.3552 154.781 29.4682 154.357 29.6095Z" />
    <!-- fill="#009900" -->
    <path d="M251.209 31.3618C250.616 32.4922 245.952 41.112 240.837 50.4948C233.941 63.1559 231.596 67.706 231.765 68.0734C231.878 68.3277 236.57 76.6931 242.165 86.6694L252.34 104.785L274.044 104.7L295.777 104.644L305.641 84.4932C311.067 73.4148 315.504 64.2863 315.504 64.2015C315.504 64.145 305.104 64.1168 292.414 64.145L269.296 64.2298L267.968 64.9929C262.401 68.2712 262.457 75.5344 268.053 78.6431L269.579 79.491L280.12 79.5757C285.886 79.6323 290.634 79.6888 290.634 79.7453C290.634 79.8018 289.616 81.9497 288.373 84.5215L286.112 89.2411H273.705H261.327L255.222 78.3605L249.089 67.4799L255.25 56.2601L261.383 45.012L274.553 44.9273L287.695 44.8707L290.775 51.2296L293.827 57.5884H301.543H309.286L308.749 56.2318C306.488 50.523 299.677 34.301 298.632 32.0683L297.332 29.327H274.807H252.311L251.209 31.3618Z" />
    <!-- fill="#009900" -->
    <path d="M328.363 30.0052C327.543 30.3726 326.413 31.2487 325.763 31.9835C323.728 34.301 323.7 34.5271 323.7 46.7643V57.5884H331.33H338.961V46.4816C338.961 35.4597 338.961 35.4032 338.282 33.9901C336.445 30.0335 332.037 28.2813 328.363 30.0052Z" />
    <!-- fill="#009900" -->
    <path d="M354.702 29.6377C352.357 30.203 350.576 31.5878 349.474 33.6791L348.711 35.1205V67.1972C348.711 99.1325 348.711 99.2739 349.304 100.546C351.028 104.276 355.635 106.113 359.309 104.502C360.326 104.05 365.583 98.9065 384.377 79.9996L408.173 56.0339L408.201 77.3713C408.201 91.1628 408.314 99.076 408.484 99.7543C408.908 101.252 410.405 103.089 412.016 104.078C413.232 104.841 413.627 104.926 415.662 104.926C417.584 104.926 418.206 104.813 419.364 104.191C421.004 103.372 422.699 101.309 423.18 99.5847C423.406 98.7369 423.462 89.5519 423.406 66.6319L423.321 34.8378L422.558 33.5378C421.654 31.9834 420.184 30.6269 418.714 30.0051C417.103 29.2986 414.277 29.3551 412.666 30.1464C411.649 30.6269 405.884 36.2792 387.796 54.536L364.255 78.2756L364.113 56.8535C363.944 33.1422 364.085 34.6117 362.135 32.153C360.581 30.203 357.161 29.016 354.702 29.6377Z" />
    <!-- fill="#009900" -->
    <path d="M438.865 29.5812C435.247 30.5421 432.986 33.3965 432.958 37.0987C432.93 40.6314 432.789 40.4336 446.834 54.536C453.787 61.4883 459.411 67.2254 459.326 67.3102C459.27 67.3667 453.617 73.0755 446.75 79.9713C432.986 93.8194 432.986 93.8194 432.986 97.1542C432.986 101.535 436.265 104.87 440.589 104.898C443.867 104.898 444.037 104.757 457.856 90.8236L470.32 78.3038L482.981 90.965C496.914 104.926 496.885 104.87 500.192 104.87C502.255 104.87 504.007 104.163 505.477 102.665C506.946 101.167 507.512 99.8673 507.625 97.5216C507.823 93.9324 507.992 94.1585 493.833 79.83L481.313 67.1688L493.89 54.536C507.823 40.5183 507.794 40.5749 507.794 37.2118C507.794 31.3616 501.831 27.6877 496.659 30.316C495.727 30.7964 491.742 34.64 482.84 43.6271L470.348 56.2882L457.913 43.6554C444.574 30.1464 444.121 29.7225 441.097 29.4681C440.334 29.4116 439.345 29.4399 438.865 29.5812Z" />
    <!-- fill="#009900" -->
    <path d="M323.7 81.13C323.7 100.376 323.643 99.7543 325.847 102.213C327.543 104.107 329.408 104.87 331.895 104.728C333.421 104.644 334.015 104.474 335.23 103.683C336.785 102.693 338.085 101.083 338.622 99.4434C338.876 98.7651 338.961 93.565 338.961 81.2996V64.0884H331.33H323.7V81.13Z" />
    <!-- fill="#009900" -->
    <path d="M58.3996 0.0188448C58.1348 0.0523621 57.7862 0.149562 57.5315 0.263521C57.4343 0.307093 55.8489 1.21541 54.0055 2.28461C45.4988 7.22506 36.9586 12.1588 22.2847 20.6186C3.73289 31.3139 1.37327 32.6781 1.16212 32.8323C0.599025 33.2512 0.247094 33.7909 0.0761558 34.5048C0.0158247 34.7461 0.012473 36.0231 0.0024178 67.1171C-0.00428565 89.3491 0.0024178 99.5953 0.0292316 99.8467C0.0728041 100.339 0.133135 100.557 0.31748 100.929C0.495122 101.285 0.796777 101.633 1.16212 101.901C1.28613 101.995 2.1006 102.478 2.97205 102.977C3.8435 103.48 6.21317 104.847 8.23426 106.021C10.2554 107.194 13.8182 109.245 16.151 110.582C22.5797 114.266 24.9426 115.627 35.4738 121.717C47.4327 128.631 55.7014 133.394 57.0354 134.138C58.0141 134.681 59.0565 134.745 60.0352 134.316C60.5681 134.081 64.8852 131.631 67.2649 130.213C67.6436 129.989 73.2176 126.761 79.6495 123.041C86.0848 119.32 95.8283 113.686 101.302 110.522C106.778 107.358 112.282 104.174 113.536 103.45C114.789 102.726 115.909 102.069 116.019 101.988C116.763 101.462 117.182 100.725 117.273 99.7696C117.32 99.2702 117.32 35.3997 117.273 34.9003C117.182 33.945 116.767 33.2077 116.019 32.6814C115.909 32.601 109.406 28.837 101.57 24.3155C83.6716 13.9855 81.5198 12.742 69.6614 5.89778C64.3355 2.82089 59.8844 0.263521 59.7738 0.216597C59.3783 0.0356034 58.8487 -0.0381346 58.3996 0.0188448ZM34.0828 33.583C35.5274 33.754 37.4044 34.2634 38.6411 34.8232C40.1092 35.4835 41.7113 36.6934 43.0218 38.128C43.2632 38.3928 44.1748 39.4687 45.0463 40.5211C45.9177 41.5702 48.8404 45.0795 51.5453 48.3139C54.2501 51.5483 57.3572 55.2754 58.4498 56.5927C60.6117 59.1969 61.8183 60.6382 65.8069 65.3909C71.5283 72.205 76.3849 78.0504 76.7872 78.6035C76.8642 78.7107 76.9581 78.8314 76.9983 78.8749L77.0687 78.9554L77.0855 59.5355L77.1056 40.1189L77.1793 39.7335C77.5715 37.7124 78.4898 36.1806 79.9746 35.0545C80.9869 34.2903 82.1164 33.8445 83.5208 33.6501C84.0638 33.5763 85.0592 33.5495 85.5486 33.5965C87.268 33.764 88.7696 34.4545 90.003 35.6444C91.1057 36.7102 91.8297 38.0174 92.2085 39.6329L92.2855 39.9513L92.2956 66.4635C92.3023 84.1975 92.2922 93.1801 92.2688 93.5957C92.2051 94.7923 92.0141 95.58 91.5649 96.495C91.0119 97.6312 90.2209 98.506 89.0545 99.2769C87.9384 100.014 86.6714 100.477 85.1296 100.705C84.5431 100.795 82.9041 100.829 82.2404 100.768C78.5233 100.43 75.2722 98.7473 72.9427 95.9587C72.7584 95.7375 72.3662 95.2582 72.0713 94.8895C71.7797 94.5242 71.478 94.1521 71.4043 94.065C71.3305 93.9778 70.2077 92.6338 68.9072 91.0786C67.6101 89.5234 64.5332 85.8432 62.0731 82.9037C59.6095 79.9643 55.4769 75.0171 52.886 71.9101C50.2951 68.803 46.216 63.9128 43.8196 61.0404C41.4231 58.1713 39.4556 55.7949 39.4489 55.7648C39.4422 55.7313 39.3986 55.6542 39.3484 55.5905L39.2612 55.4765L39.2444 74.5613L39.2277 93.646L39.154 94.0817C38.8121 96.1464 37.8099 97.9061 36.2782 99.1361C34.8068 100.316 32.9063 100.916 31.0998 100.768C28.4284 100.554 26.5448 99.4646 25.1169 97.3162C24.5002 96.3877 24.2086 95.5867 24.0779 94.4739C24.0343 94.1018 24.0276 90.7434 24.0276 67.4422C24.0276 49.0178 24.0377 40.7356 24.0645 40.5111C24.1784 39.4318 24.5672 38.2721 25.0901 37.4208C26.3034 35.4567 28.3446 34.1394 30.9154 33.6668C31.2037 33.6132 31.4316 33.5864 32.122 33.5194C32.4002 33.4925 33.6471 33.5328 34.0828 33.583Z" />
</svg>
