<svg viewBox="0 0 512 154" fill="currentColor" xmlns="http://www.w3.org/2000/svg">
    <path
        d="M178.908 50.6548H193.941L225.8 102.519V50.6548H239.677V124.144H224.747L192.785 72.3877V124.144H178.908V50.6548Z" />
    <path
        d="M301.703 124.144H288.773V115.935C285.828 121.712 279.838 124.965 272.269 124.965C260.283 124.965 252.5 116.355 252.5 103.965V71.2276H265.432V101.257C265.432 108.501 269.85 113.539 276.473 113.539C283.727 113.539 288.773 107.87 288.773 100.102V71.2276H301.703V124.144Z" />
    <path
        d="M346.706 123.307L334.3 105.668L321.892 123.307H308.118L327.255 95.6945L309.592 70.3909H323.68L334.3 85.6182L344.812 70.3909H359.006L341.235 95.6945L360.374 123.307H346.706Z" />
    <path
        d="M386.656 55.2712V71.2269H401.374V82.0421H386.656V108.31C386.656 109.192 387.005 110.038 387.63 110.663C388.255 111.287 389.101 111.639 389.985 111.64H401.374V124.122H392.855C381.291 124.122 373.724 117.401 373.724 105.653V82.0522H363.316V71.2269H369.844C372.892 71.2269 374.664 69.4159 374.664 66.4196V55.2712H386.656Z" />
    <path
        d="M433.974 107.501V50.6548H447.846V103.145C447.846 117.321 441.012 124.144 429.448 124.144H413.299V111.662H429.808C430.912 111.662 431.972 111.223 432.753 110.443C433.537 109.663 433.974 108.604 433.974 107.501Z" />
    <path
        d="M456.161 99.4705H469.518C470.256 107.679 475.725 112.907 484.556 112.907C492.443 112.907 497.914 109.762 497.914 103.252C497.914 87.501 458.353 98.4189 458.353 70.2832C458.363 58.211 468.773 49.8229 483.729 49.8229C499.291 49.8229 509.803 58.7447 510.445 72.4994H497.159C496.532 66.0968 491.508 61.7921 483.703 61.7921C476.448 61.7921 471.927 65.1526 471.927 70.2935C471.927 86.5674 512 74.3979 512 103.052C512 116.699 500.75 124.995 484.561 124.995C467.843 124.995 456.911 114.913 456.175 99.4809" />
    <path fill-rule="evenodd" clip-rule="evenodd"
        d="M69.22 34.1809C65.3386 27.3858 55.6347 27.3858 51.7531 34.1809L9.45059 108.239C5.56905 115.035 10.421 123.529 18.184 123.529H51.2079C47.8907 120.577 46.6621 115.471 49.1724 111.09L81.2106 55.1725L69.22 34.1809Z" />
    <path
        d="M96.0245 50.4257C99.2369 44.8659 107.268 44.8659 110.48 50.4257L145.489 111.019C148.701 116.579 144.686 123.529 138.261 123.529H68.2431C61.8186 123.529 57.8034 116.579 61.0155 111.019L96.0245 50.4257Z" />
</svg>