<svg viewBox="0 0 512 108"
    xmlns="http://www.w3.org/2000/svg">
    <!-- fill="#009900" -->
    <path d="M7.53392 0.403453C4.58926 1.29089 1.68493 3.99353 0.595802 6.89786C-0.00926724 8.51138 -0.0496052 12.7469 0.0310707 54.4563C0.152084 98.828 0.192422 100.28 0.918505 101.813C4.4279 108.832 13.9477 110.002 19.0706 103.991C21.7732 100.845 21.7329 101.611 21.7329 68.2518C21.7329 51.5519 21.8942 38.3211 22.0959 38.4018C22.2573 38.4421 37.384 53.6495 55.6571 72.1646C81.2313 98.0212 89.3796 106.008 90.9124 106.815C96.237 109.558 103.135 106.976 105.797 101.289L106.644 99.433V54.2546C106.644 10.8913 106.604 8.99543 105.878 7.09955C104.264 2.9044 100.836 0.403453 96.237 0.0807501C93.8167 -0.0806016 93.2924 7.42553e-05 90.9528 1.16987C88.4115 2.42035 87.1206 3.71116 85.6281 6.45414C84.9021 7.78529 84.8617 9.39881 84.66 38.8455L84.4583 69.8654L51.2602 36.2235C14.6737 -0.806684 15.5612 -0.0402637 10.9223 0.0404122C9.6315 0.0404122 8.13899 0.201764 7.53392 0.403453Z" />
    <!-- fill="#009900" -->
    <path d="M145.772 2.90433C144.925 4.51785 138.269 16.8209 130.968 30.2131C121.126 48.2845 117.777 54.7789 118.02 55.3033C118.181 55.6663 124.877 67.6064 132.864 81.8457L147.386 107.702L178.365 107.581L209.385 107.501L223.463 78.7396C231.208 62.9272 237.541 49.898 237.541 49.777C237.541 49.6963 222.696 49.656 204.585 49.6963L171.588 49.8173L169.692 50.9065C161.746 55.5857 161.826 65.9525 169.813 70.3897L171.992 71.5998L187.038 71.7208C195.267 71.8015 202.043 71.8822 202.043 71.9629C202.043 72.0435 200.591 75.1092 198.816 78.78L195.589 85.5164H177.881H160.213L151.5 69.9863L142.747 54.4562L151.54 38.442L160.294 22.3876L179.091 22.2665L197.848 22.1859L202.245 31.2619L206.602 40.3379H217.614H228.666L227.9 38.4017C224.673 30.2534 214.952 7.09948 213.459 3.91278L211.603 3.71039e-06H179.454H147.345L145.772 2.90433Z" />
    <!-- fill="#009900" -->
    <path d="M255.895 0.968195C254.725 1.49259 253.111 2.74306 252.183 3.79185C249.279 7.09956 249.239 7.42226 249.239 24.8886V40.338H260.13H271.021V24.4852C271.021 8.75342 271.021 8.67274 270.053 6.65584C267.431 1.00853 261.138 -1.49242 255.895 0.968195Z" />
    <!-- fill="#009900" -->
    <path d="M293.489 0.443725C290.141 1.25048 287.6 3.22704 286.027 6.21205L284.938 8.26928V54.0528C284.938 99.6347 284.938 99.8364 285.785 101.652C288.246 106.976 294.821 109.598 300.065 107.299C301.517 106.653 309.02 99.312 335.844 72.3259L369.809 38.1194L369.849 68.5745C369.849 88.2594 370.011 99.554 370.253 100.522C370.858 102.66 372.996 105.282 375.295 106.694C377.029 107.783 377.594 107.904 380.498 107.904C383.241 107.904 384.129 107.743 385.783 106.855C388.122 105.685 390.543 102.741 391.228 100.28C391.551 99.07 391.632 85.9601 391.551 53.2461L391.43 7.8659L390.341 6.01036C389.05 3.79177 386.952 1.85555 384.855 0.968118C382.556 -0.0403298 378.522 0.040346 376.223 1.16981C374.77 1.85555 366.541 9.92314 340.725 35.9814L307.124 69.8653L306.922 39.2892C306.68 5.44563 306.882 7.5432 304.098 4.0338C301.88 1.25048 296.999 -0.443709 293.489 0.443725Z" />
    <!-- fill="#009900" -->
    <path d="M413.616 0.36307C408.453 1.73456 405.226 5.80869 405.185 11.093C405.145 16.1352 404.943 15.8528 424.991 35.9815C434.914 45.9046 442.942 54.0932 442.821 54.2142C442.74 54.2949 434.672 62.4431 424.87 72.2856C405.226 92.0512 405.226 92.0512 405.226 96.8111C405.226 103.063 409.905 107.823 416.077 107.864C420.756 107.864 420.998 107.662 440.723 87.7754L458.512 69.9057L476.583 87.977C496.47 107.904 496.43 107.823 501.149 107.823C504.094 107.823 506.595 106.815 508.692 104.677C510.79 102.539 511.597 100.683 511.758 97.3354C512.04 92.2125 512.282 92.5352 492.073 72.0839L474.203 54.0125L492.154 35.9815C512.04 15.9738 512 16.0545 512 11.2543C512 2.90436 503.489 -2.33957 496.107 1.41186C494.776 2.0976 489.088 7.58356 476.382 20.411L458.552 38.4824L440.804 20.4514C421.764 1.16983 421.119 0.56476 416.803 0.201719C415.713 0.121043 414.302 0.161381 413.616 0.36307Z" />
    <!-- fill="#009900" -->
    <path d="M249.239 73.9394C249.239 101.409 249.158 100.522 252.304 104.031C254.725 106.734 257.387 107.823 260.937 107.622C263.115 107.501 263.962 107.258 265.697 106.129C267.915 104.717 269.771 102.418 270.537 100.078C270.9 99.1102 271.021 91.6881 271.021 74.1814V49.6156H260.13H249.239V73.9394Z" />
</svg>
