<svg viewBox="0 0 512 187"
    xmlns="http://www.w3.org/2000/svg">
    <!-- fill="black" -->
    <path d="M157.54 39.59L93.54 2.64C87.45 -0.88 79.94 -0.88 73.85 2.64L9.84998 39.59C3.75998 43.11 0.01 49.61 0 56.64V130.54C0.01 137.58 3.75998 144.07 9.84998 147.6L73.85 184.55C79.94 188.07 87.45 188.07 93.54 184.55L157.54 147.6C163.62 144.07 167.37 137.58 167.38 130.54V56.64C167.37 49.61 163.62 43.11 157.54 39.59ZM154.26 130.54C154.26 132.89 153.01 135.06 150.97 136.23L86.97 173.18C84.94 174.35 82.44 174.35 80.41 173.18L16.41 136.23C14.38 135.06 13.13 132.89 13.13 130.54V56.64C13.13 54.3 14.38 52.1299 16.41 50.9599L80.41 14.01C82.44 12.84 84.94 12.84 86.97 14.01L150.97 50.9599C153.01 52.1299 154.26 54.3 154.26 56.64V130.54Z" />
    <!-- fill="black" -->
    <path d="M121.47 114.99H116.77C115.66 114.99 114.58 115.27 113.61 115.8L85.2499 131.36L52.5099 112.46V74.76L85.2499 55.85L113.62 71.37C114.59 71.9 115.67 72.17 116.77 72.17H121.47C123.28 72.17 124.75 70.7 124.75 68.89V64.4399C124.75 63.2399 124.1 62.14 123.05 61.56L91.5599 44.34C87.5299 42.15 82.6598 42.21 78.6898 44.49L45.9498 63.39C41.8898 65.74 39.3899 70.07 39.3799 74.76V112.46C39.3799 117.15 41.8898 121.49 45.9498 123.83L78.6898 142.73C82.6598 145.01 87.5299 145.07 91.5599 142.88L123.05 125.6C124.1 125.02 124.75 123.92 124.75 122.72V118.27C124.75 116.46 123.28 114.99 121.47 114.99Z" />
    <!-- fill="black" -->
    <path d="M276.91 54.8599C263.33 54.8699 252.31 65.8798 252.3 79.4698V107.82C252.3 121.42 263.32 132.44 276.91 132.44C290.51 132.44 301.53 121.42 301.53 107.82V79.4698C301.51 65.8798 290.5 54.8699 276.91 54.8599ZM288.4 107.82C288.4 114.17 283.26 119.31 276.91 119.31C270.57 119.31 265.43 114.17 265.43 107.82V79.4698C265.43 73.1298 270.57 67.9799 276.91 67.9799C283.26 67.9799 288.4 73.1298 288.4 79.4698V107.82Z" />
    <!-- fill="black" -->
    <path d="M216.74 68.0799C219.78 67.6799 222.85 68.5099 225.27 70.3799C227.7 72.2499 229.27 75.01 229.66 78.05C229.76 78.87 230.45 79.4699 231.27 79.4699H241.17C241.63 79.4699 242.07 79.27 242.38 78.93C242.69 78.59 242.85 78.13 242.81 77.67C241.81 64.34 230.37 54.2299 217.02 54.8899C203.75 55.7899 193.5 66.8899 193.64 80.1899V107.11C193.5 120.4 203.75 131.5 217.02 132.41C230.37 133.07 241.81 122.96 242.81 109.62C242.85 109.16 242.69 108.71 242.38 108.37C242.07 108.02 241.63 107.83 241.17 107.82H231.27C230.45 107.82 229.76 108.43 229.66 109.24C229.27 112.28 227.7 115.04 225.27 116.91C222.85 118.78 219.78 119.61 216.74 119.21C210.94 118.33 206.68 113.29 206.77 107.42V79.8699C206.68 73.9999 210.94 68.9699 216.74 68.0799Z" />
    <!-- fill="black" -->
    <path d="M352.69 100.09C359.86 96.8798 364.47 89.7699 364.48 81.9199V75.8398C364.48 64.8298 355.56 55.8999 344.54 55.8999H316.72C315.81 55.8999 315.08 56.6399 315.08 57.5499V129.75C315.08 130.66 315.81 131.39 316.72 131.39H326.56C327.47 131.39 328.21 130.66 328.21 129.75V101.85H339.07L352.06 130.43C352.33 131.02 352.91 131.39 353.55 131.39H364.37C364.93 131.39 365.45 131.11 365.75 130.64C366.05 130.17 366.09 129.58 365.86 129.07L352.69 100.09ZM351.35 81.9199C351.35 85.6699 348.3 88.7198 344.55 88.7198H328.38V69.0299H344.55C348.3 69.0399 351.35 72.0798 351.35 75.8398V81.9199Z" />
    <!-- fill="black" -->
    <path d="M421.74 55.8999H379.08C378.17 55.8999 377.44 56.6399 377.44 57.5499V129.75C377.44 130.66 378.17 131.39 379.08 131.39H421.74C422.65 131.39 423.38 130.66 423.38 129.75V119.9C423.38 119 422.65 118.26 421.74 118.26H390.56V98.5698H411.9C412.8 98.5698 413.54 97.8399 413.54 96.9299V87.0798C413.54 86.1798 412.8 85.4398 411.9 85.4398H390.56V69.0299H421.74C422.65 69.0299 423.38 68.2999 423.38 67.3899V57.5499C423.38 56.6399 422.65 55.8999 421.74 55.8999Z" />
    <!-- fill="black" -->
    <path d="M484.1 55.8999H474.26C473.35 55.8999 472.62 56.6399 472.62 57.5499V94.7098C472.8 98.9298 470.65 102.92 467.02 105.08C463.39 107.25 458.87 107.25 455.24 105.08C451.61 102.92 449.46 98.9298 449.64 94.7098V57.5499C449.64 56.6399 448.91 55.8999 448 55.8999H438.15C437.25 55.8999 436.51 56.6399 436.51 57.5499V94.7098C436.33 103.62 440.98 111.94 448.67 116.45C456.36 120.96 465.89 120.96 473.58 116.45C481.27 111.94 485.92 103.62 485.74 94.7098V57.5499C485.74 56.6399 485.01 55.8999 484.1 55.8999Z" />
    <!-- fill="black" -->
    <path d="M510.36 55.8999H500.51C499.61 55.8999 498.87 56.6399 498.87 57.5499V116.62C498.87 117.53 499.61 118.26 500.51 118.26H510.36C511.27 118.26 512 117.53 512 116.62V57.5499C512 56.6399 511.27 55.8999 510.36 55.8999Z" />
</svg>
