<svg fill="currentColor"
    viewBox="0 0 512 238"
    xmlns="http://www.w3.org/2000/svg">
    <!-- fill="#CD6799" -->
    <path d="M479.277 132.637C471.059 132.68 463.917 134.66 457.936 137.586C455.742 133.24 453.548 129.367 453.161 126.527C452.73 123.214 452.214 121.192 452.73 117.233C453.247 113.275 455.57 107.638 455.527 107.208C455.484 106.778 455.011 104.755 450.278 104.712C445.545 104.669 441.458 105.616 440.985 106.864C440.511 108.111 439.608 110.951 439.006 113.877C438.188 118.18 429.54 133.541 424.592 141.587C423 138.446 421.624 135.692 421.322 133.498C420.892 130.185 420.376 128.162 420.892 124.204C421.408 120.245 423.732 114.609 423.689 114.178C423.646 113.748 423.172 111.726 418.44 111.683C413.707 111.64 409.62 112.586 409.146 113.834C408.673 115.082 408.157 118.008 407.167 120.848C406.178 123.688 394.69 149.332 391.678 155.959C390.13 159.358 388.796 162.069 387.849 163.919C387.849 163.919 387.806 164.048 387.677 164.263C386.86 165.855 386.386 166.716 386.386 166.716C386.386 166.716 386.386 166.716 386.386 166.759C385.741 167.92 385.053 168.996 384.708 168.996C384.45 168.996 383.977 165.898 384.795 161.681C386.516 152.774 390.603 138.919 390.56 138.446C390.56 138.188 391.334 135.778 387.892 134.531C384.536 133.283 383.332 135.348 383.031 135.348C382.729 135.348 382.514 136.08 382.514 136.08C382.514 136.08 386.257 120.503 375.372 120.503C368.574 120.503 359.195 127.947 354.548 134.66C351.623 136.252 345.384 139.651 338.715 143.308C336.177 144.728 333.552 146.148 331.1 147.482C330.928 147.31 330.756 147.095 330.584 146.923C317.418 132.853 293.066 122.913 294.099 104.024C294.486 97.1392 296.852 79.0675 340.866 57.1232C377.093 39.2665 405.92 44.2147 410.91 55.1869C418.053 70.8491 395.465 99.9361 358.033 104.153C343.749 105.745 336.263 100.237 334.37 98.1719C332.391 96.0205 332.089 95.8914 331.358 96.3217C330.153 96.9671 330.928 98.9034 331.358 100.022C332.477 102.948 337.08 108.111 344.868 110.65C351.752 112.888 368.488 114.135 388.753 106.304C411.427 97.5265 429.153 73.1296 423.947 52.6913C418.741 31.9517 384.321 25.1103 351.752 36.6848C332.391 43.5693 311.395 54.4124 296.293 68.5256C278.352 85.3065 275.512 99.893 276.674 106.003C280.847 127.689 310.749 141.802 322.71 152.258C322.108 152.602 321.548 152.904 321.075 153.162C315.095 156.131 292.292 168.049 286.612 180.657C280.159 194.942 287.645 205.183 292.593 206.56C307.953 210.819 323.743 203.16 332.218 190.51C340.694 177.86 339.662 161.423 335.746 153.893C335.703 153.807 335.66 153.721 335.574 153.635C337.123 152.731 338.715 151.785 340.264 150.881C343.319 149.074 346.331 147.396 348.912 146.019C347.449 150.021 346.374 154.797 345.857 161.681C345.212 169.771 348.525 180.269 352.87 184.4C354.806 186.207 357.087 186.25 358.55 186.25C363.626 186.25 365.907 182.034 368.445 177.042C371.543 170.932 374.34 163.833 374.34 163.833C374.34 163.833 370.855 183.023 380.32 183.023C383.762 183.023 387.247 178.548 388.796 176.268C388.796 176.311 388.796 176.311 388.796 176.311C388.796 176.311 388.882 176.182 389.054 175.881C389.398 175.321 389.613 174.977 389.613 174.977C389.613 174.977 389.613 174.934 389.613 174.891C390.99 172.481 394.088 167.017 398.691 157.938C404.629 146.234 410.351 131.605 410.351 131.605C410.351 131.605 410.867 135.176 412.631 141.114C413.664 144.599 415.815 148.429 417.536 152.129C416.159 154.065 415.299 155.141 415.299 155.141C415.299 155.141 415.299 155.141 415.342 155.184C414.223 156.647 413.019 158.239 411.685 159.788C406.995 165.382 401.402 171.793 400.628 173.643C399.724 175.838 399.939 177.43 401.66 178.72C402.908 179.667 405.145 179.796 407.425 179.667C411.642 179.366 414.611 178.333 416.073 177.688C418.354 176.87 421.021 175.622 423.517 173.772C428.12 170.373 430.917 165.511 430.659 159.1C430.53 155.571 429.368 152.043 427.948 148.73C428.378 148.127 428.766 147.525 429.196 146.923C436.467 136.295 442.103 124.634 442.103 124.634C442.103 124.634 442.62 128.205 444.384 134.143C445.244 137.155 447.008 140.425 448.557 143.61C441.716 149.16 437.5 155.614 435.994 159.831C433.283 167.662 435.391 171.191 439.393 172.008C441.2 172.395 443.781 171.535 445.674 170.717C448.084 169.943 450.923 168.609 453.634 166.63C458.238 163.23 462.669 158.497 462.411 152.086C462.282 149.16 461.507 146.277 460.432 143.48C466.24 141.071 473.726 139.737 483.278 140.856C503.758 143.265 507.802 156.045 507.027 161.423C506.253 166.802 501.951 169.728 500.531 170.631C499.111 171.535 498.638 171.836 498.767 172.481C498.939 173.428 499.627 173.385 500.832 173.213C502.51 172.912 511.588 168.867 511.975 158.971C512.621 146.32 500.574 132.508 479.277 132.637ZM321.29 185.906C314.492 193.307 305.027 196.104 300.94 193.737C296.551 191.199 298.272 180.269 306.619 172.438C311.696 167.662 318.235 163.23 322.581 160.52C323.57 159.917 325.033 159.057 326.797 157.981C327.099 157.809 327.271 157.723 327.271 157.723C327.615 157.508 327.959 157.292 328.303 157.077C331.358 168.265 328.432 178.118 321.29 185.906ZM370.768 152.258C368.402 158.024 363.454 172.783 360.443 171.965C357.861 171.277 356.269 160.089 359.926 149.031C361.776 143.48 365.692 136.854 367.972 134.272C371.672 130.142 375.759 128.765 376.749 130.443C377.997 132.637 372.231 148.644 370.768 152.258ZM411.599 171.793C410.609 172.309 409.663 172.653 409.233 172.395C408.931 172.223 409.663 171.535 409.663 171.535C409.663 171.535 414.783 166.027 416.805 163.532C417.967 162.069 419.343 160.347 420.806 158.411C420.806 158.583 420.806 158.798 420.806 158.971C420.806 165.554 414.438 169.986 411.599 171.793ZM443.093 164.607C442.361 164.091 442.491 162.37 444.943 156.991C445.889 154.883 448.127 151.355 451.956 147.955C452.386 149.332 452.687 150.666 452.644 151.914C452.601 160.218 446.664 163.316 443.093 164.607Z" />
    <!-- fill="#CD6799" -->
    <path d="M101.843 1.04077C43.2128 9.64144 0 59.466 0 118.559C0 184.102 53.0709 237.188 118.594 237.188C184.118 237.188 237.188 184.102 237.188 118.559C237.188 52.6448 183.673 -0.442107 117.853 0.00275546C112.739 0.0768992 105.549 0.521761 101.843 1.04077ZM170.109 31.069C189.232 37.1488 196.866 48.641 193.086 65.5458C190.937 75.1845 186.786 82.2281 178.262 90.7547C168.181 100.912 161.881 104.397 146.316 108.697C139.719 110.551 137.718 110.699 127.118 110.773C116.519 110.773 114.814 110.551 111.108 109.068C106.216 107.14 100.805 102.618 99.1003 99.207C97.0249 94.9067 99.1744 93.3497 102.362 96.7603C107.328 102.247 119.706 104.397 131.936 101.876C153.58 97.4276 171.295 85.1939 178.484 69.6237C179.967 66.4355 180.411 64.3595 180.411 59.9109C180.486 54.8691 180.263 54.0535 178.41 51.6068C174.259 46.1943 166.699 43.6734 154.098 43.6734C139.2 43.6734 125.117 47.3806 108.217 55.833C76.6415 71.5514 60.7054 88.3821 61.669 104.842C62.262 114.851 65.8939 119.522 84.4243 134.425C91.1693 139.838 97.3214 145.028 98.0626 145.843C99.3227 147.252 99.6192 147.252 103.251 146.288C109.403 144.583 124.598 144.731 130.231 146.585C136.457 148.587 140.682 151.108 144.463 155.26C151.652 163.045 153.135 173.128 148.095 180.32C145.352 184.25 137.866 187.735 137.866 185.065C137.866 184.621 139.052 183.434 140.46 182.545C144.018 180.246 146.316 175.501 145.797 171.497C145.352 167.271 142.165 162.007 138.459 159.338C132.158 154.741 120.966 152.146 111.553 153.035C104.437 153.703 104.289 153.851 105.252 158.3C105.771 160.301 106.142 164.973 106.142 168.606C106.068 184.398 98.0626 197.299 84.1278 204.269C73.8249 209.385 61.0019 209.459 55.8875 204.491C52.2556 201.006 50.9214 196.854 51.2179 190.33C51.885 177.725 60.3348 168.383 82.3489 155.63L89.761 151.33L83.9795 147.178C80.7923 144.954 75.4556 141.098 72.1201 138.8C57.9629 128.79 50.0319 120.709 45.8811 112.034C42.6939 105.361 42.3974 101.061 44.7693 93.6463C51.5144 72.4412 77.2345 51.1619 113.406 36.778C129.119 30.55 138.162 28.8447 153.802 29.1412C162.771 29.3637 165.958 29.7344 170.109 31.069Z" />
    <!-- fill="#CD6799" -->
    <path d="M88.5838 161.922C74.4801 170.588 66.5281 179.781 65.5528 188.748C64.7276 195.605 68.1035 197.715 75.7554 195.379C86.1081 192.139 94.0602 182.644 96.0857 171.115C96.9859 166.066 96.3858 159.059 94.9604 158.682C94.5103 158.531 91.6596 159.963 88.5838 161.922Z" />
</svg>
