<svg viewBox="0 0 512 115"
    xmlns="http://www.w3.org/2000/svg">
    <!-- fill="#F7DF1E" -->
    <path fill-rule="evenodd" clip-rule="evenodd" d="M0 0H114.266V114.266H0V0ZM87.3501 95.7913C82.0539 95.7913 79.0594 93.0289 76.7578 89.2709L68.0318 94.3403C71.1841 100.569 77.6266 105.321 87.5985 105.321C97.7972 105.321 105.391 100.025 105.391 90.3573C105.391 81.3901 100.24 77.4017 91.1172 73.4894L88.4329 72.3395C83.826 70.3444 81.8308 69.0403 81.8308 65.8191C81.8308 63.2127 83.8241 61.2176 86.9692 61.2176C90.0526 61.2176 92.0386 62.5181 93.8796 65.8191L102.241 60.4504C98.7041 54.2293 93.7961 51.8532 86.9692 51.8532C77.3799 51.8532 71.244 57.9837 71.244 66.0368C71.244 74.779 76.3914 78.9144 84.1397 82.2154L86.8241 83.3671C91.7212 85.5091 94.6413 86.8132 94.6413 90.4951C94.6413 93.5676 91.7992 95.7913 87.3501 95.7913ZM45.7373 95.7242C42.0481 95.7242 40.5137 93.194 38.8269 90.2013L30.0864 95.4929C32.6184 100.852 37.5972 105.301 46.1943 105.301C55.7092 105.301 62.2278 100.24 62.2278 89.1221V52.4663H51.4905V88.977C51.4905 94.3439 49.265 95.7242 45.7373 95.7242Z" />
    <!-- fill="black" -->
    <path d="M182.302 21.7505H189.561V60.4403C189.561 65.669 187.981 69.7593 184.822 72.7114C181.688 75.6635 177.501 77.1395 172.261 77.1395C166.821 77.1395 162.584 75.7511 159.55 72.9741C156.517 70.1971 155 66.3069 155 61.3034H162.22C162.22 64.4306 163.073 66.8698 164.778 68.621C166.508 70.3723 169.002 71.2479 172.261 71.2479C175.245 71.2479 177.652 70.3097 179.482 68.4334C181.337 66.5571 182.277 63.9302 182.302 60.5529V21.7505Z" />
    <!-- fill="black" -->
    <path d="M225.889 76.389C225.487 75.5884 225.161 74.1624 224.911 72.111C221.677 75.4634 217.816 77.1395 213.328 77.1395C209.317 77.1395 206.02 76.0137 203.437 73.7622C200.88 71.4856 199.601 68.6085 199.601 65.1311C199.601 60.9031 201.206 57.6258 204.415 55.2992C207.649 52.9475 212.187 51.7717 218.029 51.7717H224.798V48.5819C224.798 46.1552 224.071 44.2289 222.617 42.8029C221.163 41.3518 219.019 40.6263 216.186 40.6263C213.704 40.6263 211.623 41.2518 209.943 42.5026C208.264 43.7535 207.424 45.2671 207.424 47.0433H200.429C200.429 45.0169 201.143 43.0655 202.572 41.1892C204.027 39.2879 205.982 37.7868 208.439 36.686C210.921 35.5853 213.641 35.0349 216.6 35.0349C221.288 35.0349 224.961 36.2107 227.618 38.5624C230.276 40.889 231.655 44.1038 231.755 48.2067V66.8948C231.755 70.6224 232.232 73.587 233.184 75.7886V76.389H225.889ZM214.343 71.0978C216.524 71.0978 218.593 70.5349 220.548 69.4091C222.504 68.2833 223.92 66.8198 224.798 65.0185V56.6876H219.345C210.821 56.6876 206.559 59.1769 206.559 64.1554C206.559 66.3319 207.286 68.0331 208.74 69.259C210.194 70.4848 212.062 71.0978 214.343 71.0978Z" />
    <!-- fill="black" -->
    <path d="M255.485 66.9699L265.564 35.7854H272.671L258.08 76.389H252.777L238.035 35.7854H245.143L255.485 66.9699Z" />
    <!-- fill="black" -->
    <path d="M303.885 76.389C303.484 75.5884 303.158 74.1624 302.907 72.111C299.673 75.4634 295.812 77.1395 291.324 77.1395C287.313 77.1395 284.016 76.0137 281.434 73.7622C278.876 71.4856 277.598 68.6085 277.598 65.1311C277.598 60.9031 279.202 57.6258 282.411 55.2992C285.646 52.9475 290.183 51.7717 296.025 51.7717H302.794V48.5819C302.794 46.1552 302.067 44.2289 300.613 42.8029C299.159 41.3518 297.015 40.6263 294.182 40.6263C291.7 40.6263 289.619 41.2518 287.94 42.5026C286.26 43.7535 285.42 45.2671 285.42 47.0433H278.425C278.425 45.0169 279.14 43.0655 280.569 41.1892C282.023 39.2879 283.978 37.7868 286.435 36.686C288.917 35.5853 291.638 35.0349 294.596 35.0349C299.284 35.0349 302.957 36.2107 305.615 38.5624C308.272 40.889 309.651 44.1038 309.751 48.2067V66.8948C309.751 70.6224 310.228 73.587 311.18 75.7886V76.389H303.885ZM292.34 71.0978C294.521 71.0978 296.589 70.5349 298.545 69.4091C300.5 68.2833 301.917 66.8198 302.794 65.0185V56.6876H297.341C288.817 56.6876 284.555 59.1769 284.555 64.1554C284.555 66.3319 285.282 68.0331 286.736 69.259C288.19 70.4848 290.058 71.0978 292.34 71.0978Z" />
    <!-- fill="black" -->
    <path d="M337.881 52.0344C331.689 50.2581 327.176 48.0816 324.343 45.5048C321.535 42.9029 320.131 39.7007 320.131 35.898C320.131 31.595 321.848 28.0425 325.283 25.2405C328.743 22.4135 333.23 21 338.746 21C342.507 21 345.854 21.7255 348.787 23.1765C351.745 24.6276 354.027 26.629 355.632 29.1808C357.261 31.7326 358.076 34.522 358.076 37.5492H350.818C350.818 34.2468 349.765 31.6575 347.659 29.7812C345.553 27.8798 342.582 26.9292 338.746 26.9292C335.186 26.9292 332.403 27.7172 330.397 29.2933C328.417 30.8444 327.427 33.0085 327.427 35.7854C327.427 38.012 328.367 39.9008 330.247 41.4519C332.152 42.978 335.374 44.379 339.912 45.6549C344.475 46.9308 348.035 48.3443 350.592 49.8953C353.175 51.4214 355.08 53.2102 356.308 55.2616C357.562 57.3131 358.189 59.7273 358.189 62.5042C358.189 66.9323 356.459 70.4848 352.999 73.1617C349.539 75.8136 344.914 77.1395 339.122 77.1395C335.362 77.1395 331.852 76.4265 328.592 75.0005C325.333 73.5495 322.813 71.5731 321.033 69.0714C319.278 66.5696 318.401 63.7301 318.401 60.5529H325.659C325.659 63.8552 326.875 66.4695 329.307 68.3959C331.764 70.2972 335.036 71.2479 339.122 71.2479C342.933 71.2479 345.854 70.4723 347.885 68.9212C349.915 67.3702 350.931 65.2562 350.931 62.5793C350.931 59.9024 349.991 57.8384 348.11 56.3874C346.23 54.9114 342.82 53.4604 337.881 52.0344Z" />
    <!-- fill="black" -->
    <path d="M382.708 71.473C385.19 71.473 387.359 70.7225 389.214 69.2215C391.07 67.7204 392.097 65.8441 392.298 63.5925H398.879C398.754 65.9191 397.952 68.1332 396.472 70.2347C394.993 72.3362 393.013 74.0123 390.531 75.2632C388.074 76.5141 385.466 77.1395 382.708 77.1395C377.168 77.1395 372.755 75.3007 369.471 71.6231C366.212 67.9205 364.582 62.867 364.582 56.4625V55.2992C364.582 51.3464 365.309 47.8314 366.763 44.7542C368.217 41.6771 370.298 39.2879 373.006 37.5867C375.739 35.8855 378.96 35.0349 382.671 35.0349C387.234 35.0349 391.019 36.3983 394.028 39.1253C397.062 41.8522 398.679 45.3922 398.879 49.7452H392.298C392.097 47.1184 391.095 44.9669 389.289 43.2907C387.509 41.5895 385.303 40.7389 382.671 40.7389C379.136 40.7389 376.39 42.0148 374.435 44.5666C372.504 47.0934 371.539 50.7585 371.539 55.5618V56.8753C371.539 61.5536 372.504 65.1561 374.435 67.6829C376.365 70.2097 379.123 71.473 382.708 71.473Z" />
    <!-- fill="black" -->
    <path d="M426.37 42.0148C425.317 41.8397 424.176 41.7521 422.947 41.7521C418.384 41.7521 415.288 43.691 413.659 47.5687V76.389H406.701V35.7854H413.471L413.583 40.4762C415.865 36.8487 419.099 35.0349 423.286 35.0349C424.64 35.0349 425.668 35.21 426.37 35.5603V42.0148Z" />
    <!-- fill="black" -->
    <path d="M440.359 76.389H433.402V35.7854H440.359V76.389ZM432.838 25.0153C432.838 23.8895 433.176 22.9389 433.853 22.1633C434.555 21.3878 435.583 21 436.937 21C438.291 21 439.319 21.3878 440.021 22.1633C440.723 22.9389 441.074 23.8895 441.074 25.0153C441.074 26.1411 440.723 27.0793 440.021 27.8298C439.319 28.5803 438.291 28.9556 436.937 28.9556C435.583 28.9556 434.555 28.5803 433.853 27.8298C433.176 27.0793 432.838 26.1411 432.838 25.0153Z" />
    <!-- fill="black" -->
    <path d="M485.901 56.5375C485.901 62.7169 484.484 67.6954 481.651 71.473C478.818 75.2507 474.983 77.1395 470.144 77.1395C465.205 77.1395 461.319 75.5759 458.486 72.4487V92H451.529V35.7854H457.884L458.222 40.2886C461.056 36.7861 464.992 35.0349 470.031 35.0349C474.92 35.0349 478.781 36.8737 481.614 40.5513C484.472 44.2289 485.901 49.345 485.901 55.8996V56.5375ZM478.944 55.7495C478.944 51.1712 477.966 47.5562 476.01 44.9043C474.055 42.2525 471.372 40.9265 467.963 40.9265C463.751 40.9265 460.592 42.7903 458.486 46.518V65.9191C460.567 69.6217 463.751 71.473 468.038 71.473C471.372 71.473 474.017 70.1596 475.973 67.5328C477.953 64.8809 478.944 60.9531 478.944 55.7495Z" />
    <!-- fill="black" -->
    <path d="M504.215 25.9535V35.7854H511.812V41.1517H504.215V66.3319C504.215 67.9581 504.554 69.1839 505.231 70.0095C505.908 70.8101 507.061 71.2104 508.691 71.2104C509.493 71.2104 510.596 71.0603 512 70.76V76.389C510.17 76.8894 508.39 77.1395 506.66 77.1395C503.551 77.1395 501.207 76.2014 499.627 74.3251C498.048 72.4487 497.258 69.7844 497.258 66.3319V41.1517H489.85V35.7854H497.258V25.9535H504.215Z" />
</svg>
