<svg viewBox="0 0 512 222"
    xmlns="http://www.w3.org/2000/svg">
    <!-- fill="black" -->
    <path d="M453.802 20.3131C436.804 28.5958 436.637 50.6275 453.802 88.5618C459.468 101.317 460.468 100.157 435.304 111.09C407.306 123.349 395.973 132.294 387.641 148.362C380.808 161.283 384.808 181.161 396.307 191.597C405.473 200.212 411.472 202.199 427.638 202.199C441.303 202.199 443.803 201.702 453.469 196.898C459.468 193.917 467.634 188.615 471.801 184.806L479.3 178.179L467.635 183.48C446.97 192.922 430.804 191.431 423.471 179.339C414.639 165.093 423.804 150.682 455.635 128.815L468.301 120.035L470.968 128.815C477.467 150.515 474.801 159.958 458.302 175.695C447.969 185.468 448.802 185.965 464.301 179.173C473.967 174.867 482.966 166.418 486.133 158.798C489.299 151.675 489.133 132.128 485.799 119.87L483.3 109.931L493.465 99.4948C516.797 75.144 518.131 51.2901 497.298 29.424L490.132 21.6384L494.299 29.5897C503.965 47.1487 500.965 65.2048 485.633 79.9478C480.633 84.7517 476.134 88.7274 475.467 88.7274C473.634 88.7274 465.302 66.6957 463.634 57.7505C461.135 44.6639 466.468 34.0623 475.467 34.0623C478.967 34.0623 482.133 36.2157 487.799 41.8479C494.799 49.1365 495.132 49.4679 493.465 44.8297C484.966 22.301 469.467 12.6932 453.802 20.3131Z" />
    <!-- fill="black" -->
    <path d="M157.762 23.7975C157.762 24.6293 151.797 55.7399 144.507 93.1725C137.216 130.605 131.252 162.215 131.252 163.379C131.252 165.209 134.565 165.543 146.495 165.209L161.739 164.71L169.692 125.614C173.835 104.153 177.48 86.0188 177.48 85.1869C177.645 83.5233 208.133 83.6896 213.104 85.686C221.222 88.6806 221.389 91.3426 214.098 128.442C210.453 147.408 207.47 163.546 207.47 164.212C207.47 165.043 214.43 165.543 223.045 165.543C237.792 165.543 238.621 165.376 239.449 161.716C239.946 159.719 243.094 143.748 246.408 126.446C255.19 80.5287 254.196 72.8758 237.295 65.2229C231.164 62.3947 225.531 61.5628 206.31 61.0637C193.221 60.7309 182.616 59.7327 182.616 59.0673C182.616 58.4019 184.107 50.4162 185.93 41.5988C187.753 32.7813 189.244 24.7957 189.244 23.9638C189.244 23.132 182.119 22.4665 173.503 22.4665C164.887 22.4665 157.762 23.132 157.762 23.7975Z" />
    <!-- fill="black" -->
    <path d="M27.3841 62.3448C26.8851 63.5091 20.8962 94.1113 13.9091 130.203C6.92208 166.293 0.766818 197.56 0.267743 199.722C-0.56405 203.381 -0.397692 203.381 15.24 203.381H31.2104L33.0404 193.901C34.2049 188.58 35.8685 180.097 37.033 175.108L38.8629 165.96L63.8167 164.962C90.6004 163.964 98.2529 162.134 109.898 154.151C125.868 143.009 134.685 126.543 135.85 105.587C137.015 83.966 130.527 71.9912 113.225 64.1743C104.908 60.349 28.5487 58.6859 27.3841 62.3448ZM93.9276 86.1282C101.081 89.1218 105.24 97.604 103.743 106.585C100.749 124.048 94.7594 133.861 83.7797 138.684C76.1272 142.01 45.85 145.004 44.1864 142.51C43.3546 141.179 45.0182 131.699 53.1698 92.2818L54.8333 83.6334H71.4692C82.2825 83.6334 90.1014 84.4649 93.9276 86.1282Z" />
    <!-- fill="black" -->
    <path d="M272.126 64.2922C271.626 66.452 265.461 97.1881 258.463 132.908C251.466 168.463 245.467 199.033 244.967 200.694C244.134 203.352 245.301 203.685 260.296 203.186L276.791 202.687L280.124 184.412L283.455 166.137L309.282 165.139C332.441 164.309 336.106 163.81 344.604 159.989C364.265 150.851 377.595 132.908 381.093 110.313C384.592 88.715 377.095 73.2638 359.267 64.9567C352.435 61.8001 348.269 61.4678 312.447 60.9694L273.126 60.3048L272.126 64.2922ZM339.273 86.8874C347.27 90.8748 349.603 96.0252 348.437 106.99C346.77 123.771 338.44 136.065 326.11 140.218C323.111 141.216 313.446 142.545 304.95 143.043C290.787 144.04 289.288 143.873 289.288 141.216C289.288 139.721 291.62 126.096 294.453 111.144L299.784 83.8969H316.613C329.276 83.8969 334.941 84.5614 339.273 86.8874Z" />
    <!-- fill="url(#paint0_linear)" -->
    <path d="M494.913 30.0808C503.413 45.3507 500.578 62.6123 489.412 76.0565C482.745 84.3553 444.412 106.975 434.413 110.912C398.58 125.02 382.748 145.767 384.414 164.854C385.247 179.792 393.081 192.074 407.746 199.709C413.58 201.369 417.247 202.199 428.58 202.199C442.246 202.199 443.079 202.033 452.746 197.219C458.745 194.232 467.745 188.589 471.912 184.772L479.411 178.132L466.912 183.942C446.079 192.24 432.746 190.581 424.082 180.124C414.582 164.854 424.747 150.414 464.412 123.36C498.577 101.783 511.91 82.0316 511.91 61.9484C512.744 50.3301 507.744 40.2054 497.744 29.5829L490.244 21.2841L494.913 30.0808Z" />
    <!-- <defs>
        <linearGradient id="paint0_linear" x1="448.83" y1="203.029" x2="448.83" y2="22.1139" gradientUnits="userSpaceOnUse">
            <stop stop-color="#2666A9"/>
            <stop offset="1" stop-color="#202664"/>
        </linearGradient>
    </defs> -->
</svg>
