<svg
  viewBox="0 0 634 102"
  fill="currentColor"
  xmlns="http://www.w3.org/2000/svg"
>
  <path
    d="M0.0742188 83V80.9492C3.78516 80.4609 6.11263 79.5983 7.05664 78.3613C7.90299 77.222 8.34245 74.6829 8.375 70.7441V20.2559C8.375 16.4473 7.91927 13.9408 7.00781 12.7363C5.96615 11.3366 3.65495 10.4577 0.0742188 10.0996V7.95117H53.3457L48.8535 24.2598H46.4609C46.6237 22.6647 46.7051 21.265 46.7051 20.0605C46.6725 17.4238 46.2656 15.5846 45.4844 14.543C44.3125 13.0456 40.4388 12.2969 33.8633 12.2969H21.0703C19.7031 12.2969 18.8242 12.6061 18.4336 13.2246C18.1406 13.6478 17.9941 14.6081 17.9941 16.1055V41.3984H41.334L32.5449 45.8906H17.9941V73.9668C17.9941 76.2454 18.5638 77.5801 19.7031 77.9707C20.8424 78.3613 24.4232 78.5566 30.4453 78.5566C37.1836 78.5566 41.9525 77.6615 44.752 75.8711C47.8444 73.918 50.5299 69.9141 52.8086 63.8594H55.4453L51.1484 83H0.0742188ZM57.9355 24.3086V22.6973H78.9805V24.3086C76.1159 24.6341 74.2767 25.2689 73.4629 26.2129C72.6491 27.1243 72.2422 29.224 72.2422 32.5117V43.4004C72.2422 43.8887 72.2422 44.377 72.2422 44.8652C72.2422 53.5241 73.0723 60.2135 74.7324 64.9336C76.1322 68.9049 77.4668 71.9811 78.7363 74.1621C80.2663 76.7663 82.3984 79.3867 85.1328 82.0234C89.1693 77.401 92.3268 71.7044 94.6055 64.9336C95.9727 60.8971 96.7865 53.931 97.0469 44.0352C96.8516 42.2773 96.7214 40.7474 96.6562 39.4453L95.7773 36.8574C95.0286 35.9785 93.2383 35.36 90.4062 35.002V33.3906H111.402V35.002C108.44 35.36 106.601 36.0111 105.885 36.9551C105.429 37.541 105.055 38.2897 104.762 39.2012C104.762 39.2663 104.745 39.3965 104.713 39.5918V43.4004C104.713 43.8887 104.713 44.377 104.713 44.8652C104.713 53.5241 105.543 60.2135 107.203 64.9336C108.603 68.9375 109.921 72.0137 111.158 74.1621C112.688 76.7988 114.837 79.4193 117.604 82.0234C121.64 77.401 124.781 71.7044 127.027 64.9336C128.427 60.7018 129.257 53.4753 129.518 43.2539V32.5117C129.518 29.2891 129.094 27.1732 128.248 26.1641C127.467 25.2852 125.66 24.6667 122.828 24.3086V22.6973H143.824V24.3086C140.667 24.6992 138.714 25.5456 137.965 26.8477C137.444 27.7266 137.184 29.9727 137.184 33.5859V39.2012C136.728 43.3678 136.24 47.1439 135.719 50.5293C134.417 58.6348 133.001 64.1198 131.471 66.9844C128.02 73.4622 123.382 78.9635 117.555 83.4883C111.305 79.1589 106.373 73.6576 102.76 66.9844C102.076 65.6497 101.409 64.1198 100.758 62.3945C100.204 64.3151 99.6348 65.8451 99.0488 66.9844C95.5983 73.4622 90.9271 78.9635 85.0352 83.4883C78.8177 79.1589 73.9023 73.6576 70.2891 66.9844C66.8385 60.6367 64.9342 51.571 64.5762 39.7871V33.5859C64.5762 29.9727 64.3158 27.7266 63.7949 26.8477C63.0462 25.5456 61.0931 24.6992 57.9355 24.3086ZM147.438 83V81.3887C150.693 81.0632 152.727 80.4609 153.541 79.582C154.387 78.6706 154.811 76.5384 154.811 73.1855V23.5762C155.755 25.2689 156.65 26.7337 157.496 27.9707C159.579 30.9655 161.256 32.5768 162.525 32.8047V73.1855C162.525 76.8314 163.03 79.0612 164.039 79.875C164.983 80.5911 166.92 81.0957 169.85 81.3887V83H147.438ZM152.174 10.6367L157.496 5.31445L162.77 10.6367L157.496 15.959L152.174 10.6367ZM171.314 83V81.3887C174.277 80.998 176.148 80.2819 176.93 79.2402C177.613 78.3288 177.955 76.3105 177.955 73.1855V32.8047C177.955 29.7122 177.597 27.694 176.881 26.75C176.067 25.6432 174.212 24.9434 171.314 24.6504V22.9414H192.75V24.6504C189.885 24.8132 187.997 25.3991 187.086 26.4082C186.174 27.3848 185.719 29.3053 185.719 32.1699V75.7734C185.719 76.8477 185.849 77.6452 186.109 78.166C186.402 78.6868 187.021 79.0449 187.965 79.2402C188.616 79.3704 189.951 79.4355 191.969 79.4355C192.359 79.4355 192.799 79.4355 193.287 79.4355C193.873 79.4355 194.41 79.4355 194.898 79.4355C196.819 79.4355 197.844 79.3867 197.975 79.2891C198.365 78.8008 198.772 78.3125 199.195 77.8242C200.628 76.5221 202.532 74.3574 204.908 71.3301H206.861L203.541 83H171.314ZM209.303 83.3906V81.0469C212.395 80.6888 214.267 80.0866 214.918 79.2402C215.602 78.3613 215.943 75.985 215.943 72.1113V65.8613C216.236 62.0202 216.643 58.4883 217.164 55.2656C218.368 47.4857 219.882 41.903 221.705 38.5176C225.383 31.7793 230.429 26.1641 236.842 21.6719C242.864 26.3594 247.617 31.9746 251.1 38.5176C253.378 42.7819 255.299 52.0918 256.861 66.4473V72.1113C256.861 75.985 257.203 78.3613 257.887 79.2402C258.57 80.0866 260.442 80.6888 263.502 81.0469V83.3906H241.773V81.0469C244.703 80.6888 246.542 80.0866 247.291 79.2402C248.04 78.3613 248.414 76.3431 248.414 73.1855V67.7656H224.391V73.1855C224.391 76.3431 224.765 78.3613 225.514 79.2402C226.262 80.0866 228.118 80.6888 231.08 81.0469V83.3906H209.303ZM224.391 64.9824H248.414V63.3711H224.391V64.9824ZM224.391 61.9062H248.414C248.219 52.0755 247.421 45.0605 246.021 40.8613C243.808 34.2207 240.748 28.6706 236.842 24.2109C234.238 26.7174 232.203 29.2728 230.738 31.877C229.534 33.9277 228.232 36.9225 226.832 40.8613C225.172 45.4837 224.342 51.6523 224.342 59.3672C224.342 60.181 224.358 61.0273 224.391 61.9062ZM264.283 82.6094V81.7305C267.343 81.2747 269.329 80.3633 270.24 78.9961C271.184 77.6289 271.656 74.5202 271.656 69.6699V32.3164C271.656 28.931 271.168 26.7337 270.191 25.7246C269.41 24.748 267.49 24.1296 264.43 23.8691V22.8926H281.568L303.639 31.3398H313.502V32.3652C310.768 32.5931 308.977 33.2441 308.131 34.3184L308.033 39.25V91.9844L302.32 101.652L302.271 38.8105L279.42 30.2656V69.6699C279.42 74.748 280.022 78.0521 281.227 79.582C282.04 80.5911 283.782 81.3073 286.451 81.7305V82.6094H264.283ZM341.48 83V80.9492C345.257 80.526 347.633 79.4355 348.609 77.6777C349.26 76.4733 349.586 73.7064 349.586 69.377V20.2559C349.586 16.5124 349.163 14.0384 348.316 12.834C347.275 11.4017 344.996 10.4902 341.48 10.0996V7.95117H367.652C373.023 7.95117 377.548 8.78125 381.227 10.4414C388.095 13.5339 391.546 19.3281 391.578 27.8242C391.578 38.3711 385.882 44.6862 374.488 46.7695C376.441 49.9922 378.378 53.0358 380.299 55.9004C384.791 62.7038 388.665 67.9609 391.92 71.6719C397.258 77.7591 405.657 85.1647 417.115 93.8887C418.124 94.7676 419.28 95.4349 420.582 95.8906C422.014 96.3789 422.812 96.6719 422.975 96.7695C423.43 97.0625 424.26 97.2253 425.465 97.2578C427.255 97.3229 428.264 97.3717 428.492 97.4043V99.4062H413.648C409.84 96.737 406.292 94.1328 403.004 91.5938C395.061 85.5065 389.007 80.2493 384.84 75.8223C379.143 69.7676 372.34 60.5391 364.43 48.1367L359.205 48.3809V70.7441C359.205 74.9434 359.726 77.6126 360.768 78.752C361.712 79.7936 364.023 80.526 367.701 80.9492V83H341.48ZM359.205 44.1816C366.008 43.8887 370.859 43.0423 373.756 41.6426C378.736 39.2012 381.243 34.5462 381.275 27.6777C381.275 21.1348 379.029 16.6589 374.537 14.25C372.161 12.9805 368.987 12.3294 365.016 12.2969C364.788 12.2969 364.56 12.2969 364.332 12.2969C362.379 12.2969 361.174 12.4271 360.719 12.6875C359.71 13.1107 359.205 14.2826 359.205 16.2031V44.1816ZM396.949 83V81.3887C400.204 81.0632 402.239 80.4609 403.053 79.582C403.899 78.6706 404.322 76.5384 404.322 73.1855V23.5762C405.266 25.2689 406.161 26.7337 407.008 27.9707C409.091 30.9655 410.768 32.5768 412.037 32.8047V73.1855C412.037 76.8314 412.542 79.0612 413.551 79.875C414.495 80.5911 416.432 81.0957 419.361 81.3887V83H396.949ZM401.686 10.6367L407.008 5.31445L412.281 10.6367L407.008 15.959L401.686 10.6367ZM421.998 23.6738V22.1113H443.287V23.8203C441.334 23.8203 439.951 23.9831 439.137 24.3086C437.867 24.7643 437.232 25.7409 437.232 27.2383C437.232 28.3451 438.323 31.6491 440.504 37.1504L453.004 69.1328L464.332 34.5137C464.69 33.4069 465.162 31.7467 465.748 29.5332C465.846 29.0449 465.878 28.5566 465.846 28.0684C465.878 26.278 465.227 25.0736 463.893 24.4551C463.274 24.1621 461.988 23.9505 460.035 23.8203V22.1113H476.393V23.6738C474.635 24.0319 473.382 24.569 472.633 25.2852C471.396 26.457 470.191 28.8008 469.02 32.3164L451.344 84.0742H450.123L430.396 33.4883C429.029 30.0378 428.085 27.9219 427.564 27.1406C426.197 25.1224 424.342 23.9668 421.998 23.6738ZM479.957 83V81.3887C483.212 81.0632 485.247 80.4609 486.061 79.582C486.907 78.6706 487.33 76.5384 487.33 73.1855V23.5762C488.274 25.2689 489.169 26.7337 490.016 27.9707C492.099 30.9655 493.775 32.5768 495.045 32.8047V73.1855C495.045 76.8314 495.549 79.0612 496.559 79.875C497.503 80.5911 499.439 81.0957 502.369 81.3887V83H479.957ZM484.693 10.6367L490.016 5.31445L495.289 10.6367L490.016 15.959L484.693 10.6367ZM503.834 83V81.3887C506.796 80.998 508.668 80.2819 509.449 79.2402C510.133 78.3288 510.475 76.3105 510.475 73.1855V32.8047C510.475 29.7122 510.117 27.694 509.4 26.75C508.587 25.6432 506.731 24.9434 503.834 24.6504V22.9414H546.461L542.896 36.0273H540.943C541.399 32.0234 541.139 29.4193 540.162 28.2148C539.218 27.0104 536.142 26.4082 530.934 26.4082H520.631C519.557 26.4082 518.857 26.6686 518.531 27.1895C518.303 27.515 518.206 28.2799 518.238 29.4844V49.748H535.865L529.859 53.3125H518.238V75.7734C518.238 77.6289 518.678 78.7031 519.557 78.9961C520.468 79.2565 523.333 79.403 528.15 79.4355C533.489 79.4681 537.298 78.7682 539.576 77.3359C542.05 75.806 544.215 72.5833 546.07 67.668H548.121L544.703 83H503.834ZM509.205 3.60547C509.205 1.65234 510.263 0.643229 512.379 0.578125C513.616 0.545573 514.999 1.29427 516.529 2.82422L530.396 16.8379H526.588L512.037 7.6582C510.117 6.45378 509.173 5.10286 509.205 3.60547ZM541.92 83V81.3887C544.98 81.0632 546.884 80.1842 547.633 78.752C548.154 77.8079 548.414 75.5944 548.414 72.1113V32.8047C548.414 29.8099 548.056 27.8242 547.34 26.8477C546.493 25.6758 544.687 24.9434 541.92 24.6504V22.9414H562.867C567.197 22.9414 570.826 23.6087 573.756 24.9434C579.257 27.4173 582.008 32.0885 582.008 38.957C582.008 47.2904 577.451 52.3034 568.336 53.9961C569.931 56.5677 571.477 59.0091 572.975 61.3203C576.62 66.7565 579.729 70.9557 582.301 73.918C586.598 78.8008 593.32 84.7415 602.467 91.7402C603.313 92.4564 604.225 92.9772 605.201 93.3027C606.34 93.6608 606.975 93.8887 607.105 93.9863C607.464 94.2467 608.131 94.377 609.107 94.377C610.54 94.4421 611.354 94.4909 611.549 94.5234V96.1348H599.684C596.624 93.9863 593.775 91.903 591.139 89.8848C584.758 85.002 579.908 80.7865 576.588 77.2383C572.031 72.4206 566.611 65.0312 560.328 55.0703L556.129 55.3145V73.1855C556.129 76.8314 556.633 79.0612 557.643 79.875C558.521 80.5911 560.296 81.0957 562.965 81.3887V83H541.92ZM556.129 51.9453C561.565 51.6849 565.439 51.0013 567.75 49.8945C571.786 47.9414 573.805 44.1816 573.805 38.6152C573.805 33.4395 571.998 29.8913 568.385 27.9707C566.464 26.9616 563.909 26.4408 560.719 26.4082C560.491 26.4082 560.263 26.4082 560.035 26.4082C558.57 26.4082 557.659 26.5059 557.301 26.7012C556.487 27.0592 556.096 28.0195 556.129 29.582V51.9453ZM589.283 83V81.3887C592.245 80.998 594.117 80.2819 594.898 79.2402C595.582 78.3288 595.924 76.3105 595.924 73.1855V32.8047C595.924 29.7122 595.566 27.694 594.85 26.75C594.036 25.6432 592.18 24.9434 589.283 24.6504V22.9414H631.91L628.346 36.0273H626.393C626.555 34.7253 626.637 33.5859 626.637 32.6094C626.637 30.4935 626.311 29.0286 625.66 28.2148C624.684 27.0104 621.591 26.4082 616.383 26.4082H606.08C605.006 26.4082 604.306 26.6686 603.98 27.1895C603.753 27.515 603.655 28.2799 603.688 29.4844V49.748H621.314L615.309 53.3125H603.688V75.7734C603.688 77.6289 604.127 78.7031 605.006 78.9961C605.917 79.2565 608.782 79.403 613.6 79.4355C613.73 79.4355 613.844 79.4355 613.941 79.4355C619.085 79.4355 622.779 78.7357 625.025 77.3359C627.499 75.806 629.664 72.5833 631.52 67.668H633.57L630.152 83H589.283Z"
  />
</svg>
