<svg version="1.0" xmlns="http://www.w3.org/2000/svg" viewBox="0 0 512.000000 512.000000"
  preserveAspectRatio="xMidYMid meet" fill="currentColor">
  <g transform="translate(0.000000,512.000000) scale(0.100000,-0.100000)" stroke="none">
    <path d="M649 5101 c-144 -46 -239 -161 -259 -314 -12 -91 -12 -579 -1 -671
11 -82 55 -177 105 -225 l35 -34 -40 -44 c-53 -58 -89 -138 -100 -221 -11 -88
-11 -578 0 -666 11 -82 55 -177 105 -225 l35 -34 -40 -44 c-53 -58 -89 -138
-100 -221 -11 -90 -11 -579 1 -669 15 -118 73 -211 168 -271 99 -63 77 -62
939 -62 l783 0 0 -255 0 -254 -29 -15 c-39 -21 -114 -95 -145 -145 l-26 -41
-783 0 c-878 0 -817 5 -882 -74 -29 -37 -30 -40 -30 -151 0 -111 1 -114 30
-151 65 -79 3 -74 892 -74 780 0 792 0 798 -20 12 -37 121 -135 186 -167 144
-70 284 -70 428 0 65 32 174 130 186 167 6 20 18 20 853 20 951 0 882 -5 947
74 29 37 30 40 30 151 0 111 -1 114 -30 151 -59 72 -68 74 -358 74 l-258 0
-24 -25 c-30 -29 -32 -64 -6 -96 19 -24 21 -24 273 -29 l253 -5 0 -70 0 -70
-809 -3 c-735 -2 -808 -1 -802 14 3 8 6 42 6 75 l0 59 405 0 406 0 24 25 c32
31 32 69 0 100 l-24 25 -430 0 -431 0 -26 41 c-31 50 -106 124 -145 145 l-29
15 0 254 0 255 858 2 857 3 55 22 c131 53 214 170 232 328 17 144 -7 215 -72
215 -20 0 -65 -27 -71 -43 0 -1 -4 -55 -8 -119 -6 -108 -9 -121 -37 -160 -18
-26 -50 -53 -83 -70 l-53 -28 -1848 0 -1848 0 -53 28 c-34 17 -65 44 -84 71
l-30 43 0 378 0 378 30 43 c19 27 50 54 84 71 l53 28 870 0 869 0 24 25 c32
31 32 69 0 100 l-24 25 -869 0 -870 0 -53 28 c-34 17 -65 44 -84 71 l-30 43 0
378 0 378 30 43 c19 27 50 54 84 71 l53 28 1848 0 1848 0 53 -28 c34 -17 65
-44 84 -71 l30 -43 0 -378 0 -378 -30 -43 c-19 -27 -50 -54 -84 -71 l-53 -28
-830 0 -829 0 -24 -25 c-32 -31 -32 -69 0 -100 l24 -25 829 0 830 0 53 -28
c33 -17 65 -44 83 -70 28 -39 31 -52 37 -160 4 -64 8 -118 8 -119 6 -16 51
-43 71 -43 65 0 89 71 72 215 -11 100 -51 191 -106 244 l-35 34 40 44 c53 58
89 138 100 221 4 37 8 186 8 332 0 146 -4 295 -8 332 -11 83 -47 163 -100 221
l-40 44 35 34 c53 51 94 143 106 235 5 44 8 213 6 384 -4 283 -6 309 -26 359
-47 119 -127 196 -239 231 -64 20 -88 20 -1545 20 l-1479 0 -24 -25 c-14 -13
-25 -36 -25 -50 0 -14 11 -37 25 -50 l24 -25 1479 0 1480 0 53 -28 c34 -17 65
-44 84 -71 l30 -43 0 -378 0 -378 -30 -43 c-19 -27 -50 -54 -84 -71 l-53 -28
-1848 0 -1848 0 -53 28 c-34 17 -65 44 -84 71 l-30 43 0 378 0 378 30 43 c19
27 50 54 84 71 l53 28 215 0 c214 0 214 0 238 25 14 13 25 36 25 50 0 14 -11
37 -25 50 l-24 25 -218 -1 c-181 0 -228 -3 -274 -18z m1931 -3928 l0 -228 -75
0 -75 0 0 228 0 227 75 0 75 0 0 -227z m57 -403 c66 -28 143 -108 169 -175 25
-67 25 -173 0 -240 -26 -66 -103 -147 -169 -176 -73 -33 -191 -33 -264 0 -66
29 -143 110 -169 176 -25 67 -25 173 0 240 21 54 93 138 141 163 91 47 200 52
292 12z m-607 -289 c0 -33 3 -67 6 -75 6 -15 -62 -16 -747 -14 l-754 3 -3 59
c-2 32 -1 65 2 72 4 12 131 14 751 14 l745 0 0 -59z" />
    <path d="M3118 4762 c-102 -37 -184 -122 -209 -217 -6 -22 -9 -74 -7 -115 7
-123 70 -215 187 -271 63 -31 195 -32 261 -2 64 30 121 82 155 144 28 50 30
62 30 154 0 93 -2 104 -31 155 -78 138 -245 203 -386 152z m200 -165 c53 -35
75 -84 70 -156 -5 -71 -32 -111 -94 -141 -83 -41 -190 -5 -229 75 -23 51 -17
140 13 182 52 74 162 92 240 40z" />
    <path d="M3968 4762 c-102 -37 -184 -122 -209 -217 -6 -22 -9 -74 -7 -115 7
-123 70 -215 187 -271 63 -31 195 -32 261 -2 64 30 121 82 155 144 28 50 30
62 30 154 0 93 -2 104 -31 155 -78 138 -245 203 -386 152z m200 -165 c53 -35
75 -84 70 -156 -5 -71 -32 -111 -94 -141 -83 -41 -190 -5 -229 75 -23 51 -17
140 13 182 52 74 162 92 240 40z" />
    <path d="M762 4680 c-14 -14 -22 -33 -22 -55 0 -22 8 -41 22 -55 21 -19 34
-20 258 -20 224 0 237 1 258 20 30 28 30 82 0 110 -21 19 -34 20 -258 20 -224
0 -237 -1 -258 -20z" />
    <path d="M1532 4680 c-14 -14 -22 -33 -22 -55 0 -22 8 -41 22 -55 21 -19 34
-20 268 -20 234 0 247 1 268 20 14 14 22 33 22 55 0 22 -8 41 -22 55 -21 19
-34 20 -268 20 -234 0 -247 -1 -268 -20z" />
    <path d="M762 4330 c-14 -14 -22 -33 -22 -55 0 -22 8 -41 22 -55 21 -19 34
-20 258 -20 224 0 237 1 258 20 30 28 30 82 0 110 -21 19 -34 20 -258 20 -224
0 -237 -1 -258 -20z" />
    <path d="M1532 4330 c-14 -14 -22 -33 -22 -55 0 -22 8 -41 22 -55 21 -19 34
-20 268 -20 234 0 247 1 268 20 14 14 22 33 22 55 0 22 -8 41 -22 55 -21 19
-34 20 -268 20 -234 0 -247 -1 -268 -20z" />
    <path d="M3118 3572 c-102 -37 -184 -122 -209 -217 -6 -22 -9 -74 -7 -115 7
-123 70 -215 187 -271 63 -31 195 -32 261 -2 64 30 121 82 155 144 28 50 30
62 30 154 0 93 -2 104 -31 155 -78 138 -245 203 -386 152z m200 -165 c53 -35
75 -84 70 -156 -5 -71 -32 -111 -94 -141 -83 -41 -190 -5 -229 75 -23 51 -17
140 13 182 52 74 162 92 240 40z" />
    <path d="M3968 3572 c-102 -37 -184 -122 -209 -217 -6 -22 -9 -74 -7 -115 7
-123 70 -215 187 -271 63 -31 195 -32 261 -2 64 30 121 82 155 144 28 50 30
62 30 154 0 93 -2 104 -31 155 -78 138 -245 203 -386 152z m200 -165 c53 -35
75 -84 70 -156 -5 -71 -32 -111 -94 -141 -83 -41 -190 -5 -229 75 -23 51 -17
140 13 182 52 74 162 92 240 40z" />
    <path d="M762 3490 c-14 -14 -22 -33 -22 -55 0 -22 8 -41 22 -55 21 -19 34
-20 258 -20 224 0 237 1 258 20 30 28 30 82 0 110 -21 19 -34 20 -258 20 -224
0 -237 -1 -258 -20z" />
    <path d="M1532 3490 c-14 -14 -22 -33 -22 -55 0 -22 8 -41 22 -55 21 -19 34
-20 268 -20 234 0 247 1 268 20 14 14 22 33 22 55 0 22 -8 41 -22 55 -21 19
-34 20 -268 20 -234 0 -247 -1 -268 -20z" />
    <path d="M762 3140 c-14 -14 -22 -33 -22 -55 0 -22 8 -41 22 -55 21 -19 34
-20 258 -20 224 0 237 1 258 20 30 28 30 82 0 110 -21 19 -34 20 -258 20 -224
0 -237 -1 -258 -20z" />
    <path d="M1532 3140 c-14 -14 -22 -33 -22 -55 0 -22 8 -41 22 -55 21 -19 34
-20 268 -20 234 0 247 1 268 20 14 14 22 33 22 55 0 22 -8 41 -22 55 -21 19
-34 20 -268 20 -234 0 -247 -1 -268 -20z" />
    <path d="M3118 2382 c-102 -37 -184 -122 -209 -217 -6 -22 -9 -74 -7 -115 7
-123 70 -215 187 -271 63 -31 195 -32 261 -2 64 30 121 82 155 144 28 50 30
62 30 154 0 93 -2 104 -31 155 -78 138 -245 203 -386 152z m200 -165 c53 -35
75 -84 70 -156 -5 -71 -32 -111 -94 -141 -83 -41 -190 -5 -229 75 -23 51 -17
140 13 182 52 74 162 92 240 40z" />
    <path d="M3968 2382 c-102 -37 -184 -122 -209 -217 -6 -22 -9 -74 -7 -115 7
-123 70 -215 187 -271 63 -31 195 -32 261 -2 64 30 121 82 155 144 28 50 30
62 30 154 0 93 -2 104 -31 155 -78 138 -245 203 -386 152z m200 -165 c53 -35
75 -84 70 -156 -5 -71 -32 -111 -94 -141 -83 -41 -190 -5 -229 75 -23 51 -17
140 13 182 52 74 162 92 240 40z" />
    <path d="M762 2300 c-14 -14 -22 -33 -22 -55 0 -22 8 -41 22 -55 21 -19 34
-20 258 -20 224 0 237 1 258 20 30 28 30 82 0 110 -21 19 -34 20 -258 20 -224
0 -237 -1 -258 -20z" />
    <path d="M1532 2300 c-14 -14 -22 -33 -22 -55 0 -22 8 -41 22 -55 21 -19 34
-20 268 -20 234 0 247 1 268 20 14 14 22 33 22 55 0 22 -8 41 -22 55 -21 19
-34 20 -268 20 -234 0 -247 -1 -268 -20z" />
    <path d="M762 1950 c-14 -14 -22 -33 -22 -55 0 -22 8 -41 22 -55 21 -19 34
-20 258 -20 224 0 237 1 258 20 30 28 30 82 0 110 -21 19 -34 20 -258 20 -224
0 -237 -1 -258 -20z" />
    <path d="M1532 1950 c-14 -14 -22 -33 -22 -55 0 -22 8 -41 22 -55 21 -19 34
-20 268 -20 234 0 247 1 268 20 14 14 22 33 22 55 0 22 -8 41 -22 55 -21 19
-34 20 -268 20 -234 0 -247 -1 -268 -20z" />
  </g>
</svg>