<svg version="1.0" xmlns="http://www.w3.org/2000/svg" viewBox="0 0 512.000000 512.000000"
  preserveAspectRatio="xMidYMid meet" fill="currentColor">
  <g transform="translate(0.000000,512.000000) scale(0.100000,-0.100000)" stroke="none">
    <path d="M3171 5102 c-53 -26 -71 -71 -71 -174 l0 -86 -37 -12 c-21 -7 -68
-26 -106 -43 l-67 -30 -68 65 c-116 112 -150 106 -310 -56 l-112 -113 0 -52
c0 -52 2 -55 66 -122 l67 -68 -1134 -3 -1134 -3 -53 -22 c-81 -33 -136 -84
-174 -161 l-33 -67 0 -1565 0 -1565 22 -47 c30 -66 96 -133 162 -165 l56 -28
403 -3 402 -3 25 25 c32 32 32 70 0 101 l-24 25 -376 0 c-315 0 -382 2 -412
15 -97 41 -112 82 -113 303 l0 172 2410 0 2410 0 0 -170 c0 -218 -15 -260
-105 -301 -38 -18 -113 -19 -1771 -19 l-1731 0 -27 -21 c-34 -27 -36 -77 -3
-107 23 -22 28 -22 346 -22 l322 0 -5 -78 c-22 -299 -29 -375 -42 -451 -7 -47
-14 -89 -14 -93 0 -5 -65 -8 -145 -8 -143 0 -146 0 -172 -26 -20 -20 -24 -31
-19 -57 3 -18 16 -40 27 -49 20 -17 79 -18 929 -18 850 0 909 1 929 17 11 10
24 32 27 50 5 26 1 37 -19 57 -26 26 -29 26 -171 26 l-144 0 -11 63 c-19 114
-51 461 -51 559 0 4 395 9 878 10 l877 3 56 28 c66 32 132 99 162 165 l22 47
0 1565 0 1565 -33 67 c-38 77 -93 128 -174 161 -50 20 -73 22 -396 25 l-344 4
66 68 c64 66 66 69 66 121 l0 52 -112 113 c-160 162 -194 168 -310 56 l-68
-65 -67 30 c-38 17 -85 36 -105 43 l-38 12 0 86 c0 103 -18 148 -71 174 -28
15 -61 18 -179 18 -118 0 -151 -3 -179 -18z m279 -225 c0 -125 18 -153 120
-183 30 -9 91 -34 135 -56 67 -34 87 -39 123 -35 38 4 53 14 111 71 l67 66 69
-70 69 -69 -67 -70 c-85 -88 -89 -117 -33 -230 18 -36 43 -96 55 -132 13 -41
33 -77 52 -95 29 -27 36 -29 130 -32 l99 -4 0 -94 0 -94 -73 0 c-134 0 -174
-24 -208 -129 -12 -36 -37 -96 -55 -132 -56 -113 -52 -142 33 -230 l67 -70
-69 -69 -69 -70 -61 59 c-97 95 -119 99 -224 47 -37 -19 -99 -45 -137 -57 -45
-14 -81 -34 -101 -55 -33 -32 -33 -33 -33 -128 l0 -96 -100 0 -100 0 0 96 c0
95 0 96 -32 128 -21 21 -57 41 -102 55 -38 12 -100 38 -137 57 -105 52 -127
48 -224 -47 l-61 -59 -69 70 -69 69 67 70 c85 88 89 117 32 231 -18 36 -42 95
-54 131 -34 105 -74 129 -208 129 l-73 0 0 94 0 94 99 4 c94 3 101 5 130 32
19 18 39 54 52 95 12 36 36 95 54 131 57 114 53 143 -32 231 l-67 70 69 69 69
70 67 -66 c89 -89 120 -93 234 -36 44 22 105 47 136 56 41 11 66 26 88 51 30
35 31 39 31 130 l0 95 100 0 100 0 0 -93z m-986 -644 c-10 -43 -10 -43 -105
-43 -120 0 -170 -28 -181 -101 l-3 -24 -870 -5 c-655 -4 -875 -8 -891 -17 -36
-21 -82 -81 -93 -120 -7 -26 -11 -419 -11 -1195 l0 -1158 -80 0 -80 0 2 1283
3 1283 25 36 c27 40 67 67 114 79 17 4 514 7 1104 8 l1072 1 -6 -27z m2411 -1
c22 -13 52 -39 65 -59 l25 -37 3 -1283 2 -1283 -80 0 -80 0 0 1158 c0 776 -4
1169 -11 1195 -13 47 -63 106 -106 123 -18 8 -62 14 -98 14 -54 0 -67 3 -71
18 -32 97 -55 112 -182 112 -90 0 -93 1 -102 26 -6 14 -10 30 -10 35 0 7 105
9 303 7 294 -3 303 -4 342 -26z m-2702 -387 c11 -119 44 -145 183 -145 l91 0
23 -62 c12 -35 33 -84 46 -109 l23 -46 -55 -54 c-67 -66 -84 -95 -84 -150 0
-40 5 -47 108 -151 169 -173 194 -177 318 -56 l62 60 64 -30 c35 -16 83 -36
106 -43 l42 -12 0 -84 c0 -100 16 -145 62 -173 29 -18 50 -20 188 -20 138 0
159 2 188 20 46 28 62 73 62 173 l0 84 43 12 c23 7 70 26 105 43 l64 30 67
-66 c118 -113 146 -108 304 53 112 113 117 120 117 160 0 55 -16 84 -84 150
l-55 54 23 46 c13 25 34 74 46 109 l23 62 91 0 c139 0 172 26 183 145 l6 65
53 0 c43 0 55 -4 64 -19 7 -14 9 -388 8 -1168 l-3 -1148 -2095 0 -2095 0 -3
1148 c-1 780 1 1154 8 1168 10 19 29 19 854 19 l843 0 6 -65z m801 -3162 c18
-266 38 -465 52 -515 5 -17 -22 -18 -466 -18 l-472 0 6 22 c16 58 55 482 56
601 0 4 184 7 409 7 l409 0 6 -97z" />
    <path d="M3300 4524 c-62 -7 -125 -25 -142 -41 -24 -22 -23 -78 2 -103 21 -21
43 -23 130 -11 309 45 563 -252 470 -551 -78 -253 -360 -376 -597 -262 -190
91 -286 314 -223 515 11 35 29 78 40 94 41 61 14 135 -49 135 -39 0 -64 -24
-100 -96 -83 -166 -79 -385 11 -543 49 -87 159 -191 248 -235 128 -62 245 -78
375 -51 220 47 399 220 450 436 82 348 -166 682 -530 712 -27 2 -66 3 -85 1z" />
    <path d="M3284 4239 c-22 -5 -65 -24 -94 -42 -159 -96 -187 -315 -59 -461 80
-91 236 -119 351 -63 181 89 225 334 87 477 -72 74 -191 111 -285 89z m146
-168 c97 -69 92 -204 -10 -258 -24 -13 -55 -23 -70 -23 -43 0 -111 42 -131 80
-73 136 88 289 211 201z" />
    <path d="M1383 3570 c-44 -26 -53 -48 -53 -125 l0 -66 -72 -33 -73 -33 -51 48
c-92 85 -125 80 -246 -39 -123 -121 -130 -163 -43 -260 24 -27 42 -52 39 -55
-3 -3 -16 -31 -29 -64 l-24 -58 -71 -6 c-126 -10 -154 -54 -148 -231 5 -120
18 -151 73 -174 19 -8 59 -14 90 -14 44 0 57 -4 62 -17 3 -10 16 -41 28 -68
l22 -51 -48 -52 c-81 -88 -73 -133 43 -249 47 -47 97 -88 115 -94 47 -15 90 2
143 56 l43 44 36 -18 c20 -10 53 -24 74 -30 l37 -13 0 -72 c0 -125 39 -150
228 -144 111 3 112 3 144 35 30 30 33 39 36 107 l4 74 69 27 69 27 47 -42 c99
-88 128 -82 258 50 l98 100 -6 46 c-4 38 -13 54 -52 94 l-47 48 27 70 28 70
74 4 c67 5 78 8 106 37 l32 31 3 128 c3 105 1 132 -13 159 -23 42 -70 63 -142
63 l-58 0 -29 71 -28 71 40 41 c95 100 85 148 -61 284 -98 91 -143 94 -231 13
l-45 -41 -70 27 -71 28 0 59 c0 127 -40 157 -212 157 -94 0 -118 -3 -145 -20z
m207 -190 c0 -35 7 -74 15 -90 15 -29 60 -60 87 -60 8 0 46 -16 86 -35 111
-53 142 -51 209 10 l50 44 38 -39 38 -39 -46 -50 c-40 -43 -47 -56 -47 -91 0
-25 11 -63 29 -98 15 -31 36 -81 46 -110 23 -70 56 -92 143 -92 l62 0 0 -60 0
-60 -66 0 c-85 0 -116 -20 -140 -93 -9 -28 -30 -78 -45 -109 -18 -35 -29 -73
-29 -98 0 -35 7 -48 47 -91 l46 -50 -38 -39 -38 -39 -49 44 c-68 61 -91 64
-185 22 -43 -19 -100 -42 -126 -52 -65 -23 -87 -59 -87 -142 l0 -63 -55 0 -55
0 0 43 c0 94 -35 149 -104 168 -23 6 -74 27 -114 46 -89 43 -116 39 -184 -25
l-49 -45 -39 38 -39 38 44 49 c62 69 65 98 22 195 -19 43 -40 94 -46 114 -20
62 -52 83 -134 89 l-72 5 0 55 0 55 72 5 c85 6 116 28 137 99 8 25 28 76 46
114 41 86 36 120 -25 186 l-44 47 39 39 40 39 43 -42 c68 -66 91 -70 184 -29
43 19 96 40 118 47 74 23 105 72 105 168 l0 42 55 0 55 0 0 -60z" />
    <path d="M1437 3054 c-112 -27 -214 -111 -264 -219 -25 -54 -28 -71 -28 -165
0 -93 3 -112 27 -162 55 -118 170 -206 299 -228 172 -30 344 63 422 228 29 61
32 76 32 162 0 86 -3 101 -31 160 -59 122 -158 203 -282 229 -67 14 -102 13
-175 -5z m200 -161 c108 -51 168 -186 131 -294 -35 -105 -128 -173 -233 -172
-143 0 -245 101 -245 241 0 73 15 114 60 166 72 82 189 106 287 59z" />
    <path d="M2339 1232 c-33 -27 -30 -78 5 -109 26 -22 32 -23 216 -23 184 0 190
1 216 23 35 31 38 82 5 109 -21 16 -44 18 -221 18 -177 0 -200 -2 -221 -18z" />
  </g>
</svg>